<?xml version="1.0" encoding="utf-8"?>
<!-- Generator: Adobe Illustrator 18.1.1, SVG Export Plug-In . SVG Version: 6.00 Build 0)  -->
<!DOCTYPE svg PUBLIC "-//W3C//DTD SVG 1.1//EN" "http://www.w3.org/Graphics/SVG/1.1/DTD/svg11.dtd">
<svg version="1.1" id="Layer_1" xmlns="http://www.w3.org/2000/svg" xmlns:xlink="http://www.w3.org/1999/xlink" x="0px" y="0px"
	 viewBox="0 0 160 107" enable-background="new 0 0 160 107" xml:space="preserve">
<g>
	<path fill="#FFD961" d="M160,96c0,5.891-4.776,10.667-10.667,10.667H10.667C4.776,106.667,0,101.891,0,96V10.667
		C0,4.776,4.776,0,10.667,0h138.667C155.224,0,160,4.776,160,10.667V96z"/>
	<rect y="10.526" fill="#3D4345" width="160" height="19.649"/>
	<path fill="#FFFFFF" d="M110.877,61.058c0,0.775-0.628,1.404-1.404,1.404H9.123c-0.775,0-1.404-0.628-1.404-1.404V46.321
		c0-0.775,0.628-1.404,1.404-1.404h100.351c0.775,0,1.404,0.628,1.404,1.404V61.058z"/>
	<path fill="none" stroke="#F15859" stroke-width="2.1053" stroke-miterlimit="10" d="M150.877,61.058
		c0,0.775-0.628,1.404-1.404,1.404h-28.772c-0.775,0-1.404-0.628-1.404-1.404V46.321c0-0.775,0.628-1.404,1.404-1.404h28.772
		c0.775,0,1.404,0.628,1.404,1.404V61.058z"/>
	
		<text transform="matrix(1 0 0 1 124.6768 56.8504)" fill="#3D4345" font-family="'Courier-Bold'" font-size="9.8246" letter-spacing="1">123</text>
</g>
</svg>
