<svg class="footer-logo-svg" xmlns="http://www.w3.org/2000/svg" xmlns:xlink="http://www.w3.org/1999/xlink" viewBox="0 0 122 47.999999">
  <path fill="#bf2031" d="M0 0h122v48H0z"/>
  <g transform="translate(-38.3 -34.7)">
    <defs>
      <path
        d="M139.3 70.2h2.5V52.3h-2.5v17.9zm-38.1-17.9v13.6c0 .2 0 1.7-1.6 1.7h-15C83 67.6 83 66 83 65.9V52.3H71.2v17.9h2.6V54.9h6.6v11.6c0 1.4.9 3.7 3.6 3.7h16.2c2.7 0 3.6-2.2 3.6-3.7V52.2h-2.6zm31.4 0l-11.3 15.5L110 52.3h-4v17.9h2.6V54.6l11.2 15.5h2.9L134 54.6v15.5h2.6V52.3h-4zm-75.8-5v7.6H66v15.3h2.6V52.3h-9.2v-2.4h82.4v-2.6h-85z"
        id="a"/>
    </defs>
    <use height="100%" width="100%" overflow="hidden" xlink:href="#a" fill="#fff"/>
  </g>
</svg>
