<?xml version="1.0" encoding="UTF-8" standalone="no"?>
<svg width="16px" height="20px" viewBox="0 0 16 20" version="1.1" xmlns="http://www.w3.org/2000/svg" xmlns:xlink="http://www.w3.org/1999/xlink">
    <!-- Generator: Sketch 3.6.1 (26313) - http://www.bohemiancoding.com/sketch -->
    <title>pinterest3</title>
    <desc>Created with Sketch.</desc>
    <defs></defs>
    <g id="CAT" stroke="none" stroke-width="1" fill-rule="evenodd">
        <g id="PDP-Wire-iPhone-5" transform="translate(-225.000000, -1846.000000)">
            <g id="Mobile-Footer" transform="translate(0.000000, 1756.000000)">
                <g id="pinterest3" transform="translate(225.000000, 90.000000)">
                    <path d="M15.4475975,5.55433265 C14.9020534,1.60677618 10.9682136,-0.403203285 6.77096509,0.0674332649 C3.4526078,0.439466119 0.144229979,3.12238193 0.00689938398,6.95880903 C-0.0767556468,9.30086242 0.587433265,11.0574127 2.81589322,11.5518275 C3.78094456,9.84398357 2.50505133,9.47067762 2.30529774,8.23347023 C1.48755647,3.17728953 8.13798768,-0.275893224 11.6211499,3.25720739 C14.0331417,5.70414784 12.4438604,13.2272279 8.5587269,12.4444764 C4.83712526,11.6979055 10.3814374,5.70915811 7.41141684,4.53437372 C4.99691992,3.57806982 3.71478439,7.45572895 4.85958932,9.38332649 C4.18792608,12.6979466 2.74225873,15.8190144 3.32776181,19.9750719 C5.22537988,18.5967967 5.86583162,15.9613552 6.3901848,13.2110472 C7.34398357,13.7915811 7.85462012,14.3920739 9.07059548,14.4857084 C13.5549897,14.833963 16.0630801,10.0087474 15.4475975,5.55433265 L15.4475975,5.55433265 Z" id="Shape"></path>
                </g>
            </g>
        </g>
    </g>
</svg>