<?xml version="1.0" encoding="UTF-8"?>
<svg width="124px" height="182px" viewBox="0 0 124 182" version="1.1" xmlns="http://www.w3.org/2000/svg" xmlns:xlink="http://www.w3.org/1999/xlink">
    <!-- Generator: Sketch 41.1 (35376) - http://www.bohemiancoding.com/sketch -->
    <title>Page 1</title>
    <desc>Created with Sketch.</desc>
    <defs>
        <polygon id="path-1" points="0 0.0141845977 0 24.582267 27.415549 24.582267 27.415549 0.0141845977 0 0.0141845977"></polygon>
        <polygon id="path-3" points="57.260012 58.9315718 57.260012 0.302958175 0.349773704 0.302958175 0.349773704 58.9315718 57.260012 58.9315718"></polygon>
        <polygon id="path-5" points="88.4097385 0.176759298 0.353932345 0.176759298 0.353932345 158.076305 88.4097385 158.076305 88.4097385 0.176759298"></polygon>
    </defs>
    <g id="About-Us-4" stroke="none" stroke-width="1" fill="none" fill-rule="evenodd">
        <g id="About_Us_L" transform="translate(-234.000000, -1921.000000)">
            <g id="Page-1" transform="translate(234.000000, 1921.237690)">
                <g id="Group-8" transform="translate(0.000000, 89.133202)">
                    <g id="Group-3">
                        <mask id="mask-2" fill="white">
                            <use xlink:href="#path-1"></use>
                        </mask>
                        <g id="Clip-2"></g>
                        <path d="M21.4983198,16.3034197 L21.5744959,16.1945732 L21.4804513,16.1638729 L21.4983198,16.3034197 Z M16.0879323,14.8623663 C15.9374609,14.930279 15.8358927,14.9767947 15.7333841,15.0223799 C15.8255478,15.1749511 15.9026644,15.3433376 16.0221011,15.4679994 C16.049374,15.4968391 16.2195948,15.3777592 16.3249248,15.326592 C16.2449869,15.1712299 16.1659894,15.0149374 16.0879323,14.8623663 L16.0879323,14.8623663 Z M21.2961238,18.3612701 C21.4174414,18.2942876 21.538759,18.2282354 21.6600765,18.161253 C21.6045902,17.9361174 21.6121138,17.5788776 21.4804513,17.5100345 C20.9885979,17.252338 20.4506626,17.0895334 19.9296554,16.8904466 C20.1008166,17.2393137 20.4130448,17.3044355 20.6237047,17.4923586 C20.8907915,17.7295881 21.0760594,18.0672914 21.2961238,18.3612701 L21.2961238,18.3612701 Z M24.2171499,15.2326305 C24.836904,14.5302448 25.1717029,13.8325108 25.4378492,13.1180311 C24.767311,12.3505236 24.7607279,12.3570358 24.0036686,12.0844543 C23.865423,13.1217523 23.6058599,14.1274197 24.2171499,15.2326305 L24.2171499,15.2326305 Z M26.5381714,7.14077587 C26.0688887,8.09341546 25.6833057,8.78277672 25.3833033,9.50935047 C25.0343978,10.3540739 24.9619834,11.2034488 25.7077573,12.0630572 C26.5645039,10.5336241 26.5983599,8.98558476 26.5381714,7.14077587 L26.5381714,7.14077587 Z M10.3822448,9.39957364 C8.45527034,10.8973761 7.18754876,12.7412547 5.69788186,14.3646493 C4.17059711,16.0280473 2.3903323,17.4495642 1.09815912,19.4767143 C2.75240412,20.918698 4.51856223,21.8024945 6.61387653,22.2313684 C7.18002519,20.6637925 8.38003464,19.7585988 9.36374145,18.668273 C10.3540314,17.5705048 11.3932245,16.5183218 12.4418221,15.4800935 C13.476313,14.4558199 14.2662879,13.1422192 15.6684933,12.4184364 C17.1167806,13.4910862 18.5424971,14.5460602 19.9221318,15.5675428 C21.2114836,15.0465681 21.4597615,14.9312094 22.1049076,13.8185561 C23.0199618,12.2416771 23.8108772,10.5875822 24.706182,8.99767882 C25.4510155,7.67384471 25.4547772,6.31093749 25.2760925,4.84197469 C25.0682538,3.13206106 24.1992815,2.1431393 22.7114955,1.58309142 C20.7450223,0.842562991 18.7512762,0.736507412 16.7180313,1.22399095 C15.8236669,1.43889304 14.9424688,1.78031758 14.0396403,1.86962754 C11.6132889,2.10778744 9.55559249,3.3581269 7.4179581,4.38612176 C6.6477326,4.75638597 6.04114475,5.35457665 5.81543764,6.1816241 C7.06058851,7.73617562 9.10041649,7.79199434 10.3822448,9.39957364 L10.3822448,9.39957364 Z M9.25747102,21.4024603 C8.45621079,21.5122371 8.09225808,22.11694 7.84303982,22.8156044 C7.80448152,22.9253812 7.97752363,23.1170255 8.12423325,23.4156557 C7.59005977,23.3542551 7.18284653,23.3896069 6.83770275,23.2537814 C5.06684241,22.5560473 3.30162475,21.8406373 1.55897779,21.0712692 C0.976841548,20.814503 0.468060112,20.379117 -0.000282133883,20.0739746 C0.0185267917,18.9734154 0.690005434,18.4980259 1.23734517,17.9165809 C3.02983577,16.0113017 4.802577,14.0855557 6.57343734,12.157949 C6.84334542,11.8649007 7.06058851,11.5188246 7.35400775,11.1290238 C6.9138789,10.6006066 6.5583902,9.99032182 6.04772787,9.60517261 C5.11292427,8.90092636 4.74615023,7.94921709 4.61542819,6.82912132 C4.58439347,6.56119144 4.56088231,6.29233124 4.53737115,6.05231072 C5.28032371,4.62056041 6.37124139,3.69862112 7.77062545,3.13299137 C8.25777663,2.9357652 8.70448861,2.63155315 9.19069933,2.42967543 C10.0991704,2.0510384 11.0029393,1.62402515 11.9462069,1.37656213 C13.7245908,0.910475774 15.5199028,0.490905019 17.3265001,0.175529219 C19.6428193,-0.230086855 21.8923668,0.153201728 24.0629168,1.05467415 C24.8397254,1.37656213 25.3466259,1.95521626 25.6635563,2.7506331 C25.8873825,3.31161129 26.1093279,3.84654075 26.7215584,4.14051937 C27.2519701,4.39449457 27.2500892,5.04478272 27.3102778,5.57319999 C27.647898,8.56694432 27.1748535,11.4332359 25.8704545,14.1302106 C25.4594795,14.9805159 24.8886286,15.7480234 24.3977156,16.5583252 C24.1362716,16.98999 23.7478673,17.2095437 23.2898699,17.326763 C23.5259219,15.8484971 23.5099343,15.7452324 22.6475451,13.9953154 C22.6193317,15.225188 22.40491,16.1387545 22.5685476,17.0560422 C22.6419024,17.4635189 23.0293663,17.4477036 23.3594629,17.2662927 C23.2804655,17.8337831 22.990808,18.262657 22.6024037,18.6636215 C21.5791981,19.7176651 21.0901661,19.8293025 19.8337299,19.1073804 C18.860368,18.5482628 17.9189812,17.9286749 16.9587856,17.3453692 C16.740602,17.2132649 16.4998478,17.1220943 16.2233566,16.9909203 C14.8756971,18.0347305 13.6634618,19.1985509 12.5678419,20.450751 C11.4712816,21.7038814 10.578798,23.151447 9.54712847,24.582267 C8.80417591,24.117111 8.54085095,23.5561328 8.8323893,22.7235035 C8.98756294,22.2806749 9.09007158,21.8192401 9.21609138,21.3661781 C9.31389779,21.3066381 9.4399176,21.267565 9.49822526,21.1801157 C9.52361731,21.1419729 9.41264465,21.0042867 9.36374145,20.9121858 C9.32142136,20.9577711 9.24994745,21.0005655 9.24430477,21.0508023 C9.23207897,21.166161 9.25088789,21.285241 9.25747102,21.4024603 L9.25747102,21.4024603 Z" id="Fill-1" fill="#FFFFFF" mask="url(#mask-2)"></path>
                    </g>
                    <polygon id="Fill-4" fill="#FFFFFF" points="21.4983198 16.3034197 21.4804513 16.1638729 21.5744959 16.1945732"></polygon>
                    <path d="M9.25737697,21.4027394 C9.25079385,21.2855201 9.23198492,21.1655098 9.24515117,21.0501511 C9.2498534,21.0008446 9.32132732,20.9580502 9.3636474,20.9124649 C9.41255061,21.0045658 9.52352327,21.142252 9.49813122,21.1803948 C9.43982355,21.2678441 9.3147442,21.3069172 9.21693778,21.3664572 L9.25737697,21.4027394 Z" id="Fill-6" fill="#FFFFFF"></path>
                </g>
                <g id="Group-40" transform="translate(65.831239, 83.551329)">
                    <g id="Group-11">
                        <mask id="mask-4" fill="white">
                            <use xlink:href="#path-3"></use>
                        </mask>
                        <g id="Clip-10"></g>
                        <path d="M37.7679463,53.848211 C37.8309562,53.7914619 37.8892639,53.7384342 37.948512,53.6854064 C37.8168495,53.6212148 37.6898893,53.541208 37.5516437,53.5030652 C37.5112045,53.4919014 37.4369092,53.5998177 37.3786016,53.6528454 C37.5130854,53.7198279 37.6475692,53.7877407 37.7679463,53.848211 M39.4870821,44.5209019 C39.4522856,44.5850935 39.4184295,44.6483547 39.383633,44.7125462 C39.4410002,44.7348737 39.5199977,44.7916227 39.550092,44.7720862 C39.6074592,44.7348737 39.6375535,44.6548669 39.6779927,44.5934663 C39.6149828,44.5692781 39.5510325,44.54509 39.4870821,44.5209019 M34.123717,54.9580733 C34.8751336,54.7599168 35.1488034,54.6966556 35.4130688,54.608276 C35.4488058,54.5971122 35.4779596,54.4166317 35.4469249,54.3915132 C35.3538207,54.3170883 35.1939448,54.2082418 35.1243518,54.241733 C34.9155728,54.3440673 34.7378284,54.5078023 34.123717,54.9580733 M30.5415571,44.5757903 C31.5600604,44.8213927 31.9747972,44.4697348 32.2353009,43.7599066 C31.1406214,43.3012628 31.1406214,43.3012628 30.5415571,44.5757903 M21.9609253,56.7898578 C21.8508931,56.2186462 21.8179775,55.7274414 21.6543398,55.2846129 C21.4709528,54.7878262 21.0957147,54.4733807 20.3358341,54.7171225 C20.1261146,55.3134525 19.8524447,55.9925804 19.663415,56.694966 C19.6192141,56.8577706 19.8609087,57.0968608 20.0198442,57.3908394 C20.6687521,57.189892 21.2847444,56.999178 21.9609253,56.7898578 M40.3043299,49.2915423 C40.4529204,48.6775364 40.6720444,48.1416766 40.6889724,47.5993046 C40.7077814,46.968553 39.9873995,46.5573551 39.4297149,46.837379 C38.7667003,47.1695005 38.1375417,47.5667437 37.4481946,47.9621264 C38.1187328,48.8738322 38.8485191,49.454347 40.3043299,49.2915423 M11.8661749,55.2408882 C12.1135123,56.3321443 12.7342069,56.8931225 13.931395,56.9954568 C15.3589924,57.118258 16.7687214,57.1675645 18.4765718,57.0215055 C18.2818994,55.3608984 20.0348913,54.2798758 19.5693704,52.50391 C18.2687332,53.0946582 17.0828304,53.729131 15.8292156,54.1738202 C14.5661962,54.6213003 13.2354647,54.8808574 11.8661749,55.2408882 M51.0479882,45.8382238 C51.8351417,45.4633081 52.0881218,45.3879528 52.2827942,45.2381725 C52.4755856,45.0893226 52.6523895,44.8874449 52.7614813,44.6725428 C53.2194786,43.7701401 53.5984785,42.8268036 54.1006768,41.9504496 C54.9226269,40.5131174 55.3119716,38.9892662 55.2941031,37.3472654 C55.2837582,36.3360161 55.3364232,35.3219759 55.2988054,34.311657 C55.2470808,32.937586 54.9705896,31.5923547 53.9802997,30.5643599 C52.5705707,29.1009789 51.2031618,27.5706155 49.4153735,26.5277357 C48.7598824,26.1463077 48.0705353,25.7462735 47.3435703,25.5769567 C45.4344644,25.1331979 43.4990259,24.8010764 41.5692302,24.4503488 C41.2664065,24.3954604 40.9372503,24.4829097 40.4952405,24.5126797 C40.679568,25.1713407 41.1394462,25.4271765 41.4949349,25.7583676 C42.316885,26.5268054 42.9488649,27.4338597 43.2977704,28.4906942 C44.4987203,32.1384479 45.1824248,35.8382991 44.4996608,39.698164 C44.2984053,40.8350054 43.926929,41.8406728 43.0062321,42.5374765 C41.939766,43.3431268 41.3773791,44.4604316 40.7707913,45.6279733 C41.3077861,46.5620067 42.1306766,47.4988309 41.4939945,48.6486967 C40.8761213,49.7650712 40.9297267,50.8991216 41.0613892,52.0834089 C41.1225182,52.6295021 41.0717341,53.1886197 41.0717341,53.9486847 C43.0880509,53.6137723 45.0187871,53.3384 46.6410569,52.1476005 C47.3849499,51.6015073 48.0432623,50.9186582 48.6498502,50.2218544 C49.0551825,49.7566984 48.8774382,49.2822392 48.2971828,49.0096578 C46.3203648,49.7185556 46.3203648,49.7185556 44.4018543,49.3073576 C42.9987085,49.0059365 42.5360089,47.8997954 43.2921277,46.6522469 C43.8121945,45.7954295 44.7263083,45.102347 46.3485781,44.3915885 C46.3890173,45.0065248 46.3673871,45.5684333 46.4745979,46.1042931 C46.6006177,46.7341144 46.6514018,47.4653397 47.6238233,47.7090815 C48.1166171,47.2243889 48.6442075,46.706205 49.2366887,46.12476 C48.6761827,45.7796142 48.2313516,45.5507574 47.838245,45.2539878 C47.2278954,44.7916227 47.2927862,44.4269404 48.0554881,43.7292063 C48.7993811,43.8575894 49.2705447,45.0362948 50.3671051,44.2399477 C49.958011,43.7980494 49.5620831,43.4045274 49.2056539,42.9775142 C48.5830785,42.2332645 48.5934234,42.2248917 49.1915472,41.3522589 C50.0595792,41.2517852 50.1122441,42.6016681 51.1636631,42.3681597 C51.6508143,41.4964573 51.62072,40.7242983 50.8091148,39.945627 C50.3106783,39.4674466 50.3877949,38.9213534 51.0395242,38.4441033 C51.5041046,38.926005 51.839844,39.4246523 52.3072458,39.7223521 C53.1367194,40.2516997 53.1386003,40.9540853 52.8733944,41.7113594 C52.5959628,42.5058459 52.2273078,43.2705625 51.8878067,44.0436518 C51.6940748,44.4846197 51.4805935,44.9172149 51.0479882,45.8382238 M28.0531363,48.4310037 C27.909248,48.4626343 27.7663002,48.4951952 27.7164565,48.5063589 C27.751253,48.4924043 27.8763324,48.4412371 28.0004713,48.3910002 L32.3180601,48.3910002 C31.9813804,49.4189951 31.1914055,49.3045667 30.5697705,49.3287548 C28.9258704,49.3938767 27.3788363,49.788329 25.8872885,50.4432687 C25.7349362,50.5111815 25.5760008,50.590258 25.458445,50.7028258 C25.336187,50.8191148 25.2609513,50.9828497 24.9816387,51.4024205 C27.8932604,50.5307181 30.4531552,49.6450609 33.7343722,50.5111815 C32.9284098,50.751202 32.6406332,50.9186582 32.3594398,50.9084248 C29.6001704,50.8051601 27.2227222,51.904789 24.8998199,53.1858288 C24.5104751,53.3998006 24.189783,53.6630789 24.4935471,54.241733 C25.5139313,54.4715201 26.5813378,54.7524743 27.664732,54.9394671 C28.2393446,55.0390105 28.8713245,55.0938989 29.4290092,54.9645855 C32.4995663,54.2519664 35.550374,53.4584102 38.1742191,51.6089498 C38.4902091,51.3866052 38.7168566,51.0414594 39.0309657,50.7037561 C37.2704502,49.0915252 35.4948877,47.8095552 33.1785685,47.5918621 C31.4142913,47.4253363 29.6312051,47.3518416 28.0531363,48.4310037 M40.0475881,41.3820289 C39.1344148,42.7421452 37.6099513,42.8751798 36.9215447,44.1329618 C39.8294045,43.3775484 41.6303592,41.7615962 42.3714308,39.3660426 C43.1350732,36.8969943 43.2422841,34.3916638 42.7852272,31.8658665 C42.1523069,28.3706839 39.2933502,25.7444129 35.7638553,25.5518383 C34.8393966,25.5016014 34.1820247,24.9871389 33.3948711,24.7992158 C32.1929808,24.5117494 31.2609985,24.0326386 30.4719641,23.0651141 C30.0167881,22.5050662 29.2352772,22.2055057 28.7951484,21.9161786 C28.4039227,20.6621179 28.1189675,19.5308584 27.7004689,18.4507661 C26.1205192,14.3732082 25.2430828,10.190525 25.6625218,5.80410346 C25.8064101,4.29513724 25.9897971,2.78896196 26.1891717,1.28557761 C26.2324323,0.963689626 26.3462263,0.567376673 26.5738143,0.381314254 C26.7449755,0.24176744 27.384479,0.311540847 27.4164541,0.412944865 C27.7992158,1.61955965 28.7039251,2.62057547 28.1753943,4.14442668 C26.7609631,8.22384522 27.5199032,12.3246609 28.4923247,16.3836126 C28.5694413,16.7027097 28.6926397,17.0552979 28.9080019,17.2897366 C30.0544059,18.5410064 31.2280829,19.7690183 32.4111643,20.9858665 C33.1729258,21.7691893 34.1519304,22.0585164 35.2155751,21.9468789 C38.140363,21.6417366 40.9833321,22.424129 43.8761449,22.5394877 C44.9990377,22.5841427 46.0269455,23.0046438 47.0050096,23.5702735 C48.3300984,24.3368507 49.7379465,24.9676023 51.0301197,25.7816254 C54.8050711,28.1576425 56.9079089,31.4974629 57.1966259,36.0076159 C57.3489782,38.3947968 57.2427078,40.7149951 56.7094748,43.0305419 C56.63612,43.3524299 56.5740505,43.7115304 56.3869017,43.9673662 C55.5386192,45.1237442 54.6705872,46.268028 53.7630566,47.3788207 C53.3379749,47.8988651 52.8790371,48.458913 52.3081862,48.780801 C51.0188344,49.5101657 50.0266635,50.5223452 49.0279096,51.5773192 C47.0567342,53.657497 44.7545217,55.1906513 41.7855328,55.5357971 C40.7726722,55.6539468 39.7767396,55.9116432 38.7224993,56.1144512 C38.4629361,56.5209976 38.254157,57.0075509 37.9071324,57.3592088 C37.2309515,58.0448488 36.3478724,58.0420579 35.6444186,57.3629301 C35.2212178,56.9545231 34.903347,56.4409908 34.2083572,56.2046915 C34.3089849,56.7452028 34.4086722,57.2857142 34.5055382,57.8104102 C34.0296724,58.2039322 33.668541,57.9732148 33.3619555,57.6699331 C32.9547423,57.2661776 32.5889087,56.8233491 32.1026979,56.283768 C31.550656,57.014063 32.1271495,57.7108668 31.8572415,58.3090575 C31.462254,58.6774611 31.1349787,58.5862905 30.8434404,58.1499741 C30.4437507,57.5508531 30.3845026,56.7042691 29.6011108,56.3516808 C28.7443643,57.0549968 29.6989173,58.0308942 29.002987,58.8598022 C28.7801012,58.739792 28.4537664,58.6607155 28.2920096,58.4551165 C28.0089353,58.0922948 27.8264887,57.6513268 27.5076774,57.0745333 C27.1324394,57.7304034 26.8540673,58.2188172 26.5098639,58.8207291 C26.1618988,58.34627 25.8788245,57.9592601 25.5985715,57.5759715 C24.2772445,57.893208 22.9766073,58.2597509 21.6533994,58.5081443 C20.3452386,58.7537467 19.0530654,59.3147249 17.676252,58.5248899 C17.2380041,58.2727753 16.5072773,58.5314021 15.9100939,58.534193 C14.378107,58.5416355 12.8470604,58.5369839 11.4100585,58.5369839 C9.67869691,57.1191883 7.92852638,55.9032704 6.76801568,54.0649737 C6.51691652,53.6677304 6.01095642,53.3960793 5.57458935,53.1504769 C2.44760548,51.394978 1.30120147,48.4682161 0.738814595,45.1972388 C0.595866761,44.3664701 0.51028615,43.525468 0.413420183,42.6872568 C0.256365655,41.3234192 0.388028134,39.9772576 0.830037884,38.6813329 C1.62659588,36.3462495 2.70152598,34.106058 4.16768172,32.1403086 C6.72287426,28.7148994 10.3144386,26.8189234 14.5389233,26.2049174 C15.5019403,26.0644403 16.5533592,26.4235407 17.5464705,26.6319306 C18.0129318,26.7296134 18.1803313,27.1594176 18.0900484,27.6292252 C18.0016465,28.0869388 17.7326788,28.3855689 17.2417659,28.4227814 C16.9022648,28.4488302 16.557121,28.4795305 16.2195008,28.4506908 C13.1969064,28.1902034 10.6473566,29.2730867 8.57273208,31.3346583 C7.01159126,32.8864189 5.52098391,34.5498169 4.25420278,36.3397374 C2.25669489,39.1632346 1.67926087,42.3700204 2.34697773,45.7703111 C3.21689054,50.2013876 8.03949904,53.8882144 13.0370306,53.3225846 C13.5853107,53.2602537 14.1053775,52.9588326 14.9339107,52.6620631 C13.2871893,52.2331892 11.9668027,51.9233953 10.6699273,51.5363854 C10.0229002,51.3438108 9.38339677,51.0702991 8.80502231,50.7270139 C7.90219389,50.1902238 7.32099809,49.4450438 7.07272027,48.3463453 C6.84701317,47.349981 6.92036797,46.1228993 5.74198879,45.5265693 C5.67897889,45.4949387 5.65170595,45.3860922 5.61690943,45.3088763 C4.93790722,43.8101435 5.93948251,40.9029182 7.47899306,39.9642333 C7.5711568,39.9084145 7.77805498,40.0367976 8.11473475,40.1307591 C7.66520143,40.923385 7.18369293,41.6648438 6.8131571,42.4574697 C6.41816966,43.3021931 6.13979756,44.1971533 6.60719936,45.233521 C7.07460116,45.1256048 7.53730073,45.0176886 7.99717896,44.9107027 C8.06865288,45.0669951 8.22006473,45.2381725 8.18338732,45.3451584 C7.93322862,46.0698716 7.6586183,46.7741178 8.14576947,47.5155766 C8.78151116,48.4840314 9.02132496,49.7771653 10.3097364,50.2144119 C11.514448,50.6237493 12.7342069,50.9912225 13.9549061,51.350323 C14.4326528,51.4908001 15.1003697,51.3959083 15.3890867,51.6889566 C16.0615058,52.372736 16.7894112,52.0759664 17.2257783,51.7261691 C18.342088,50.8293482 19.6972711,50.3604709 20.8361515,49.4990019 C21.9731511,48.6393936 23.3283342,48.0607394 24.5988771,47.3788207 C25.0361846,47.144382 25.5073482,46.971344 26.1816482,46.6736441 C25.2703557,46.1275509 24.5593783,45.7182136 23.865329,45.2837578 C22.8016843,44.6167241 22.1508954,43.6278023 21.8565357,42.4490969 C21.7700147,42.1048814 21.9364737,41.6025129 22.1612403,41.2992311 C22.4979201,40.8452388 23.0142251,40.7810473 23.6490264,41.2545762 C23.4026294,42.354205 23.540875,43.4129002 24.6158051,44.2520417 C25.6926161,45.0921135 26.8192708,45.4995902 28.1706921,45.2651516 C28.5882502,45.1916569 29.002987,45.1051379 29.5014235,45.0083855 C29.5747783,44.3339092 29.6462523,43.6892029 29.7355947,42.8714586 C29.1835527,43.0370541 28.6945206,43.1831131 28.0710047,43.3701059 C28.1039204,42.3449019 28.4725753,41.6239101 28.9710118,40.9457125 C29.4045576,40.356825 29.8860661,39.8953902 30.6685174,40.3949678 C31.1349787,40.6926676 31.4340406,40.3465915 31.8139809,40.1930901 C32.0857699,40.0842435 32.5494099,40.034937 32.7299756,40.1884385 C33.1531764,40.5466086 32.8099135,40.9243154 32.5653975,41.2731824 C32.4233901,41.4741298 32.3340477,41.7113594 32.0895317,42.1895398 C32.6387523,42.0481324 33.1259035,42.0704599 33.2820176,41.8555578 C33.7710496,41.1875937 34.1350023,40.4303196 34.6268557,39.5688506 C35.4685552,39.9819092 36.1955201,40.3382187 36.9441154,40.7047617 C37.6701399,40.3372884 38.0444375,39.7660768 38.1413035,38.6124898 C37.5704526,38.967869 37.2422368,39.1353252 36.9582221,39.3576698 C36.6563388,39.5948994 36.3544556,39.700955 36.0798452,39.3976732 C35.7478677,39.0329909 35.8052349,38.6143504 36.1071182,38.2533893 C36.2679345,38.061745 36.4701304,37.8710311 36.6948971,37.769627 C37.4632417,37.4235509 38.2297054,37.0523564 39.0347274,36.8132662 C39.7428835,36.6030157 40.3870892,37.3695928 40.1585607,38.061745 C40.1058958,38.2198981 40.0682779,38.4068908 39.9601266,38.5213192 C39.0375488,39.5018682 39.0911542,40.4749746 40.0475881,41.3820289" id="Fill-9" fill="#FFFFFF" mask="url(#mask-4)"></path>
                    </g>
                    <path d="M17.5164702,37.7114825 C16.1086221,36.8360589 16.7330785,35.3159289 15.7813468,34.362359 C15.5001534,34.714017 15.1117491,34.9810165 15.0581437,35.3019742 C14.6377642,37.8361444 14.930243,40.3405445 15.6543866,42.7798228 C15.8274287,43.3612679 16.4490637,43.8133996 16.8581578,44.3176287 C16.5337039,44.7371995 16.2355824,44.5055518 15.9600316,44.3390259 C15.5255455,44.0766779 15.1155109,43.7724658 14.6782034,43.5129088 C13.1763107,42.6216698 12.3223854,41.3685394 12.3675269,39.5832705 C12.3759909,39.2492884 12.3167428,38.9106548 12.260316,38.5794637 C11.735547,35.4638485 13.1085985,33.2022598 15.5452948,31.4188515 C16.9926416,30.3601564 18.5293309,30.2922436 20.101757,31.092312 C20.3716651,31.2290679 20.6848337,31.5565377 20.706464,31.8170251 C20.7271538,32.0663487 20.4327941,32.3873064 20.2023848,32.5956963 C20.0274618,32.7538494 19.7340425,32.7780375 19.4970501,32.8710687 C18.0459415,33.444141 17.4101998,34.5112089 17.511768,36.0415723 C17.5428027,36.5020768 17.5164702,36.9663025 17.5164702,37.7114825" id="Fill-12" fill="#FFFFFF"></path>
                    <path d="M17.3735224,5.97369935 C17.8381029,5.93834749 18.2293285,5.93369593 18.6120901,5.87322565 C18.9346632,5.82205848 19.2478318,5.70669978 19.4810625,5.64343856 C20.2578711,6.02951808 20.5381241,6.63049969 20.723392,7.29195159 C22.0663493,12.0942226 22.9795226,16.9532427 22.7171381,21.9685552 C22.6597709,23.0514385 22.6080464,24.1315308 21.9074139,25.3074453 C21.6534934,24.9539267 21.3215159,24.7027424 21.3478484,24.4952829 C21.9083543,19.9730358 20.9199453,15.6387117 19.7218167,11.3378789 C19.2704025,9.71913585 18.6863854,8.13667497 17.5870037,6.79795587 C17.450639,6.63236031 17.4638052,6.34582419 17.3735224,5.97369935" id="Fill-14" fill="#FFFFFF"></path>
                    <path d="M24.3687499,3.486603 C24.5126382,6.3789433 24.6283131,8.70100229 24.7449284,11.0360856 C24.3029186,11.2416846 24.2051122,10.8304867 24.033951,10.5876752 C23.7772092,10.2229929 23.7047948,9.56247129 22.9872343,10.0946098 C22.9091773,10.1522892 22.449299,9.92436269 22.38817,9.75225496 C21.968731,8.56982828 21.5925525,7.37158631 21.241766,6.16683214 C21.1778157,5.94541786 21.2135526,5.61608738 21.3442747,5.43839777 C21.5191977,5.20116819 21.8126169,4.97789328 22.0947508,4.91370175 C22.2536862,4.87741958 22.6289243,5.1406979 22.668423,5.31931782 C22.826418,6.05054313 22.8931897,6.8022353 23.0201499,7.74092021 C23.1029092,6.50639606 23.1226586,5.44211902 23.2825344,4.39830885 C23.3229736,4.13410021 23.8101248,3.93780436 24.3687499,3.486603" id="Fill-16" fill="#FFFFFF"></path>
                    <path d="M36.4307257,31.0219804 C36.8953062,31.0545413 37.3852787,31.0917538 37.8761917,31.1224541 C39.2050423,31.2052519 39.2934442,31.1866456 39.5511265,32.4472185 C39.7175855,33.25659 40.2037962,33.7868679 40.6373419,34.4027345 C40.7511359,34.5636785 40.7351484,35.0288346 40.6354611,35.0790714 C40.3721361,35.2139667 39.9404713,35.3376982 39.7382753,35.2111758 C39.332943,34.9572005 39.0771416,34.4790201 38.6859159,34.1906234 C37.3570653,33.2091441 36.7090978,32.5635075 36.252041,31.5606311 C36.2040782,31.4555058 36.3451451,31.2647918 36.4307257,31.0219804" id="Fill-18" fill="#FFFFFF"></path>
                    <path d="M34.3268534,28.8290487 C33.046906,28.2587674 31.9221323,27.7573292 30.7588002,27.2391453 C30.5819963,26.4781501 31.1782392,26.1599833 31.7443879,26.218593 C33.0610127,26.3562792 34.1143125,26.990752 34.5384538,28.3378439 C34.5751312,28.4522723 34.4190171,28.6262407 34.3268534,28.8290487" id="Fill-20" fill="#FFFFFF"></path>
                    <path d="M21.1001348,46.2991935 C21.7001395,46.5066531 22.37538,46.7392311 23.083536,46.9839032 C22.5681714,47.9421246 21.8205167,47.9635218 21.1095393,47.6351217 C20.6035792,47.400683 20.493547,46.8899417 21.1001348,46.2991935" id="Fill-22" fill="#FFFFFF"></path>
                    <path d="M16.7627966,49.0836176 C16.5643624,49.6418048 16.4439853,49.9804384 16.291633,50.4093123 C15.4630998,50.1488249 14.7699909,49.9302016 14.0552517,49.7059964 C14.0975718,49.3952721 14.129547,49.1608335 14.1699862,48.8705761 C14.9336286,48.932907 15.6605935,48.9933773 16.7627966,49.0836176" id="Fill-24" fill="#FFFFFF"></path>
                    <path d="M10.1421488,47.731595 C10.5352554,47.9771974 10.8239724,48.1204655 11.0572031,48.3251341 C11.1296174,48.3893257 11.0825951,48.7456352 11.0327515,48.7595899 C10.7308682,48.840527 10.4007716,48.9289067 10.1035905,48.8777395 C9.91079905,48.8451786 9.58728553,48.5158481 9.62020115,48.4302594 C9.7208289,48.1651205 9.96440448,47.952079 10.1421488,47.731595" id="Fill-26" fill="#FFFFFF"></path>
                    <path d="M19.471564,25.4820649 C19.8609087,25.7955801 20.1505662,26.0281581 20.4411641,26.2616664 C20.2700029,26.3993526 20.0790923,26.6710037 19.9342636,26.6486763 C19.6417848,26.603091 19.3549487,26.4216801 19.1151349,26.2346874 C19.0765766,26.2049174 19.2900579,25.857911 19.471564,25.4820649" id="Fill-28" fill="#FFFFFF"></path>
                    <path d="M4.58561605,46.6568985 C4.39376501,46.5322367 4.15865344,46.4112961 4.16993879,46.3815261 C4.23859137,46.2019759 4.34674269,46.0270772 4.48216696,45.8912516 C4.50849945,45.8652029 4.83201297,46.0410319 4.82354896,46.0866172 C4.7859311,46.2801221 4.67495844,46.4596723 4.58561605,46.6568985" id="Fill-30" fill="#FFFFFF"></path>
                    <path d="M39.4871761,44.5205298 C39.5511265,44.5447179 39.6150768,44.568906 39.6780867,44.5930941 C39.6376476,44.655425 39.6075533,44.7354319 39.5501861,44.7717141 C39.5200918,44.7912506 39.4410943,44.7354319 39.3837271,44.7131044 C39.4185236,44.6489129 39.4523796,44.5847213 39.4871761,44.5205298" id="Fill-32" fill="#FFFFFF"></path>
                    <path d="M28.0005653,48.3907211 C27.8764264,48.440958 27.7513471,48.4921252 27.7165505,48.5060798 C27.7654538,48.4949161 27.909342,48.4632855 28.0579325,48.4344458 C28.0635752,48.4381671 28.0005653,48.3907211 28.0005653,48.3907211" id="Fill-34" fill="#FFFFFF"></path>
                    <path d="M52.3052708,35.3135101 C52.6993178,35.6009765 52.9786304,35.757269 53.1958734,35.974962 C53.4328659,36.2121916 53.2682878,36.6801385 52.9391316,36.7406088 C52.7011987,36.7834032 52.4143626,36.8438735 52.2187498,36.7527029 C51.9610675,36.6317623 51.5529138,36.2875468 51.5924125,36.1842822 C51.7109088,35.8772792 52.0165538,35.6409799 52.3052708,35.3135101" id="Fill-36" fill="#FFFFFF"></path>
                    <path d="M51.1852933,34.830306 C50.8523754,34.6340101 50.4526857,34.4953936 50.2091101,34.2218819 C50.0426511,34.0339588 50.0934352,33.6581127 50.0464129,33.3669251 C50.3370108,33.3632038 50.7479858,33.2394723 50.8918741,33.3808797 C51.1928169,33.6785796 51.3536332,34.1158263 51.5718168,34.4953936 C51.4429756,34.6070311 51.3141345,34.7186685 51.1852933,34.830306" id="Fill-38" fill="#FFFFFF"></path>
                </g>
                <g id="Group-45" transform="translate(61.712887, 151.464112)" fill="#FFFFFF">
                    <path d="M14.190532,1.79585379 C13.4786142,2.01447714 13.4334728,2.56708252 13.2877036,3.01456264 C13.2293959,3.19318256 13.3507135,3.48530056 13.4870782,3.64717486 C13.5754802,3.75323044 13.876423,3.79695511 14.0099664,3.72904233 C14.2055792,3.63042925 14.4764277,3.39878153 14.4679637,3.23690723 C14.4416312,2.75965713 14.2949216,2.28891921 14.190532,1.79585379 L14.190532,1.79585379 Z M1.59795639,20.5993219 C3.82117139,23.5660871 7.36853475,24.0126369 9.98955853,22.3548208 C7.7597604,22.0710756 6.23811833,20.8123633 4.80863998,19.4113133 C4.35064265,18.9619726 3.92838227,18.4754193 3.46004002,18.036312 C3.2503205,17.8400162 2.96724617,17.7190756 2.62962596,17.5078948 C2.26473281,18.6010115 1.94404062,19.5629542 1.59795639,20.5993219 L1.59795639,20.5993219 Z M9.56259592,14.2638965 C9.61526091,14.0275972 9.59457109,13.7326883 9.7309358,13.5643018 C11.1340816,11.8395032 11.9184138,9.79467719 12.7836244,7.79729712 C13.1259469,7.00653184 13.49084,6.17576314 13.3309641,5.24079948 C12.6312721,5.35708849 12.5127759,5.92178794 12.2795452,6.35066181 C11.2977193,8.1498854 10.3093103,9.94724837 9.39049425,11.7790329 C8.73970542,13.0777486 7.82653209,14.1280709 6.65379558,14.9616306 C5.76695474,15.5923822 4.8434365,16.1719666 3.84092077,16.8380701 C5.09359521,18.4986771 6.47040856,19.9667096 8.39268075,20.8812064 C9.2127499,21.2710072 10.07702,21.2979862 10.8491264,21.0393595 C13.5594926,20.1341658 15.8786331,18.6670636 17.0259776,15.9245036 C17.5676746,14.6295091 17.9748879,13.2684626 18.3106272,11.9064856 C18.489312,11.1808422 18.6247362,10.2933245 18.3623517,9.64303632 C17.7670492,8.16942196 16.9761339,6.75906882 16.1400772,5.39709191 C15.669854,4.63051475 14.8892836,4.80262249 14.5394376,5.626879 C13.9140408,7.09956305 13.3525944,8.60573833 12.6228081,10.0263249 C11.9532104,11.3315528 11.1152727,12.5549132 10.3055485,13.7847858 C10.1597793,14.0052697 9.79112436,14.0834159 9.52497806,14.226684 L9.56259592,14.2638965 Z M0.212679028,20.9695861 C0.900145257,18.9898819 0.709234663,16.7441085 2.4170851,14.9997734 C2.78574004,15.2509576 3.12712204,15.4835356 3.56442956,15.7812355 C3.85502746,15.6835528 4.24155088,15.6184309 4.56130261,15.43702 C6.04532684,14.593227 7.37041564,13.5224378 8.17543766,12.023705 C9.29644962,9.93608463 10.7014764,7.9880111 11.4133942,5.69200085 C11.7745256,4.52818042 12.2033691,3.38575717 12.5945947,2.23123986 C12.6971034,1.92888842 12.7403639,1.60234888 12.8710859,1.31395213 C13.0892695,0.834841401 13.3967954,0.392012843 13.9826934,0.351079111 C14.637244,0.305493818 14.83944,0.833911088 15.0350528,1.30930057 C15.180822,1.66374948 15.3209485,2.03215307 15.3848988,2.40613853 C15.5297275,3.2657469 15.8250277,3.97464472 16.6563822,4.44445233 C17.0165731,4.64819068 17.2723745,5.09008892 17.4867962,5.47244719 C18.0538854,6.47904488 18.6322598,7.48657288 19.0874358,8.54340742 C19.3310114,9.1108978 19.4278774,9.78165282 19.4231751,10.4040316 C19.4053067,13.0340239 18.5984037,15.4630688 17.2366375,17.6911663 C16.7776998,18.4428584 16.1278514,19.1201256 15.4441469,19.6885463 C14.0569887,20.8421333 12.6115227,21.9333894 11.1434861,22.987433 C9.61996314,24.0805497 7.89142288,24.4982599 6.0058281,24.3298734 C5.07948851,24.2480059 4.24531266,23.9810063 3.44687378,23.5074775 C2.27507771,22.811604 1.23494413,21.9706019 0.212679028,20.9695861 L0.212679028,20.9695861 Z" id="Fill-41"></path>
                    <path d="M15.3802906,7.85618588 C15.5542732,9.32980023 14.8574025,10.49176 13.9978346,11.6072042 C14.2874921,10.3410495 14.15677,8.98279382 14.9119484,7.83199776 C14.9439236,7.78362153 15.1385959,7.84037057 15.3802906,7.85618588" id="Fill-43"></path>
                </g>
                <g id="Group-113" transform="translate(6.226557, 0.174692)">
                    <g id="Group-48">
                        <mask id="mask-6" fill="white">
                            <use xlink:href="#path-5"></use>
                        </mask>
                        <g id="Clip-47"></g>
                        <path d="M45.3166706,99.7959739 C45.2875167,99.7503886 45.2574225,99.7057336 45.2282686,99.6601483 C45.203817,99.7075943 45.1577351,99.7559705 45.159616,99.8024861 C45.1624374,99.8480714 45.2132215,99.8917961 45.2423753,99.936451 C45.2677674,99.8890051 45.292219,99.8424895 45.3166706,99.7959739 L45.3166706,99.7959739 Z M73.344791,54.2451028 C72.5990171,54.8237569 72.4466648,55.536376 72.2369453,56.2173644 C72.1090446,56.6332139 72.0544987,57.0844153 71.857005,57.4630523 C70.5704744,59.9227975 69.2707777,62.3760305 67.943808,64.8134482 C66.1268658,68.1504777 64.2967573,71.4800647 62.4431377,74.7975576 C60.5199251,78.238782 58.5797844,81.6707034 56.6161326,85.0896003 C54.8339869,88.1940518 52.9869504,91.2612907 51.2113878,94.3694635 C49.6173314,97.1603997 48.0778208,99.9820363 46.5213822,102.79437 C45.6730997,104.327524 44.8229363,105.860678 44.0169738,107.41523 C43.8458126,107.746421 43.4950261,108.179947 44.0790433,108.60789 C44.9809312,108.294375 45.5160452,107.300802 46.3671491,107.034732 C47.6875356,106.623534 48.1427116,105.599261 48.7022772,104.598245 C49.8806564,102.49574 51.0261199,100.374628 52.197916,98.2684014 C52.355911,97.9846563 52.5853798,97.7399842 52.8317768,97.411584 C53.2672034,98.1335062 52.7424344,98.4851642 52.5298935,98.8954318 C51.4192265,101.033289 50.2831674,103.159052 49.1659172,105.294118 C49.0304929,105.551815 48.9608999,105.838351 49.4254804,106.021622 C49.6709368,105.820675 49.9690583,105.611355 50.2248597,105.361101 C53.3019999,102.34689 55.5948079,98.827519 57.2603383,94.8736926 C59.2992258,90.0323485 61.4283962,85.2282168 63.5133656,80.4064092 C65.1638488,76.5893387 66.8180938,72.7741288 68.4497681,68.9496158 C69.0507133,67.5401929 69.6281473,66.1196064 70.150095,64.6804136 C71.094303,62.07647 72.0074764,59.4613627 72.8924363,56.8369523 C73.1585826,56.0471173 73.5272375,55.2433277 73.344791,54.2451028 L73.344791,54.2451028 Z M61.8497161,28.2000854 C61.729339,28.2856741 61.5807485,28.3470747 61.4970488,28.4568515 C58.9804145,31.7557382 57.6280528,35.6435125 55.8872867,39.3340605 C55.8571924,39.3982521 55.8581329,39.4763983 55.8402644,39.547102 C55.0756816,42.6031772 53.7515332,45.4629566 52.6117123,48.382276 C51.2847426,51.7797757 49.7772073,55.1093627 48.3674783,58.4752319 C47.9442775,59.4855508 47.4919228,60.4968001 47.2135507,61.5489831 C46.0332906,66.0098296 43.7207332,70.050175 42.377776,74.4514815 C41.9113146,75.9809146 41.2003372,77.4359227 40.6821513,78.9523314 C39.9975064,80.9534327 39.3956208,82.9815131 38.7542364,84.9965691 C38.5116013,85.7612856 38.2068967,86.5101869 38.0159861,87.2860672 C37.1799294,90.6854276 36.3843118,94.0931608 35.5538978,97.4934515 C35.3300716,98.4107392 35.1767788,99.3196541 35.3122031,100.693725 C35.6545255,99.9401723 35.8426148,99.5838627 35.9827413,99.2098773 C36.6739693,97.3650684 37.3238177,95.5044442 38.0423186,93.6707991 C39.480261,90.0007179 41.1457913,86.4050616 42.3608479,82.665207 C43.7696364,78.3290223 45.8734148,74.32775 47.8699822,70.2734499 C49.2872347,67.3941339 51.0430479,64.6794833 52.5270722,61.8299373 C54.0073346,58.9869035 55.312674,56.0824692 55.9926167,52.8989412 C57.0421548,47.9822418 58.2891865,43.1055458 59.5249329,38.2297801 C60.2594215,35.3327882 61.1387387,32.4711482 61.9352967,29.588111 C62.0613165,29.1322581 62.3660211,28.6326805 61.8497161,28.2000854 L61.8497161,28.2000854 Z M60.0957838,63.6747462 L60.039357,63.6393943 C59.7327715,64.5250514 59.5023622,65.4460604 59.1073748,66.2917141 C56.7628422,71.3116782 54.3468357,76.3000116 52.0211121,81.3283485 C50.1251724,85.4273036 48.1934957,89.5188162 47.0386277,93.9070983 C46.8684069,94.5536653 46.5655832,95.0699885 46.0690276,95.5630539 C45.467142,96.1621749 45.5687102,96.5938397 46.2589977,97.7018414 C46.6615087,96.8450239 47.0207592,96.0663527 47.3922355,95.2923331 C48.3994535,93.1888974 49.3831603,91.0724374 50.4289365,88.9885383 C52.162179,85.5370804 53.9668954,82.1209744 55.6822694,78.662074 C56.7506164,76.5074712 57.6976458,74.2942588 58.7302558,72.12198 C58.998283,71.5591412 59.0838636,70.8362887 59.8296375,70.5981288 L59.7891983,70.5488223 C59.5446823,71.2344623 59.3528313,71.9442904 59.0481267,72.6038817 C57.4559511,76.0516183 55.8656565,79.5012156 54.2151732,82.9229034 C52.2468192,87.0013917 50.1910036,91.0389462 48.2301731,95.1220859 C47.5361238,96.5677909 46.9944267,98.0860603 46.4216949,99.5866537 C46.3135436,99.8703989 46.0511591,100.239733 46.5646428,100.642558 C46.971856,99.9197054 47.3931759,99.2415079 47.7458433,98.5298191 C49.9483685,94.081997 52.3474469,89.7309274 54.3985603,85.2068196 C55.9662842,81.7497799 57.6675515,78.3522801 59.2728933,74.9129163 C60.6628729,71.934057 62.0716614,68.9617098 63.3469066,65.9354046 C65.3020944,61.2931472 67.1378455,56.6025136 69.0507133,51.9425804 C69.6036957,50.5954884 70.3240775,49.3097971 70.131286,47.7701306 C70.09743,47.4994098 70.2460205,47.2035705 70.3240775,46.9235466 C70.9927348,44.5363658 71.6783202,42.1538365 72.3300494,39.7620041 C72.7156324,38.3507207 73.1651657,36.9822316 73.9203441,35.7011918 C74.5109443,34.6992457 74.980227,33.6117108 75.3789763,32.5176638 C76.2037476,30.2560751 76.9307126,27.9600649 77.7253897,25.6873124 C79.0015753,22.0358374 80.3134979,18.403899 81.9273037,14.8752252 C83.5053725,11.425628 84.8661983,7.87927829 86.3079024,4.37014107 C86.4320414,4.06871995 86.595679,3.68915261 86.1019447,3.49843863 C82.7332661,7.07920989 79.0909177,12.1140589 76.9796158,15.5617956 C76.7887052,15.8725198 76.5724026,16.1869653 76.4717748,16.5302505 C75.9912068,18.1722513 74.963299,19.5221342 74.1046716,20.9622573 C73.3551359,22.2181786 72.5369476,23.4406087 71.8842779,24.7430456 C70.7726704,26.959049 69.7381795,29.2141256 68.7253189,31.4766446 C67.3240539,34.6071448 65.9237294,37.7404359 64.6155686,40.9100092 C63.1691622,44.4154252 61.8967384,47.9924752 60.4155355,51.4839365 C59.3048685,54.1009044 58.0230402,56.6490292 56.7487355,59.1943631 C54.5537339,63.5779937 52.7875758,68.136523 51.0129537,72.6922613 C50.6979042,73.5034935 50.5088745,74.3677534 50.3123212,75.218989 C49.5580833,78.4862451 48.8057263,81.7535011 48.0938084,85.0300603 C47.821079,86.2813301 47.5586945,87.5446939 47.6301684,88.8750402 C48.0279772,88.4284904 48.3166942,87.9475191 48.5329968,87.4367777 C51.7822387,79.7654242 55.6869717,72.3973524 59.2352755,64.8646154 C59.4393523,64.4301596 59.8070668,64.0710591 60.0957838,63.6747462 L60.0957838,63.6747462 Z M58.7208514,79.0546657 C59.681047,78.7504537 59.9283844,77.848051 60.3318358,77.1065922 C61.3080191,75.3092293 62.1920386,73.4625597 63.1842094,71.6735696 C65.9754539,66.6415115 68.9604304,61.724812 70.9767472,56.2862075 C72.0949379,53.2701357 73.1275479,50.2466214 73.9485575,47.1440306 C74.7507581,44.1158647 75.5520184,41.094211 76.6551619,38.1451217 C77.6755461,35.4165163 78.4034515,32.5799947 79.2442105,29.7862675 C79.3194462,29.5341529 79.4652153,29.2197074 79.129476,29.003875 C78.9959326,29.0475997 78.8134861,29.04853 78.7420121,29.13784 C77.2297745,31.0384676 75.9441845,33.0563145 75.3470011,35.4462863 C74.8880633,37.2836527 74.4535771,39.1321828 73.8657982,40.9304761 C72.6206473,44.7401041 71.3754965,48.5543837 69.9582439,52.3035415 C68.3594852,56.5308796 66.6281237,60.7117022 64.8478589,64.8692669 C63.0393807,69.0938141 61.09924,73.2644033 59.2202283,77.4610411 C58.9888785,77.9782947 58.560035,78.4471719 58.7716355,79.0862964 C58.1565836,79.2565435 58.1659881,79.8407795 57.9816606,80.2882596 C57.9534472,80.3561724 58.0822883,80.4873464 58.1452982,80.5999141 C58.5036083,80.14034 58.8562756,79.687278 58.7208514,79.0546657 L58.7208514,79.0546657 Z M44.1382914,80.4761826 C44.0734006,80.8883109 44.0085098,81.3013695 43.943619,81.7134977 C43.3078773,81.8428111 43.2721404,82.4233258 43.0784084,82.868015 C40.8128733,88.0917174 38.9432661,93.4633395 37.0172322,98.812634 C36.3532771,100.657443 35.7372848,102.543186 36.0241209,104.568475 C36.0636196,104.848499 35.9742773,105.146199 35.9432425,105.434596 C35.6582873,108.115755 35.3912006,110.795054 35.6319548,113.498541 C35.6742749,113.967418 35.5219226,114.452111 35.4410442,115.070768 C34.9125134,114.80935 34.5466798,114.627009 34.0971465,114.403734 C33.5893055,115.044719 33.3748837,115.818739 33.0758218,116.549964 C32.8002711,117.225371 32.5266012,117.902638 32.2247179,118.565951 C31.8927404,119.293455 31.5222046,120.005144 31.1789417,120.727996 C30.8394406,121.443406 30.5337955,122.16998 30.4096566,123.058428 C31.6905445,123.36357 32.8745663,123.645455 34.0473028,123.924548 C34.3228536,123.584054 34.5495011,123.382176 34.6726996,123.130992 C34.8645506,122.742122 35.033831,122.329063 35.1278756,121.907632 C35.4147117,120.622871 35.6742749,119.306479 35.4034264,118.007763 C35.1551485,116.817894 35.5153395,115.868046 36.180235,114.950758 C36.3504558,114.71725 36.5206765,114.485602 36.7736566,114.139526 C35.8275676,112.104003 36.5009272,110.059177 37.020994,108.01063 C37.1065746,107.676648 37.1949765,107.288708 37.651093,107.226377 L37.5937257,107.192885 C37.598428,109.14561 37.0426242,111.132757 37.904073,113.141301 C39.1059634,112.69289 39.9147472,111.927244 40.5787022,110.981116 L40.5288586,111.047168 C40.7602084,110.877852 41.1354464,110.749469 41.1984563,110.532706 C41.4965778,109.495408 41.9536347,108.514859 42.0034783,107.387321 C42.1934485,103.082767 42.7313838,98.8070521 43.7752791,94.6252993 C44.9574201,89.8890804 46.1715362,85.1491403 47.6536796,80.4994404 C49.072813,76.0451061 50.0386513,71.4791344 51.3787873,67.0108454 C51.4615465,66.7317517 51.3853704,66.4070728 51.3806682,65.7502725 C50.8540182,66.4666128 50.5126362,66.8499014 50.2624775,67.2843571 C48.1869126,70.9004802 46.5223227,74.7156901 44.7063209,78.4583357 C44.4354724,79.016523 44.3828074,79.556104 44.6132168,80.1347581 C44.6235617,80.1608068 44.3310829,80.3050052 44.179671,80.3943152 L44.1382914,80.4761826 Z M44.1702666,96.2793942 C44.3169762,95.9854156 44.4627453,95.6914369 44.6085145,95.396528 C44.634847,94.9490479 44.6611795,94.5024981 44.6865716,94.0540877 C44.7204276,93.9303561 44.7533432,93.8066246 44.7871993,93.6838234 C44.7768544,93.8215096 44.7674499,93.9601261 44.757105,94.0987426 C44.2868819,94.5183134 44.4777925,94.9760269 44.6752862,95.4337405 C44.2332765,95.5816601 44.2558472,95.9584365 44.2389191,96.3166067 C43.88249,96.6198884 43.8768473,96.9668948 44.1072567,97.3436712 C43.5288822,97.8441791 43.8147779,98.3418961 44.1110184,98.8396131 C43.5665,99.4275703 43.5665,99.4275703 43.7019243,100.676049 C43.8561575,99.8741201 43.9596066,99.3391907 44.0470681,98.7940278 C44.0480085,98.3009624 44.048949,97.807897 44.0470681,97.3129709 C44.5229339,97.0189923 44.442996,96.6608221 44.1702666,96.2793942 L44.1702666,96.2793942 Z M34.4009106,135.85208 C34.7441735,134.515221 35.0742702,133.173711 35.4354015,131.840574 C35.7579746,130.646984 35.9093865,129.436648 35.9893244,128.22259 C35.6865007,128.115604 35.4814834,128.04304 35.2821088,127.973267 C35.5886943,127.266229 35.8962202,126.560123 36.2470067,125.751681 C35.8106396,125.592598 35.4843047,125.4484 35.1438632,125.354438 C32.8745663,124.730199 30.5554258,124.366447 28.2212381,124.087353 C28.0030546,124.061304 27.7773475,124.027813 27.5619853,124.053862 C27.0550848,124.115262 26.4663654,124.126426 26.3008468,124.73392 C26.1080554,125.440027 26.7466184,125.536779 27.190509,125.74889 C27.3212311,125.811221 27.470762,125.83727 27.6155907,125.881925 C28.1318957,126.745255 28.0331489,127.683009 27.942866,128.620764 C27.8873797,129.193836 27.8318934,129.766908 27.7792284,130.341841 C27.7811093,130.342772 27.7726453,130.276719 27.7726453,130.276719 C27.953211,130.808858 27.7162185,131.097255 27.0569657,131.268432 C27.0221691,130.99492 26.9206009,130.727921 26.9732659,130.495343 C27.0691915,130.074842 27.2967795,129.685041 27.3983477,129.26547 C27.7472532,127.831859 27.3231119,126.979693 25.957584,126.279168 C25.6368918,126.113573 25.3180805,125.945186 24.897701,125.726563 C23.8472225,126.487558 22.7939227,127.250414 21.7208735,128.027225 C21.3691466,127.531368 21.852536,127.3881 22.0810644,127.20762 C22.89361,126.568495 23.5538033,125.831688 24.0221455,124.797181 C22.7704115,124.551579 21.6926601,124.530182 20.6374794,124.885561 C20.0967228,127.08761 18.1170833,128.117465 16.7383891,130.054375 C16.8324337,128.750077 17.6393366,128.245848 18.0352645,127.520205 C18.4086217,126.837356 18.8807257,126.207534 19.3725791,125.455842 C19.0377802,125.411187 18.8167754,125.310713 18.6587804,125.371184 C16.3302354,126.264283 13.9913455,127.135055 11.6994779,128.112813 C10.9048008,128.452377 10.2069897,129.038474 9.50823812,129.567822 C8.57625586,130.273928 7.6828319,131.030272 6.77906302,131.771731 C5.11917535,133.131847 4.15992014,134.835249 3.88719072,136.988921 C3.67370942,138.672786 3.64549603,140.330602 3.9313917,141.988418 C4.36587788,144.503052 5.82733139,146.367397 7.89537276,147.792636 C8.21700538,148.01405 8.68158584,148.031726 9.17343925,148.169412 C9.54115374,146.425077 7.99411961,145.399873 7.97907247,143.970913 C8.74083396,144.397927 9.37469475,144.905877 9.67751845,145.816653 C10.0819103,147.036292 10.8116967,147.993583 12.232711,148.269886 C12.6935297,148.359196 13.1787999,148.66992 13.1468248,149.419751 C12.888202,149.456964 12.6070086,149.557438 12.3427432,149.524877 C9.98222304,149.23741 7.72703287,148.684805 5.96087476,146.946052 C5.4455102,146.438101 5.01572625,145.812931 4.24079852,145.637102 L4.29346351,145.625939 C3.88907161,145.536629 3.66430495,145.291026 3.60693773,144.88355 C3.26367484,142.434968 2.86680651,139.990108 3.0840496,137.501523 C3.08969228,137.444774 3.00975435,137.379652 2.92323329,137.246618 C2.2122559,137.749916 2.0495587,138.53603 1.86993346,139.267255 C1.64328591,140.184543 1.41099567,141.126949 1.39500809,142.062843 C1.34986667,144.569104 1.67526108,147.040943 3.43201472,149.001111 C4.39785305,150.079343 5.5856367,150.973373 6.72733848,151.885078 C7.46935059,152.478618 8.31951403,152.937261 9.09914399,153.488936 C9.39256323,153.695466 9.676578,153.958744 9.86184592,154.258305 C9.99632974,154.475998 10.0715654,154.845332 9.97281858,155.054652 C9.87501217,155.263042 9.53927285,155.448174 9.2862928,155.481665 C8.59318389,155.573766 7.96120399,155.322582 7.46558881,154.853704 C7.04238798,154.45367 6.59661645,154.024796 6.33329149,153.520567 C5.32983531,151.604124 3.5514514,150.324015 2.30065785,148.615962 C2.2000301,148.477345 1.93106247,148.459669 1.56899065,148.319192 C2.07118896,150.54822 2.8442358,152.436753 4.45522027,153.94665 C5.46525958,154.892777 6.39912273,155.918912 7.34615213,156.9283 C7.7195093,157.325544 7.63580958,157.711623 7.06966092,158.076305 C6.17059428,157.812097 5.59410072,157.004586 4.96964439,156.354298 C3.65960272,154.9886 2.42385632,153.567083 1.66773751,151.767859 C0.107537135,148.060565 0.143274093,144.274195 0.716946322,140.392933 C1.25582204,136.741458 3.04172952,133.742132 5.72576319,131.374488 C8.68346674,128.764032 11.8283191,126.320102 15.7810148,125.221403 C16.8408977,124.926495 17.8415326,124.421335 18.9004751,124.119914 C19.8860628,123.83989 20.9055066,123.636152 21.9240099,123.519863 C23.8237114,123.30217 25.7346982,123.18309 27.6391019,123.000748 C28.0735881,122.959815 28.5005507,122.831432 29.1259475,122.703049 C29.6309671,121.800646 30.2676492,120.817306 30.7510386,119.765123 C31.5419539,118.042185 32.2228371,116.26994 32.9714323,114.527466 C33.2347572,113.915321 33.4266083,113.323642 33.3513726,112.63149 C33.0071692,109.491687 33.2977671,106.364908 33.7773947,103.268829 C34.1780249,100.682561 34.7911958,98.1279243 35.3441782,95.5658448 C35.7288208,93.7852275 36.1934012,92.0213557 36.5808651,90.2416687 C37.7329118,84.9565657 39.4200724,79.8389188 41.4138185,74.8133729 C41.6291807,74.2700706 41.8887439,73.7360715 42.0288704,73.174163 C42.613828,70.8195431 43.7254355,68.676104 44.6865716,66.470334 C45.0937848,65.5353704 45.4191792,64.5650549 45.7633825,63.6040425 C46.4254567,61.7508608 47.0216997,59.8725607 47.7383197,58.0398458 C49.7837904,52.8077706 52.2919606,47.7459425 53.9941684,42.3957176 C55.0625153,39.037291 56.5738125,35.880742 57.9778988,32.6869806 C59.164742,29.9853543 60.6337191,27.3386164 62.6914155,25.2370414 C63.4249636,25.1812226 63.6986335,25.5719537 63.6713606,26.0194338 C63.6149338,26.9553278 63.5810777,27.9321555 63.2838967,28.8085095 C61.2882697,34.6899426 59.978228,40.7565077 58.2826034,46.7179476 C57.8048567,48.3980913 57.5133183,50.1294021 57.1136287,51.8318732 C56.6302393,53.887863 56.1223983,55.9373405 55.628664,57.9905393 C55.5101678,58.4808138 55.4076591,58.9738792 55.2901033,59.5022964 C55.847788,59.5441605 55.8064083,59.0827257 55.9380708,58.8147958 C58.2478069,54.090671 60.4917117,49.3330549 62.3829492,44.4303102 C64.801777,38.1590764 67.6607337,32.0785565 70.4077772,25.9496604 C70.972045,24.6900178 71.7667221,23.5317793 72.4391412,22.3195826 C73.536642,20.3398785 74.5429195,18.3071466 75.7297627,16.3823308 C77.4949804,13.5216211 79.2865305,10.6674236 81.2483015,7.93695764 C82.9533306,5.5646618 84.8991139,3.36075244 86.7649593,1.1038153 C87.0743662,0.730760151 87.5191973,0.467481828 87.8718646,0.176294142 C88.5527477,0.587492088 88.4464773,1.11683967 88.3044699,1.59315946 C88.0317405,2.50021376 87.7449044,3.40912867 87.375309,4.28176142 C85.3241956,9.12031462 83.1931444,13.9253766 81.2012792,18.7871876 C80.1790141,21.2822846 79.3852774,23.867622 78.5021983,26.4176074 C78.4410693,26.5934364 78.5003175,26.8092688 78.5059601,27.1032474 C79.3899796,26.4855202 79.4934287,25.1970379 80.6868551,25.0072543 C81.3066091,25.5942812 81.0827829,26.2659665 80.9341924,26.8595057 C80.4197683,28.9089832 79.9119273,30.9640426 79.2771261,32.9781683 C78.4448311,35.621185 77.4253874,38.2065223 76.6137822,40.8551208 C75.8896386,43.213462 75.3394775,45.6239006 74.666118,48.1897014 C75.26048,48.1738861 75.646063,48.1636526 76.048574,48.1524889 C76.6241271,49.008376 76.2225566,49.8410053 75.9611125,50.656889 C75.4053088,52.3919211 74.8353983,54.1241622 74.2288105,55.843379 C72.7946299,59.9023306 71.4676602,64.005007 69.8529139,67.9932549 C67.6090091,73.5416363 65.1365759,78.9997773 62.7713535,84.5007128 C62.1092793,86.0422399 61.5026914,87.6070248 60.8340341,89.145761 C59.7007964,91.7562168 58.5073701,94.3406238 57.3995243,96.961313 C56.5954428,98.8665921 55.3738031,100.502081 54.2283395,102.200831 C52.6201764,104.587081 50.4326983,106.458869 48.6195179,108.657197 C48.0627737,109.331673 47.5483496,110.047083 47.0894118,110.789472 C46.5129182,111.721645 46.0351715,112.712427 45.4765464,113.655763 C43.8646215,116.375996 42.6796592,119.264615 41.9188382,122.325342 C41.8661732,122.535592 41.8407811,122.802592 41.6997142,122.931905 C40.93231,123.634291 40.8072307,124.569255 40.6417121,125.506079 C40.6087965,125.68935 40.4028388,125.841922 40.2034642,126.1052 C39.6739929,125.394442 39.0833926,124.784157 38.7250826,124.061304 C38.4316634,123.468695 38.6065864,122.762589 38.9705391,122.174631 C39.663648,121.059187 40.329484,119.921415 41.0950072,118.855278 C41.8210318,117.843098 42.4426667,116.812312 42.6824805,115.365677 C42.245173,115.765711 41.9536347,116.032711 41.6019078,116.354599 C41.1128757,115.876418 41.2915605,115.376841 41.5379574,114.973085 C42.3006594,113.725537 43.1047409,112.502177 43.9229292,111.28998 C44.3301424,110.687138 44.8031869,110.129881 45.1765441,109.643327 C44.9799908,109.244224 44.8831248,109.046997 44.7956633,108.859074 C45.0213704,108.93443 45.2386135,109.002342 45.4549162,109.069325 C45.4699633,109.001412 45.4850105,108.933499 45.5000576,108.864656 C45.2677674,108.867447 45.0354771,108.870238 44.8031869,108.872099 C44.5135294,109.184684 44.2191698,109.493547 43.9342145,109.809853 C43.4978475,110.295476 42.902545,110.721559 42.6787188,111.28998 C42.3852995,112.037951 41.8360789,112.442637 41.2755729,112.903141 C40.5984516,113.460398 39.9128663,114.013003 39.286529,114.624218 C38.3940455,115.49406 37.5843213,116.436466 37.229773,117.680294 C37.5786786,118.012415 37.6990557,117.635639 37.8862045,117.479346 C38.0507826,117.34073 38.2144203,117.203044 38.386522,117.057915 C38.8407575,117.383524 38.5473383,117.6989 38.3789984,117.953805 C37.4075174,119.42742 36.6890164,121.011741 36.2338404,122.70863 C36.0871308,123.254724 36.0363467,123.826866 35.9310167,124.450175 C36.7003018,124.878118 37.3887085,125.260477 38.1721002,125.695863 C36.9579841,127.323909 36.7802397,129.288728 36.1990439,131.116791 C35.7814858,132.433183 35.4344611,133.770972 35.0366523,135.092945 C34.9332032,135.43437 34.7921363,135.786028 34.3397816,135.82324 L34.4009106,135.85208 Z" id="Fill-46" fill="#FFFFFF" mask="url(#mask-6)"></path>
                    </g>
                    <path d="M36.3147188,161.753085 C36.2930885,161.714012 36.2799223,161.651681 36.2488876,161.642378 C36.197163,161.625632 36.1350936,161.642378 36.0777263,161.646099 L36.1792945,161.852628 C36.224436,161.820067 36.2695774,161.786576 36.3147188,161.753085 L36.3147188,161.753085 Z M45.4727846,143.91156 C45.4464522,143.97389 45.3937872,144.039012 45.4022512,144.096692 C45.4097747,144.15065 45.4812487,144.196235 45.5245092,144.245542 C45.5508417,144.186002 45.6044471,144.12181 45.5959831,144.068782 C45.5856382,144.011103 45.5160452,143.963657 45.4727846,143.91156 L45.4727846,143.91156 Z M45.4257623,153.677046 C45.5320328,153.494704 45.6477077,153.329109 45.7182411,153.145837 C45.7304669,153.115137 45.5508417,153.010942 45.4605588,152.940238 C45.3467648,153.095601 45.2179237,153.24259 45.1332835,153.411907 C45.1191768,153.439816 45.2959807,153.561687 45.4257623,153.677046 L45.4257623,153.677046 Z M50.6537032,153.364461 C50.6010382,153.256545 50.5728248,153.198865 50.5446114,153.141186 C50.4232939,153.278872 50.2963336,153.412837 50.1881823,153.560757 C50.1703138,153.585875 50.2370855,153.671464 50.2643584,153.729143 C50.3979018,153.603551 50.5314452,153.477959 50.6537032,153.364461 L50.6537032,153.364461 Z M23.7193218,148.200298 C23.2744907,147.993769 22.9961186,147.813288 22.691414,147.746306 C22.5635133,147.718397 22.3584961,147.910041 22.2399998,148.045866 C22.2042629,148.0868 22.3105333,148.336124 22.4064588,148.3845 C22.6443917,148.50451 22.9095976,148.607775 23.1701012,148.626381 C23.2923592,148.635684 23.4296644,148.434737 23.7193218,148.200298 L23.7193218,148.200298 Z M39.9918637,157.532259 C39.9203898,157.412249 39.8489159,157.292238 39.7783824,157.172228 C39.383395,157.414109 38.9583133,157.618778 38.6047055,157.909035 C38.367713,158.10254 38.3874624,158.389076 38.8031397,158.610491 C39.1830799,158.265345 39.5874718,157.898802 39.9918637,157.532259 L39.9918637,157.532259 Z M44.4335915,138.521331 C44.0386041,140.203336 44.0781028,140.427541 44.9038147,140.96247 C44.9216831,140.099141 45.1097724,139.300002 44.4335915,138.521331 L44.4335915,138.521331 Z M34.4930744,163.940249 C32.8331867,163.559751 32.8313058,163.565333 32.3131199,164.495645 C33.1153206,164.579373 33.7915014,164.486342 34.4930744,163.940249 L34.4930744,163.940249 Z M30.473607,157.08757 C30.7764307,157.961133 30.8808202,158.037418 31.5823931,157.915547 C32.4062241,157.771349 32.5068518,157.621569 32.416569,156.64102 C31.6820804,156.422397 31.0406961,156.588922 30.473607,157.08757 L30.473607,157.08757 Z M28.214655,159.275664 C28.58331,158.866326 28.9754761,158.477456 29.3055727,158.04207 C29.449461,157.852286 29.4654486,157.567611 29.5585527,157.259677 C28.6764141,157.157343 28.0058759,157.275493 27.4340846,157.662503 C27.2610425,158.842138 27.2610425,158.842138 28.214655,159.275664 L28.214655,159.275664 Z M29.9055774,160.747418 C29.851972,161.220016 29.8087115,161.602374 29.76357,162.00706 C30.4839519,161.968917 31.0482197,161.970778 31.603083,161.895423 C31.8588843,161.861001 32.2012068,161.73727 32.3140603,161.545625 C32.46077,161.295371 32.4175094,160.936271 32.4758171,160.45716 C31.5128001,160.566007 30.745396,160.652526 29.9055774,160.747418 L29.9055774,160.747418 Z M26.3252984,151.434063 C26.0685566,151.582913 25.8296833,151.647105 25.7102466,151.802467 C25.0453511,152.662075 24.9484851,153.174677 25.378269,153.51145 C26.0892464,154.068707 26.5829807,153.51145 27.1340822,153.157001 C27.1162138,152.928144 27.1641765,152.680681 27.0701319,152.509504 C26.8660551,152.137379 26.5895639,151.805258 26.3252984,151.434063 L26.3252984,151.434063 Z M26.4531991,156.113533 C27.0127647,155.841882 27.3184097,155.62884 27.6560299,155.548834 C28.0058759,155.465105 28.3942803,155.546973 28.7525903,155.483712 C28.9350369,155.451151 29.0892701,155.258576 29.3112154,155.099493 C29.0967936,154.696668 28.9030617,154.332916 28.669831,153.893808 C27.8187271,154.185926 27.0720128,154.442692 26.2810975,154.714344 C26.3337625,155.141357 26.377023,155.490224 26.4531991,156.113533 L26.4531991,156.113533 Z M41.1476722,144.444628 C41.9320044,143.327324 42.3458008,142.222113 42.3900018,140.982937 C42.3956444,140.839669 42.1595924,140.653607 41.9940739,140.556854 C41.9282426,140.518711 41.6686795,140.639652 41.6357638,140.734544 C41.2840369,141.747654 40.9445358,142.766345 40.6492357,143.797131 C40.6163201,143.909699 40.8777641,144.105064 41.1476722,144.444628 L41.1476722,144.444628 Z M47.9753122,145.8801 C48.4116793,143.368257 48.3684187,143.158007 47.2906673,142.03512 C46.5975584,143.986915 46.6079033,144.057619 47.9753122,145.8801 L47.9753122,145.8801 Z M29.3836297,153.216541 C29.6403716,153.917996 29.8237586,154.456647 30.0419421,154.979483 C30.0861431,155.085538 30.2648279,155.137636 30.5234506,155.306952 C31.0002569,155.095772 31.5570011,154.850169 32.0573185,154.628755 C32.0714252,153.557035 31.7018298,152.800692 31.1460261,152.122494 C31.076433,152.037836 30.9005696,152.038766 30.6795647,151.970853 C30.3090289,152.327163 29.904637,152.715103 29.3836297,153.216541 L29.3836297,153.216541 Z M37.5702146,158.640261 C36.0410489,158.820741 35.0216052,159.364974 34.0284939,159.933394 C33.2667324,160.370641 33.0588938,161.061863 33.3419681,162.061018 C34.9209774,161.512134 36.171771,160.713926 37.2645695,159.671977 C37.4329094,159.511963 37.4225645,159.167748 37.5702146,158.640261 L37.5702146,158.640261 Z M44.7994251,152.249947 C46.4734195,151.836888 47.1543026,150.938207 47.4599476,149.654376 C47.7749971,148.327751 47.671548,147.754679 46.8063375,146.779712 C46.166834,148.522186 45.536735,150.239542 44.7994251,152.249947 L44.7994251,152.249947 Z M37.3407457,156.297735 C37.0849443,154.957155 37.0849443,154.957155 36.266756,154.280818 C35.4767812,154.745044 34.6473076,155.202757 33.8507496,155.708847 C33.2338168,156.100509 33.2554471,156.34239 33.9607818,157.394573 C35.0122007,157.053148 36.1049993,156.698699 37.3407457,156.297735 L37.3407457,156.297735 Z M15.2995063,155.74792 C15.2176875,155.692102 15.1349282,155.636283 15.0531094,155.579534 C14.0411892,156.587992 13.0151623,157.583426 12.0286341,158.615142 C11.7850586,158.869117 11.6505747,159.23473 11.5010438,159.564061 C11.3421084,159.911997 11.295086,160.262725 11.8226764,160.563216 C12.4875719,160.00968 13.2869513,159.756635 14.0929137,160.399481 C14.5132932,158.778877 14.9063998,157.263399 15.2995063,155.74792 L15.2995063,155.74792 Z M21.6644467,160.51577 C21.0804296,162.355927 21.0503353,162.90016 21.3823128,164.385868 C21.5873301,165.300365 21.7547295,165.398978 23.2895379,165.419445 C23.1757439,163.998858 23.0628903,162.588505 22.9453345,161.123264 C22.5625729,160.941853 22.1788708,160.759512 21.6644467,160.51577 L21.6644467,160.51577 Z M43.496907,147.456049 C44.1194825,146.748081 44.2549067,145.929406 44.1749688,145.040028 C44.0837455,144.030639 44.0226165,143.01753 43.9135247,142.010002 C43.8975371,141.858361 43.6934603,141.726256 43.4470634,141.429487 C42.7868701,142.798906 42.367431,144.082737 41.8708754,145.351683 C42.4172747,146.072675 42.5132002,147.04392 43.496907,147.456049 L43.496907,147.456049 Z M25.6735692,149.971613 C26.5970874,148.755695 27.3579085,147.63839 27.9071291,146.310834 C27.2159011,145.703341 26.5256135,145.420526 25.616202,145.440993 C25.2804626,146.286646 24.7331229,146.993683 25.0886116,147.939811 C25.1431575,148.084009 25.019959,148.305424 24.9531873,148.481253 C24.6400187,149.313882 24.6362569,149.312021 25.6735692,149.971613 L25.6735692,149.971613 Z M42.3636693,160.649735 C39.8639631,162.254523 37.1667631,162.605251 34.9886896,164.742178 C37.0285175,164.652868 38.6573705,164.333771 40.1310498,163.606267 C41.1279228,163.113201 41.8802799,162.229405 42.3636693,160.649735 L42.3636693,160.649735 Z M44.9038147,130.88719 C44.7824971,130.97557 44.6611795,131.063019 44.5389215,131.151399 C44.8680777,131.594227 45.1605565,132.069617 45.5320328,132.475233 C47.1496004,134.240965 48.1436521,136.298816 48.5819,138.632969 C48.7549422,139.55956 48.9449123,140.482429 49.1235971,141.407159 C49.2872347,142.253743 49.6304976,142.98869 50.4308174,143.604557 C50.5474328,141.829521 50.0593411,140.302879 49.511061,138.81438 C49.239272,138.075712 48.7822151,137.453333 49.00322,136.572327 C49.0878601,136.238345 48.7662275,135.756444 48.5367586,135.401995 C47.8276621,134.307948 47.1119825,133.21297 46.3201267,132.178463 C45.939246,131.679816 45.3815614,131.313273 44.9038147,130.88719 L44.9038147,130.88719 Z M28.3566624,147.039269 C27.7585386,148.088661 27.1481889,149.075722 26.6243604,150.106508 C26.246301,150.849827 26.5858021,151.30661 27.4989754,151.355917 C27.9296998,151.378244 28.4497666,151.449878 28.7808037,151.254513 C29.3986769,150.8889 29.9516593,150.384671 30.4500958,149.861836 C30.8281552,149.463662 31.1638945,148.971527 31.0021378,148.349148 C29.4447587,148.262629 29.4447587,148.262629 28.3566624,147.039269 L28.3566624,147.039269 Z M37.8090879,161.408869 C38.0648893,161.368866 38.3620703,161.383751 38.6028246,161.275835 C40.0228985,160.639501 41.1852901,159.645928 42.2583393,158.553742 C42.5545799,158.253251 42.841416,157.850426 42.9204135,157.453182 C43.085932,156.618692 43.5448698,156.011199 44.1251251,155.439987 C44.354594,155.213921 44.3762243,154.940409 44.1110184,154.758068 C42.972138,155.792575 41.851126,156.824291 40.7141265,157.840192 C39.9006405,158.566766 39.0570601,159.262639 38.2435741,159.990143 C37.8579911,160.33622 37.5391799,160.734393 37.8090879,161.408869 L37.8090879,161.408869 Z M25.4638497,161.166988 C25.8390877,161.200479 26.1400305,161.148382 26.3488096,161.26188 C26.857591,161.538183 27.2967795,161.942869 27.8140249,162.197774 C28.2597964,162.418258 28.6858186,162.240568 28.9087044,161.780994 C29.0290815,161.532601 29.0685802,161.246995 29.1720293,160.882313 C28.3039974,160.557634 27.5093203,160.197603 26.6779658,159.965955 C25.7516262,159.708259 24.4754406,160.413435 24.189545,161.325141 C23.7089769,162.853644 24.0155624,164.341213 24.6212098,165.769242 C24.6973859,165.947862 25.1281103,166.082757 25.3726264,166.053918 C25.5926908,166.028799 25.9105616,165.779476 25.9585244,165.576668 C26.0544499,165.16733 26.0497477,164.716129 25.99144,164.294698 C25.8541349,163.300194 25.6613434,162.313133 25.4638497,161.166988 L25.4638497,161.166988 Z M49.2891156,151.804327 C48.3975726,153.585875 47.6038359,155.113447 46.8674665,156.667069 C46.482824,157.481092 45.9966132,158.213247 45.2132215,158.643982 C44.7627477,158.891445 44.2737156,159.02448 44.0066289,159.515684 C43.7273164,160.028286 43.4122669,160.521352 43.1273116,161.031163 C42.9100685,161.420033 42.5226047,161.756806 42.5555203,162.352206 C45.0411198,161.117682 47.7025828,158.385355 48.6834682,156.132139 C48.8866046,155.666053 49.1104308,155.202757 49.2562,154.718065 C49.5214059,153.841711 49.6342594,152.950472 49.2891156,151.804327 L49.2891156,151.804327 Z M23.6572524,156.131209 C23.8951853,156.81964 24.0334309,157.3862 24.2986367,157.888568 C24.3766938,158.036488 24.8205844,158.065328 25.0773262,158.024394 C25.2324999,158.000206 25.4610283,157.737858 25.4638497,157.579705 C25.4760755,156.742424 25.2174527,156.032596 24.4350014,155.551624 C23.6948702,155.096702 22.9481559,154.624103 22.3001884,154.052892 C21.4077049,153.267708 20.4729013,152.846277 19.2935816,153.270499 C18.7039218,153.48261 18.1274283,153.502147 17.6139446,153.130022 C16.4637788,152.295532 15.5383796,152.85558 14.6600028,153.583084 C14.3562387,153.834268 14.0327252,154.176623 14.3976183,154.67527 C15.5468437,154.439901 16.6829028,154.193369 17.8246045,153.975676 C18.7349565,153.802638 19.5211696,154.0194 20.2998592,154.574797 C21.1030003,155.148799 22.0302803,155.554415 22.9171211,156.008408 C23.1005082,156.102369 23.3431433,156.082833 23.6572524,156.131209 L23.6572524,156.131209 Z M17.8208428,161.761458 C17.3440365,160.969762 16.4459103,160.884173 16.5032775,159.895252 C16.6725579,159.725935 16.8898009,159.429165 17.1775775,159.237521 C17.8358899,158.800274 18.0409072,158.289533 17.6393366,157.574123 C17.3854161,157.121061 17.545292,156.748936 17.9261727,156.430769 C18.1452967,156.247498 18.4133239,156.068878 18.525237,155.826997 C18.6296266,155.601861 18.6672444,155.185081 18.5327606,155.054838 C18.3879319,154.91343 17.8847931,154.884591 17.7540711,155.016695 C16.5672279,156.214937 15.3568735,157.442949 15.1866527,159.223566 C15.0916677,160.229234 15.182891,161.253507 15.2186279,162.268478 C15.2346155,162.738285 15.4922978,163.104828 15.9314862,163.28996 C16.4449699,163.506723 16.9217761,163.951412 17.6619073,163.583009 C17.7136319,162.98947 17.7700587,162.347554 17.8208428,161.761458 L17.8208428,161.761458 Z M38.919755,144.952579 L38.9188145,144.969324 C39.7539308,143.949702 39.7116108,143.825971 38.3630108,143.365466 C37.6915322,144.223214 37.0510882,145.10608 36.3419917,145.931267 C35.0187838,147.471864 33.7632881,149.076652 32.2077899,150.40979 C31.8598248,150.70842 31.6096661,151.09543 31.7450903,151.562446 C32.0206411,152.519737 32.1701721,153.558896 33.1717473,154.195229 C33.5206529,153.998003 33.8817843,153.87055 34.1413475,153.635182 C36.0965353,151.861076 37.9501549,149.991149 39.4379409,147.802125 C39.847035,147.200213 40.2250944,146.567601 40.5260372,145.908009 C40.6511166,145.635428 40.5363821,145.256791 40.5307395,144.924669 C39.8997,144.935833 39.4097275,144.944206 38.919755,144.952579 L38.919755,144.952579 Z M38.4927924,154.749695 C38.5068991,155.024137 38.5210058,155.297649 38.5398147,155.65768 C40.1169431,155.39068 41.3103694,154.58317 42.358967,153.546802 C43.0577186,152.85558 43.2260585,152.34763 43.3802917,150.870294 C42.9034854,151.317774 42.5075575,151.608031 42.2179001,151.978296 C41.5125654,152.881629 40.6050347,153.445398 39.5018912,153.728213 C41.0197715,152.249947 42.3298132,150.633995 43.1395374,148.598472 C42.4953317,147.93795 42.6251133,146.843903 41.5379574,146.562949 C41.3893669,146.913677 41.2840369,147.258822 41.1053521,147.559313 C40.8834068,147.932368 40.6078561,148.273793 40.3426502,148.619869 C40.1216453,148.907335 39.8902955,149.18922 39.6457795,149.45808 C39.3523603,149.780899 39.0391917,150.086041 38.736368,150.400486 C38.4833879,150.661904 38.2210034,150.914949 37.9849514,151.191252 C37.746078,151.471276 37.3247581,151.681526 37.4705273,152.368096 C38.0441995,151.903871 38.4768048,151.538258 38.9263381,151.194043 C39.4022039,150.82843 39.8103576,150.349319 40.5279181,150.314898 C39.5131766,151.33638 38.4974946,152.358793 37.5429416,153.319806 C37.6473312,154.055683 37.7583038,154.621312 38.4927924,154.749695 L38.4927924,154.749695 Z M20.8349731,160.833006 C20.031832,160.937201 19.3001648,161.196758 18.7208499,161.76983 C18.3117557,164.202597 18.5891874,164.649146 20.5302685,164.558906 C20.4860675,164.062119 20.4287003,163.569984 20.3995465,163.076919 C20.3525241,162.299178 20.2199212,161.50097 20.8133428,160.846961 C20.5406134,160.372502 20.4446879,159.754774 19.7647452,159.603134 C19.7083184,159.590109 19.6960926,159.385441 19.663177,159.272873 C19.9697625,159.106347 20.2631817,158.947264 20.5641246,158.783529 C20.1634944,158.051373 19.6942117,157.842983 19.0058051,158.081143 C18.622103,158.800274 18.4951427,159.535221 18.8882493,160.287843 C19.576656,160.480418 20.2058145,160.657177 20.8349731,160.833006 L20.8349731,160.833006 Z M27.4199779,165.263152 C27.5779729,164.66031 27.7359679,164.057468 27.9071291,163.404389 C27.3381591,163.25926 26.8773404,163.269494 26.9271841,163.873266 C26.9657424,164.334701 27.2610425,164.775669 27.4416082,165.22594 C27.5497595,165.398048 27.6569704,165.571086 27.9193549,165.988796 C28.4610519,164.775669 29.3902129,164.941264 30.3532299,165.011038 C30.8968078,165.051041 31.2532369,164.636122 31.2175,164.03235 C30.2055798,163.609988 30.2065202,163.593242 28.8212429,163.70581 C28.381114,164.197015 27.8977246,164.734735 27.4199779,165.263152 L27.4199779,165.263152 Z M22.394233,157.628081 C22.3669601,157.959272 22.3067715,158.293254 22.3368658,158.618863 C22.3425085,158.691428 22.8014462,158.810508 22.8193147,158.779807 C22.9434536,158.561184 23.0948655,158.297906 23.068533,158.068119 C23.0262129,157.686691 22.7854587,157.454113 22.350032,157.681109 C22.0321612,156.684745 21.2515908,156.232613 20.2979783,156.01399 C19.7346509,155.885606 19.5098843,156.178655 19.5503235,156.828013 C19.926502,157.047566 20.3873207,157.261538 20.7832485,157.561099 C21.325886,157.970436 21.8459528,157.89322 22.394233,157.628081 L22.394233,157.628081 Z M50.1524453,148.908266 C50.3461773,149.059907 50.5408496,149.211548 50.7345816,149.362258 C50.9828594,149.909282 51.2311372,150.456305 51.4615465,150.992165 C51.2546484,150.974489 51.0374053,150.908437 50.8427329,150.949371 C50.5211003,151.016353 50.0809714,151.06845 50.210753,151.552213 C50.2662393,151.760603 50.5305047,151.915034 50.7336411,152.128076 C51.0054301,151.669432 51.2151496,151.317774 51.4239287,150.965186 C51.8151543,148.47288 52.1217398,145.982434 51.3157774,143.509665 C51.2414821,144.072504 51.2941471,144.630691 51.3073134,145.190739 C51.3204796,145.769393 51.3016707,146.349908 51.2838022,146.928562 C51.2574697,147.786309 51.3552761,148.674757 50.7261176,149.379004 C50.6969637,149.072001 50.6678099,148.765928 50.6236089,148.306354 C50.3734502,148.62266 50.2558944,148.77058 50.1402195,148.92036 C50.1947654,149.180847 50.2493113,149.441335 50.3038572,149.700892 C50.3339515,149.692519 50.3649862,149.683216 50.3950805,149.673913 C50.3142021,149.419007 50.2333237,149.164102 50.1524453,148.908266 L50.1524453,148.908266 Z M12.5458796,174.16996 C12.135845,172.160486 12.6164131,170.302653 13.4524698,168.47552 C14.1549832,166.939575 14.5979334,165.332926 14.2913479,163.517887 C13.7336632,163.214605 13.1675146,162.891787 12.5881997,162.595017 C12.005123,162.296387 11.40888,162.022875 10.7693766,161.714012 C9.60604453,163.202511 9.52422571,164.832418 9.68974425,166.529307 C9.8167045,167.830814 10.0019724,169.139763 9.96435457,170.440339 C9.92767716,171.7251 9.93708162,173.071262 9.10572711,174.200661 L9.16873701,174.236943 C9.22516379,172.939158 9.3248511,171.641372 9.3248511,170.343587 C9.3248511,169.331407 9.30039949,168.301552 9.11607202,167.310769 C8.56967274,164.377495 9.36999252,161.705639 10.5775255,159.090532 C10.875647,158.443034 11.1606022,157.789955 11.541483,156.935929 C9.9549501,157.038263 9.62673435,158.175105 9.08691819,159.02634 C8.55838738,159.8599 8.12484165,160.752069 7.48157639,161.926123 C7.71198573,160.125039 8.49631793,158.016952 9.23833004,156.951744 C10.2248582,155.53767 10.4872427,155.471618 12.3041849,156.080042 C12.4358474,156.123766 12.6728398,155.959101 12.8082641,155.83537 C12.8562269,155.792575 12.7856934,155.5386 12.6982319,155.452081 C12.4085744,155.165545 11.7803563,155.186012 11.8048079,154.633406 C11.8273786,154.135689 11.8941503,153.596108 12.1132743,153.159792 C12.7302071,151.925268 13.5944772,151.03682 15.1781887,151.086126 C16.7158184,151.134503 18.2854232,150.835872 19.7901373,151.046123 C21.1857595,151.239628 22.6453322,151.530816 23.8886021,152.515086 C24.250674,151.950386 24.5666639,151.480579 24.8572618,150.995886 C25.0237208,150.718653 25.0218399,150.393044 24.7020882,150.256288 C24.3926813,150.122323 24.1810809,150.349319 24.0362522,150.633995 C23.9807659,150.743772 23.8359372,150.808893 23.7033342,150.91774 C22.971667,150.695395 23.3177513,149.668331 22.438434,149.373422 C22.1177418,149.528784 21.6813747,149.740895 21.1443799,150.001382 C20.9713378,149.832066 20.7682014,149.642282 20.5754099,149.443195 C19.7139611,148.551956 19.7149016,148.551026 18.6484355,149.392958 C17.9619097,149.616233 17.5641009,148.521256 16.8408977,148.990133 C16.3612701,149.300857 15.9183199,149.6674 15.3606353,150.08232 C14.7879035,148.403106 16.5408954,148.447761 17.0327488,147.545359 C16.9377637,146.185242 16.837136,144.750701 16.7365082,143.31616 C16.7995181,143.304066 16.862528,143.291972 16.9245975,143.279878 C17.2349447,144.485562 17.5142573,145.70055 17.8659842,146.89414 C18.1095598,147.722118 18.7217903,148.003072 19.7120802,147.763052 C19.9199189,146.513642 20.162554,145.240045 20.3384174,143.957145 C20.5857548,142.151409 20.8631865,140.357767 21.5149157,138.641341 L21.4434418,138.604129 C21.7321588,139.438619 22.2399998,138.718557 22.7741733,138.78461 C21.7058263,141.091784 21.5628785,143.551529 21.203628,145.961967 C22.0133523,146.74343 22.8870269,147.061596 23.9130537,147.296035 C24.4923687,146.793666 24.7190162,146.174079 24.7237184,145.296794 C24.084215,145.256791 23.5378157,145.222369 23.0177489,145.189808 C22.8983122,144.771168 23.0346769,144.529287 23.3685354,144.470677 C24.2243415,144.319036 25.0867307,144.202747 25.9434773,144.069713 C25.9397155,144.067852 25.8804674,144.030639 25.8804674,144.030639 C26.0215343,144.262287 26.1089958,144.619527 26.3130726,144.704185 C27.1585338,145.055843 28.039732,145.325634 28.9077639,145.625194 L28.8550989,145.592633 C29.5933493,146.703426 30.8591899,146.83367 31.9886659,147.154627 C32.3131199,147.247659 32.766415,146.898792 33.1595215,146.753663 C32.8726854,147.040199 32.8153182,147.353714 33.0927499,147.805846 C34.5739527,146.528527 35.7354039,144.939554 37.3924702,143.904117 C37.5072047,143.832483 37.5749168,143.682703 37.6586165,143.565483 C38.0047008,143.081721 37.9153584,142.591447 37.3576737,142.313283 C37.0595523,142.164433 36.6871355,142.159782 36.3673838,142.09373 C35.8971607,142.770997 35.4899474,143.358024 35.0836746,143.94412 C35.1739575,143.455707 35.20029,142.943105 35.3686298,142.48167 C35.8595428,141.132717 36.3899545,139.796789 36.9448178,138.471094 C37.0745994,138.1613 37.362376,137.915698 37.5777382,137.637535 C37.309711,138.758561 37.0407433,139.883308 36.7548477,141.077829 C37.8034453,141.778354 38.8652091,142.487252 40.0605163,143.285459 C40.5373226,142.277931 41.0667938,141.424835 41.0442231,140.279621 C40.7630297,140.160541 40.5015856,140.060998 40.249546,139.940987 C39.9862211,139.816326 39.5395091,139.983782 39.4322982,139.384661 C39.9984469,139.370706 40.5062879,139.408849 40.993439,139.327912 C41.3244761,139.272093 41.6272998,139.048818 41.9432898,138.899038 C42.036394,139.346518 42.2837313,139.544675 42.5348305,139.059052 C42.7050513,138.729721 42.6373391,138.28038 42.6740165,137.883137 C42.9768402,137.616138 43.0454928,137.347277 42.5310687,136.924916 C42.622292,137.359371 42.6805997,137.637535 42.7389073,137.915698 C42.1370217,138.015241 42.219781,138.639481 41.9150764,138.966951 C41.9903121,137.329601 42.0899994,135.692252 42.1285577,134.053973 C42.1417239,133.494855 42.0429771,132.923643 41.9188382,132.374759 C41.8012824,131.850063 41.5294934,131.39421 40.9877964,131.122559 C40.7827791,132.2287 40.6040943,133.198085 40.4254095,134.16654 L40.495943,134.211195 C40.329484,132.846427 40.1743103,131.480729 39.9871615,130.119683 C39.9382583,129.758722 39.7840251,129.421018 39.2921717,129.509398 C38.8971843,133.497646 38.5623854,135.064291 37.537299,137.720333 C37.7432567,136.205784 37.9003112,134.682864 38.1711598,133.18041 C38.4062713,131.875182 38.5520405,130.594142 38.236991,129.281472 C38.1373037,128.866552 38.1768024,128.41349 38.1899687,127.979965 C38.1937305,127.864606 38.3385592,127.753899 38.5078395,127.5176 C39.1811991,127.972522 40.1216453,127.93438 40.6586402,128.74003 C40.7564466,128.887019 41.0404613,129.049824 41.1777665,129.00796 C41.8859225,128.796779 42.061786,129.230304 42.2621011,129.742906 C42.5075575,130.371797 42.927937,130.053631 43.5279417,129.972693 C42.911009,129.066569 42.4069298,128.326041 41.6545728,127.221761 C42.3232301,127.542718 42.5968999,127.618073 42.7981554,127.780878 C44.0527108,128.794918 45.2931594,129.826634 46.5345485,130.858351 C46.7028884,130.997897 46.8740496,131.149538 46.9944267,131.328158 C48.0101087,132.832473 49.1875474,134.262362 49.9784628,135.877384 C50.9029215,137.764988 51.715467,139.766089 52.1650004,141.806263 C52.8731564,145.018631 52.9831886,148.284026 52.0427423,151.532676 C51.6233033,152.982102 51.1098196,154.422226 51.0928916,155.990732 C51.085368,156.659626 50.5634203,157.323869 50.2756438,157.989042 C49.7884926,158.088586 49.3690536,158.175105 48.8057263,158.290463 C48.1652823,160.380875 46.2336057,161.64982 44.967765,163.420204 C44.8022465,163.650922 44.5708967,163.874196 44.3179166,164.000719 C41.6978333,165.305947 39.2037698,166.953529 36.0937139,166.939575 C34.8466822,166.933993 33.5996504,167.030745 32.3526186,167.049352 C30.8789393,167.071679 29.4024387,167.122846 27.934402,167.038188 C27.1218564,166.990742 26.7165241,167.347982 26.3309411,168.136886 C26.1466137,167.734061 26.0723184,167.398219 25.869182,167.180526 C25.6970803,166.997254 25.3594601,166.842822 25.1234081,166.875383 C24.889237,166.907944 24.5741875,167.150756 24.4989518,167.370309 C24.3353141,167.846629 24.3381355,168.376907 24.2092943,168.868112 C23.8227709,170.342656 23.4550564,171.829295 22.4610047,173.110335 C21.8497146,172.661925 22.3189973,172.272124 22.4751114,171.999542 C23.2227662,170.694314 23.5378157,169.290473 23.5885998,167.815929 C23.6008256,167.46055 23.515245,167.102379 23.4804485,166.797237 C22.9594412,166.342314 22.4666474,166.079036 21.7359206,166.3879 C21.6936005,166.768397 21.6164839,167.188898 21.6033177,167.61126 C21.5468909,169.390017 21.1537844,171.072951 20.240611,172.625642 C19.9076931,173.192202 19.6500108,173.801557 19.3227355,174.371838 C18.0691206,176.551559 17.2245998,178.835476 17.5387089,181.369646 C16.9622153,181.539893 16.9622153,181.140789 16.8945032,180.913793 C16.5709897,179.823467 16.6669152,178.735002 17.0976396,177.698634 C17.6863589,176.28456 18.3315051,174.893743 18.9606637,173.496414 C19.3791622,172.566102 19.8333978,171.649745 20.2340279,170.71199 C20.8848167,169.19093 21.0014321,167.617772 20.61773,165.846458 C20.0779138,165.656674 19.4835518,165.449215 18.8769639,165.237104 C18.7029814,165.538525 18.5412246,165.711563 18.5007854,165.907859 C18.34185,166.692112 18.2440436,167.488459 18.0794655,168.271782 C17.8528179,169.354665 17.4164509,170.348238 16.7308655,171.237617 C15.0070275,173.475948 14.3299062,176.022212 14.5396257,179.281095 C14.2499682,178.624295 14.0477723,178.368459 14.0355465,178.105181 C13.9161098,175.492864 14.3731667,173.061959 16.0518633,170.903635 C17.3854161,169.189069 17.964731,167.185177 17.7672373,164.853815 C17.0082972,164.547742 16.2813322,164.255624 15.3944914,163.898385 C15.2111043,164.516112 15.0098488,164.965453 14.9515412,165.432469 C14.7982484,166.677227 14.4954247,167.877329 13.8878964,168.975098 C13.2719041,170.086821 12.9041896,171.21808 12.9841276,172.515866 C13.0170432,173.048934 13.0621846,173.705735 12.5195471,174.131818 L12.5458796,174.16996 Z" id="Fill-49" fill="#FFFFFF"></path>
                    <path d="M4.29336947,145.626218 L4.24070448,145.637381 C5.14165201,147.667322 6.37175574,149.433055 8.46424871,150.413604 C9.37177937,150.839687 10.3470222,151.124362 11.4247736,151.523466 C11.6739919,151.903964 11.3975006,152.254691 10.9084686,152.315162 C10.4297814,152.374702 9.84294295,152.359817 9.44419373,152.134681 C7.38273549,150.969 5.64196943,149.441428 4.5886696,147.290546 C4.34979625,146.803063 4.38459276,146.184405 4.29336947,145.626218" id="Fill-51" fill="#FFFFFF"></path>
                    <path d="M31.7259993,130.713036 C31.7156544,130.042281 31.0093792,129.500839 31.4344609,128.725889 C31.7448082,128.16212 31.8238057,127.509971 31.5680043,126.804795 C31.1448035,126.812237 30.7272453,126.81968 30.3002827,126.828052 C30.3266152,126.7313 30.3228534,126.637338 30.3642331,126.61129 C31.1344586,126.116364 31.8529595,125.521894 32.7736564,125.310713 C32.8545348,125.292107 32.9843164,125.484682 33.0905868,125.578643 C32.353277,127.866281 32.353277,127.866281 32.8639393,128.792872 C32.6335299,129.006843 32.326004,129.200348 32.1567237,129.477581 C31.9328975,129.841333 31.818163,130.270207 31.6564063,130.672102 L31.7259993,130.713036 Z" id="Fill-53" fill="#FFFFFF"></path>
                    <path d="M7.88295886,180.02274 C7.60552721,178.23468 8.11618954,176.555467 8.64189901,174.885556 C8.7190156,174.639954 8.98798324,174.452031 9.16854893,174.237129 L9.10553902,174.200847 C8.79989398,176.030771 8.49801073,177.861625 8.17731855,179.688758 C8.15662873,179.806907 7.99393153,179.899939 7.89800601,180.005064 L7.88295886,180.02274 Z" id="Fill-55" fill="#FFFFFF"></path>
                    <path d="M12.5191709,174.131539 C12.5953471,174.479475 12.7298309,174.825551 12.7373545,175.175349 C12.7693296,176.657336 12.7627465,178.141184 12.7730914,180.016693 C11.8683821,177.835111 12.3875084,176.008908 12.5558483,174.180845 C12.5464439,174.169681 12.5191709,174.131539 12.5191709,174.131539" id="Fill-57" fill="#FFFFFF"></path>
                    <path d="M35.0877185,143.835367 C34.441632,144.805682 33.7955454,145.775998 33.1494588,146.746314 C33.512471,145.974154 33.8359846,145.180598 34.2591854,144.44193 C34.4134186,144.17214 34.8046442,144.033523 35.0877185,143.835367" id="Fill-59" fill="#FFFFFF"></path>
                    <path d="M8.66616252,140.05402 C8.88246517,140.237292 9.11663629,140.342417 9.13826656,140.479173 C9.16271816,140.633605 8.99625917,140.817807 8.91255945,140.988984 C8.75362403,140.892232 8.50252487,140.824319 8.46114524,140.691284 C8.41506337,140.546156 8.56365388,140.341487 8.66616252,140.05402" id="Fill-61" fill="#FFFFFF"></path>
                    <path d="M28.9073877,145.625287 C28.7644399,145.011281 29.0766681,144.571244 29.4744769,144.14237 C29.786705,144.861501 29.3023752,145.219671 28.8547228,145.592727 L28.9073877,145.625287 Z" id="Fill-63" fill="#FFFFFF"></path>
                    <path d="M12.808076,139.212274 C12.9735946,138.859686 13.1391131,138.508028 13.3507135,138.058687 C13.3375473,138.882944 13.3375473,138.882944 12.7601133,139.178783 C12.7723391,139.188086 12.808076,139.212274 12.808076,139.212274" id="Fill-65" fill="#FFFFFF"></path>
                    <path d="M30.0889644,133.744086 C30.2366145,133.46034 30.3842646,133.177526 30.5667112,132.828658 C30.9504132,133.4008 30.6259593,133.657567 30.0889644,133.744086" id="Fill-67" fill="#FFFFFF"></path>
                    <path d="M12.8472926,141.109087 C12.8425904,140.483918 12.8378882,139.858748 12.8209601,139.222414 C12.8077939,139.212181 12.7720569,139.187993 12.7598311,139.17869 C13.2244116,139.794556 13.5103073,140.423447 12.8002703,141.078387 L12.8472926,141.109087 Z" id="Fill-69" fill="#FFFFFF"></path>
                    <path d="M12.7998941,141.078573 C12.9494251,141.449768 13.0989561,141.820962 13.2908071,142.296352 C12.5901746,141.978185 12.8525591,141.51582 12.8553805,141.113925 C12.8469164,141.109273 12.7998941,141.078573 12.7998941,141.078573" id="Fill-71" fill="#FFFFFF"></path>
                    <path d="M27.5917034,139.544768 C27.6641178,139.234974 27.7365321,138.92611 27.9208596,138.136275 C28.115532,139.080542 27.9979762,139.375451 27.5277531,139.503834 C27.529634,139.505694 27.5917034,139.544768 27.5917034,139.544768" id="Fill-73" fill="#FFFFFF"></path>
                    <path d="M26.9727957,141.003125 C26.9238925,140.410516 27.1674681,139.940708 27.5934903,139.546256 C27.5916094,139.544395 27.5295399,139.505322 27.527659,139.504392 C27.7138674,140.150959 27.5144928,140.641233 26.9107263,140.964052 L26.9727957,141.003125 Z" id="Fill-75" fill="#FFFFFF"></path>
                    <path d="M13.6185526,144.420998 C13.5734112,144.512169 13.5282698,144.60334 13.4831284,144.69358 C13.4210589,144.569848 13.3279547,144.449838 13.3082053,144.319594 C13.2959795,144.237727 13.393786,144.139114 13.4408083,144.047943 C13.5000564,144.172605 13.5593045,144.296337 13.6185526,144.420998" id="Fill-77" fill="#FFFFFF"></path>
                    <path d="M26.9107263,140.964052 C27.1458378,141.61341 26.9032027,142.089729 26.3605652,142.459063 L26.416992,142.492554 C26.2778059,141.876688 26.5430118,141.410602 26.9746766,141.004985 C26.9727957,141.003125 26.9107263,140.964052 26.9107263,140.964052" id="Fill-79" fill="#FFFFFF"></path>
                    <path d="M26.3608473,142.459156 C26.5235445,143.080605 26.200031,143.554134 25.8774579,144.028593 C25.8802793,144.030453 25.9395274,144.067666 25.9432892,144.069527 C25.5962645,143.397841 25.9461105,142.928034 26.4172741,142.493578 L26.3608473,142.459156 Z" id="Fill-81" fill="#FFFFFF"></path>
                    <path d="M14.740505,146.370747 C14.6220088,146.401447 14.504453,146.43959 14.3840759,146.455405 C14.3624456,146.458196 14.3285896,146.365165 14.3013166,146.316788 C14.460252,146.336325 14.618247,146.355862 14.7771824,146.375398 L14.740505,146.370747 Z" id="Fill-83" fill="#FFFFFF"></path>
                    <path d="M7.89791196,180.004971 C7.8885075,180.008692 7.92894669,180.044044 7.88380527,180.024507 L7.89791196,180.004971 Z" id="Fill-85" fill="#3C2414"></path>
                    <path d="M21.4356361,137.356115 C21.5296807,137.771035 22.0347004,138.183163 21.4441001,138.603664 L21.5155741,138.640876 C21.4883011,138.214793 21.4619686,137.78871 21.4356361,137.360767 L21.4356361,137.356115 Z" id="Fill-87" fill="#FFFFFF"></path>
                    <path d="M44.1380092,80.4762757 C44.2085427,80.8614249 44.2790762,81.2456438 44.3496097,81.630793 L44.3909893,81.556368 C44.2254708,81.5935805 44.0590118,81.6298627 43.8925528,81.6670751 L43.9433369,81.7135907 C44.0082277,81.3005322 44.0731185,80.8884039 44.1380092,80.4762757" id="Fill-89" fill="#FFFFFF"></path>
                    <path d="M61.6845738,60.2681294 C61.242564,61.4421832 60.9218718,62.6748468 60.0378523,63.6386501 C60.0387928,63.6395804 60.0952195,63.6740019 60.0952195,63.6740019 C60.0660657,62.4245928 60.6848794,61.4152042 61.3554176,60.430934 C61.4146657,60.344415 61.6083976,60.3490665 61.7400601,60.3109237 L61.6845738,60.2681294 Z" id="Fill-91" fill="#FFFFFF"></path>
                    <path d="M59.8295435,70.5979427 C59.775938,69.4210979 59.8906725,68.3205387 61.1320616,67.7176965 C61.1217167,67.7093237 61.0869201,67.6786234 61.0869201,67.6786234 C60.6486722,68.6303327 60.2113647,69.5820419 59.7806403,70.5411937 C59.7891043,70.5486362 59.8295435,70.5979427 59.8295435,70.5979427" id="Fill-93" fill="#FFFFFF"></path>
                    <path d="M63.8343399,54.9978183 C63.4967197,55.7457892 63.1590995,56.4937602 62.8195984,57.2408008 C62.816777,57.2389401 62.8910723,57.2798739 62.8910723,57.2798739 C62.8195984,56.3607255 62.9004767,55.5057687 63.8728982,55.0322399 L63.8343399,54.9978183 Z" id="Fill-95" fill="#FFFFFF"></path>
                    <path d="M62.2107534,58.6997162 C62.1975872,58.1154802 62.1674929,57.5228714 62.8878748,57.2791296 C62.8906961,57.2800599 62.8164008,57.2391262 62.8192222,57.2400565 C62.5944555,57.7135854 62.367808,58.1861839 62.14022,58.6587825 L62.2107534,58.6997162 Z" id="Fill-97" fill="#FFFFFF"></path>
                    <path d="M61.7404363,60.3109237 C61.377424,59.6252837 61.6952948,59.1350092 62.2106594,58.7005535 L62.1410664,58.6596197 C62.2971805,59.2810682 61.9031335,59.7471546 61.6783668,60.2644081 C61.6849499,60.2681294 61.7404363,60.3109237 61.7404363,60.3109237" id="Fill-99" fill="#FFFFFF"></path>
                    <path d="M61.4354495,66.023133 C61.3122511,66.5682959 61.1881122,67.1134588 61.0761991,67.6679248 C61.086544,67.6790885 61.1222809,67.7097888 61.1316854,67.7181617 C60.6990801,67.0539188 60.8805862,66.5106166 61.497519,66.0575546 L61.4354495,66.023133 Z" id="Fill-101" fill="#FFFFFF"></path>
                    <path d="M40.5791724,110.981116 C40.1992322,111.031353 39.7656864,111.030423 39.6669396,110.608991 C39.5211704,109.985682 39.379163,109.318649 39.4525178,108.694409 C40.0835573,103.294878 40.7352865,97.8962766 41.9070826,92.5758217 C41.9945441,92.1767178 41.960688,91.6827221 42.4901593,91.5059628 L42.4356134,91.46782 C42.3528541,92.3264981 42.3124149,93.190758 42.1769907,94.0419936 C41.8939163,95.8263322 41.5675815,97.6050889 41.2468893,99.3838456 C40.6675744,102.598074 40.481366,105.837421 40.5819938,109.098165 C40.6017432,109.745662 40.5490782,110.39595 40.5293288,111.046238 L40.5791724,110.981116 Z" id="Fill-103" fill="#FFFFFF"></path>
                    <path d="M42.4900652,91.5061489 C42.2568346,89.8781027 42.3969611,89.1803687 43.1464967,88.2147047 C43.142735,88.2128441 43.0844273,88.1774922 43.0844273,88.1774922 C42.8662437,89.2724695 42.6471198,90.3674469 42.4317576,91.4652152 C42.4355194,91.4680061 42.4900652,91.5061489 42.4900652,91.5061489" id="Fill-105" fill="#FFFFFF"></path>
                    <path d="M43.8182575,84.9408434 C43.7101062,85.6813718 43.8041508,86.4944646 43.0668409,87.0117181 L43.1195059,87.0535822 C43.2182528,86.489813 43.2897267,85.9186014 43.4317341,85.365996 C43.4721733,85.2087733 43.7204511,85.1045783 43.8737438,84.9761953 L43.8182575,84.9408434 Z" id="Fill-107" fill="#FFFFFF"></path>
                    <path d="M37.7219086,106.141261 C37.6767671,106.490128 37.6316257,106.839925 37.5902461,107.190653 C37.5930674,107.192513 37.6513751,107.226004 37.6551369,107.228795 C37.4040377,106.844577 37.3438492,106.480824 37.7849185,106.175682 L37.7219086,106.141261 Z" id="Fill-109" fill="#FFFFFF"></path>
                    <path d="M38.9192848,144.952765 C39.0067463,145.754694 39.0067463,145.754694 38.4001584,146.717567 C38.6343295,145.953781 38.7829201,145.470949 38.9249274,144.979744 C38.9192848,144.96951 38.9192848,144.952765 38.9192848,144.952765" id="Fill-111" fill="#FFFFFF"></path>
                </g>
            </g>
        </g>
    </g>
</svg>