<?xml version="1.0" encoding="UTF-8" standalone="no"?>
<svg width="20px" height="20px" viewBox="0 0 20 20" version="1.1" xmlns="http://www.w3.org/2000/svg" xmlns:xlink="http://www.w3.org/1999/xlink" xmlns:sketch="http://www.bohemiancoding.com/sketch/ns">
    <!-- Generator: Sketch 3.5.2 (25235) - http://www.bohemiancoding.com/sketch -->
    <title>magnifying-glass</title>
    <desc>Created with Sketch.</desc>
    <defs></defs>
    <g id="Grid-System" stroke="none" stroke-width="1" fill-rule="evenodd" sketch:type="MSPage">
        <g id="Elements" sketch:type="MSArtboardGroup" transform="translate(-495.000000, -98.000000)">
            <g id="magnifying-glass" sketch:type="MSLayerGroup" transform="translate(495.000000, 98.000000)">
                <path d="M19.4570518,17.0999203 L15.1240637,12.767012 C15.1010359,12.7439841 15.0740239,12.7278884 15.0499602,12.7064542 C15.9025498,11.4131474 16.4001594,9.86501992 16.4001594,8.20015936 C16.4001594,3.67131474 12.7288446,0 8.20007968,0 C3.67131474,0 0,3.67131474 0,8.20007968 C0,12.7287649 3.67123506,16.4001594 8.2,16.4001594 C9.86494024,16.4001594 11.412988,15.9025498 12.7062948,15.0499602 C12.7277291,15.0739442 12.743745,15.1009562 12.7667729,15.1239841 L17.0998406,19.4570518 C17.750757,20.1078884 18.8060558,20.1078884 19.4570518,19.4570518 C20.1078884,18.8061355 20.1078884,17.7508367 19.4570518,17.0999203 L19.4570518,17.0999203 Z M8.20007968,13.5574502 C5.24119522,13.5574502 2.84262948,11.1588845 2.84262948,8.20007968 C2.84262948,5.24119522 5.2412749,2.84262948 8.20007968,2.84262948 C11.1588048,2.84262948 13.5574502,5.2412749 13.5574502,8.20007968 C13.5574502,11.1588845 11.1588048,13.5574502 8.20007968,13.5574502 L8.20007968,13.5574502 Z" id="Shape" sketch:type="MSShapeGroup"></path>
            </g>
        </g>
    </g>
</svg>
