<?xml version="1.0" encoding="utf-8"?>
<!-- Generator: Adobe Illustrator 18.1.1, SVG Export Plug-In . SVG Version: 6.00 Build 0)  -->
<!DOCTYPE svg PUBLIC "-//W3C//DTD SVG 1.1//EN" "http://www.w3.org/Graphics/SVG/1.1/DTD/svg11.dtd">
<svg version="1.1" id="Layer_1" xmlns="http://www.w3.org/2000/svg" xmlns:xlink="http://www.w3.org/1999/xlink" x="0px" y="0px"
	 viewBox="0 0 56 38" enable-background="new 0 0 56 38" xml:space="preserve">
<g>
	<g>
		<path fill="#0556A3" d="M56,33.62c0,2.062-1.671,3.733-3.733,3.733H3.733C1.671,37.353,0,35.681,0,33.62V3.753
			C0,1.691,1.671,0.02,3.733,0.02h48.533C54.329,0.02,56,1.691,56,3.753V33.62z"/>
	</g>
	<g>
		<polyline fill="#FFFFFF" points="22.498,24.61 24.446,12.545 27.562,12.545 25.613,24.61 22.498,24.61 		"/>
		<path fill="#FFFFFF" d="M36.913,12.84c-0.616-0.242-1.585-0.506-2.791-0.506c-3.08,0-5.248,1.638-5.266,3.982
			c-0.019,1.734,1.547,2.702,2.728,3.278c1.214,0.591,1.621,0.969,1.617,1.497c-0.008,0.808-0.969,1.178-1.865,1.178
			c-1.247,0-1.91-0.182-2.934-0.633l-0.401-0.192l-0.435,2.701c0.726,0.336,2.073,0.628,3.471,0.643
			c3.274,0,5.401-1.618,5.426-4.121c0.011-1.375-0.819-2.418-2.617-3.278c-1.089-0.559-1.757-0.93-1.749-1.496
			c0.001-0.502,0.564-1.038,1.785-1.038c1.019-0.016,1.757,0.219,2.331,0.464l0.28,0.138L36.913,12.84"/>
		<path fill="#FFFFFF" d="M44.905,12.557h-2.408c-0.747,0-1.305,0.214-1.633,1.001l-4.627,11.057h3.272c0,0,0.533-1.487,0.655-1.814
			c0.357,0,3.536,0.006,3.99,0.006c0.094,0.421,0.379,1.807,0.379,1.807h2.891L44.905,12.557 M41.062,20.332
			c0.258-0.694,1.241-3.373,1.241-3.373c-0.018,0.032,0.257-0.699,0.414-1.152l0.21,1.041c0,0,0.598,2.88,0.721,3.483
			C43.163,20.332,41.67,20.332,41.062,20.332z"/>
		<path fill="#FFFFFF" d="M19.884,12.555l-3.05,8.225l-0.326-1.672c-0.568-1.927-2.337-4.015-4.315-5.061l2.789,10.552l3.297-0.002
			l4.905-12.042H19.884"/>
		<path fill="#F29C1F" d="M14.005,12.546H8.98l-0.041,0.25c3.909,1,6.496,3.412,7.569,6.311l-1.092-5.544
			C15.228,12.8,14.681,12.573,14.005,12.546"/>
	</g>
</g>
</svg>
