<?xml version="1.0" encoding="UTF-8" standalone="no"?>
<svg width="137px" height="76px" viewBox="0 0 137 76" version="1.1" xmlns="http://www.w3.org/2000/svg" xmlns:xlink="http://www.w3.org/1999/xlink">
    <!-- Generator: Sketch 3.6.1 (26313) - http://www.bohemiancoding.com/sketch -->
    <title>FC-logo-01 Copy</title>
    <desc>Created with Sketch.</desc>
    <defs></defs>
    <g id="Log-In---Google-Only" stroke="none" stroke-width="1" fill="none" fill-rule="evenodd">
        <g id="Sgin-In-1" transform="translate(-651.000000, -159.000000)">
            <g id="FC-logo-01-Copy" transform="translate(651.000000, 159.000000)">
                <g id="Group" transform="translate(29.619835, 0.000000)">
                    <path d="M62.9711441,30.18555 C63.149906,26.7898205 62.5441596,23.3566725 61.1428493,20.211281 C59.5744582,16.6910943 57.0845147,13.6227768 54.0194875,11.2302293 L45.7273938,7.47943074 C41.5703959,6.39632766 38.3553922,6.96553635 38.3553922,6.96553635 C35.6053365,3.27981345 33.5694943,1.06052996 31.2391225,0.0516538081 C31.3430005,17.3861837 24.122227,18.5581558 24.0976133,34.2828764 L27.8774798,34.691633 C27.8774798,34.691633 30.0797771,33.4114726 30.2161952,33.3077583 C33.4918987,27.2959871 40.0848151,26.0284352 41.2020253,26.3005328 C42.284818,26.4205161 43.2257692,26.725965 43.8275525,27.3563855 C46.4382698,29.2988941 43.6494163,38.1739944 31.7912613,42.4358403 C23.6685429,45.3058804 15.5785732,43.5339921 10.5832506,39.4287346 C8.18884151,37.4610092 6.094594,35.3338484 4.62799497,32.842874 C2.84162688,29.8630187 2.36812669,27.4690477 2.36812669,27.4690477 C2.36812669,27.4690477 -3.86246824,35.9109882 5.13257512,44.8310315 C8.4255916,47.7112397 13.2156613,48.7638385 17.5424518,48.2832954 C20.3406918,48.0654953 25.2694741,46.6736895 28.9944813,45.0809627 C28.4696679,46.168133 28.1574081,47.2130041 27.9796891,47.8110901 C27.43944,49.3377245 27.0952658,50.8011135 25.9046319,52.3279513 L24.3122528,58.2671224 L27.3280527,58.2671224 L33.1763014,49.8091164 C36.0289836,50.4869201 38.6787073,50.8635455 41.3240506,50.8011135 C41.3240506,52.6555666 41.3077806,58.2593947 41.307572,58.2671224 L41.3077806,58.2671224 L43.1160507,58.2671224 C43.2802113,57.6324313 43.8569637,54.9848686 46.6038906,52.3279513 L47.1975388,49.808913 C50.1789213,49.0528151 52.9944743,47.5265875 55.3842944,45.4964301 L55.3790797,45.5080217 C58.7142314,49.5107851 58.3648425,54.2832716 58.3648425,54.2832716 C58.3648425,54.2832716 59.3299902,55.8408169 59.6399556,56.1434188 C59.9499209,56.7488258 60.1049035,57.3540295 60.2734446,57.9868903 L62.9993038,57.9606567 C62.9993038,57.9606567 62.8357689,53.6300746 62.9993038,50.8885589 C62.9990952,42.7703699 62.9801135,33.9432628 62.9711441,30.18555 L62.9711441,30.18555 Z" id="Shape" fill="#DC8027"></path>
                    <path d="M60.7803192,38.6398955 C59.5072921,41.2256363 57.6362363,43.5819854 55.3882577,45.4927696 L55.3826257,45.5092419 C56.1149866,46.3100793 56.5778486,47.0816326 56.8851023,47.8363069 C60.0819586,44.0798143 62.1835068,39.4968606 62.995132,34.8563557 L62.995132,29.5650942 C62.9187879,32.6895395 62.1791264,35.7987327 60.7803192,38.6398955 L60.7803192,38.6398955 Z" id="Shape" fill="#221F1F" opacity="0.2"></path>
                    <path d="M58.3683886,54.2844918 L59.5946915,56.1657885 L59.5331573,58.2671224 L63.0028498,58.2671224 L63.0028498,50.8897791 C63.0028498,50.8897791 60.4119486,50.8873388 56.8851023,47.8365103 C58.5619604,51.1407271 58.3683886,54.2844918 58.3683886,54.2844918 L58.3683886,54.2844918 Z" id="Shape" fill="#754D29"></path>
                    <path d="M27.8772712,17.3729652 L27.8772712,10.6600038 C28.4840606,10.2748372 30.4335464,9.1982417 30.4335464,9.1982417 C29.9172852,12.3666131 28.1611627,16.7464086 27.8772712,17.3729652 L27.8772712,17.3729652 Z" id="Shape" fill="#DC8027"></path>
                    <path d="M27.8772712,17.3729652 L27.8772712,10.6600038 C28.4840606,10.2748372 30.4335464,9.1982417 30.4335464,9.1982417 C29.9172852,12.3666131 28.1611627,16.7464086 27.8772712,17.3729652 L27.8772712,17.3729652 Z" id="Shape" fill="#221F1F" opacity="0.2"></path>
                    <path d="M52.8351113,0.0260302655 C50.314505,6.59135129 40.5643644,7.84873513 40.5643644,15.9036788 L40.5626957,16.2355646 L40.5918984,16.259968 L45.0284074,14.0042828 L44.9900267,17.47973 L48.7008498,17.1478441 C47.488731,18.9248165 47.1418452,20.4429097 47.3771352,21.904265 C53.4627598,16.7533229 56.3502765,8.99671051 52.8351113,0.0260302655 L52.8351113,0.0260302655 Z" id="Shape" fill="#F4DEB6"></path>
                    <path d="M59.9920561,40.0359718 C59.9920561,35.3214434 57.4069954,32.8156236 57.4069954,32.8156236 L55.1383664,33.7478325 C48.1122077,24.1430712 40.7992372,26.2407446 40.5384992,26.2655547 C42.3688799,26.23139 41.3563822,26.2340337 40.5384992,26.2655547 C42.3688799,26.23139 44.2762304,26.7233213 45.7136268,27.8617387 C47.815175,29.5260488 48.3923446,32.2411275 48.291804,34.7654532 C48.657463,34.7652498 49.9697051,34.7644364 49.9697051,34.7644364 C49.9697051,34.7644364 51.4177396,36.4452187 51.7965397,40.1350089 C52.3760038,40.11935 52.9552594,40.1038946 53.5347235,40.0882357 C52.8140437,42.2225141 51.2646342,44.0385319 49.2502769,45.0978417 C48.4572162,46.5061197 47.711297,48.2151693 47.1975388,49.8093197 C55.8519541,47.5603455 59.9920561,40.0359718 59.9920561,40.0359718 L59.9920561,40.0359718 Z" id="Shape" fill="#F4DEB6"></path>
                    <g opacity="0.2" transform="translate(38.172041, 23.996651)" id="Shape" fill="#221F1F">
                        <path d="M0.183142362,2.75172073 L0.184142362,2.75272073 C0.207142362,2.74572073 0.230142362,2.73772073 0.253142362,2.72972073 C0.212142362,2.74272073 0.183142362,2.75172073 0.183142362,2.75172073 L0.183142362,2.75172073 Z"></path>
                        <path d="M4.49407994,10.714708 C4.49407994,10.714708 9.99314838,6.0969796 9.99314838,0.146216882 C9.62164889,-0.043926073 2.22795395,2.12838093 0.53002818,2.63109043 C1.7363064,2.29005328 2.66933121,2.21582635 3.029984,2.3036785 C4.15303465,2.4281357 6.85657469,2.9503679 6.57038868,5.99550224 C6.63859774,8.25789836 4.49407994,10.714708 4.49407994,10.714708 L4.49407994,10.714708 Z"></path>
                    </g>
                    <path d="M48.7008498,17.1478441 L44.9900267,17.47973 L45.0284074,14.0042828 L40.5896039,16.2609848 L40.5885609,17.8646932 C37.2755198,18.8064601 34.4088621,20.0638439 32.1012266,21.7163591 L32.1012266,21.7163591 C29.4982271,24.5933135 27.2692302,29.3763748 26.0448046,32.3572469 L27.8772712,34.7109523 L30.2159866,33.3073516 C32.1898775,29.8703397 35.6247354,27.0958795 40.0414283,26.3275799 L48.1649811,24.1426645 C47.0052185,21.9382264 46.8648372,19.8393329 48.7008498,17.1478441 L48.7008498,17.1478441 Z" id="Shape" fill="#E6A848"></path>
                    <path d="M44.2524511,58.2671224 C44.4203664,57.3607404 44.1571253,54.635697 46.603682,52.3279513 C46.7749347,51.5179626 46.9616231,50.7651185 47.1973302,49.808913 C45.8671493,50.1568644 43.1848855,50.6931286 41.3240506,50.8009101 C41.3240506,50.8009101 41.3154984,58.1843543 41.3077806,58.2671224 L41.3079892,58.266919 L44.2524511,58.2671224 L44.2524511,58.2671224 Z" id="Shape" fill="#754D29"></path>
                    <path d="M24.3120443,58.2671224 L27.3278441,58.2671224 L33.1760929,49.8091164 C30.0028073,51.6214736 27.9763516,51.639166 26.5043292,51.549687 L25.9044233,52.3281546 L24.3120443,58.2671224 L24.3120443,58.2671224 Z" id="Shape" fill="#754D29"></path>
                    <path d="M39.7247881,58.2671224 C39.7185304,58.2095711 39.7247881,50.812095 39.7247881,50.812095 L35.5187715,50.3018612 C35.7780494,52.1654655 35.6989936,52.4892169 36.0089589,54.4565356 C37.2500718,56.5584795 37.5070551,58.1298534 37.478061,58.2671224 L39.7247881,58.2671224 L39.7247881,58.2671224 Z" id="Shape" fill="#DC8027"></path>
                    <path d="M30.7944078,7.06884397 C31.1809258,3.41057486 31.205748,2.29371378 31.2389139,0.0514504466 C33.8569319,1.24172501 35.534833,3.36583534 37.48265,5.81674753 C37.48265,5.81674753 34.201106,5.6475508 30.7944078,7.06884397 L30.7944078,7.06884397 Z" id="Shape" fill="#754D29"></path>
                    <path d="M24.1289019,32.5968067 L24.0974047,34.3026025 L27.8772712,34.711359 L26.0448046,32.3576536 L24.1289019,32.5968067 Z" id="Shape" fill="#754D29"></path>
                    <path d="M36.5285576,19.3187276 C36.5095759,19.3128301 36.4903856,19.3089662 36.4714038,19.3038822 C35.9113386,19.5428319 35.3702552,19.7952035 34.8481534,20.0609969 C34.8302146,20.1012624 34.8141532,20.1425448 34.799969,20.1852507 C34.5675993,20.8907116 34.9647554,21.6466061 35.687104,21.8735575 C36.4094525,22.1005088 37.1833228,21.7124952 37.4156925,21.0072377 C37.6480622,20.3019802 37.2509061,19.545679 36.5285576,19.3187276 L36.5285576,19.3187276 Z" id="Shape" fill="#754D29"></path>
                    <path d="M37.478061,58.2671224 L39.7247881,58.2671224 L39.7247881,52.3279513 C39.7247881,52.3279513 37.2500718,52.8603515 36.0089589,54.4565356 C36.0089589,54.4567389 37.2500718,56.6428745 37.478061,58.2671224 L37.478061,58.2671224 Z" id="Shape" fill="#754D29"></path>
                    <path d="M33.1760929,49.8091164 C35.6712511,50.4025251 38.7546342,50.8726967 41.3238421,50.7921656 C41.3238421,50.7921656 41.160933,48.8573848 40.7758751,46.9134527 C38.9027334,47.1210847 37.2177402,47.2010058 35.304132,46.9134527 C34.6520784,47.812717 33.1760929,49.8091164 33.1760929,49.8091164 L33.1760929,49.8091164 Z" id="Shape" fill="#F4DEB6"></path>
                    <path d="M4.89582503,44.5841507 C5.30862541,44.5225321 7.56161021,44.1642093 9.12103196,43.4758308 C7.60750009,40.5842343 8.39805767,37.5271016 8.39805767,37.5271016 C3.75128956,32.8717514 2.3679181,27.4690477 2.3679181,27.4690477 C-1.29472055,32.1815426 -0.315388669,39.8021062 4.89582503,44.5841507 L4.89582503,44.5841507 Z" id="Shape" fill="#F4DEB6"></path>
                    <path d="M39.7247881,50.812095 L41.3073634,50.8285673 C41.3073634,50.8285673 41.1442457,46.8711535 39.7585798,43.5443636" id="Shape" fill="#6F451B" opacity="0.2"></path>
                    <path d="M32.3600873,14.7845807 L34.1383203,10.3395062 L31.2387053,0.0514504466 C34.7968402,1.50385792 38.354975,6.96533299 38.354975,6.96533299 L35.5273237,7.50769798 L36.3429121,10.5607634 L32.3600873,14.7845807 L32.3600873,14.7845807 Z" id="Shape" fill="#221F1F" opacity="0.2"></path>
                    <path d="M35.3043406,46.9134527 L35.5187715,50.3018612 L33.1760929,49.8091164 L35.3043406,46.9134527 Z" id="Shape" fill="#6F451B" opacity="0.2"></path>
                </g>
                <g id="Group" transform="translate(0.000000, 57.958013)">
                    <path d="M8.81252677,3.19684198 L2.96865842,3.19684198 L2.96865842,7.04606749 L8.59684431,7.04606749 L8.59684431,9.7257613 L2.96865842,9.7257613 L2.96865842,17.6031704 L0.0609083937,17.6031704 L0.0609083937,0.517148165 L8.81231818,0.517148165 L8.81231818,3.19684198 L8.81252677,3.19684198 Z" id="Shape" fill="#DC8027"></path>
                    <path d="M44.849854,15.9691612 C40.9298148,15.9691612 37.7519402,12.8709495 37.7519402,9.04917776 C37.7519402,5.22740605 40.9298148,2.12919437 44.849854,2.12919437 C46.655621,2.12919437 48.3028593,2.78767874 49.5556532,3.87057846 L49.5556532,1.43003771 C48.0873854,0.600322998 46.5663443,0.18526228 44.9925298,0.18526228 C42.1096021,0.18526228 39.7600399,1.22931996 37.9438434,3.31682523 C36.468275,5.02099418 35.7302822,6.96126576 35.7302822,9.13763999 C35.7302822,11.5649622 36.6115766,13.6378255 38.3749997,15.3568398 C40.1457235,17.0610088 42.2833578,17.9130932 44.7879027,17.9130932 C46.452454,17.9130932 48.0417041,17.494372 49.555236,16.6569296 L49.555236,14.2277771 C48.3030679,15.3104734 46.6558296,15.9691612 44.849854,15.9691612 L44.849854,15.9691612 Z" id="Shape" fill="#754D29"></path>
                    <path d="M51.6511522,11.5737068 C51.6511522,9.87177482 52.2913161,8.409606 53.5708096,7.18821714 C54.8457141,5.96642155 56.3773933,5.3553204 58.1658473,5.3553204 C59.9330251,5.3553204 61.4488514,5.97150559 62.7122834,7.20387597 C63.9817645,8.43604299 64.6165051,9.91631098 64.6165051,11.6444766 C64.6165051,13.3830136 63.9790528,14.8581976 62.7041484,16.069215 C61.4246549,17.2859265 59.8796259,17.8939773 58.0690613,17.8939773 C56.4681301,17.8939773 55.0296908,17.3536459 53.7554121,16.2729832 C52.3524331,15.0772178 51.6511522,13.510928 51.6511522,11.5737068 L51.6511522,11.5737068 Z M53.5386867,11.5934329 C53.5386867,12.9287041 53.9990457,14.0270593 54.920598,14.8874816 C55.8361012,15.7483106 56.8934459,16.1786234 58.0930492,16.1786234 C59.3944447,16.1786234 60.4924645,15.7403795 61.3866915,14.864095 C62.2809185,13.9772358 62.7287621,12.8975898 62.7287621,11.6245472 C62.7287621,10.3362524 62.2869676,9.25640308 61.4027529,8.38499927 C60.5243788,7.50851142 59.4378315,7.07047086 58.1416508,7.07047086 C56.8508935,7.07047086 55.7610087,7.50871478 54.8719964,8.38499927 C53.9831928,9.25091232 53.5386867,10.3207969 53.5386867,11.5934329 L53.5386867,11.5934329 Z" id="Shape" fill="#754D29"></path>
                    <path d="M103.761829,7.29782896 L97.9630163,7.29782896 L97.9630163,10.203254 L103.61665,10.203254 L103.61665,11.9184044 L97.9630163,11.9184044 L97.9630163,15.9593998 L103.761829,15.9593998 L103.761829,17.6745503 L96.0913347,17.6745503 L96.0913347,5.58247514 L103.761829,5.58247514 L103.761829,7.29782896 L103.761829,7.29782896 Z" id="Shape" fill="#754D29"></path>
                    <path d="M110.95778,12.5213711 L114.797721,17.6745503 L112.508233,17.6745503 L108.965742,12.724936 L108.628451,12.724936 L108.628451,17.6745503 L106.756561,17.6745503 L106.756561,5.58247514 L108.949055,5.58247514 C110.58795,5.58247514 111.771491,5.88243328 112.500098,6.48295964 C113.303171,7.15140872 113.705124,8.03359068 113.705124,9.13031898 C113.705124,9.98667404 113.452939,10.7228425 112.949819,11.3388243 C112.446281,11.9550095 111.78213,12.349124 110.95778,12.5213711 L110.95778,12.5213711 Z M108.628243,11.1350561 L109.222517,11.1350561 C110.995118,11.1350561 111.881419,10.4747415 111.881419,9.15370555 C111.881419,7.91625113 111.019106,7.29782896 109.295106,7.29782896 L108.628451,7.29782896 L108.628451,11.1350561 L108.628243,11.1350561 Z" id="Shape" fill="#754D29"></path>
                    <path d="M126.226805,6.2283511 L126.226805,8.38621944 C125.144847,7.50403747 124.02576,7.06253977 122.868709,7.06253977 C121.59443,7.06253977 120.520607,7.50912151 119.647656,8.40167491 C118.769282,9.28934763 118.330199,10.3752978 118.330199,11.6597287 C118.330199,12.9285008 118.769282,13.9989954 119.647656,14.870806 C120.52603,15.7426165 121.602565,16.1786234 122.876635,16.1786234 C123.535364,16.1786234 124.095012,16.0740957 124.555996,15.8652435 C124.812771,15.7607157 125.078933,15.6199895 125.355106,15.4422516 C125.630654,15.2649205 125.921429,15.0507808 126.226805,14.8000362 L126.226805,17.0046776 C125.155485,17.5976796 124.030974,17.8937739 122.852647,17.8937739 C121.080046,17.8937739 119.566932,17.2908072 118.314138,16.0844671 C117.065933,14.8681623 116.442456,13.4011128 116.442456,11.6831152 C116.442456,10.143059 116.964766,8.76975913 118.008761,7.56382574 C119.294304,6.08599809 120.956978,5.34718594 122.996992,5.34718594 C124.110865,5.3473893 125.1874,5.6412466 126.226805,6.2283511 L126.226805,6.2283511 Z" id="Shape" fill="#754D29"></path>
                    <path d="M87.0497757,14.0720022 L81.5892965,4.67405955 L81.5892965,17.687362 L83.4805855,17.687362 L83.4805855,11.8435674 L87.0178614,17.6745503 L90.7145002,11.6463068 L90.7145002,17.687362 L92.6057893,17.687362 L92.6057893,4.67405955 L87.0497757,14.0720022 Z" id="Shape" fill="#754D29"></path>
                    <path d="M72.5767315,14.0720022 L67.1164609,4.67405955 L67.1164609,17.687362 L69.0075414,17.687362 L69.0075414,11.8435674 L72.5448172,17.6745503 L76.2414561,11.6461035 L76.2414561,17.687362 L78.1327451,17.687362 L78.1327451,4.67405955 L72.5767315,14.0720022 Z" id="Shape" fill="#754D29"></path>
                    <path d="M136.940634,7.29782896 L131.141821,7.29782896 L131.141821,10.203254 L136.795455,10.203254 L136.795455,11.9184044 L131.141821,11.9184044 L131.141821,15.9593998 L136.940634,15.9593998 L136.940634,17.6745503 L129.270139,17.6745503 L129.270139,5.58247514 L136.940634,5.58247514 L136.940634,7.29782896 L136.940634,7.29782896 Z" id="Shape" fill="#754D29"></path>
                    <path d="M30.7289104,11.1049587 L33.9186746,5.61887684 L30.7716714,5.62009701 L29.1288135,8.39557406 L27.4640536,5.6217239 L24.1599819,5.62355415 L27.477612,11.1736948 L23.7088008,17.6332679 L26.913375,17.6312343 L29.1350712,13.93575 L31.3790866,17.6289973 L34.5817835,17.6277771 L30.7289104,11.1049587 Z" id="Shape" fill="#DC8027"></path>
                    <path d="M21.2566122,7.25878356 C20.0150822,6.04756277 18.5040534,5.4334112 16.7650354,5.4334112 C15.0087043,5.4334112 13.482657,6.04186865 12.231949,7.24109112 C10.9726888,8.443364 10.3341937,9.90349921 10.3341937,11.5810278 C10.3341937,13.4832708 11.0361003,15.0459002 12.4213491,16.2264134 C13.669554,17.2851131 15.1011098,17.8219873 16.676593,17.8219873 C18.4521144,17.8219873 19.9898428,17.2165803 21.2453483,16.0224419 C22.5004367,14.8299303 23.136846,13.3573901 23.136846,11.6456967 C23.136846,9.94559503 22.5041913,8.46919091 21.2566122,7.25878356 L21.2566122,7.25878356 Z M20.4627172,11.6278009 C20.4627172,12.6747057 20.1060276,13.5377717 19.3736668,14.2639754 C18.6415145,14.9810279 17.7666864,15.3295894 16.6982864,15.3295894 C15.7204147,15.3295894 14.8795868,14.9859085 14.1259498,14.2776006 C13.3739814,13.5751902 13.008531,12.6993124 13.008531,11.5993303 C13.008531,10.553239 13.3616746,9.70074784 14.090698,8.99081303 C14.8172183,8.27437064 15.6845372,7.92621584 16.7427162,7.92621584 C17.8044413,7.92621584 18.6688399,8.27376056 19.3874337,8.99081303 C20.1108252,9.70400163 20.4627172,10.5662542 20.4627172,11.6278009 L20.4627172,11.6278009 Z" id="Shape" fill="#DC8027"></path>
                </g>
            </g>
        </g>
    </g>
</svg>