<?xml version="1.0" encoding="UTF-8" standalone="no"?>
<svg width="19px" height="17px" viewBox="0 0 19 17" version="1.1" xmlns="http://www.w3.org/2000/svg" xmlns:xlink="http://www.w3.org/1999/xlink" xmlns:sketch="http://www.bohemiancoding.com/sketch/ns">
    <!-- Generator: Sketch 3.5.2 (25235) - http://www.bohemiancoding.com/sketch -->
    <title>google copy</title>
    <desc>Created with Sketch.</desc>
    <defs></defs>
    <g id="Grid-System" stroke="none" stroke-width="1" fill-rule="evenodd" sketch:type="MSPage">
        <g id="google-copy" sketch:type="MSLayerGroup" transform="translate(1.000000, 1.000000)">
            <path d="M11.3796013,0 L7.1149056,0 C5.2145194,0 3.89902368,0.338873094 2.71502212,1.13438369 C1.78385135,1.78779591 1.22814075,2.73742166 1.22814075,3.67473022 C1.22814075,5.11884632 2.58186581,6.65353888 5.09041254,6.65353888 C5.3316083,6.65353888 5.59865966,6.63341078 5.83431494,6.61553582 L5.79959457,6.68418166 C5.69875775,6.88065595 5.60327673,7.06601473 5.60327673,7.35531862 C5.60327673,7.91860501 5.93736795,8.26604006 6.2603782,8.60175875 L6.30100842,8.6442681 L6.22879744,8.64832376 C5.19291151,8.70600428 3.26482288,8.81355443 1.8564317,9.51758732 C0.192993546,10.3219603 0.0637155726,11.4920939 0.0637155726,11.8314176 C0.0637155726,13.1815024 1.61061886,14.5442049 5.06677314,14.5442049 C9.08547128,14.5442049 11.1882699,12.7409374 11.1882699,10.9597507 C11.1886392,9.64226137 10.2388155,8.99185335 9.23063198,8.30133934 L8.3801676,7.76328818 C8.11736395,7.58619093 7.79010599,7.3658333 7.79010599,6.95756332 C7.79010599,6.55620299 8.11736395,6.29123307 8.40620787,6.05750677 L8.43631117,6.03272217 C9.35473883,5.44435075 10.3956112,4.77726945 10.3956112,3.33435503 C10.3956112,1.8836297 9.28105039,1.13393306 8.74510085,0.77357998 L10.1603253,0.77357998 C10.1776855,0.77357998 10.1950457,0.769674528 10.2094509,0.762013833 L11.4285422,0.138643558 C11.4632626,0.120768603 11.4795147,0.0863705803 11.4680643,0.0542257035 C11.457168,0.0220808266 11.4206008,0 11.3796013,0 L11.3796013,0 Z M6.20792828,13.7494453 C3.75829537,13.7494453 2.11240208,12.8188962 2.11240208,11.4338125 C2.11240208,10.5293999 2.78557096,9.87223243 4.11140892,9.48153699 C5.17315044,9.19088121 6.54368164,9.17646108 6.55734817,9.17646108 C6.78949448,9.17646108 6.90621402,9.17646108 7.09163557,9.1953875 C8.80567681,10.1875226 9.62973155,10.7084499 9.62973155,11.700585 C9.62954687,12.9644494 8.31829885,13.7494453 6.20792828,13.7494453 L6.20792828,13.7494453 Z M6.18484293,6.12194673 C4.12895379,6.12194673 3.27571916,3.92392812 3.27571916,2.74703508 C3.27571916,2.14859962 3.4430418,1.68925834 3.78729057,1.34242413 C4.16090391,0.962243369 4.8006452,0.716650502 5.41711645,0.716650502 C7.30475954,0.716650502 8.34858684,2.78023143 8.34858684,4.20647257 C8.34858684,4.43148671 8.34858684,5.11599234 7.76720532,5.59140605 C7.37623179,5.90879916 6.74036885,6.12194673 6.18484293,6.12194673 L6.18484293,6.12194673 Z" id="Shape" sketch:type="MSShapeGroup"></path>
            <path d="M17.3568607,6.79293348 L15.1096402,6.79293348 L15.1096402,4.97164081 C15.1096402,4.93018293 15.0680865,4.89653596 15.0172987,4.89653596 L14.0506689,4.89653596 C13.9996964,4.89653596 13.9583275,4.93018293 13.9583275,4.97164081 L13.9583275,6.79293348 L11.7223726,6.79293348 C11.6714001,6.79293348 11.6300312,6.82658046 11.6300312,6.86803834 L11.6300312,7.66475061 C11.6300312,7.70605828 11.6714001,7.73985546 11.7223726,7.73985546 L13.9583275,7.73985546 L13.9583275,9.57286449 C13.9583275,9.61417216 13.9996964,9.64796934 14.0506689,9.64796934 L15.0172987,9.64796934 C15.0680865,9.64796934 15.1096402,9.61417216 15.1096402,9.57286449 L15.1096402,7.73955504 L17.3568607,7.73955504 C17.4078332,7.73955504 17.4492021,7.70605828 17.4492021,7.66445019 L17.4492021,6.86803834 C17.4492021,6.82643025 17.4080178,6.79293348 17.3568607,6.79293348 L17.3568607,6.79293348 Z" id="Shape" sketch:type="MSShapeGroup"></path>
        </g>
    </g>
</svg>