<svg xmlns="http://www.w3.org/2000/svg" viewBox="0 0 301.2 286.39"><path fill="#dc8027" d="M301.05 148.3c.86-16.7-2.05-33.58-8.76-49.04-7.6-17.3-19.5-32.4-34.2-44.16l-39.8-18.45c-19.9-5.32-35.4-2.53-35.4-2.53-13.1-18.12-22.8-29.02-34-34 .5 85.25-34.1 91-34.28 168.33l18.1 2s10.5-6.28 11.2-6.8c15.7-29.55 47.3-35.8 52.6-34.45 5.2.6 9.7 2.1 12.6 5.2 12.5 9.54-.86 53.2-57.7 74.14-38.95 14.12-77.73 5.4-101.68-14.78-11.5-9.68-21.54-20.14-28.57-32.4-8.53-14.64-10.8-26.4-10.8-26.4s-29.9 41.5 13.24 85.36c15.8 14.16 38.76 19.34 59.5 16.98 13.4-1.07 37.05-7.92 54.9-15.75-2.5 5.35-4 10.48-4.86 13.43-2.6 7.5-4.23 14.7-9.94 22.2l-7.62 29.2h14.5l28.02-41.58c13.7 3.33 26.4 5.2 39.06 4.88 0 9.12-.06 36.67-.07 36.7h8.7c.8-3.1 3.53-16.13 16.7-29.2l2.85-12.38c14.3-3.72 27.8-11.22 39.24-21.2v.05c16 19.68 14.3 43.15 14.3 43.15s4.62 7.66 6.1 9.15c1.5 2.98 2.23 5.95 3.04 9.06l13.06-.1s-.8-21.3 0-34.8c0-39.9-.1-83.3-.13-101.8z"/><path fill="#221f1f" d="M290.55 189.88c-6.1 12.7-15.07 24.3-25.85 33.7l-.03.08c3.5 3.93 5.73 7.73 7.2 11.44 15.33-18.47 25.4-41 29.3-63.83v-26.02c-.37 15.37-3.9 30.66-10.62 44.63z" opacity=".2"/><path fill="#754d29" d="M279 266.8l5.86 9.26-.3 10.33h16.64v-36.3s-12.42-.1-29.33-15.1c8.04 16.2 7.12 31.7 7.12 31.7z"/><path fill="#dc8027" d="M132.8 85.3v-33c2.92-1.9 12.26-7.2 12.26-7.2-2.47 15.58-10.9 37.12-12.25 40.2z"/><path fill="#221f1f" d="M132.8 85.3v-33c2.92-1.9 12.26-7.2 12.26-7.2-2.47 15.58-10.9 37.12-12.25 40.2z" opacity=".2"/><path fill="#f4deb6" d="M252.46 0c-12.08 32.28-58.83 38.47-58.83 78.08v1.63l.13.2 21.27-11.1-.18 17.1 17.8-1.6c-5.82 8.8-7.48 16.2-6.36 23.4 29.1-25.3 43-63.5 26.1-107.6zm34.3 196.74c0-23.18-12.4-35.5-12.4-35.5l-10.86 4.58c-33.68-47.23-68.74-36.9-70-36.8 8.78-.16 3.93-.15 0 0 8.78-.16 17.93 2.26 24.82 7.86 10.07 8.18 12.84 21.53 12.36 33.95h8.04s6.94 8.26 8.76 26.4l8.33-.23c-3.4 10.5-10.8 19.43-20.5 24.63-3.8 6.93-7.4 15.33-9.8 23.17 41.5-11.06 61.4-48.06 61.4-48.06z"/><path fill="#221f1f" d="M183.04 131.32l.07-.02v.02zm20.66 39.24s26.37-22.7 26.37-51.97c-1.78-1-37.23 9.7-45.37 12.2 5.8-1.7 10.26-2.1 12-1.6 5.37.6 18.33 3.1 16.96 18.1.33 11.1-9.95 23.2-9.95 23.2z" opacity=".2"/><path fill="#e6a848" d="M232.64 84.2l-17.8 1.63.2-17.1-21.3 11.1v7.9c-15.87 4.62-29.62 10.8-40.68 18.93-12.48 14.15-23.17 37.67-29.04 52.32l8.8 11.58 11.2-6.9c9.46-16.9 25.93-30.55 47.1-34.33l38.95-10.74c-5.56-10.9-6.23-21.2 2.57-34.4z"/><path fill="#754d29" d="M211.3 286.4c.82-4.46-.44-17.86 11.28-29.2.83-4 1.72-7.7 2.85-12.4-6.38 1.7-19.24 4.35-28.16 4.88 0 0-.04 36.3-.07 36.7h14.1zm-95.58 0h14.46l28.03-41.6c-15.2 8.9-24.9 9-31.9 8.56l-2.9 3.83-7.6 29.2z"/><path fill="#dc8027" d="M189.6 286.4c-.02-.3 0-36.67 0-36.67l-20.16-2.5c1.25 9.16.87 10.75 2.35 20.42 5.9 10.34 7.1 18.07 7 18.74h10.7z"/><path fill="#754d29" d="M146.8 34.63c1.85-18 1.97-23.48 2.12-34.5 12.56 5.85 20.6 16.3 29.94 28.34 0 0-15.73-.83-32.07 6.16zm-14 135.93l-8.77-11.58-9.2 1.18-.14 8.4m59.5-73.7l-.3-.06c-2.7 1.17-5.3 2.4-7.8 3.72-.1.2-.2.4-.27.6-1.1 3.48.8 7.2 4.27 8.3 3.47 1.13 7.18-.78 8.3-4.25 1.1-3.47-.8-7.2-4.26-8.3zm4.5 191.54h10.73v-29.2s-11.86 2.6-17.8 10.45c0 0 5.94 10.76 7.04 18.74z"/><path fill="#f4deb6" d="M158.2 244.8c11.97 2.92 26.76 5.23 39.07 4.83 0 0-.78-9.5-2.62-19.07-8.98 1.02-17.06 1.42-26.24 0-3.1 4.42-10.2 14.24-10.2 14.24zM22.63 219.1c1.98-.3 12.78-2.06 20.26-5.44-7.3-14.22-3.5-29.25-3.5-29.25C17.1 161.5 10.5 135 10.5 135c-17.57 23.17-12.88 60.64 12.1 84.16z"/><path fill="#6f451b" d="M189.6 249.73l7.6.08s-.8-19.4-7.43-35.8" opacity=".2"/><path fill="#221f1f" d="M154.3 72.57l8.53-21.86L148.93.2c17.05 7.15 34.1 34 34.1 34l-13.53 2.6 3.9 15-19.08 20.77z" opacity=".2"/><path fill="#6f451b" d="M168.42 230.56l1.03 16.66-11.23-2.42" opacity=".2"/></svg>
