<?xml version="1.0" encoding="UTF-8" standalone="no"?>
<svg
   xmlns:dc="http://purl.org/dc/elements/1.1/"
   xmlns:cc="http://creativecommons.org/ns#"
   xmlns:rdf="http://www.w3.org/1999/02/22-rdf-syntax-ns#"
   xmlns:svg="http://www.w3.org/2000/svg"
   xmlns="http://www.w3.org/2000/svg"
   height="286.392"
   width="301.20316"
   xml:space="preserve"
   enable-background="new 0 0 960 560"
   viewBox="0 0 301.20316 286.392"
   y="0px"
   x="0px"
   id="Layer_1"
   version="1.1"><metadata
     id="metadata3490"><rdf:RDF><cc:Work
         rdf:about=""><dc:format>image/svg+xml</dc:format><dc:type
           rdf:resource="http://purl.org/dc/dcmitype/StillImage" /><dc:title></dc:title></cc:Work></rdf:RDF></metadata><defs
     id="defs3488" /><g
     transform="translate(-294.54484,-124.706)"
     id="g3434"><path
       style="fill:#dc8027"
       id="path3436"
       d="m 595.596,273.011 c 0.857,-16.698 -2.047,-33.58 -8.765,-49.047 -7.519,-17.31 -19.456,-32.398 -34.15,-44.163 l -39.753,-18.444 c -19.929,-5.326 -35.342,-2.527 -35.342,-2.527 -13.184,-18.124 -22.944,-29.037 -34.116,-33.998 0.498,85.24 -34.119,91.003 -34.237,168.327 l 18.121,2.01 c 0,0 10.558,-6.295 11.212,-6.805 15.704,-29.562 47.311,-35.795 52.667,-34.457 5.191,0.59 9.702,2.092 12.587,5.192 12.516,9.552 -0.854,53.194 -57.703,74.151 -38.941,14.113 -77.725,5.4 -101.673,-14.787 -11.479,-9.676 -21.519,-20.136 -28.55,-32.385 -8.564,-14.653 -10.834,-26.425 -10.834,-26.425 0,0 -29.87,41.512 13.253,85.375 15.787,14.163 38.751,19.339 59.494,16.976 13.415,-1.071 37.044,-7.915 54.902,-15.747 -2.516,5.346 -4.013,10.484 -4.865,13.425 -2.59,7.507 -4.24,14.703 -9.948,22.211 l -7.634,29.205 14.458,0 28.037,-41.591 c 13.676,3.333 26.379,5.185 39.061,4.878 0,9.119 -0.078,36.675 -0.079,36.713 l 0.001,0 8.669,0 c 0.787,-3.121 3.552,-16.14 16.721,-29.205 l 2.846,-12.387 c 14.293,-3.718 27.791,-11.223 39.248,-21.206 l -0.025,0.057 c 15.989,19.683 14.314,43.151 14.314,43.151 0,0 4.627,7.659 6.113,9.147 1.486,2.977 2.229,5.953 3.037,9.065 l 13.068,-0.129 c 0,0 -0.784,-21.295 0,-34.776 -10e-4,-39.92 -0.091,-83.326 -0.135,-101.804 z" /><path
       style="opacity:0.2;fill:#221f1f"
       id="path3438"
       d="m 585.094,314.584 c -6.103,12.715 -15.073,24.302 -25.85,33.698 l -0.027,0.081 c 3.511,3.938 5.73,7.732 7.203,11.443 15.326,-18.472 25.401,-41.008 29.292,-63.827 l 0,-26.019 c -0.366,15.364 -3.912,30.653 -10.618,44.624 z" /><path
       style="fill:#754d29"
       id="path3440"
       d="m 573.53,391.514 5.879,9.251 -0.295,10.333 16.634,0 0,-36.277 c 0,0 -12.421,-0.012 -29.329,-15.014 8.039,16.248 7.111,31.707 7.111,31.707 z" /><path
       style="fill:#dc8027"
       id="path3442"
       d="m 427.354,210.007 0,-33.01 c 2.909,-1.894 12.255,-7.188 12.255,-7.188 -2.475,15.58 -10.894,37.117 -12.255,40.198 z" /><path
       style="opacity:0.2;fill:#221f1f"
       id="path3444"
       d="m 427.354,210.007 0,-33.01 c 2.909,-1.894 12.255,-7.188 12.255,-7.188 -2.475,15.58 -10.894,37.117 -12.255,40.198 z" /><path
       style="fill:#f4deb6"
       id="path3446"
       d="m 547.004,124.706 c -12.084,32.284 -58.827,38.467 -58.827,78.076 l -0.008,1.632 0.14,0.12 21.269,-11.092 -0.184,17.09 17.79,-1.632 c -5.811,8.738 -7.474,16.203 -6.346,23.389 29.175,-25.329 43.018,-63.471 26.166,-107.583 z" /><path
       style="fill:#f4deb6"
       id="path3448"
       d="m 581.314,321.449 c 0,-23.183 -12.393,-35.505 -12.393,-35.505 l -10.877,4.584 c -33.684,-47.23 -68.743,-36.915 -69.993,-36.793 8.775,-0.168 3.921,-0.155 0,0 8.775,-0.168 17.919,2.251 24.81,7.849 10.075,8.184 12.842,21.535 12.36,33.948 1.753,-10e-4 8.044,-0.005 8.044,-0.005 0,0 6.942,8.265 8.758,26.409 2.778,-0.077 5.555,-0.153 8.333,-0.23 -3.455,10.495 -10.883,19.425 -20.54,24.634 -3.802,6.925 -7.378,15.329 -9.841,23.168 41.492,-11.059 61.339,-48.059 61.339,-48.059 z" /><g
       style="opacity:0.2"
       id="g3450"><path
         style="fill:#221f1f"
         id="path3452"
         d="m 477.586,256.023 10e-4,10e-4 c 0.023,-0.007 0.046,-0.015 0.069,-0.023 -0.042,0.013 -0.07,0.022 -0.07,0.022 z" /><path
         style="fill:#221f1f"
         id="path3454"
         d="m 498.252,295.266 c 0,0 26.363,-22.707 26.363,-51.969 -1.781,-0.935 -37.227,9.747 -45.367,12.219 5.783,-1.677 10.256,-2.042 11.985,-1.61 5.384,0.612 18.345,3.18 16.973,18.154 0.328,11.124 -9.954,23.206 -9.954,23.206 z" /></g><path
       style="fill:#e6a848"
       id="path3456"
       d="m 527.184,208.9 -17.79,1.632 0.184,-17.09 -21.28,11.097 -0.005,7.886 0,0 0,0 c -15.883,4.631 -29.626,10.814 -40.689,18.94 0,0 0,0 0,0 -12.479,14.147 -23.165,37.667 -29.035,52.325 l 8.785,11.574 11.212,-6.902 c 9.463,-16.901 25.93,-30.544 47.104,-34.322 l 38.945,-10.744 c -5.561,-10.84 -6.233,-21.161 2.569,-34.396 z" /><path
       style="fill:#754d29"
       id="path3458"
       d="m 505.857,411.098 c 0.805,-4.457 -0.457,-17.857 11.272,-29.205 0.821,-3.983 1.716,-7.685 2.846,-12.387 -6.377,1.711 -19.236,4.348 -28.157,4.878 0,0 -0.041,36.307 -0.078,36.714 l 10e-4,-0.001 14.116,0.001 z" /><path
       style="fill:#754d29"
       id="path3460"
       d="m 410.262,411.098 14.458,0 28.037,-41.591 c -15.213,8.912 -24.928,8.999 -31.985,8.559 l -2.876,3.828 -7.634,29.204 z" /><g
       id="g3462"><path
         style="fill:#dc8027"
         id="path3464"
         d="m 484.152,411.098 c -0.03,-0.283 0,-36.659 0,-36.659 l -20.164,-2.509 c 1.243,9.164 0.864,10.756 2.35,20.43 5.95,10.336 7.182,18.063 7.043,18.738 l 10.771,0 z" /></g><path
       style="fill:#754d29"
       id="path3466"
       d="m 441.338,159.338 c 1.853,-17.989 1.972,-23.481 2.131,-34.507 12.551,5.853 20.595,16.298 29.933,28.35 0,0 -15.731,-0.832 -32.064,6.157 z" /><polygon
       style="fill:#754d29"
       id="polygon3468"
       points="427.354,295.266 427.354,295.266 418.569,283.692 409.384,284.868 409.233,293.256 " /><path
       style="fill:#754d29"
       id="path3470"
       d="m 468.829,219.575 c -0.091,-0.029 -0.183,-0.048 -0.274,-0.073 -2.685,1.175 -5.279,2.416 -7.782,3.723 -0.086,0.198 -0.163,0.401 -0.231,0.611 -1.114,3.469 0.79,7.186 4.253,8.302 3.463,1.116 7.173,-0.792 8.287,-4.26 1.114,-3.468 -0.79,-7.187 -4.253,-8.303 z" /><path
       style="fill:#754d29"
       id="path3472"
       d="m 473.38,411.098 10.771,0 0,-29.205 c 0,0 -11.864,2.618 -17.814,10.467 0.001,0 5.95,10.751 7.043,18.738 z" /><path
       style="fill:#f4deb6"
       id="path3474"
       d="m 452.757,369.507 c 11.962,2.918 26.744,5.23 39.061,4.834 0,0 -0.781,-9.514 -2.627,-19.073 -8.98,1.021 -17.058,1.414 -26.232,0 -3.127,4.422 -10.202,14.239 -10.202,14.239 z" /><path
       style="fill:#f4deb6"
       id="path3476"
       d="m 317.178,343.814 c 1.979,-0.303 12.78,-2.065 20.256,-5.45 -7.256,-14.219 -3.466,-29.252 -3.466,-29.252 -22.277,-22.892 -28.909,-49.459 -28.909,-49.459 -17.558,23.173 -12.863,60.646 12.119,84.161 z" /><path
       style="opacity:0.2;fill:#6f451b"
       id="path3478"
       d="m 484.152,374.439 7.587,0.081 c 0,0 -0.782,-19.46 -7.425,-35.819" /><path
       style="opacity:0.2;fill:#221f1f"
       id="path3480"
       d="m 448.845,197.279 8.525,-21.858 -13.901,-50.59 c 17.058,7.142 34.116,33.998 34.116,33.998 l -13.556,2.667 3.91,15.013 -19.094,20.77 z" /><path
       style="fill:none;stroke:#221f1f;stroke-width:7;stroke-miterlimit:10"
       id="path3482"
       d="M 491.739,411.098"
       stroke-miterlimit="10" /><polygon
       style="opacity:0.2;fill:#6f451b"
       id="polygon3484"
       points="462.959,355.268 463.987,371.93 452.757,369.507 " /></g></svg>