<?xml version="1.0" encoding="UTF-8"?>
<svg width="159px" height="38px" viewBox="0 0 159 38" version="1.1" xmlns="http://www.w3.org/2000/svg" xmlns:xlink="http://www.w3.org/1999/xlink">
    <!-- Generator: Sketch 42 (36781) - http://www.bohemiancoding.com/sketch -->
    <title>Fox_Head_Words</title>
    <desc>Created with Sketch.</desc>
    <defs></defs>
    <g id="New-Product-V+" stroke="none" stroke-width="1" fill="none" fill-rule="evenodd">
        <g id="Artboard" transform="translate(-28.000000, -516.000000)">
            <g id="Fox_Head_Words" transform="translate(28.000000, 516.000000)">
                <g id="Fox_Head-Copy" fill-rule="nonzero">
                    <g id="Asset-1">
                        <g id="Layer_2">
                            <g id="Layer_1-2">
                                <path d="M31.5389389,12.176482 C30.6252654,16.7457851 28.0983274,20.7078974 24.5602318,23.8014963 C24.6992117,24.6533632 24.9796415,25.4756878 25.3898015,26.2341026 C24.4621107,26.4826153 23.535057,26.7343305 22.6086405,26.9892482 C20.6417576,27.5291868 18.4627037,28.0422247 16.5149353,28.6494155 C14.8672646,29.1624533 13.4298536,29.5678877 11.9274532,30.4652235 C9.60687712,31.829975 7.70950048,33.8164845 6.44732368,36.2027926 L6.35175114,36.2642803 L6.30014197,36.2988671 L6.08605948,36.4314499 L5.93696631,36.5236814 L5.49159826,36.796533 L3.97581775,37.7092407 L3.95861469,37.7092407 L0,37.2653765 C0.0229374101,20.1583513 7.64580336,18.8844035 7.53111631,0.0288223496 C9.99115354,1.12599312 12.1377128,3.53938453 15.0392952,7.5495341 C15.0392952,7.5495341 18.3881571,6.93850029 22.7386192,8.08947279 C25.6765191,5.73949055 28.9795062,3.60471519 30.3175218,0 C31.980484,4.37331118 32.2863161,8.47377078 31.5389389,12.176482 Z" id="Shape" fill="#DC8027"></path>
                                <path d="M4.03316127,18.8690315 L4.03316127,11.5673696 C4.67158585,11.1446418 6.72830696,9.97829743 6.72830696,9.97829743 C6.18545492,13.423529 4.3313476,18.1888241 4.03316127,18.8690315 Z" id="Shape" fill="#DC8027"></path>
                                <path d="M30.3633966,0 C27.702657,7.14217823 17.4171401,8.51027909 17.4171401,17.2722734 L17.4171401,17.6335135 L17.4477233,17.6604143 L22.1288664,15.2066716 L22.0887259,18.9881639 L25.9957314,18.6250023 C24.7169708,20.5580212 24.3518837,22.2085811 24.5984609,23.7995748 C31.0247586,18.19651 34.0716112,9.75924757 30.3633966,0 Z" id="Shape" fill="#F4DEB6"></path>
                                <path d="M25.9957314,18.6250023 L22.0810801,18.9862424 L22.1212206,15.2047502 L17.4439004,17.6604143 L17.4439004,19.4070487 L17.4439004,19.4070487 C13.9535911,20.4292814 10.9239416,21.7973823 8.48875318,23.5958969 L8.48875318,23.5958969 C5.73435252,26.7240825 3.39091379,31.9274774 2.10259592,35.1632665 L4.03316127,37.7303771 L6.49893286,36.2047141 C8.58241427,32.4731805 12.2065251,29.4468338 16.8647308,28.6109857 L25.4356763,26.2341026 C24.2123478,23.8264757 24.0632546,21.553353 25.9957314,18.6250023 Z" id="Shape" fill="#E6A848"></path>
                                <polygon id="Shape" fill="#222222" points="0.0783694845 35.4303536 0.0439633693 37.2865129 4.03316127 37.7303771 4.03316127 37.7303771 2.09877302 35.1709525"></polygon>
                                <path d="M13.160339,20.9865135 L13.0991726,20.9711416 C12.5078971,21.2273402 11.9344619,21.5021133 11.3788669,21.7954608 C11.3597523,21.839655 11.3425493,21.8838493 11.3272577,21.9299651 C11.0828745,22.6957414 11.5021546,23.5157047 12.2638529,23.7616131 C13.0255511,24.0075215 13.8413627,23.5862981 14.0862267,22.8206769 C14.3310907,22.0550558 13.9123255,21.2348267 13.1507818,20.988435 L13.160339,20.9865135 Z" id="Shape" fill="#222222"></path>
                                <path d="M8.72003873,16.2634911 L10.6047293,11.3656132 L7.53111631,0.0288223496 C11.3024088,1.6294235 15.0412067,7.5495341 15.0412067,7.5495341 L12.0784579,8.24511347 L12.9405222,11.6096424 L8.72003873,16.2634911 Z" id="Shape" fill="#221F1F" opacity="0.2" style="mix-blend-mode: multiply;"></path>
                                <path d="M4.03316127,18.8690315 L4.03316127,11.5673696 C4.67158585,11.1446418 6.72830696,9.97829743 6.72830696,9.97829743 C6.18545492,13.423529 4.3313476,18.1888241 4.03316127,18.8690315 Z" id="Shape" fill="#221F1F" opacity="0.2" style="mix-blend-mode: multiply;"></path>
                            </g>
                        </g>
                    </g>
                </g>
                <path d="M152.4425,23.8038126 L152.4425,19.9034727 L157.28772,19.9034727 L157.28772,19.2743856 L152.4425,19.2743856 L152.4425,15.6256805 L157.908902,15.6256805 L157.908902,14.9965934 L151.821318,14.9965934 L151.821318,24.4328997 L158.033139,24.4328997 L158.033139,23.8038126 L152.4425,23.8038126 Z M148.104041,21.9403309 L148.065403,22.0148148 C147.898678,22.3356492 147.695924,22.6138315 147.462857,22.841561 C147.228422,23.0702971 146.970259,23.2611621 146.695573,23.4084943 C146.418898,23.5572105 146.130421,23.6688105 145.838466,23.7405265 C145.004342,23.9457347 144.19196,23.8567818 143.484683,23.5053737 C143.023765,23.2762602 142.618258,22.9643588 142.279092,22.578351 C141.939554,22.1920915 141.669216,21.7373874 141.476028,21.2266945 C141.282841,20.7168823 141.184942,20.1777547 141.184942,19.6244097 C141.184942,19.1221465 141.268057,18.6171154 141.432049,18.1232821 C141.595668,17.6304552 141.840165,17.1825452 142.158707,16.7921338 C142.47638,16.4026031 142.873067,16.0826494 143.337711,15.8408283 C143.800367,15.6002654 144.336075,15.4783483 144.929925,15.4783483 C145.205605,15.4783483 145.486131,15.5084187 145.763427,15.5678045 C146.037865,15.6269387 146.308328,15.7253279 146.567112,15.8604558 C146.824903,15.9953321 147.067412,16.1747477 147.287807,16.39367 C147.508203,16.6129698 147.704621,16.8868743 147.87147,17.2079604 L147.912965,17.287477 L148.465817,17.0261542 L148.426061,16.9404725 C148.144045,16.3340326 147.704621,15.830008 147.119716,15.4423645 C146.533817,15.0544694 145.814488,14.857691 144.981607,14.857691 C144.280789,14.857691 143.64706,14.9998647 143.098059,15.2800601 C142.55117,15.5592489 142.08255,15.9280198 141.705617,16.3763072 C141.329554,16.8238398 141.039089,17.3335261 140.842423,17.8912747 C140.645881,18.4486459 140.546243,19.0185988 140.546243,19.5851546 C140.546243,20.1878201 140.654826,20.7868368 140.868885,21.3654711 C141.082696,21.9449861 141.386081,22.4696447 141.770469,22.924978 C142.155229,23.3813178 142.618755,23.7565053 143.148126,24.0399719 C143.680355,24.3250742 144.275447,24.4696384 144.917004,24.4696384 C145.267599,24.4696384 145.633724,24.4224569 146.005439,24.3294778 C146.377652,24.2363729 146.735328,24.0947025 147.06853,23.9081153 C147.402229,23.721528 147.709093,23.4871302 147.981171,23.2117159 C148.255112,22.9342885 148.474514,22.6123217 148.633412,22.2546228 L148.673789,22.1637826 L148.104041,21.9403309 Z M136.62559,19.5520647 C136.453399,19.7678415 136.239215,19.9471313 135.989003,20.0798687 C135.741027,20.2117254 135.462117,20.280925 135.160098,20.280925 L131.819257,20.280925 L131.819257,15.6256805 L135.069529,15.6256805 C135.354901,15.6256805 135.627848,15.6757558 135.880669,15.803838 C136.136223,15.9333041 136.361712,16.0992573 136.551297,16.3117629 C136.74113,16.5251492 136.894065,16.7718772 137.00563,17.0523242 C137.116945,17.3321421 137.173349,17.624416 137.173349,17.9247422 C137.173349,18.2182742 137.125021,18.5110513 137.029732,18.7966569 C136.934442,19.0816333 136.798403,19.3351554 136.62559,19.5520647 L136.62559,19.5520647 Z M135.614803,20.7924986 C135.906013,20.7448138 136.176973,20.6553576 136.42234,20.5077738 C136.706593,20.3370395 136.95432,20.1225208 137.158689,19.8617013 C137.362188,19.6017625 137.521583,19.3038269 137.632651,18.9717947 C137.743097,18.6408949 137.799128,18.2883545 137.799128,17.9218484 C137.799128,17.5628913 137.731791,17.2041858 137.598983,16.854665 C137.466422,16.5055217 137.277956,16.1900974 137.039049,15.9166962 C136.79977,15.6429175 136.510051,15.4218563 136.177842,15.2512479 C135.842901,15.0795071 135.474292,14.9965934 135.082574,14.9965934 L131.198075,14.9965934 L131.198075,24.4328997 L131.819257,24.4328997 L131.819257,20.910012 L134.915352,20.910012 L137.189872,24.4328997 L137.927961,24.4328997 L135.614803,20.7924986 Z M122.253053,23.8038126 L122.253053,19.9034727 L127.098273,19.9034727 L127.098273,19.2743856 L122.253053,19.2743856 L122.253053,15.6256805 L127.719455,15.6256805 L127.719455,14.9965934 L121.631871,14.9965934 L121.631871,24.4328997 L127.843692,24.4328997 L127.843692,23.8038126 L122.253053,23.8038126 Z M117.130786,14.9965934 L113.138946,21.8291083 L109.147106,14.9965934 L108.587048,14.9965934 L108.587048,24.4328997 L109.20823,24.4328997 L109.20823,16.3179279 L112.930726,22.6714559 L113.347042,22.6714559 L117.035124,16.3179279 L117.035124,24.4328997 L117.656306,24.4328997 L117.656306,14.9965934 L117.130786,14.9965934 Z M104.091305,14.9965934 L100.099465,21.8291083 L96.1076254,14.9965934 L95.5422255,14.9965934 L95.5422255,24.4328997 L96.1634075,24.4328997 L96.1634075,16.3179279 L99.8912452,22.6714559 L100.307561,22.6714559 L103.990301,16.3179279 L103.990301,24.4328997 L104.611483,24.4328997 L104.611483,14.9965934 L104.091305,14.9965934 Z M91.6192124,19.6635389 C91.6192124,20.1737285 91.529638,20.6871894 91.353098,21.1894525 C91.1769308,21.6910866 90.9217492,22.143526 90.5945105,22.5343149 C90.267893,22.9244747 89.8708335,23.2448059 89.4140162,23.4866269 C88.9601806,23.727064 88.446463,23.8489811 87.8870265,23.8489811 C87.3441134,23.8489811 86.838347,23.7333549 86.3840144,23.5053737 C85.9275699,23.2765118 85.5286468,22.9649879 85.1983022,22.5792317 C84.8668394,22.1929722 84.6051975,21.7425459 84.420458,21.2404086 C84.2355942,20.7390262 84.14192,20.2084541 84.14192,19.6635389 C84.14192,19.144542 84.2336064,18.6293197 84.4141219,18.1322151 C84.5945132,17.6348589 84.8519311,17.1843067 85.1796667,16.7930145 C85.5065327,16.4026031 85.9035922,16.0821461 86.3600368,15.8405767 C86.8137482,15.6001396 87.3275899,15.4783483 87.8870265,15.4783483 C88.4125465,15.4783483 88.9094921,15.5939745 89.3640731,15.8218299 C89.8200208,16.0506917 90.2189439,16.3622157 90.5499097,16.7479719 C90.8814966,17.1351121 91.145499,17.5857901 91.3344626,18.0874241 C91.5234262,18.589184 91.6192124,19.1193786 91.6192124,19.6635389 L91.6192124,19.6635389 Z M91.9418544,17.9228549 C91.7322676,17.3522729 91.4332305,16.8341568 91.0529429,16.3827239 C90.6722825,15.9306619 90.2083838,15.5597522 89.6744157,15.2804375 C89.1379629,14.9998647 88.5365344,14.857691 87.8870265,14.857691 C87.2639809,14.857691 86.6784547,14.9908058 86.1467229,15.2533868 C85.6167304,15.5149612 85.1504711,15.8724085 84.76099,16.3159149 C84.37213,16.7585405 84.062036,17.274392 83.8392801,17.8491259 C83.6164,18.4247406 83.5033448,19.0352067 83.5033448,19.6635389 C83.5033448,20.2654494 83.609567,20.8622014 83.8194023,21.4369354 C84.0291133,22.0128017 84.3307593,22.5291564 84.7155195,22.9717821 C85.1006523,23.4151626 85.5665389,23.7791524 86.1001342,24.053686 C86.6360901,24.3297294 87.2372701,24.4696384 87.8870265,24.4696384 C88.5014998,24.4696384 89.0826777,24.3365236 89.6142853,24.0739426 C90.1434081,23.8128715 90.6095431,23.4576889 90.9997697,23.0183345 C91.3891266,22.5794834 91.6993449,22.065645 91.9218523,21.4911627 C92.1447324,20.9156738 92.2577876,20.3008041 92.2577876,19.6635389 C92.2577876,19.0787395 92.1514412,18.4930595 91.9418544,17.9228549 L91.9418544,17.9228549 Z M80.1499557,21.3171572 L80.1436197,21.3294873 C79.9194972,21.7606636 79.6467983,22.1347188 79.3328529,22.4414616 C79.0182863,22.7484561 78.6716667,23.0044946 78.3024361,23.2027828 C77.9319631,23.4017002 77.5453394,23.5514229 77.1533736,23.6475474 C76.7612835,23.7441752 76.3690691,23.7931182 75.9875391,23.7931182 C75.2812551,23.7931182 74.610627,23.6377336 73.9941659,23.3312424 C73.3770837,23.0244996 72.8341706,22.6069115 72.3802108,22.0903052 C71.9260025,21.5736989 71.5648472,20.9660008 71.3068082,20.2840704 C71.0487692,19.6030207 70.9179483,18.8830934 70.9179483,18.1440419 C70.9179483,17.4735609 71.0288914,16.7996828 71.2475474,16.1406512 C71.466452,15.4816196 71.7934422,14.8826028 72.2194489,14.3603347 C72.6454555,13.8380666 73.1770631,13.4091551 73.7993633,13.0854269 C74.421415,12.7618245 75.1404953,12.5978844 75.9366022,12.5978844 C76.3055843,12.5978844 76.6809025,12.6381459 77.0521209,12.7176625 C77.4214757,12.7971792 77.7851157,12.9295391 78.1329776,13.1110936 C78.4803426,13.292774 78.8069602,13.5344692 79.1040094,13.8292594 C79.4008102,14.1246787 79.665061,14.4930721 79.8893077,14.9239968 L79.896265,14.9373334 L80.4323451,14.6839371 L80.4256363,14.6697198 C80.0642326,13.8924198 79.5006963,13.2462215 78.7504326,12.7492427 C77.999672,12.2520123 77.0757258,12 76.0044353,12 C75.1021062,12 74.2869912,12.1824353 73.5819495,12.5423989 C72.8771564,12.9021109 72.2738644,13.3769458 71.7889697,13.9538187 C71.3039508,14.5304399 70.9296265,15.1877101 70.6758115,15.9070083 C70.422245,16.6265581 70.2936603,17.3617092 70.2936603,18.0924568 C70.2936603,18.8697568 70.4335505,19.6426532 70.7098523,20.3896312 C70.9860298,21.1378674 71.377623,21.8151425 71.8736989,22.4028357 C72.3696507,22.9911579 72.9671036,23.4745485 73.6495342,23.8399222 C74.3319647,24.2055477 75.0957702,24.3910025 75.919706,24.3910025 C76.3706842,24.3910025 76.8422856,24.3302327 77.3218381,24.2103287 C77.8007695,24.0904247 78.2611896,23.9079895 78.6900537,23.6680556 C79.1189178,23.4281218 79.5134926,23.1269149 79.8632181,22.7727389 C80.2133163,22.4180596 80.4938421,22.0065108 80.6969686,21.5494162 L80.7036774,21.5341922 L80.1499557,21.3171572 Z M67.5125041,14.9965934 L66.7576437,14.9965934 L63.4124541,19.3049592 L60.0950936,15.0275445 L60.0671404,14.9965934 L59.2864388,14.9965934 L63.0221034,19.7802975 L59.3901762,24.4328997 L60.1707536,24.4328997 L63.4124541,20.2451928 L66.6541547,24.4328997 L67.4088909,24.4328997 L63.7768395,19.7802975 L67.5125041,14.9965934 Z M56.9911712,19.6571222 C56.9911712,20.1680667 56.9015967,20.6820309 56.7248083,21.1850489 C56.5483926,21.6874379 56.2927141,22.1405064 55.9651027,22.5319244 C55.6379882,22.9224616 55.2403075,23.2434219 54.7829933,23.4856204 C54.3284122,23.7263091 53.813825,23.848352 53.2537673,23.848352 C52.7098603,23.848352 52.2034727,23.7326 51.7486432,23.5043672 C51.2914532,23.275002 50.8921574,22.9629748 50.5611916,22.5768412 C50.229232,22.1898268 49.9670931,21.7387714 49.7822294,21.2361308 C49.5972414,20.7339935 49.5034429,20.2026665 49.5034429,19.6571222 C49.5034429,19.1372446 49.5951293,18.6213932 49.7758933,18.1235337 C49.956533,17.6255484 50.2144478,17.1742413 50.5425562,16.7824458 C50.8696706,16.3915311 51.2673514,16.0706967 51.7246656,15.828624 C52.1789981,15.5879353 52.6934611,15.4658924 53.2537673,15.4658924 C53.7802812,15.4658924 54.277848,15.5816444 54.7330502,15.8098772 C55.1894948,16.0389907 55.5890391,16.3510179 55.9205018,16.7374032 C56.2525857,17.1250467 56.5169608,17.5763538 56.7060486,18.0787427 C56.8952607,18.5811316 56.9911712,19.1120811 56.9911712,19.6571222 L56.9911712,19.6571222 Z M57.3140616,17.9139219 C57.1039778,17.342585 56.8045681,16.823714 56.424032,16.3717778 C56.0428747,15.9190867 55.5783547,15.5476737 55.0436412,15.2679816 C54.506443,14.9870313 53.9042691,14.844606 53.2537673,14.844606 C52.6301005,14.844606 52.0437047,14.9779724 51.5111032,15.240805 C50.9803653,15.5028827 50.5136091,15.8609591 50.1235068,16.3048429 C49.7341499,16.7479719 49.4235589,17.2644524 49.2004303,17.8401929 C48.9773017,18.4165625 48.8641223,19.0279093 48.8641223,19.6571222 C48.8641223,20.2597876 48.9705929,20.8572945 49.1804282,21.4329092 C49.3906362,22.0092788 49.6924064,22.5263884 50.077912,22.969769 C50.4635418,23.4136528 50.9300495,23.7781459 51.4645146,24.0530569 C52.0010916,24.3294778 52.6031412,24.4696384 53.2537673,24.4696384 C53.868986,24.4696384 54.4509093,24.3362719 54.9832623,24.0734394 C55.5131306,23.8119908 55.9798868,23.4564307 56.3707345,23.0163214 C56.7607126,22.5768412 57.0713037,22.0623738 57.2940595,21.4871365 C57.5173124,20.9110186 57.6304917,20.295394 57.6304917,19.6571222 C57.6304917,19.0716938 57.5238969,18.4852588 57.3140616,17.9139219 L57.3140616,17.9139219 Z M39.0310591,24.3595482 L39.5932288,24.3595482 L39.5932288,18.4028484 L45.7123689,18.4028484 L45.7123689,17.9022209 L39.5932288,17.9022209 L39.5932288,12.720808 L46.7973254,12.720808 L46.7973254,12.2030693 L39.0310591,12.2030693 L39.0310591,24.3595482 Z M39.6242879,24.3910025 L39,24.3910025 L39,12.171615 L46.8283845,12.171615 L46.8283845,12.7522623 L39.6242879,12.7522623 L39.6242879,17.8707665 L45.743428,17.8707665 L45.743428,18.4343027 L39.6242879,18.4343027 L39.6242879,24.3910025 Z M39.0155296,24.3752753 L39.0155296,12.1873421 L46.812855,12.1873421 L46.812855,12.7365352 L39.6087584,12.7365352 L39.6087584,17.8864937 L45.7278984,17.8864937 L45.7278984,18.4185755 L39.6087584,18.4185755 L39.6087584,24.3752753 L39.0155296,24.3752753 Z" id="Fill-1-Copy" stroke="#222222" stroke-width="0.75" fill="#222222"></path>
            </g>
        </g>
    </g>
</svg>