<svg xmlns="http://www.w3.org/2000/svg" id="Layer_1" viewBox="0 0 159 38"><style>.st0{fill:#DC8027;} .st1{fill:#F4DEB6;} .st2{fill:#E6A848;} .st3{fill:#222222;} .st4{opacity:0.2;fill:#221F1F;enable-background:new ;}</style><g id="Fox_Head-Copy"><g id="Asset-1"><g id="Layer_2"><g id="Layer_1-2"><path id="Shape" d="M31.5 12.2c-.9 4.6-3.4 8.5-7 11.6.1.9.4 1.7.8 2.4-.9.2-1.9.5-2.8.8-2 .5-4.1 1.1-6.1 1.7-1.6.5-3.1.9-4.6 1.8-2.3 1.4-4.2 3.4-5.5 5.7l-.1.1h-.1l-.2.1-.1.1-.4.3-1.4.9-4-.4C0 20.2 7.6 18.9 7.5 0 10 1.1 12.1 3.5 15 7.5c0 0 3.3-.6 7.7.5 3-2.3 6.3-4.4 7.6-8 1.7 4.4 2 8.5 1.2 12.2z" class="st0"/><path id="Shape_1_" d="M4 18.9v-7.3c.7-.5 2.7-1.6 2.7-1.6-.5 3.4-2.4 8.2-2.7 8.9z" class="st0"/><path id="Shape_2_" d="M30.4 0c-2.7 7.1-12.9 8.5-12.9 17.3v.4l4.7-2.5V19l3.9-.4c-1.3 1.9-1.6 3.6-1.4 5.2 6.3-5.6 9.4-14 5.7-23.8z" class="st1"/><path id="Shape_3_" d="M26 18.6l-3.9.4v-3.8l-4.7 2.5v1.7c-3.5 1-6.5 2.4-9 4.2-2.8 3.1-5.1 8.3-6.4 11.6l2 2.5 2.5-1.5c2.1-3.7 5.7-6.8 10.4-7.6l8.6-2.4c-1.3-2.4-1.4-4.6.5-7.6z" class="st2"/><path id="Shape_4_" d="M.1 35.4L0 37.3l4 .4-1.9-2.5z" class="st3"/><path id="Shape_5_" d="M13.2 21c-.7.2-1.2.5-1.8.8 0 0 0 .1-.1.1-.2.8.2 1.6.9 1.8.8.2 1.6-.2 1.8-.9.3-.7-.1-1.6-.8-1.8z" class="st3"/><path id="Shape_6_" d="M8.7 16.3l1.9-4.9L7.5 0C11.3 1.6 15 7.5 15 7.5l-3 .7.9 3.4-4.2 4.7z" class="st4"/><path id="Shape_7_" d="M4 18.9v-7.3c.7-.5 2.7-1.6 2.7-1.6-.5 3.4-2.4 8.2-2.7 8.9z" class="st4"/></g></g></g></g><path d="M80 20.9l-.2.3c-.2.4-.5.7-.7 1-.3.3-.6.5-.9.7-.3.2-.7.3-1.1.4-1 .3-2 .1-2.9-.3-.6-.3-1.1-.7-1.5-1.2-.4-.5-.8-1.1-1-1.7-.2-.6-.4-1.3-.4-2 0-.6.1-1.3.3-1.9.2-.6.5-1.2.9-1.7s.9-.9 1.5-1.2c.8-.4 1.9-.6 3-.3.3.1.7.2 1 .4.3.2.6.4.9.7.3.3.5.6.7 1l.2.3 1.2-.6-.2-.3c-.4-.8-1-1.5-1.8-2.1-.8-.5-1.8-.8-3-.8-1 0-1.8.2-2.6.6-.8.4-1.4.9-1.9 1.5s-.9 1.3-1.2 2.1c-.3.8-.4 1.5-.4 2.3 0 .8.1 1.6.4 2.4.3.8.7 1.5 1.2 2.1.5.6 1.2 1.1 1.9 1.5.7.4 1.6.6 2.4.6.5 0 1-.1 1.5-.2s1-.3 1.5-.6.9-.6 1.3-1 .7-.8.9-1.4l.2-.4-1.2-.2zm-22.3-3.1c-.2-.6-.5-1.2-1-1.7-.4-.5-.9-.9-1.5-1.2-1.2-.6-2.7-.6-3.9 0-.6.3-1.1.7-1.5 1.2-.4.5-.8 1-1 1.6-.2.6-.4 1.3-.4 2 0 .6.1 1.3.3 1.9.2.6.6 1.2 1 1.7s.9.9 1.5 1.2c.6.3 1.3.5 2 .5s1.3-.1 1.9-.4c.6-.3 1.1-.7 1.5-1.1.4-.5.8-1 1-1.6.2-.6.4-1.3.4-2 0-.9-.1-1.5-.3-2.1zm-5.8 5.4c-.4-.2-.8-.5-1.1-.8-.3-.4-.5-.8-.7-1.2-.2-.5-.3-.9-.3-1.4 0-.5.1-.9.2-1.4.2-.5.4-.9.7-1.2.3-.4.7-.6 1.1-.9.4-.2.9-.3 1.4-.3.5 0 .9.1 1.3.3.4.2.8.5 1.1.8.3.4.5.8.7 1.2.2.5.3.9.3 1.4 0 .5-.1.9-.2 1.4-.2.5-.4.9-.7 1.2-.3.4-.7.6-1.1.9-.8.4-1.9.4-2.7 0zm16.4-8.6h-1.7l-3.2 4.1-3.1-4-.1-.1h-1.7l4 5.2-3.9 5h1.8l3-3.9 3.1 3.9h1.7l-3.9-5zm-21.1-1.5v-1.3h-8.6v13H40v-6h6.1v-1.3H40v-4.4zm45.1 4.7c-.2-.6-.5-1.2-1-1.7-.4-.5-.9-.9-1.5-1.2-1.2-.6-2.7-.6-3.9 0-.6.3-1.1.7-1.5 1.2-.4.5-.7 1-1 1.6-.2.6-.4 1.3-.4 1.9 0 .6.1 1.3.3 1.9.2.6.6 1.2 1 1.7s.9.9 1.5 1.2c.6.3 1.2.5 2 .5.7 0 1.3-.1 1.9-.4.6-.3 1.1-.7 1.5-1.1.4-.5.8-1 1-1.6.2-.6.4-1.3.4-2 0-.8-.1-1.4-.3-2zm-5.7 5.4c-.4-.2-.8-.5-1.1-.8-.3-.4-.5-.8-.7-1.2-.2-.5-.3-.9-.3-1.4 0-.5.1-.9.2-1.4.2-.5.4-.9.7-1.2.3-.4.7-.6 1.1-.9.4-.2.9-.3 1.4-.3.5 0 .9.1 1.3.3.4.2.8.5 1.1.8.3.4.5.8.7 1.2.2.5.3.9.3 1.4 0 .5-.1.9-.2 1.4-.2.5-.4.9-.7 1.2s-.7.6-1.1.9c-.8.4-1.9.4-2.7 0zm61.3-1.7l-.2.3v.1c-.1.3-.3.5-.5.7-.2.2-.4.4-.7.5-.2.1-.5.2-.8.3-.7.2-1.5.1-2.1-.2-.4-.2-.8-.5-1.1-.8-.3-.4-.6-.8-.7-1.2-.2-.5-.3-1-.3-1.5s.1-.9.2-1.4c.2-.5.4-.9.7-1.2.3-.4.6-.6 1.1-.9.6-.3 1.4-.4 2.2-.2.2.1.5.1.7.3.2.1.4.3.6.5.2.2.4.4.6.8l.2.3 1.2-.6-.2-.4c-.3-.7-.8-1.2-1.4-1.7-.6-.4-1.4-.6-2.3-.6-.8 0-1.5.2-2.1.5-.6.3-1.1.7-1.5 1.2-.4.5-.7 1-.9 1.6-.2.6-.3 1.2-.3 1.8 0 .6.1 1.3.3 1.9.2.6.6 1.2 1 1.7s.9.9 1.5 1.2c.6.3 1.2.5 1.9.5.4 0 .8-.1 1.2-.2.4-.1.8-.3 1.2-.5.4-.2.7-.5 1-.8.3-.3.6-.7.7-1.1l.2-.4-1.4-.5zm.2.5zm4.7 1.4v-3.1h4.9v-1.4h-4.9V16h5.5v-1.4h-6.9v10.2h7v-1.4zM136.2 21c.1-.1.3-.1.4-.2.3-.2.6-.4.8-.7.2-.3.4-.6.5-1 .1-.4.2-.8.2-1.2 0-.4-.1-.8-.2-1.2-.1-.4-.4-.7-.6-1.1-.3-.3-.6-.6-1-.8-.4-.2-.8-.3-1.3-.3h-4.3v10.2h1.4v-3.5h2.5l2.3 3.5h1.6l-2.3-3.7zm-4-5h2.9c.2 0 .5 0 .6.1.2.1.4.3.6.4.2.2.3.4.4.6.1.2.1.5.1.7 0 .3 0 .5-.1.8-.1.2-.2.5-.3.6-.1.2-.3.3-.5.4-.2.1-.4.2-.7.2h-3V16zm-9.6 7.4v-3.1h4.9v-1.4h-4.9V16h5.5v-1.4h-6.8v10.2h6.9v-1.4zm-5.7-8.8l-3.8 6.5-3.7-6.5h-1.2v10.2h1.4v-7.1l3.1 5.3h.9l3.1-5.3v7.1h1.3V14.6zm-13 0l-3.8 6.5-3.8-6.5h-1.1v10.2h1.3v-7.1l3.2 5.3h.8l3.1-5.3v7.1h1.4V14.6z" class="st3"/></svg>