<?xml version="1.0" encoding="utf-8"?>
<!-- Generator: Adobe Illustrator 20.1.0, SVG Export Plug-In . SVG Version: 6.00 Build 0)  -->
<svg version="1.1" id="Layer_1" xmlns="http://www.w3.org/2000/svg" xmlns:xlink="http://www.w3.org/1999/xlink" x="0px" y="0px"
	 viewBox="0 0 159 38" style="enable-background:new 0 0 159 38;" xml:space="preserve">
<style type="text/css">
	.st0{fill:#DC8027;}
	.st1{fill:#F4DEB6;}
	.st2{fill:#E6A848;}
	.st3{fill:#222222;}
	.st4{opacity:0.2;fill:#221F1F;enable-background:new    ;}
</style>
<title>Fox_Head_Words</title>
<desc>Created with Sketch.</desc>
<g id="Fox_Head-Copy">
	<g id="Asset-1">
		<g id="Layer_2">
			<g id="Layer_1-2">
				<path id="Shape" class="st0" d="M31.5,12.2c-0.9,4.6-3.4,8.5-7,11.6c0.1,0.9,0.4,1.7,0.8,2.4c-0.9,0.2-1.9,0.5-2.8,0.8
					c-2,0.5-4.1,1.1-6.1,1.7c-1.6,0.5-3.1,0.9-4.6,1.8c-2.3,1.4-4.2,3.4-5.5,5.7l-0.1,0.1l-0.1,0l-0.2,0.1l-0.1,0.1l-0.4,0.3L4,37.7
					h0l-4-0.4C0,20.2,7.6,18.9,7.5,0C10,1.1,12.1,3.5,15,7.5c0,0,3.3-0.6,7.7,0.5C25.7,5.7,29,3.6,30.3,0C32,4.4,32.3,8.5,31.5,12.2
					z"/>
				<path id="Shape_1_" class="st0" d="M4,18.9v-7.3C4.7,11.1,6.7,10,6.7,10C6.2,13.4,4.3,18.2,4,18.9z"/>
				<path id="Shape_2_" class="st1" d="M30.4,0c-2.7,7.1-12.9,8.5-12.9,17.3v0.4l0,0l4.7-2.5l0,3.8l3.9-0.4
					c-1.3,1.9-1.6,3.6-1.4,5.2C31,18.2,34.1,9.8,30.4,0z"/>
				<path id="Shape_3_" class="st2" d="M26,18.6L22.1,19l0-3.8l-4.7,2.5v1.7l0,0c-3.5,1-6.5,2.4-9,4.2l0,0
					c-2.8,3.1-5.1,8.3-6.4,11.6L4,37.7l2.5-1.5c2.1-3.7,5.7-6.8,10.4-7.6l8.6-2.4C24.2,23.8,24.1,21.6,26,18.6z"/>
				<polygon id="Shape_4_" class="st3" points="0.1,35.4 0,37.3 4,37.7 4,37.7 2.1,35.2 				"/>
				<path id="Shape_5_" class="st3" d="M13.2,21L13.2,21c-0.7,0.2-1.2,0.5-1.8,0.8c0,0,0,0.1-0.1,0.1c-0.2,0.8,0.2,1.6,0.9,1.8
					c0.8,0.2,1.6-0.2,1.8-0.9C14.3,22.1,13.9,21.2,13.2,21L13.2,21z"/>
				<path id="Shape_6_" class="st4" d="M8.7,16.3l1.9-4.9L7.5,0C11.3,1.6,15,7.5,15,7.5l-3,0.7l0.9,3.4L8.7,16.3z"/>
				<path id="Shape_7_" class="st4" d="M4,18.9v-7.3C4.7,11.1,6.7,10,6.7,10C6.2,13.4,4.3,18.2,4,18.9z"/>
			</g>
		</g>
	</g>
</g>
<path class="st3" d="M80,20.9l-0.2,0.3c-0.2,0.4-0.5,0.7-0.7,1c-0.3,0.3-0.6,0.5-0.9,0.7c-0.3,0.2-0.7,0.3-1.1,0.4
	c-1,0.3-2,0.1-2.9-0.3c-0.6-0.3-1.1-0.7-1.5-1.2c-0.4-0.5-0.8-1.1-1-1.7c-0.2-0.6-0.4-1.3-0.4-2c0-0.6,0.1-1.3,0.3-1.9
	c0.2-0.6,0.5-1.2,0.9-1.7c0.4-0.5,0.9-0.9,1.5-1.2c0.8-0.4,1.9-0.6,3-0.3c0.3,0.1,0.7,0.2,1,0.4c0.3,0.2,0.6,0.4,0.9,0.7
	c0.3,0.3,0.5,0.6,0.7,1l0.2,0.3l1.2-0.6l-0.2-0.3c-0.4-0.8-1-1.5-1.8-2.1c-0.8-0.5-1.8-0.8-3-0.8c-1,0-1.8,0.2-2.6,0.6
	c-0.8,0.4-1.4,0.9-1.9,1.5c-0.5,0.6-0.9,1.3-1.2,2.1c-0.3,0.8-0.4,1.5-0.4,2.3c0,0.8,0.1,1.6,0.4,2.4c0.3,0.8,0.7,1.5,1.2,2.1
	c0.5,0.6,1.2,1.1,1.9,1.5c0.7,0.4,1.6,0.6,2.4,0.6c0.5,0,1-0.1,1.5-0.2c0.5-0.1,1-0.3,1.5-0.6c0.5-0.3,0.9-0.6,1.3-1
	c0.4-0.4,0.7-0.8,0.9-1.4l0.2-0.4L80,20.9z"/>
<path class="st3" d="M57.7,17.8c-0.2-0.6-0.5-1.2-1-1.7c-0.4-0.5-0.9-0.9-1.5-1.2c-1.2-0.6-2.7-0.6-3.9,0c-0.6,0.3-1.1,0.7-1.5,1.2
	c-0.4,0.5-0.8,1-1,1.6c-0.2,0.6-0.4,1.3-0.4,2c0,0.6,0.1,1.3,0.3,1.9c0.2,0.6,0.6,1.2,1,1.7c0.4,0.5,0.9,0.9,1.5,1.2
	c0.6,0.3,1.3,0.5,2,0.5c0.7,0,1.3-0.1,1.9-0.4c0.6-0.3,1.1-0.7,1.5-1.1c0.4-0.5,0.8-1,1-1.6c0.2-0.6,0.4-1.3,0.4-2
	C58,19,57.9,18.4,57.7,17.8z M51.9,23.2c-0.4-0.2-0.8-0.5-1.1-0.8c-0.3-0.4-0.5-0.8-0.7-1.2c-0.2-0.5-0.3-0.9-0.3-1.4
	c0-0.5,0.1-0.9,0.2-1.4c0.2-0.5,0.4-0.9,0.7-1.2c0.3-0.4,0.7-0.6,1.1-0.9c0.4-0.2,0.9-0.3,1.4-0.3c0.5,0,0.9,0.1,1.3,0.3
	c0.4,0.2,0.8,0.5,1.1,0.8c0.3,0.4,0.5,0.8,0.7,1.2c0.2,0.5,0.3,0.9,0.3,1.4c0,0.5-0.1,0.9-0.2,1.4c-0.2,0.5-0.4,0.9-0.7,1.2
	c-0.3,0.4-0.7,0.6-1.1,0.9C53.8,23.6,52.7,23.6,51.9,23.2z"/>
<polygon class="st3" points="68.3,14.6 66.6,14.6 63.4,18.7 60.3,14.7 60.2,14.6 58.5,14.6 62.5,19.8 58.6,24.8 60.4,24.8 
	63.4,20.9 66.5,24.8 68.2,24.8 64.3,19.8 "/>
<polygon class="st3" points="47.2,13.1 47.2,11.8 38.6,11.8 38.6,24.8 40,24.8 40,18.8 46.1,18.8 46.1,17.5 40,17.5 40,13.1 "/>
<path class="st3" d="M92.3,17.8c-0.2-0.6-0.5-1.2-1-1.7c-0.4-0.5-0.9-0.9-1.5-1.2c-1.2-0.6-2.7-0.6-3.9,0c-0.6,0.3-1.1,0.7-1.5,1.2
	c-0.4,0.5-0.7,1-1,1.6c-0.2,0.6-0.4,1.3-0.4,1.9c0,0.6,0.1,1.3,0.3,1.9c0.2,0.6,0.6,1.2,1,1.7c0.4,0.5,0.9,0.9,1.5,1.2
	c0.6,0.3,1.2,0.5,2,0.5c0.7,0,1.3-0.1,1.9-0.4c0.6-0.3,1.1-0.7,1.5-1.1c0.4-0.5,0.8-1,1-1.6c0.2-0.6,0.4-1.3,0.4-2
	C92.6,19,92.5,18.4,92.3,17.8z M86.6,23.2c-0.4-0.2-0.8-0.5-1.1-0.8c-0.3-0.4-0.5-0.8-0.7-1.2c-0.2-0.5-0.3-0.9-0.3-1.4
	c0-0.5,0.1-0.9,0.2-1.4c0.2-0.5,0.4-0.9,0.7-1.2c0.3-0.4,0.7-0.6,1.1-0.9c0.4-0.2,0.9-0.3,1.4-0.3c0.5,0,0.9,0.1,1.3,0.3
	c0.4,0.2,0.8,0.5,1.1,0.8c0.3,0.4,0.5,0.8,0.7,1.2c0.2,0.5,0.3,0.9,0.3,1.4c0,0.5-0.1,0.9-0.2,1.4c-0.2,0.5-0.4,0.9-0.7,1.2
	s-0.7,0.6-1.1,0.9C88.5,23.6,87.4,23.6,86.6,23.2z"/>
<path class="st3" d="M147.9,21.5l-0.2,0.3l0,0.1c-0.1,0.3-0.3,0.5-0.5,0.7c-0.2,0.2-0.4,0.4-0.7,0.5c-0.2,0.1-0.5,0.2-0.8,0.3
	c-0.7,0.2-1.5,0.1-2.1-0.2c-0.4-0.2-0.8-0.5-1.1-0.8c-0.3-0.4-0.6-0.8-0.7-1.2c-0.2-0.5-0.3-1-0.3-1.5c0-0.5,0.1-0.9,0.2-1.4
	c0.2-0.5,0.4-0.9,0.7-1.2c0.3-0.4,0.6-0.6,1.1-0.9c0.6-0.3,1.4-0.4,2.2-0.2c0.2,0.1,0.5,0.1,0.7,0.3c0.2,0.1,0.4,0.3,0.6,0.5
	c0.2,0.2,0.4,0.4,0.6,0.8l0.2,0.3l1.2-0.6l-0.2-0.4c-0.3-0.7-0.8-1.2-1.4-1.7c-0.6-0.4-1.4-0.6-2.3-0.6c-0.8,0-1.5,0.2-2.1,0.5
	c-0.6,0.3-1.1,0.7-1.5,1.2c-0.4,0.5-0.7,1-0.9,1.6c-0.2,0.6-0.3,1.2-0.3,1.8c0,0.6,0.1,1.3,0.3,1.9c0.2,0.6,0.6,1.2,1,1.7
	c0.4,0.5,0.9,0.9,1.5,1.2c0.6,0.3,1.2,0.5,1.9,0.5c0.4,0,0.8-0.1,1.2-0.2c0.4-0.1,0.8-0.3,1.2-0.5c0.4-0.2,0.7-0.5,1-0.8
	c0.3-0.3,0.6-0.7,0.7-1.1l0.2-0.4L147.9,21.5z M148.1,22L148.1,22L148.1,22L148.1,22z"/>
<polygon class="st3" points="152.8,23.4 152.8,20.3 157.7,20.3 157.7,18.9 152.8,18.9 152.8,16 158.3,16 158.3,14.6 151.4,14.6 
	151.4,24.8 158.4,24.8 158.4,23.4 "/>
<path class="st3" d="M136.2,21c0.1-0.1,0.3-0.1,0.4-0.2c0.3-0.2,0.6-0.4,0.8-0.7c0.2-0.3,0.4-0.6,0.5-1c0.1-0.4,0.2-0.8,0.2-1.2
	c0-0.4-0.1-0.8-0.2-1.2c-0.1-0.4-0.4-0.7-0.6-1.1c-0.3-0.3-0.6-0.6-1-0.8c-0.4-0.2-0.8-0.3-1.3-0.3h-4.3v10.2h1.4v-3.5h2.5l2.3,3.5
	h1.6L136.2,21z M132.2,16h2.9c0.2,0,0.5,0,0.6,0.1c0.2,0.1,0.4,0.3,0.6,0.4c0.2,0.2,0.3,0.4,0.4,0.6c0.1,0.2,0.1,0.5,0.1,0.7
	c0,0.3,0,0.5-0.1,0.8c-0.1,0.2-0.2,0.5-0.3,0.6c-0.1,0.2-0.3,0.3-0.5,0.4c-0.2,0.1-0.4,0.2-0.7,0.2h-3V16z"/>
<polygon class="st3" points="122.6,23.4 122.6,20.3 127.5,20.3 127.5,18.9 122.6,18.9 122.6,16 128.1,16 128.1,14.6 121.3,14.6 
	121.3,24.8 128.2,24.8 128.2,23.4 "/>
<polygon class="st3" points="116.9,14.6 113.1,21.1 109.4,14.6 108.2,14.6 108.2,24.8 109.6,24.8 109.6,17.7 112.7,23 113.6,23 
	116.7,17.7 116.7,24.8 118,24.8 118,14.6 "/>
<polygon class="st3" points="103.9,14.6 100.1,21.1 96.3,14.6 95.2,14.6 95.2,24.8 96.5,24.8 96.5,17.7 99.7,23 100.5,23 
	103.6,17.7 103.6,24.8 105,24.8 105,14.6 "/>
</svg>
