<svg xmlns="http://www.w3.org/2000/svg" viewBox="0 0 137 76"><g fill="none" fill-rule="evenodd"><path fill="#DC8027" d="M92.6 30.2c.17-3.4-.44-6.84-1.84-10-1.57-3.5-4.06-6.58-7.12-8.97l-8.3-3.75C71.2 6.4 68 6.98 68 6.98c-2.75-3.7-4.8-5.92-7.12-6.93.1 17.34-7.12 18.5-7.14 34.23l3.78.4s2.2-1.27 2.34-1.37c3.27-6 9.86-7.2 10.98-7 1.08.2 2.03.5 2.63 1.1 2.6 2-.18 10.8-12.04 15.1-8.1 2.9-16.2 1.1-21.2-3-2.4-2-4.5-4.1-5.95-6.6-1.8-3-2.26-5.3-2.26-5.3s-6.24 8.4 2.75 17.3c3.3 2.9 8.1 4 12.4 3.5 2.8-.2 7.74-1.6 11.46-3.2-.5 1.1-.82 2.2-1 2.8-.54 1.56-.88 3-2.08 4.55l-1.6 5.98h3.03l5.85-8.5c2.85.7 5.5 1.1 8.14 1v7.5h1.8c.16-.62.74-3.3 3.48-5.92l.6-2.5c2.98-.72 5.8-2.24 8.18-4.3 3.33 4 2.98 8.8 2.98 8.8s1 1.58 1.3 1.88c.3.6.5 1.2.7 1.86h2.7s-.1-4.36 0-7.1V30.3z"/><path fill="#221F1F" d="M90.4 38.64c-1.27 2.6-3.14 4.94-5.4 6.85.73.8 1.2 1.5 1.5 2.3 3.2-3.8 5.3-8.4 6.1-13v-5.3c-.06 3.1-.8 6.2-2.2 9.1z" opacity=".2"/><path fill="#754D29" d="M88 54.28l1.2 1.9-.05 2.1h3.47v-7.4s-2.6 0-6.12-3.04c1.68 3.3 1.5 6.44 1.5 6.44z"/><path fill="#DC8027" d="M57.5 17.37v-6.7c.6-.4 2.55-1.47 2.55-1.47-.5 3.17-2.27 7.55-2.55 8.17z"/><path fill="#221F1F" d="M57.5 17.37v-6.7c.6-.4 2.55-1.47 2.55-1.47-.5 3.17-2.27 7.55-2.55 8.17z" opacity=".2"/><path fill="#F4DEB6" d="M82.45.03C79.93 6.6 70.18 7.85 70.18 15.9v.34l.03.02L74.7 14l-.04 3.48 3.72-.33c-1.2 1.77-1.56 3.3-1.32 4.75C83.08 16.75 85.96 9 82.44.03zm7.15 40c0-4.7-2.57-7.2-2.57-7.2l-2.27.92c-7.03-9.6-14.34-7.5-14.6-7.48 1.83-.04.82-.04 0 0 1.83-.04 3.74.45 5.17 1.6 2.1 1.66 2.68 4.37 2.58 6.9h1.7s1.5 1.68 1.9 5.37l1.8-.05c-.7 2.1-2.2 3.9-4.3 5-.8 1.4-1.5 3.1-2 4.7 8.7-2.3 12.8-9.8 12.8-9.8z"/><path fill="#221F1F" d="M67.98 26.75l.07-.02c-.05 0-.07.02-.07.02zm4.32 7.95s5.5-4.6 5.5-10.56c-.4-.2-7.78 2-9.48 2.5 1.2-.35 2.14-.43 2.5-.34 1.12.12 3.83.65 3.54 3.7.07 2.25-2.07 4.7-2.07 4.7z" opacity=".2"/><path fill="#E6A848" d="M78.32 17.15l-3.7.33.03-3.48-4.44 2.26v1.6c-3.3.95-6.1 2.2-8.4 3.86-2.6 2.87-4.8 7.66-6 10.64l1.9 2.35 2.3-1.4c2-3.4 5.4-6.2 9.8-6.9l8.1-2.2c-1.1-2.2-1.3-4.3.6-7z"/><path fill="#754D29" d="M73.87 58.27c.17-.9-.1-3.63 2.35-5.94.17-.8.36-1.56.6-2.52-1.33.4-4.02.9-5.88 1v7.5h2.93zm-19.94 0h3.02l5.85-8.46c-3.18 1.9-5.2 1.9-6.68 1.8l-.6.8-1.6 6z"/><path fill="#DC8027" d="M69.34 58.27V50.8l-4.2-.5c.26 1.87.18 2.2.5 4.16 1.23 2.1 1.5 3.67 1.46 3.8h2.24z"/><path fill="#754D29" d="M60.4 7.07c.4-3.66.43-4.78.46-7.02 2.62 1.2 4.3 3.32 6.24 5.77 0 0-3.28-.17-6.7 1.25zM53.75 32.6l-.03 1.7 3.78.4-1.84-2.34-1.9.24zm12.4-13.28c-.02 0-.04 0-.06-.02-.6.24-1.1.5-1.7.76l-.1.13c-.3.7.1 1.4.9 1.6.7.2 1.5-.2 1.7-.9.2-.7-.2-1.5-.9-1.7zm.95 38.95h2.24v-5.94s-2.47.53-3.7 2.13c0 0 1.23 2.18 1.46 3.8z"/><path fill="#F4DEB6" d="M62.8 49.8c2.5.6 5.57 1.07 8.14 1 0 0-.16-1.94-.54-3.9-1.88.22-3.56.3-5.48 0l-2.12 2.9zm-28.28-5.22c.4-.06 2.66-.42 4.22-1.1-1.5-2.9-.72-5.95-.72-5.95C33.37 32.87 32 27.47 32 27.47c-3.67 4.7-2.7 12.33 2.52 17.1z"/><path fill="#6F451B" d="M69.34 50.8l1.6.03s-.18-3.96-1.56-7.3" opacity=".2"/><path fill="#221F1F" d="M61.98 14.78l1.78-4.44-2.9-10.3c3.56 1.46 7.1 6.93 7.1 6.93l-2.8.54.8 3.1-3.98 4.2z" opacity=".2"/><path fill="#6F451B" d="M64.92 46.9l.22 3.4-2.34-.5 2.12-2.9z" opacity=".2"/><path fill="#DC8027" d="M8.8 61.15H2.98V65H8.6v2.68H2.97v7.88H.07V58.48H8.8v2.67z"/><path fill="#754D29" d="M44.85 73.93c-3.92 0-7.1-3.1-7.1-6.92 0-3.8 3.18-6.9 7.1-6.9 1.8 0 3.45.7 4.7 1.8v-2.5c-1.46-.8-2.98-1.2-4.56-1.2-2.9 0-5.3 1.1-7.1 3.2-1.5 1.7-2.2 3.7-2.2 5.9 0 2.43.8 4.5 2.6 6.2 1.8 1.73 3.9 2.58 6.4 2.58 1.6 0 3.2-.4 4.7-1.24v-2.4c-1.3 1.1-2.9 1.8-4.7 1.8zm6.8-4.4c0-1.7.64-3.16 1.92-4.38 1.28-1.23 2.8-1.84 4.6-1.84 1.76 0 3.28.7 4.54 1.9 1.3 1.3 2 2.7 2 4.5s-.6 3.3-1.9 4.5C61.6 75.4 60 76 58.2 76c-1.6 0-3-.54-4.3-1.6-1.4-1.2-2.1-2.78-2.1-4.7zm1.9.02c0 1.34.45 2.44 1.37 3.3.92.86 1.97 1.3 3.17 1.3 1.3 0 2.4-.45 3.3-1.33.8-.88 1.3-1.96 1.3-3.24 0-1.3-.5-2.37-1.4-3.24-.9-.87-2-1.3-3.3-1.3s-2.4.43-3.3 1.3c-.9.87-1.4 1.94-1.4 3.2zm50.2-4.3h-5.8v2.9h5.67v1.73h-5.66v4.04h5.8v1.7H96.1V63.55h7.66v1.72zm7.2 5.23l3.85 5.15h-2.3l-3.53-4.95h-.34v4.95h-1.87v-12.1h2.2c1.63 0 2.8.3 3.54.9.8.68 1.2 1.56 1.2 2.66 0 .8-.25 1.5-.75 2.2-.5.6-1.17 1-2 1.1zm-2.32-1.4h.6c1.77 0 2.65-.65 2.65-1.97 0-1.2-.86-1.8-2.58-1.8h-.67v3.9zm17.6-4.88v2.14c-1.1-.88-2.2-1.32-3.36-1.32-1.28 0-2.35.45-3.22 1.34-.88.9-1.32 1.97-1.32 3.26 0 1.27.44 2.34 1.32 3.2.88.88 1.95 1.32 3.23 1.32.66 0 1.22-.1 1.68-.32.25-.1.52-.24.8-.42.27-.18.56-.4.87-.64v2.2c-1.07.6-2.2.9-3.38.9-1.77 0-3.28-.6-4.54-1.82-1.2-1.2-1.8-2.68-1.8-4.4 0-1.54.5-2.9 1.6-4.12 1.3-1.48 3-2.2 5-2.2 1.1 0 2.2.28 3.3.87zm-39.18 7.83l-5.46-9.4v13.02h1.8V69.8l3.6 5.83 3.7-6.03v6.05h1.9V62.63l-5.6 9.4zm-14.47 0l-5.46-9.4v13.02h1.9V69.8l3.52 5.83 3.7-6.03v6.05h1.9V62.63l-5.56 9.4zm64.36-6.77h-5.8v2.9h5.66v1.72h-5.66v4.04h5.8v1.7h-7.67V63.55h7.67v1.72z"/><path fill="#DC8027" d="M30.73 69.06l3.2-5.48h-3.16l-1.64 2.77-1.67-2.77h-3.3l3.32 5.55-3.77 6.46h3.2l2.3-3.7 2.3 3.7h3.2L30.8 69zm-9.47-3.84c-1.24-1.2-2.76-1.83-4.5-1.83-1.75 0-3.28.6-4.53 1.8-1.26 1.2-1.9 2.6-1.9 4.3 0 1.9.7 3.4 2.1 4.6 1.24 1 2.67 1.6 4.25 1.6 1.77 0 3.3-.6 4.57-1.8 1.25-1.2 1.9-2.7 1.9-4.4 0-1.7-.65-3.2-1.9-4.4zm-.8 4.37c0 1-.35 1.9-1.1 2.6-.72.7-1.6 1-2.66 1-.98 0-1.82-.4-2.57-1.1-.76-.7-1.12-1.6-1.12-2.7s.4-1.9 1.1-2.6c.8-.8 1.6-1.1 2.7-1.1s2 .3 2.7 1.1c.7.7 1.1 1.5 1.1 2.6z"/></g></svg>
