<svg xmlns="http://www.w3.org/2000/svg" width="137" height="76"><g fill="none" fill-rule="evenodd"><path fill="#DC8027" d="M92.59 30.186c.18-3.396-.426-6.83-1.827-9.975-1.57-3.52-4.06-6.58-7.124-8.98l-8.3-3.75c-4.16-1.08-7.38-.51-7.38-.51-2.75-3.69-4.78-5.91-7.11-6.92.1 17.34-7.12 18.51-7.15 34.23l3.78.41s2.2-1.28 2.34-1.38c3.27-6.01 9.87-7.28 10.98-7 1.082.12 2.023.43 2.624 1.06 2.61 1.94-.178 10.82-12.036 15.08-8.12 2.87-16.21 1.1-21.204-3.01-2.39-1.97-4.49-4.09-5.952-6.58-1.787-2.98-2.26-5.37-2.26-5.37s-6.23 8.44 2.764 17.36c3.295 2.88 8.085 3.938 12.41 3.457 2.8-.22 7.73-1.61 11.454-3.202-.525 1.09-.838 2.136-1.015 2.73-.54 1.53-.883 2.99-2.074 4.52l-1.59 5.94h3.014l5.845-8.46c2.854.68 5.504 1.057 8.15.994 0 1.854-.017 7.46-.018 7.47h1.81c.162-.64.74-3.287 3.486-5.94l.594-2.52c2.98-.76 5.8-2.286 8.19-4.317l-.01.01c3.335 4 2.986 8.773 2.986 8.773s.966 1.557 1.276 1.86c.31.605.466 1.21.634 1.843l2.725-.028s-.17-4.33 0-7.07c0-8.12-.02-16.945-.03-20.702z"/><path fill="#221F1F" d="M90.4 38.64c-1.273 2.586-3.144 4.942-5.392 6.853l-.006.016c.733.8 1.196 1.57 1.503 2.32 3.197-3.76 5.298-8.34 6.11-12.98v-5.29c-.076 3.12-.816 6.23-2.215 9.07z" opacity=".2"/><path fill="#754D29" d="M87.988 54.284l1.227 1.882-.062 2.1h3.47V50.89s-2.59-.003-6.118-3.053c1.677 3.304 1.483 6.447 1.483 6.447z"/><path fill="#DC8027" d="M57.497 17.373V10.66c.607-.385 2.556-1.462 2.556-1.462-.516 3.17-2.272 7.548-2.556 8.175z"/><path fill="#221F1F" d="M57.497 17.373V10.66c.607-.385 2.556-1.462 2.556-1.462-.516 3.17-2.272 7.548-2.556 8.175z" opacity=".2"/><path fill="#F4DEB6" d="M82.455.026c-2.52 6.565-12.27 7.823-12.27 15.878l-.002.332.03.024 4.435-2.256-.038 3.476 3.71-.332c-1.21 1.777-1.558 3.295-1.323 4.756 6.086-5.15 8.973-12.907 5.458-21.878zm7.157 40.01c0-4.715-2.585-7.22-2.585-7.22l-2.27.932c-7.025-9.605-14.338-7.507-14.6-7.482 1.832-.035.82-.032 0 0 1.832-.035 3.74.457 5.176 1.596 2.102 1.664 2.68 4.38 2.58 6.903h1.677s1.448 1.68 1.826 5.37c.58-.016 1.16-.03 1.74-.047-.722 2.135-2.272 3.95-4.286 5.01-.793 1.408-1.54 3.117-2.053 4.71 8.655-2.248 12.795-9.772 12.795-9.772z"/><path fill="#221F1F" d="M67.975 26.748c.024-.006.047-.014.07-.022l-.07.022zm4.31 7.962s5.5-4.616 5.5-10.567c-.37-.19-7.765 1.982-9.463 2.485 1.206-.34 2.14-.416 2.5-.328 1.123.125 3.826.647 3.54 3.692.068 2.263-2.076 4.72-2.076 4.72z" opacity=".2"/><path fill="#E6A848" d="M78.32 17.148l-3.71.332.038-3.476-4.44 2.257v1.61c-3.313.94-6.18 2.2-8.487 3.85-2.6 2.88-4.83 7.66-6.05 10.64l1.83 2.36 2.34-1.4c1.98-3.43 5.41-6.21 9.83-6.98l8.13-2.18c-1.16-2.2-1.3-4.3.54-6.99z"/><path fill="#754D29" d="M73.872 58.267c.168-.906-.095-3.63 2.352-5.94.17-.81.357-1.562.593-2.518-1.33.34-4.012.88-5.873.99 0 0-.01 7.38-.016 7.46h2.944zm-19.94 0h3.016l5.848-8.458c-3.173 1.81-5.2 1.83-6.672 1.74l-.6.77-1.592 5.94z"/><path fill="#DC8027" d="M69.345 58.267c-.007-.057 0-7.455 0-7.455l-4.206-.51c.25 1.863.18 2.187.49 4.155 1.24 2.1 1.49 3.673 1.46 3.81h2.24z"/><path fill="#754D29" d="M60.414 7.07c.387-3.66.412-4.776.445-7.02 2.61 1.192 4.29 3.316 6.24 5.767 0 0-3.28-.17-6.69 1.252zM53.75 32.597l-.033 1.706 3.78.408-1.832-2.35-1.916.24zM66.148 19.32c-.02-.007-.038-.01-.057-.016-.56.24-1.1.49-1.62.757-.02.04-.03.09-.05.13-.23.71.17 1.46.89 1.69.72.23 1.5-.16 1.73-.87.23-.7-.16-1.46-.89-1.69zm.95 38.947h2.247v-5.94s-2.475.533-3.716 2.13c0 0 1.24 2.186 1.46 3.81z"/><path fill="#F4DEB6" d="M62.796 49.81c2.495.593 5.578 1.063 8.148.982 0 0-.163-1.935-.548-3.88-1.873.21-3.558.29-5.472 0-.652.9-2.128 2.897-2.128 2.897zm-28.28-5.226c.412-.06 2.665-.42 4.225-1.108-1.51-2.892-.72-5.95-.72-5.95-4.64-4.654-6.03-10.057-6.03-10.057-3.66 4.71-2.68 12.33 2.53 17.11z"/><path fill="#6F451B" d="M69.345 50.812l1.582.017s-.163-3.96-1.55-7.29" opacity=".2"/><path fill="#221F1F" d="M61.98 14.785l1.778-4.445-2.9-10.29c3.56 1.454 7.117 6.915 7.117 6.915l-2.828.543.816 3.053-3.983 4.23z" opacity=".2"/><path fill="#6F451B" d="M64.924 46.913l.215 3.39-2.35-.494 2.13-2.9z" opacity=".2"/><path fill="#DC8027" d="M8.813 61.155H2.97v3.85h5.627v2.68H2.97v7.876H.06V58.48h8.752v2.68z"/><path fill="#754D29" d="M44.85 73.927c-3.92 0-7.098-3.098-7.098-6.92s3.178-6.92 7.098-6.92c1.806 0 3.453.66 4.706 1.742v-2.45c-1.47-.83-2.99-1.25-4.563-1.25-2.883 0-5.233 1.04-7.05 3.13-1.475 1.7-2.213 3.64-2.213 5.82 0 2.42.882 4.5 2.645 6.22 1.77 1.7 3.908 2.55 6.413 2.55 1.664 0 3.254-.42 4.767-1.26v-2.43c-1.252 1.08-2.9 1.74-4.705 1.74zm6.8-4.395c0-1.702.64-3.164 1.92-4.386 1.276-1.222 2.807-1.833 4.596-1.833 1.767 0 3.283.617 4.546 1.85 1.27 1.23 1.905 2.71 1.905 4.44 0 1.738-.638 3.213-1.913 4.424-1.28 1.217-2.824 1.825-4.635 1.825-1.61 0-3.04-.54-4.32-1.62-1.41-1.197-2.11-2.763-2.11-4.7zm1.89.02c0 1.335.46 2.433 1.38 3.293.916.86 1.973 1.292 3.173 1.292 1.3 0 2.4-.44 3.294-1.315.894-.887 1.342-1.966 1.342-3.24 0-1.288-.45-2.368-1.33-3.24-.88-.875-1.97-1.314-3.26-1.314-1.29 0-2.38.44-3.27 1.315-.89.866-1.34 1.936-1.34 3.208zm50.222-4.296h-5.8v2.905h5.655v1.72h-5.654v4.04h5.8v1.72H96.09v-12.1h7.672v1.72zm7.196 5.224l3.84 5.153h-2.29l-3.542-4.95h-.338v4.95h-1.87V63.54h2.19c1.64 0 2.823.3 3.552.9.803.67 1.205 1.552 1.205 2.648 0 .857-.252 1.593-.755 2.21-.504.615-1.168 1.01-1.992 1.18zm-2.33-1.387h.595c1.772 0 2.658-.66 2.658-1.98 0-1.24-.86-1.857-2.58-1.857h-.66v3.837zm17.6-4.907v2.158c-1.083-.882-2.2-1.323-3.36-1.323-1.275 0-2.35.45-3.22 1.34-.88.89-1.32 1.98-1.32 3.26 0 1.27.44 2.34 1.32 3.21.877.88 1.954 1.31 3.23 1.31.656 0 1.216-.1 1.677-.31.257-.1.523-.24.8-.42.275-.17.565-.39.87-.64v2.21c-1.07.6-2.195.89-3.373.89-1.773 0-3.286-.6-4.54-1.81-1.247-1.21-1.87-2.68-1.87-4.4 0-1.54.522-2.91 1.566-4.11 1.284-1.48 2.947-2.22 4.987-2.22 1.114 0 2.19.296 3.23.88zM87.05 72.03l-5.46-9.398v13.013h1.89v-5.843l3.538 5.83 3.697-6.028v6.04h1.89v-13.01L87.05 72.03zm-14.473 0l-5.46-9.398v13.013h1.89v-5.843l3.538 5.83 3.696-6.028v6.04h1.9v-13.01l-5.56 9.396zm64.363-6.774h-5.798v2.905h5.653v1.72h-5.653v4.04h5.8v1.72h-7.672v-12.1h7.67v1.72z"/><path fill="#DC8027" d="M30.73 69.063l3.19-5.486h-3.15l-1.643 2.777-1.666-2.774-3.3.002 3.32 5.55-3.77 6.46 3.21-.003 2.23-3.7 2.25 3.69h3.2l-3.85-6.53zm-9.473-3.846c-1.242-1.21-2.753-1.826-4.492-1.826-1.756 0-3.282.61-4.533 1.81-1.26 1.2-1.898 2.67-1.898 4.34 0 1.9.702 3.47 2.087 4.65 1.25 1.06 2.68 1.6 4.26 1.6 1.78 0 3.32-.6 4.57-1.8 1.26-1.19 1.89-2.66 1.89-4.37 0-1.7-.63-3.17-1.88-4.38zm-.794 4.37c0 1.046-.357 1.91-1.09 2.635-.73.717-1.606 1.066-2.675 1.066-.978 0-1.818-.344-2.572-1.052-.752-.703-1.117-1.58-1.117-2.68 0-1.045.35-1.897 1.08-2.607.72-.72 1.59-1.07 2.65-1.07 1.06 0 1.92.35 2.64 1.06.72.71 1.07 1.57 1.07 2.63z"/></g></svg>