<?xml version="1.0" encoding="UTF-8" standalone="no"?>
<svg width="449px" height="113px" viewBox="0 0 449 113" version="1.1" xmlns="http://www.w3.org/2000/svg" xmlns:xlink="http://www.w3.org/1999/xlink">
    <!-- Generator: Sketch 41.2 (35397) - http://www.bohemiancoding.com/sketch -->
    <title>Celebrating</title>
    <desc>Created with Sketch.</desc>
    <defs></defs>
    <g id="About-Us-4" stroke="none" stroke-width="1" fill="none" fill-rule="evenodd">
        <g id="Celebrating" fill="#3E3436">
            <path d="M20.845,35.97 C21.365,36.75 21.755,37.14 22.145,37.66 C23.055,39.09 26.435,37.14 26.045,36.1 C25.655,35.45 25.135,34.8 24.745,34.15 C24.485,33.76 24.225,31.94 24.095,31.55 C23.185,29.08 23.055,29.47 22.405,28.43 C20.715,27.91 19.025,27.52 16.815,28.3 C16.035,28.56 15.255,29.21 14.605,29.86 C14.085,30.25 13.305,30.38 12.915,31.29 C12.785,31.81 11.875,32.07 11.485,32.46 C10.445,33.5 9.665,34.67 8.625,35.71 C7.455,36.88 6.935,38.31 6.025,39.74 C5.245,41.04 4.465,42.34 3.945,43.77 C3.165,45.72 2.645,47.67 1.995,49.62 C1.735,50.66 1.475,51.7 1.345,52.74 C1.085,53.91 0.825,55.21 0.825,56.38 C0.695,58.33 0.435,60.15 0.695,61.97 C0.825,64.31 1.345,66.52 1.995,68.73 C2.385,70.16 2.905,71.72 3.815,72.76 C5.245,74.45 6.805,76.01 8.495,77.31 C10.315,78.74 12.135,80.04 14.605,80.3 C16.035,80.3 17.335,80.56 18.635,80.69 C20.065,80.82 21.495,80.95 22.795,80.3 C24.745,79.39 26.305,77.83 27.735,76.27 C28.515,75.49 28.905,74.58 29.035,73.54 C29.165,72.37 29.685,71.46 30.465,70.68 C31.505,69.64 32.415,68.73 33.195,67.56 C33.715,67.04 33.845,66.26 34.365,65.74 C35.145,64.57 36.185,63.4 36.965,62.23 C37.745,61.06 38.265,59.76 39.305,58.72 C40.475,55.73 41.385,55.21 41.645,52.74 C41.775,51.96 41.515,51.7 40.865,51.7 C40.085,51.7 39.305,51.83 39.305,52.35 C39.305,52.87 38.395,54.04 38.265,54.56 C37.225,57.68 35.665,59.63 33.845,62.23 C32.155,64.96 30.465,67.56 28.645,70.16 C27.735,71.59 26.695,73.02 25.525,74.19 C23.965,75.62 22.535,76.92 20.455,77.57 C18.765,78.09 17.335,78.22 15.645,77.96 C15.255,77.83 14.865,77.83 14.605,77.7 C12.005,76.27 10.705,73.8 10.315,71.2 C9.665,67.95 9.405,64.44 10.445,61.19 C10.965,59.76 11.745,58.33 12.395,56.9 C13.045,55.47 13.955,54.17 14.605,52.87 C15.255,51.31 15.905,49.88 16.295,48.19 C16.555,46.76 17.205,45.46 17.725,44.16 L19.285,40.26 C19.805,38.96 20.325,37.53 20.845,35.97 Z" id="Path"></path>
            <path d="M35.925,63.92 C35.925,64.05 36.055,64.05 36.055,64.05 C35.925,66.52 36.835,68.86 37.875,71.07 C38.395,71.98 38.915,72.76 39.565,73.54 C40.865,75.23 42.425,76.79 44.375,77.7 C46.585,78.61 48.795,79.13 51.135,78.87 C51.915,78.74 52.695,78.74 53.475,78.61 C53.865,78.61 54.385,78.48 54.905,78.35 C55.685,78.09 56.465,77.96 57.245,77.57 C57.895,77.31 58.415,76.79 59.065,76.4 C59.845,75.88 60.755,75.49 61.535,74.97 C62.965,74.06 63.875,72.76 64.785,71.2 C65.175,70.42 65.565,69.64 66.215,68.99 C67.645,67.82 68.555,66.26 69.465,64.7 C69.725,64.18 70.245,63.79 70.375,63.27 C70.635,61.97 71.545,61.32 72.325,60.41 C72.585,60.28 72.845,59.89 72.975,59.63 L73.755,57.68 C74.015,57.16 74.145,56.77 74.275,56.25 C74.275,55.6 74.405,55.08 74.925,54.56 C75.705,53.52 76.875,53.13 77.265,51.7 C77.525,50.92 77.395,49.75 76.745,49.49 C76.485,49.36 76.095,49.49 75.965,49.62 C75.445,50.4 74.925,51.31 74.405,52.22 C72.715,55.08 71.025,57.94 69.335,60.67 C68.295,62.23 66.995,63.79 65.955,65.35 C64.655,67.56 62.705,69.25 60.625,70.81 C59.325,71.98 57.765,72.76 56.335,73.8 C55.165,74.71 53.865,75.49 52.435,75.62 C51.135,75.88 49.705,76.14 48.275,76.01 C46.195,75.88 45.025,74.71 43.855,73.28 C43.855,73.15 43.725,72.89 43.725,72.76 C44.375,71.59 44.505,70.16 44.765,68.86 C45.155,67.17 45.545,65.35 46.065,63.79 C46.195,63.01 46.585,62.23 47.235,61.97 C48.405,61.19 49.705,60.54 50.875,59.63 C52.175,58.46 53.735,57.42 55.165,56.25 C56.855,54.95 58.285,53.39 59.455,51.57 C59.715,51.18 60.235,50.92 60.755,50.66 C60.885,50.53 61.145,50.4 61.145,50.27 C61.665,49.36 62.055,48.58 62.575,47.67 C62.835,47.15 63.225,46.63 63.485,46.11 C63.615,45.85 63.875,45.59 63.875,45.46 C64.135,44.94 64.265,44.29 64.265,43.77 C64.525,42.86 64.655,41.95 64.785,41.04 C64.785,40.91 64.655,40.65 64.655,40.52 C64.265,39.74 63.875,39.09 63.485,38.31 C63.225,37.79 62.965,37.27 62.835,36.62 C62.445,35.58 61.795,34.93 60.885,34.28 C60.105,33.76 59.195,33.76 58.415,33.63 C57.245,33.24 56.335,33.63 55.555,33.89 C54.385,34.28 53.215,34.54 52.305,35.58 C52.045,35.84 51.785,35.97 51.525,36.1 C50.615,36.62 49.575,37.01 48.795,37.79 C47.625,38.7 46.585,39.87 45.545,41.04 C45.025,41.43 44.635,42.08 44.115,42.6 C43.725,42.99 43.465,43.51 43.075,44.03 C42.555,44.94 41.905,45.85 41.385,46.76 C40.475,48.32 39.695,49.88 39.045,51.57 C38.395,53.13 37.745,54.69 37.485,56.51 C37.355,56.9 37.095,57.16 36.965,57.55 C36.835,58.33 36.705,58.98 36.705,59.63 L35.925,63.92 Z M59.845,41.3 C60.235,42.08 60.755,42.34 61.665,42.08 C61.535,42.86 61.535,43.51 61.275,44.16 C60.495,46.76 59.585,49.23 57.765,51.18 C56.205,52.87 54.515,54.43 52.825,55.86 C51.655,56.9 50.225,57.68 48.925,58.59 C48.665,58.72 48.535,58.85 48.405,58.85 C48.925,57.29 49.445,55.86 50.095,54.3 C50.355,53.39 50.615,52.48 51.005,51.57 C51.395,50.79 51.915,50.14 52.305,49.36 C52.565,48.97 52.695,48.58 52.955,48.06 C53.735,46.89 54.515,45.59 55.425,44.29 C55.555,44.03 55.945,43.9 56.335,43.64 C57.115,43.12 57.895,42.6 58.805,42.08 C59.065,41.82 59.455,41.69 59.845,41.3 Z" id="Combined-Shape"></path>
            <path d="M88.965,74.06 C88.835,74.06 88.835,73.93 88.705,73.93 L88.705,73.41 C88.705,70.55 88.835,67.69 88.835,64.83 C88.835,64.05 88.575,63.27 88.705,62.49 C88.835,60.54 88.965,58.59 89.225,56.64 C89.485,54.3 88.965,51.83 89.485,49.49 C89.875,47.93 89.745,46.37 89.875,44.81 C90.005,43.51 90.265,42.34 90.265,41.17 C90.265,40 90.785,29.21 90.915,28.04 C91.045,25.96 91.305,23.88 91.565,21.67 C91.695,19.98 91.825,18.16 91.825,16.34 C91.955,14.78 92.215,13.35 91.565,11.79 C91.045,10.36 90.265,8.93 88.965,8.15 C87.925,7.63 87.145,6.72 85.845,6.33 C84.025,5.68 82.335,5.29 80.515,5.42 C79.215,5.55 78.435,6.33 78.305,7.5 C77.915,9.71 77.525,11.92 77.265,14.13 C77.005,15.95 77.005,17.77 76.875,19.59 C76.745,21.8 76.485,23.88 76.355,25.96 C76.225,27.91 75.575,39.61 75.445,41.56 C75.315,43.38 74.925,44.94 74.925,46.76 C74.665,49.62 74.535,52.61 74.405,55.6 C74.275,59.24 74.275,63.01 74.145,66.65 C74.145,68.99 74.405,71.46 75.705,73.67 C77.135,75.75 78.435,77.83 81.035,78.61 C81.945,78.87 82.855,79.13 83.635,79.39 C86.235,80.04 88.055,79 89.615,77.31 C91.045,75.75 92.085,73.93 93.385,72.24 C95.075,69.9 96.245,66.91 97.935,64.44 C99.755,61.71 101.445,58.85 103.135,55.99 C103.655,55.21 103.915,54.3 104.305,53.39 C104.565,52.61 104.565,51.7 104.825,50.92 C105.345,49.75 106.255,49.88 104.825,49.49 C104.565,49.49 104.045,49.49 103.915,49.75 C103.395,50.79 103.005,51.83 102.485,52.87 C102.225,53.52 102.225,54.17 101.835,54.82 C101.445,55.73 100.405,57.68 100.015,58.59 C97.155,63.79 93.905,67.69 90.395,72.5 C89.875,73.02 89.485,73.54 88.965,74.06 Z" id="Path"></path>
            <path d="M99.365,63.92 C99.365,64.05 99.495,64.05 99.495,64.05 C99.365,66.52 100.275,68.86 101.315,71.07 C101.835,71.98 102.355,72.76 103.005,73.54 C104.305,75.23 105.865,76.79 107.815,77.7 C110.025,78.61 112.235,79.13 114.575,78.87 C115.355,78.74 116.135,78.74 116.915,78.61 C117.305,78.61 117.825,78.48 118.345,78.35 C119.125,78.09 119.905,77.96 120.685,77.57 C121.335,77.31 121.855,76.79 122.505,76.4 C123.285,75.88 124.195,75.49 124.975,74.97 C126.405,74.06 127.315,72.76 128.225,71.2 C128.615,70.42 129.005,69.64 129.655,68.99 C131.085,67.82 131.995,66.26 132.905,64.7 C133.165,64.18 133.685,63.79 133.815,63.27 C134.075,61.97 134.985,61.32 135.765,60.41 C136.025,60.28 136.285,59.89 136.415,59.63 L137.195,57.68 C137.455,57.16 137.585,56.77 137.715,56.25 C137.715,55.6 137.845,55.08 138.365,54.56 C139.145,53.52 140.315,53.13 140.705,51.7 C140.965,50.92 140.835,49.75 140.185,49.49 C139.925,49.36 139.535,49.49 139.405,49.62 C138.885,50.4 138.365,51.31 137.845,52.22 C136.155,55.08 134.465,57.94 132.775,60.67 C131.735,62.23 130.435,63.79 129.395,65.35 C128.095,67.56 126.145,69.25 124.065,70.81 C122.765,71.98 121.205,72.76 119.775,73.8 C118.605,74.71 117.305,75.49 115.875,75.62 C114.575,75.88 113.145,76.14 111.715,76.01 C109.635,75.88 108.465,74.71 107.295,73.28 C107.295,73.15 107.165,72.89 107.165,72.76 C107.815,71.59 107.945,70.16 108.205,68.86 C108.595,67.17 108.985,65.35 109.505,63.79 C109.635,63.01 110.025,62.23 110.675,61.97 C111.845,61.19 113.145,60.54 114.315,59.63 C115.615,58.46 117.175,57.42 118.605,56.25 C120.295,54.95 121.725,53.39 122.895,51.57 C123.155,51.18 123.675,50.92 124.195,50.66 C124.325,50.53 124.585,50.4 124.585,50.27 C125.105,49.36 125.495,48.58 126.015,47.67 C126.275,47.15 126.665,46.63 126.925,46.11 C127.055,45.85 127.315,45.59 127.315,45.46 C127.575,44.94 127.705,44.29 127.705,43.77 C127.965,42.86 128.095,41.95 128.225,41.04 C128.225,40.91 128.095,40.65 128.095,40.52 C127.705,39.74 127.315,39.09 126.925,38.31 C126.665,37.79 126.405,37.27 126.275,36.62 C125.885,35.58 125.235,34.93 124.325,34.28 C123.545,33.76 122.635,33.76 121.855,33.63 C120.685,33.24 119.775,33.63 118.995,33.89 C117.825,34.28 116.655,34.54 115.745,35.58 C115.485,35.84 115.225,35.97 114.965,36.1 C114.055,36.62 113.015,37.01 112.235,37.79 C111.065,38.7 110.025,39.87 108.985,41.04 C108.465,41.43 108.075,42.08 107.555,42.6 C107.165,42.99 106.905,43.51 106.515,44.03 C105.995,44.94 105.345,45.85 104.825,46.76 C103.915,48.32 103.135,49.88 102.485,51.57 C101.835,53.13 101.185,54.69 100.925,56.51 C100.795,56.9 100.535,57.16 100.405,57.55 C100.275,58.33 100.145,58.98 100.145,59.63 L99.365,63.92 Z M123.285,41.3 C123.675,42.08 124.195,42.34 125.105,42.08 C124.975,42.86 124.975,43.51 124.715,44.16 C123.935,46.76 123.025,49.23 121.205,51.18 C119.645,52.87 117.955,54.43 116.265,55.86 C115.095,56.9 113.665,57.68 112.365,58.59 C112.105,58.72 111.975,58.85 111.845,58.85 C112.365,57.29 112.885,55.86 113.535,54.3 C113.795,53.39 114.055,52.48 114.445,51.57 C114.835,50.79 115.355,50.14 115.745,49.36 C116.005,48.97 116.135,48.58 116.395,48.06 C117.175,46.89 117.955,45.59 118.865,44.29 C118.995,44.03 119.385,43.9 119.775,43.64 C120.555,43.12 121.335,42.6 122.245,42.08 C122.505,41.82 122.895,41.69 123.285,41.3 Z" id="Combined-Shape"></path>
            <path d="M181.005,51.7 C181.135,49.62 180.745,47.67 180.095,45.85 C179.705,44.94 179.185,43.9 178.535,43.12 C177.365,42.08 176.065,41.04 174.635,40.13 C173.855,39.61 172.685,39.35 171.775,39.22 C170.605,38.96 169.435,39.09 168.395,39.09 C167.225,39.09 166.055,39.09 164.885,39.22 C163.975,39.35 163.065,39.74 162.155,39.74 C158.515,40.13 156.175,42.21 153.835,44.42 L152.665,45.2 C152.405,44.68 152.145,44.16 152.145,43.77 C152.015,41.17 151.755,38.7 151.885,36.23 C152.145,33.24 152.405,30.25 151.885,27.13 L151.885,27 C152.015,25.57 152.275,24.27 152.275,22.84 C152.405,20.63 152.405,18.29 152.535,16.08 C152.535,14.39 152.275,12.7 152.665,11.01 C152.925,9.45 150.715,6.59 148.895,5.81 C147.855,5.29 146.685,4.77 145.645,4.38 C143.695,3.86 139.665,4.25 139.795,6.72 C139.925,7.11 139.795,7.5 139.795,7.89 C139.795,9.71 139.665,11.66 139.665,13.61 C139.665,15.3 139.795,17.12 139.665,18.94 C139.665,20.76 139.405,22.58 139.275,24.53 C139.145,26.48 139.145,28.43 139.015,30.38 L138.625,39.35 C138.495,42.34 138.365,45.46 138.235,48.45 C138.105,50.53 138.105,52.61 138.105,54.69 C138.235,56.25 138.625,57.94 138.495,59.5 C138.365,62.23 137.845,65.09 137.585,67.82 C137.455,68.73 137.585,69.77 137.585,70.81 C137.585,71.46 137.715,72.24 137.455,72.89 C137.195,73.67 137.585,73.93 137.975,74.32 C138.235,74.58 138.495,74.71 138.625,74.97 C139.535,76.14 143.175,76.92 144.475,77.31 C146.035,77.96 147.075,77.05 146.945,75.49 C146.945,74.32 146.295,72.89 147.595,71.98 C147.855,69.9 148.245,67.95 147.465,65.87 C147.335,65.48 147.465,64.83 147.595,64.7 C148.505,63.79 149.545,63.01 150.455,62.1 C150.845,61.84 151.235,61.45 151.365,61.06 C151.755,59.76 152.145,58.33 152.405,57.03 C152.795,55.08 152.145,53 153.315,51.31 C153.575,51.05 153.705,50.66 153.835,50.27 C154.615,48.71 155.265,47.15 156.955,46.37 C158.125,45.72 159.035,44.94 159.945,44.16 C160.725,43.64 161.375,43.25 162.545,43.25 C163.455,43.38 164.495,43.25 165.535,43.25 C166.055,43.25 166.705,43.38 167.225,43.51 C167.355,43.64 167.745,43.9 167.745,44.03 L167.745,48.19 C167.745,48.84 167.485,49.49 167.485,50.14 L166.705,54.82 C166.575,55.99 166.185,57.16 166.185,58.46 C166.315,59.24 166.055,59.76 165.665,60.02 C163.975,61.32 162.285,62.49 160.595,63.53 C157.215,65.74 154.485,68.34 152.665,71.98 C151.885,73.41 152.275,75.62 153.705,76.79 C154.745,77.7 155.785,78.74 156.955,79.65 C157.735,80.3 158.645,80.82 159.685,80.3 C160.465,80.04 161.375,79.78 162.025,79.26 C162.935,78.61 164.105,78.22 164.885,77.44 C165.535,76.66 166.315,76.27 166.965,75.49 C168.005,74.32 169.565,73.93 170.085,72.37 C170.215,72.24 170.345,72.11 170.475,72.11 C171.255,71.72 172.035,71.46 172.685,71.2 C175.025,70.29 176.455,68.6 177.495,66.52 C179.055,63.53 179.315,60.02 180.355,56.9 C180.485,56.77 180.485,56.51 180.355,56.25 C180.225,55.34 180.485,53.78 181.135,53.39 C181.915,52.87 182.695,52.48 183.605,51.96 C184.125,51.7 184.905,51.44 185.425,51.18 C186.335,50.53 190.755,47.41 191.665,46.89 C192.315,46.37 192.965,45.85 192.575,44.94 C192.315,44.29 191.795,44.94 191.275,44.55 C191.145,44.55 187.765,47.28 187.505,47.54 C186.985,48.06 185.685,48.97 185.035,49.36 C183.735,50.14 182.305,50.92 181.005,51.7 Z M153.445,74.19 C154.225,73.67 154.875,73.15 155.395,72.5 C156.175,71.85 156.825,71.2 157.345,70.55 C158.125,69.77 158.905,68.86 159.555,68.08 C159.945,67.82 160.205,67.43 160.595,67.17 C161.895,66 163.325,64.96 164.755,63.79 C164.885,63.79 165.015,63.79 165.535,63.92 C164.885,65.87 164.365,67.95 163.585,69.9 C162.545,72.11 161.115,74.06 158.775,75.36 L158.255,75.88 C156.825,76.66 155.525,76.4 154.095,74.84 L153.445,74.19 Z" id="Combined-Shape"></path>
            <path d="M206.875,75.49 C209.215,74.58 209.735,72.24 208.955,70.55 C208.565,69.77 208.695,69.12 209.085,68.6 C209.735,67.82 209.605,67.04 209.605,66.26 C209.475,64.83 209.475,63.4 209.475,61.97 C209.475,61.32 209.735,60.8 210.125,60.28 C211.165,59.11 212.335,58.07 212.855,56.64 C213.375,55.21 214.025,53.91 214.805,52.74 C215.715,51.31 216.365,49.75 216.755,48.06 C216.885,47.41 217.015,46.76 216.885,45.98 C216.625,43.64 215.195,41.82 213.505,40.52 C212.335,39.48 210.515,39.09 208.955,38.44 L208.695,38.44 C206.875,38.7 205.315,39.35 203.885,40.26 C203.235,40.78 202.585,41.3 201.935,41.69 C201.155,41.95 200.375,42.21 199.595,42.34 C198.945,42.34 198.165,42.86 197.645,41.95 C197.385,41.43 196.995,41.04 196.865,40.52 C196.475,39.74 195.955,38.83 196.085,38.18 C196.605,36.62 197.515,35.06 198.035,33.37 C198.685,31.55 199.465,29.73 199.725,27.78 C199.985,25.7 199.855,23.49 199.725,21.41 C199.595,19.33 198.165,18.03 196.085,18.03 C195.565,18.03 194.915,18.16 194.525,18.55 C193.355,19.59 192.055,20.63 191.145,21.93 C189.455,24.4 188.415,27.26 188.415,30.25 C188.285,32.46 188.545,34.8 188.805,37.01 C188.935,38.05 189.325,39.09 189.845,39.87 C190.365,40.52 191.535,41.17 191.275,41.82 C190.495,43.51 189.585,46.76 189.065,48.45 C187.635,52.09 186.205,53.91 184.905,57.55 C184.775,57.94 183.995,59.11 184.125,59.24 C184.645,59.5 184.905,59.11 185.425,58.98 C185.815,58.98 185.815,58.59 186.075,58.2 C186.465,57.68 186.855,56.64 187.375,55.99 C188.545,54.56 191.145,48.84 191.665,46.89 C191.925,46.24 192.965,44.16 193.095,43.25 C193.485,43.51 194.135,44.55 194.395,44.68 C195.305,45.33 196.085,45.85 196.995,46.24 C197.775,46.63 198.555,46.63 199.335,47.02 C199.985,47.28 200.115,47.8 199.855,48.45 C199.725,48.97 199.595,49.62 199.465,50.14 C199.205,51.57 198.945,53.13 198.685,54.69 C198.425,56.77 198.165,58.98 198.035,61.06 C198.035,63.27 198.035,65.35 198.295,67.43 C198.815,71.85 200.765,75.36 204.535,77.83 C205.315,78.48 206.095,79.13 207.005,79.39 C208.825,79.91 210.515,79.39 212.075,78.35 C212.985,77.83 213.765,77.18 214.545,76.66 C217.015,75.1 219.095,73.15 220.655,70.81 C221.435,69.64 222.085,68.47 222.995,67.56 C224.555,66.26 225.465,64.44 226.245,62.75 C227.025,61.19 227.675,59.5 228.325,57.81 C228.455,57.42 228.455,56.9 228.455,56.38 C228.585,55.86 228.585,55.34 228.585,54.82 C228.585,54.43 228.715,54.17 228.715,53.91 C228.715,53.91 228.585,53.78 228.455,53.78 C228.195,54.43 227.935,55.08 227.545,55.73 C225.465,58.98 223.385,62.36 221.305,65.61 C220.005,67.56 218.445,69.51 217.015,71.2 C216.235,72.11 215.065,72.89 214.155,73.67 C212.725,75.1 211.165,76.27 209.345,77.05 C207.525,77.83 207.005,77.57 206.875,75.75 L206.875,75.49 Z M196.995,22.58 C198.555,24.01 196.865,30.51 195.305,32.46 C194.915,30.77 195.175,29.08 195.565,27.52 C195.955,25.96 196.475,24.4 196.995,22.58 Z" id="Combined-Shape"></path>
            <path d="M246.395,58.85 C246.395,58.98 246.525,58.98 246.525,58.98 L246.525,62.75 C246.525,64.31 246.265,65.87 246.395,67.3 C246.525,69.51 247.045,71.59 247.955,73.67 C248.735,75.49 249.645,76.92 251.205,78.09 C252.895,79.39 252.505,79.26 254.715,79.26 C255.625,79.26 256.535,79.13 257.315,78.74 C258.745,78.22 260.175,77.31 261.345,76.4 C263.035,75.23 264.335,73.54 265.375,71.72 C266.545,70.03 267.455,68.34 268.625,66.78 C269.145,66 269.145,66.13 269.795,64.96 C270.965,62.75 274.085,56.64 274.995,54.43 C275.385,53.52 276.035,53.52 275.255,53.26 C274.215,53 275.255,53.26 274.085,53.13 C273.955,53.13 273.695,53.52 273.565,53.65 C272.525,55.6 269.665,61.97 268.495,63.79 C267.715,65.22 266.415,66.52 265.505,67.95 C264.075,70.55 262.645,73.15 260.305,75.23 C259.135,76.27 257.835,77.05 256.405,77.31 C255.495,76.4 254.845,75.49 253.935,74.58 C254.845,73.54 255.625,72.37 256.535,71.2 C256.665,71.07 256.665,70.81 256.795,70.68 C257.315,69.12 257.575,67.3 258.485,66 C260.045,63.79 260.305,61.19 261.085,58.85 C261.475,57.29 261.605,55.6 261.735,54.04 C261.995,51.83 262.125,49.62 262.385,47.41 C262.385,46.63 262.645,45.98 262.645,45.2 C262.645,44.03 262.775,42.73 262.645,41.43 C262.515,40.39 261.995,39.22 261.865,38.18 C261.475,36.36 260.175,35.32 258.875,34.28 C257.835,33.24 256.405,33.11 254.975,32.98 C253.155,32.72 251.465,32.98 250.295,34.54 C249.645,35.58 248.995,36.75 248.475,37.66 C247.565,37.01 246.395,36.36 245.355,35.58 C244.055,34.54 242.495,34.54 241.065,35.06 C239.895,35.45 238.985,36.23 237.815,36.49 C236.385,36.75 235.475,37.79 234.435,38.57 C233.265,39.61 232.225,40.78 231.055,41.95 C230.665,42.47 230.145,42.86 229.755,43.51 C229.105,44.55 228.455,45.72 227.805,47.02 C227.415,47.67 227.025,48.32 226.765,49.1 C226.245,50.4 225.855,51.7 225.335,53 C224.685,55.47 223.645,57.81 223.255,60.28 C222.475,63.92 223.125,67.56 225.205,70.81 C227.025,73.8 229.625,75.49 233.265,75.49 C234.175,75.49 234.955,74.84 235.735,74.84 C237.425,74.84 238.595,73.93 239.375,72.89 C240.545,71.59 241.195,69.9 241.975,68.34 C243.145,66.13 244.055,63.79 245.095,61.45 C245.485,60.67 246.005,59.76 246.395,58.85 Z M247.175,41.82 C247.175,43.77 247.045,45.72 246.915,47.67 C246.785,50.4 246.265,52.87 244.705,55.34 C243.405,57.42 242.495,59.89 241.325,62.1 C240.285,64.18 239.375,66.39 238.075,68.34 C237.035,69.77 235.605,71.07 234.305,72.24 C233.135,73.15 230.795,72.76 229.755,71.46 C229.105,70.68 228.325,69.9 227.935,68.99 C227.415,67.56 226.765,66 227.285,64.31 C227.805,62.49 228.195,60.67 228.715,58.98 C229.625,56.38 230.535,53.91 231.445,51.44 C231.965,50.14 232.485,48.71 233.135,47.41 C233.265,46.89 233.655,46.37 233.915,45.98 C234.825,44.68 235.735,43.25 236.645,42.08 C238.075,40.52 239.635,39.09 241.845,39.09 C242.495,39.09 243.145,39.61 243.665,40 C244.185,40.52 244.705,41.17 245.355,41.56 C245.875,41.82 246.655,41.82 247.175,41.82 Z" id="Combined-Shape"></path>
            <path d="M262.645,23.62 L262.645,24.01 C263.815,24.4 264.985,24.92 266.285,24.92 C268.755,25.05 271.225,25.05 273.695,25.05 C275.255,25.05 275.255,25.05 275.255,26.48 C275.125,28.17 274.865,37.01 274.735,38.7 C274.475,40.39 274.215,45.98 274.085,47.67 C273.955,49.36 273.955,51.18 273.955,53 C273.955,53.78 274.085,54.69 274.085,55.47 C274.085,56.12 273.695,56.64 273.695,57.29 C273.565,59.89 273.565,62.49 273.565,64.96 C273.435,66.52 273.565,68.08 273.565,69.64 C273.695,72.63 274.995,75.1 277.335,76.53 C279.935,78.09 282.665,79.39 285.265,80.43 C286.695,81.08 288.255,81.08 289.555,79.78 C290.595,78.87 291.635,78.09 292.545,77.18 C293.455,76.27 294.365,75.23 295.275,74.19 C296.445,72.76 297.355,71.2 298.655,69.77 C300.475,67.82 302.165,65.74 303.335,63.27 C303.725,62.49 303.985,61.84 304.375,61.19 C305.545,59.24 306.715,57.42 307.755,55.47 C308.665,53.91 309.185,52.09 310.095,50.53 C310.745,49.36 310.875,48.32 310.225,47.02 C310.095,47.15 309.965,47.28 309.965,47.41 C309.055,50.4 307.365,52.87 305.805,55.47 C304.115,58.07 302.295,60.54 300.605,63.14 C300.085,64.05 299.565,65.09 298.785,66 C297.745,67.43 296.445,68.6 295.405,70.03 C293.585,72.37 291.505,74.32 289.165,76.14 C289.035,76.27 288.775,76.27 288.255,76.53 C288.385,74.71 288.645,73.15 288.645,71.59 C288.775,69.25 288.775,66.91 288.905,64.57 C288.905,63.14 288.905,61.71 289.165,60.41 C289.425,58.59 289.425,56.77 289.295,54.95 L289.295,49.1 C289.295,47.54 289.425,41.95 289.425,40.39 C289.295,39.35 288.905,31.03 289.035,29.86 C289.035,28.17 289.425,26.35 289.685,24.53 L292.545,24.53 C293.195,24.53 293.715,24.79 294.365,24.79 C295.925,24.92 297.355,24.92 298.915,25.05 C299.955,25.18 299.955,25.18 299.695,24.14 C300.735,23.36 300.735,23.1 299.955,22.45 C299.305,21.93 298.395,21.67 297.615,21.54 C295.145,20.89 292.545,21.02 290.075,21.54 C289.425,21.67 289.035,21.54 288.905,20.76 C288.905,20.24 288.645,19.59 288.515,19.07 C287.995,18.03 287.345,13.09 286.955,11.92 C286.435,10.1 285.915,8.15 285.265,6.33 C285.005,5.55 284.745,4.77 284.355,3.99 C283.445,2.04 281.755,1.26 279.675,0.87 C277.725,0.61 276.815,1.39 276.555,3.21 C276.555,3.73 276.685,4.38 276.555,4.9 C276.425,8.41 276.165,15.95 275.905,19.59 C275.905,20.37 275.775,21.02 275.645,21.8 C274.995,21.8 274.345,21.67 273.825,21.8 C272.005,21.8 270.185,21.93 268.365,21.93 C267.455,22.06 266.675,21.93 265.895,22.19 C264.855,22.58 263.685,23.1 262.645,23.62 Z" id="Path"></path>
            <path d="M311.265,30.12 L316.725,31.29 C318.805,31.29 320.365,30.12 321.665,29.08 C322.315,28.56 322.575,27.39 322.445,26.61 C322.315,25.57 322.185,24.27 320.755,23.88 C319.195,23.62 317.635,22.97 316.205,23.1 C314.385,23.23 312.695,24.01 311.005,24.4 C309.835,24.79 308.925,25.31 308.925,26.61 C308.925,27.91 310.095,29.73 311.265,30.12 Z" id="Path"></path>
            <path d="M336.225,54.82 C335.705,54.3 335.835,54.69 335.185,54.43 C334.795,55.21 334.665,55.86 334.405,56.51 C331.545,61.97 328.815,67.43 324.525,71.85 C323.095,73.28 321.925,74.97 319.715,75.36 C318.935,75.49 318.285,75.88 317.505,76.14 C317.765,75.23 317.895,74.45 318.935,74.32 C319.455,74.32 319.975,73.54 320.235,73.15 C320.495,72.76 320.365,72.24 320.365,71.72 C320.495,68.34 320.885,64.83 321.665,61.58 L321.665,60.15 C321.795,58.85 321.925,57.42 321.925,56.12 C322.055,54.04 322.185,51.96 322.185,49.88 C322.185,48.97 322.185,48.06 322.055,47.15 L321.665,45.59 C321.535,44.55 321.665,43.38 321.145,42.47 C319.975,40.91 319.065,38.96 316.985,38.18 C315.555,37.66 314.125,36.88 312.695,36.88 C310.355,36.88 309.055,38.05 308.535,40.39 C308.405,40.91 308.405,41.43 308.275,41.95 C308.015,43.25 307.755,44.55 307.625,45.85 C307.365,47.54 307.235,49.23 307.105,50.92 C306.845,53.91 306.455,56.77 306.585,59.76 C306.845,62.49 306.325,65.22 307.235,68.08 C307.625,69.51 307.755,70.94 308.145,72.24 C309.055,74.84 310.485,76.92 313.085,78.09 C314.775,78.74 316.335,78.74 317.895,78.48 C319.195,78.35 320.625,77.83 321.925,77.57 C322.705,77.18 323.615,75.75 324.265,75.23 C326.605,73.41 328.295,70.81 329.985,68.21 C330.505,67.3 330.895,66 331.415,65.09 C333.105,62.1 334.275,59.24 335.575,56.51 C335.965,55.6 336.745,55.34 336.225,54.82 Z" id="Path"></path>
            <path d="M347.925,43.38 C347.925,42.47 348.055,41.3 347.925,40.26 C347.925,39.48 347.665,38.83 347.275,38.18 C346.495,36.88 345.585,35.58 344.285,34.67 C342.725,33.5 341.425,32.07 339.605,31.68 C337.915,31.29 336.355,30.64 334.665,31.55 C333.495,32.33 332.195,32.59 332.585,34.41 C332.715,35.58 332.585,36.75 332.585,37.92 C332.455,40 332.195,42.08 332.065,44.16 C332.065,44.81 332.325,45.59 332.195,46.24 C332.195,48.19 332.065,50.14 331.935,52.09 C331.935,53.13 331.805,54.3 331.805,55.34 C331.805,56.25 332.065,57.16 332.065,57.94 C331.935,60.41 331.675,62.75 331.935,65.09 C332.195,66.78 332.455,68.47 332.455,70.03 C332.585,71.33 332.455,72.63 332.325,73.93 C332.325,74.84 332.455,75.49 333.495,75.75 C335.185,76.27 336.875,76.66 338.435,77.44 C339.735,78.09 341.295,78.48 342.725,78.74 C344.285,79.13 345.715,78.22 345.975,77.05 C346.235,75.75 346.365,74.32 346.625,73.02 C346.625,71.98 346.495,70.81 346.885,69.9 C347.275,68.99 347.015,68.08 347.015,67.17 C346.885,66.13 346.885,64.96 346.755,63.79 C346.755,62.75 346.495,61.71 346.495,60.54 C346.365,59.24 346.235,57.94 346.365,56.77 C346.625,54.82 346.885,53 347.405,51.18 C347.795,49.36 348.445,47.54 349.225,45.98 C349.875,44.55 350.915,43.25 351.955,42.08 C352.475,41.43 352.995,40.78 353.775,40.52 C354.815,40.13 355.855,40 357.025,39.87 C357.545,39.61 357.805,39.87 357.675,40.52 C357.545,41.3 357.545,42.21 357.285,42.86 C356.765,44.16 355.985,45.33 355.465,46.63 C354.555,49.23 353.775,51.7 352.995,54.3 C352.605,55.6 352.085,57.03 352.085,58.46 C351.955,59.89 351.435,61.19 351.435,62.62 C351.825,66.13 352.085,69.51 355.075,72.11 C356.635,73.54 358.195,74.84 360.145,75.62 C361.575,76.14 362.875,76.79 364.435,76.01 C365.215,75.62 366.125,75.49 366.905,75.23 C367.555,74.97 368.205,74.84 368.725,74.58 C369.765,74.06 370.675,73.67 371.585,73.02 C373.535,71.85 375.225,70.42 376.135,68.21 C376.655,67.17 377.565,66.26 378.085,65.22 C378.865,63.66 379.515,62.36 380.685,60.41 C382.115,57.94 382.765,55.86 383.285,53.91 C383.415,53.13 383.805,52.09 383.545,51.31 C383.415,50.66 381.595,51.96 381.075,53.39 C380.815,54.17 380.945,54.69 380.685,55.47 C379.905,57.81 377.435,62.1 376.395,64.44 C375.355,67.3 372.885,69.38 370.285,71.33 C369.635,71.85 366.905,72.63 366.125,73.15 L366.125,67.69 C366.645,64.57 367.165,61.58 367.685,58.46 C367.815,58.2 367.945,57.94 367.945,57.81 C368.465,56.64 368.855,55.47 369.245,54.17 C369.505,53.39 369.505,52.48 369.765,51.7 C370.285,50.14 370.415,48.84 369.895,47.28 C369.115,45.07 368.075,43.12 366.515,41.43 C364.825,39.22 362.615,37.79 359.885,37.27 C356.765,36.75 354.165,37.53 351.825,39.74 C350.525,41.04 349.225,42.21 347.925,43.38 Z" id="Path"></path>
            <path d="M414.355,77.83 C414.485,76.92 414.615,76.14 414.875,75.36 C415.265,74.19 415.785,73.02 416.045,71.72 C416.565,70.16 416.695,68.6 417.085,67.04 C417.735,64.57 418.385,62.23 417.995,59.5 C417.865,58.46 417.865,57.29 417.995,56.12 C418.385,54.04 418.775,51.96 419.295,50.01 C420.205,46.76 418.905,44.29 416.695,41.95 C415.785,41.04 414.355,40.52 413.445,39.48 C411.755,37.79 410.065,37.79 407.985,38.31 C406.685,38.7 406.425,39.61 406.295,40.65 C406.035,42.34 405.775,44.16 405.775,45.85 C405.645,47.93 404.475,49.62 404.735,51.83 C404.995,53.13 404.605,54.43 404.475,55.86 C404.215,58.33 404.085,60.93 403.695,63.4 C403.175,65.74 402.135,68.08 400.445,69.9 C399.795,70.68 398.885,71.2 398.235,71.98 C397.065,73.28 395.635,74.19 394.075,74.71 C393.425,74.84 392.515,74.84 391.865,74.58 C391.085,74.19 391.085,73.41 391.085,72.63 C391.215,70.16 390.305,67.56 390.955,65.09 C391.345,63.66 391.735,62.36 392.255,61.06 C392.645,59.76 393.035,58.46 393.425,57.29 C393.685,56.51 393.815,55.6 394.205,54.95 C395.245,52.87 396.415,50.79 397.455,48.84 C397.975,47.8 398.495,46.63 399.145,45.59 C400.185,44.03 400.705,42.21 401.095,40.26 C401.225,39.22 401.745,38.96 402.655,39.61 C403.175,40 403.695,40.39 404.215,39.74 C404.735,39.22 404.995,38.57 404.475,37.92 C404.085,37.4 403.955,37.01 403.565,36.62 C402.395,34.93 401.355,33.24 399.015,32.98 C398.365,32.98 397.585,32.46 396.935,32.98 C396.805,33.11 396.675,32.98 396.415,32.98 C396.155,32.98 395.765,32.85 395.505,32.98 C394.075,34.28 392.645,35.45 391.215,36.88 C390.045,38.05 389.005,39.35 388.095,40.65 C386.925,42.21 385.755,43.64 384.715,45.2 C383.545,46.89 382.895,48.84 382.245,50.66 C381.855,52.09 381.335,53.39 380.945,54.69 C380.685,55.6 380.295,56.38 380.295,57.16 C380.035,58.46 380.035,59.76 379.905,60.93 C379.905,61.71 379.775,62.36 379.905,63.01 C380.425,65.09 380.685,67.3 381.855,69.25 C382.895,70.68 383.935,72.11 384.975,73.67 C385.885,75.1 387.445,75.62 388.875,76.53 C391.085,77.96 393.685,78.22 396.155,78.61 C397.585,78.87 398.495,78.09 398.625,77.05 C398.625,76.27 399.015,76.01 399.535,75.88 C399.795,75.75 400.055,75.75 400.185,75.49 C401.095,74.45 402.785,73.93 403.045,72.24 C403.305,72.63 403.305,72.89 403.305,73.15 L403.305,76.4 C403.175,77.83 403.305,79.26 403.175,80.82 C403.045,82.51 402.915,84.2 402.655,85.89 C402.655,86.41 402.265,87.06 401.875,87.45 C400.575,88.62 399.015,89.66 397.845,90.83 C395.895,92.78 394.075,94.99 392.255,97.07 C391.735,97.72 391.215,98.5 390.825,99.28 C389.915,101.36 390.175,103.83 390.305,106.17 C390.305,106.3 390.305,106.43 390.435,106.56 L392.775,110.07 C393.815,111.63 395.505,112.41 397.195,112.8 C398.365,113.06 399.275,112.93 400.185,112.41 C401.355,111.76 402.005,110.72 402.525,109.55 C402.785,108.9 402.915,108.12 403.305,107.47 C404.085,106.17 405.385,105.39 406.425,104.35 C406.815,103.96 407.335,103.57 407.465,102.92 C407.725,102.01 407.855,100.84 407.985,99.8 C408.115,98.76 408.245,97.59 408.375,96.55 C408.635,94.86 409.285,93.3 409.285,91.74 C409.285,89.4 410.065,87.45 410.585,85.37 C410.585,85.11 410.845,84.85 411.105,84.72 C413.965,82.25 417.085,79.91 419.945,77.44 C421.245,76.4 422.155,74.84 423.195,73.67 C423.585,73.28 434.765,60.15 433.985,59.89 C432.815,59.5 432.295,59.63 431.515,60.41 C428.655,63.66 425.925,66.91 422.935,70.03 C420.985,72.11 418.775,74.06 416.695,76.01 C416.045,76.66 415.135,77.18 414.355,77.83 Z M402.005,92.52 C401.875,93.82 401.745,95.25 401.615,96.55 C401.485,98.63 401.485,100.71 401.225,102.79 C401.095,104.48 400.835,106.04 400.315,107.6 C400.055,108.77 397.975,109.16 396.805,108.9 C394.465,108.38 393.555,106.43 392.255,104.87 C392.125,104.74 391.995,104.48 391.995,104.35 C392.125,103.31 392.125,102.4 392.385,101.49 C392.385,101.1 392.905,100.84 393.165,100.58 C393.685,100.19 394.205,99.93 394.595,99.41 C395.505,98.5 396.285,97.59 397.195,96.68 C397.585,96.29 398.235,96.03 398.625,95.64 C398.885,95.51 399.015,95.25 399.145,95.12 L401.875,92.39 L402.005,92.52 Z" id="Combined-Shape"></path>
            <path d="M440.875,65.74 L439.835,65.74 C437.885,65.74 436.325,66.26 435.805,67.82 C435.285,68.73 435.285,70.29 435.285,71.33 C435.285,73.67 435.285,73.67 436.845,74.19 C437.365,74.19 437.885,74.71 438.405,75.23 C439.315,75.62 440.875,76.66 441.915,77.18 C444.255,78.22 445.685,77.7 446.725,75.62 C447.245,74.71 447.245,73.67 448.285,72.63 C448.805,70.81 448.805,68.73 447.765,67.82 C445.685,66.26 443.735,65.74 440.875,65.74 Z" id="celebrating."></path>
        </g>
    </g>
</svg>