<?xml version="1.0" encoding="UTF-8" standalone="no"?>
<svg width="303px" height="105px" viewBox="0 0 303 105" version="1.1" xmlns="http://www.w3.org/2000/svg" xmlns:xlink="http://www.w3.org/1999/xlink">
    <!-- Generator: Sketch 40.3 (33839) - http://www.bohemiancoding.com/sketch -->
    <title>Couples</title>
    <desc>Created with Sketch.</desc>
    <defs></defs>
    <g id="About-Us-4" stroke="none" stroke-width="1" fill="none" fill-rule="evenodd">
        <g id="Couples" fill="#3E3436">
            <path d="M273.235,70.75 C273.755,70.62 272.715,70.88 273.235,70.75 L273.235,70.75 Z" id="couples.-copy"></path>
            <path d="M21.165,30.97 C21.685,31.75 22.075,32.14 22.465,32.66 C23.375,34.09 26.755,32.14 26.365,31.1 C25.975,30.45 25.455,29.8 25.065,29.15 C24.805,28.76 24.545,26.94 24.415,26.55 C23.505,24.08 23.375,24.47 22.725,23.43 C21.035,22.91 19.345,22.52 17.135,23.3 C16.355,23.56 15.575,24.21 14.925,24.86 C14.405,25.25 13.625,25.38 13.235,26.29 C13.105,26.81 12.195,27.07 11.805,27.46 C10.765,28.5 9.985,29.67 8.945,30.71 C7.775,31.88 7.255,33.31 6.345,34.74 C5.565,36.04 4.785,37.34 4.265,38.77 C3.485,40.72 2.965,42.67 2.315,44.62 C2.055,45.66 1.795,46.7 1.665,47.74 C1.405,48.91 1.145,50.21 1.145,51.38 C1.015,53.33 0.755,55.15 1.015,56.97 C1.145,59.31 1.665,61.52 2.315,63.73 C2.705,65.16 3.225,66.72 4.135,67.76 C5.565,69.45 7.125,71.01 8.815,72.31 C10.635,73.74 12.455,75.04 14.925,75.3 C16.355,75.3 17.655,75.56 18.955,75.69 C20.385,75.82 21.815,75.95 23.115,75.3 C25.065,74.39 26.625,72.83 28.055,71.27 C28.835,70.49 29.225,69.58 29.355,68.54 C29.485,67.37 30.005,66.46 30.785,65.68 C31.825,64.64 32.735,63.73 33.515,62.56 C34.035,62.04 34.165,61.26 34.685,60.74 C35.465,59.57 36.505,58.4 37.285,57.23 C38.065,56.06 38.585,54.76 39.625,53.72 C40.795,50.73 41.705,50.21 41.965,47.74 C42.095,46.96 41.835,46.7 41.185,46.7 C40.405,46.7 39.625,46.83 39.625,47.35 C39.625,47.87 38.715,49.04 38.585,49.56 C37.545,52.68 35.985,54.63 34.165,57.23 C32.475,59.96 30.785,62.56 28.965,65.16 C28.055,66.59 27.015,68.02 25.845,69.19 C24.285,70.62 22.855,71.92 20.775,72.57 C19.085,73.09 17.655,73.22 15.965,72.96 C15.575,72.83 15.185,72.83 14.925,72.7 C12.325,71.27 11.025,68.8 10.635,66.2 C9.985,62.95 9.725,59.44 10.765,56.19 C11.285,54.76 12.065,53.33 12.715,51.9 C13.365,50.47 14.275,49.17 14.925,47.87 C15.575,46.31 16.225,44.88 16.615,43.19 C16.875,41.76 17.525,40.46 18.045,39.16 C18.565,37.86 19.085,36.56 19.605,35.26 C20.125,33.96 20.645,32.53 21.165,30.97 L21.165,30.97 Z" id="Path"></path>
            <path d="M70.955,56.19 L70.955,51.77 C70.825,50.6 70.695,49.3 70.565,48.13 C70.435,47.48 70.305,46.96 70.305,46.31 C70.435,43.84 69.915,41.5 68.355,39.42 C67.835,38.77 67.185,38.25 66.535,37.6 C65.755,36.56 64.585,36.43 63.545,36.04 C62.895,35.91 61.985,36.3 61.335,36.56 C60.815,36.69 60.555,36.82 60.165,36.3 C59.645,35.26 58.995,34.35 58.475,33.44 C57.695,32.27 56.915,31.36 55.355,31.23 C53.795,30.97 52.235,30.84 50.935,31.88 C50.415,32.27 50.025,32.79 49.375,33.05 C47.425,33.7 45.995,35.13 44.825,36.56 C43.525,38.38 42.355,40.2 41.315,42.15 C40.275,43.97 39.235,45.92 38.715,47.87 C38.195,50.21 37.675,52.55 38.455,55.02 C38.715,56.19 38.715,57.49 39.105,58.79 C39.755,61.13 41.185,63.08 43.135,64.77 C45.085,66.33 46.905,68.15 49.375,69.32 C50.415,69.71 51.325,70.36 52.365,70.88 C53.665,71.4 54.965,71.79 56.265,72.18 C57.435,72.44 58.475,72.83 59.645,72.83 C61.465,73.09 63.155,72.96 64.845,72.05 C66.405,71.14 67.315,69.84 67.315,68.15 C67.315,66.33 67.705,64.51 68.615,62.82 C69.135,62.04 69.525,61.13 69.785,60.09 C69.915,59.57 70.175,59.44 70.695,59.44 C72.515,59.18 82.915,52.29 86.555,37.47 C86.815,36.43 86.425,36.69 86.165,35.78 C85.255,37.73 84.345,39.55 83.565,41.5 C82.265,44.62 80.835,45.92 79.015,48.78 C77.975,50.47 76.025,52.94 74.855,54.5 C73.815,55.67 72.255,55.02 70.955,56.19 Z M56.395,45.79 C57.825,51.51 61.205,55.54 66.405,58.01 C65.885,61 63.935,62.82 61.725,64.51 C60.945,65.16 60.035,65.94 58.995,65.81 C57.175,65.55 55.225,65.16 54.055,63.6 C53.535,63.08 53.405,62.04 53.405,61.13 C53.405,59.96 53.405,58.79 53.015,57.75 C52.755,56.97 52.755,56.19 52.755,55.41 C52.625,53.07 53.145,50.99 54.055,48.91 C54.445,47.74 55.355,46.83 56.005,45.79 L56.395,45.79 Z M66.665,54.5 C66.405,53.85 66.145,53.2 65.755,52.55 C65.235,51.38 64.585,50.21 63.935,49.04 C63.675,48.52 63.415,47.87 63.025,47.35 C62.895,46.96 62.635,46.57 62.375,46.31 C61.205,44.88 60.425,43.32 60.035,41.76 C59.905,40.98 60.425,40.2 60.685,39.42 C60.815,39.29 61.205,39.16 61.465,39.29 C63.415,39.81 66.405,42.02 66.665,44.62 C66.795,46.44 67.445,48.13 67.315,49.95 C67.315,51.38 67.315,52.94 67.185,54.5 L66.665,54.5 Z" id="Combined-Shape"></path>
            <path d="M76.805,36.82 C76.935,36.82 76.935,36.95 76.935,37.08 C77.585,36.82 78.235,36.69 78.755,36.3 C79.795,35.65 80.705,34.74 81.615,33.83 C82.005,33.57 82.265,33.44 82.395,34.09 C82.525,35.52 82.785,36.95 82.785,38.38 C82.785,41.5 82.655,44.62 82.655,47.74 C82.655,49.95 82.785,52.16 82.785,54.37 C82.785,55.02 82.525,55.67 82.525,56.19 C82.525,58.53 82.655,60.87 82.655,63.08 C82.785,65.29 83.045,67.37 84.475,69.19 C84.865,69.58 85.255,70.1 85.645,70.49 C87.465,71.79 89.285,71.4 91.105,70.36 C92.665,69.45 94.225,68.41 95.655,67.11 C96.955,65.94 98.515,64.77 99.295,63.34 C100.985,60.48 102.285,57.49 103.715,54.5 C103.975,53.85 104.365,53.07 104.625,52.42 C104.755,52.42 104.885,52.42 104.885,52.55 C105.015,53.33 105.015,54.24 105.145,55.15 C105.275,56.84 105.275,58.53 105.535,60.22 C105.535,61 105.665,61.65 105.925,62.43 C106.055,63.47 106.315,64.64 106.705,65.68 C107.615,68.28 109.435,70.1 111.515,71.66 C113.075,72.7 112.945,73.61 114.765,73.74 C115.805,73.87 116.325,72.96 117.105,72.7 C117.755,72.44 118.275,72.05 118.535,71.27 C118.665,71.01 118.925,70.75 119.055,70.75 C119.965,70.49 120.615,69.84 121.005,68.93 C121.265,68.67 121.525,68.28 121.785,68.15 C123.085,67.11 124.125,66.07 124.645,64.51 C125.035,63.73 125.295,62.82 125.815,62.17 C127.505,59.57 128.805,56.71 129.845,53.85 C130.105,53.33 130.365,52.81 129.845,52.29 C129.715,52.16 129.715,51.64 129.845,51.51 C130.885,50.34 131.145,48.91 131.275,47.48 C131.405,46.05 132.965,44.62 131.535,43.58 C131.405,43.97 131.275,44.1 131.275,44.36 C130.625,46.7 130.235,49.04 129.065,51.25 C128.025,53.33 127.115,55.54 126.075,57.62 C125.295,59.05 124.385,60.35 123.605,61.65 C121.915,64.38 119.835,66.72 117.495,68.93 C117.365,69.06 116.975,69.19 116.585,69.32 C116.715,68.15 116.845,67.24 116.975,66.2 C117.365,64.9 118.015,63.73 117.365,62.3 C117.365,61.91 117.365,61.52 117.495,61.13 C117.625,59.57 117.755,57.88 117.885,56.32 C118.015,54.76 117.885,53.2 117.885,51.51 C117.885,48.26 117.885,45.01 117.755,41.63 C117.755,40.85 117.495,40.07 117.365,39.29 C117.365,38.38 116.975,37.47 116.585,36.69 C116.195,36.17 116.065,35.52 115.545,35.13 C114.635,34.35 113.465,33.57 112.425,32.79 C111.255,32.01 110.215,32.4 108.915,32.4 C107.355,32.66 107.095,34.22 105.925,34.74 L105.925,35 C105.795,35.91 105.795,36.82 105.665,37.73 C105.665,39.03 105.665,40.46 105.405,41.76 C104.885,43.97 104.365,46.05 103.585,48.26 C102.545,50.73 101.505,53.33 100.335,55.67 C98.775,58.4 97.085,61 95.395,63.47 C94.745,64.38 93.965,65.03 93.055,65.94 C93.315,64.38 93.315,63.08 93.705,61.65 C94.225,58.79 94.095,55.93 94.225,52.94 C94.355,51.12 94.485,49.17 94.485,47.35 C94.355,45.92 94.095,44.49 93.965,43.06 C93.835,41.89 93.575,40.72 93.575,39.55 C93.705,36.82 93.575,34.09 91.885,31.75 C90.845,30.32 89.675,29.02 87.985,28.37 C86.555,27.72 85.125,27.85 83.695,28.24 C82.395,28.5 81.485,29.15 81.225,30.58 C81.225,30.58 81.225,30.71 81.095,30.84 C79.925,32.4 78.625,34.09 77.455,35.65 C77.195,36.04 77.065,36.43 76.805,36.82 L76.805,36.82 Z" id="Path"></path>
            <path d="M124.775,103.77 C125.165,103.77 125.295,103.77 125.295,103.9 C126.855,103.9 128.545,103.77 129.975,104.16 C133.225,105.07 135.825,104.03 138.165,102.08 C138.425,101.82 138.685,101.43 138.685,101.04 C139.335,98.7 141.285,88.43 141.675,86.09 C141.805,85.7 141.675,85.18 141.675,84.79 C141.805,83.49 142.065,82.32 142.195,81.15 C142.455,78.55 142.585,75.95 142.715,73.35 C142.845,71.27 142.845,69.19 142.845,67.11 C142.845,66.33 142.975,65.42 142.975,64.51 C143.105,63.34 143.105,62.3 143.105,61.13 C143.105,59.7 143.105,58.27 142.975,56.97 C142.845,54.76 142.585,52.42 142.455,50.21 C142.325,49.95 142.455,49.69 142.585,49.43 C143.885,47.74 145.055,45.92 146.485,44.36 C149.085,41.37 152.335,38.9 155.455,36.56 C156.235,36.04 157.405,35.91 158.315,35.65 C158.445,35.65 158.705,35.91 158.835,36.04 C159.485,36.95 160.395,37.86 160.785,39.03 C161.305,40.33 161.565,41.89 161.435,43.32 C161.045,45.79 160.785,48.39 159.875,50.86 C159.355,52.16 158.705,53.2 157.535,53.85 C156.495,54.37 155.455,55.02 154.545,55.67 C153.375,56.32 152.465,57.36 151.295,57.88 C148.045,59.44 145.835,61.91 145.055,65.42 C144.665,66.85 145.315,68.8 146.745,69.58 C148.695,70.75 150.905,71.4 153.115,71.79 C153.765,71.92 154.675,72.18 155.195,72.57 C156.495,73.74 157.925,73.87 159.615,73.61 C160.135,73.48 160.785,73.35 161.305,73.35 C162.995,73.22 164.295,72.57 165.205,71.14 C165.855,70.23 166.765,69.32 167.545,68.54 C168.065,68.02 168.845,67.5 169.365,66.98 C170.795,65.16 172.225,63.34 172.745,61 C172.875,59.83 173.265,58.79 173.395,57.62 C173.655,55.54 173.785,51.64 173.915,49.56 C173.915,49.3 174.175,48.78 174.435,48.65 C176.775,47.35 177.945,46.05 180.285,44.75 C180.935,44.36 182.755,43.19 183.275,42.67 C184.185,41.63 184.835,41.37 185.615,40.33 C186.785,38.9 186.915,38.9 187.695,37.34 C187.695,37.34 187.695,37.21 187.435,37.08 C183.405,41.37 178.465,44.36 173.395,47.35 C173.135,46.44 172.745,45.79 172.615,45.01 C172.355,43.71 171.575,42.8 170.795,41.89 C169.235,40.2 167.675,38.64 166.115,37.08 C164.945,36.04 163.905,34.87 162.605,34.09 C160.265,32.53 157.665,32.79 155.065,33.57 C152.985,34.22 151.035,35.52 149.475,37.08 C147.135,39.29 144.795,41.76 142.455,44.1 C142.195,44.36 141.935,44.75 141.545,45.14 C141.545,43.71 141.415,42.54 141.285,41.37 C141.155,39.29 141.025,37.08 140.765,34.87 C140.635,34.09 140.635,33.18 140.245,32.4 C139.595,30.58 138.165,29.15 136.735,27.85 C136.215,27.59 135.825,27.2 135.305,26.94 C134.135,26.42 133.095,25.9 131.665,26.42 C130.885,26.68 130.495,27.07 130.495,27.85 C130.365,30.19 130.365,32.53 130.105,34.87 C129.975,36.95 129.585,39.03 129.195,41.11 L129.195,41.37 C129.195,43.06 129.065,44.62 129.065,46.31 C129.065,47.22 128.935,48.13 128.935,49.04 C128.805,49.43 128.935,49.95 128.935,50.34 C128.805,52.29 128.545,54.11 128.415,55.93 C128.285,57.1 128.415,58.4 128.415,59.57 L128.415,63.08 C128.285,63.99 128.415,64.77 128.415,65.55 C128.285,67.11 128.155,68.67 128.025,70.23 C128.025,70.88 128.025,71.66 127.895,72.31 C127.765,73.74 127.635,75.04 127.505,76.47 C127.375,78.42 127.375,80.5 127.245,82.45 C127.115,84.27 126.985,86.09 126.855,87.91 C126.595,90.51 125.035,101.04 124.775,103.77 Z M155.195,59.18 C155.065,59.7 154.805,60.09 154.545,60.61 C154.025,61.39 153.505,62.17 152.855,63.08 C152.075,64.25 150.905,65.03 149.345,64.9 C148.695,64.9 148.175,65.03 147.655,65.03 C149.995,62.82 151.945,60.22 155.195,59.18 Z" id="Combined-Shape"></path>
            <path d="M195.235,69.06 C195.105,69.06 195.105,68.93 194.975,68.93 L194.975,68.41 C194.975,65.55 195.105,62.69 195.105,59.83 C195.105,59.05 194.845,58.27 194.975,57.49 C195.105,55.54 195.235,53.59 195.495,51.64 C195.755,49.3 195.235,46.83 195.755,44.49 C196.145,42.93 196.015,41.37 196.145,39.81 C196.275,38.51 196.535,37.34 196.535,36.17 C196.535,35 197.055,24.21 197.185,23.04 C197.315,20.96 197.575,18.88 197.835,16.67 C197.965,14.98 198.095,13.16 198.095,11.34 C198.225,9.78 198.485,8.35 197.835,6.79 C197.315,5.36 196.535,3.93 195.235,3.15 C194.195,2.63 193.415,1.72 192.115,1.33 C190.295,0.68 188.605,0.29 186.785,0.42 C185.485,0.55 184.705,1.33 184.575,2.5 C184.185,4.71 183.795,6.92 183.535,9.13 C183.275,10.95 183.275,12.77 183.145,14.59 C183.015,16.8 182.755,18.88 182.625,20.96 C182.495,22.91 181.845,34.61 181.715,36.56 C181.585,38.38 181.195,39.94 181.195,41.76 C180.935,44.62 180.805,47.61 180.675,50.6 C180.545,54.24 180.545,58.01 180.415,61.65 C180.415,63.99 180.675,66.46 181.975,68.67 C183.405,70.75 184.705,72.83 187.305,73.61 C188.215,73.87 189.125,74.13 189.905,74.39 C192.505,75.04 194.325,74 195.885,72.31 C197.315,70.75 198.355,68.93 199.655,67.24 C201.345,64.9 202.515,61.91 204.205,59.44 C206.025,56.71 207.715,53.85 209.405,50.99 C209.925,50.21 210.185,49.3 210.575,48.39 C210.835,47.61 210.835,46.7 211.095,45.92 C211.615,44.75 212.525,44.88 211.095,44.49 C210.835,44.49 210.315,44.49 210.185,44.75 C209.665,45.79 209.275,46.83 208.755,47.87 C208.495,48.52 208.495,49.17 208.105,49.82 C207.715,50.73 206.675,52.68 206.285,53.59 C203.425,58.79 200.175,62.69 196.665,67.5 C196.145,68.02 195.755,68.54 195.235,69.06 L195.235,69.06 Z" id="Path"></path>
            <path d="M205.635,58.92 C205.635,59.05 205.765,59.05 205.765,59.05 C205.635,61.52 206.545,63.86 207.585,66.07 C208.105,66.98 208.625,67.76 209.275,68.54 C210.575,70.23 212.135,71.79 214.085,72.7 C216.295,73.61 218.505,74.13 220.845,73.87 C221.625,73.74 222.405,73.74 223.185,73.61 C223.575,73.61 224.095,73.48 224.615,73.35 C225.395,73.09 226.175,72.96 226.955,72.57 C227.605,72.31 228.125,71.79 228.775,71.4 C229.555,70.88 230.465,70.49 231.245,69.97 C232.675,69.06 233.585,67.76 234.495,66.2 C234.885,65.42 235.275,64.64 235.925,63.99 C237.355,62.82 238.265,61.26 239.175,59.7 C239.435,59.18 239.955,58.79 240.085,58.27 C240.345,56.97 241.255,56.32 242.035,55.41 C242.295,55.28 242.555,54.89 242.685,54.63 C242.945,53.98 243.205,53.33 243.465,52.68 C243.725,52.16 243.855,51.77 243.985,51.25 C243.985,50.6 244.115,50.08 244.635,49.56 C245.415,48.52 246.585,48.13 246.975,46.7 C247.235,45.92 247.105,44.75 246.455,44.49 C246.195,44.36 245.805,44.49 245.675,44.62 C245.155,45.4 244.635,46.31 244.115,47.22 C242.425,50.08 240.735,52.94 239.045,55.67 C238.005,57.23 236.705,58.79 235.665,60.35 C234.365,62.56 232.415,64.25 230.335,65.81 C229.035,66.98 227.475,67.76 226.045,68.8 C224.875,69.71 223.575,70.49 222.145,70.62 C220.845,70.88 219.415,71.14 217.985,71.01 C215.905,70.88 214.735,69.71 213.565,68.28 C213.565,68.15 213.435,67.89 213.435,67.76 C214.085,66.59 214.215,65.16 214.475,63.86 C214.865,62.17 215.255,60.35 215.775,58.79 C215.905,58.01 216.295,57.23 216.945,56.97 C218.115,56.19 219.415,55.54 220.585,54.63 C221.885,53.46 223.445,52.42 224.875,51.25 C226.565,49.95 227.995,48.39 229.165,46.57 C229.425,46.18 229.945,45.92 230.465,45.66 C230.595,45.53 230.855,45.4 230.855,45.27 C231.375,44.36 231.765,43.58 232.285,42.67 C232.545,42.15 232.935,41.63 233.195,41.11 C233.325,40.85 233.585,40.59 233.585,40.46 C233.845,39.94 233.975,39.29 233.975,38.77 C234.235,37.86 234.365,36.95 234.495,36.04 C234.495,35.91 234.365,35.65 234.365,35.52 C233.975,34.74 233.585,34.09 233.195,33.31 C232.935,32.79 232.675,32.27 232.545,31.62 C232.155,30.58 231.505,29.93 230.595,29.28 C229.815,28.76 228.905,28.76 228.125,28.63 C226.955,28.24 226.045,28.63 225.265,28.89 C224.095,29.28 222.925,29.54 222.015,30.58 C221.755,30.84 221.495,30.97 221.235,31.1 C220.325,31.62 219.285,32.01 218.505,32.79 C217.335,33.7 216.295,34.87 215.255,36.04 C214.735,36.43 214.345,37.08 213.825,37.6 C213.435,37.99 213.175,38.51 212.785,39.03 C212.265,39.94 211.615,40.85 211.095,41.76 C210.185,43.32 209.405,44.88 208.755,46.57 C208.105,48.13 207.455,49.69 207.195,51.51 C207.065,51.9 206.805,52.16 206.675,52.55 C206.545,53.33 206.415,53.98 206.415,54.63 C206.155,56.06 205.895,57.49 205.635,58.92 Z M229.555,36.3 C229.945,37.08 230.465,37.34 231.375,37.08 C231.245,37.86 231.245,38.51 230.985,39.16 C230.205,41.76 229.295,44.23 227.475,46.18 C225.915,47.87 224.225,49.43 222.535,50.86 C221.365,51.9 219.935,52.68 218.635,53.59 C218.375,53.72 218.245,53.85 218.115,53.85 C218.635,52.29 219.155,50.86 219.805,49.3 C220.065,48.39 220.325,47.48 220.715,46.57 C221.105,45.79 221.625,45.14 222.015,44.36 C222.275,43.97 222.405,43.58 222.665,43.06 C223.445,41.89 224.225,40.59 225.135,39.29 C225.265,39.03 225.655,38.9 226.045,38.64 C226.825,38.12 227.605,37.6 228.515,37.08 C228.775,36.82 229.165,36.69 229.555,36.3 Z" id="Combined-Shape"></path>
            <path d="M287.535,52.03 C287.015,51.51 287.145,51.9 286.495,51.64 C286.105,52.42 285.975,52.94 285.715,53.33 C282.985,57.88 280.255,62.43 275.835,66.07 C274.405,67.24 273.235,68.54 271.025,68.93 C270.635,69.06 270.245,69.19 269.855,69.32 C270.115,69.06 270.375,68.8 270.635,68.54 C272.065,67.11 276.225,64.51 275.965,59.57 C275.965,58.79 275.705,58.14 275.445,57.36 C275.055,55.8 274.925,54.24 273.495,52.81 C272.715,52.03 271.935,51.25 271.155,50.34 C270.245,49.3 269.335,48.26 268.295,47.22 C266.475,45.4 264.525,43.71 262.315,42.28 C259.845,40.46 257.375,38.9 255.425,36.69 C253.735,34.87 253.345,34.09 254.385,32.53 C254.775,32.01 255.425,31.62 255.685,30.97 C256.205,29.93 256.465,28.76 256.855,27.59 C256.985,27.2 257.375,26.68 257.635,26.68 C259.065,26.68 257.635,24.08 256.855,23.3 C255.295,22 253.475,21.35 251.785,21.61 C250.225,21.87 248.795,22.39 247.625,23.43 C247.105,23.95 246.325,24.34 245.805,24.86 C245.155,25.51 244.375,26.16 243.985,26.94 C243.205,28.76 243.205,30.71 243.985,32.79 C244.895,35.39 245.935,37.08 247.885,39.16 C247.885,39.16 249.835,41.11 249.965,41.11 C251.395,42.54 253.215,43.84 254.515,45.4 C255.555,46.57 256.985,47.61 257.895,48.78 C259.065,50.34 260.105,52.03 260.885,53.72 C262.055,56.32 262.055,58.79 262.055,61.26 C262.055,62.43 261.535,63.6 261.015,64.64 C259.975,66.85 258.805,68.8 256.205,69.84 C255.945,69.84 255.685,70.1 255.555,70.36 C254.645,71.4 253.475,72.31 251.655,72.18 C251.135,72.05 250.615,71.92 250.225,71.79 C248.665,71.66 247.365,70.88 246.065,69.97 C245.415,69.45 244.505,70.75 244.765,71.27 C245.155,71.92 245.545,72.57 246.455,72.7 C246.715,72.7 246.975,72.96 247.235,73.09 C248.665,73.61 249.965,74.91 251.655,74.39 L251.915,74.39 C252.695,75.04 253.345,74.65 254.125,74.52 C255.425,74.39 261.925,73.22 262.315,73.09 C262.965,72.96 263.615,72.83 264.135,72.57 C264.785,72.18 265.305,71.79 265.955,71.53 C266.995,71.66 268.165,71.66 269.205,71.53 C270.635,71.27 271.935,71.01 273.235,70.75 C274.015,70.49 274.925,69.32 275.575,68.8 C278.045,67.24 279.735,65.16 281.295,63.08 C281.945,62.17 282.205,61.26 282.725,60.48 C284.415,58.01 285.585,55.67 286.885,53.33 C287.275,52.68 288.055,52.42 287.535,52.03 L287.535,52.03 Z" id="Path"></path>
            <path d="M294.555,60.74 L293.515,60.74 C291.565,60.74 290.005,61.26 289.485,62.82 C288.965,63.73 288.965,65.29 288.965,66.33 C288.965,68.67 288.965,68.67 290.525,69.19 C291.045,69.19 291.565,69.71 292.085,70.23 C292.995,70.62 294.555,71.66 295.595,72.18 C297.935,73.22 299.365,72.7 300.405,70.62 C300.925,69.71 300.925,68.67 301.965,67.63 C302.485,65.81 302.485,63.73 301.445,62.82 C299.365,61.26 297.415,60.74 294.555,60.74 L294.555,60.74 Z" id="Path"></path>
        </g>
    </g>
</svg>