<?xml version="1.0" encoding="UTF-8" standalone="no"?>
<svg width="356px" height="126px" viewBox="0 0 356 126" version="1.1" xmlns="http://www.w3.org/2000/svg" xmlns:xlink="http://www.w3.org/1999/xlink">
    <!-- Generator: Sketch 40.3 (33839) - http://www.bohemiancoding.com/sketch -->
    <title>Everyone</title>
    <desc>Created with Sketch.</desc>
    <defs></defs>
    <g id="About-Us-4" stroke="none" stroke-width="1" fill="none" fill-rule="evenodd">
        <g id="Everyone" fill="#3E3436">
            <path d="M0.87,73.92 C0.87,74.05 1,74.05 1,74.05 C0.87,76.52 1.78,78.86 2.82,81.07 C3.34,81.98 3.86,82.76 4.51,83.54 C5.81,85.23 7.37,86.79 9.32,87.7 C11.53,88.61 13.74,89.13 16.08,88.87 C16.86,88.74 17.64,88.74 18.42,88.61 C18.81,88.61 19.33,88.48 19.85,88.35 C20.63,88.09 21.41,87.96 22.19,87.57 C22.84,87.31 23.36,86.79 24.01,86.4 C24.79,85.88 25.7,85.49 26.48,84.97 C27.91,84.06 28.82,82.76 29.73,81.2 C30.12,80.42 30.51,79.64 31.16,78.99 C32.59,77.82 33.5,76.26 34.41,74.7 C34.67,74.18 35.19,73.79 35.32,73.27 C35.58,71.97 36.49,71.32 37.27,70.41 C37.53,70.28 37.79,69.89 37.92,69.63 C38.18,68.98 38.44,68.33 38.7,67.68 C38.96,67.16 39.09,66.77 39.22,66.25 C39.22,65.6 39.35,65.08 39.87,64.56 C40.65,63.52 41.82,63.13 42.21,61.7 C42.47,60.92 42.34,59.75 41.69,59.49 C41.43,59.36 41.04,59.49 40.91,59.62 C40.39,60.4 39.87,61.31 39.35,62.22 C37.66,65.08 35.97,67.94 34.28,70.67 C33.24,72.23 31.94,73.79 30.9,75.35 C29.6,77.56 27.65,79.25 25.57,80.81 C24.27,81.98 22.71,82.76 21.28,83.8 C20.11,84.71 18.81,85.49 17.38,85.62 C16.08,85.88 14.65,86.14 13.22,86.01 C11.14,85.88 9.97,84.71 8.8,83.28 C8.8,83.15 8.67,82.89 8.67,82.76 C9.32,81.59 9.45,80.16 9.71,78.86 C10.1,77.17 10.49,75.35 11.01,73.79 C11.14,73.01 11.53,72.23 12.18,71.97 C13.35,71.19 14.65,70.54 15.82,69.63 C17.12,68.46 18.68,67.42 20.11,66.25 C21.8,64.95 23.23,63.39 24.4,61.57 C24.66,61.18 25.18,60.92 25.7,60.66 C25.83,60.53 26.09,60.4 26.09,60.27 C26.61,59.36 27,58.58 27.52,57.67 C27.78,57.15 28.17,56.63 28.43,56.11 C28.56,55.85 28.82,55.59 28.82,55.46 C29.08,54.94 29.21,54.29 29.21,53.77 C29.47,52.86 29.6,51.95 29.73,51.04 C29.73,50.91 29.6,50.65 29.6,50.52 C29.21,49.74 28.82,49.09 28.43,48.31 C28.17,47.79 27.91,47.27 27.78,46.62 C27.39,45.58 26.74,44.93 25.83,44.28 C25.05,43.76 24.14,43.76 23.36,43.63 C22.19,43.24 21.28,43.63 20.5,43.89 C19.33,44.28 18.16,44.54 17.25,45.58 C16.99,45.84 16.73,45.97 16.47,46.1 C15.56,46.62 14.52,47.01 13.74,47.79 C12.57,48.7 11.53,49.87 10.49,51.04 C9.97,51.43 9.58,52.08 9.06,52.6 C8.67,52.99 8.41,53.51 8.02,54.03 C7.5,54.94 6.85,55.85 6.33,56.76 C5.42,58.32 4.64,59.88 3.99,61.57 C3.34,63.13 2.69,64.69 2.43,66.51 C2.3,66.9 2.04,67.16 1.91,67.55 C1.78,68.33 1.65,68.98 1.65,69.63 C1.39,71.06 1.13,72.49 0.87,73.92 Z M24.79,51.3 C25.18,52.08 25.7,52.34 26.61,52.08 C26.48,52.86 26.48,53.51 26.22,54.16 C25.44,56.76 24.53,59.23 22.71,61.18 C21.15,62.87 19.46,64.43 17.77,65.86 C16.6,66.9 15.17,67.68 13.87,68.59 C13.61,68.72 13.48,68.85 13.35,68.85 C13.87,67.29 14.39,65.86 15.04,64.3 C15.3,63.39 15.56,62.48 15.95,61.57 C16.34,60.79 16.86,60.14 17.25,59.36 C17.51,58.97 17.64,58.58 17.9,58.06 C18.68,56.89 19.46,55.59 20.37,54.29 C20.5,54.03 20.89,53.9 21.28,53.64 C22.06,53.12 22.84,52.6 23.75,52.08 C24.01,51.82 24.4,51.69 24.79,51.3 Z" id="Combined-Shape"></path>
            <path d="M62.23,76.65 C62.1,76.39 61.84,76.13 61.84,76 C61.19,74.31 60.67,72.75 60.15,71.06 C59.5,69.24 58.85,67.29 58.2,65.47 C57.68,63.91 57.29,62.35 56.64,60.92 C55.86,58.97 54.95,57.15 54.17,55.2 C53.39,53.25 52.61,51.17 51.31,49.35 C50.01,47.66 48.71,45.97 46.37,45.32 C45.72,45.06 44.94,44.8 44.16,44.67 C42.6,44.28 41.04,44.28 39.61,44.8 C38.57,45.19 37.53,45.71 36.49,46.36 C34.93,47.27 34.93,47.79 35.71,49.22 C36.23,50.26 36.75,51.17 37.14,52.21 C37.66,53.25 37.92,54.29 38.44,55.33 C39.22,57.28 40.13,59.1 40.91,61.05 C41.69,63.39 42.21,65.73 42.86,67.94 C43.64,70.41 44.55,72.75 45.33,75.09 C46.11,77.3 47.02,79.38 47.8,81.59 C48.06,82.11 48.32,82.63 48.45,83.15 C48.84,84.45 49.62,85.36 50.66,85.88 C51.7,86.4 52.74,86.79 53.91,87.05 C55.6,87.44 57.55,87.7 59.37,87.96 C60.54,88.09 61.71,87.83 62.75,87.05 C63.53,86.53 64.18,85.88 63.92,84.84 C63.79,84.19 63.53,83.67 63.53,83.15 C63.66,82.5 63.66,81.72 64.05,81.07 C64.44,80.29 64.44,77.82 64.83,77.04 C65.87,74.96 66.78,73.01 67.82,71.06 C69.25,68.46 70.68,65.86 72.11,63.26 C73.02,61.57 73.8,59.88 74.71,58.19 C76.14,55.59 77.57,52.99 79,50.39 C79.52,49.48 79.91,48.57 80.17,47.66 C80.56,46.49 80.95,45.19 81.21,44.02 C81.34,43.89 81.47,43.76 81.6,43.63 C82.12,42.85 82.64,42.2 83.03,41.42 C83.55,40.51 83.81,39.34 84.33,38.43 C84.98,37.13 86.02,38.04 84.72,36.87 C84.33,36.61 84.33,36.48 83.94,36.87 C83.03,38.3 82.12,39.73 81.21,41.16 C80.04,43.11 78.87,45.06 77.7,47.14 C76.66,48.83 75.88,50.65 74.84,52.34 C74.06,53.9 73.02,55.46 72.37,57.02 C70.68,60.66 68.6,64.17 66.65,67.68 C65.74,69.24 65.09,70.67 64.31,72.23 C63.66,73.66 63.01,75.09 62.23,76.65 L62.23,76.65 Z" id="Path"></path>
            <path d="M76.27,73.92 C76.27,74.05 76.4,74.05 76.4,74.05 C76.27,76.52 77.18,78.86 78.22,81.07 C78.74,81.98 79.26,82.76 79.91,83.54 C81.21,85.23 82.77,86.79 84.72,87.7 C86.93,88.61 89.14,89.13 91.48,88.87 C92.26,88.74 93.04,88.74 93.82,88.61 C94.21,88.61 94.73,88.48 95.25,88.35 C96.03,88.09 96.81,87.96 97.59,87.57 C98.24,87.31 98.76,86.79 99.41,86.4 C100.19,85.88 101.1,85.49 101.88,84.97 C103.31,84.06 104.22,82.76 105.13,81.2 C105.52,80.42 105.91,79.64 106.56,78.99 C107.99,77.82 108.9,76.26 109.81,74.7 C110.07,74.18 110.59,73.79 110.72,73.27 C110.98,71.97 111.89,71.32 112.67,70.41 C112.93,70.28 113.19,69.89 113.32,69.63 C113.58,68.98 113.84,68.33 114.1,67.68 C114.36,67.16 114.49,66.77 114.62,66.25 C114.62,65.6 114.75,65.08 115.27,64.56 C116.05,63.52 117.22,63.13 117.61,61.7 C117.87,60.92 117.74,59.75 117.09,59.49 C116.83,59.36 116.44,59.49 116.31,59.62 C115.79,60.4 115.27,61.31 114.75,62.22 C113.06,65.08 111.37,67.94 109.68,70.67 C108.64,72.23 107.34,73.79 106.3,75.35 C105,77.56 103.05,79.25 100.97,80.81 C99.67,81.98 98.11,82.76 96.68,83.8 C95.51,84.71 94.21,85.49 92.78,85.62 C91.48,85.88 90.05,86.14 88.62,86.01 C86.54,85.88 85.37,84.71 84.2,83.28 C84.2,83.15 84.07,82.89 84.07,82.76 C84.72,81.59 84.85,80.16 85.11,78.86 C85.5,77.17 85.89,75.35 86.41,73.79 C86.54,73.01 86.93,72.23 87.58,71.97 C88.75,71.19 90.05,70.54 91.22,69.63 C92.52,68.46 94.08,67.42 95.51,66.25 C97.2,64.95 98.63,63.39 99.8,61.57 C100.06,61.18 100.58,60.92 101.1,60.66 C101.23,60.53 101.49,60.4 101.49,60.27 C102.01,59.36 102.4,58.58 102.92,57.67 C103.18,57.15 103.57,56.63 103.83,56.11 C103.96,55.85 104.22,55.59 104.22,55.46 C104.48,54.94 104.61,54.29 104.61,53.77 C104.87,52.86 105,51.95 105.13,51.04 C105.13,50.91 105,50.65 105,50.52 C104.61,49.74 104.22,49.09 103.83,48.31 C103.57,47.79 103.31,47.27 103.18,46.62 C102.79,45.58 102.14,44.93 101.23,44.28 C100.45,43.76 99.54,43.76 98.76,43.63 C97.59,43.24 96.68,43.63 95.9,43.89 C94.73,44.28 93.56,44.54 92.65,45.58 C92.39,45.84 92.13,45.97 91.87,46.1 C90.96,46.62 89.92,47.01 89.14,47.79 C87.97,48.7 86.93,49.87 85.89,51.04 C85.37,51.43 84.98,52.08 84.46,52.6 C84.07,52.99 83.81,53.51 83.42,54.03 C82.9,54.94 82.25,55.85 81.73,56.76 C80.82,58.32 80.04,59.88 79.39,61.57 C78.74,63.13 78.09,64.69 77.83,66.51 C77.7,66.9 77.44,67.16 77.31,67.55 C77.18,68.33 77.05,68.98 77.05,69.63 C76.79,71.06 76.53,72.49 76.27,73.92 Z M100.19,51.3 C100.58,52.08 101.1,52.34 102.01,52.08 C101.88,52.86 101.88,53.51 101.62,54.16 C100.84,56.76 99.93,59.23 98.11,61.18 C96.55,62.87 94.86,64.43 93.17,65.86 C92,66.9 90.57,67.68 89.27,68.59 C89.01,68.72 88.88,68.85 88.75,68.85 C89.27,67.29 89.79,65.86 90.44,64.3 C90.7,63.39 90.96,62.48 91.35,61.57 C91.74,60.79 92.26,60.14 92.65,59.36 C92.91,58.97 93.04,58.58 93.3,58.06 C94.08,56.89 94.86,55.59 95.77,54.29 C95.9,54.03 96.29,53.9 96.68,53.64 C97.46,53.12 98.24,52.6 99.15,52.08 C99.41,51.82 99.8,51.69 100.19,51.3 Z" id="Combined-Shape"></path>
            <path d="M134.77,85.49 C137.11,84.58 137.63,82.24 136.85,80.55 C136.46,79.77 136.59,79.12 136.98,78.6 C137.63,77.82 137.5,77.04 137.5,76.26 C137.37,74.83 137.37,73.4 137.37,71.97 C137.37,71.32 137.63,70.8 138.02,70.28 C139.06,69.11 140.23,68.07 140.75,66.64 C141.27,65.21 141.92,63.91 142.7,62.74 C143.61,61.31 144.26,59.75 144.65,58.06 C144.78,57.41 144.91,56.76 144.78,55.98 C144.52,53.64 143.09,51.82 141.4,50.52 C140.23,49.48 138.41,49.09 136.85,48.44 L136.59,48.44 C134.77,48.7 133.21,49.35 131.78,50.26 C131.13,50.78 130.48,51.3 129.83,51.69 C129.05,51.95 128.27,52.21 127.49,52.34 C126.84,52.34 126.06,52.86 125.54,51.95 C125.28,51.43 124.89,51.04 124.76,50.52 C124.37,49.74 123.85,48.83 123.98,48.18 C124.5,46.62 125.41,45.06 125.93,43.37 C126.58,41.55 127.36,39.73 127.62,37.78 C127.88,35.7 127.75,33.49 127.62,31.41 C127.49,29.33 126.06,28.03 123.98,28.03 C123.46,28.03 122.81,28.16 122.42,28.55 C121.25,29.59 119.95,30.63 119.04,31.93 C117.35,34.4 116.31,37.26 116.31,40.25 C116.18,42.46 116.44,44.8 116.7,47.01 C116.83,48.05 117.22,49.09 117.74,49.87 C118.26,50.52 119.43,51.17 119.17,51.82 C118.39,53.51 117.48,56.76 116.96,58.45 C115.53,62.09 114.1,63.91 112.8,67.55 C112.67,67.94 111.89,69.11 112.02,69.24 C112.54,69.5 112.8,69.11 113.32,68.98 C113.71,68.98 113.71,68.59 113.97,68.2 C114.36,67.68 114.75,66.64 115.27,65.99 C116.44,64.56 119.04,58.84 119.56,56.89 C119.82,56.24 120.86,54.16 120.99,53.25 C121.38,53.51 122.03,54.55 122.29,54.68 C123.2,55.33 123.98,55.85 124.89,56.24 C125.67,56.63 126.45,56.63 127.23,57.02 C127.88,57.28 128.01,57.8 127.75,58.45 C127.62,58.97 127.49,59.62 127.36,60.14 C127.1,61.57 126.84,63.13 126.58,64.69 C126.32,66.77 126.06,68.98 125.93,71.06 C125.93,73.27 125.93,75.35 126.19,77.43 C126.71,81.85 128.66,85.36 132.43,87.83 C133.21,88.48 133.99,89.13 134.9,89.39 C136.72,89.91 138.41,89.39 139.97,88.35 C140.88,87.83 141.66,87.18 142.44,86.66 C144.91,85.1 146.99,83.15 148.55,80.81 C149.33,79.64 149.98,78.47 150.89,77.56 C152.45,76.26 153.36,74.44 154.14,72.75 C154.92,71.19 155.57,69.5 156.22,67.81 C156.35,67.42 156.35,66.9 156.35,66.38 C156.48,65.86 156.48,65.34 156.48,64.82 C156.48,64.43 156.61,64.17 156.61,63.91 C156.61,63.91 156.48,63.78 156.35,63.78 C156.09,64.43 155.83,65.08 155.44,65.73 C153.36,68.98 151.28,72.36 149.2,75.61 C147.9,77.56 146.34,79.51 144.91,81.2 C144.13,82.11 142.96,82.89 142.05,83.67 C140.62,85.1 139.06,86.27 137.24,87.05 C135.42,87.83 134.9,87.57 134.77,85.75 L134.77,85.49 Z M124.89,32.58 C126.45,34.01 124.76,40.51 123.2,42.46 C122.81,40.77 123.07,39.08 123.46,37.52 C123.85,35.96 124.37,34.4 124.89,32.58 Z" id="Combined-Shape"></path>
            <path d="M167.4,80.16 C167.4,78.6 167.4,77.17 167.53,75.74 C167.53,75.35 167.66,74.96 167.92,74.83 C168.83,74.31 169.22,73.66 169.22,72.75 C169.35,71.84 169.22,70.93 169.48,70.02 C170.13,67.29 170,64.56 169.74,61.7 C169.61,60.4 169.74,59.1 169.61,57.67 C169.48,56.37 169.22,55.07 168.83,53.9 C168.31,52.47 167.53,51.17 167.14,49.74 C166.23,47.14 165.06,44.8 162.33,43.37 C160.77,42.46 159.34,42.33 157.91,42.46 C155.31,42.72 153.75,44.41 152.71,46.62 C152.58,46.75 152.58,47.27 152.71,47.4 C153.36,47.79 154.01,48.44 154.66,48.44 C155.44,48.57 156.22,48.31 157,48.18 C157.39,49.74 157.26,51.3 157,52.99 C156.87,55.07 156.61,57.15 156.35,59.23 C156.22,60.14 156.09,61.18 155.96,62.09 C155.83,63.65 155.44,65.08 155.44,66.51 C155.44,68.46 155.57,70.54 155.57,72.49 C155.57,74.96 155.31,77.43 155.18,79.9 C155.18,80.68 155.44,81.46 155.44,82.37 C155.31,83.8 155.83,85.36 156.22,86.79 C156.22,86.92 156.22,87.05 156.35,87.18 C158.04,88.74 159.86,89.78 162.2,89.39 C165.06,88.87 167.27,87.05 169.09,84.97 C170.65,83.28 172.08,81.46 173.51,79.64 C174.42,78.34 175.46,77.04 176.37,75.87 C177.15,74.83 178.06,73.92 178.84,72.88 C178.97,72.88 178.97,73.01 179.1,73.01 C178.97,73.92 178.97,74.7 178.84,75.61 C178.71,77.04 178.71,78.34 178.58,79.77 C178.58,80.68 178.45,81.72 178.45,82.63 C178.06,85.49 177.8,88.35 177.41,91.08 C177.28,92.51 177.41,93.94 176.11,94.85 C175.72,95.11 175.46,95.37 175.2,95.63 C173.64,97.32 172.21,99.01 170.78,100.57 C169.09,102.52 167.4,104.47 165.32,106.03 C165.06,106.16 164.93,106.68 164.67,106.81 C163.37,107.33 162.46,108.37 161.81,109.54 C160.9,111.23 160.38,113.05 160.12,115 C159.73,118.77 160.77,122.54 164.54,124.88 C165.58,125.53 166.75,126.05 168.05,125.53 C168.7,125.27 169.35,124.75 170,124.23 C170.91,123.32 171.95,122.41 172.86,121.5 C172.99,121.5 172.99,121.5 172.99,121.37 C173.51,119.68 174.94,118.64 176.11,117.6 C176.76,116.95 177.54,115.91 177.54,115.13 C177.41,113.57 178.32,112.4 178.84,111.1 C179.62,109.15 180.66,107.59 182.22,106.16 C184.82,104.08 185.86,100.96 186.51,97.71 C186.77,96.28 187.16,94.72 187.55,93.29 C187.94,91.73 188.33,90.17 188.85,88.74 C189.11,88.09 189.37,87.31 189.89,86.79 C190.28,86.14 190.93,85.62 191.45,85.1 C193.01,83.67 194.57,82.37 196.13,81.07 C198.34,79.12 200.29,76.91 201.98,74.57 C202.37,73.92 202.89,73.27 203.02,72.36 C203.15,71.58 202.5,71.45 202.24,70.93 C201.98,71.06 201.72,71.32 201.46,71.58 C201.2,71.84 200.94,72.1 200.68,72.36 C199.25,73.79 197.82,75.09 196.39,76.39 C194.31,78.21 192.23,80.03 190.02,81.85 C189.89,81.72 189.76,81.59 189.76,81.46 C189.89,79.77 190.15,78.21 190.28,76.52 C190.41,74.7 190.8,72.75 190.67,70.93 C190.54,69.37 190.93,67.68 190.02,66.12 C189.76,65.73 189.63,65.34 189.63,64.82 C189.24,63.13 188.98,61.31 188.46,59.62 C188.2,58.84 187.55,57.93 186.9,57.67 C183.65,56.24 181.18,58.45 180.4,61.57 C180.14,62.74 179.75,63.91 179.23,64.95 C178.71,65.99 178.19,66.77 177.54,67.68 C176.5,69.37 175.59,71.06 174.29,72.49 C172.73,74.44 171.04,76.13 169.35,77.95 C168.7,78.6 168.05,79.38 167.4,80.16 Z M176.24,100.31 C176.11,101.48 176.11,102.65 175.98,103.69 C175.85,105.38 175.72,106.94 175.46,108.37 C175.2,109.8 174.81,111.23 174.29,112.53 C173.12,115.65 171.69,118.51 170.39,121.5 C170.39,121.63 170.39,121.89 170.26,121.89 C169.09,122.67 167.92,123.45 166.75,123.97 C166.1,124.23 165.45,123.97 164.8,123.32 C164.02,122.41 164.02,121.37 163.63,120.46 C162.59,117.6 163.11,115.13 164.8,112.92 C165.32,112.27 165.58,111.49 166.1,110.71 C166.36,110.19 166.62,109.8 166.88,109.28 C167.27,108.89 167.53,108.37 168.18,108.11 C168.83,107.98 169.22,107.33 169.61,106.81 C171.04,105.38 172.47,103.95 173.9,102.52 C174.68,101.74 175.46,101.09 176.24,100.31 Z" id="Combined-Shape"></path>
            <path d="M229.28,71.19 L229.28,66.77 C229.15,65.6 229.02,64.3 228.89,63.13 C228.76,62.48 228.63,61.96 228.63,61.31 C228.76,58.84 228.24,56.5 226.68,54.42 C226.16,53.77 225.51,53.25 224.86,52.6 C224.08,51.56 222.91,51.43 221.87,51.04 C221.22,50.91 220.31,51.3 219.66,51.56 C219.14,51.69 218.88,51.82 218.49,51.3 C217.97,50.26 217.32,49.35 216.8,48.44 C216.02,47.27 215.24,46.36 213.68,46.23 C212.12,45.97 210.56,45.84 209.26,46.88 C208.74,47.27 208.35,47.79 207.7,48.05 C205.75,48.7 204.32,50.13 203.15,51.56 C201.85,53.38 200.68,55.2 199.64,57.15 C198.6,58.97 197.56,60.92 197.04,62.87 C196.52,65.21 196,67.55 196.78,70.02 C197.04,71.19 197.04,72.49 197.43,73.79 C198.08,76.13 199.51,78.08 201.46,79.77 C203.41,81.33 205.23,83.15 207.7,84.32 C208.74,84.71 209.65,85.36 210.69,85.88 C211.99,86.4 213.29,86.79 214.59,87.18 C215.76,87.44 216.8,87.83 217.97,87.83 C219.79,88.09 221.48,87.96 223.17,87.05 C224.73,86.14 225.64,84.84 225.64,83.15 C225.64,81.33 226.03,79.51 226.94,77.82 C227.46,77.04 227.85,76.13 228.11,75.09 C228.24,74.57 228.5,74.44 229.02,74.44 C230.84,74.18 241.24,67.29 244.88,52.47 C245.14,51.43 244.75,51.69 244.49,50.78 C243.58,52.73 242.67,54.55 241.89,56.5 C240.59,59.62 239.16,60.92 237.34,63.78 C236.3,65.47 234.35,67.94 233.18,69.5 C232.14,70.67 230.58,70.02 229.28,71.19 Z M214.72,60.79 C216.15,66.51 219.53,70.54 224.73,73.01 C224.21,76 222.26,77.82 220.05,79.51 C219.27,80.16 218.36,80.94 217.32,80.81 C215.5,80.55 213.55,80.16 212.38,78.6 C211.86,78.08 211.73,77.04 211.73,76.13 C211.73,74.96 211.73,73.79 211.34,72.75 C211.08,71.97 211.08,71.19 211.08,70.41 C210.95,68.07 211.47,65.99 212.38,63.91 C212.77,62.74 213.68,61.83 214.33,60.79 L214.72,60.79 Z M224.99,69.5 C224.73,68.85 224.47,68.2 224.08,67.55 C223.56,66.38 222.91,65.21 222.26,64.04 C222,63.52 221.74,62.87 221.35,62.35 C221.22,61.96 220.96,61.57 220.7,61.31 C219.53,59.88 218.75,58.32 218.36,56.76 C218.23,55.98 218.75,55.2 219.01,54.42 C219.14,54.29 219.53,54.16 219.79,54.29 C221.74,54.81 224.73,57.02 224.99,59.62 C225.12,61.44 225.77,63.13 225.64,64.95 C225.64,66.38 225.64,67.94 225.51,69.5 L224.99,69.5 Z" id="Combined-Shape"></path>
            <path d="M256.58,53.38 C256.58,52.47 256.71,51.3 256.58,50.26 C256.58,49.48 256.32,48.83 255.93,48.18 C255.15,46.88 254.24,45.58 252.94,44.67 C251.38,43.5 250.08,42.07 248.26,41.68 C246.57,41.29 245.01,40.64 243.32,41.55 C242.15,42.33 240.85,42.59 241.24,44.41 C241.37,45.58 241.24,46.75 241.24,47.92 C241.11,50 240.85,52.08 240.72,54.16 C240.72,54.81 240.98,55.59 240.85,56.24 C240.85,58.19 240.72,60.14 240.59,62.09 C240.59,63.13 240.46,64.3 240.46,65.34 C240.46,66.25 240.72,67.16 240.72,67.94 C240.59,70.41 240.33,72.75 240.59,75.09 C240.85,76.78 241.11,78.47 241.11,80.03 C241.24,81.33 241.11,82.63 240.98,83.93 C240.98,84.84 241.11,85.49 242.15,85.75 C243.84,86.27 245.53,86.66 247.09,87.44 C248.39,88.09 249.95,88.48 251.38,88.74 C252.94,89.13 254.37,88.22 254.63,87.05 C254.89,85.75 255.02,84.32 255.28,83.02 C255.28,81.98 255.15,80.81 255.54,79.9 C255.93,78.99 255.67,78.08 255.67,77.17 C255.54,76.13 255.54,74.96 255.41,73.79 C255.41,72.75 255.15,71.71 255.15,70.54 C255.02,69.24 254.89,67.94 255.02,66.77 C255.28,64.82 255.54,63 256.06,61.18 C256.45,59.36 257.1,57.54 257.88,55.98 C258.53,54.55 259.57,53.25 260.61,52.08 C261.13,51.43 261.65,50.78 262.43,50.52 C263.47,50.13 264.51,50 265.68,49.87 C266.2,49.61 266.46,49.87 266.33,50.52 C266.2,51.3 266.2,52.21 265.94,52.86 C265.42,54.16 264.64,55.33 264.12,56.63 C263.21,59.23 262.43,61.7 261.65,64.3 C261.26,65.6 260.74,67.03 260.74,68.46 C260.61,69.89 260.09,71.19 260.09,72.62 C260.48,76.13 260.74,79.51 263.73,82.11 C265.29,83.54 266.85,84.84 268.8,85.62 C270.23,86.14 271.53,86.79 273.09,86.01 C273.87,85.62 274.78,85.49 275.56,85.23 C276.21,84.97 276.86,84.84 277.38,84.58 C278.42,84.06 279.33,83.67 280.24,83.02 C282.19,81.85 283.88,80.42 284.79,78.21 C285.31,77.17 286.22,76.26 286.74,75.22 C287.52,73.66 288.17,72.36 289.34,70.41 C290.77,67.94 291.42,65.86 291.94,63.91 C292.07,63.13 292.46,62.09 292.2,61.31 C292.07,60.66 290.25,61.96 289.73,63.39 C289.47,64.17 289.6,64.69 289.34,65.47 C288.56,67.81 286.09,72.1 285.05,74.44 C284.01,77.3 281.54,79.38 278.94,81.33 C278.29,81.85 275.56,82.63 274.78,83.15 L274.78,78.86 L274.78,77.69 C275.3,74.57 275.82,71.58 276.34,68.46 C276.47,68.2 276.6,67.94 276.6,67.81 C277.12,66.64 277.51,65.47 277.9,64.17 C278.16,63.39 278.16,62.48 278.42,61.7 C278.94,60.14 279.07,58.84 278.55,57.28 C277.77,55.07 276.73,53.12 275.17,51.43 C273.48,49.22 271.27,47.79 268.54,47.27 C265.42,46.75 262.82,47.53 260.48,49.74 C259.18,51.04 257.88,52.21 256.58,53.38 L256.58,53.38 Z" id="Path"></path>
            <path d="M287.26,73.92 C287.26,74.05 287.39,74.05 287.39,74.05 C287.26,76.52 288.17,78.86 289.21,81.07 C289.73,81.98 290.25,82.76 290.9,83.54 C292.2,85.23 293.76,86.79 295.71,87.7 C297.92,88.61 300.13,89.13 302.47,88.87 C303.25,88.74 304.03,88.74 304.81,88.61 C305.2,88.61 305.72,88.48 306.24,88.35 C307.02,88.09 307.8,87.96 308.58,87.57 C309.23,87.31 309.75,86.79 310.4,86.4 C311.18,85.88 312.09,85.49 312.87,84.97 C314.3,84.06 315.21,82.76 316.12,81.2 C316.51,80.42 316.9,79.64 317.55,78.99 C318.98,77.82 319.89,76.26 320.8,74.7 C321.06,74.18 321.58,73.79 321.71,73.27 C321.97,71.97 322.88,71.32 323.66,70.41 C323.92,70.28 324.18,69.89 324.31,69.63 C324.57,68.98 324.83,68.33 325.09,67.68 C325.35,67.16 325.48,66.77 325.61,66.25 C325.61,65.6 325.74,65.08 326.26,64.56 C327.04,63.52 328.21,63.13 328.6,61.7 C328.86,60.92 328.73,59.75 328.08,59.49 C327.82,59.36 327.43,59.49 327.3,59.62 C326.78,60.4 326.26,61.31 325.74,62.22 C324.05,65.08 322.36,67.94 320.67,70.67 C319.63,72.23 318.33,73.79 317.29,75.35 C315.99,77.56 314.04,79.25 311.96,80.81 C310.66,81.98 309.1,82.76 307.67,83.8 C306.5,84.71 305.2,85.49 303.77,85.62 C302.47,85.88 301.04,86.14 299.61,86.01 C297.53,85.88 296.36,84.71 295.19,83.28 C295.19,83.15 295.06,82.89 295.06,82.76 C295.71,81.59 295.84,80.16 296.1,78.86 C296.49,77.17 296.88,75.35 297.4,73.79 C297.53,73.01 297.92,72.23 298.57,71.97 C299.74,71.19 301.04,70.54 302.21,69.63 C303.51,68.46 305.07,67.42 306.5,66.25 C308.19,64.95 309.62,63.39 310.79,61.57 C311.05,61.18 311.57,60.92 312.09,60.66 C312.22,60.53 312.48,60.4 312.48,60.27 C313,59.36 313.39,58.58 313.91,57.67 C314.17,57.15 314.56,56.63 314.82,56.11 C314.95,55.85 315.21,55.59 315.21,55.46 C315.47,54.94 315.6,54.29 315.6,53.77 C315.86,52.86 315.99,51.95 316.12,51.04 C316.12,50.91 315.99,50.65 315.99,50.52 C315.6,49.74 315.21,49.09 314.82,48.31 C314.56,47.79 314.3,47.27 314.17,46.62 C313.78,45.58 313.13,44.93 312.22,44.28 C311.44,43.76 310.53,43.76 309.75,43.63 C308.58,43.24 307.67,43.63 306.89,43.89 C305.72,44.28 304.55,44.54 303.64,45.58 C303.38,45.84 303.12,45.97 302.86,46.1 C301.95,46.62 300.91,47.01 300.13,47.79 C298.96,48.7 297.92,49.87 296.88,51.04 C296.36,51.43 295.97,52.08 295.45,52.6 C295.06,52.99 294.8,53.51 294.41,54.03 C293.89,54.94 293.24,55.85 292.72,56.76 C291.81,58.32 291.03,59.88 290.38,61.57 C289.73,63.13 289.08,64.69 288.82,66.51 C288.69,66.9 288.43,67.16 288.3,67.55 C288.17,68.33 288.04,68.98 288.04,69.63 C287.78,71.06 287.52,72.49 287.26,73.92 Z M311.18,51.3 C311.57,52.08 312.09,52.34 313,52.08 C312.87,52.86 312.87,53.51 312.61,54.16 C311.83,56.76 310.92,59.23 309.1,61.18 C307.54,62.87 305.85,64.43 304.16,65.86 C302.99,66.9 301.56,67.68 300.26,68.59 C300,68.72 299.87,68.85 299.74,68.85 C300.26,67.29 300.78,65.86 301.43,64.3 C301.69,63.39 301.95,62.48 302.34,61.57 C302.73,60.79 303.25,60.14 303.64,59.36 C303.9,58.97 304.03,58.58 304.29,58.06 C305.07,56.89 305.85,55.59 306.76,54.29 C306.89,54.03 307.28,53.9 307.67,53.64 C308.45,53.12 309.23,52.6 310.14,52.08 C310.4,51.82 310.79,51.69 311.18,51.3 Z" id="Combined-Shape"></path>
            <path d="M334.71,58.58 C335.23,58.97 335.23,60.53 335.23,61.31 C335.23,62.48 337.44,63.91 337.96,63.26 C338.74,63.26 338.74,62.48 338.74,62.48 C337.96,61.31 339.39,61.31 340.17,60.53 L340.69,59.75 C340.69,58.58 341.34,57.02 341.34,55.85 C341.34,52.86 344.07,50.91 346.28,50.91 C349.01,50.91 350.31,48.96 350.31,47.01 C350.96,44.8 351.74,42.07 352.26,39.34 C352.91,35.44 352.91,31.15 353.69,26.99 C353.69,23.09 354.47,19.58 354.47,15.42 C354.47,14.25 354.47,12.3 354.99,10.74 C356.42,6.58 352.91,1.12 349.01,0.73 C345.63,-0.05 341.34,-0.05 337.96,1.12 C337.44,1.9 336.79,2.68 336.79,3.46 L336.79,12.3 L336.79,16.98 C336.01,21.66 336.01,26.99 336.01,31.93 C336.01,33.88 336.01,35.83 335.23,38.17 L335.23,48.18 C336.01,49.74 336.01,50.13 336.01,51.69 C335.23,53.64 335.23,56.37 334.71,58.58 L334.71,58.58 Z" id="Path"></path>
            <path d="M340.17,72.1 L337.96,72.1 C337.96,72.1 337.44,72.1 336.79,72.88 C335.23,72.88 333.28,74.05 333.28,75.48 L333.28,81.72 L333.28,84.45 C333.28,86.4 334.06,87.05 336.01,87.05 C337.96,87.57 340.17,87.57 342.12,88.35 C345.63,89 349.01,88.35 350.96,84.84 C352.26,82.89 352.26,80.94 352.26,78.21 C352.26,76 349.01,73.27 346.8,72.88 C344.85,72.88 342.12,72.1 340.17,72.1 L340.17,72.1 Z" id="Path"></path>
        </g>
    </g>
</svg>