<?xml version="1.0" encoding="UTF-8" standalone="no"?>
<svg width="503px" height="124px" viewBox="0 0 503 124" version="1.1" xmlns="http://www.w3.org/2000/svg" xmlns:xlink="http://www.w3.org/1999/xlink">
    <!-- Generator: Sketch 40.3 (33839) - http://www.bohemiancoding.com/sketch -->
    <title>Holidays</title>
    <desc>Created with Sketch.</desc>
    <defs></defs>
    <g id="About-Us-4" stroke="none" stroke-width="1" fill="none" fill-rule="evenodd">
        <g id="Holidays" fill="#3E3436">
            <path d="M168.52,31.1 C168.39,27.46 169.3,24.34 170.21,20.83 C171.25,23.43 170.08,30.45 168.52,31.1 L168.52,31.1 Z M287.08,85.57 C287.6,85.31 286.56,85.7 287.08,85.57 L287.08,85.57 Z M473.11,83.75 C473.63,83.62 472.59,83.88 473.11,83.75 L473.11,83.75 Z" id="the-holidays.-copy"></path>
            <path d="M0.69,31.62 L0.69,32.01 C1.86,32.4 3.03,32.92 4.33,32.92 C6.8,33.05 9.27,33.05 11.74,33.05 C13.3,33.05 13.3,33.05 13.3,34.48 C13.17,36.17 12.91,45.01 12.78,46.7 C12.52,48.39 12.26,53.98 12.13,55.67 C12,57.36 12,59.18 12,61 C12,61.78 12.13,62.69 12.13,63.47 C12.13,64.12 11.74,64.64 11.74,65.29 C11.61,67.89 11.61,70.49 11.61,72.96 C11.48,74.52 11.61,76.08 11.61,77.64 C11.74,80.63 13.04,83.1 15.38,84.53 C17.98,86.09 20.71,87.39 23.31,88.43 C24.74,89.08 26.3,89.08 27.6,87.78 C28.64,86.87 29.68,86.09 30.59,85.18 C31.5,84.27 32.41,83.23 33.32,82.19 C34.49,80.76 35.4,79.2 36.7,77.77 C38.52,75.82 40.21,73.74 41.38,71.27 C41.77,70.49 42.03,69.84 42.42,69.19 C43.59,67.24 44.76,65.42 45.8,63.47 C46.71,61.91 47.23,60.09 48.14,58.53 C48.79,57.36 48.92,56.32 48.27,55.02 C48.14,55.15 48.01,55.28 48.01,55.41 C47.1,58.4 45.41,60.87 43.85,63.47 C42.16,66.07 40.34,68.54 38.65,71.14 C38.13,72.05 37.61,73.09 36.83,74 C35.79,75.43 34.49,76.6 33.45,78.03 C31.63,80.37 29.55,82.32 27.21,84.14 C27.08,84.27 26.82,84.27 26.3,84.53 C26.43,82.71 26.69,81.15 26.69,79.59 C26.82,77.25 26.82,74.91 26.95,72.57 C26.95,71.14 26.95,69.71 27.21,68.41 C27.47,66.59 27.47,64.77 27.34,62.95 L27.34,57.1 C27.34,55.54 27.47,49.95 27.47,48.39 C27.34,47.35 26.95,39.03 27.08,37.86 C27.08,36.17 27.47,34.35 27.73,32.53 L30.59,32.53 C31.24,32.53 31.76,32.79 32.41,32.79 C33.97,32.92 35.4,32.92 36.96,33.05 C38,33.18 38,33.18 37.74,32.14 C38.78,31.36 38.78,31.1 38,30.45 C37.35,29.93 36.44,29.67 35.66,29.54 C33.19,28.89 30.59,29.02 28.12,29.54 C27.47,29.67 27.08,29.54 26.95,28.76 C26.95,28.24 26.69,27.59 26.56,27.07 C26.04,26.03 25.39,21.09 25,19.92 C24.48,18.1 23.96,16.15 23.31,14.33 C23.05,13.55 22.79,12.77 22.4,11.99 C21.49,10.04 19.8,9.26 17.72,8.87 C15.77,8.61 14.86,9.39 14.6,11.21 C14.6,11.73 14.73,12.38 14.6,12.9 C14.47,16.41 14.21,23.95 13.95,27.59 C13.95,28.37 13.82,29.02 13.69,29.8 C13.04,29.8 12.39,29.67 11.87,29.8 C10.05,29.8 8.23,29.93 6.41,29.93 C5.5,30.06 4.72,29.93 3.94,30.19 C2.9,30.58 1.73,31.1 0.69,31.62 L0.69,31.62 Z" id="Path"></path>
            <path d="M58.67,31.49 C59.84,31.62 60.88,31.23 61.53,30.32 C62.7,28.37 63.48,26.16 63.61,23.82 C63.74,22.78 63.48,21.48 63.09,20.31 C62.57,19.01 61.79,17.71 61.14,16.41 C60.49,15.24 59.97,14.2 59.32,13.16 C58.93,12.64 58.41,11.99 57.76,11.6 C55.81,10.43 53.34,10.69 52.04,12.25 C51.52,12.9 51.13,13.68 50.74,14.46 C49.96,15.76 49.18,16.93 48.53,18.23 C47.88,19.4 47.36,20.57 46.84,21.74 C46.45,22.78 46.06,23.82 45.8,24.86 C45.54,26.42 45.28,28.11 45.02,29.8 L45.02,30.84 C44.76,32.79 44.37,34.87 44.11,36.82 C43.98,38.25 43.98,39.68 43.85,40.98 C43.59,43.84 43.2,46.7 43.07,49.69 C42.81,52.16 42.68,54.63 42.55,57.23 C42.42,60.22 42.29,63.34 42.29,66.33 C42.16,69.06 42.42,71.79 42.55,74.52 C42.81,77.9 43.07,81.28 43.33,84.53 C43.46,85.57 43.33,86.61 43.33,87.65 C43.85,87.65 44.37,87.65 44.63,87.39 C45.93,86.22 47.75,86.22 49.44,86.09 C51.26,85.96 52.56,84.79 52.69,82.97 C52.69,82.84 52.69,82.71 52.82,82.58 C53.21,81.41 53.6,80.24 53.99,79.2 C54.12,78.68 54.38,77.77 54.77,77.64 C56.33,77.38 56.72,76.34 56.85,74.91 L56.85,72.05 C56.98,69.45 57.11,66.85 57.24,64.25 C57.37,62.56 57.24,61 57.24,59.31 C57.24,57.49 57.37,55.67 57.24,53.85 C57.11,52.68 57.5,51.64 58.28,50.86 C59.97,49.17 61.66,47.35 63.87,46.05 C64.52,45.66 65.17,45.27 66.08,44.75 C66.21,45.4 66.21,45.79 66.21,46.31 L66.21,53.85 C66.21,55.02 66.47,56.06 66.47,57.1 C66.34,59.7 66.08,62.17 66.08,64.77 C66.08,67.24 66.08,69.71 66.34,72.18 C66.47,73.87 66.73,75.56 67.25,77.12 C67.9,78.94 68.29,80.89 70.5,82.06 C72.58,83.1 74.53,84.4 76.87,83.88 C77.52,83.88 78.17,83.88 78.82,83.75 C79.6,83.49 80.51,83.36 81.16,82.84 C82.07,82.19 82.72,81.41 83.5,80.63 C85.19,79.07 86.88,77.64 88.44,76.08 C90.13,74.26 97.02,58.01 96.89,58.01 C96.24,57.62 96.24,58.14 95.46,58.01 C95.46,57.88 95.33,58.14 95.33,58.27 C94.16,60.61 93.25,63.08 91.95,65.29 C90.52,68.02 88.96,70.62 87.27,72.96 C85.19,76.08 82.72,78.81 79.47,80.76 C78.3,81.41 77,81.93 75.7,82.19 C75.31,82.32 74.27,81.8 73.88,81.41 C73.49,80.76 74.27,80.5 74.66,80.24 C75.05,79.98 75.44,79.72 75.57,79.46 C76.35,78.29 77.26,76.99 77.91,75.69 C78.43,74.65 78.56,73.35 78.95,72.18 C79.08,71.53 79.6,70.88 79.6,70.1 C79.86,68.54 79.86,66.98 79.99,65.42 C79.99,64.38 79.86,63.34 79.86,62.43 L79.86,56.71 C79.86,56.19 79.99,55.54 79.86,55.02 C79.73,53.98 79.47,53.07 79.08,52.16 C78.82,51.25 78.3,50.47 77.78,49.69 C76.22,47.48 74.66,45.27 72.06,43.97 C70.11,42.93 68.29,42.8 66.34,42.67 C65.69,42.67 64.91,42.8 64.39,43.19 C62.96,44.23 61.53,45.4 60.1,46.57 C59.32,47.22 58.41,47.74 57.37,48.52 C57.76,42.8 58.28,37.21 58.67,31.49 Z M58.54,31.1 C58.41,27.46 59.32,24.34 60.23,20.83 C61.27,23.43 60.1,30.45 58.54,31.1 Z" id="Combined-Shape"></path>
            <path d="M88.57,71.92 C88.57,72.05 88.7,72.05 88.7,72.05 C88.57,74.52 89.48,76.86 90.52,79.07 C91.04,79.98 91.56,80.76 92.21,81.54 C93.51,83.23 95.07,84.79 97.02,85.7 C99.23,86.61 101.44,87.13 103.78,86.87 C104.56,86.74 105.34,86.74 106.12,86.61 C106.51,86.61 107.03,86.48 107.55,86.35 C108.33,86.09 109.11,85.96 109.89,85.57 C110.54,85.31 111.06,84.79 111.71,84.4 C112.49,83.88 113.4,83.49 114.18,82.97 C115.61,82.06 116.52,80.76 117.43,79.2 C117.82,78.42 118.21,77.64 118.86,76.99 C120.29,75.82 121.2,74.26 122.11,72.7 C122.37,72.18 122.89,71.79 123.02,71.27 C123.28,69.97 124.19,69.32 124.97,68.41 C125.23,68.28 125.49,67.89 125.62,67.63 C125.88,66.98 126.14,66.33 126.4,65.68 C126.66,65.16 126.79,64.77 126.92,64.25 C126.92,63.6 127.05,63.08 127.57,62.56 C128.35,61.52 129.52,61.13 129.91,59.7 C130.17,58.92 130.04,57.75 129.39,57.49 C129.13,57.36 128.74,57.49 128.61,57.62 C128.09,58.4 127.57,59.31 127.05,60.22 C125.36,63.08 123.67,65.94 121.98,68.67 C120.94,70.23 119.64,71.79 118.6,73.35 C117.3,75.56 115.35,77.25 113.27,78.81 C111.97,79.98 110.41,80.76 108.98,81.8 C107.81,82.71 106.51,83.49 105.08,83.62 C103.78,83.88 102.35,84.14 100.92,84.01 C98.84,83.88 97.67,82.71 96.5,81.28 C96.5,81.15 96.37,80.89 96.37,80.76 C97.02,79.59 97.15,78.16 97.41,76.86 C97.8,75.17 98.19,73.35 98.71,71.79 C98.84,71.01 99.23,70.23 99.88,69.97 C101.05,69.19 102.35,68.54 103.52,67.63 C104.82,66.46 106.38,65.42 107.81,64.25 C109.5,62.95 110.93,61.39 112.1,59.57 C112.36,59.18 112.88,58.92 113.4,58.66 C113.53,58.53 113.79,58.4 113.79,58.27 C114.31,57.36 114.7,56.58 115.22,55.67 C115.48,55.15 115.87,54.63 116.13,54.11 C116.26,53.85 116.52,53.59 116.52,53.46 C116.78,52.94 116.91,52.29 116.91,51.77 C117.17,50.86 117.3,49.95 117.43,49.04 C117.43,48.91 117.3,48.65 117.3,48.52 C116.91,47.74 116.52,47.09 116.13,46.31 C115.87,45.79 115.61,45.27 115.48,44.62 C115.09,43.58 114.44,42.93 113.53,42.28 C112.75,41.76 111.84,41.76 111.06,41.63 C109.89,41.24 108.98,41.63 108.2,41.89 C107.03,42.28 105.86,42.54 104.95,43.58 C104.69,43.84 104.43,43.97 104.17,44.1 C103.26,44.62 102.22,45.01 101.44,45.79 C100.27,46.7 99.23,47.87 98.19,49.04 C97.67,49.43 97.28,50.08 96.76,50.6 C96.37,50.99 96.11,51.51 95.72,52.03 C95.2,52.94 94.55,53.85 94.03,54.76 C93.12,56.32 92.34,57.88 91.69,59.57 C91.04,61.13 90.39,62.69 90.13,64.51 C90,64.9 89.74,65.16 89.61,65.55 C89.48,66.33 89.35,66.98 89.35,67.63 C89.09,69.06 88.83,70.49 88.57,71.92 Z M112.49,49.3 C112.88,50.08 113.4,50.34 114.31,50.08 C114.18,50.86 114.18,51.51 113.92,52.16 C113.14,54.76 112.23,57.23 110.41,59.18 C108.85,60.87 107.16,62.43 105.47,63.86 C104.3,64.9 102.87,65.68 101.57,66.59 C101.31,66.72 101.18,66.85 101.05,66.85 C101.57,65.29 102.09,63.86 102.74,62.3 C103,61.39 103.26,60.48 103.65,59.57 C104.04,58.79 104.56,58.14 104.95,57.36 C105.21,56.97 105.34,56.58 105.6,56.06 C106.38,54.89 107.16,53.59 108.07,52.29 C108.2,52.03 108.59,51.9 108.98,51.64 C109.76,51.12 110.54,50.6 111.45,50.08 C111.71,49.82 112.1,49.69 112.49,49.3 Z" id="Combined-Shape"></path>
            <path d="M168.65,31.49 C169.82,31.62 170.86,31.23 171.51,30.32 C172.68,28.37 173.46,26.16 173.59,23.82 C173.72,22.78 173.46,21.48 173.07,20.31 C172.55,19.01 171.77,17.71 171.12,16.41 C170.47,15.24 169.95,14.2 169.3,13.16 C168.91,12.64 168.39,11.99 167.74,11.6 C165.79,10.43 163.32,10.69 162.02,12.25 C161.5,12.9 161.11,13.68 160.72,14.46 C159.94,15.76 159.16,16.93 158.51,18.23 C157.86,19.4 157.34,20.57 156.82,21.74 C156.43,22.78 156.04,23.82 155.78,24.86 C155.52,26.42 155.26,28.11 155,29.8 L155,30.84 C154.74,32.79 154.35,34.87 154.09,36.82 C153.96,38.25 153.96,39.68 153.83,40.98 C153.57,43.84 153.18,46.7 153.05,49.69 C152.79,52.16 152.66,54.63 152.53,57.23 C152.4,60.22 152.27,63.34 152.27,66.33 C152.14,69.06 152.4,71.79 152.53,74.52 C152.79,77.9 153.05,81.28 153.31,84.53 C153.44,85.57 153.31,86.61 153.31,87.65 C153.83,87.65 154.35,87.65 154.61,87.39 C155.91,86.22 157.73,86.22 159.42,86.09 C161.24,85.96 162.54,84.79 162.67,82.97 C162.67,82.84 162.67,82.71 162.8,82.58 C163.19,81.41 163.58,80.24 163.97,79.2 C164.1,78.68 164.36,77.77 164.75,77.64 C166.31,77.38 166.7,76.34 166.83,74.91 L166.83,72.05 C166.96,69.45 167.09,66.85 167.22,64.25 C167.35,62.56 167.22,61 167.22,59.31 C167.22,57.49 167.35,55.67 167.22,53.85 C167.09,52.68 167.48,51.64 168.26,50.86 C169.95,49.17 171.64,47.35 173.85,46.05 C174.5,45.66 175.15,45.27 176.06,44.75 C176.19,45.4 176.19,45.79 176.19,46.31 L176.19,53.85 C176.19,55.02 176.45,56.06 176.45,57.1 C176.32,59.7 176.06,62.17 176.06,64.77 C176.06,67.24 176.06,69.71 176.32,72.18 C176.45,73.87 176.71,75.56 177.23,77.12 C177.88,78.94 178.27,80.89 180.48,82.06 C182.56,83.1 184.51,84.4 186.85,83.88 C187.5,83.88 188.15,83.88 188.8,83.75 C189.58,83.49 190.49,83.36 191.14,82.84 C192.05,82.19 192.7,81.41 193.48,80.63 C195.17,79.07 196.86,77.64 198.42,76.08 C200.11,74.26 207,58.01 206.87,58.01 C206.22,57.62 206.22,58.14 205.44,58.01 C205.44,57.88 205.31,58.14 205.31,58.27 C204.14,60.61 203.23,63.08 201.93,65.29 C200.5,68.02 198.94,70.62 197.25,72.96 C195.17,76.08 192.7,78.81 189.45,80.76 C188.28,81.41 186.98,81.93 185.68,82.19 C185.29,82.32 184.25,81.8 183.86,81.41 C183.47,80.76 184.25,80.5 184.64,80.24 C185.03,79.98 185.42,79.72 185.55,79.46 C186.33,78.29 187.24,76.99 187.89,75.69 C188.41,74.65 188.54,73.35 188.93,72.18 C189.06,71.53 189.58,70.88 189.58,70.1 C189.84,68.54 189.84,66.98 189.97,65.42 C189.97,64.38 189.84,63.34 189.84,62.43 L189.84,56.71 C189.84,56.19 189.97,55.54 189.84,55.02 C189.71,53.98 189.45,53.07 189.06,52.16 C188.8,51.25 188.28,50.47 187.76,49.69 C186.2,47.48 184.64,45.27 182.04,43.97 C180.09,42.93 178.27,42.8 176.32,42.67 C175.67,42.67 174.89,42.8 174.37,43.19 C172.94,44.23 171.51,45.4 170.08,46.57 C169.3,47.22 168.39,47.74 167.35,48.52 C167.74,42.8 168.26,37.21 168.65,31.49 L168.65,31.49 Z" id="Path"></path>
            <path d="M233.26,69.19 L233.26,64.77 C233.13,63.6 233,62.3 232.87,61.13 C232.74,60.48 232.61,59.96 232.61,59.31 C232.74,56.84 232.22,54.5 230.66,52.42 C230.14,51.77 229.49,51.25 228.84,50.6 C228.06,49.56 226.89,49.43 225.85,49.04 C225.2,48.91 224.29,49.3 223.64,49.56 C223.12,49.69 222.86,49.82 222.47,49.3 C221.95,48.26 221.3,47.35 220.78,46.44 C220,45.27 219.22,44.36 217.66,44.23 C216.1,43.97 214.54,43.84 213.24,44.88 C212.72,45.27 212.33,45.79 211.68,46.05 C209.73,46.7 208.3,48.13 207.13,49.56 C205.83,51.38 204.66,53.2 203.62,55.15 C202.58,56.97 201.54,58.92 201.02,60.87 C200.5,63.21 199.98,65.55 200.76,68.02 C201.02,69.19 201.02,70.49 201.41,71.79 C202.06,74.13 203.49,76.08 205.44,77.77 C207.39,79.33 209.21,81.15 211.68,82.32 C212.72,82.71 213.63,83.36 214.67,83.88 C215.97,84.4 217.27,84.79 218.57,85.18 C219.74,85.44 220.78,85.83 221.95,85.83 C223.77,86.09 225.46,85.96 227.15,85.05 C228.71,84.14 229.62,82.84 229.62,81.15 C229.62,79.33 230.01,77.51 230.92,75.82 C231.44,75.04 231.83,74.13 232.09,73.09 C232.22,72.57 232.48,72.44 233,72.44 C234.82,72.18 245.22,65.29 248.86,50.47 C249.12,49.43 248.73,49.69 248.47,48.78 C247.56,50.73 246.65,52.55 245.87,54.5 C244.57,57.62 243.14,58.92 241.32,61.78 C240.28,63.47 238.33,65.94 237.16,67.5 C236.12,68.67 234.56,68.02 233.26,69.19 Z M218.7,58.79 C220.13,64.51 223.51,68.54 228.71,71.01 C228.19,74 226.24,75.82 224.03,77.51 C223.25,78.16 222.34,78.94 221.3,78.81 C219.48,78.55 217.53,78.16 216.36,76.6 C215.84,76.08 215.71,75.04 215.71,74.13 C215.71,72.96 215.71,71.79 215.32,70.75 C215.06,69.97 215.06,69.19 215.06,68.41 C214.93,66.07 215.45,63.99 216.36,61.91 C216.75,60.74 217.66,59.83 218.31,58.79 L218.7,58.79 Z M228.97,67.5 C228.71,66.85 228.45,66.2 228.06,65.55 C227.54,64.38 226.89,63.21 226.24,62.04 C225.98,61.52 225.72,60.87 225.33,60.35 C225.2,59.96 224.94,59.57 224.68,59.31 C223.51,57.88 222.73,56.32 222.34,54.76 C222.21,53.98 222.73,53.2 222.99,52.42 C223.12,52.29 223.51,52.16 223.77,52.29 C225.72,52.81 228.71,55.02 228.97,57.62 C229.1,59.44 229.75,61.13 229.62,62.95 C229.62,64.38 229.62,65.94 229.49,67.5 L228.97,67.5 Z" id="Combined-Shape"></path>
            <path d="M259,82.06 C258.87,82.06 258.87,81.93 258.74,81.93 L258.74,81.41 C258.74,78.55 258.87,75.69 258.87,72.83 C258.87,72.05 258.61,71.27 258.74,70.49 C258.87,68.54 259,66.59 259.26,64.64 C259.52,62.3 259,59.83 259.52,57.49 C259.91,55.93 259.78,54.37 259.91,52.81 C260.04,51.51 260.3,50.34 260.3,49.17 C260.3,48 260.82,37.21 260.95,36.04 C261.08,33.96 261.34,31.88 261.6,29.67 C261.73,27.98 261.86,26.16 261.86,24.34 C261.99,22.78 262.25,21.35 261.6,19.79 C261.08,18.36 260.3,16.93 259,16.15 C257.96,15.63 257.18,14.72 255.88,14.33 C254.06,13.68 252.37,13.29 250.55,13.42 C249.25,13.55 248.47,14.33 248.34,15.5 C247.95,17.71 247.56,19.92 247.3,22.13 C247.04,23.95 247.04,25.77 246.91,27.59 C246.78,29.8 246.52,31.88 246.39,33.96 C246.26,35.91 245.61,47.61 245.48,49.56 C245.35,51.38 244.96,52.94 244.96,54.76 C244.7,57.62 244.57,60.61 244.44,63.6 C244.31,67.24 244.31,71.01 244.18,74.65 C244.18,76.99 244.44,79.46 245.74,81.67 C247.17,83.75 248.47,85.83 251.07,86.61 C251.98,86.87 252.89,87.13 253.67,87.39 C256.27,88.04 258.09,87 259.65,85.31 C261.08,83.75 262.12,81.93 263.42,80.24 C265.11,77.9 266.28,74.91 267.97,72.44 C269.79,69.71 271.48,66.85 273.17,63.99 C273.69,63.21 273.95,62.3 274.34,61.39 C274.6,60.61 274.6,59.7 274.86,58.92 C275.38,57.75 276.29,57.88 274.86,57.49 C274.6,57.49 274.08,57.49 273.95,57.75 C273.43,58.79 273.04,59.83 272.52,60.87 C272.26,61.52 272.26,62.17 271.87,62.82 C271.48,63.73 270.44,65.68 270.05,66.59 C267.19,71.79 263.94,75.69 260.43,80.5 C259.91,81.02 259.52,81.54 259,82.06 L259,82.06 Z" id="Path"></path>
            <path d="M276.42,38.12 C278.24,38.51 280.06,38.9 281.88,39.29 C283.96,39.29 285.52,38.12 286.82,37.08 C287.47,36.56 287.73,35.39 287.6,34.61 C287.47,33.57 287.34,32.27 285.91,31.88 C284.35,31.62 282.79,30.97 281.36,31.1 C279.54,31.23 277.85,32.01 276.16,32.4 C274.99,32.79 274.08,33.31 274.08,34.61 C274.08,35.91 275.25,37.73 276.42,38.12 L276.42,38.12 Z" id="Path"></path>
            <path d="M301.38,62.82 C300.86,62.3 300.99,62.69 300.34,62.43 C299.95,63.21 299.82,63.86 299.56,64.51 C296.7,69.97 293.97,75.43 289.68,79.85 C288.25,81.28 287.08,82.97 284.87,83.36 C284.09,83.49 283.44,83.88 282.66,84.14 C282.92,83.23 283.05,82.45 284.09,82.32 C284.61,82.32 285.13,81.54 285.39,81.15 C285.65,80.76 285.52,80.24 285.52,79.72 C285.65,76.34 286.04,72.83 286.82,69.58 L286.82,68.15 C286.95,66.85 287.08,65.42 287.08,64.12 C287.21,62.04 287.34,59.96 287.34,57.88 C287.34,56.97 287.34,56.06 287.21,55.15 C287.08,54.63 286.95,54.11 286.82,53.59 C286.69,52.55 286.82,51.38 286.3,50.47 C285.13,48.91 284.22,46.96 282.14,46.18 C280.71,45.66 279.28,44.88 277.85,44.88 C275.51,44.88 274.21,46.05 273.69,48.39 C273.56,48.91 273.56,49.43 273.43,49.95 C273.17,51.25 272.91,52.55 272.78,53.85 C272.52,55.54 272.39,57.23 272.26,58.92 C272,61.91 271.61,64.77 271.74,67.76 C272,70.49 271.48,73.22 272.39,76.08 C272.78,77.51 272.91,78.94 273.3,80.24 C274.21,82.84 275.64,84.92 278.24,86.09 C279.93,86.74 281.49,86.74 283.05,86.48 C284.35,86.35 285.78,85.83 287.08,85.57 C287.86,85.18 288.77,83.75 289.42,83.23 C291.76,81.41 293.45,78.81 295.14,76.21 C295.66,75.3 296.05,74 296.57,73.09 C298.26,70.1 299.43,67.24 300.73,64.51 C301.12,63.6 301.9,63.34 301.38,62.82 L301.38,62.82 Z" id="Path"></path>
            <path d="M320.88,65.81 C321.01,65.81 321.14,65.94 321.27,65.94 C321.14,67.37 320.88,68.8 320.88,70.23 C320.75,72.96 320.75,75.82 322.57,78.16 C323.35,79.2 324.39,80.24 325.04,81.41 C325.95,83.49 327.25,85.05 329.33,85.96 C331.15,86.74 332.97,87.52 334.92,86.87 C335.44,86.74 335.96,86.22 336.48,85.96 C337.65,85.44 338.43,84.27 339.86,84.01 C340.12,84.01 340.25,83.75 340.38,83.62 C342.98,81.41 344.8,78.55 346.88,76.08 C347.66,74.91 348.18,73.48 348.96,72.31 C350.39,70.23 351.82,68.15 353.38,66.2 C355.33,63.47 356.76,60.61 357.02,57.23 L357.02,55.15 C357.02,54.89 356.76,54.63 356.63,54.37 C356.5,54.5 356.11,54.63 355.98,54.89 C354.16,58.27 352.47,61.78 350.65,65.03 C349.35,67.37 348.83,69.84 347.01,71.79 C344.28,75.04 341.55,78.42 338.56,81.54 C337.52,82.71 335.96,83.49 334.66,84.53 C334.53,84.53 333.88,84.4 333.75,84.14 C333.36,82.84 333.1,81.54 332.84,80.11 C332.97,79.72 333.1,79.2 333.1,78.68 C333.36,77.51 333.36,76.47 333.75,75.43 C334.14,74.13 334.14,72.44 333.75,71.14 C333.36,69.32 333.49,67.89 334.66,66.46 C335.05,66.07 335.44,65.68 335.44,65.16 C335.83,62.43 336.22,59.7 336.61,56.97 C336.61,56.45 336.87,55.93 336.74,55.54 C336.22,52.94 336.35,50.47 337.26,48 C338.3,44.88 337.65,41.89 336.48,38.9 C336.22,38.12 335.96,37.47 336.09,36.56 C336.35,35.39 336.22,34.35 336.22,33.18 C336.09,31.88 335.83,30.45 335.83,29.15 C335.96,26.03 335.18,10.56 335.31,7.44 C335.31,7.18 335.31,7.05 335.44,6.92 C336.61,3.54 334.92,1.33 332.32,0.94 C331.02,0.81 329.72,0.68 328.42,0.42 C327.12,0.03 325.95,0.55 324.78,1.07 C324.52,1.2 324.26,1.72 324.13,1.98 C323.87,3.28 323.74,4.58 323.74,5.75 C323.61,8.87 323.48,24.34 323.48,27.46 C323.35,31.1 323.22,34.87 323.09,38.64 C323.09,39.03 322.7,39.68 322.57,39.55 C320.62,39.42 318.8,40.46 316.98,40.72 C314.9,40.98 313.21,42.02 311.78,43.45 C310.35,44.75 308.79,45.79 307.62,47.22 C305.93,49.3 304.37,51.51 302.81,53.72 C301.25,56.19 299.82,58.66 298.52,61.13 C297.74,62.82 296.44,64.51 296.57,66.59 C296.57,68.41 296.31,70.49 297.74,72.05 C298.65,72.96 299.43,74 300.47,74.91 C301.51,75.69 302.68,76.47 303.85,76.73 C305.41,77.12 306.97,76.99 308.53,77.12 C309.83,77.12 311,77.12 311.91,76.21 C312.69,75.56 313.47,74.91 314.25,74.13 C315.68,72.7 317.11,71.27 318.41,69.58 C319.32,68.41 320.1,67.11 320.88,65.81 Z M322.18,48.26 C322.18,49.95 322.05,51.38 322.05,52.81 C322.05,55.8 320.23,58.14 318.93,60.48 C317.63,63.21 316.2,65.81 314.64,68.28 C313.21,70.49 311.65,72.44 309.18,73.74 C308.53,74 308.4,73.87 308.14,73.35 C307.23,71.66 306.45,70.1 305.41,68.54 C304.5,67.24 304.37,66.59 305.41,65.42 C306.45,64.12 307.62,62.82 308.66,61.65 C310.35,59.7 312.04,57.75 313.86,55.93 C316.07,53.72 318.28,51.64 320.49,49.56 C320.88,49.17 321.4,48.78 322.18,48.26 Z" id="Combined-Shape"></path>
            <path d="M373.66,66.85 C373.66,66.98 373.79,66.98 373.79,66.98 L373.79,68.8 L373.79,70.75 C373.79,72.31 373.53,73.87 373.66,75.3 C373.79,77.51 374.31,79.59 375.22,81.67 C376,83.49 376.91,84.92 378.47,86.09 C380.16,87.39 379.77,87.26 381.98,87.26 C382.89,87.26 383.8,87.13 384.58,86.74 C386.01,86.22 387.44,85.31 388.61,84.4 C390.3,83.23 391.6,81.54 392.64,79.72 C393.81,78.03 394.72,76.34 395.89,74.78 C396.41,74 396.41,74.13 397.06,72.96 C398.23,70.75 401.35,64.64 402.26,62.43 C402.65,61.52 403.3,61.52 402.52,61.26 C401.48,61 402.52,61.26 401.35,61.13 C401.22,61.13 400.96,61.52 400.83,61.65 C399.79,63.6 396.93,69.97 395.76,71.79 C394.98,73.22 393.68,74.52 392.77,75.95 C391.34,78.55 389.91,81.15 387.57,83.23 C386.4,84.27 385.1,85.05 383.67,85.31 C382.76,84.4 382.11,83.49 381.2,82.58 C382.11,81.54 382.89,80.37 383.8,79.2 C383.93,79.07 383.93,78.81 384.06,78.68 C384.58,77.12 384.84,75.3 385.75,74 C387.31,71.79 387.57,69.19 388.35,66.85 C388.74,65.29 388.87,63.6 389,62.04 C389.26,59.83 389.39,57.62 389.65,55.41 C389.65,54.63 389.91,53.98 389.91,53.2 C389.91,52.03 390.04,50.73 389.91,49.43 C389.78,48.39 389.26,47.22 389.13,46.18 C388.74,44.36 387.44,43.32 386.14,42.28 C385.1,41.24 383.67,41.11 382.24,40.98 C380.42,40.72 378.73,40.98 377.56,42.54 C376.91,43.58 376.26,44.75 375.74,45.66 C374.83,45.01 373.66,44.36 372.62,43.58 C371.32,42.54 369.76,42.54 368.33,43.06 C367.16,43.45 366.25,44.23 365.08,44.49 C363.65,44.75 362.74,45.79 361.7,46.57 C360.53,47.61 359.49,48.78 358.32,49.95 C357.93,50.47 357.41,50.86 357.02,51.51 C356.37,52.55 355.72,53.72 355.07,55.02 C354.68,55.67 354.29,56.32 354.03,57.1 C353.51,58.4 353.12,59.7 352.6,61 C351.95,63.47 350.91,65.81 350.52,68.28 C349.74,71.92 350.39,75.56 352.47,78.81 C354.29,81.8 356.89,83.49 360.53,83.49 C361.44,83.49 362.22,82.84 363,82.84 C364.69,82.84 365.86,81.93 366.64,80.89 C367.81,79.59 368.46,77.9 369.24,76.34 C370.41,74.13 371.32,71.79 372.36,69.45 C372.75,68.67 373.27,67.76 373.66,66.85 Z M374.44,49.82 C374.44,51.77 374.31,53.72 374.18,55.67 C374.05,58.4 373.53,60.87 371.97,63.34 C370.67,65.42 369.76,67.89 368.59,70.1 C367.55,72.18 366.64,74.39 365.34,76.34 C364.3,77.77 362.87,79.07 361.57,80.24 C360.4,81.15 358.06,80.76 357.02,79.46 C356.37,78.68 355.59,77.9 355.2,76.99 C354.68,75.56 354.03,74 354.55,72.31 C355.07,70.49 355.46,68.67 355.98,66.98 C356.89,64.38 357.8,61.91 358.71,59.44 C359.23,58.14 359.75,56.71 360.4,55.41 C360.53,54.89 360.92,54.37 361.18,53.98 C362.09,52.68 363,51.25 363.91,50.08 C365.34,48.52 366.9,47.09 369.11,47.09 C369.76,47.09 370.41,47.61 370.93,48 C371.45,48.52 371.97,49.17 372.62,49.56 C373.14,49.82 373.92,49.82 374.44,49.82 Z" id="Combined-Shape"></path>
            <path d="M412.4,78.16 C412.4,76.6 412.4,75.17 412.53,73.74 C412.53,73.35 412.66,72.96 412.92,72.83 C413.83,72.31 414.22,71.66 414.22,70.75 C414.35,69.84 414.22,68.93 414.48,68.02 C415.13,65.29 415,62.56 414.74,59.7 C414.61,58.4 414.74,57.1 414.61,55.67 C414.48,54.37 414.22,53.07 413.83,51.9 C413.31,50.47 412.53,49.17 412.14,47.74 C411.23,45.14 410.06,42.8 407.33,41.37 C405.77,40.46 404.34,40.33 402.91,40.46 C400.31,40.72 398.75,42.41 397.71,44.62 C397.58,44.75 397.58,45.27 397.71,45.4 C398.36,45.79 399.01,46.44 399.66,46.44 C400.44,46.57 401.22,46.31 402,46.18 C402.39,47.74 402.26,49.3 402,50.99 C401.87,53.07 401.61,55.15 401.35,57.23 C401.22,58.14 401.09,59.18 400.96,60.09 C400.83,61.65 400.44,63.08 400.44,64.51 C400.44,66.46 400.57,68.54 400.57,70.49 C400.57,72.96 400.31,75.43 400.18,77.9 C400.18,78.68 400.44,79.46 400.44,80.37 C400.31,81.8 400.83,83.36 401.22,84.79 C401.22,84.92 401.22,85.05 401.35,85.18 C403.04,86.74 404.86,87.78 407.2,87.39 C410.06,86.87 412.27,85.05 414.09,82.97 C415.65,81.28 417.08,79.46 418.51,77.64 C419.42,76.34 420.46,75.04 421.37,73.87 C422.15,72.83 423.06,71.92 423.84,70.88 C423.97,70.88 423.97,71.01 424.1,71.01 C423.97,71.92 423.97,72.7 423.84,73.61 C423.71,75.04 423.71,76.34 423.58,77.77 C423.58,78.68 423.45,79.72 423.45,80.63 C423.06,83.49 422.8,86.35 422.41,89.08 C422.28,90.51 422.41,91.94 421.11,92.85 C420.72,93.11 420.46,93.37 420.2,93.63 C418.64,95.32 417.21,97.01 415.78,98.57 C414.09,100.52 412.4,102.47 410.32,104.03 C410.06,104.16 409.93,104.68 409.67,104.81 C408.37,105.33 407.46,106.37 406.81,107.54 C405.9,109.23 405.38,111.05 405.12,113 C404.73,116.77 405.77,120.54 409.54,122.88 C410.58,123.53 411.75,124.05 413.05,123.53 C413.7,123.27 414.35,122.75 415,122.23 C415.91,121.32 416.95,120.41 417.86,119.5 C417.99,119.5 417.99,119.5 417.99,119.37 C418.51,117.68 419.94,116.64 421.11,115.6 C421.76,114.95 422.54,113.91 422.54,113.13 C422.41,111.57 423.32,110.4 423.84,109.1 C424.62,107.15 425.66,105.59 427.22,104.16 C429.82,102.08 430.86,98.96 431.51,95.71 C431.77,94.28 432.16,92.72 432.55,91.29 C432.94,89.73 433.33,88.17 433.85,86.74 C434.11,86.09 434.37,85.31 434.89,84.79 C435.28,84.14 435.93,83.62 436.45,83.1 C438.01,81.67 439.57,80.37 441.13,79.07 C443.34,77.12 445.29,74.91 446.98,72.57 C447.37,71.92 447.89,71.27 448.02,70.36 C448.15,69.58 447.5,69.45 447.24,68.93 C446.98,69.06 446.72,69.32 446.46,69.58 C446.2,69.84 445.94,70.1 445.68,70.36 C444.25,71.79 442.82,73.09 441.39,74.39 C439.31,76.21 437.23,78.03 435.02,79.85 C434.89,79.72 434.76,79.59 434.76,79.46 C434.89,77.77 435.15,76.21 435.28,74.52 C435.41,72.7 435.8,70.75 435.67,68.93 C435.54,67.37 435.93,65.68 435.02,64.12 C434.76,63.73 434.63,63.34 434.63,62.82 C434.24,61.13 433.98,59.31 433.46,57.62 C433.2,56.84 432.55,55.93 431.9,55.67 C428.65,54.24 426.18,56.45 425.4,59.57 C425.14,60.74 424.75,61.91 424.23,62.95 C423.71,63.99 423.19,64.77 422.54,65.68 C421.5,67.37 420.59,69.06 419.29,70.49 C417.73,72.44 416.04,74.13 414.35,75.95 C413.7,76.6 413.05,77.38 412.4,78.16 Z M421.24,98.31 C421.11,99.48 421.11,100.65 420.98,101.69 C420.85,103.38 420.72,104.94 420.46,106.37 C420.2,107.8 419.81,109.23 419.29,110.53 C418.12,113.65 416.69,116.51 415.39,119.5 C415.39,119.63 415.39,119.89 415.26,119.89 C414.09,120.67 412.92,121.45 411.75,121.97 C411.1,122.23 410.45,121.97 409.8,121.32 C409.02,120.41 409.02,119.37 408.63,118.46 C407.59,115.6 408.11,113.13 409.8,110.92 C410.32,110.27 410.58,109.49 411.1,108.71 C411.36,108.19 411.62,107.8 411.88,107.28 C412.27,106.89 412.53,106.37 413.18,106.11 C413.83,105.98 414.22,105.33 414.61,104.81 C416.04,103.38 417.47,101.95 418.9,100.52 C419.68,99.74 420.46,99.09 421.24,98.31 Z" id="Combined-Shape"></path>
            <path d="M487.41,65.03 C486.89,64.51 487.02,64.9 486.37,64.64 C485.98,65.42 485.85,65.94 485.59,66.33 C482.86,70.88 480.13,75.43 475.71,79.07 C474.28,80.24 473.11,81.54 470.9,81.93 L469.73,82.32 C469.99,82.06 470.25,81.8 470.51,81.54 C471.94,80.11 476.1,77.51 475.84,72.57 C475.84,71.79 475.58,71.14 475.32,70.36 C474.93,68.8 474.8,67.24 473.37,65.81 C472.59,65.03 471.81,64.25 471.03,63.34 C470.12,62.3 469.21,61.26 468.17,60.22 C466.35,58.4 464.4,56.71 462.19,55.28 C459.72,53.46 457.25,51.9 455.3,49.69 C453.61,47.87 453.22,47.09 454.26,45.53 C454.65,45.01 455.3,44.62 455.56,43.97 C456.08,42.93 456.34,41.76 456.73,40.59 C456.86,40.2 457.25,39.68 457.51,39.68 C458.94,39.68 457.51,37.08 456.73,36.3 C455.17,35 453.35,34.35 451.66,34.61 C450.1,34.87 448.67,35.39 447.5,36.43 C446.98,36.95 446.2,37.34 445.68,37.86 C445.03,38.51 444.25,39.16 443.86,39.94 C443.08,41.76 443.08,43.71 443.86,45.79 C444.77,48.39 445.81,50.08 447.76,52.16 C447.76,52.16 449.71,54.11 449.84,54.11 C451.27,55.54 453.09,56.84 454.39,58.4 C455.43,59.57 456.86,60.61 457.77,61.78 C458.94,63.34 459.98,65.03 460.76,66.72 C461.93,69.32 461.93,71.79 461.93,74.26 C461.93,75.43 461.41,76.6 460.89,77.64 C459.85,79.85 458.68,81.8 456.08,82.84 C455.82,82.84 455.56,83.1 455.43,83.36 C454.52,84.4 453.35,85.31 451.53,85.18 C451.01,85.05 450.49,84.92 450.1,84.79 C448.54,84.66 447.24,83.88 445.94,82.97 C445.29,82.45 444.38,83.75 444.64,84.27 C445.03,84.92 445.42,85.57 446.33,85.7 C446.59,85.7 446.85,85.96 447.11,86.09 C448.54,86.61 449.84,87.91 451.53,87.39 L451.79,87.39 C452.57,88.04 453.22,87.65 454,87.52 C455.3,87.39 461.8,86.22 462.19,86.09 C462.84,85.96 463.49,85.83 464.01,85.57 C464.66,85.18 465.18,84.79 465.83,84.53 C466.87,84.66 468.04,84.66 469.08,84.53 C470.51,84.27 471.81,84.01 473.11,83.75 C473.89,83.49 474.8,82.32 475.45,81.8 C477.92,80.24 479.61,78.16 481.17,76.08 C481.82,75.17 482.08,74.26 482.6,73.48 C484.29,71.01 485.46,68.67 486.76,66.33 C487.15,65.68 487.93,65.42 487.41,65.03 L487.41,65.03 Z" id="Path"></path>
            <path d="M494.43,73.74 L493.39,73.74 C491.44,73.74 489.88,74.26 489.36,75.82 C488.84,76.73 488.84,78.29 488.84,79.33 C488.84,81.67 488.84,81.67 490.4,82.19 C490.92,82.19 491.44,82.71 491.96,83.23 C492.87,83.62 494.43,84.66 495.47,85.18 C497.81,86.22 499.24,85.7 500.28,83.62 C500.8,82.71 500.8,81.67 501.84,80.63 C502.36,78.81 502.36,76.73 501.32,75.82 C499.24,74.26 497.29,73.74 494.43,73.74 L494.43,73.74 Z" id="Path"></path>
        </g>
    </g>
</svg>