<?xml version="1.0" encoding="UTF-8" standalone="no"?>
<svg width="351px" height="124px" viewBox="0 0 351 124" version="1.1" xmlns="http://www.w3.org/2000/svg" xmlns:xlink="http://www.w3.org/1999/xlink">
    <!-- Generator: Sketch 41.2 (35397) - http://www.bohemiancoding.com/sketch -->
    <title>Holidays</title>
    <desc>Created with Sketch.</desc>
    <defs></defs>
    <g id="About-Us-4" stroke="none" stroke-width="1" fill="none" fill-rule="evenodd">
        <g id="Holidays" fill="#3E3436">
            <path d="M17.06,31.49 C18.23,31.62 19.27,31.23 19.92,30.32 C21.09,28.37 21.87,26.16 22,23.82 C22.13,22.78 21.87,21.48 21.48,20.31 C20.96,19.01 20.18,17.71 19.53,16.41 C18.88,15.24 18.36,14.2 17.71,13.16 C17.32,12.64 16.8,11.99 16.15,11.6 C14.2,10.43 11.73,10.69 10.43,12.25 C9.91,12.9 9.52,13.68 9.13,14.46 C8.35,15.76 7.57,16.93 6.92,18.23 C6.27,19.4 5.75,20.57 5.23,21.74 C4.84,22.78 4.45,23.82 4.19,24.86 C3.93,26.42 3.67,28.11 3.41,29.8 L3.41,30.84 C3.15,32.79 2.76,34.87 2.5,36.82 C2.37,38.25 2.37,39.68 2.24,40.98 C1.98,43.84 1.59,46.7 1.46,49.69 C1.2,52.16 1.07,54.63 0.94,57.23 C0.81,60.22 0.68,63.34 0.68,66.33 C0.55,69.06 0.81,71.79 0.94,74.52 C1.2,77.9 1.46,81.28 1.72,84.53 C1.85,85.57 1.72,86.61 1.72,87.65 C2.24,87.65 2.76,87.65 3.02,87.39 C4.32,86.22 6.14,86.22 7.83,86.09 C9.65,85.96 10.95,84.79 11.08,82.97 C11.08,82.84 11.08,82.71 11.21,82.58 C11.6,81.41 11.99,80.24 12.38,79.2 C12.51,78.68 12.77,77.77 13.16,77.64 C14.72,77.38 15.11,76.34 15.24,74.91 L15.24,72.05 L15.63,64.25 C15.76,62.56 15.63,61 15.63,59.31 C15.63,57.49 15.76,55.67 15.63,53.85 C15.5,52.68 15.89,51.64 16.67,50.86 C18.36,49.17 20.05,47.35 22.26,46.05 C22.91,45.66 23.56,45.27 24.47,44.75 C24.6,45.4 24.6,45.79 24.6,46.31 L24.6,53.85 C24.6,55.02 24.86,56.06 24.86,57.1 C24.73,59.7 24.47,62.17 24.47,64.77 C24.47,67.24 24.47,69.71 24.73,72.18 C24.86,73.87 25.12,75.56 25.64,77.12 C26.29,78.94 26.68,80.89 28.89,82.06 C30.97,83.1 32.92,84.4 35.26,83.88 C35.91,83.88 36.56,83.88 37.21,83.75 C37.99,83.49 38.9,83.36 39.55,82.84 C40.46,82.19 41.11,81.41 41.89,80.63 C43.58,79.07 45.27,77.64 46.83,76.08 C48.52,74.26 55.41,58.01 55.28,58.01 C54.63,57.62 54.63,58.14 53.85,58.01 C53.85,57.88 53.72,58.14 53.72,58.27 C52.55,60.61 51.64,63.08 50.34,65.29 C48.91,68.02 47.35,70.62 45.66,72.96 C43.58,76.08 41.11,78.81 37.86,80.76 C36.69,81.41 35.39,81.93 34.09,82.19 C33.7,82.32 32.66,81.8 32.27,81.41 C31.88,80.76 32.66,80.5 33.05,80.24 C33.44,79.98 33.83,79.72 33.96,79.46 C34.74,78.29 35.65,76.99 36.3,75.69 C36.82,74.65 36.95,73.35 37.34,72.18 C37.47,71.53 37.99,70.88 37.99,70.1 C38.25,68.54 38.25,66.98 38.38,65.42 C38.38,64.38 38.25,63.34 38.25,62.43 L38.25,56.71 C38.25,56.19 38.38,55.54 38.25,55.02 C38.12,53.98 37.86,53.07 37.47,52.16 C37.21,51.25 36.69,50.47 36.17,49.69 C34.61,47.48 33.05,45.27 30.45,43.97 C28.5,42.93 26.68,42.8 24.73,42.67 C24.08,42.67 23.3,42.8 22.78,43.19 C21.35,44.23 19.92,45.4 18.49,46.57 C17.71,47.22 16.8,47.74 15.76,48.52 C16.15,42.8 16.67,37.21 17.06,31.49 Z M16.93,31.1 C16.8,27.46 17.71,24.34 18.62,20.83 C19.66,23.43 18.49,30.45 16.93,31.1 Z" id="Combined-Shape"></path>
            <path d="M81.67,69.19 L81.67,64.77 C81.54,63.6 81.41,62.3 81.28,61.13 C81.15,60.48 81.02,59.96 81.02,59.31 C81.15,56.84 80.63,54.5 79.07,52.42 C78.55,51.77 77.9,51.25 77.25,50.6 C76.47,49.56 75.3,49.43 74.26,49.04 C73.61,48.91 72.7,49.3 72.05,49.56 C71.53,49.69 71.27,49.82 70.88,49.3 C70.36,48.26 69.71,47.35 69.19,46.44 C68.41,45.27 67.63,44.36 66.07,44.23 C64.51,43.97 62.95,43.84 61.65,44.88 C61.13,45.27 60.74,45.79 60.09,46.05 C58.14,46.7 56.71,48.13 55.54,49.56 C54.24,51.38 53.07,53.2 52.03,55.15 C50.99,56.97 49.95,58.92 49.43,60.87 C48.91,63.21 48.39,65.55 49.17,68.02 C49.43,69.19 49.43,70.49 49.82,71.79 C50.47,74.13 51.9,76.08 53.85,77.77 C55.8,79.33 57.62,81.15 60.09,82.32 C61.13,82.71 62.04,83.36 63.08,83.88 C64.38,84.4 65.68,84.79 66.98,85.18 C68.15,85.44 69.19,85.83 70.36,85.83 C72.18,86.09 73.87,85.96 75.56,85.05 C77.12,84.14 78.03,82.84 78.03,81.15 C78.03,79.33 78.42,77.51 79.33,75.82 C79.85,75.04 80.24,74.13 80.5,73.09 C80.63,72.57 80.89,72.44 81.41,72.44 C83.23,72.18 93.63,65.29 97.27,50.47 C97.53,49.43 97.14,49.69 96.88,48.78 C95.97,50.73 95.06,52.55 94.28,54.5 C92.98,57.62 91.55,58.92 89.73,61.78 C88.69,63.47 86.74,65.94 85.57,67.5 C84.53,68.67 82.97,68.02 81.67,69.19 Z M67.11,58.79 C68.54,64.51 71.92,68.54 77.12,71.01 C76.6,74 74.65,75.82 72.44,77.51 C71.66,78.16 70.75,78.94 69.71,78.81 C67.89,78.55 65.94,78.16 64.77,76.6 C64.25,76.08 64.12,75.04 64.12,74.13 C64.12,72.96 64.12,71.79 63.73,70.75 C63.47,69.97 63.47,69.19 63.47,68.41 C63.34,66.07 63.86,63.99 64.77,61.91 C65.16,60.74 66.07,59.83 66.72,58.79 L67.11,58.79 Z M77.38,67.5 C77.12,66.85 76.86,66.2 76.47,65.55 C75.95,64.38 75.3,63.21 74.65,62.04 C74.39,61.52 74.13,60.87 73.74,60.35 C73.61,59.96 73.35,59.57 73.09,59.31 C71.92,57.88 71.14,56.32 70.75,54.76 C70.62,53.98 71.14,53.2 71.4,52.42 C71.53,52.29 71.92,52.16 72.18,52.29 C74.13,52.81 77.12,55.02 77.38,57.62 C77.51,59.44 78.16,61.13 78.03,62.95 C78.03,64.38 78.03,65.94 77.9,67.5 L77.38,67.5 Z" id="Combined-Shape"></path>
            <path d="M107.41,82.06 C107.28,82.06 107.28,81.93 107.15,81.93 L107.15,81.41 C107.15,78.55 107.28,75.69 107.28,72.83 C107.28,72.05 107.02,71.27 107.15,70.49 C107.28,68.54 107.41,66.59 107.67,64.64 C107.93,62.3 107.41,59.83 107.93,57.49 C108.32,55.93 108.19,54.37 108.32,52.81 C108.45,51.51 108.71,50.34 108.71,49.17 C108.71,48 109.23,37.21 109.36,36.04 C109.49,33.96 109.75,31.88 110.01,29.67 C110.14,27.98 110.27,26.16 110.27,24.34 C110.4,22.78 110.66,21.35 110.01,19.79 C109.49,18.36 108.71,16.93 107.41,16.15 C106.37,15.63 105.59,14.72 104.29,14.33 C102.47,13.68 100.78,13.29 98.96,13.42 C97.66,13.55 96.88,14.33 96.75,15.5 C96.36,17.71 95.97,19.92 95.71,22.13 C95.45,23.95 95.45,25.77 95.32,27.59 C95.19,29.8 94.93,31.88 94.8,33.96 C94.67,35.91 94.02,47.61 93.89,49.56 C93.76,51.38 93.37,52.94 93.37,54.76 C93.11,57.62 92.98,60.61 92.85,63.6 C92.72,67.24 92.72,71.01 92.59,74.65 C92.59,76.99 92.85,79.46 94.15,81.67 C95.58,83.75 96.88,85.83 99.48,86.61 C100.39,86.87 101.3,87.13 102.08,87.39 C104.68,88.04 106.5,87 108.06,85.31 C109.49,83.75 110.53,81.93 111.83,80.24 C113.52,77.9 114.69,74.91 116.38,72.44 C118.2,69.71 119.89,66.85 121.58,63.99 C122.1,63.21 122.36,62.3 122.75,61.39 C123.01,60.61 123.01,59.7 123.27,58.92 C123.79,57.75 124.7,57.88 123.27,57.49 C123.01,57.49 122.49,57.49 122.36,57.75 C121.84,58.79 121.45,59.83 120.93,60.87 C120.67,61.52 120.67,62.17 120.28,62.82 C119.89,63.73 118.85,65.68 118.46,66.59 C115.6,71.79 112.35,75.69 108.84,80.5 C108.32,81.02 107.93,81.54 107.41,82.06 Z" id="Path"></path>
            <path d="M124.83,38.12 L130.29,39.29 C132.37,39.29 133.93,38.12 135.23,37.08 C135.88,36.56 136.14,35.39 136.01,34.61 C135.88,33.57 135.75,32.27 134.32,31.88 C132.76,31.62 131.2,30.97 129.77,31.1 C127.95,31.23 126.26,32.01 124.57,32.4 C123.4,32.79 122.49,33.31 122.49,34.61 C122.49,35.91 123.66,37.73 124.83,38.12 Z" id="Path"></path>
            <path d="M149.79,62.82 C149.27,62.3 149.4,62.69 148.75,62.43 C148.36,63.21 148.23,63.86 147.97,64.51 C145.11,69.97 142.38,75.43 138.09,79.85 C136.66,81.28 135.49,82.97 133.28,83.36 C132.5,83.49 131.85,83.88 131.07,84.14 C131.33,83.23 131.46,82.45 132.5,82.32 C133.02,82.32 133.54,81.54 133.8,81.15 C134.06,80.76 133.93,80.24 133.93,79.72 C134.06,76.34 134.45,72.83 135.23,69.58 L135.23,68.15 C135.36,66.85 135.49,65.42 135.49,64.12 C135.62,62.04 135.75,59.96 135.75,57.88 C135.75,56.97 135.75,56.06 135.62,55.15 L135.23,53.59 C135.1,52.55 135.23,51.38 134.71,50.47 C133.54,48.91 132.63,46.96 130.55,46.18 C129.12,45.66 127.69,44.88 126.26,44.88 C123.92,44.88 122.62,46.05 122.1,48.39 C121.97,48.91 121.97,49.43 121.84,49.95 C121.58,51.25 121.32,52.55 121.19,53.85 C120.93,55.54 120.8,57.23 120.67,58.92 C120.41,61.91 120.02,64.77 120.15,67.76 C120.41,70.49 119.89,73.22 120.8,76.08 C121.19,77.51 121.32,78.94 121.71,80.24 C122.62,82.84 124.05,84.92 126.65,86.09 C128.34,86.74 129.9,86.74 131.46,86.48 C132.76,86.35 134.19,85.83 135.49,85.57 C136.27,85.18 137.18,83.75 137.83,83.23 C140.17,81.41 141.86,78.81 143.55,76.21 C144.07,75.3 144.46,74 144.98,73.09 C146.67,70.1 147.84,67.24 149.14,64.51 C149.53,63.6 150.31,63.34 149.79,62.82 Z" id="Path"></path>
            <path d="M169.29,65.81 C169.42,65.81 169.55,65.94 169.68,65.94 C169.55,67.37 169.29,68.8 169.29,70.23 C169.16,72.96 169.16,75.82 170.98,78.16 C171.76,79.2 172.8,80.24 173.45,81.41 C174.36,83.49 175.66,85.05 177.74,85.96 C179.56,86.74 181.38,87.52 183.33,86.87 C183.85,86.74 184.37,86.22 184.89,85.96 C186.06,85.44 186.84,84.27 188.27,84.01 C188.53,84.01 188.66,83.75 188.79,83.62 C191.39,81.41 193.21,78.55 195.29,76.08 C196.07,74.91 196.59,73.48 197.37,72.31 C198.8,70.23 200.23,68.15 201.79,66.2 C203.74,63.47 205.17,60.61 205.43,57.23 L205.43,55.15 C205.43,54.89 205.17,54.63 205.04,54.37 C204.91,54.5 204.52,54.63 204.39,54.89 C202.57,58.27 200.88,61.78 199.06,65.03 C197.76,67.37 197.24,69.84 195.42,71.79 C192.69,75.04 189.96,78.42 186.97,81.54 C185.93,82.71 184.37,83.49 183.07,84.53 C182.94,84.53 182.29,84.4 182.16,84.14 C181.77,82.84 181.51,81.54 181.25,80.11 C181.38,79.72 181.51,79.2 181.51,78.68 C181.77,77.51 181.77,76.47 182.16,75.43 C182.55,74.13 182.55,72.44 182.16,71.14 C181.77,69.32 181.9,67.89 183.07,66.46 C183.46,66.07 183.85,65.68 183.85,65.16 L185.02,56.97 C185.02,56.45 185.28,55.93 185.15,55.54 C184.63,52.94 184.76,50.47 185.67,48 C186.71,44.88 186.06,41.89 184.89,38.9 C184.63,38.12 184.37,37.47 184.5,36.56 C184.76,35.39 184.63,34.35 184.63,33.18 C184.5,31.88 184.24,30.45 184.24,29.15 C184.37,26.03 183.59,10.56 183.72,7.44 C183.72,7.18 183.72,7.05 183.85,6.92 C185.02,3.54 183.33,1.33 180.73,0.94 C179.43,0.81 178.13,0.68 176.83,0.42 C175.53,0.03 174.36,0.55 173.19,1.07 C172.93,1.2 172.67,1.72 172.54,1.98 C172.28,3.28 172.15,4.58 172.15,5.75 C172.02,8.87 171.89,24.34 171.89,27.46 C171.76,31.1 171.63,34.87 171.5,38.64 C171.5,39.03 171.11,39.68 170.98,39.55 C169.03,39.42 167.21,40.46 165.39,40.72 C163.31,40.98 161.62,42.02 160.19,43.45 C158.76,44.75 157.2,45.79 156.03,47.22 C154.34,49.3 152.78,51.51 151.22,53.72 C149.66,56.19 148.23,58.66 146.93,61.13 C146.15,62.82 144.85,64.51 144.98,66.59 C144.98,68.41 144.72,70.49 146.15,72.05 C147.06,72.96 147.84,74 148.88,74.91 C149.92,75.69 151.09,76.47 152.26,76.73 C153.82,77.12 155.38,76.99 156.94,77.12 C158.24,77.12 159.41,77.12 160.32,76.21 C161.1,75.56 161.88,74.91 162.66,74.13 C164.09,72.7 165.52,71.27 166.82,69.58 C167.73,68.41 168.51,67.11 169.29,65.81 Z M170.59,48.26 C170.59,49.95 170.46,51.38 170.46,52.81 C170.46,55.8 168.64,58.14 167.34,60.48 C166.04,63.21 164.61,65.81 163.05,68.28 C161.62,70.49 160.06,72.44 157.59,73.74 C156.94,74 156.81,73.87 156.55,73.35 C155.64,71.66 154.86,70.1 153.82,68.54 C152.91,67.24 152.78,66.59 153.82,65.42 C154.86,64.12 156.03,62.82 157.07,61.65 C158.76,59.7 160.45,57.75 162.27,55.93 C164.48,53.72 166.69,51.64 168.9,49.56 C169.29,49.17 169.81,48.78 170.59,48.26 Z" id="Combined-Shape"></path>
            <path d="M222.07,66.85 C222.07,66.98 222.2,66.98 222.2,66.98 L222.2,70.75 C222.2,72.31 221.94,73.87 222.07,75.3 C222.2,77.51 222.72,79.59 223.63,81.67 C224.41,83.49 225.32,84.92 226.88,86.09 C228.57,87.39 228.18,87.26 230.39,87.26 C231.3,87.26 232.21,87.13 232.99,86.74 C234.42,86.22 235.85,85.31 237.02,84.4 C238.71,83.23 240.01,81.54 241.05,79.72 C242.22,78.03 243.13,76.34 244.3,74.78 C244.82,74 244.82,74.13 245.47,72.96 C246.64,70.75 249.76,64.64 250.67,62.43 C251.06,61.52 251.71,61.52 250.93,61.26 C249.89,61 250.93,61.26 249.76,61.13 C249.63,61.13 249.37,61.52 249.24,61.65 C248.2,63.6 245.34,69.97 244.17,71.79 C243.39,73.22 242.09,74.52 241.18,75.95 C239.75,78.55 238.32,81.15 235.98,83.23 C234.81,84.27 233.51,85.05 232.08,85.31 C231.17,84.4 230.52,83.49 229.61,82.58 C230.52,81.54 231.3,80.37 232.21,79.2 C232.34,79.07 232.34,78.81 232.47,78.68 C232.99,77.12 233.25,75.3 234.16,74 C235.72,71.79 235.98,69.19 236.76,66.85 C237.15,65.29 237.28,63.6 237.41,62.04 C237.67,59.83 237.8,57.62 238.06,55.41 C238.06,54.63 238.32,53.98 238.32,53.2 C238.32,52.03 238.45,50.73 238.32,49.43 C238.19,48.39 237.67,47.22 237.54,46.18 C237.15,44.36 235.85,43.32 234.55,42.28 C233.51,41.24 232.08,41.11 230.65,40.98 C228.83,40.72 227.14,40.98 225.97,42.54 C225.32,43.58 224.67,44.75 224.15,45.66 C223.24,45.01 222.07,44.36 221.03,43.58 C219.73,42.54 218.17,42.54 216.74,43.06 C215.57,43.45 214.66,44.23 213.49,44.49 C212.06,44.75 211.15,45.79 210.11,46.57 C208.94,47.61 207.9,48.78 206.73,49.95 C206.34,50.47 205.82,50.86 205.43,51.51 C204.78,52.55 204.13,53.72 203.48,55.02 C203.09,55.67 202.7,56.32 202.44,57.1 C201.92,58.4 201.53,59.7 201.01,61 C200.36,63.47 199.32,65.81 198.93,68.28 C198.15,71.92 198.8,75.56 200.88,78.81 C202.7,81.8 205.3,83.49 208.94,83.49 C209.85,83.49 210.63,82.84 211.41,82.84 C213.1,82.84 214.27,81.93 215.05,80.89 C216.22,79.59 216.87,77.9 217.65,76.34 C218.82,74.13 219.73,71.79 220.77,69.45 C221.16,68.67 221.68,67.76 222.07,66.85 Z M222.85,49.82 C222.85,51.77 222.72,53.72 222.59,55.67 C222.46,58.4 221.94,60.87 220.38,63.34 C219.08,65.42 218.17,67.89 217,70.1 C215.96,72.18 215.05,74.39 213.75,76.34 C212.71,77.77 211.28,79.07 209.98,80.24 C208.81,81.15 206.47,80.76 205.43,79.46 C204.78,78.68 204,77.9 203.61,76.99 C203.09,75.56 202.44,74 202.96,72.31 C203.48,70.49 203.87,68.67 204.39,66.98 C205.3,64.38 206.21,61.91 207.12,59.44 C207.64,58.14 208.16,56.71 208.81,55.41 C208.94,54.89 209.33,54.37 209.59,53.98 C210.5,52.68 211.41,51.25 212.32,50.08 C213.75,48.52 215.31,47.09 217.52,47.09 C218.17,47.09 218.82,47.61 219.34,48 C219.86,48.52 220.38,49.17 221.03,49.56 C221.55,49.82 222.33,49.82 222.85,49.82 Z" id="Combined-Shape"></path>
            <path d="M260.81,78.16 C260.81,76.6 260.81,75.17 260.94,73.74 C260.94,73.35 261.07,72.96 261.33,72.83 C262.24,72.31 262.63,71.66 262.63,70.75 C262.76,69.84 262.63,68.93 262.89,68.02 C263.54,65.29 263.41,62.56 263.15,59.7 C263.02,58.4 263.15,57.1 263.02,55.67 C262.89,54.37 262.63,53.07 262.24,51.9 C261.72,50.47 260.94,49.17 260.55,47.74 C259.64,45.14 258.47,42.8 255.74,41.37 C254.18,40.46 252.75,40.33 251.32,40.46 C248.72,40.72 247.16,42.41 246.12,44.62 C245.99,44.75 245.99,45.27 246.12,45.4 C246.77,45.79 247.42,46.44 248.07,46.44 C248.85,46.57 249.63,46.31 250.41,46.18 C250.8,47.74 250.67,49.3 250.41,50.99 C250.28,53.07 250.02,55.15 249.76,57.23 C249.63,58.14 249.5,59.18 249.37,60.09 C249.24,61.65 248.85,63.08 248.85,64.51 C248.85,66.46 248.98,68.54 248.98,70.49 C248.98,72.96 248.72,75.43 248.59,77.9 C248.59,78.68 248.85,79.46 248.85,80.37 C248.72,81.8 249.24,83.36 249.63,84.79 C249.63,84.92 249.63,85.05 249.76,85.18 C251.45,86.74 253.27,87.78 255.61,87.39 C258.47,86.87 260.68,85.05 262.5,82.97 C264.06,81.28 265.49,79.46 266.92,77.64 C267.83,76.34 268.87,75.04 269.78,73.87 C270.56,72.83 271.47,71.92 272.25,70.88 C272.38,70.88 272.38,71.01 272.51,71.01 C272.38,71.92 272.38,72.7 272.25,73.61 C272.12,75.04 272.12,76.34 271.99,77.77 C271.99,78.68 271.86,79.72 271.86,80.63 C271.47,83.49 271.21,86.35 270.82,89.08 C270.69,90.51 270.82,91.94 269.52,92.85 C269.13,93.11 268.87,93.37 268.61,93.63 C267.05,95.32 265.62,97.01 264.19,98.57 C262.5,100.52 260.81,102.47 258.73,104.03 C258.47,104.16 258.34,104.68 258.08,104.81 C256.78,105.33 255.87,106.37 255.22,107.54 C254.31,109.23 253.79,111.05 253.53,113 C253.14,116.77 254.18,120.54 257.95,122.88 C258.99,123.53 260.16,124.05 261.46,123.53 C262.11,123.27 262.76,122.75 263.41,122.23 C264.32,121.32 265.36,120.41 266.27,119.5 C266.4,119.5 266.4,119.5 266.4,119.37 C266.92,117.68 268.35,116.64 269.52,115.6 C270.17,114.95 270.95,113.91 270.95,113.13 C270.82,111.57 271.73,110.4 272.25,109.1 C273.03,107.15 274.07,105.59 275.63,104.16 C278.23,102.08 279.27,98.96 279.92,95.71 C280.18,94.28 280.57,92.72 280.96,91.29 C281.35,89.73 281.74,88.17 282.26,86.74 C282.52,86.09 282.78,85.31 283.3,84.79 C283.69,84.14 284.34,83.62 284.86,83.1 C286.42,81.67 287.98,80.37 289.54,79.07 C291.75,77.12 293.7,74.91 295.39,72.57 C295.78,71.92 296.3,71.27 296.43,70.36 C296.56,69.58 295.91,69.45 295.65,68.93 C295.39,69.06 295.13,69.32 294.87,69.58 L294.09,70.36 C292.66,71.79 291.23,73.09 289.8,74.39 C287.72,76.21 285.64,78.03 283.43,79.85 C283.3,79.72 283.17,79.59 283.17,79.46 C283.3,77.77 283.56,76.21 283.69,74.52 C283.82,72.7 284.21,70.75 284.08,68.93 C283.95,67.37 284.34,65.68 283.43,64.12 C283.17,63.73 283.04,63.34 283.04,62.82 C282.65,61.13 282.39,59.31 281.87,57.62 C281.61,56.84 280.96,55.93 280.31,55.67 C277.06,54.24 274.59,56.45 273.81,59.57 C273.55,60.74 273.16,61.91 272.64,62.95 C272.12,63.99 271.6,64.77 270.95,65.68 C269.91,67.37 269,69.06 267.7,70.49 C266.14,72.44 264.45,74.13 262.76,75.95 C262.11,76.6 261.46,77.38 260.81,78.16 Z M269.65,98.31 C269.52,99.48 269.52,100.65 269.39,101.69 C269.26,103.38 269.13,104.94 268.87,106.37 C268.61,107.8 268.22,109.23 267.7,110.53 C266.53,113.65 265.1,116.51 263.8,119.5 C263.8,119.63 263.8,119.89 263.67,119.89 C262.5,120.67 261.33,121.45 260.16,121.97 C259.51,122.23 258.86,121.97 258.21,121.32 C257.43,120.41 257.43,119.37 257.04,118.46 C256,115.6 256.52,113.13 258.21,110.92 C258.73,110.27 258.99,109.49 259.51,108.71 C259.77,108.19 260.03,107.8 260.29,107.28 C260.68,106.89 260.94,106.37 261.59,106.11 C262.24,105.98 262.63,105.33 263.02,104.81 L267.31,100.52 C268.09,99.74 268.87,99.09 269.65,98.31 Z" id="Combined-Shape"></path>
            <path d="M335.82,65.03 C335.3,64.51 335.43,64.9 334.78,64.64 C334.39,65.42 334.26,65.94 334,66.33 C331.27,70.88 328.54,75.43 324.12,79.07 C322.69,80.24 321.52,81.54 319.31,81.93 L318.14,82.32 L318.92,81.54 C320.35,80.11 324.51,77.51 324.25,72.57 C324.25,71.79 323.99,71.14 323.73,70.36 C323.34,68.8 323.21,67.24 321.78,65.81 C321,65.03 320.22,64.25 319.44,63.34 C318.53,62.3 317.62,61.26 316.58,60.22 C314.76,58.4 312.81,56.71 310.6,55.28 C308.13,53.46 305.66,51.9 303.71,49.69 C302.02,47.87 301.63,47.09 302.67,45.53 C303.06,45.01 303.71,44.62 303.97,43.97 C304.49,42.93 304.75,41.76 305.14,40.59 C305.27,40.2 305.66,39.68 305.92,39.68 C307.35,39.68 305.92,37.08 305.14,36.3 C303.58,35 301.76,34.35 300.07,34.61 C298.51,34.87 297.08,35.39 295.91,36.43 C295.39,36.95 294.61,37.34 294.09,37.86 C293.44,38.51 292.66,39.16 292.27,39.94 C291.49,41.76 291.49,43.71 292.27,45.79 C293.18,48.39 294.22,50.08 296.17,52.16 C296.17,52.16 298.12,54.11 298.25,54.11 C299.68,55.54 301.5,56.84 302.8,58.4 C303.84,59.57 305.27,60.61 306.18,61.78 C307.35,63.34 308.39,65.03 309.17,66.72 C310.34,69.32 310.34,71.79 310.34,74.26 C310.34,75.43 309.82,76.6 309.3,77.64 C308.26,79.85 307.09,81.8 304.49,82.84 C304.23,82.84 303.97,83.1 303.84,83.36 C302.93,84.4 301.76,85.31 299.94,85.18 C299.42,85.05 298.9,84.92 298.51,84.79 C296.95,84.66 295.65,83.88 294.35,82.97 C293.7,82.45 292.79,83.75 293.05,84.27 C293.44,84.92 293.83,85.57 294.74,85.7 C295,85.7 295.26,85.96 295.52,86.09 C296.95,86.61 298.25,87.91 299.94,87.39 L300.2,87.39 C300.98,88.04 301.63,87.65 302.41,87.52 C303.71,87.39 310.21,86.22 310.6,86.09 C311.25,85.96 311.9,85.83 312.42,85.57 C313.07,85.18 313.59,84.79 314.24,84.53 C315.28,84.66 316.45,84.66 317.49,84.53 C318.92,84.27 320.22,84.01 321.52,83.75 C322.3,83.49 323.21,82.32 323.86,81.8 C326.33,80.24 328.02,78.16 329.58,76.08 C330.23,75.17 330.49,74.26 331.01,73.48 C332.7,71.01 333.87,68.67 335.17,66.33 C335.56,65.68 336.34,65.42 335.82,65.03 Z" id="Path"></path>
            <path d="M342.84,73.74 L341.8,73.74 C339.85,73.74 338.29,74.26 337.77,75.82 C337.25,76.73 337.25,78.29 337.25,79.33 C337.25,81.67 337.25,81.67 338.81,82.19 C339.33,82.19 339.85,82.71 340.37,83.23 C341.28,83.62 342.84,84.66 343.88,85.18 C346.22,86.22 347.65,85.7 348.69,83.62 C349.21,82.71 349.21,81.67 350.25,80.63 C350.77,78.81 350.77,76.73 349.73,75.82 C347.65,74.26 345.7,73.74 342.84,73.74 Z" id="holidays."></path>
        </g>
    </g>
</svg>