<?xml version="1.0" encoding="UTF-8" standalone="no"?>
<svg width="288px" height="108px" viewBox="0 0 288 108" version="1.1" xmlns="http://www.w3.org/2000/svg" xmlns:xlink="http://www.w3.org/1999/xlink">
    <!-- Generator: Sketch 40.3 (33839) - http://www.bohemiancoding.com/sketch -->
    <title>Singles</title>
    <desc>Created with Sketch.</desc>
    <defs></defs>
    <g id="About-Us-4" stroke="none" stroke-width="1" fill="none" fill-rule="evenodd">
        <g id="Singles" fill="#3E3436">
            <path d="M30.56,70.75 C31.08,70.62 30.04,70.88 30.56,70.75 L30.56,70.75 Z M56.82,72.57 C57.34,72.31 56.3,72.7 56.82,72.57 L56.82,72.57 Z M258.71,70.75 C259.23,70.62 258.19,70.88 258.71,70.75 L258.71,70.75 Z" id="singles."></path>
            <path d="M44.86,52.03 C44.34,51.51 44.47,51.9 43.82,51.64 C43.43,52.42 43.3,52.94 43.04,53.33 C40.31,57.88 37.58,62.43 33.16,66.07 C31.73,67.24 30.56,68.54 28.35,68.93 C27.96,69.06 27.57,69.19 27.18,69.32 C27.44,69.06 27.7,68.8 27.96,68.54 C29.39,67.11 33.55,64.51 33.29,59.57 C33.29,58.79 33.03,58.14 32.77,57.36 C32.38,55.8 32.25,54.24 30.82,52.81 C30.04,52.03 29.26,51.25 28.48,50.34 C27.57,49.3 26.66,48.26 25.62,47.22 C23.8,45.4 21.85,43.71 19.64,42.28 C17.17,40.46 14.7,38.9 12.75,36.69 C11.06,34.87 10.67,34.09 11.71,32.53 C12.1,32.01 12.75,31.62 13.01,30.97 C13.53,29.93 13.79,28.76 14.18,27.59 C14.31,27.2 14.7,26.68 14.96,26.68 C16.39,26.68 14.96,24.08 14.18,23.3 C12.62,22 10.8,21.35 9.11,21.61 C7.55,21.87 6.12,22.39 4.95,23.43 C4.43,23.95 3.65,24.34 3.13,24.86 C2.48,25.51 1.7,26.16 1.31,26.94 C0.53,28.76 0.53,30.71 1.31,32.79 C2.22,35.39 3.26,37.08 5.21,39.16 C5.21,39.16 7.16,41.11 7.29,41.11 C8.72,42.54 10.54,43.84 11.84,45.4 C12.88,46.57 14.31,47.61 15.22,48.78 C16.39,50.34 17.43,52.03 18.21,53.72 C19.38,56.32 19.38,58.79 19.38,61.26 C19.38,62.43 18.86,63.6 18.34,64.64 C17.3,66.85 16.13,68.8 13.53,69.84 C13.27,69.84 13.01,70.1 12.88,70.36 C11.97,71.4 10.8,72.31 8.98,72.18 C8.46,72.05 7.94,71.92 7.55,71.79 C5.99,71.66 4.69,70.88 3.39,69.97 C2.74,69.45 1.83,70.75 2.09,71.27 C2.48,71.92 2.87,72.57 3.78,72.7 C4.04,72.7 4.3,72.96 4.56,73.09 C5.99,73.61 7.29,74.91 8.98,74.39 L9.24,74.39 C10.02,75.04 10.67,74.65 11.45,74.52 C12.75,74.39 19.25,73.22 19.64,73.09 C20.29,72.96 20.94,72.83 21.46,72.57 C22.11,72.18 22.63,71.79 23.28,71.53 C24.32,71.66 25.49,71.66 26.53,71.53 C27.96,71.27 29.26,71.01 30.56,70.75 C31.34,70.49 32.25,69.32 32.9,68.8 C35.37,67.24 37.06,65.16 38.62,63.08 C39.27,62.17 39.53,61.26 40.05,60.48 C41.74,58.01 42.91,55.67 44.21,53.33 C44.6,52.68 45.38,52.42 44.86,52.03 L44.86,52.03 Z" id="Path"></path>
            <path d="M46.16,25.12 C47.98,25.51 49.8,25.9 51.62,26.29 C53.7,26.29 55.26,25.12 56.56,24.08 C57.21,23.56 57.47,22.39 57.34,21.61 C57.21,20.57 57.08,19.27 55.65,18.88 C54.09,18.62 52.53,17.97 51.1,18.1 C49.28,18.23 47.59,19.01 45.9,19.4 C44.73,19.79 43.82,20.31 43.82,21.61 C43.82,22.91 44.99,24.73 46.16,25.12 L46.16,25.12 Z" id="Path"></path>
            <path d="M71.12,49.82 C70.6,49.3 70.73,49.69 70.08,49.43 C69.69,50.21 69.56,50.86 69.3,51.51 C66.44,56.97 63.71,62.43 59.42,66.85 C57.99,68.28 56.82,69.97 54.61,70.36 C53.83,70.49 53.18,70.88 52.4,71.14 C52.66,70.23 52.79,69.45 53.83,69.32 C54.35,69.32 54.87,68.54 55.13,68.15 C55.39,67.76 55.26,67.24 55.26,66.72 C55.39,63.34 55.78,59.83 56.56,56.58 L56.56,55.15 C56.69,53.85 56.82,52.42 56.82,51.12 C56.95,49.04 57.08,46.96 57.08,44.88 C57.08,43.97 57.08,43.06 56.95,42.15 C56.82,41.63 56.69,41.11 56.56,40.59 C56.43,39.55 56.56,38.38 56.04,37.47 C54.87,35.91 53.96,33.96 51.88,33.18 C50.45,32.66 49.02,31.88 47.59,31.88 C45.25,31.88 43.95,33.05 43.43,35.39 C43.3,35.91 43.3,36.43 43.17,36.95 C42.91,38.25 42.65,39.55 42.52,40.85 C42.26,42.54 42.13,44.23 42,45.92 C41.74,48.91 41.35,51.77 41.48,54.76 C41.74,57.49 41.22,60.22 42.13,63.08 C42.52,64.51 42.65,65.94 43.04,67.24 C43.95,69.84 45.38,71.92 47.98,73.09 C49.67,73.74 51.23,73.74 52.79,73.48 C54.09,73.35 55.52,72.83 56.82,72.57 C57.6,72.18 58.51,70.75 59.16,70.23 C61.5,68.41 63.19,65.81 64.88,63.21 C65.4,62.3 65.79,61 66.31,60.09 C68,57.1 69.17,54.24 70.47,51.51 C70.86,50.6 71.64,50.34 71.12,49.82 L71.12,49.82 Z" id="Path"></path>
            <path d="M82.82,38.38 C82.82,37.47 82.95,36.3 82.82,35.26 C82.82,34.48 82.56,33.83 82.17,33.18 C81.39,31.88 80.48,30.58 79.18,29.67 C77.62,28.5 76.32,27.07 74.5,26.68 C72.81,26.29 71.25,25.64 69.56,26.55 C68.39,27.33 67.09,27.59 67.48,29.41 C67.61,30.58 67.48,31.75 67.48,32.92 C67.35,35 67.09,37.08 66.96,39.16 C66.96,39.81 67.22,40.59 67.09,41.24 C67.09,43.19 66.96,45.14 66.83,47.09 C66.83,48.13 66.7,49.3 66.7,50.34 C66.7,51.25 66.96,52.16 66.96,52.94 C66.83,55.41 66.57,57.75 66.83,60.09 C67.09,61.78 67.35,63.47 67.35,65.03 C67.48,66.33 67.35,67.63 67.22,68.93 C67.22,69.84 67.35,70.49 68.39,70.75 C70.08,71.27 71.77,71.66 73.33,72.44 C74.63,73.09 76.19,73.48 77.62,73.74 C79.18,74.13 80.61,73.22 80.87,72.05 C81.13,70.75 81.26,69.32 81.52,68.02 C81.52,66.98 81.39,65.81 81.78,64.9 C82.17,63.99 81.91,63.08 81.91,62.17 C81.78,61.13 81.78,59.96 81.65,58.79 C81.65,57.75 81.39,56.71 81.39,55.54 C81.26,54.24 81.13,52.94 81.26,51.77 C81.52,49.82 81.78,48 82.3,46.18 C82.69,44.36 83.34,42.54 84.12,40.98 C84.77,39.55 85.81,38.25 86.85,37.08 C87.37,36.43 87.89,35.78 88.67,35.52 C89.71,35.13 90.75,35 91.92,34.87 C92.44,34.61 92.7,34.87 92.57,35.52 C92.44,36.3 92.44,37.21 92.18,37.86 C91.66,39.16 90.88,40.33 90.36,41.63 C89.45,44.23 88.67,46.7 87.89,49.3 C87.5,50.6 86.98,52.03 86.98,53.46 C86.85,54.89 86.33,56.19 86.33,57.62 C86.72,61.13 86.98,64.51 89.97,67.11 C91.53,68.54 93.09,69.84 95.04,70.62 C96.47,71.14 97.77,71.79 99.33,71.01 C100.11,70.62 101.02,70.49 101.8,70.23 C102.45,69.97 103.1,69.84 103.62,69.58 C104.66,69.06 105.57,68.67 106.48,68.02 C108.43,66.85 110.12,65.42 111.03,63.21 C111.55,62.17 112.46,61.26 112.98,60.22 C113.76,58.66 114.41,57.36 115.58,55.41 C117.01,52.94 117.66,50.86 118.18,48.91 C118.31,48.13 118.7,47.09 118.44,46.31 C118.31,45.66 116.49,46.96 115.97,48.39 C115.71,49.17 115.84,49.69 115.58,50.47 C114.8,52.81 112.33,57.1 111.29,59.44 C110.25,62.3 107.78,64.38 105.18,66.33 C104.53,66.85 101.8,67.63 101.02,68.15 L101.02,63.86 L101.02,62.69 C101.54,59.57 102.06,56.58 102.58,53.46 C102.71,53.2 102.84,52.94 102.84,52.81 C103.36,51.64 103.75,50.47 104.14,49.17 C104.4,48.39 104.4,47.48 104.66,46.7 C105.18,45.14 105.31,43.84 104.79,42.28 C104.01,40.07 102.97,38.12 101.41,36.43 C99.72,34.22 97.51,32.79 94.78,32.27 C91.66,31.75 89.06,32.53 86.72,34.74 C85.42,36.04 84.12,37.21 82.82,38.38 L82.82,38.38 Z" id="Path"></path>
            <path d="M149.25,72.83 C149.38,71.92 149.51,71.14 149.77,70.36 C150.16,69.19 150.68,68.02 150.94,66.72 C151.46,65.16 151.59,63.6 151.98,62.04 C152.63,59.57 153.28,57.23 152.89,54.5 C152.76,53.46 152.76,52.29 152.89,51.12 C153.28,49.04 153.67,46.96 154.19,45.01 C155.1,41.76 153.8,39.29 151.59,36.95 C150.68,36.04 149.25,35.52 148.34,34.48 C146.65,32.79 144.96,32.79 142.88,33.31 C141.58,33.7 141.32,34.61 141.19,35.65 C140.93,37.34 140.67,39.16 140.67,40.85 C140.54,42.93 139.37,44.62 139.63,46.83 C139.89,48.13 139.5,49.43 139.37,50.86 C139.11,53.33 138.98,55.93 138.59,58.4 C138.07,60.74 137.03,63.08 135.34,64.9 C134.69,65.68 133.78,66.2 133.13,66.98 C131.96,68.28 130.53,69.19 128.97,69.71 C128.32,69.84 127.41,69.84 126.76,69.58 C125.98,69.19 125.98,68.41 125.98,67.63 C126.11,65.16 125.2,62.56 125.85,60.09 C126.24,58.66 126.63,57.36 127.15,56.06 C127.54,54.76 127.93,53.46 128.32,52.29 C128.58,51.51 128.71,50.6 129.1,49.95 C130.14,47.87 131.31,45.79 132.35,43.84 C132.87,42.8 133.39,41.63 134.04,40.59 C135.08,39.03 135.6,37.21 135.99,35.26 C136.12,34.22 136.64,33.96 137.55,34.61 C138.07,35 138.59,35.39 139.11,34.74 C139.63,34.22 139.89,33.57 139.37,32.92 C138.98,32.4 138.85,32.01 138.46,31.62 C137.29,29.93 136.25,28.24 133.91,27.98 C133.26,27.98 132.48,27.46 131.83,27.98 C131.7,28.11 131.57,27.98 131.31,27.98 C131.05,27.98 130.66,27.85 130.4,27.98 C128.97,29.28 127.54,30.45 126.11,31.88 C124.94,33.05 123.9,34.35 122.99,35.65 C121.82,37.21 120.65,38.64 119.61,40.2 C118.44,41.89 117.79,43.84 117.14,45.66 C116.75,47.09 116.23,48.39 115.84,49.69 C115.58,50.6 115.19,51.38 115.19,52.16 C114.93,53.46 114.93,54.76 114.8,55.93 C114.8,56.71 114.67,57.36 114.8,58.01 C115.32,60.09 115.58,62.3 116.75,64.25 C117.79,65.68 118.83,67.11 119.87,68.67 C120.78,70.1 122.34,70.62 123.77,71.53 C125.98,72.96 128.58,73.22 131.05,73.61 C132.48,73.87 133.39,73.09 133.52,72.05 C133.52,71.27 133.91,71.01 134.43,70.88 C134.69,70.75 134.95,70.75 135.08,70.49 C135.99,69.45 137.68,68.93 137.94,67.24 C138.2,67.63 138.2,67.89 138.2,68.15 L138.2,71.4 C138.07,72.83 138.2,74.26 138.07,75.82 C137.94,77.51 137.81,79.2 137.55,80.89 C137.55,81.41 137.16,82.06 136.77,82.45 C135.47,83.62 133.91,84.66 132.74,85.83 C130.79,87.78 128.97,89.99 127.15,92.07 C126.63,92.72 126.11,93.5 125.72,94.28 C124.81,96.36 125.07,98.83 125.2,101.17 C125.2,101.3 125.2,101.43 125.33,101.56 L127.67,105.07 C128.71,106.63 130.4,107.41 132.09,107.8 C133.26,108.06 134.17,107.93 135.08,107.41 C136.25,106.76 136.9,105.72 137.42,104.55 C137.68,103.9 137.81,103.12 138.2,102.47 C138.98,101.17 140.28,100.39 141.32,99.35 C141.71,98.96 142.23,98.57 142.36,97.92 C142.62,97.01 142.75,95.84 142.88,94.8 C143.01,93.76 143.14,92.59 143.27,91.55 C143.53,89.86 144.18,88.3 144.18,86.74 C144.18,84.4 144.96,82.45 145.48,80.37 C145.48,80.11 145.74,79.85 146,79.72 C148.86,77.25 151.98,74.91 154.84,72.44 C156.14,71.4 157.05,69.84 158.09,68.67 C158.48,68.28 169.66,55.15 168.88,54.89 C167.71,54.5 167.19,54.63 166.41,55.41 C163.55,58.66 160.82,61.91 157.83,65.03 C155.88,67.11 153.67,69.06 151.59,71.01 C150.94,71.66 150.03,72.18 149.25,72.83 Z M136.9,87.52 C136.77,88.82 136.64,90.25 136.51,91.55 C136.38,93.63 136.38,95.71 136.12,97.79 C135.99,99.48 135.73,101.04 135.21,102.6 C134.95,103.77 132.87,104.16 131.7,103.9 C129.36,103.38 128.45,101.43 127.15,99.87 C127.02,99.74 126.89,99.48 126.89,99.35 C127.02,98.31 127.02,97.4 127.28,96.49 C127.28,96.1 127.8,95.84 128.06,95.58 C128.58,95.19 129.1,94.93 129.49,94.41 C130.4,93.5 131.18,92.59 132.09,91.68 C132.48,91.29 133.13,91.03 133.52,90.64 C133.78,90.51 133.91,90.25 134.04,90.12 C134.95,89.21 135.86,88.3 136.77,87.39 L136.9,87.52 Z" id="Combined-Shape"></path>
            <path d="M180.71,69.06 C180.58,69.06 180.58,68.93 180.45,68.93 L180.45,68.41 C180.45,65.55 180.58,62.69 180.58,59.83 C180.58,59.05 180.32,58.27 180.45,57.49 C180.58,55.54 180.71,53.59 180.97,51.64 C181.23,49.3 180.71,46.83 181.23,44.49 C181.62,42.93 181.49,41.37 181.62,39.81 C181.75,38.51 182.01,37.34 182.01,36.17 C182.01,35 182.53,24.21 182.66,23.04 C182.79,20.96 183.05,18.88 183.31,16.67 C183.44,14.98 183.57,13.16 183.57,11.34 C183.7,9.78 183.96,8.35 183.31,6.79 C182.79,5.36 182.01,3.93 180.71,3.15 C179.67,2.63 178.89,1.72 177.59,1.33 C175.77,0.68 174.08,0.29 172.26,0.42 C170.96,0.55 170.18,1.33 170.05,2.5 C169.66,4.71 169.27,6.92 169.01,9.13 C168.75,10.95 168.75,12.77 168.62,14.59 C168.49,16.8 168.23,18.88 168.1,20.96 C167.97,22.91 167.32,34.61 167.19,36.56 C167.06,38.38 166.67,39.94 166.67,41.76 C166.41,44.62 166.28,47.61 166.15,50.6 C166.02,54.24 166.02,58.01 165.89,61.65 C165.89,63.99 166.15,66.46 167.45,68.67 C168.88,70.75 170.18,72.83 172.78,73.61 C173.69,73.87 174.6,74.13 175.38,74.39 C177.98,75.04 179.8,74 181.36,72.31 C182.79,70.75 183.83,68.93 185.13,67.24 C186.82,64.9 187.99,61.91 189.68,59.44 C191.5,56.71 193.19,53.85 194.88,50.99 C195.4,50.21 195.66,49.3 196.05,48.39 C196.31,47.61 196.31,46.7 196.57,45.92 C197.09,44.75 198,44.88 196.57,44.49 C196.31,44.49 195.79,44.49 195.66,44.75 C195.14,45.79 194.75,46.83 194.23,47.87 C193.97,48.52 193.97,49.17 193.58,49.82 C193.19,50.73 192.15,52.68 191.76,53.59 C188.9,58.79 185.65,62.69 182.14,67.5 C181.62,68.02 181.23,68.54 180.71,69.06 L180.71,69.06 Z" id="Path"></path>
            <path d="M191.11,58.92 C191.11,59.05 191.24,59.05 191.24,59.05 C191.11,61.52 192.02,63.86 193.06,66.07 C193.58,66.98 194.1,67.76 194.75,68.54 C196.05,70.23 197.61,71.79 199.56,72.7 C201.77,73.61 203.98,74.13 206.32,73.87 C207.1,73.74 207.88,73.74 208.66,73.61 C209.05,73.61 209.57,73.48 210.09,73.35 C210.87,73.09 211.65,72.96 212.43,72.57 C213.08,72.31 213.6,71.79 214.25,71.4 C215.03,70.88 215.94,70.49 216.72,69.97 C218.15,69.06 219.06,67.76 219.97,66.2 C220.36,65.42 220.75,64.64 221.4,63.99 C222.83,62.82 223.74,61.26 224.65,59.7 C224.91,59.18 225.43,58.79 225.56,58.27 C225.82,56.97 226.73,56.32 227.51,55.41 C227.77,55.28 228.03,54.89 228.16,54.63 C228.42,53.98 228.68,53.33 228.94,52.68 C229.2,52.16 229.33,51.77 229.46,51.25 C229.46,50.6 229.59,50.08 230.11,49.56 C230.89,48.52 232.06,48.13 232.45,46.7 C232.71,45.92 232.58,44.75 231.93,44.49 C231.67,44.36 231.28,44.49 231.15,44.62 C230.63,45.4 230.11,46.31 229.59,47.22 C227.9,50.08 226.21,52.94 224.52,55.67 C223.48,57.23 222.18,58.79 221.14,60.35 C219.84,62.56 217.89,64.25 215.81,65.81 C214.51,66.98 212.95,67.76 211.52,68.8 C210.35,69.71 209.05,70.49 207.62,70.62 C206.32,70.88 204.89,71.14 203.46,71.01 C201.38,70.88 200.21,69.71 199.04,68.28 C199.04,68.15 198.91,67.89 198.91,67.76 C199.56,66.59 199.69,65.16 199.95,63.86 C200.34,62.17 200.73,60.35 201.25,58.79 C201.38,58.01 201.77,57.23 202.42,56.97 C203.59,56.19 204.89,55.54 206.06,54.63 C207.36,53.46 208.92,52.42 210.35,51.25 C212.04,49.95 213.47,48.39 214.64,46.57 C214.9,46.18 215.42,45.92 215.94,45.66 C216.07,45.53 216.33,45.4 216.33,45.27 C216.85,44.36 217.24,43.58 217.76,42.67 C218.02,42.15 218.41,41.63 218.67,41.11 C218.8,40.85 219.06,40.59 219.06,40.46 C219.32,39.94 219.45,39.29 219.45,38.77 C219.71,37.86 219.84,36.95 219.97,36.04 C219.97,35.91 219.84,35.65 219.84,35.52 C219.45,34.74 219.06,34.09 218.67,33.31 C218.41,32.79 218.15,32.27 218.02,31.62 C217.63,30.58 216.98,29.93 216.07,29.28 C215.29,28.76 214.38,28.76 213.6,28.63 C212.43,28.24 211.52,28.63 210.74,28.89 C209.57,29.28 208.4,29.54 207.49,30.58 C207.23,30.84 206.97,30.97 206.71,31.1 C205.8,31.62 204.76,32.01 203.98,32.79 C202.81,33.7 201.77,34.87 200.73,36.04 C200.21,36.43 199.82,37.08 199.3,37.6 C198.91,37.99 198.65,38.51 198.26,39.03 C197.74,39.94 197.09,40.85 196.57,41.76 C195.66,43.32 194.88,44.88 194.23,46.57 C193.58,48.13 192.93,49.69 192.67,51.51 C192.54,51.9 192.28,52.16 192.15,52.55 C192.02,53.33 191.89,53.98 191.89,54.63 C191.63,56.06 191.37,57.49 191.11,58.92 Z M215.03,36.3 C215.42,37.08 215.94,37.34 216.85,37.08 C216.72,37.86 216.72,38.51 216.46,39.16 C215.68,41.76 214.77,44.23 212.95,46.18 C211.39,47.87 209.7,49.43 208.01,50.86 C206.84,51.9 205.41,52.68 204.11,53.59 C203.85,53.72 203.72,53.85 203.59,53.85 C204.11,52.29 204.63,50.86 205.28,49.3 C205.54,48.39 205.8,47.48 206.19,46.57 C206.58,45.79 207.1,45.14 207.49,44.36 C207.75,43.97 207.88,43.58 208.14,43.06 C208.92,41.89 209.7,40.59 210.61,39.29 C210.74,39.03 211.13,38.9 211.52,38.64 C212.3,38.12 213.08,37.6 213.99,37.08 C214.25,36.82 214.64,36.69 215.03,36.3 Z" id="Combined-Shape"></path>
            <path d="M273.01,52.03 C272.49,51.51 272.62,51.9 271.97,51.64 C271.58,52.42 271.45,52.94 271.19,53.33 C268.46,57.88 265.73,62.43 261.31,66.07 C259.88,67.24 258.71,68.54 256.5,68.93 C256.11,69.06 255.72,69.19 255.33,69.32 C255.59,69.06 255.85,68.8 256.11,68.54 C257.54,67.11 261.7,64.51 261.44,59.57 C261.44,58.79 261.18,58.14 260.92,57.36 C260.53,55.8 260.4,54.24 258.97,52.81 C258.19,52.03 257.41,51.25 256.63,50.34 C255.72,49.3 254.81,48.26 253.77,47.22 C251.95,45.4 250,43.71 247.79,42.28 C245.32,40.46 242.85,38.9 240.9,36.69 C239.21,34.87 238.82,34.09 239.86,32.53 C240.25,32.01 240.9,31.62 241.16,30.97 C241.68,29.93 241.94,28.76 242.33,27.59 C242.46,27.2 242.85,26.68 243.11,26.68 C244.54,26.68 243.11,24.08 242.33,23.3 C240.77,22 238.95,21.35 237.26,21.61 C235.7,21.87 234.27,22.39 233.1,23.43 C232.58,23.95 231.8,24.34 231.28,24.86 C230.63,25.51 229.85,26.16 229.46,26.94 C228.68,28.76 228.68,30.71 229.46,32.79 C230.37,35.39 231.41,37.08 233.36,39.16 C233.36,39.16 235.31,41.11 235.44,41.11 C236.87,42.54 238.69,43.84 239.99,45.4 C241.03,46.57 242.46,47.61 243.37,48.78 C244.54,50.34 245.58,52.03 246.36,53.72 C247.53,56.32 247.53,58.79 247.53,61.26 C247.53,62.43 247.01,63.6 246.49,64.64 C245.45,66.85 244.28,68.8 241.68,69.84 C241.42,69.84 241.16,70.1 241.03,70.36 C240.12,71.4 238.95,72.31 237.13,72.18 C236.61,72.05 236.09,71.92 235.7,71.79 C234.14,71.66 232.84,70.88 231.54,69.97 C230.89,69.45 229.98,70.75 230.24,71.27 C230.63,71.92 231.02,72.57 231.93,72.7 C232.19,72.7 232.45,72.96 232.71,73.09 C234.14,73.61 235.44,74.91 237.13,74.39 L237.39,74.39 C238.17,75.04 238.82,74.65 239.6,74.52 C240.9,74.39 247.4,73.22 247.79,73.09 C248.44,72.96 249.09,72.83 249.61,72.57 C250.26,72.18 250.78,71.79 251.43,71.53 C252.47,71.66 253.64,71.66 254.68,71.53 C256.11,71.27 257.41,71.01 258.71,70.75 C259.49,70.49 260.4,69.32 261.05,68.8 C263.52,67.24 265.21,65.16 266.77,63.08 C267.42,62.17 267.68,61.26 268.2,60.48 C269.89,58.01 271.06,55.67 272.36,53.33 C272.75,52.68 273.53,52.42 273.01,52.03 L273.01,52.03 Z" id="Path"></path>
            <path d="M280.03,60.74 L278.99,60.74 C277.04,60.74 275.48,61.26 274.96,62.82 C274.44,63.73 274.44,65.29 274.44,66.33 C274.44,68.67 274.44,68.67 276,69.19 C276.52,69.19 277.04,69.71 277.56,70.23 C278.47,70.62 280.03,71.66 281.07,72.18 C283.41,73.22 284.84,72.7 285.88,70.62 C286.4,69.71 286.4,68.67 287.44,67.63 C287.96,65.81 287.96,63.73 286.92,62.82 C284.84,61.26 282.89,60.74 280.03,60.74 L280.03,60.74 Z" id="Path"></path>
        </g>
    </g>
</svg>