<?xml version="1.0" encoding="UTF-8" standalone="no"?>
<svg width="18px" height="20px" viewBox="0 0 18 20" version="1.1" xmlns="http://www.w3.org/2000/svg" xmlns:xlink="http://www.w3.org/1999/xlink" xmlns:sketch="http://www.bohemiancoding.com/sketch/ns">
    <!-- Generator: Sketch 3.5.2 (25235) - http://www.bohemiancoding.com/sketch -->
    <title>Shape</title>
    <desc>Created with Sketch.</desc>
    <defs></defs>
    <g id="Grid-System" stroke="none" stroke-width="1" fill-rule="evenodd" sketch:type="MSPage">
        <g id="Elements" sketch:type="MSArtboardGroup" transform="translate(-672.000000, -97.000000)">
            <g id="Group-2" sketch:type="MSLayerGroup" transform="translate(672.000000, 92.000000)">
                <g id="shopping-cart12" transform="translate(0.000000, 5.000000)" sketch:type="MSShapeGroup">
                    <path d="M17.8096287,5.53481744 C17.9684922,5.7554612 18.0280011,6.02023371 17.9883502,6.32913497 L17.2337485,11.139205 C17.2072712,11.38934 17.1046395,11.5952021 16.9259505,11.7570075 C16.747229,11.9188129 16.5453724,11.9997156 16.3202833,11.9997156 L5.31898554,11.9997156 L5.10054822,13.3677069 L15.5855721,13.3677069 C15.837106,13.3677069 16.0554135,13.4669966 16.2408516,13.665576 C16.4262248,13.8641554 16.5187978,14.1105409 16.5187978,14.4047326 C16.5187978,14.6989243 16.4261923,14.9453098 16.2408516,15.1438892 C16.0554135,15.3424686 15.837106,15.4417582 15.5855721,15.4417582 L3.98850367,15.4417582 C3.71049254,15.4417582 3.47219728,15.3167268 3.2736179,15.066772 C3.08827714,14.816637 3.0154647,14.529764 3.05518058,14.2062614 L3.55162903,11.2055062 L2.79702738,2.77684256 L0.652370046,2.02665378 C0.400836161,1.93839628 0.218805061,1.76920001 0.106276744,1.51917314 C-0.00625157316,1.26907416 -0.0294191678,1.0043377 0.0367739598,0.724855607 C0.116205713,0.445373513 0.271759563,0.243116734 0.503435509,0.118085271 C0.735111455,-0.0069461924 0.970097058,-0.0326879642 1.20839232,0.0408599553 L3.9487878,1.01169249 C4.12088993,1.07053083 4.26320515,1.18085271 4.37573347,1.34265813 C4.48826179,1.50446355 4.55776457,1.68836941 4.58424182,1.89430358 L4.74310533,3.57119614 L17.1741747,5.11570245 C17.4521858,5.15972305 17.6640038,5.29946409 17.8096287,5.53481744 L17.8096287,5.53481744 Z M5.39844974,16.015432 C5.7956085,16.015432 6.13319346,16.1698827 6.41120459,16.478856 C6.68921573,16.7876491 6.82822129,17.1628517 6.82822129,17.6041392 C6.82822129,18.0453185 6.68921573,18.4241985 6.41120459,18.7404545 C6.13319346,19.0567106 5.7956085,19.2148386 5.39844974,19.2148386 C5.00129097,19.2148386 4.66370602,19.0567106 4.38569489,18.7404545 C4.10768375,18.4242345 3.96867818,18.0454267 3.96867818,17.6041392 C3.96867818,17.1628517 4.10768375,16.7876852 4.38569489,16.478856 C4.66367358,16.1698827 5.00125853,16.015432 5.39844974,16.015432 L5.39844974,16.015432 Z M13.8777569,16.015432 C14.2748508,16.015432 14.6125331,16.1698827 14.8905442,16.478856 C15.1684256,16.7876491 15.3075609,17.1628517 15.3075609,17.6041392 C15.3075609,18.0453185 15.1685229,18.4241985 14.8905442,18.7404545 C14.6125331,19.0567106 14.2748508,19.2148386 13.8777569,19.2148386 C13.4805982,19.2148386 13.1429483,19.0567106 12.8650345,18.7404545 C12.5870234,18.4242345 12.4479205,18.0454267 12.4479205,17.6041392 C12.4479205,17.1628517 12.5869585,16.7876852 12.8650345,16.478856 C13.1430132,16.1698827 13.4805982,16.015432 13.8777569,16.015432 L13.8777569,16.015432 Z" id="Shape"></path>
                </g>
            </g>
        </g>
    </g>
</svg>