<?xml version="1.0" encoding="UTF-8" standalone="no"?>
<svg width="57px" height="57px" viewBox="0 0 57 57" version="1.1" xmlns="http://www.w3.org/2000/svg" xmlns:xlink="http://www.w3.org/1999/xlink" xmlns:sketch="http://www.bohemiancoding.com/sketch/ns">
    <!-- Generator: Sketch 3.5.2 (25235) - http://www.bohemiancoding.com/sketch -->
    <title>Group</title>
    <desc>Created with Sketch.</desc>
    <defs></defs>
    <g id="Grid-System" stroke="none" stroke-width="1" fill="none" fill-rule="evenodd" sketch:type="MSPage">
        <g id="Elements" sketch:type="MSArtboardGroup" transform="translate(-41.000000, -149.000000)" fill="#000000">
            <g id="Group" sketch:type="MSLayerGroup" transform="translate(41.000000, 149.000000)">
                <path d="M0,1.56593407 L0,1.56593407 L1.56593407,0 L1.56593407,57 L0,55.4340659 L57,55.4340659 L55.4340659,57 L55.4340659,0 L57,1.56593407 L0,1.56593407 Z M0,0 L57,0 L57,57 L0,57 L0,0 L0,0 Z" id="Shape" sketch:type="MSShapeGroup"></path>
                <path d="M15.0231799,16.0875258 C15.0231799,16.8745747 14.7377261,17.4883005 14.1668098,17.9287217 C13.5958934,18.3691428 12.8210901,18.5893501 11.8423764,18.5893501 C10.7821032,18.5893501 9.96652071,18.45274 9.3956044,18.1795158 L9.3956044,17.1763393 C9.76262203,17.3313023 10.1622575,17.4536397 10.5945227,17.5433551 C11.0267879,17.6330705 11.4549687,17.6779275 11.879078,17.6779275 C12.5723335,17.6779275 13.0943063,17.5464149 13.445012,17.2833856 C13.7957178,17.0203563 13.971068,16.6543636 13.971068,16.1853966 C13.971068,15.8754706 13.9088798,15.6216206 13.7845016,15.4238389 C13.6601234,15.2260571 13.4521499,15.0435705 13.1605748,14.8763736 C12.8689997,14.7091767 12.4255267,14.5195538 11.8301425,14.3074991 C10.9982359,14.0098071 10.4038801,13.6570676 10.0470574,13.2492703 C9.69023474,12.8414729 9.51182606,12.3093053 9.51182606,11.6527515 C9.51182606,10.963574 9.77077351,10.4150948 10.2886762,10.0072974 C10.8065788,9.59950002 11.4916681,9.3956044 12.3439646,9.3956044 C13.2329629,9.3956044 14.0505844,9.5587209 14.7968535,9.88495879 L14.4726563,10.7902644 C13.734543,10.4803384 13.0168304,10.3253777 12.3194969,10.3253777 C11.7689705,10.3253777 11.3387507,10.4436372 11.0288247,10.6801597 C10.7188987,10.9166822 10.563938,11.2449541 10.563938,11.6649854 C10.563938,11.9749114 10.6210288,12.2287615 10.7352121,12.4265432 C10.8493953,12.6243249 11.0420767,12.805792 11.3132619,12.9709499 C11.5844472,13.1361079 11.9993748,13.3185945 12.5580572,13.5184152 C13.4959911,13.852809 14.1413208,14.2116653 14.4940655,14.5949948 C14.8468102,14.9783244 15.0231799,15.4758297 15.0231799,16.0875258 L15.0231799,16.0875258 Z" id="S-Copy-2" sketch:type="MSShapeGroup"></path>
                <path d="M15.0072759,33.6847098 L10.021978,33.6847098 L10.021978,24.7417582 L15.0072759,24.7417582 L15.0072759,25.6654147 L11.0618561,25.6654147 L11.0618561,28.5464887 L14.7687157,28.5464887 L14.7687157,29.4640282 L11.0618561,29.4640282 L11.0618561,32.7549365 L15.0072759,32.7549365 L15.0072759,33.6847098 Z" id="E-Copy-2" sketch:type="MSShapeGroup"></path>
                <path d="M15.3070055,49.0675652 L14.1937242,46.2231928 L10.6092033,46.2231928 L9.50815591,49.0675652 L8.45604396,49.0675652 L11.9916295,40.0879121 L12.8663504,40.0879121 L16.3835852,49.0675652 L15.3070055,49.0675652 Z M13.869527,45.2873025 L12.8296489,42.5163333 C12.6950757,42.1656275 12.5564267,41.7354078 12.4136976,41.2256611 C12.3239822,41.6171465 12.195528,42.0473663 12.028331,42.5163333 L10.9762191,45.2873025 L13.869527,45.2873025 Z" id="A-Copy-2" sketch:type="MSShapeGroup"></path>
                <path d="M32.3426554,13.9955357 C32.3426554,15.4269045 31.9807407,16.5524083 31.2569003,17.372081 C30.53306,18.1917538 29.5268351,18.601584 28.2381954,18.601584 C26.9210099,18.601584 25.9045902,18.1988901 25.1889058,17.3934903 C24.4732214,16.5880905 24.1153846,15.4513724 24.1153846,13.9833019 C24.1153846,12.5274652 24.4742409,11.398903 25.1919643,10.5975811 C25.9096877,9.7962593 26.9291658,9.3956044 28.2504293,9.3956044 C29.534991,9.3956044 30.5381574,9.80339565 31.2599588,10.6189904 C31.9817601,11.4345851 32.3426554,12.560089 32.3426554,13.9955357 L32.3426554,13.9955357 Z M25.216432,13.9955357 C25.216432,15.2066939 25.47436,16.1252437 25.9902236,16.7512127 C26.5060873,17.3771816 27.2554037,17.6901614 28.2381954,17.6901614 C29.229143,17.6901614 29.97744,17.3782011 30.4831087,16.7542711 C30.9887774,16.1303411 31.241608,15.2107719 31.241608,13.9955357 C31.241608,12.7925335 30.9897969,11.8801006 30.4861672,11.2582096 C29.9825374,10.6363186 29.2372989,10.3253777 28.2504293,10.3253777 C27.2594817,10.3253777 26.5060873,10.6383575 25.9902236,11.2643265 C25.47436,11.8902955 25.216432,12.8006894 25.216432,13.9955357 L25.216432,13.9955357 Z" id="O-Copy-2" sketch:type="MSShapeGroup"></path>
                <path d="M25.6813187,24.7417582 L28.2076107,24.7417582 C29.3943011,24.7417582 30.2527017,24.9191474 30.7828383,25.2739311 C31.3129748,25.6287149 31.5780391,26.1894278 31.5780391,26.9560869 C31.5780391,27.4862235 31.4302148,27.9235796 31.1345617,28.2681684 C30.8389086,28.6127571 30.4076694,28.8360228 29.840831,28.9379722 L29.840831,28.9991415 C31.1987963,29.231586 31.8777687,29.9452207 31.8777687,31.140067 C31.8777687,31.9393498 31.607607,32.5632704 31.0672755,33.0118475 C30.526944,33.4604246 29.7715107,33.6847098 28.800953,33.6847098 L25.6813187,33.6847098 L25.6813187,24.7417582 Z M26.7211968,28.5709564 L28.4339372,28.5709564 C29.1679724,28.5709564 29.6960621,28.4557554 30.018222,28.2253498 C30.3403819,27.9949443 30.5014595,27.6065232 30.5014595,27.0600747 C30.5014595,26.5584839 30.3220313,26.1965692 29.9631696,25.9743196 C29.604308,25.7520701 29.0334002,25.6409469 28.2504293,25.6409469 L26.7211968,25.6409469 L26.7211968,28.5709564 Z M26.7211968,29.4517943 L26.7211968,32.797755 L28.5868604,32.797755 C29.3086617,32.797755 29.8520436,32.6580865 30.2170222,32.3787453 C30.5820009,32.0994041 30.7644875,31.662048 30.7644875,31.0666638 C30.7644875,30.5120594 30.577923,30.1042681 30.2047884,29.8432778 C29.8316538,29.5822875 29.2638045,29.4517943 28.5012234,29.4517943 L26.7211968,29.4517943 Z" id="B-Copy-2" sketch:type="MSShapeGroup"></path>
                <path d="M32.0404791,49.0308637 L30.8537946,49.0308637 L25.9663676,41.5253906 L25.9174322,41.5253906 C25.9826798,42.4062329 26.0153031,43.2136596 26.0153031,43.9476949 L26.0153031,49.0308637 L25.0549451,49.0308637 L25.0549451,40.0879121 L26.2293956,40.0879121 L31.1045888,47.5628005 L31.1535242,47.5628005 C31.1453683,47.4526952 31.1270177,47.0989363 31.0984718,46.5015131 C31.069926,45.90409 31.0597312,45.4769287 31.0678872,45.2200163 L31.0678872,40.0879121 L32.0404791,40.0879121 L32.0404791,49.0308637 Z" id="N-Copy-2" sketch:type="MSShapeGroup"></path>
                <path d="M44.0455658,18.338556 L41.0115685,10.4110148 L40.9626331,10.4110148 C41.0197247,11.0390227 41.0482701,11.7852807 41.0482701,12.6498111 L41.0482701,18.338556 L40.0879121,18.338556 L40.0879121,9.3956044 L41.6538462,9.3956044 L44.4859847,16.7726219 L44.5349202,16.7726219 L47.3915264,9.3956044 L48.9452266,9.3956044 L48.9452266,18.338556 L47.9053486,18.338556 L47.9053486,12.576408 C47.9053486,11.9157762 47.9338939,11.1980636 47.9909856,10.4232486 L47.9420501,10.4232486 L44.8835852,18.338556 L44.0455658,18.338556 Z" id="M-Copy-2" sketch:type="MSShapeGroup"></path>
                <path d="M43.0069111,29.9656164 L43.0069111,33.6847098 L41.967033,33.6847098 L41.967033,24.7417582 L44.4199219,24.7417582 C45.5168968,24.7417582 46.3273819,24.9517707 46.8514015,25.371802 C47.3754211,25.7918333 47.637427,26.4239098 47.637427,27.2680503 C47.637427,28.4506627 47.0379739,29.2499335 45.8390496,29.6658868 L48.2674708,33.6847098 L47.0379679,33.6847098 L44.8725747,29.9656164 L43.0069111,29.9656164 Z M43.0069111,29.0725446 L44.4321557,29.0725446 C45.166191,29.0725446 45.7044755,28.9267593 46.0470252,28.6351842 C46.389575,28.343609 46.5608474,27.9062529 46.5608474,27.3231027 C46.5608474,26.7317965 46.3865166,26.3056546 46.0378498,26.0446643 C45.6891831,25.783674 45.1294896,25.6531808 44.3587526,25.6531808 L43.0069111,25.6531808 L43.0069111,29.0725446 Z" id="R-Copy-2" sketch:type="MSShapeGroup"></path>
                <path d="M48.7923034,44.4737509 C48.7923034,45.9499773 48.3916485,47.0785396 47.5903267,47.8594716 C46.7890048,48.6404035 45.6359751,49.0308637 44.1312028,49.0308637 L41.6538462,49.0308637 L41.6538462,40.0879121 L44.3942308,40.0879121 C45.7848198,40.0879121 46.8654666,40.4732748 47.6362036,41.2440118 C48.4069407,42.0147489 48.7923034,43.0913178 48.7923034,44.4737509 L48.7923034,44.4737509 Z M47.691256,44.5104524 C47.691256,43.344152 47.3986658,42.4653618 46.8134766,41.8740556 C46.2282873,41.2827494 45.3586725,40.9871008 44.2046059,40.9871008 L42.6937242,40.9871008 L42.6937242,48.131675 L43.9599287,48.131675 C45.1996327,48.131675 46.1314358,47.826851 46.7553657,47.2171939 C47.3792957,46.6075369 47.691256,45.7052987 47.691256,44.5104524 L47.691256,44.5104524 Z" id="D-Copy-2" sketch:type="MSShapeGroup"></path>
            </g>
        </g>
    </g>
</svg>