<?xml version="1.0" encoding="utf-8"?>
<!-- Generator: Adobe Illustrator 18.1.1, SVG Export Plug-In . SVG Version: 6.00 Build 0)  -->
<!DOCTYPE svg PUBLIC "-//W3C//DTD SVG 1.1//EN" "http://www.w3.org/Graphics/SVG/1.1/DTD/svg11.dtd">
<svg version="1.1" id="Layer_1" xmlns="http://www.w3.org/2000/svg" xmlns:xlink="http://www.w3.org/1999/xlink" x="0px" y="0px"
	 viewBox="0 0 56 38" enable-background="new 0 0 56 38" xml:space="preserve">
<g>
	<path fill="#35495E" d="M56,33.6c0,2.062-1.671,3.733-3.733,3.733H3.733C1.671,37.333,0,35.662,0,33.6V3.733
		C0,1.671,1.671,0,3.733,0h48.533C54.329,0,56,1.671,56,3.733V33.6z"/>
	<g>
		<circle fill="#E64C3C" cx="20.856" cy="18.617" r="10.936"/>
		<circle fill="#F0C419" cx="35.55" cy="18.617" r="10.936"/>
		<path fill="#F29C1F" d="M24.614,18.617c0,3.212,1.385,6.1,3.589,8.101c2.205-2.001,3.589-4.889,3.589-8.101
			s-1.385-6.1-3.589-8.101C25.998,12.517,24.614,15.405,24.614,18.617z"/>
	</g>
	<g>
		<path id="path4157_4_" fill="#FFFFFF" d="M23.591,22.315l0.195-1.325c-0.107,0-0.263,0.046-0.402,0.046
			c-0.542,0-0.602-0.288-0.568-0.502l0.438-2.703h0.824l0.199-1.465h-0.777l0.158-0.911h-1.558c-0.034,0.034-0.92,5.124-0.92,5.744
			c0,0.918,0.515,1.326,1.242,1.32C22.992,22.514,23.435,22.357,23.591,22.315z"/>
		<path id="path4155_4_" fill="#FFFFFF" d="M24.085,19.789c0,2.202,1.454,2.726,2.692,2.726c1.143,0,1.646-0.256,1.646-0.256
			l0.275-1.503c0,0-0.87,0.383-1.655,0.383c-1.673,0-1.38-1.248-1.38-1.248h3.167c0,0,0.204-1.01,0.204-1.421
			c0-1.027-0.511-2.278-2.222-2.278C25.245,16.193,24.085,17.881,24.085,19.789z M26.818,17.588c0.879,0,0.717,0.988,0.717,1.068
			h-1.73C25.805,18.554,25.968,17.588,26.818,17.588z"/>
		<path id="path4151_4_" fill="#FFFFFF" d="M36.686,22.314l0.279-1.699c0,0-0.765,0.383-1.289,0.383
			c-1.105,0-1.549-0.844-1.549-1.751c0-1.84,0.951-2.852,2.01-2.852c0.794,0,1.431,0.446,1.431,0.446l0.254-1.651
			c0,0-0.945-0.382-1.755-0.382c-1.799,0-3.549,1.561-3.549,4.492c0,1.944,0.945,3.227,2.805,3.227
			C35.848,22.527,36.686,22.314,36.686,22.314z"/>
		<path id="path4149_8_" fill="#FFFFFF" d="M15.02,16.217c-1.069,0-1.888,0.343-1.888,0.343l-0.226,1.342
			c0,0,0.676-0.275,1.698-0.275c0.58,0,1.005,0.065,1.005,0.537c0,0.286-0.052,0.392-0.052,0.392s-0.458-0.038-0.67-0.038
			c-1.348,0-2.764,0.575-2.764,2.309c0,1.366,0.929,1.68,1.504,1.68c1.099,0,1.573-0.713,1.599-0.716l-0.051,0.595h1.372
			l0.612-4.292C17.16,16.275,15.572,16.217,15.02,16.217z M15.354,19.711c0.03,0.262-0.164,1.491-1.103,1.491
			c-0.484,0-0.61-0.37-0.61-0.588c0-0.427,0.232-0.939,1.374-0.939C15.281,19.675,15.309,19.704,15.354,19.711z"/>
		<path id="path4145_4_" fill="#FFFFFF" d="M18.619,22.476c0.351,0,2.358,0.089,2.358-1.981c0-1.936-1.857-1.553-1.857-2.331
			c0-0.387,0.303-0.509,0.856-0.509c0.22,0,1.065,0.07,1.065,0.07l0.197-1.376c0,0-0.547-0.122-1.438-0.122
			c-1.153,0-2.323,0.46-2.323,2.035c0,1.784,1.951,1.605,1.951,2.357c0,0.502-0.545,0.542-0.965,0.542
			c-0.727,0-1.382-0.249-1.384-0.238l-0.208,1.362C16.908,22.296,17.311,22.476,18.619,22.476z"/>
		<path id="path4139_4_" fill="#FFFFFF" d="M49.594,14.982l-0.336,2.086c0,0-0.587-0.81-1.505-0.81c-1.428,0-2.618,1.722-2.618,3.7
			c0,1.277,0.635,2.528,1.932,2.528c0.933,0,1.451-0.651,1.451-0.651L48.45,22.39h1.516l1.19-7.411L49.594,14.982z M48.87,19.049
			c0,0.823-0.408,1.923-1.252,1.923c-0.561,0-0.824-0.471-0.824-1.21c0-1.208,0.543-2.005,1.227-2.005
			C48.582,17.756,48.87,18.142,48.87,19.049z"/>
		<path id="path4133_4_" fill="#FFFFFF" d="M6.583,22.396l0.949-5.595l0.139,5.595h1.074l2.003-5.595L9.86,22.396h1.595l1.229-7.42
			h-2.467L8.68,19.529L8.6,14.976H6.326l-1.246,7.42H6.583z"/>
		<path id="path4131_8_" fill="#FFFFFF" d="M30.592,22.407c0.454-2.579,0.538-4.674,1.62-4.291c0.189-0.998,0.372-1.385,0.579-1.807
			c0,0-0.097-0.02-0.3-0.02c-0.698,0-1.215,0.953-1.215,0.953l0.139-0.876h-1.451l-0.972,6.04H30.592z"/>
		<g id="use8523_4_" transform="translate(847.0062,0)">
			<path id="path4149_7_" fill="#FFFFFF" d="M-806.725,16.217c-1.069,0-1.888,0.343-1.888,0.343l-0.226,1.342
				c0,0,0.676-0.275,1.698-0.275c0.58,0,1.005,0.065,1.005,0.537c0,0.286-0.052,0.392-0.052,0.392s-0.458-0.038-0.67-0.038
				c-1.348,0-2.763,0.575-2.763,2.309c0,1.366,0.929,1.68,1.504,1.68c1.099,0,1.573-0.713,1.599-0.716l-0.051,0.595
				c0,0,1.372,0,1.372,0l0.612-4.292C-804.585,16.275-806.173,16.217-806.725,16.217z M-806.391,19.711
				c0.03,0.262-0.164,1.491-1.103,1.491c-0.484,0-0.61-0.37-0.61-0.588c0-0.427,0.232-0.939,1.374-0.939
				C-806.464,19.675-806.436,19.704-806.391,19.711z"/>
		</g>
		<g id="use8525_4_" transform="translate(442.2857,0)">
			<path id="path4131_7_" fill="#FFFFFF" d="M-398.61,22.407c0.454-2.579,0.538-4.674,1.62-4.291
				c0.19-0.998,0.373-1.385,0.579-1.807c0,0-0.097-0.02-0.3-0.02c-0.698,0-1.215,0.953-1.215,0.953l0.139-0.876h-1.451l-0.972,6.04
				H-398.61z"/>
		</g>
	</g>
</g>
</svg>
