<?xml version="1.0" encoding="UTF-8" standalone="no"?>
<svg width="528px" height="115px" viewBox="0 0 528 115" version="1.1" xmlns="http://www.w3.org/2000/svg" xmlns:xlink="http://www.w3.org/1999/xlink">
    <!-- Generator: Sketch 40.3 (33839) - http://www.bohemiancoding.com/sketch -->
    <title>Busy Families</title>
    <desc>Created with Sketch.</desc>
    <defs></defs>
    <g id="About-Us-4" stroke="none" stroke-width="1" fill="none" fill-rule="evenodd">
        <g id="Busy-Families" fill="#3E3436">
            <path d="M128.33,74.75 C128.85,74.62 127.81,74.88 128.33,74.75 L128.33,74.75 Z M367.79,76.57 C368.31,76.31 367.27,76.7 367.79,76.57 L367.79,76.57 Z M420.31,76.57 C420.83,76.31 419.79,76.7 420.31,76.57 L420.31,76.57 Z M498.05,74.75 C498.57,74.62 497.53,74.88 498.05,74.75 L498.05,74.75 Z" id="busy-families.-copy"></path>
            <path d="M43.96,50.7 C44.09,48.62 43.7,46.67 43.05,44.85 C42.66,43.94 42.14,42.9 41.49,42.12 C40.32,41.08 39.02,40.04 37.59,39.13 C36.81,38.61 35.64,38.35 34.73,38.22 C33.56,37.96 32.39,38.09 31.35,38.09 C30.18,38.09 29.01,38.09 27.84,38.22 C26.93,38.35 26.02,38.74 25.11,38.74 C21.47,39.13 19.13,41.21 16.79,43.42 C16.4,43.68 16.01,43.94 15.62,44.2 C15.36,43.68 15.1,43.16 15.1,42.77 C14.97,40.17 14.71,37.7 14.84,35.23 C15.1,32.24 15.36,29.25 14.84,26.13 L14.84,26 C14.97,24.57 15.23,23.27 15.23,21.84 C15.36,19.63 15.36,17.29 15.49,15.08 C15.49,13.39 15.23,11.7 15.62,10.01 C15.88,8.45 13.67,5.59 11.85,4.81 C10.81,4.29 9.64,3.77 8.6,3.38 C6.65,2.86 2.62,3.25 2.75,5.72 C2.88,6.11 2.75,6.5 2.75,6.89 C2.75,8.71 2.62,10.66 2.62,12.61 C2.62,14.3 2.75,16.12 2.62,17.94 C2.62,19.76 2.36,21.58 2.23,23.53 C2.1,25.48 2.1,27.43 1.97,29.38 C1.84,32.37 1.71,35.36 1.58,38.35 C1.45,41.34 1.32,44.46 1.19,47.45 C1.06,49.53 1.06,51.61 1.06,53.69 C1.19,55.25 1.58,56.94 1.45,58.5 C1.32,61.23 0.8,64.09 0.54,66.82 C0.41,67.73 0.54,68.77 0.54,69.81 C0.54,70.46 0.67,71.24 0.41,71.89 C0.15,72.67 0.54,72.93 0.93,73.32 C1.19,73.58 1.45,73.71 1.58,73.97 C2.49,75.14 6.13,75.92 7.43,76.31 C8.99,76.96 10.03,76.05 9.9,74.49 C9.9,73.32 9.25,71.89 10.55,70.98 C10.81,68.9 11.2,66.95 10.42,64.87 C10.29,64.48 10.42,63.83 10.55,63.7 C11.46,62.79 12.5,62.01 13.41,61.1 C13.8,60.84 14.19,60.45 14.32,60.06 C14.71,58.76 15.1,57.33 15.36,56.03 C15.75,54.08 15.1,52 16.27,50.31 C16.53,50.05 16.66,49.66 16.79,49.27 C17.57,47.71 18.22,46.15 19.91,45.37 C21.08,44.72 21.99,43.94 22.9,43.16 C23.68,42.64 24.33,42.25 25.5,42.25 C26.41,42.38 27.45,42.25 28.49,42.25 C29.01,42.25 29.66,42.38 30.18,42.51 C30.31,42.64 30.7,42.9 30.7,43.03 L30.7,47.19 C30.7,47.84 30.44,48.49 30.44,49.14 C30.18,50.7 29.92,52.26 29.66,53.82 C29.53,54.99 29.14,56.16 29.14,57.46 C29.27,58.24 29.01,58.76 28.62,59.02 C26.93,60.32 25.24,61.49 23.55,62.53 C20.17,64.74 17.44,67.34 15.62,70.98 C14.84,72.41 15.23,74.62 16.66,75.79 C17.7,76.7 18.74,77.74 19.91,78.65 C20.69,79.3 21.6,79.82 22.64,79.3 C23.42,79.04 24.33,78.78 24.98,78.26 C25.89,77.61 27.06,77.22 27.84,76.44 C28.49,75.66 29.27,75.27 29.92,74.49 C30.96,73.32 32.52,72.93 33.04,71.37 C33.17,71.24 33.3,71.11 33.43,71.11 C34.21,70.72 34.99,70.46 35.64,70.2 C37.98,69.29 39.41,67.6 40.45,65.52 C42.01,62.53 42.27,59.02 43.31,55.9 C43.44,55.77 43.44,55.51 43.31,55.25 C43.18,54.34 43.44,52.78 44.09,52.39 C44.87,51.87 45.65,51.48 46.56,50.96 C47.08,50.7 47.86,50.44 48.38,50.18 C49.29,49.53 53.71,46.41 54.62,45.89 C55.27,45.37 55.92,44.85 55.53,43.94 C55.27,43.29 54.75,43.94 54.23,43.55 C54.1,43.55 50.72,46.28 50.46,46.54 C49.94,47.06 48.64,47.97 47.99,48.36 C46.69,49.14 45.26,49.92 43.96,50.7 Z M16.4,73.19 C17.18,72.67 17.83,72.15 18.35,71.5 C19.13,70.85 19.78,70.2 20.3,69.55 C21.08,68.77 21.86,67.86 22.51,67.08 C22.9,66.82 23.16,66.43 23.55,66.17 C24.85,65 26.28,63.96 27.71,62.79 C27.84,62.79 27.97,62.79 28.49,62.92 C27.84,64.87 27.32,66.95 26.54,68.9 C25.5,71.11 24.07,73.06 21.73,74.36 C21.6,74.49 21.34,74.75 21.21,74.88 C19.78,75.66 18.48,75.4 17.05,73.84 C16.79,73.58 16.53,73.32 16.4,73.19 Z" id="Combined-Shape"></path>
            <path d="M44.48,40.82 C44.61,40.82 44.61,40.95 44.61,41.08 C45.26,40.82 45.91,40.69 46.43,40.3 C47.47,39.65 48.38,38.74 49.29,37.83 C49.68,37.57 49.94,37.44 50.07,38.09 C50.2,39.52 50.46,40.95 50.46,42.38 C50.46,45.5 50.33,48.62 50.33,51.74 C50.33,53.95 50.46,56.16 50.46,58.37 C50.46,59.02 50.2,59.67 50.2,60.19 C50.2,62.53 50.33,64.87 50.33,67.08 C50.46,69.29 50.72,71.37 52.15,73.19 C52.54,73.58 52.93,74.1 53.32,74.49 C55.14,75.79 56.96,75.4 58.78,74.36 C60.34,73.45 61.9,72.41 63.33,71.11 C64.63,69.94 66.19,68.77 66.97,67.34 C68.66,64.48 69.96,61.49 71.39,58.5 C71.65,57.85 72.04,57.07 72.3,56.42 C72.43,56.42 72.56,56.42 72.56,56.55 C72.69,57.33 72.69,58.24 72.82,59.15 C72.95,60.84 72.95,62.53 73.21,64.22 C73.21,65 73.34,65.65 73.6,66.43 C73.73,67.47 73.99,68.64 74.38,69.68 C75.29,72.28 77.11,74.1 79.19,75.66 C80.75,76.7 80.62,77.61 82.44,77.74 C83.48,77.87 84,76.96 84.78,76.7 C85.43,76.44 85.95,76.05 86.21,75.27 C86.34,75.01 86.6,74.75 86.73,74.75 C87.64,74.49 88.29,73.84 88.68,72.93 C88.94,72.67 89.2,72.28 89.46,72.15 C90.76,71.11 91.8,70.07 92.32,68.51 C92.71,67.73 92.97,66.82 93.49,66.17 C95.18,63.57 96.48,60.71 97.52,57.85 C97.78,57.33 98.04,56.81 97.52,56.29 C97.39,56.16 97.39,55.64 97.52,55.51 C98.56,54.34 98.82,52.91 98.95,51.48 C99.08,50.05 100.64,48.62 99.21,47.58 C99.08,47.97 98.95,48.1 98.95,48.36 C98.3,50.7 97.91,53.04 96.74,55.25 C95.7,57.33 94.79,59.54 93.75,61.62 C92.97,63.05 92.06,64.35 91.28,65.65 C89.59,68.38 87.51,70.72 85.17,72.93 C85.04,73.06 84.65,73.19 84.26,73.32 C84.39,72.15 84.52,71.24 84.65,70.2 C85.04,68.9 85.69,67.73 85.04,66.3 C85.04,65.91 85.04,65.52 85.17,65.13 C85.3,63.57 85.43,61.88 85.56,60.32 C85.69,58.76 85.56,57.2 85.56,55.51 C85.56,52.26 85.56,49.01 85.43,45.63 C85.43,44.85 85.17,44.07 85.04,43.29 C85.04,42.38 84.65,41.47 84.26,40.69 C83.87,40.17 83.74,39.52 83.22,39.13 C82.31,38.35 81.14,37.57 80.1,36.79 C78.93,36.01 77.89,36.4 76.59,36.4 C75.03,36.66 74.77,38.22 73.6,38.74 L73.6,39 C73.47,39.91 73.47,40.82 73.34,41.73 C73.34,43.03 73.34,44.46 73.08,45.76 C72.56,47.97 72.04,50.05 71.26,52.26 C70.22,54.73 69.18,57.33 68.01,59.67 C66.45,62.4 64.76,65 63.07,67.47 C62.42,68.38 61.64,69.03 60.73,69.94 C60.99,68.38 60.99,67.08 61.38,65.65 C61.9,62.79 61.77,59.93 61.9,56.94 C62.03,55.12 62.16,53.17 62.16,51.35 C62.03,49.92 61.77,48.49 61.64,47.06 C61.51,45.89 61.25,44.72 61.25,43.55 C61.38,40.82 61.25,38.09 59.56,35.75 C58.52,34.32 57.35,33.02 55.66,32.37 C54.23,31.72 52.8,31.85 51.37,32.24 C50.07,32.5 49.16,33.15 48.9,34.58 C48.9,34.58 48.9,34.71 48.77,34.84 C47.6,36.4 46.3,38.09 45.13,39.65 C44.87,40.04 44.74,40.43 44.48,40.82 L44.48,40.82 Z" id="Path"></path>
            <path d="M142.63,56.03 C142.11,55.51 142.24,55.9 141.59,55.64 C141.2,56.42 141.07,56.94 140.81,57.33 C138.08,61.88 135.35,66.43 130.93,70.07 C129.5,71.24 128.33,72.54 126.12,72.93 C125.73,73.06 125.34,73.19 124.95,73.32 C125.21,73.06 125.47,72.8 125.73,72.54 C127.16,71.11 131.32,68.51 131.06,63.57 C131.06,62.79 130.8,62.14 130.54,61.36 C130.15,59.8 130.02,58.24 128.59,56.81 C127.81,56.03 127.03,55.25 126.25,54.34 C125.34,53.3 124.43,52.26 123.39,51.22 C121.57,49.4 119.62,47.71 117.41,46.28 C114.94,44.46 112.47,42.9 110.52,40.69 C108.83,38.87 108.44,38.09 109.48,36.53 C109.87,36.01 110.52,35.62 110.78,34.97 C111.3,33.93 111.56,32.76 111.95,31.59 C112.08,31.2 112.47,30.68 112.73,30.68 C114.16,30.68 112.73,28.08 111.95,27.3 C110.39,26 108.57,25.35 106.88,25.61 C105.32,25.87 103.89,26.39 102.72,27.43 C102.2,27.95 101.42,28.34 100.9,28.86 C100.25,29.51 99.47,30.16 99.08,30.94 C98.3,32.76 98.3,34.71 99.08,36.79 C99.99,39.39 101.03,41.08 102.98,43.16 C102.98,43.16 104.93,45.11 105.06,45.11 C106.49,46.54 108.31,47.84 109.61,49.4 C110.65,50.57 112.08,51.61 112.99,52.78 C114.16,54.34 115.2,56.03 115.98,57.72 C117.15,60.32 117.15,62.79 117.15,65.26 C117.15,66.43 116.63,67.6 116.11,68.64 C115.07,70.85 113.9,72.8 111.3,73.84 C111.04,73.84 110.78,74.1 110.65,74.36 C109.74,75.4 108.57,76.31 106.75,76.18 C106.23,76.05 105.71,75.92 105.32,75.79 C103.76,75.66 102.46,74.88 101.16,73.97 C100.51,73.45 99.6,74.75 99.86,75.27 C100.25,75.92 100.64,76.57 101.55,76.7 C101.81,76.7 102.07,76.96 102.33,77.09 C103.76,77.61 105.06,78.91 106.75,78.39 L107.01,78.39 C107.79,79.04 108.44,78.65 109.22,78.52 C110.52,78.39 117.02,77.22 117.41,77.09 C118.06,76.96 118.71,76.83 119.23,76.57 C119.88,76.18 120.4,75.79 121.05,75.53 C122.09,75.66 123.26,75.66 124.3,75.53 C125.73,75.27 127.03,75.01 128.33,74.75 C129.11,74.49 130.02,73.32 130.67,72.8 C133.14,71.24 134.83,69.16 136.39,67.08 C137.04,66.17 137.3,65.26 137.82,64.48 C139.51,62.01 140.68,59.67 141.98,57.33 C142.37,56.68 143.15,56.42 142.63,56.03 L142.63,56.03 Z" id="Path"></path>
            <path d="M153.29,69.16 C153.29,67.6 153.29,66.17 153.42,64.74 C153.42,64.35 153.55,63.96 153.81,63.83 C154.72,63.31 155.11,62.66 155.11,61.75 C155.24,60.84 155.11,59.93 155.37,59.02 C156.02,56.29 155.89,53.56 155.63,50.7 C155.5,49.4 155.63,48.1 155.5,46.67 C155.37,45.37 155.11,44.07 154.72,42.9 C154.2,41.47 153.42,40.17 153.03,38.74 C152.12,36.14 150.95,33.8 148.22,32.37 C146.66,31.46 145.23,31.33 143.8,31.46 C141.2,31.72 139.64,33.41 138.6,35.62 C138.47,35.75 138.47,36.27 138.6,36.4 C139.25,36.79 139.9,37.44 140.55,37.44 C141.33,37.57 142.11,37.31 142.89,37.18 C143.28,38.74 143.15,40.3 142.89,41.99 C142.76,44.07 142.5,46.15 142.24,48.23 C142.11,49.14 141.98,50.18 141.85,51.09 C141.72,52.65 141.33,54.08 141.33,55.51 C141.33,57.46 141.46,59.54 141.46,61.49 C141.46,63.96 141.2,66.43 141.07,68.9 C141.07,69.68 141.33,70.46 141.33,71.37 C141.2,72.8 141.72,74.36 142.11,75.79 C142.11,75.92 142.11,76.05 142.24,76.18 C143.93,77.74 145.75,78.78 148.09,78.39 C150.95,77.87 153.16,76.05 154.98,73.97 C156.54,72.28 157.97,70.46 159.4,68.64 C160.31,67.34 161.35,66.04 162.26,64.87 C163.04,63.83 163.95,62.92 164.73,61.88 C164.86,61.88 164.86,62.01 164.99,62.01 C164.86,62.92 164.86,63.7 164.73,64.61 C164.6,66.04 164.6,67.34 164.47,68.77 C164.47,69.68 164.34,70.72 164.34,71.63 C163.95,74.49 163.69,77.35 163.3,80.08 C163.17,81.51 163.3,82.94 162,83.85 C161.61,84.11 161.35,84.37 161.09,84.63 C159.53,86.32 158.1,88.01 156.67,89.57 C154.98,91.52 153.29,93.47 151.21,95.03 C150.95,95.16 150.82,95.68 150.56,95.81 C149.26,96.33 148.35,97.37 147.7,98.54 C146.79,100.23 146.27,102.05 146.01,104 C145.62,107.77 146.66,111.54 150.43,113.88 C151.47,114.53 152.64,115.05 153.94,114.53 C154.59,114.27 155.24,113.75 155.89,113.23 C156.8,112.32 157.84,111.41 158.75,110.5 C158.88,110.5 158.88,110.5 158.88,110.37 C159.4,108.68 160.83,107.64 162,106.6 C162.65,105.95 163.43,104.91 163.43,104.13 C163.3,102.57 164.21,101.4 164.73,100.1 C165.51,98.15 166.55,96.59 168.11,95.16 C170.71,93.08 171.75,89.96 172.4,86.71 C172.66,85.28 173.05,83.72 173.44,82.29 C173.83,80.73 174.22,79.17 174.74,77.74 C175,77.09 175.26,76.31 175.78,75.79 C176.17,75.14 176.82,74.62 177.34,74.1 C178.9,72.67 180.46,71.37 182.02,70.07 C184.23,68.12 186.18,65.91 187.87,63.57 C188.26,62.92 188.78,62.27 188.91,61.36 C189.04,60.58 188.39,60.45 188.13,59.93 C187.87,60.06 187.61,60.32 187.35,60.58 C187.09,60.84 186.83,61.1 186.57,61.36 C185.14,62.79 183.71,64.09 182.28,65.39 C180.2,67.21 178.12,69.03 175.91,70.85 C175.78,70.72 175.65,70.59 175.65,70.46 C175.78,68.77 176.04,67.21 176.17,65.52 C176.3,63.7 176.69,61.75 176.56,59.93 C176.43,58.37 176.82,56.68 175.91,55.12 C175.65,54.73 175.52,54.34 175.52,53.82 C175.13,52.13 174.87,50.31 174.35,48.62 C174.09,47.84 173.44,46.93 172.79,46.67 C169.54,45.24 167.07,47.45 166.29,50.57 C166.03,51.74 165.64,52.91 165.12,53.95 C164.6,54.99 164.08,55.77 163.43,56.68 C162.39,58.37 161.48,60.06 160.18,61.49 C158.62,63.44 156.93,65.13 155.24,66.95 C154.59,67.6 153.94,68.38 153.29,69.16 Z M162.13,89.31 C162,90.48 162,91.65 161.87,92.69 C161.74,94.38 161.61,95.94 161.35,97.37 C161.09,98.8 160.7,100.23 160.18,101.53 C159.01,104.65 157.58,107.51 156.28,110.5 C156.28,110.63 156.28,110.89 156.15,110.89 C154.98,111.67 153.81,112.45 152.64,112.97 C151.99,113.23 151.34,112.97 150.69,112.32 C149.91,111.41 149.91,110.37 149.52,109.46 C148.48,106.6 149,104.13 150.69,101.92 C151.21,101.27 151.47,100.49 151.99,99.71 C152.25,99.19 152.51,98.8 152.77,98.28 C153.16,97.89 153.42,97.37 154.07,97.11 C154.72,96.98 155.11,96.33 155.5,95.81 C156.93,94.38 158.36,92.95 159.79,91.52 C160.57,90.74 161.35,90.09 162.13,89.31 Z" id="Combined-Shape"></path>
            <path d="M243.51,43.94 C242.73,43.81 242.73,44.59 242.47,45.11 C241.43,46.67 240.39,48.49 239.22,50.05 C237.4,52.13 235.45,54.08 233.5,55.9 C232.2,57.2 229.47,59.02 228.04,60.32 L228.17,57.46 C228.17,56.94 228.3,56.42 228.43,55.9 C228.56,52.26 228.82,48.62 228.95,44.98 C229.08,44.2 229.34,43.42 229.86,42.77 C230.9,41.6 231.68,40.43 232.07,38.87 C232.33,37.7 232.72,36.4 233.24,35.36 C234.54,32.63 235.58,29.9 236.1,27.04 C236.36,25.87 236.75,24.7 236.75,23.53 C236.75,21.32 236.49,18.98 236.36,16.64 C236.23,15.99 236.1,15.34 235.97,14.69 C235.71,13.26 235.58,11.83 235.32,10.4 C235.19,9.49 235.06,8.45 234.8,7.54 C234.67,6.89 234.15,6.37 234.15,5.85 C233.89,4.16 232.85,2.99 231.68,1.95 C231.16,1.56 230.77,0.78 230.12,0.65 C228.69,0.52 227.26,0.52 225.83,1.43 C224.66,2.08 224.01,3.25 223.1,4.29 C221.67,5.98 220.63,7.93 220.11,10.14 C219.59,12.22 219.33,14.43 218.94,16.51 C218.68,17.42 218.42,18.33 218.42,19.24 C218.16,21.84 217.9,24.57 217.77,27.17 C217.51,31.33 217.38,35.62 217.25,39.78 C217.12,42.12 217.12,44.46 217.25,46.67 C217.25,51.35 217.51,55.9 217.64,60.58 C217.64,62.27 217.77,63.96 217.64,65.65 C217.64,65.78 217.51,66.43 217.51,66.56 C217.51,66.95 217.38,67.08 217.12,67.47 C216.34,68.51 216.6,69.55 215.82,70.72 C214.52,72.93 213.09,75.14 211.79,77.48 C210.49,79.82 209.32,82.16 208.15,84.76 C207.24,86.71 206.59,88.79 205.81,90.87 C204.9,93.21 204.51,95.81 205.03,98.54 C205.42,101.53 206.33,104.26 207.76,106.73 C208.02,107.25 208.54,107.77 209.06,108.16 C209.58,108.68 210.23,109.07 210.75,109.59 C212.44,111.28 214.39,111.54 216.08,110.76 C217.38,110.24 218.29,108.94 219.2,107.64 C220.11,106.6 220.63,105.04 221.41,103.74 C222.19,102.57 222.97,101.4 223.75,100.1 C224.27,99.45 224.53,98.54 225.05,98.28 C225.96,98.02 226.22,97.11 226.48,96.33 C227,94.9 227.39,93.47 227.78,92.17 C227.91,91.91 227.91,91.65 228.04,91.26 C228.17,89.7 228.43,88.14 228.69,86.58 C228.82,85.41 228.82,84.11 228.82,82.81 C228.69,82.03 228.56,81.12 228.43,80.34 C228.17,79.17 227.91,78.13 227.52,77.09 C227.13,75.92 226.74,75.01 226.22,73.97 C225.83,73.06 225.7,72.02 225.44,71.11 C225.18,70.59 225.44,69.94 225.57,69.55 C225.57,68.25 225.7,69.29 225.31,67.86 C225.31,67.86 225.31,67.86 225.31,67.73 C225.05,66.82 225.05,65.91 226.22,65.13 C227.39,64.22 228.17,62.92 229.21,61.88 C230.25,60.84 232.46,59.8 233.5,58.89 C234.54,57.98 235.58,57.07 236.62,56.16 C237.4,55.25 238.18,54.21 238.96,53.3 C240.13,52.13 241.3,50.96 242.47,49.79 C243.51,48.75 244.29,47.45 244.68,45.89 C244.81,45.37 244.03,43.94 243.51,43.94 Z M229.08,30.29 C229.21,28.47 229.73,26.52 229.6,24.7 C229.47,22.36 229.86,20.15 230.12,17.94 C230.25,17.55 230.12,17.16 230.12,16.77 C230.12,15.6 229.99,14.43 229.86,13.13 C229.86,12.61 230.12,12.22 230.12,11.7 C230.25,10.4 230.38,9.23 230.77,7.93 C231.16,9.36 231.68,10.92 231.81,12.48 C232.59,21.06 232.72,29.77 228.82,37.96 C228.82,37.57 228.69,37.05 228.69,36.53 C228.82,34.45 228.95,32.37 229.08,30.29 Z M219.46,84.76 C219.33,86.45 219.33,88.01 219.2,89.7 C219.07,91.52 218.94,93.34 218.55,95.03 C218.16,97.37 217.51,99.58 216.99,101.79 C216.86,102.44 216.34,102.83 215.95,103.35 C215.69,103.87 215.3,104.26 215.04,104.65 C214.52,105.43 213.87,105.56 213.09,105.43 C212.44,105.3 211.66,105.43 211.01,105.3 C209.71,105.17 208.67,104.52 207.5,103.48 C206.07,102.18 205.81,100.49 205.94,98.8 C205.94,97.63 206.59,96.59 206.98,95.42 C207.11,95.03 207.24,94.64 207.5,94.25 C208.41,92.17 209.32,90.09 210.36,88.14 C211.14,86.58 211.92,85.28 212.7,83.85 C213.61,82.16 214.39,80.34 215.17,78.78 C215.95,77.22 216.86,75.79 217.64,74.36 C218.16,73.58 218.55,72.8 219.07,72.02 L219.2,72.02 C219.2,73.71 219.2,75.27 219.33,76.96 C219.33,78.52 219.59,80.08 219.59,81.64 C219.59,82.68 219.46,83.72 219.46,84.76 Z" id="Combined-Shape"></path>
            <path d="M260.54,57.85 C260.54,57.98 260.67,57.98 260.67,57.98 L260.67,59.8 L260.67,61.75 C260.67,63.31 260.41,64.87 260.54,66.3 C260.67,68.51 261.19,70.59 262.1,72.67 C262.88,74.49 263.79,75.92 265.35,77.09 C267.04,78.39 266.65,78.26 268.86,78.26 C269.77,78.26 270.68,78.13 271.46,77.74 C272.89,77.22 274.32,76.31 275.49,75.4 C277.18,74.23 278.48,72.54 279.52,70.72 C280.69,69.03 281.6,67.34 282.77,65.78 C283.29,65 283.29,65.13 283.94,63.96 C285.11,61.75 288.23,55.64 289.14,53.43 C289.53,52.52 290.18,52.52 289.4,52.26 C288.36,52 289.4,52.26 288.23,52.13 C288.1,52.13 287.84,52.52 287.71,52.65 C286.67,54.6 283.81,60.97 282.64,62.79 C281.86,64.22 280.56,65.52 279.65,66.95 C278.22,69.55 276.79,72.15 274.45,74.23 C273.28,75.27 271.98,76.05 270.55,76.31 C269.64,75.4 268.99,74.49 268.08,73.58 C268.99,72.54 269.77,71.37 270.68,70.2 C270.81,70.07 270.81,69.81 270.94,69.68 C271.46,68.12 271.72,66.3 272.63,65 C274.19,62.79 274.45,60.19 275.23,57.85 C275.62,56.29 275.75,54.6 275.88,53.04 C276.14,50.83 276.27,48.62 276.53,46.41 C276.53,45.63 276.79,44.98 276.79,44.2 C276.79,43.03 276.92,41.73 276.79,40.43 C276.66,39.39 276.14,38.22 276.01,37.18 C275.62,35.36 274.32,34.32 273.02,33.28 C271.98,32.24 270.55,32.11 269.12,31.98 C267.3,31.72 265.61,31.98 264.44,33.54 C263.79,34.58 263.14,35.75 262.62,36.66 C261.71,36.01 260.54,35.36 259.5,34.58 C258.2,33.54 256.64,33.54 255.21,34.06 C254.04,34.45 253.13,35.23 251.96,35.49 C250.53,35.75 249.62,36.79 248.58,37.57 C247.41,38.61 246.37,39.78 245.2,40.95 C244.81,41.47 244.29,41.86 243.9,42.51 C243.25,43.55 242.6,44.72 241.95,46.02 C241.56,46.67 241.17,47.32 240.91,48.1 C240.39,49.4 240,50.7 239.48,52 C238.83,54.47 237.79,56.81 237.4,59.28 C236.62,62.92 237.27,66.56 239.35,69.81 C241.17,72.8 243.77,74.49 247.41,74.49 C248.32,74.49 249.1,73.84 249.88,73.84 C251.57,73.84 252.74,72.93 253.52,71.89 C254.69,70.59 255.34,68.9 256.12,67.34 C257.29,65.13 258.2,62.79 259.24,60.45 C259.63,59.67 260.15,58.76 260.54,57.85 Z M261.32,40.82 C261.32,42.77 261.19,44.72 261.06,46.67 C260.93,49.4 260.41,51.87 258.85,54.34 C257.55,56.42 256.64,58.89 255.47,61.1 C254.43,63.18 253.52,65.39 252.22,67.34 C251.18,68.77 249.75,70.07 248.45,71.24 C247.28,72.15 244.94,71.76 243.9,70.46 C243.25,69.68 242.47,68.9 242.08,67.99 C241.56,66.56 240.91,65 241.43,63.31 C241.95,61.49 242.34,59.67 242.86,57.98 C243.77,55.38 244.68,52.91 245.59,50.44 C246.11,49.14 246.63,47.71 247.28,46.41 C247.41,45.89 247.8,45.37 248.06,44.98 C248.97,43.68 249.88,42.25 250.79,41.08 C252.22,39.52 253.78,38.09 255.99,38.09 C256.64,38.09 257.29,38.61 257.81,39 C258.33,39.52 258.85,40.17 259.5,40.56 C260.02,40.82 260.8,40.82 261.32,40.82 Z" id="Combined-Shape"></path>
            <path d="M289.27,77.22 C290.31,77.22 290.96,77.48 291.74,77.35 C293.56,77.09 295.51,76.7 297.2,76.31 C298.11,76.18 298.63,75.79 299.02,74.88 C299.41,74.36 299.8,73.84 300.06,73.45 C300.58,72.8 301.23,72.28 301.62,71.76 C302.66,70.2 302.53,68.51 302.66,66.82 C302.79,65.78 303.05,64.74 303.05,63.83 C303.05,60.58 302.92,57.33 302.79,54.08 C302.79,52.26 302.66,50.31 302.66,48.62 C302.79,47.58 302.92,46.67 303.57,45.89 C305.26,43.42 307.34,41.08 309.29,38.74 C309.42,38.35 309.68,38.22 310.33,37.83 C310.46,39.26 310.46,40.43 310.59,41.6 C310.72,42.77 310.98,43.81 311.11,44.98 C311.37,46.02 311.89,47.19 311.5,47.97 C310.98,48.88 311.5,49.66 311.63,50.7 C311.76,53.82 311.89,57.2 311.89,60.32 C311.89,61.88 313.19,62.92 314.49,63.31 C315.66,63.57 316.31,63.05 316.96,62.01 C318.13,60.19 318.65,58.11 318.13,56.03 C317.87,54.99 317.35,53.95 317.09,52.91 C316.7,51.35 316.31,49.92 316.05,48.36 C316.05,48.1 316.18,47.58 316.31,47.32 C317.09,46.28 317.87,45.63 318.52,44.59 C320.6,42.12 322.55,39.65 325.93,38.48 C326.32,38.35 326.71,37.96 327.36,37.7 C327.23,39.39 326.97,40.95 326.84,42.38 C326.71,44.2 326.45,45.89 326.32,47.45 C326.19,49.79 326.19,52.13 326.06,54.34 L326.06,59.02 C325.93,60.06 325.8,60.97 325.8,62.14 C325.54,64.35 326.06,66.56 326.84,68.64 C327.75,70.59 329.05,72.02 330.61,73.19 C332.17,74.36 334.38,74.62 336.2,75.01 C338.15,75.27 339.19,73.32 340.62,72.15 C342.05,70.98 343.35,69.55 344.52,67.99 C346.21,65.78 347.9,63.44 349.59,61.23 C352.32,57.46 354.92,53.82 356.74,49.53 C357.26,47.97 358.04,47.32 355.96,47.32 C354.92,49.4 353.88,50.31 352.58,52.39 C351.02,54.99 349.33,57.59 347.64,59.93 C345.69,62.79 343.48,65.13 341.27,67.6 C340.36,68.9 339.84,69.16 338.54,70.2 C338.93,68.9 338.15,69.42 338.28,68.25 C338.28,67.34 338.15,66.56 338.15,65.65 C338.67,61.49 338.54,57.46 338.15,53.3 L338.15,51.35 C338.02,50.18 338.02,49.01 337.76,47.71 C337.5,46.02 337.11,44.33 336.85,42.51 C336.72,40.69 336.07,39.13 335.03,37.7 C334.51,36.92 333.86,36.4 333.47,35.49 C332.69,33.93 331.13,33.67 329.44,33.67 C328.79,33.67 327.88,33.93 327.36,34.45 C325.93,35.62 324.63,36.92 323.2,38.09 C321.25,39.65 319.3,41.21 317.35,42.77 C316.96,43.03 316.57,43.29 315.92,43.68 C315.92,42.9 316.05,42.25 315.79,41.73 C315.27,39.78 314.62,38.09 313.71,36.4 C312.67,34.06 310.46,34.06 309.16,35.23 C307.47,36.79 306.04,38.48 304.35,40.3 C303.96,40.69 303.57,41.21 303.05,41.86 C302.92,40.17 302.66,38.48 302.66,37.05 C302.53,35.1 301.88,33.54 300.97,31.72 C299.67,29.9 297.72,28.99 295.9,28.34 C294.21,27.56 292.26,27.43 290.44,27.56 C289.79,27.56 289.4,27.95 288.88,28.34 C288.62,28.47 288.49,28.73 288.23,28.73 C286.93,28.73 287.06,29.9 287.06,30.55 C286.93,32.5 287.06,34.32 287.06,36.4 C287.06,40.17 287.19,43.81 287.32,47.58 C287.32,48.75 287.19,49.92 287.32,50.96 C287.71,53.3 287.97,55.38 288.23,57.72 L288.23,62.79 C288.23,64.09 288.1,65.52 288.23,66.95 C288.36,68.12 288.62,69.42 288.88,70.59 C289.01,72.67 289.14,74.88 289.27,77.22 L289.27,77.22 Z" id="Path"></path>
            <path d="M357.13,29.12 C358.95,29.51 360.77,29.9 362.59,30.29 C364.67,30.29 366.23,29.12 367.53,28.08 C368.18,27.56 368.44,26.39 368.31,25.61 C368.18,24.57 368.05,23.27 366.62,22.88 C365.06,22.62 363.5,21.97 362.07,22.1 C360.25,22.23 358.56,23.01 356.87,23.4 C355.7,23.79 354.79,24.31 354.79,25.61 C354.79,26.91 355.96,28.73 357.13,29.12 L357.13,29.12 Z" id="Path"></path>
            <path d="M382.09,53.82 C381.57,53.3 381.7,53.69 381.05,53.43 C380.66,54.21 380.53,54.86 380.27,55.51 C377.41,60.97 374.68,66.43 370.39,70.85 C368.96,72.28 367.79,73.97 365.58,74.36 C364.8,74.49 364.15,74.88 363.37,75.14 C363.63,74.23 363.76,73.45 364.8,73.32 C365.32,73.32 365.84,72.54 366.1,72.15 C366.36,71.76 366.23,71.24 366.23,70.72 C366.36,67.34 366.75,63.83 367.53,60.58 L367.53,59.15 C367.66,57.85 367.79,56.42 367.79,55.12 C367.92,53.04 368.05,50.96 368.05,48.88 C368.05,47.97 368.05,47.06 367.92,46.15 C367.79,45.63 367.66,45.11 367.53,44.59 C367.4,43.55 367.53,42.38 367.01,41.47 C365.84,39.91 364.93,37.96 362.85,37.18 C361.42,36.66 359.99,35.88 358.56,35.88 C356.22,35.88 354.92,37.05 354.4,39.39 C354.27,39.91 354.27,40.43 354.14,40.95 C353.88,42.25 353.62,43.55 353.49,44.85 C353.23,46.54 353.1,48.23 352.97,49.92 C352.71,52.91 352.32,55.77 352.45,58.76 C352.71,61.49 352.19,64.22 353.1,67.08 C353.49,68.51 353.62,69.94 354.01,71.24 C354.92,73.84 356.35,75.92 358.95,77.09 C360.64,77.74 362.2,77.74 363.76,77.48 C365.06,77.35 366.49,76.83 367.79,76.57 C368.57,76.18 369.48,74.75 370.13,74.23 C372.47,72.41 374.16,69.81 375.85,67.21 C376.37,66.3 376.76,65 377.28,64.09 C378.97,61.1 380.14,58.24 381.44,55.51 C381.83,54.6 382.61,54.34 382.09,53.82 L382.09,53.82 Z" id="Path"></path>
            <path d="M392.23,73.06 C392.1,73.06 392.1,72.93 391.97,72.93 L391.97,72.41 C391.97,69.55 392.1,66.69 392.1,63.83 C392.1,63.05 391.84,62.27 391.97,61.49 C392.1,59.54 392.23,57.59 392.49,55.64 C392.75,53.3 392.23,50.83 392.75,48.49 C393.14,46.93 393.01,45.37 393.14,43.81 C393.27,42.51 393.53,41.34 393.53,40.17 C393.53,39 394.05,28.21 394.18,27.04 C394.31,24.96 394.57,22.88 394.83,20.67 C394.96,18.98 395.09,17.16 395.09,15.34 C395.22,13.78 395.48,12.35 394.83,10.79 C394.31,9.36 393.53,7.93 392.23,7.15 C391.19,6.63 390.41,5.72 389.11,5.33 C387.29,4.68 385.6,4.29 383.78,4.42 C382.48,4.55 381.7,5.33 381.57,6.5 C381.18,8.71 380.79,10.92 380.53,13.13 C380.27,14.95 380.27,16.77 380.14,18.59 C380.01,20.8 379.75,22.88 379.62,24.96 C379.49,26.91 378.84,38.61 378.71,40.56 C378.58,42.38 378.19,43.94 378.19,45.76 C377.93,48.62 377.8,51.61 377.67,54.6 C377.54,58.24 377.54,62.01 377.41,65.65 C377.41,67.99 377.67,70.46 378.97,72.67 C380.4,74.75 381.7,76.83 384.3,77.61 C385.21,77.87 386.12,78.13 386.9,78.39 C389.5,79.04 391.32,78 392.88,76.31 C394.31,74.75 395.35,72.93 396.65,71.24 C398.34,68.9 399.51,65.91 401.2,63.44 C403.02,60.71 404.71,57.85 406.4,54.99 C406.92,54.21 407.18,53.3 407.57,52.39 C407.83,51.61 407.83,50.7 408.09,49.92 C408.61,48.75 409.52,48.88 408.09,48.49 C407.83,48.49 407.31,48.49 407.18,48.75 C406.66,49.79 406.27,50.83 405.75,51.87 C405.49,52.52 405.49,53.17 405.1,53.82 C404.71,54.73 403.67,56.68 403.28,57.59 C400.42,62.79 397.17,66.69 393.66,71.5 C393.14,72.02 392.75,72.54 392.23,73.06 L392.23,73.06 Z" id="Path"></path>
            <path d="M409.65,29.12 C411.47,29.51 413.29,29.9 415.11,30.29 C417.19,30.29 418.75,29.12 420.05,28.08 C420.7,27.56 420.96,26.39 420.83,25.61 C420.7,24.57 420.57,23.27 419.14,22.88 C417.58,22.62 416.02,21.97 414.59,22.1 C412.77,22.23 411.08,23.01 409.39,23.4 C408.22,23.79 407.31,24.31 407.31,25.61 C407.31,26.91 408.48,28.73 409.65,29.12 L409.65,29.12 Z" id="Path"></path>
            <path d="M434.61,53.82 C434.09,53.3 434.22,53.69 433.57,53.43 C433.18,54.21 433.05,54.86 432.79,55.51 C429.93,60.97 427.2,66.43 422.91,70.85 C421.48,72.28 420.31,73.97 418.1,74.36 C417.32,74.49 416.67,74.88 415.89,75.14 C416.15,74.23 416.28,73.45 417.32,73.32 C417.84,73.32 418.36,72.54 418.62,72.15 C418.88,71.76 418.75,71.24 418.75,70.72 C418.88,67.34 419.27,63.83 420.05,60.58 L420.05,59.15 C420.18,57.85 420.31,56.42 420.31,55.12 C420.44,53.04 420.57,50.96 420.57,48.88 C420.57,47.97 420.57,47.06 420.44,46.15 C420.31,45.63 420.18,45.11 420.05,44.59 C419.92,43.55 420.05,42.38 419.53,41.47 C418.36,39.91 417.45,37.96 415.37,37.18 C413.94,36.66 412.51,35.88 411.08,35.88 C408.74,35.88 407.44,37.05 406.92,39.39 C406.79,39.91 406.79,40.43 406.66,40.95 C406.4,42.25 406.14,43.55 406.01,44.85 C405.75,46.54 405.62,48.23 405.49,49.92 C405.23,52.91 404.84,55.77 404.97,58.76 C405.23,61.49 404.71,64.22 405.62,67.08 C406.01,68.51 406.14,69.94 406.53,71.24 C407.44,73.84 408.87,75.92 411.47,77.09 C413.16,77.74 414.72,77.74 416.28,77.48 C417.58,77.35 419.01,76.83 420.31,76.57 C421.09,76.18 422,74.75 422.65,74.23 C424.99,72.41 426.68,69.81 428.37,67.21 C428.89,66.3 429.28,65 429.8,64.09 C431.49,61.1 432.66,58.24 433.96,55.51 C434.35,54.6 435.13,54.34 434.61,53.82 L434.61,53.82 Z" id="Path"></path>
            <path d="M430.45,62.92 C430.45,63.05 430.58,63.05 430.58,63.05 C430.45,65.52 431.36,67.86 432.4,70.07 C432.92,70.98 433.44,71.76 434.09,72.54 C435.39,74.23 436.95,75.79 438.9,76.7 C441.11,77.61 443.32,78.13 445.66,77.87 C446.44,77.74 447.22,77.74 448,77.61 C448.39,77.61 448.91,77.48 449.43,77.35 C450.21,77.09 450.99,76.96 451.77,76.57 C452.42,76.31 452.94,75.79 453.59,75.4 C454.37,74.88 455.28,74.49 456.06,73.97 C457.49,73.06 458.4,71.76 459.31,70.2 C459.7,69.42 460.09,68.64 460.74,67.99 C462.17,66.82 463.08,65.26 463.99,63.7 C464.25,63.18 464.77,62.79 464.9,62.27 C465.16,60.97 466.07,60.32 466.85,59.41 C467.11,59.28 467.37,58.89 467.5,58.63 C467.76,57.98 468.02,57.33 468.28,56.68 C468.54,56.16 468.67,55.77 468.8,55.25 C468.8,54.6 468.93,54.08 469.45,53.56 C470.23,52.52 471.4,52.13 471.79,50.7 C472.05,49.92 471.92,48.75 471.27,48.49 C471.01,48.36 470.62,48.49 470.49,48.62 C469.97,49.4 469.45,50.31 468.93,51.22 C467.24,54.08 465.55,56.94 463.86,59.67 C462.82,61.23 461.52,62.79 460.48,64.35 C459.18,66.56 457.23,68.25 455.15,69.81 C453.85,70.98 452.29,71.76 450.86,72.8 C449.69,73.71 448.39,74.49 446.96,74.62 C445.66,74.88 444.23,75.14 442.8,75.01 C440.72,74.88 439.55,73.71 438.38,72.28 C438.38,72.15 438.25,71.89 438.25,71.76 C438.9,70.59 439.03,69.16 439.29,67.86 C439.68,66.17 440.07,64.35 440.59,62.79 C440.72,62.01 441.11,61.23 441.76,60.97 C442.93,60.19 444.23,59.54 445.4,58.63 C446.7,57.46 448.26,56.42 449.69,55.25 C451.38,53.95 452.81,52.39 453.98,50.57 C454.24,50.18 454.76,49.92 455.28,49.66 C455.41,49.53 455.67,49.4 455.67,49.27 C456.19,48.36 456.58,47.58 457.1,46.67 C457.36,46.15 457.75,45.63 458.01,45.11 C458.14,44.85 458.4,44.59 458.4,44.46 C458.66,43.94 458.79,43.29 458.79,42.77 C459.05,41.86 459.18,40.95 459.31,40.04 C459.31,39.91 459.18,39.65 459.18,39.52 C458.79,38.74 458.4,38.09 458.01,37.31 C457.75,36.79 457.49,36.27 457.36,35.62 C456.97,34.58 456.32,33.93 455.41,33.28 C454.63,32.76 453.72,32.76 452.94,32.63 C451.77,32.24 450.86,32.63 450.08,32.89 C448.91,33.28 447.74,33.54 446.83,34.58 C446.57,34.84 446.31,34.97 446.05,35.1 C445.14,35.62 444.1,36.01 443.32,36.79 C442.15,37.7 441.11,38.87 440.07,40.04 C439.55,40.43 439.16,41.08 438.64,41.6 C438.25,41.99 437.99,42.51 437.6,43.03 C437.08,43.94 436.43,44.85 435.91,45.76 C435,47.32 434.22,48.88 433.57,50.57 C432.92,52.13 432.27,53.69 432.01,55.51 C431.88,55.9 431.62,56.16 431.49,56.55 C431.36,57.33 431.23,57.98 431.23,58.63 C430.97,60.06 430.71,61.49 430.45,62.92 Z M454.37,40.3 C454.76,41.08 455.28,41.34 456.19,41.08 C456.06,41.86 456.06,42.51 455.8,43.16 C455.02,45.76 454.11,48.23 452.29,50.18 C450.73,51.87 449.04,53.43 447.35,54.86 C446.18,55.9 444.75,56.68 443.45,57.59 C443.19,57.72 443.06,57.85 442.93,57.85 C443.45,56.29 443.97,54.86 444.62,53.3 C444.88,52.39 445.14,51.48 445.53,50.57 C445.92,49.79 446.44,49.14 446.83,48.36 C447.09,47.97 447.22,47.58 447.48,47.06 C448.26,45.89 449.04,44.59 449.95,43.29 C450.08,43.03 450.47,42.9 450.86,42.64 C451.64,42.12 452.42,41.6 453.33,41.08 C453.59,40.82 453.98,40.69 454.37,40.3 Z" id="Combined-Shape"></path>
            <path d="M512.35,56.03 C511.83,55.51 511.96,55.9 511.31,55.64 C510.92,56.42 510.79,56.94 510.53,57.33 C507.8,61.88 505.07,66.43 500.65,70.07 C499.22,71.24 498.05,72.54 495.84,72.93 L494.67,73.32 C494.93,73.06 495.19,72.8 495.45,72.54 C496.88,71.11 501.04,68.51 500.78,63.57 C500.78,62.79 500.52,62.14 500.26,61.36 C499.87,59.8 499.74,58.24 498.31,56.81 C497.53,56.03 496.75,55.25 495.97,54.34 C495.06,53.3 494.15,52.26 493.11,51.22 C491.29,49.4 489.34,47.71 487.13,46.28 C484.66,44.46 482.19,42.9 480.24,40.69 C478.55,38.87 478.16,38.09 479.2,36.53 C479.59,36.01 480.24,35.62 480.5,34.97 C481.02,33.93 481.28,32.76 481.67,31.59 C481.8,31.2 482.19,30.68 482.45,30.68 C483.88,30.68 482.45,28.08 481.67,27.3 C480.11,26 478.29,25.35 476.6,25.61 C475.04,25.87 473.61,26.39 472.44,27.43 C471.92,27.95 471.14,28.34 470.62,28.86 C469.97,29.51 469.19,30.16 468.8,30.94 C468.02,32.76 468.02,34.71 468.8,36.79 C469.71,39.39 470.75,41.08 472.7,43.16 C472.7,43.16 474.65,45.11 474.78,45.11 C476.21,46.54 478.03,47.84 479.33,49.4 C480.37,50.57 481.8,51.61 482.71,52.78 C483.88,54.34 484.92,56.03 485.7,57.72 C486.87,60.32 486.87,62.79 486.87,65.26 C486.87,66.43 486.35,67.6 485.83,68.64 C484.79,70.85 483.62,72.8 481.02,73.84 C480.76,73.84 480.5,74.1 480.37,74.36 C479.46,75.4 478.29,76.31 476.47,76.18 C475.95,76.05 475.43,75.92 475.04,75.79 C473.48,75.66 472.18,74.88 470.88,73.97 C470.23,73.45 469.32,74.75 469.58,75.27 C469.97,75.92 470.36,76.57 471.27,76.7 C471.53,76.7 471.79,76.96 472.05,77.09 C473.48,77.61 474.78,78.91 476.47,78.39 L476.73,78.39 C477.51,79.04 478.16,78.65 478.94,78.52 C480.24,78.39 486.74,77.22 487.13,77.09 C487.78,76.96 488.43,76.83 488.95,76.57 C489.6,76.18 490.12,75.79 490.77,75.53 C491.81,75.66 492.98,75.66 494.02,75.53 C495.45,75.27 496.75,75.01 498.05,74.75 C498.83,74.49 499.74,73.32 500.39,72.8 C502.86,71.24 504.55,69.16 506.11,67.08 C506.76,66.17 507.02,65.26 507.54,64.48 C509.23,62.01 510.4,59.67 511.7,57.33 C512.09,56.68 512.87,56.42 512.35,56.03 L512.35,56.03 Z" id="Path"></path>
            <path d="M519.37,64.74 L518.33,64.74 C516.38,64.74 514.82,65.26 514.3,66.82 C513.78,67.73 513.78,69.29 513.78,70.33 C513.78,72.67 513.78,72.67 515.34,73.19 C515.86,73.19 516.38,73.71 516.9,74.23 C517.81,74.62 519.37,75.66 520.41,76.18 C522.75,77.22 524.18,76.7 525.22,74.62 C525.74,73.71 525.74,72.67 526.78,71.63 C527.3,69.81 527.3,67.73 526.26,66.82 C524.18,65.26 522.23,64.74 519.37,64.74 L519.37,64.74 Z" id="Path"></path>
        </g>
    </g>
</svg>