<?xml version="1.0" encoding="UTF-8" standalone="no"?>
<svg width="493px" height="113px" viewBox="0 0 493 113" version="1.1" xmlns="http://www.w3.org/2000/svg" xmlns:xlink="http://www.w3.org/1999/xlink">
    <!-- Generator: Sketch 40.3 (33839) - http://www.bohemiancoding.com/sketch -->
    <title>Entertaining</title>
    <desc>Created with Sketch.</desc>
    <defs></defs>
    <g id="About-Us-4" stroke="none" stroke-width="1" fill="none" fill-rule="evenodd">
        <g id="Entertaining" fill="#3E3436">
            <path d="M291.34,77.57 C291.86,77.31 290.82,77.7 291.34,77.57 L291.34,77.57 Z M365.7,77.57 C366.22,77.31 365.18,77.7 365.7,77.57 L365.7,77.57 Z" id="entertaining.-copy"></path>
            <path d="M0.4,63.92 C0.4,64.05 0.53,64.05 0.53,64.05 C0.4,66.52 1.31,68.86 2.35,71.07 C2.87,71.98 3.39,72.76 4.04,73.54 C5.34,75.23 6.9,76.79 8.85,77.7 C11.06,78.61 13.27,79.13 15.61,78.87 C16.39,78.74 17.17,78.74 17.95,78.61 C18.34,78.61 18.86,78.48 19.38,78.35 C20.16,78.09 20.94,77.96 21.72,77.57 C22.37,77.31 22.89,76.79 23.54,76.4 C24.32,75.88 25.23,75.49 26.01,74.97 C27.44,74.06 28.35,72.76 29.26,71.2 C29.65,70.42 30.04,69.64 30.69,68.99 C32.12,67.82 33.03,66.26 33.94,64.7 C34.2,64.18 34.72,63.79 34.85,63.27 C35.11,61.97 36.02,61.32 36.8,60.41 C37.06,60.28 37.32,59.89 37.45,59.63 C37.71,58.98 37.97,58.33 38.23,57.68 C38.49,57.16 38.62,56.77 38.75,56.25 C38.75,55.6 38.88,55.08 39.4,54.56 C40.18,53.52 41.35,53.13 41.74,51.7 C42,50.92 41.87,49.75 41.22,49.49 C40.96,49.36 40.57,49.49 40.44,49.62 C39.92,50.4 39.4,51.31 38.88,52.22 C37.19,55.08 35.5,57.94 33.81,60.67 C32.77,62.23 31.47,63.79 30.43,65.35 C29.13,67.56 27.18,69.25 25.1,70.81 C23.8,71.98 22.24,72.76 20.81,73.8 C19.64,74.71 18.34,75.49 16.91,75.62 C15.61,75.88 14.18,76.14 12.75,76.01 C10.67,75.88 9.5,74.71 8.33,73.28 C8.33,73.15 8.2,72.89 8.2,72.76 C8.85,71.59 8.98,70.16 9.24,68.86 C9.63,67.17 10.02,65.35 10.54,63.79 C10.67,63.01 11.06,62.23 11.71,61.97 C12.88,61.19 14.18,60.54 15.35,59.63 C16.65,58.46 18.21,57.42 19.64,56.25 C21.33,54.95 22.76,53.39 23.93,51.57 C24.19,51.18 24.71,50.92 25.23,50.66 C25.36,50.53 25.62,50.4 25.62,50.27 C26.14,49.36 26.53,48.58 27.05,47.67 C27.31,47.15 27.7,46.63 27.96,46.11 C28.09,45.85 28.35,45.59 28.35,45.46 C28.61,44.94 28.74,44.29 28.74,43.77 C29,42.86 29.13,41.95 29.26,41.04 C29.26,40.91 29.13,40.65 29.13,40.52 C28.74,39.74 28.35,39.09 27.96,38.31 C27.7,37.79 27.44,37.27 27.31,36.62 C26.92,35.58 26.27,34.93 25.36,34.28 C24.58,33.76 23.67,33.76 22.89,33.63 C21.72,33.24 20.81,33.63 20.03,33.89 C18.86,34.28 17.69,34.54 16.78,35.58 C16.52,35.84 16.26,35.97 16,36.1 C15.09,36.62 14.05,37.01 13.27,37.79 C12.1,38.7 11.06,39.87 10.02,41.04 C9.5,41.43 9.11,42.08 8.59,42.6 C8.2,42.99 7.94,43.51 7.55,44.03 C7.03,44.94 6.38,45.85 5.86,46.76 C4.95,48.32 4.17,49.88 3.52,51.57 C2.87,53.13 2.22,54.69 1.96,56.51 C1.83,56.9 1.57,57.16 1.44,57.55 C1.31,58.33 1.18,58.98 1.18,59.63 C0.92,61.06 0.66,62.49 0.4,63.92 Z M24.32,41.3 C24.71,42.08 25.23,42.34 26.14,42.08 C26.01,42.86 26.01,43.51 25.75,44.16 C24.97,46.76 24.06,49.23 22.24,51.18 C20.68,52.87 18.99,54.43 17.3,55.86 C16.13,56.9 14.7,57.68 13.4,58.59 C13.14,58.72 13.01,58.85 12.88,58.85 C13.4,57.29 13.92,55.86 14.57,54.3 C14.83,53.39 15.09,52.48 15.48,51.57 C15.87,50.79 16.39,50.14 16.78,49.36 C17.04,48.97 17.17,48.58 17.43,48.06 C18.21,46.89 18.99,45.59 19.9,44.29 C20.03,44.03 20.42,43.9 20.81,43.64 C21.59,43.12 22.37,42.6 23.28,42.08 C23.54,41.82 23.93,41.69 24.32,41.3 Z" id="Combined-Shape"></path>
            <path d="M55,43.38 C55,42.47 55.13,41.3 55,40.26 C55,39.48 54.74,38.83 54.35,38.18 C53.57,36.88 52.66,35.58 51.36,34.67 C49.8,33.5 48.5,32.07 46.68,31.68 C44.99,31.29 43.43,30.64 41.74,31.55 C40.57,32.33 39.27,32.59 39.66,34.41 C39.79,35.58 39.66,36.75 39.66,37.92 C39.53,40 39.27,42.08 39.14,44.16 C39.14,44.81 39.4,45.59 39.27,46.24 C39.27,48.19 39.14,50.14 39.01,52.09 C39.01,53.13 38.88,54.3 38.88,55.34 C38.88,56.25 39.14,57.16 39.14,57.94 C39.01,60.41 38.75,62.75 39.01,65.09 C39.27,66.78 39.53,68.47 39.53,70.03 C39.66,71.33 39.53,72.63 39.4,73.93 C39.4,74.84 39.53,75.49 40.57,75.75 C42.26,76.27 43.95,76.66 45.51,77.44 C46.81,78.09 48.37,78.48 49.8,78.74 C51.36,79.13 52.79,78.22 53.05,77.05 C53.31,75.75 53.44,74.32 53.7,73.02 C53.7,71.98 53.57,70.81 53.96,69.9 C54.35,68.99 54.09,68.08 54.09,67.17 C53.96,66.13 53.96,64.96 53.83,63.79 C53.83,62.75 53.57,61.71 53.57,60.54 C53.44,59.24 53.31,57.94 53.44,56.77 C53.7,54.82 53.96,53 54.48,51.18 C54.87,49.36 55.52,47.54 56.3,45.98 C56.95,44.55 57.99,43.25 59.03,42.08 C59.55,41.43 60.07,40.78 60.85,40.52 C61.89,40.13 62.93,40 64.1,39.87 C64.62,39.61 64.88,39.87 64.75,40.52 C64.62,41.3 64.62,42.21 64.36,42.86 C63.84,44.16 63.06,45.33 62.54,46.63 C61.63,49.23 60.85,51.7 60.07,54.3 C59.68,55.6 59.16,57.03 59.16,58.46 C59.03,59.89 58.51,61.19 58.51,62.62 C58.9,66.13 59.16,69.51 62.15,72.11 C63.71,73.54 65.27,74.84 67.22,75.62 C68.65,76.14 69.95,76.79 71.51,76.01 C72.29,75.62 73.2,75.49 73.98,75.23 C74.63,74.97 75.28,74.84 75.8,74.58 C76.84,74.06 77.75,73.67 78.66,73.02 C80.61,71.85 82.3,70.42 83.21,68.21 C83.73,67.17 84.64,66.26 85.16,65.22 C85.94,63.66 86.59,62.36 87.76,60.41 C89.19,57.94 89.84,55.86 90.36,53.91 C90.49,53.13 90.88,52.09 90.62,51.31 C90.49,50.66 88.67,51.96 88.15,53.39 C87.89,54.17 88.02,54.69 87.76,55.47 C86.98,57.81 84.51,62.1 83.47,64.44 C82.43,67.3 79.96,69.38 77.36,71.33 C76.71,71.85 73.98,72.63 73.2,73.15 L73.2,68.86 L73.2,67.69 C73.72,64.57 74.24,61.58 74.76,58.46 C74.89,58.2 75.02,57.94 75.02,57.81 C75.54,56.64 75.93,55.47 76.32,54.17 C76.58,53.39 76.58,52.48 76.84,51.7 C77.36,50.14 77.49,48.84 76.97,47.28 C76.19,45.07 75.15,43.12 73.59,41.43 C71.9,39.22 69.69,37.79 66.96,37.27 C63.84,36.75 61.24,37.53 58.9,39.74 C57.6,41.04 56.3,42.21 55,43.38 L55,43.38 Z" id="Path"></path>
            <path d="M77.75,23.62 L77.75,24.01 C78.92,24.4 80.09,24.92 81.39,24.92 C83.86,25.05 86.33,25.05 88.8,25.05 C90.36,25.05 90.36,25.05 90.36,26.48 C90.23,28.17 89.97,37.01 89.84,38.7 C89.58,40.39 89.32,45.98 89.19,47.67 C89.06,49.36 89.06,51.18 89.06,53 C89.06,53.78 89.19,54.69 89.19,55.47 C89.19,56.12 88.8,56.64 88.8,57.29 C88.67,59.89 88.67,62.49 88.67,64.96 C88.54,66.52 88.67,68.08 88.67,69.64 C88.8,72.63 90.1,75.1 92.44,76.53 C95.04,78.09 97.77,79.39 100.37,80.43 C101.8,81.08 103.36,81.08 104.66,79.78 C105.7,78.87 106.74,78.09 107.65,77.18 C108.56,76.27 109.47,75.23 110.38,74.19 C111.55,72.76 112.46,71.2 113.76,69.77 C115.58,67.82 117.27,65.74 118.44,63.27 C118.83,62.49 119.09,61.84 119.48,61.19 C120.65,59.24 121.82,57.42 122.86,55.47 C123.77,53.91 124.29,52.09 125.2,50.53 C125.85,49.36 125.98,48.32 125.33,47.02 C125.2,47.15 125.07,47.28 125.07,47.41 C124.16,50.4 122.47,52.87 120.91,55.47 C119.22,58.07 117.4,60.54 115.71,63.14 C115.19,64.05 114.67,65.09 113.89,66 C112.85,67.43 111.55,68.6 110.51,70.03 C108.69,72.37 106.61,74.32 104.27,76.14 C104.14,76.27 103.88,76.27 103.36,76.53 C103.49,74.71 103.75,73.15 103.75,71.59 C103.88,69.25 103.88,66.91 104.01,64.57 C104.01,63.14 104.01,61.71 104.27,60.41 C104.53,58.59 104.53,56.77 104.4,54.95 L104.4,49.1 C104.4,47.54 104.53,41.95 104.53,40.39 C104.4,39.35 104.01,31.03 104.14,29.86 C104.14,28.17 104.53,26.35 104.79,24.53 L107.65,24.53 C108.3,24.53 108.82,24.79 109.47,24.79 C111.03,24.92 112.46,24.92 114.02,25.05 C115.06,25.18 115.06,25.18 114.8,24.14 C115.84,23.36 115.84,23.1 115.06,22.45 C114.41,21.93 113.5,21.67 112.72,21.54 C110.25,20.89 107.65,21.02 105.18,21.54 C104.53,21.67 104.14,21.54 104.01,20.76 C104.01,20.24 103.75,19.59 103.62,19.07 C103.1,18.03 102.45,13.09 102.06,11.92 C101.54,10.1 101.02,8.15 100.37,6.33 C100.11,5.55 99.85,4.77 99.46,3.99 C98.55,2.04 96.86,1.26 94.78,0.87 C92.83,0.61 91.92,1.39 91.66,3.21 C91.66,3.73 91.79,4.38 91.66,4.9 C91.53,8.41 91.27,15.95 91.01,19.59 C91.01,20.37 90.88,21.02 90.75,21.8 C90.1,21.8 89.45,21.67 88.93,21.8 C87.11,21.8 85.29,21.93 83.47,21.93 C82.56,22.06 81.78,21.93 81,22.19 C79.96,22.58 78.79,23.1 77.75,23.62 L77.75,23.62 Z" id="Path"></path>
            <path d="M118.57,63.92 C118.57,64.05 118.7,64.05 118.7,64.05 C118.57,66.52 119.48,68.86 120.52,71.07 C121.04,71.98 121.56,72.76 122.21,73.54 C123.51,75.23 125.07,76.79 127.02,77.7 C129.23,78.61 131.44,79.13 133.78,78.87 C134.56,78.74 135.34,78.74 136.12,78.61 C136.51,78.61 137.03,78.48 137.55,78.35 C138.33,78.09 139.11,77.96 139.89,77.57 C140.54,77.31 141.06,76.79 141.71,76.4 C142.49,75.88 143.4,75.49 144.18,74.97 C145.61,74.06 146.52,72.76 147.43,71.2 C147.82,70.42 148.21,69.64 148.86,68.99 C150.29,67.82 151.2,66.26 152.11,64.7 C152.37,64.18 152.89,63.79 153.02,63.27 C153.28,61.97 154.19,61.32 154.97,60.41 C155.23,60.28 155.49,59.89 155.62,59.63 C155.88,58.98 156.14,58.33 156.4,57.68 C156.66,57.16 156.79,56.77 156.92,56.25 C156.92,55.6 157.05,55.08 157.57,54.56 C158.35,53.52 159.52,53.13 159.91,51.7 C160.17,50.92 160.04,49.75 159.39,49.49 C159.13,49.36 158.74,49.49 158.61,49.62 C158.09,50.4 157.57,51.31 157.05,52.22 C155.36,55.08 153.67,57.94 151.98,60.67 C150.94,62.23 149.64,63.79 148.6,65.35 C147.3,67.56 145.35,69.25 143.27,70.81 C141.97,71.98 140.41,72.76 138.98,73.8 C137.81,74.71 136.51,75.49 135.08,75.62 C133.78,75.88 132.35,76.14 130.92,76.01 C128.84,75.88 127.67,74.71 126.5,73.28 C126.5,73.15 126.37,72.89 126.37,72.76 C127.02,71.59 127.15,70.16 127.41,68.86 C127.8,67.17 128.19,65.35 128.71,63.79 C128.84,63.01 129.23,62.23 129.88,61.97 C131.05,61.19 132.35,60.54 133.52,59.63 C134.82,58.46 136.38,57.42 137.81,56.25 C139.5,54.95 140.93,53.39 142.1,51.57 C142.36,51.18 142.88,50.92 143.4,50.66 C143.53,50.53 143.79,50.4 143.79,50.27 C144.31,49.36 144.7,48.58 145.22,47.67 C145.48,47.15 145.87,46.63 146.13,46.11 C146.26,45.85 146.52,45.59 146.52,45.46 C146.78,44.94 146.91,44.29 146.91,43.77 C147.17,42.86 147.3,41.95 147.43,41.04 C147.43,40.91 147.3,40.65 147.3,40.52 C146.91,39.74 146.52,39.09 146.13,38.31 C145.87,37.79 145.61,37.27 145.48,36.62 C145.09,35.58 144.44,34.93 143.53,34.28 C142.75,33.76 141.84,33.76 141.06,33.63 C139.89,33.24 138.98,33.63 138.2,33.89 C137.03,34.28 135.86,34.54 134.95,35.58 C134.69,35.84 134.43,35.97 134.17,36.1 C133.26,36.62 132.22,37.01 131.44,37.79 C130.27,38.7 129.23,39.87 128.19,41.04 C127.67,41.43 127.28,42.08 126.76,42.6 C126.37,42.99 126.11,43.51 125.72,44.03 C125.2,44.94 124.55,45.85 124.03,46.76 C123.12,48.32 122.34,49.88 121.69,51.57 C121.04,53.13 120.39,54.69 120.13,56.51 C120,56.9 119.74,57.16 119.61,57.55 C119.48,58.33 119.35,58.98 119.35,59.63 C119.09,61.06 118.83,62.49 118.57,63.92 Z M142.49,41.3 C142.88,42.08 143.4,42.34 144.31,42.08 C144.18,42.86 144.18,43.51 143.92,44.16 C143.14,46.76 142.23,49.23 140.41,51.18 C138.85,52.87 137.16,54.43 135.47,55.86 C134.3,56.9 132.87,57.68 131.57,58.59 C131.31,58.72 131.18,58.85 131.05,58.85 C131.57,57.29 132.09,55.86 132.74,54.3 C133,53.39 133.26,52.48 133.65,51.57 C134.04,50.79 134.56,50.14 134.95,49.36 C135.21,48.97 135.34,48.58 135.6,48.06 C136.38,46.89 137.16,45.59 138.07,44.29 C138.2,44.03 138.59,43.9 138.98,43.64 C139.76,43.12 140.54,42.6 141.45,42.08 C141.71,41.82 142.1,41.69 142.49,41.3 Z" id="Combined-Shape"></path>
            <path d="M177.07,75.49 C179.41,74.58 179.93,72.24 179.15,70.55 C178.76,69.77 178.89,69.12 179.28,68.6 C179.93,67.82 179.8,67.04 179.8,66.26 C179.67,64.83 179.67,63.4 179.67,61.97 C179.67,61.32 179.93,60.8 180.32,60.28 C181.36,59.11 182.53,58.07 183.05,56.64 C183.57,55.21 184.22,53.91 185,52.74 C185.91,51.31 186.56,49.75 186.95,48.06 C187.08,47.41 187.21,46.76 187.08,45.98 C186.82,43.64 185.39,41.82 183.7,40.52 C182.53,39.48 180.71,39.09 179.15,38.44 L178.89,38.44 C177.07,38.7 175.51,39.35 174.08,40.26 C173.43,40.78 172.78,41.3 172.13,41.69 C171.35,41.95 170.57,42.21 169.79,42.34 C169.14,42.34 168.36,42.86 167.84,41.95 C167.58,41.43 167.19,41.04 167.06,40.52 C166.67,39.74 166.15,38.83 166.28,38.18 C166.8,36.62 167.71,35.06 168.23,33.37 C168.88,31.55 169.66,29.73 169.92,27.78 C170.18,25.7 170.05,23.49 169.92,21.41 C169.79,19.33 168.36,18.03 166.28,18.03 C165.76,18.03 165.11,18.16 164.72,18.55 C163.55,19.59 162.25,20.63 161.34,21.93 C159.65,24.4 158.61,27.26 158.61,30.25 C158.48,32.46 158.74,34.8 159,37.01 C159.13,38.05 159.52,39.09 160.04,39.87 C160.56,40.52 161.73,41.17 161.47,41.82 C160.69,43.51 159.78,46.76 159.26,48.45 C157.83,52.09 156.4,53.91 155.1,57.55 C154.97,57.94 154.19,59.11 154.32,59.24 C154.84,59.5 155.1,59.11 155.62,58.98 C156.01,58.98 156.01,58.59 156.27,58.2 C156.66,57.68 157.05,56.64 157.57,55.99 C158.74,54.56 161.34,48.84 161.86,46.89 C162.12,46.24 163.16,44.16 163.29,43.25 C163.68,43.51 164.33,44.55 164.59,44.68 C165.5,45.33 166.28,45.85 167.19,46.24 C167.97,46.63 168.75,46.63 169.53,47.02 C170.18,47.28 170.31,47.8 170.05,48.45 C169.92,48.97 169.79,49.62 169.66,50.14 C169.4,51.57 169.14,53.13 168.88,54.69 C168.62,56.77 168.36,58.98 168.23,61.06 C168.23,63.27 168.23,65.35 168.49,67.43 C169.01,71.85 170.96,75.36 174.73,77.83 C175.51,78.48 176.29,79.13 177.2,79.39 C179.02,79.91 180.71,79.39 182.27,78.35 C183.18,77.83 183.96,77.18 184.74,76.66 C187.21,75.1 189.29,73.15 190.85,70.81 C191.63,69.64 192.28,68.47 193.19,67.56 C194.75,66.26 195.66,64.44 196.44,62.75 C197.22,61.19 197.87,59.5 198.52,57.81 C198.65,57.42 198.65,56.9 198.65,56.38 C198.78,55.86 198.78,55.34 198.78,54.82 C198.78,54.43 198.91,54.17 198.91,53.91 C198.91,53.91 198.78,53.78 198.65,53.78 C198.39,54.43 198.13,55.08 197.74,55.73 C195.66,58.98 193.58,62.36 191.5,65.61 C190.2,67.56 188.64,69.51 187.21,71.2 C186.43,72.11 185.26,72.89 184.35,73.67 C182.92,75.1 181.36,76.27 179.54,77.05 C177.72,77.83 177.2,77.57 177.07,75.75 L177.07,75.49 Z M167.19,22.58 C168.75,24.01 167.06,30.51 165.5,32.46 C165.11,30.77 165.37,29.08 165.76,27.52 C166.15,25.96 166.67,24.4 167.19,22.58 Z" id="Combined-Shape"></path>
            <path d="M186.3,23.62 L186.3,24.01 C187.47,24.4 188.64,24.92 189.94,24.92 C192.41,25.05 194.88,25.05 197.35,25.05 C198.91,25.05 198.91,25.05 198.91,26.48 C198.78,28.17 198.52,37.01 198.39,38.7 C198.13,40.39 197.87,45.98 197.74,47.67 C197.61,49.36 197.61,51.18 197.61,53 C197.61,53.78 197.74,54.69 197.74,55.47 C197.74,56.12 197.35,56.64 197.35,57.29 C197.22,59.89 197.22,62.49 197.22,64.96 C197.09,66.52 197.22,68.08 197.22,69.64 C197.35,72.63 198.65,75.1 200.99,76.53 C203.59,78.09 206.32,79.39 208.92,80.43 C210.35,81.08 211.91,81.08 213.21,79.78 C214.25,78.87 215.29,78.09 216.2,77.18 C217.11,76.27 218.02,75.23 218.93,74.19 C220.1,72.76 221.01,71.2 222.31,69.77 C224.13,67.82 225.82,65.74 226.99,63.27 C227.38,62.49 227.64,61.84 228.03,61.19 C229.2,59.24 230.37,57.42 231.41,55.47 C232.32,53.91 232.84,52.09 233.75,50.53 C234.4,49.36 234.53,48.32 233.88,47.02 C233.75,47.15 233.62,47.28 233.62,47.41 C232.71,50.4 231.02,52.87 229.46,55.47 C227.77,58.07 225.95,60.54 224.26,63.14 C223.74,64.05 223.22,65.09 222.44,66 C221.4,67.43 220.1,68.6 219.06,70.03 C217.24,72.37 215.16,74.32 212.82,76.14 C212.69,76.27 212.43,76.27 211.91,76.53 C212.04,74.71 212.3,73.15 212.3,71.59 C212.43,69.25 212.43,66.91 212.56,64.57 C212.56,63.14 212.56,61.71 212.82,60.41 C213.08,58.59 213.08,56.77 212.95,54.95 L212.95,49.1 C212.95,47.54 213.08,41.95 213.08,40.39 C212.95,39.35 212.56,31.03 212.69,29.86 C212.69,28.17 213.08,26.35 213.34,24.53 L216.2,24.53 C216.85,24.53 217.37,24.79 218.02,24.79 C219.58,24.92 221.01,24.92 222.57,25.05 C223.61,25.18 223.61,25.18 223.35,24.14 C224.39,23.36 224.39,23.1 223.61,22.45 C222.96,21.93 222.05,21.67 221.27,21.54 C218.8,20.89 216.2,21.02 213.73,21.54 C213.08,21.67 212.69,21.54 212.56,20.76 C212.56,20.24 212.3,19.59 212.17,19.07 C211.65,18.03 211,13.09 210.61,11.92 C210.09,10.1 209.57,8.15 208.92,6.33 C208.66,5.55 208.4,4.77 208.01,3.99 C207.1,2.04 205.41,1.26 203.33,0.87 C201.38,0.61 200.47,1.39 200.21,3.21 C200.21,3.73 200.34,4.38 200.21,4.9 C200.08,8.41 199.82,15.95 199.56,19.59 C199.56,20.37 199.43,21.02 199.3,21.8 C198.65,21.8 198,21.67 197.48,21.8 C195.66,21.8 193.84,21.93 192.02,21.93 C191.11,22.06 190.33,21.93 189.55,22.19 C188.51,22.58 187.34,23.1 186.3,23.62 L186.3,23.62 Z" id="Path"></path>
            <path d="M249.48,58.85 C249.48,58.98 249.61,58.98 249.61,58.98 L249.61,60.8 L249.61,62.75 C249.61,64.31 249.35,65.87 249.48,67.3 C249.61,69.51 250.13,71.59 251.04,73.67 C251.82,75.49 252.73,76.92 254.29,78.09 C255.98,79.39 255.59,79.26 257.8,79.26 C258.71,79.26 259.62,79.13 260.4,78.74 C261.83,78.22 263.26,77.31 264.43,76.4 C266.12,75.23 267.42,73.54 268.46,71.72 C269.63,70.03 270.54,68.34 271.71,66.78 C272.23,66 272.23,66.13 272.88,64.96 C274.05,62.75 277.17,56.64 278.08,54.43 C278.47,53.52 279.12,53.52 278.34,53.26 C277.3,53 278.34,53.26 277.17,53.13 C277.04,53.13 276.78,53.52 276.65,53.65 C275.61,55.6 272.75,61.97 271.58,63.79 C270.8,65.22 269.5,66.52 268.59,67.95 C267.16,70.55 265.73,73.15 263.39,75.23 C262.22,76.27 260.92,77.05 259.49,77.31 C258.58,76.4 257.93,75.49 257.02,74.58 C257.93,73.54 258.71,72.37 259.62,71.2 C259.75,71.07 259.75,70.81 259.88,70.68 C260.4,69.12 260.66,67.3 261.57,66 C263.13,63.79 263.39,61.19 264.17,58.85 C264.56,57.29 264.69,55.6 264.82,54.04 C265.08,51.83 265.21,49.62 265.47,47.41 C265.47,46.63 265.73,45.98 265.73,45.2 C265.73,44.03 265.86,42.73 265.73,41.43 C265.6,40.39 265.08,39.22 264.95,38.18 C264.56,36.36 263.26,35.32 261.96,34.28 C260.92,33.24 259.49,33.11 258.06,32.98 C256.24,32.72 254.55,32.98 253.38,34.54 C252.73,35.58 252.08,36.75 251.56,37.66 C250.65,37.01 249.48,36.36 248.44,35.58 C247.14,34.54 245.58,34.54 244.15,35.06 C242.98,35.45 242.07,36.23 240.9,36.49 C239.47,36.75 238.56,37.79 237.52,38.57 C236.35,39.61 235.31,40.78 234.14,41.95 C233.75,42.47 233.23,42.86 232.84,43.51 C232.19,44.55 231.54,45.72 230.89,47.02 C230.5,47.67 230.11,48.32 229.85,49.1 C229.33,50.4 228.94,51.7 228.42,53 C227.77,55.47 226.73,57.81 226.34,60.28 C225.56,63.92 226.21,67.56 228.29,70.81 C230.11,73.8 232.71,75.49 236.35,75.49 C237.26,75.49 238.04,74.84 238.82,74.84 C240.51,74.84 241.68,73.93 242.46,72.89 C243.63,71.59 244.28,69.9 245.06,68.34 C246.23,66.13 247.14,63.79 248.18,61.45 C248.57,60.67 249.09,59.76 249.48,58.85 Z M250.26,41.82 C250.26,43.77 250.13,45.72 250,47.67 C249.87,50.4 249.35,52.87 247.79,55.34 C246.49,57.42 245.58,59.89 244.41,62.1 C243.37,64.18 242.46,66.39 241.16,68.34 C240.12,69.77 238.69,71.07 237.39,72.24 C236.22,73.15 233.88,72.76 232.84,71.46 C232.19,70.68 231.41,69.9 231.02,68.99 C230.5,67.56 229.85,66 230.37,64.31 C230.89,62.49 231.28,60.67 231.8,58.98 C232.71,56.38 233.62,53.91 234.53,51.44 C235.05,50.14 235.57,48.71 236.22,47.41 C236.35,46.89 236.74,46.37 237,45.98 C237.91,44.68 238.82,43.25 239.73,42.08 C241.16,40.52 242.72,39.09 244.93,39.09 C245.58,39.09 246.23,39.61 246.75,40 C247.27,40.52 247.79,41.17 248.44,41.56 C248.96,41.82 249.74,41.82 250.26,41.82 Z" id="Combined-Shape"></path>
            <path d="M280.68,30.12 C282.5,30.51 284.32,30.9 286.14,31.29 C288.22,31.29 289.78,30.12 291.08,29.08 C291.73,28.56 291.99,27.39 291.86,26.61 C291.73,25.57 291.6,24.27 290.17,23.88 C288.61,23.62 287.05,22.97 285.62,23.1 C283.8,23.23 282.11,24.01 280.42,24.4 C279.25,24.79 278.34,25.31 278.34,26.61 C278.34,27.91 279.51,29.73 280.68,30.12 L280.68,30.12 Z" id="Path"></path>
            <path d="M305.64,54.82 C305.12,54.3 305.25,54.69 304.6,54.43 C304.21,55.21 304.08,55.86 303.82,56.51 C300.96,61.97 298.23,67.43 293.94,71.85 C292.51,73.28 291.34,74.97 289.13,75.36 C288.35,75.49 287.7,75.88 286.92,76.14 C287.18,75.23 287.31,74.45 288.35,74.32 C288.87,74.32 289.39,73.54 289.65,73.15 C289.91,72.76 289.78,72.24 289.78,71.72 C289.91,68.34 290.3,64.83 291.08,61.58 L291.08,60.15 C291.21,58.85 291.34,57.42 291.34,56.12 C291.47,54.04 291.6,51.96 291.6,49.88 C291.6,48.97 291.6,48.06 291.47,47.15 C291.34,46.63 291.21,46.11 291.08,45.59 C290.95,44.55 291.08,43.38 290.56,42.47 C289.39,40.91 288.48,38.96 286.4,38.18 C284.97,37.66 283.54,36.88 282.11,36.88 C279.77,36.88 278.47,38.05 277.95,40.39 C277.82,40.91 277.82,41.43 277.69,41.95 C277.43,43.25 277.17,44.55 277.04,45.85 C276.78,47.54 276.65,49.23 276.52,50.92 C276.26,53.91 275.87,56.77 276,59.76 C276.26,62.49 275.74,65.22 276.65,68.08 C277.04,69.51 277.17,70.94 277.56,72.24 C278.47,74.84 279.9,76.92 282.5,78.09 C284.19,78.74 285.75,78.74 287.31,78.48 C288.61,78.35 290.04,77.83 291.34,77.57 C292.12,77.18 293.03,75.75 293.68,75.23 C296.02,73.41 297.71,70.81 299.4,68.21 C299.92,67.3 300.31,66 300.83,65.09 C302.52,62.1 303.69,59.24 304.99,56.51 C305.38,55.6 306.16,55.34 305.64,54.82 L305.64,54.82 Z" id="Path"></path>
            <path d="M317.34,43.38 C317.34,42.47 317.47,41.3 317.34,40.26 C317.34,39.48 317.08,38.83 316.69,38.18 C315.91,36.88 315,35.58 313.7,34.67 C312.14,33.5 310.84,32.07 309.02,31.68 C307.33,31.29 305.77,30.64 304.08,31.55 C302.91,32.33 301.61,32.59 302,34.41 C302.13,35.58 302,36.75 302,37.92 C301.87,40 301.61,42.08 301.48,44.16 C301.48,44.81 301.74,45.59 301.61,46.24 C301.61,48.19 301.48,50.14 301.35,52.09 C301.35,53.13 301.22,54.3 301.22,55.34 C301.22,56.25 301.48,57.16 301.48,57.94 C301.35,60.41 301.09,62.75 301.35,65.09 C301.61,66.78 301.87,68.47 301.87,70.03 C302,71.33 301.87,72.63 301.74,73.93 C301.74,74.84 301.87,75.49 302.91,75.75 C304.6,76.27 306.29,76.66 307.85,77.44 C309.15,78.09 310.71,78.48 312.14,78.74 C313.7,79.13 315.13,78.22 315.39,77.05 C315.65,75.75 315.78,74.32 316.04,73.02 C316.04,71.98 315.91,70.81 316.3,69.9 C316.69,68.99 316.43,68.08 316.43,67.17 C316.3,66.13 316.3,64.96 316.17,63.79 C316.17,62.75 315.91,61.71 315.91,60.54 C315.78,59.24 315.65,57.94 315.78,56.77 C316.04,54.82 316.3,53 316.82,51.18 C317.21,49.36 317.86,47.54 318.64,45.98 C319.29,44.55 320.33,43.25 321.37,42.08 C321.89,41.43 322.41,40.78 323.19,40.52 C324.23,40.13 325.27,40 326.44,39.87 C326.96,39.61 327.22,39.87 327.09,40.52 C326.96,41.3 326.96,42.21 326.7,42.86 C326.18,44.16 325.4,45.33 324.88,46.63 C323.97,49.23 323.19,51.7 322.41,54.3 C322.02,55.6 321.5,57.03 321.5,58.46 C321.37,59.89 320.85,61.19 320.85,62.62 C321.24,66.13 321.5,69.51 324.49,72.11 C326.05,73.54 327.61,74.84 329.56,75.62 C330.99,76.14 332.29,76.79 333.85,76.01 C334.63,75.62 335.54,75.49 336.32,75.23 C336.97,74.97 337.62,74.84 338.14,74.58 C339.18,74.06 340.09,73.67 341,73.02 C342.95,71.85 344.64,70.42 345.55,68.21 C346.07,67.17 346.98,66.26 347.5,65.22 C348.28,63.66 348.93,62.36 350.1,60.41 C351.53,57.94 352.18,55.86 352.7,53.91 C352.83,53.13 353.22,52.09 352.96,51.31 C352.83,50.66 351.01,51.96 350.49,53.39 C350.23,54.17 350.36,54.69 350.1,55.47 C349.32,57.81 346.85,62.1 345.81,64.44 C344.77,67.3 342.3,69.38 339.7,71.33 C339.05,71.85 336.32,72.63 335.54,73.15 L335.54,68.86 L335.54,67.69 C336.06,64.57 336.58,61.58 337.1,58.46 C337.23,58.2 337.36,57.94 337.36,57.81 C337.88,56.64 338.27,55.47 338.66,54.17 C338.92,53.39 338.92,52.48 339.18,51.7 C339.7,50.14 339.83,48.84 339.31,47.28 C338.53,45.07 337.49,43.12 335.93,41.43 C334.24,39.22 332.03,37.79 329.3,37.27 C326.18,36.75 323.58,37.53 321.24,39.74 C319.94,41.04 318.64,42.21 317.34,43.38 L317.34,43.38 Z" id="Path"></path>
            <path d="M355.04,30.12 C356.86,30.51 358.68,30.9 360.5,31.29 C362.58,31.29 364.14,30.12 365.44,29.08 C366.09,28.56 366.35,27.39 366.22,26.61 C366.09,25.57 365.96,24.27 364.53,23.88 C362.97,23.62 361.41,22.97 359.98,23.1 C358.16,23.23 356.47,24.01 354.78,24.4 C353.61,24.79 352.7,25.31 352.7,26.61 C352.7,27.91 353.87,29.73 355.04,30.12 L355.04,30.12 Z" id="Path"></path>
            <path d="M380,54.82 C379.48,54.3 379.61,54.69 378.96,54.43 C378.57,55.21 378.44,55.86 378.18,56.51 C375.32,61.97 372.59,67.43 368.3,71.85 C366.87,73.28 365.7,74.97 363.49,75.36 C362.71,75.49 362.06,75.88 361.28,76.14 C361.54,75.23 361.67,74.45 362.71,74.32 C363.23,74.32 363.75,73.54 364.01,73.15 C364.27,72.76 364.14,72.24 364.14,71.72 C364.27,68.34 364.66,64.83 365.44,61.58 L365.44,60.15 C365.57,58.85 365.7,57.42 365.7,56.12 C365.83,54.04 365.96,51.96 365.96,49.88 C365.96,48.97 365.96,48.06 365.83,47.15 C365.7,46.63 365.57,46.11 365.44,45.59 C365.31,44.55 365.44,43.38 364.92,42.47 C363.75,40.91 362.84,38.96 360.76,38.18 C359.33,37.66 357.9,36.88 356.47,36.88 C354.13,36.88 352.83,38.05 352.31,40.39 C352.18,40.91 352.18,41.43 352.05,41.95 C351.79,43.25 351.53,44.55 351.4,45.85 C351.14,47.54 351.01,49.23 350.88,50.92 C350.62,53.91 350.23,56.77 350.36,59.76 C350.62,62.49 350.1,65.22 351.01,68.08 C351.4,69.51 351.53,70.94 351.92,72.24 C352.83,74.84 354.26,76.92 356.86,78.09 C358.55,78.74 360.11,78.74 361.67,78.48 C362.97,78.35 364.4,77.83 365.7,77.57 C366.48,77.18 367.39,75.75 368.04,75.23 C370.38,73.41 372.07,70.81 373.76,68.21 C374.28,67.3 374.67,66 375.19,65.09 C376.88,62.1 378.05,59.24 379.35,56.51 C379.74,55.6 380.52,55.34 380,54.82 L380,54.82 Z" id="Path"></path>
            <path d="M391.7,43.38 C391.7,42.47 391.83,41.3 391.7,40.26 C391.7,39.48 391.44,38.83 391.05,38.18 C390.27,36.88 389.36,35.58 388.06,34.67 C386.5,33.5 385.2,32.07 383.38,31.68 C381.69,31.29 380.13,30.64 378.44,31.55 C377.27,32.33 375.97,32.59 376.36,34.41 C376.49,35.58 376.36,36.75 376.36,37.92 C376.23,40 375.97,42.08 375.84,44.16 C375.84,44.81 376.1,45.59 375.97,46.24 C375.97,48.19 375.84,50.14 375.71,52.09 C375.71,53.13 375.58,54.3 375.58,55.34 C375.58,56.25 375.84,57.16 375.84,57.94 C375.71,60.41 375.45,62.75 375.71,65.09 C375.97,66.78 376.23,68.47 376.23,70.03 C376.36,71.33 376.23,72.63 376.1,73.93 C376.1,74.84 376.23,75.49 377.27,75.75 C378.96,76.27 380.65,76.66 382.21,77.44 C383.51,78.09 385.07,78.48 386.5,78.74 C388.06,79.13 389.49,78.22 389.75,77.05 C390.01,75.75 390.14,74.32 390.4,73.02 C390.4,71.98 390.27,70.81 390.66,69.9 C391.05,68.99 390.79,68.08 390.79,67.17 C390.66,66.13 390.66,64.96 390.53,63.79 C390.53,62.75 390.27,61.71 390.27,60.54 C390.14,59.24 390.01,57.94 390.14,56.77 C390.4,54.82 390.66,53 391.18,51.18 C391.57,49.36 392.22,47.54 393,45.98 C393.65,44.55 394.69,43.25 395.73,42.08 C396.25,41.43 396.77,40.78 397.55,40.52 C398.59,40.13 399.63,40 400.8,39.87 C401.32,39.61 401.58,39.87 401.45,40.52 C401.32,41.3 401.32,42.21 401.06,42.86 C400.54,44.16 399.76,45.33 399.24,46.63 C398.33,49.23 397.55,51.7 396.77,54.3 C396.38,55.6 395.86,57.03 395.86,58.46 C395.73,59.89 395.21,61.19 395.21,62.62 C395.6,66.13 395.86,69.51 398.85,72.11 C400.41,73.54 401.97,74.84 403.92,75.62 C405.35,76.14 406.65,76.79 408.21,76.01 C408.99,75.62 409.9,75.49 410.68,75.23 C411.33,74.97 411.98,74.84 412.5,74.58 C413.54,74.06 414.45,73.67 415.36,73.02 C417.31,71.85 419,70.42 419.91,68.21 C420.43,67.17 421.34,66.26 421.86,65.22 C422.64,63.66 423.29,62.36 424.46,60.41 C425.89,57.94 426.54,55.86 427.06,53.91 C427.19,53.13 427.58,52.09 427.32,51.31 C427.19,50.66 425.37,51.96 424.85,53.39 C424.59,54.17 424.72,54.69 424.46,55.47 C423.68,57.81 421.21,62.1 420.17,64.44 C419.13,67.3 416.66,69.38 414.06,71.33 C413.41,71.85 410.68,72.63 409.9,73.15 L409.9,68.86 L409.9,67.69 C410.42,64.57 410.94,61.58 411.46,58.46 C411.59,58.2 411.72,57.94 411.72,57.81 C412.24,56.64 412.63,55.47 413.02,54.17 C413.28,53.39 413.28,52.48 413.54,51.7 C414.06,50.14 414.19,48.84 413.67,47.28 C412.89,45.07 411.85,43.12 410.29,41.43 C408.6,39.22 406.39,37.79 403.66,37.27 C400.54,36.75 397.94,37.53 395.6,39.74 C394.3,41.04 393,42.21 391.7,43.38 L391.7,43.38 Z" id="Path"></path>
            <path d="M458.13,77.83 C458.26,76.92 458.39,76.14 458.65,75.36 C459.04,74.19 459.56,73.02 459.82,71.72 C460.34,70.16 460.47,68.6 460.86,67.04 C461.51,64.57 462.16,62.23 461.77,59.5 C461.64,58.46 461.64,57.29 461.77,56.12 C462.16,54.04 462.55,51.96 463.07,50.01 C463.98,46.76 462.68,44.29 460.47,41.95 C459.56,41.04 458.13,40.52 457.22,39.48 C455.53,37.79 453.84,37.79 451.76,38.31 C450.46,38.7 450.2,39.61 450.07,40.65 C449.81,42.34 449.55,44.16 449.55,45.85 C449.42,47.93 448.25,49.62 448.51,51.83 C448.77,53.13 448.38,54.43 448.25,55.86 C447.99,58.33 447.86,60.93 447.47,63.4 C446.95,65.74 445.91,68.08 444.22,69.9 C443.57,70.68 442.66,71.2 442.01,71.98 C440.84,73.28 439.41,74.19 437.85,74.71 C437.2,74.84 436.29,74.84 435.64,74.58 C434.86,74.19 434.86,73.41 434.86,72.63 C434.99,70.16 434.08,67.56 434.73,65.09 C435.12,63.66 435.51,62.36 436.03,61.06 C436.42,59.76 436.81,58.46 437.2,57.29 C437.46,56.51 437.59,55.6 437.98,54.95 C439.02,52.87 440.19,50.79 441.23,48.84 C441.75,47.8 442.27,46.63 442.92,45.59 C443.96,44.03 444.48,42.21 444.87,40.26 C445,39.22 445.52,38.96 446.43,39.61 C446.95,40 447.47,40.39 447.99,39.74 C448.51,39.22 448.77,38.57 448.25,37.92 C447.86,37.4 447.73,37.01 447.34,36.62 C446.17,34.93 445.13,33.24 442.79,32.98 C442.14,32.98 441.36,32.46 440.71,32.98 C440.58,33.11 440.45,32.98 440.19,32.98 C439.93,32.98 439.54,32.85 439.28,32.98 C437.85,34.28 436.42,35.45 434.99,36.88 C433.82,38.05 432.78,39.35 431.87,40.65 C430.7,42.21 429.53,43.64 428.49,45.2 C427.32,46.89 426.67,48.84 426.02,50.66 C425.63,52.09 425.11,53.39 424.72,54.69 C424.46,55.6 424.07,56.38 424.07,57.16 C423.81,58.46 423.81,59.76 423.68,60.93 C423.68,61.71 423.55,62.36 423.68,63.01 C424.2,65.09 424.46,67.3 425.63,69.25 C426.67,70.68 427.71,72.11 428.75,73.67 C429.66,75.1 431.22,75.62 432.65,76.53 C434.86,77.96 437.46,78.22 439.93,78.61 C441.36,78.87 442.27,78.09 442.4,77.05 C442.4,76.27 442.79,76.01 443.31,75.88 C443.57,75.75 443.83,75.75 443.96,75.49 C444.87,74.45 446.56,73.93 446.82,72.24 C447.08,72.63 447.08,72.89 447.08,73.15 L447.08,76.4 C446.95,77.83 447.08,79.26 446.95,80.82 C446.82,82.51 446.69,84.2 446.43,85.89 C446.43,86.41 446.04,87.06 445.65,87.45 C444.35,88.62 442.79,89.66 441.62,90.83 C439.67,92.78 437.85,94.99 436.03,97.07 C435.51,97.72 434.99,98.5 434.6,99.28 C433.69,101.36 433.95,103.83 434.08,106.17 C434.08,106.3 434.08,106.43 434.21,106.56 C434.99,107.73 435.77,108.9 436.55,110.07 C437.59,111.63 439.28,112.41 440.97,112.8 C442.14,113.06 443.05,112.93 443.96,112.41 C445.13,111.76 445.78,110.72 446.3,109.55 C446.56,108.9 446.69,108.12 447.08,107.47 C447.86,106.17 449.16,105.39 450.2,104.35 C450.59,103.96 451.11,103.57 451.24,102.92 C451.5,102.01 451.63,100.84 451.76,99.8 C451.89,98.76 452.02,97.59 452.15,96.55 C452.41,94.86 453.06,93.3 453.06,91.74 C453.06,89.4 453.84,87.45 454.36,85.37 C454.36,85.11 454.62,84.85 454.88,84.72 C457.74,82.25 460.86,79.91 463.72,77.44 C465.02,76.4 465.93,74.84 466.97,73.67 C467.36,73.28 478.54,60.15 477.76,59.89 C476.59,59.5 476.07,59.63 475.29,60.41 C472.43,63.66 469.7,66.91 466.71,70.03 C464.76,72.11 462.55,74.06 460.47,76.01 C459.82,76.66 458.91,77.18 458.13,77.83 Z M445.78,92.52 C445.65,93.82 445.52,95.25 445.39,96.55 C445.26,98.63 445.26,100.71 445,102.79 C444.87,104.48 444.61,106.04 444.09,107.6 C443.83,108.77 441.75,109.16 440.58,108.9 C438.24,108.38 437.33,106.43 436.03,104.87 C435.9,104.74 435.77,104.48 435.77,104.35 C435.9,103.31 435.9,102.4 436.16,101.49 C436.16,101.1 436.68,100.84 436.94,100.58 C437.46,100.19 437.98,99.93 438.37,99.41 C439.28,98.5 440.06,97.59 440.97,96.68 C441.36,96.29 442.01,96.03 442.4,95.64 C442.66,95.51 442.79,95.25 442.92,95.12 C443.83,94.21 444.74,93.3 445.65,92.39 L445.78,92.52 Z" id="Combined-Shape"></path>
            <path d="M484.65,65.74 L483.61,65.74 C481.66,65.74 480.1,66.26 479.58,67.82 C479.06,68.73 479.06,70.29 479.06,71.33 C479.06,73.67 479.06,73.67 480.62,74.19 C481.14,74.19 481.66,74.71 482.18,75.23 C483.09,75.62 484.65,76.66 485.69,77.18 C488.03,78.22 489.46,77.7 490.5,75.62 C491.02,74.71 491.02,73.67 492.06,72.63 C492.58,70.81 492.58,68.73 491.54,67.82 C489.46,66.26 487.51,65.74 484.65,65.74 L484.65,65.74 Z" id="Path"></path>
        </g>
    </g>
</svg>