<?xml version="1.0" encoding="UTF-8"?>
<svg width="132px" height="182px" viewBox="0 0 132 182" version="1.1" xmlns="http://www.w3.org/2000/svg" xmlns:xlink="http://www.w3.org/1999/xlink">
    <!-- Generator: Sketch 41.1 (35376) - http://www.bohemiancoding.com/sketch -->
    <title>Page 1</title>
    <desc>Created with Sketch.</desc>
    <defs>
        <polygon id="path-1" points="33.0610903 0.265992532 0.432621504 0.265992532 0.432621504 18.2035418 33.0610903 18.2035418 33.0610903 0.265992532"></polygon>
        <polygon id="path-3" points="0 0.358774221 0 41.9173079 30.7877627 41.9173079 30.7877627 0.358774221"></polygon>
    </defs>
    <g id="About-Us-4" stroke="none" stroke-width="1" fill="none" fill-rule="evenodd">
        <g id="About_Us_L" transform="translate(-654.000000, -1922.000000)">
            <g id="Page-1" transform="translate(654.000000, 1922.237690)">
                <path d="M90.9077478,79.449927 C90.7977738,79.5138404 90.6716831,79.5504966 90.5503326,79.5937322 C90.688748,79.4330088 90.8271634,79.2713455 90.968423,79.1125019 C90.95041,79.2290498 90.9703191,79.4132708 90.9077478,79.449927" id="Fill-1" fill="#FFFFFF"></path>
                <path d="M85.2221917,61.5011645 L85.2165034,61.5068039 C85.1235944,61.2708883 85.0183607,61.0377923 84.949153,60.7943575 C84.9159712,60.6778095 84.9159712,60.459752 84.9794907,60.421216 C85.3302695,60.2087979 85.3918928,60.3234661 85.2439969,60.7492421 C85.1653086,60.9748188 85.2250358,61.2492705 85.2221917,61.5011645" id="Fill-3" fill="#FFFFFF"></path>
                <path d="M89.0622719,56.9779756 C89.0499472,56.8802257 89.0376225,56.7824758 89.0262459,56.6856657 C88.822415,56.7458195 88.6166879,56.7975142 88.4204414,56.876466 C88.3976882,56.8858651 88.43087,57.0409491 88.4375063,57.1274201 C88.6460775,57.0776053 88.8537007,57.0277904 89.0622719,56.9779756" id="Fill-5" fill="#FFFFFF"></path>
                <path d="M92.0797283,53.6640658 C92.0019881,53.7439575 91.925196,53.8229094 91.8474558,53.9028011 C91.9526895,53.9281785 92.0588712,53.9535559 92.1641048,53.9779934 C92.1356633,53.8736641 92.1072218,53.768395 92.0797283,53.6640658" id="Fill-7" fill="#FFFFFF"></path>
                <path d="M40.5762942,176.435222 C38.597712,174.601471 36.5944804,172.801557 33.8138471,172.619216 C31.6200573,172.475411 29.3077612,172.474471 27.5443865,174.249008 C27.6316072,174.598652 27.6192825,174.920098 27.7709707,175.103379 C29.9258904,177.70973 32.9094065,178.762422 36.0607277,179.309445 C38.1217904,179.667548 39.5950615,178.591359 40.5762942,176.435222 M42.2230586,145.628023 C40.8389043,145.677838 40.0795155,146.669436 39.4282046,147.68923 C38.4877381,149.162058 37.5529599,150.659324 36.8267529,152.244 C36.121403,153.780741 35.0159757,155.185896 34.743885,157.271541 C36.0228057,157.17943 37.0448046,157.034685 38.0620632,157.055363 C38.9740882,157.073221 40.0539181,156.714178 40.8123589,158.047901 C39.9259313,158.158809 39.1551659,158.198285 38.4090498,158.358069 C36.8589866,158.688914 35.3089234,159.035739 33.7910939,159.488772 C33.4422112,159.593101 33.2213153,160.151403 32.60129,160.927763 C34.0461196,160.86291 34.9458199,160.76234 35.8407799,160.793357 C38.4972186,160.886408 41.187787,160.903326 43.4801741,162.548156 C43.9674723,162.8978 44.6567053,163.290679 43.9646281,164.176068 C40.1468271,161.314063 36.159325,161.622352 31.6181612,163.552912 C33.2137309,164.465558 34.4973918,164.224003 35.7592476,164.209904 C37.1927005,164.192986 38.6432184,164.218363 39.8377625,165.638557 C34.4044828,165.374444 34.4044828,165.374444 31.3868368,167.082248 C33.9930287,167.576637 36.3309223,167.820072 38.5379848,168.495862 C40.7848654,169.183871 42.900915,170.297656 45.0937567,171.233799 C45.2700942,171.094693 45.56399,170.976266 45.6739639,170.761028 C53.2318257,156.013011 61.209674,141.49715 69.3496391,127.070579 C69.4103143,126.962491 69.4008338,126.805527 69.3989377,126.672061 C69.3970416,126.541414 69.3629118,126.412647 69.3230936,126.147595 C68.4006401,124.856168 67.0980182,124.150301 65.3242149,124.125864 C64.7193585,124.944519 64.1220864,125.663545 63.6215155,126.445544 C61.4466868,129.845173 59.3363254,133.287098 57.1188344,136.658529 C56.5680168,137.495983 56.2949781,138.675561 55.0843171,138.940614 L55.156369,139.038364 C55.6000568,137.925519 55.9157578,136.737481 56.5101857,135.714867 C58.5409107,132.222188 60.6825577,128.795301 62.7502567,125.32424 C63.0650096,124.795074 63.2110095,124.16346 63.6717622,122.963204 C62.6677763,123.534665 62.1387639,123.67659 61.8515045,124.022474 C54.6216683,132.735375 48.7352203,142.337423 43.459317,152.370887 C44.3438485,149.423351 45.509003,146.613981 46.9680534,143.901421 C48.450805,141.144686 50.3194133,138.577811 51.6808144,135.00806 C50.8749711,135.744944 50.5052313,135.963001 50.3014003,136.288208 C47.9379094,140.03748 45.6038081,143.805551 43.2507458,147.562343 C42.900915,148.121586 42.6136556,148.881967 42.099812,149.1442 C40.6331772,149.890483 40.0747753,151.206347 39.491724,152.588944 C39.1826594,153.323009 38.7010495,153.9847 38.2971798,154.679288 C39.101127,151.341693 40.1544115,148.181739 42.3282923,145.578208 C41.876072,145.421245 41.7509293,145.245483 42.3026949,145.032125 C42.2761495,145.231384 42.249604,145.429704 42.2230586,145.628023 M52.4392551,132.307719 C53.1028908,132.231587 53.9049418,132.39513 54.0149157,131.363116 C55.8949007,128.961664 57.7872103,126.570551 59.6387537,124.147481 C59.8643898,123.852352 59.8738703,123.38898 60.2199089,122.169926 C57.5179638,125.093964 55.9432513,127.733211 54.2746817,130.296326 C54.0784351,130.598035 54.150487,131.078326 54.0964481,131.476844 C53.5655396,131.770094 53.0346311,132.063344 52.5425927,132.401709 C52.4544239,132.747593 52.3567747,133.091598 52.2856709,133.440302 C52.2705021,133.512674 52.3510864,133.604785 52.3880604,133.687496 C52.5369044,133.55591 52.827956,133.394246 52.808995,133.296497 C52.7435795,132.955312 52.5710342,132.635745 52.4392551,132.307719 M56.8353672,116.730707 C63.0432045,115.050161 68.2821338,116.626378 72.9787779,120.446144 C74.3487115,121.560868 74.4605815,122.367305 73.5115825,123.949162 C70.5991702,128.801881 67.5492904,133.572828 64.7203065,138.474422 C60.8133887,145.244543 56.9898995,152.067298 53.2621633,158.939869 C50.630374,163.790708 48.2555065,168.783472 45.6872366,173.671907 C44.5685365,175.799847 43.2602263,177.827218 42.0268121,179.893125 C41.4266959,180.896941 40.4729566,181.49096 39.3817501,181.495659 C34.5495346,181.518217 30.2671887,179.890305 26.5470369,176.820582 C25.6852587,176.109076 25.2975059,174.994351 25.5781289,173.888085 C26.0398297,172.073132 26.4427513,170.179228 27.2855686,168.534398 C33.9219249,155.574076 40.2947231,142.46243 48.5645711,130.425093 C51.1499059,126.661722 53.53615,122.759245 55.9783291,118.897184 C56.3281599,118.344521 56.4751078,117.661211 56.8353672,116.730707" id="Fill-9" fill="#FFFFFF"></path>
                <path d="M74.6244047,117.175845 C74.5134827,115.323297 75.4890271,114.264026 76.1147407,113.15588 C80.9573847,104.584905 85.8957819,96.0684449 90.7621271,87.5106286 C94.7600578,80.4810945 98.675508,73.4045653 102.678179,66.3778509 C103.944775,64.1521607 105.359267,62.0120017 106.731097,59.8483452 C111.998467,51.5424229 117.225072,43.2092434 122.570183,34.9550158 C125.128972,31.0027239 127.915294,27.1998766 130.620083,23.3453346 C130.747122,23.1639334 131.082732,23.1329166 131.580459,22.9223783 C131.583303,23.4750412 131.694225,23.9581513 131.56055,24.3594899 C131.395589,24.8557586 131.057135,25.3069121 130.742382,25.7402073 C119.987692,40.5925536 110.232249,56.1112911 100.939454,71.9195186 C93.9030198,83.8873028 87.2230531,96.0703247 80.3724373,108.150897 C78.9095948,110.730931 77.405986,113.287467 75.8872085,115.834604 C75.6407152,116.248161 75.2188326,116.555509 74.6244047,117.175845" id="Fill-11" fill="#FFFFFF"></path>
                <path d="M39.8486651,99.4508736 C42.1126107,99.8813492 43.7887647,100.105046 45.5009446,99.7976978 C46.3361774,99.6473133 46.923021,99.1717224 46.7883977,98.004363 C45.2004125,97.1471715 43.4853884,96.6762801 41.5608451,96.8116262 C41.0877677,97.5409908 40.6601967,98.1998628 39.8486651,99.4508736 L39.8486651,99.4508736 Z M52.4586902,112.834152 C50.499069,111.389521 48.1583313,110.850016 45.8972299,110.220282 C42.7108308,109.333013 39.4485876,108.720196 36.2214224,107.976733 C35.581488,107.829168 34.9548264,107.62333 34.1395026,107.393993 C34.2362038,106.827232 34.184061,106.26517 34.4201257,105.885449 C36.6916556,102.235806 38.9925752,98.604961 41.3446894,95.0079524 C41.5845463,94.6413903 42.2150002,94.5351812 42.6643763,94.3077247 L42.5923244,94.2109147 C43.1118563,94.5962749 43.5764013,95.12826 44.1585045,95.3444377 C48.2502922,96.8605011 48.9499538,97.6697575 51.9391583,93.7738599 C52.2747683,93.3358651 53.0047675,93.2070984 53.5517929,92.9345265 L53.4674163,92.8217382 C52.7620665,93.9308236 52.0064699,95.011712 51.3731719,96.1602734 C51.0745359,96.7016575 51.0100684,97.3736881 50.8394192,97.9865048 C49.8212126,98.0109423 49.809836,98.7591051 49.7785503,99.4931693 C49.5424856,99.6087773 49.307369,99.7253253 49.0713043,99.8418732 C49.1300835,99.9386832 49.1898107,100.034553 49.2485898,100.131363 C49.401226,99.8851088 49.5538622,99.6388542 49.7055504,99.3925996 C50.5057053,99.2215373 50.8488997,98.7168094 50.7673674,97.9028535 C52.3401838,97.8511588 52.3193267,95.7918315 53.9205847,95.4525265 C53.0806116,97.9564279 51.6007041,99.960301 50.3786665,102.090121 C48.7973176,102.436945 47.2851764,102.768731 45.5104251,103.158791 C45.3378798,102.692599 45.1245684,102.117378 44.8363609,101.340079 C43.0938434,101.259247 41.2631571,101.174656 39.2210554,101.079725 C38.7906403,101.703821 38.2976538,102.322277 37.9136932,103.004647 C37.5287846,103.689836 37.2538498,104.437999 36.8310191,105.383541 C37.6103169,105.639195 38.1848358,105.919286 38.7877962,106.009516 C42.6018049,106.581917 46.420554,107.126121 50.2411991,107.652467 C53.0227805,108.035947 55.6943879,108.738994 58.8172676,110.52105 C57.5942819,110.4327 57.0652695,110.443978 56.5571142,110.344349 C56.0385304,110.242839 55.5341673,110.054859 55.0364406,109.867818 C52.5250537,108.922276 49.9473033,108.409089 47.2918128,108.536915 C46.8708782,109.412905 47.5212411,109.543551 47.9535523,109.736232 C49.4088104,110.385704 50.8820815,110.993822 52.3695734,111.627316 C52.3961188,112.046513 52.4226642,112.442212 52.4482616,112.836971 L52.4586902,112.834152 Z" id="Fill-13" fill="#FFFFFF"></path>
                <path d="M85.2325254,61.5236282 C83.7270206,63.0039753 82.1608405,64.4260484 80.7311798,65.9778282 C78.5667796,68.3285255 76.4971844,70.7694534 74.4749919,73.0712757 C73.3449152,72.778026 73.100318,72.2319424 73.6738888,71.5749502 C75.0807964,69.9639566 76.526574,68.3849196 78.0225983,66.8594572 C79.9822195,64.8621634 82.0053602,62.9287831 83.9517087,61.0170205 C84.4949418,61.2388376 84.8618375,61.389222 85.2287332,61.5396065 L85.2325254,61.5236282 Z" id="Fill-15" fill="#FFFFFF"></path>
                <path d="M79.7694769,95.6265965 C78.6877508,98.0675245 77.6667,100.538529 76.4968052,102.935282 C75.9175461,104.121439 75.0984301,105.198568 74.3049115,106.260658 C74.1323663,106.491875 73.6024058,106.450519 73.028835,106.582105 C73.0297831,105.95237 72.8335365,105.321695 73.0610687,104.978631 C75.0424951,101.98786 77.0950253,99.0440836 79.1494516,96.1040672 C79.2831268,95.9132669 79.6139966,95.8625122 79.8529054,95.7469041 L79.7694769,95.6265965 Z" id="Fill-17" fill="#FFFFFF"></path>
                <path d="M70.7019389,62.6762311 C68.3318116,65.8972785 65.2383215,68.361704 62.2614417,70.9464371 C62.1912859,71.0075308 62.0073641,70.9342184 61.876533,70.9238794 L61.9391044,71.0037712 C62.1666366,70.5469784 62.2955715,69.9877361 62.6359218,69.6493711 C64.8638414,67.4368395 67.1183065,65.2515652 69.4173299,63.1161057 C69.7188101,62.8350747 70.3198744,62.8867694 70.778731,62.7805604 C70.7758868,62.7758608 70.7019389,62.6762311 70.7019389,62.6762311" id="Fill-19" fill="#FFFFFF"></path>
                <path d="M91.9502245,45.2573859 C90.4864339,47.1071149 87.1568792,49.7482421 84.4615704,51.1994523 C85.9196727,49.1335456 88.4670855,47.1127543 91.9502245,45.2573859" id="Fill-21" fill="#FFFFFF"></path>
                <path d="M42.6639971,94.3076307 C42.9455682,93.4579585 43.2271393,92.6082862 43.4925936,91.8056091 C46.7197588,92.2952985 46.7197588,92.2952985 48.4821855,93.9128715 C46.9937456,93.7512082 45.8617728,93.7201914 44.7753064,93.482396 C43.8471646,93.278437 43.2783341,93.8536576 42.5891011,94.2070611 C42.5919452,94.2108207 42.6639971,94.3076307 42.6639971,94.3076307" id="Fill-23" fill="#FFFFFF"></path>
                <path d="M74.5173697,59.1208603 C74.5420191,58.9902138 74.52211,58.8097524 74.5989021,58.7373799 C75.7422515,57.6677703 76.8600035,56.5643243 78.0640282,55.5680272 C79.1135205,54.697677 80.2635063,53.9513941 81.4419335,53.2690246 C79.5742732,55.8490581 77.0202241,57.8905273 74.4547984,59.0400286 L74.5173697,59.1208603 Z" id="Fill-25" fill="#FFFFFF"></path>
                <path d="M56.0471576,77.503294 C56.072755,77.2438808 56.0044954,76.9083355 56.1391186,76.7363332 C57.8285453,74.5745565 59.4601409,72.3460466 61.939294,71.0048051 L61.8776707,70.9249133 C60.5304904,73.6656703 58.2817136,75.5633344 55.9722616,77.4036643 L56.0471576,77.503294 Z" id="Fill-27" fill="#FFFFFF"></path>
                <path d="M61.5201607,113.505524 C60.464032,113.824151 59.8032405,114.161577 59.1329685,114.185074 C58.5044108,114.207632 57.8900738,113.232013 58.1346709,112.810936 C58.5755146,112.051494 59.3311112,111.664254 60.0990324,111.911449 C60.5654734,112.060893 60.8650575,112.736684 61.5201607,113.505524" id="Fill-29" fill="#FFFFFF"></path>
                <path d="M74.4550828,59.0401226 C73.8483302,60.9387266 72.2707735,61.8015575 70.6989051,62.6728475 C70.7017493,62.6766071 70.7756972,62.7752969 70.7785414,62.7799964 C71.5331899,60.8738733 71.9721375,60.4443376 74.5176541,59.1218942 L74.4550828,59.0401226 Z" id="Fill-31" fill="#FFFFFF"></path>
                <path d="M102.400969,38.7527876 C99.4591669,41.4719268 95.9523266,43.3131967 92.5364992,45.2935721 C92.4559149,45.3405673 92.290006,45.2343583 92.1639152,45.2005218 L92.2094216,45.2898125 C92.5194343,44.8837745 92.7526548,44.3593086 93.1517842,44.0904964 C95.7608203,42.3347577 98.3916616,40.6109757 101.055685,38.9435879 C101.404567,38.7245905 101.984774,38.8881336 102.456904,38.8693355 C102.455008,38.864636 102.400969,38.7527876 102.400969,38.7527876" id="Fill-33" fill="#FFFFFF"></path>
                <path d="M106.639325,35.8093875 C106.683884,35.6843804 106.69052,35.5029792 106.777741,35.4428254 C108.069934,34.5536772 109.34127,33.6288127 110.680866,32.8214361 C111.850761,32.1165089 113.099344,31.5488075 114.367836,31.0487791 C112.13328,33.3233442 109.299556,34.9634749 106.590027,35.7200967 L106.639325,35.8093875 Z" id="Fill-35" fill="#FFFFFF"></path>
                <path d="M106.541202,35.737485 C105.645294,37.5195409 103.950179,38.1295379 102.2617,38.7479941 C102.263596,38.7517537 102.321427,38.8617223 102.324272,38.8664218 C103.368076,37.0994043 103.868646,36.7422412 106.589553,35.8277156 L106.541202,35.737485 Z" id="Fill-37" fill="#FFFFFF"></path>
                <path d="M120.449867,28.3634764 C119.789076,28.7337982 119.129232,29.10318 118.451376,29.4838407 C117.795325,28.6134906 118.68744,28.5570964 118.933934,28.338099 C119.283764,28.0279311 119.810881,27.9236018 120.261205,27.7318616 C120.323776,27.9423999 120.387296,28.1529382 120.449867,28.3634764" id="Fill-39" fill="#FFFFFF"></path>
                <path d="M51.9366933,81.6820085 C51.3621745,83.3080406 50.701383,84.8457218 48.651697,84.9425318 L48.7398657,85.0393418 C49.7049815,83.8231074 50.3686172,82.2957651 52.0106413,81.7788185 L51.9366933,81.6820085 Z" id="Fill-41" fill="#FFFFFF"></path>
                <path d="M55.9719772,77.4039463 C55.6164581,78.4228011 55.0760691,79.2536753 53.9308236,79.469853 L53.9990833,79.5591437 C54.1763688,78.3570079 54.6797838,77.4885376 56.0459252,77.5016962 C56.0468732,77.503576 55.9719772,77.4039463 55.9719772,77.4039463" id="Fill-43" fill="#FFFFFF"></path>
                <path d="M52.4478824,112.837347 C53.2072712,112.759335 53.9666599,112.680383 54.7251007,112.602372 C54.7222565,112.755576 54.7184643,112.90878 54.7146721,113.061984 C53.967608,112.985852 53.2195958,112.90972 52.4649473,112.833588 C52.458311,112.834528 52.4478824,112.837347 52.4478824,112.837347" id="Fill-45" fill="#FFFFFF"></path>
                <path d="M52.0109257,81.7785365 C52.1825229,80.5857997 52.8139248,79.817899 53.9999365,79.5594257 L53.9307288,79.4701349 C53.804638,80.7051674 53.0338727,81.3443014 51.9360297,81.6807866 L52.0109257,81.7785365 Z" id="Fill-47" fill="#FFFFFF"></path>
                <path d="M89.0621771,56.9783515 C88.8536059,57.0281664 88.6459827,57.0779812 88.4374115,57.1277961 C88.4307752,57.0403851 88.3975934,56.8853011 88.4203466,56.876842 C88.6165931,56.7978902 88.8223202,56.7452556 89.0261511,56.6851018 C89.0384758,56.7828517 89.0498524,56.8806016 89.0621771,56.9783515" id="Fill-49" fill="#FFFFFF"></path>
                <path d="M87.4274529,85.0050354 C87.486232,85.2296722 87.5450112,85.454309 87.6037904,85.6789458 C87.3753101,85.7071429 87.1145961,85.812412 86.9287781,85.7362799 C86.8083757,85.686465 86.796999,85.3706576 86.7363238,85.173278 C86.9667002,85.1168838 87.1970765,85.0614295 87.4274529,85.0050354" id="Fill-51" fill="#FFFFFF"></path>
                <path d="M94.999251,43.4240112 C94.849459,43.3084031 94.700615,43.1927951 94.551771,43.0781269 C94.7650825,42.9737977 94.9727056,42.8478507 95.1964456,42.7782979 C95.2637572,42.75762 95.3775233,42.8939059 95.4694843,42.9578193 C95.3130559,43.1129033 95.1566275,43.2689272 94.999251,43.4240112" id="Fill-53" fill="#FFFFFF"></path>
                <path d="M90.342899,79.8160192 C90.5514702,79.5819834 90.7600414,79.3470076 90.9686126,79.1129718 C90.9505997,79.2295198 90.9705087,79.4137407 90.9079374,79.450397 C90.7078986,79.5669449 90.4765742,79.6280386 90.2575744,79.71169 L90.342899,79.8160192 Z" id="Fill-55" fill="#FFFFFF"></path>
                <path d="M90.2576692,79.71122 C90.1552798,80.3061786 90.0538383,80.9011372 89.9135268,81.7188527 C89.0346836,80.5853298 89.5390467,80.1501547 90.345838,79.8202488 C90.3429938,79.8155493 90.2576692,79.71122 90.2576692,79.71122" id="Fill-57" fill="#FFFFFF"></path>
                <path d="M48.6519814,84.9428138 C48.7136047,85.1608713 48.8415916,85.3892677 48.8112539,85.5941665 C48.793241,85.715414 48.5249426,85.8009452 48.3685142,85.9024547 C48.3533454,85.8009452 48.2888779,85.6684189 48.3296441,85.6026257 C48.4509946,85.4080657 48.6131113,85.2398231 48.7496306,85.0499627 C48.7392021,85.0386839 48.6519814,84.9428138 48.6519814,84.9428138" id="Fill-59" fill="#FFFFFF"></path>
                <path d="M79.8525262,95.7466221 C79.830721,95.5088267 79.7529808,95.2569327 79.8089158,95.0398151 C79.8373574,94.9307864 80.1084999,94.8837912 80.2696686,94.8095389 C80.2753569,94.9204475 80.3293958,95.0745915 80.278201,95.1347453 C80.1255648,95.3114471 79.9312144,95.4505527 79.7615133,95.6159756 C79.7690977,95.6263146 79.8525262,95.7466221 79.8525262,95.7466221" id="Fill-61" fill="#FFFFFF"></path>
                <path d="M53.5514136,92.9347145 C53.5296085,92.7044383 53.4509202,92.4591236 53.5087514,92.2504652 C53.539089,92.1404965 53.8054913,92.0963211 53.9657119,92.0220688 C53.968556,92.1310975 54.0169066,92.2805421 53.9657119,92.3416358 C53.8168679,92.5155178 53.6263097,92.6527436 53.4594527,92.8125271 C53.4670371,92.8219262 53.5514136,92.9347145 53.5514136,92.9347145" id="Fill-63" fill="#FFFFFF"></path>
                <path d="M92.0797283,53.6640658 C92.1072218,53.768395 92.1356633,53.8736641 92.1641048,53.9779934 C92.0588712,53.9535559 91.9526895,53.9281785 91.8474558,53.9028011 C91.925196,53.8229094 92.0019881,53.7439575 92.0797283,53.6640658" id="Fill-65" fill="#FFFFFF"></path>
                <path d="M85.2284488,61.5393245 C85.1326957,61.2921301 85.0208257,61.0486952 84.9487738,60.7939815 C84.9165401,60.6774335 84.915592,60.4593761 84.9791114,60.42084 C85.3298903,60.208422 85.3915136,60.3230901 85.2436176,60.7498061 C85.1649294,60.9753828 85.2246566,61.2488945 85.2275008,61.5120674 C85.232241,61.5233462 85.2284488,61.5393245 85.2284488,61.5393245" id="Fill-67" fill="#FFFFFF"></path>
                <path d="M42.2231534,145.627835 C42.2496988,145.429516 42.2762443,145.231196 42.3027897,145.032877 C41.7510241,145.245295 41.8761668,145.421057 42.3388156,145.576141 C42.3482961,145.574261 42.2231534,145.627835 42.2231534,145.627835" id="Fill-69" fill="#FFFFFF"></path>
                <path d="M56.3355547,34.5510455 C56.5972168,34.7963601 56.8475022,35.08773 57.160359,35.2738308 C57.2191382,35.3086072 57.531995,34.9213672 57.7282415,34.7286871 C57.4381379,34.4608148 57.1480344,34.1938824 56.8579308,33.92601 C56.7299439,34.0792142 56.601957,34.2333583 56.3355547,34.5510455 M59.9770182,39.000546 C60.1050051,38.8238442 60.23394,38.6471425 60.3619269,38.4704407 C59.8916937,37.9036793 59.4385253,37.3209394 58.9360584,36.783315 C58.8422013,36.6827453 58.5492536,36.7372597 58.3549031,36.7673366 C58.2695786,36.7804952 58.1226307,36.9346393 58.1377995,36.9816345 C58.2951759,37.470384 58.3729161,38.0446647 58.6914612,38.4046475 C58.9777726,38.7270342 59.5371226,38.8116255 59.9770182,39.000546 M50.5363274,35.0548334 C52.0807023,38.0644027 52.8694806,38.8482817 55.2898546,39.7421294 C54.2469986,38.2279458 53.2724023,36.7278607 52.2001567,35.2982683 C51.8133519,34.7822616 51.1895344,34.4673941 50.5363274,35.0548334 M61.779263,38.7082362 C63.0373266,38.2053881 63.9190139,37.8519846 64.9286881,37.4478263 C63.6184818,35.5783594 62.4021325,33.8442385 61.0928742,31.9757114 C60.2927192,32.3855091 59.5665122,32.7567708 58.5833834,33.2596188 C59.2043568,33.9871037 59.7731873,34.4655143 60.0869921,35.0736315 C60.4093295,35.7014867 60.400797,36.491945 60.6909006,37.1432978 C60.9487704,37.7203982 61.4180556,38.2035083 61.779263,38.7082362 M75.709923,20.533333 C74.182613,22.3398265 72.953939,24.135981 71.3811225,25.5608738 C69.7030724,27.0816368 67.7007889,28.2499362 65.7440119,29.6409925 C65.8862195,30.1927155 65.8482975,30.9155009 66.175375,31.1608156 C67.4353347,32.1044781 67.2324518,33.2915755 66.9973352,34.6130791 C65.4918303,33.6534382 65.5145836,31.7144184 64.312455,30.6645468 C63.4667936,30.5479988 62.7984177,30.9004624 63.0136253,31.6674232 C63.5653909,33.6233613 64.1901565,35.6056166 66.212349,36.8340697 C68.7142554,35.3847394 71.1810838,33.9767648 73.6223149,32.5264945 C74.1721844,32.1994083 74.8007421,31.8225072 75.1012743,31.3027409 C75.9137539,29.897586 76.6020389,28.4172389 77.2694667,26.9359518 C77.480882,26.4669403 77.6486871,25.8513038 77.5254404,25.3832322 C77.0931292,23.7440414 76.660818,22.082293 75.709923,20.533333 M69.6186959,13.7650919 C68.5796321,13.9239355 67.3424257,13.948373 66.2284659,14.3271539 C64.9040388,14.7773674 63.6848453,15.5302296 62.4210935,16.1552651 C56.806736,18.9307985 52.969974,23.4460922 49.9181982,28.7264669 C49.7551334,29.0074979 49.6252504,29.3120265 49.5181207,29.6193747 C48.8288877,31.5941108 49.5304454,32.7671097 51.6227937,33.1139339 C52.0475205,33.1834867 52.5158576,33.2549193 52.9187793,33.1524699 C54.609154,32.7201145 56.340295,32.3638913 57.9519815,31.7200578 C61.6171463,30.2575688 65.0348698,28.2969313 68.3189181,26.1285752 C70.6188896,24.610632 72.6097965,22.7937996 73.810977,20.2194054 C74.4452231,18.858426 74.50021,17.5012061 74.3153401,16.088532 C74.1911454,15.1382901 73.6175746,14.4559206 72.6998613,14.2265843 C71.7556026,13.9906686 70.7667856,13.928635 69.6186959,13.7650919 M55.4424908,36.7682765 C55.5543608,38.4084071 55.5543608,38.4084071 57.402112,38.7524116 C57.2551641,37.5408767 56.0663083,37.4459465 55.3315688,36.8669663 C54.9931147,36.1253829 54.6556085,35.3837995 54.2754401,34.5510455 C53.6004279,35.3725206 54.0573884,35.8857076 54.385414,36.414873 C54.6385436,36.8237308 54.98079,36.9731753 55.4424908,36.7682765 M56.0369187,41.7911178 C53.602324,41.2845101 51.7858584,39.5879853 50.2471718,37.5258383 C49.6593803,36.7391395 49.1844068,35.8556308 48.5217192,35.1394247 C46.7270588,33.199465 47.0342273,30.9709552 48.1093171,29.0638921 C51.2540019,23.4855681 55.3097637,18.6572867 60.9364458,15.3084125 C65.4178824,12.6419079 70.1287473,11.9398004 75.3022611,13.6156474 C76.0986238,16.146806 76.88361,18.7334189 77.7302194,21.2993539 C78.1701151,22.6321363 78.7304131,23.9254427 79.2167632,25.2441265 C79.8955677,27.0835166 80.0368273,28.8477144 78.4166083,30.3365207 C77.7728817,30.9277196 77.1983629,31.6176084 76.4816364,32.1025983 C73.0316792,34.4354374 69.5447479,36.7316203 65.6956613,38.3717509 C63.6867414,39.2270626 61.5526788,39.7900645 59.4840318,40.5081503 C58.3729161,40.8935105 57.2779173,41.3268058 56.0369187,41.7911178" id="Fill-71" fill="#FFFFFF"></path>
                <path d="M55.2372378,25.4452658 C56.0383408,25.0382878 56.4905611,24.7281198 56.99208,24.5786753 C57.3722484,24.464947 57.8130921,24.5561176 58.5724808,24.5561176 C57.7467285,25.5486551 57.1494564,26.265801 56.3948079,27.1737473 C55.9985226,26.5816084 55.7226398,26.1708708 55.2372378,25.4452658" id="Fill-73" fill="#FFFFFF"></path>
                <path d="M66.279471,21.0391888 C65.6547055,21.3427774 65.3987317,21.5175994 65.1171606,21.5833926 C64.975901,21.6153493 64.640291,21.4283086 64.6469274,21.3728543 C64.6801092,21.1134411 64.7398364,20.7224415 64.9085894,20.6510088 C65.1010438,20.5692373 65.4176928,20.7741361 66.279471,21.0391888" id="Fill-75" fill="#FFFFFF"></path>
                <path d="M71.852209,30.5380359 C70.8595997,29.2964241 70.305938,28.5670594 70.8140933,27.5472647 C70.8396907,27.4946301 71.0179242,27.4532744 71.0748073,27.4880508 C72.1574814,28.1572617 71.5279756,29.1300613 71.852209,30.5380359" id="Fill-77" fill="#FFFFFF"></path>
                <g id="Group-81" transform="translate(17.064916, 0.095050)">
                    <mask id="mask-2" fill="white">
                        <use xlink:href="#path-1"></use>
                    </mask>
                    <g id="Clip-80"></g>
                    <path d="M28.808328,11.4795986 C30.6115208,10.30378 31.0798579,9.26800694 30.7006376,7.36564339 C29.461535,8.5179644 29.1685873,9.62517006 28.808328,11.4795986 M27.9019913,11.9843264 C27.784433,11.0293851 27.6886798,10.2558449 27.5625891,9.23417044 C26.1158634,10.2304676 25.5622017,11.3574112 25.3754356,13.1864623 C26.4382007,12.6807945 27.1568233,12.3386699 27.9019913,11.9843264 M24.5752807,10.797229 C22.5910101,10.9410342 21.8562707,11.775668 21.7709461,13.1375874 C21.750089,13.4684332 22.0506211,14.0276754 22.3227117,14.1160263 C22.645049,14.2194156 23.3210093,14.0380144 23.4527884,13.7823608 C23.8822555,12.947727 24.134437,12.0228625 24.5752807,10.797229 M20.3867918,15.0944653 L20.3867918,11.9100741 C18.3968329,12.2850954 18.3854563,13.8500338 17.9920152,15.1226624 C17.9493529,15.2608281 18.1531839,15.4741861 18.2650539,15.6960032 C18.565586,15.6809647 18.901196,15.7232603 19.1969879,15.6330297 C19.6018056,15.5099024 19.9753377,15.2862055 20.3867918,15.0944653 M14.5534346,13.2315776 C11.7206585,13.4157986 8.90210317,13.5971999 6.08354783,13.7861204 C5.98115834,13.7926997 5.84558706,13.837815 5.79249621,13.9120674 C5.73845731,13.9872596 5.76784688,14.1207258 5.74414561,14.4666101 C8.95045376,16.8699419 12.5549433,17.091759 16.5945882,16.1274186 C16.8192762,15.0606288 17.0297435,14.0568124 17.2449511,13.034198 C15.4939011,12.8161405 16.0741082,14.4750692 15.1582911,15.000475 C14.9563562,14.4102159 14.7686421,13.8603727 14.5534346,13.2315776 M3.01944732,11.0030678 C3.3190314,11.2371036 3.61956354,11.65912 3.98551119,11.7249132 C5.59530162,12.0162831 7.2562868,12.5285302 8.83953181,12.3706266 C14.4159672,11.8170237 19.9649091,10.9842697 25.1365268,8.66082964 C26.6268628,7.99067885 28.0679002,7.18800173 29.4530026,6.32235113 C30.8153517,5.47173896 31.3064421,4.40212942 30.9442866,3.36917608 C30.503443,2.11346575 29.3629377,1.97905963 28.2518221,1.89728808 C23.8613983,1.57302156 19.4709746,1.59463933 15.0966678,2.10312682 C14.2519544,2.20181663 13.2877866,2.42645343 12.661125,2.93494092 C12.0164504,3.45940677 11.3746199,3.64644745 10.6285039,3.83348814 C7.37384511,4.64838399 4.30879654,7.53670573 3.01944732,11.0030678 M21.3869855,0.265616571 C23.7921906,0.399082789 26.2049802,0.451717354 28.5969126,0.701731536 C29.6568335,0.81170018 30.7252869,1.21397864 31.6979871,1.67453108 C32.64509,2.12380469 33.1181674,3.02987112 33.055596,4.10042057 C32.9674273,5.61836382 32.8271157,7.13348736 32.701025,8.64861091 C32.5455446,10.5161981 31.7216884,11.8752977 29.9715864,12.7954627 C27.1587194,14.27393 24.3098264,15.6377292 21.32157,16.7449348 C18.7153781,17.7102152 15.957498,18.1200128 13.2849425,18.1933253 C10.2786731,18.2760367 7.14631289,17.8887967 4.57519885,15.8379285 C3.64326481,15.0944653 2.51698034,14.5963167 1.5310074,13.9130073 C0.472982595,13.179883 0.20468419,12.2850954 0.617086332,11.0641615 C1.14609874,9.49734326 1.96142251,8.08842875 3.17777182,6.94174716 C5.41517195,4.83072516 7.84313031,2.97441685 10.7024518,1.75724254 C12.5293459,0.979002904 14.4482009,0.535368715 16.4514325,0.527849492 C18.0944047,0.521270171 19.7373769,0.525969686 21.3803491,0.525969686 C21.3831933,0.439498615 21.3850894,0.352087642 21.3869855,0.265616571" id="Fill-79" fill="#FFFFFF" mask="url(#mask-2)"></path>
                </g>
                <path d="M29.3404689,8.98474556 C28.0861976,10.0064201 27.2120947,9.56748538 26.4934721,8.93775041 C26.0090181,8.51385419 25.8601741,7.85028271 26.7238484,7.18295162 C27.4860814,7.70835737 28.3070934,8.27323903 29.3404689,8.98474556" id="Fill-82" fill="#FFFFFF"></path>
                <path d="M37.0920175,6.12302307 C36.8246672,7.08266398 36.2956548,7.25372631 35.5874607,6.9614165 C35.4272401,6.89562329 35.257539,6.66628697 35.2404741,6.49804435 C35.2253053,6.35329929 35.4168116,6.05722987 35.5267855,6.05253035 C36.0330447,6.03279239 36.542148,6.09012647 37.0920175,6.12302307" id="Fill-84" fill="#FFFFFF"></path>
                <g id="Group-88" transform="translate(0.000000, 35.450319)">
                    <mask id="mask-4" fill="white">
                        <use xlink:href="#path-3"></use>
                    </mask>
                    <g id="Clip-87"></g>
                    <path d="M7.8355459,9.13588195 C7.81563683,15.4031548 9.0386225,21.4758677 11.0352177,27.3906769 C11.8685544,29.8598019 12.847891,32.3129486 14.0661364,34.6147709 C16.0475628,38.3584043 16.3812767,38.390361 20.6607785,39.126305 C22.123621,39.378199 23.2489575,39.0323147 24.2671641,38.0820728 C24.9753582,37.4213211 25.4721368,36.5650695 26.4912916,36.1975674 C26.9122262,36.0462431 27.2298232,35.4202677 27.448823,34.9437369 C29.3695741,30.769628 29.9469371,26.3896802 29.3032105,21.8621678 C28.6727567,17.4239461 27.3492776,13.1586665 25.8760065,8.93474272 C25.3232928,7.34818656 24.4709951,5.8922769 23.1351914,4.92981629 C19.720312,2.4719701 15.9300045,1.21907948 11.656191,2.17026125 C9.45292074,2.66089059 8.03842879,4.28880248 7.84787056,6.52295178 C7.77392259,7.38766248 7.8355459,8.26459193 7.8355459,9.13588195 L7.8355459,9.13588195 Z M7.33402697,33.8995048 C6.92257288,34.6702252 7.52837741,35.0837825 7.96353277,35.5029792 C8.34464923,35.8704812 8.82815519,36.1327141 9.26615471,36.4410023 L9.17893403,36.3573509 C10.3109068,38.1177892 12.0866061,38.9336249 13.9912404,39.5248239 C14.3040972,39.6225738 14.7060708,39.4402326 15.3099792,39.3518817 C14.7022786,38.3508851 14.2007597,37.6393786 13.815851,36.8705379 C12.7464496,34.7360184 11.4030614,32.6682319 10.7517505,30.4096451 C9.27942742,25.3031524 7.60042928,20.2342559 7.05340391,14.8927875 C6.76424838,12.0740185 6.39735268,9.2796871 6.6751316,6.44118022 C6.71115753,6.06991856 6.54714472,5.67985884 6.47604091,5.29825824 C6.18024903,5.35183271 5.98969079,5.3471332 5.97641808,5.39412834 C5.08999049,8.38019999 5.61236654,11.4668412 5.32321101,14.539384 C4.94967895,13.9660432 4.71740648,13.3729644 4.59984817,12.7582679 C4.43773147,11.9057759 4.41118604,11.0250869 4.22157586,10.1801141 C4.1571084,9.89062401 3.77788804,9.66974682 3.22327826,9.07572816 C3.10761605,11.5222955 2.90947341,13.4631951 3.45270658,15.3871764 C4.04239424,17.4756408 4.65483512,19.5584657 5.26443185,21.6412906 C5.6227951,22.8631644 6.30349564,24.0145455 6.15275555,25.8022409 C5.66830154,24.9958042 5.31941881,24.5803671 5.14782159,24.1028964 C4.26803036,21.6459901 3.43943387,19.1702858 2.57860365,16.7068001 C2.43544796,16.2970025 2.66961654,15.6033541 1.80120191,15.6221522 C1.75000716,15.9567576 1.66373453,16.272565 1.65709817,16.5893123 C1.5329035,22.9120394 4.10022535,28.3954331 7.11502721,33.7378414 C7.16337781,33.8243125 7.28567638,33.8703678 7.37384511,33.9342812 L7.33402697,33.8995048 Z M30.7717414,25.8699139 C30.9404944,29.7968284 29.759223,33.3872576 28.027134,36.8385812 C26.9482521,38.9871994 25.3962928,40.5455584 22.8450878,40.8726447 C22.0904393,40.9694547 21.3462193,41.198791 20.6162201,41.4253076 C17.614691,42.3567514 14.7563175,41.9243961 12.0448919,40.4769455 C8.5712334,38.6234569 5.77827544,36.1580915 4.49840673,32.2650135 C3.7864205,30.0975974 2.82225273,28.0119527 1.98322768,25.8858923 C0.480567002,22.0774056 -0.132821931,18.0715392 0.0236064675,14.0440551 C0.221749106,8.94696146 2.53878551,4.92887639 7.17949468,2.35260242 C12.5321901,-0.618430773 17.6952753,-0.172916779 22.7123607,3.0490705 C24.4994366,4.1976319 25.8390325,5.86407981 26.5254214,7.85009473 C28.2281208,12.7808256 30.075872,17.686179 30.5631702,22.9392966 C30.653235,23.9139759 30.7034817,24.8933548 30.7717414,25.8699139 L30.7717414,25.8699139 Z" id="Fill-86" fill="#FFFFFF" mask="url(#mask-4)"></path>
                </g>
                <path d="M19.8568313,50.0372623 C21.1499728,48.8144486 20.9632067,47.4920051 20.4313502,46.1705016 C20.3194802,45.8932302 19.8492469,45.7588241 19.4150396,45.4730936 C18.7921702,47.2203732 19.1031309,48.5898118 19.8568313,50.0372623 M19.2330138,43.8433019 C21.358544,44.2916356 22.0013225,45.7785621 21.843946,47.6828054 C21.7662059,48.6255281 21.4874789,49.5842291 21.1196351,50.4611585 C20.745155,51.3540663 19.2093126,51.4160999 18.6262613,50.6228218 C17.8801452,49.6086666 17.7815479,48.4206292 17.894366,47.2307121 C18.0119243,45.99192 17.7682752,44.5773661 19.2330138,43.8433019" id="Fill-89" fill="#FFFFFF"></path>
                <path d="M15.5387439,50.0567183 C14.6039657,49.6751177 14.0209144,49.4373222 13.1581881,49.0857985 C13.1174219,49.8865959 12.8993702,50.5370087 13.0946687,51.0238784 C13.7355511,52.6198336 15.1263418,53.4789049 16.639431,54.1659739 C17.1930927,54.416928 17.906027,54.4141083 18.445468,55.2628407 C17.7031441,55.3107757 17.1504304,55.4808982 16.6801972,55.3540113 C14.6077579,54.7928892 12.9372922,53.6020322 11.8830596,51.7438441 C11.5436574,51.1460658 11.5142678,50.3039128 11.5559821,49.584887 C11.6033846,48.7756306 12.1722151,48.2351864 12.9827987,48.0020905 C14.0247066,47.7032013 14.8428745,47.9522756 15.5188348,48.8790199 C15.6572503,49.0688803 15.5387439,49.4439016 15.5387439,50.0567183" id="Fill-91" fill="#FFFFFF"></path>
                <path d="M18.5503224,62.590042 C18.4640498,62.7347871 18.3635564,62.8738927 18.3028811,63.0289767 C18.2915045,63.0590536 18.4773225,63.2141376 18.4981796,63.2009789 C18.6337509,63.113568 18.748465,62.9951402 18.8688675,62.8870514 C18.7636338,62.7883616 18.6574521,62.6887318 18.5503224,62.590042 M18.3085694,60.7515919 C19.1798282,61.3644086 19.7012562,61.7243914 20.2113076,62.0994127 C20.2833594,62.1520473 20.2985283,62.2798741 20.4208268,62.5580853 C19.9828273,63.268652 19.5362953,64.1155045 18.9693609,64.8749461 C18.4223355,65.6080704 17.3292328,65.495282 16.7604023,64.720802 C16.2020003,63.9623003 16.0304031,63.1276665 16.6267271,62.3541264 C17.0609344,61.7892447 17.6648428,61.3531298 18.3085694,60.7515919" id="Fill-93" fill="#FFFFFF"></path>
                <path d="M23.4381884,58.0168503 C23.7813829,58.0168503 24.0202917,57.9529369 24.194733,58.0309488 C24.4800964,58.1587756 24.771148,58.3373572 24.9749789,58.5685733 C25.9429389,59.6569809 26.223562,60.798963 25.6433548,61.4005009 C25.4670174,61.5837819 25.0185893,61.7106688 24.7986415,61.6185584 C23.485591,61.0715348 22.6787997,59.7556707 22.9499422,58.629667 C23.0125136,58.3693139 23.3139938,58.1662949 23.4381884,58.0168503" id="Fill-95" fill="#FFFFFF"></path>
                <path d="M7.37422433,69.3849764 C7.24813356,68.9732989 7.04619872,68.565381 7.0253416,68.149004 C7.01206889,67.8942903 7.21115958,67.5117498 7.43110739,67.3867427 C7.90323673,67.1179305 8.29478176,67.4412571 8.46732702,67.849175 C8.56497626,68.0794512 8.50619711,68.5061671 8.34123625,68.6847487 C8.0776781,68.9704792 7.66812011,69.1236833 7.32682179,69.3417408 C7.33345814,69.3502 7.37422433,69.3849764 7.37422433,69.3849764" id="Fill-97" fill="#FFFFFF"></path>
                <path d="M9.26653393,71.8913215 C9.20775478,71.4946825 9.09019646,71.092404 9.12717045,70.7042241 C9.13759901,70.5998949 9.61541666,70.5397411 9.87897481,70.4589095 C9.89698778,70.7202025 10.0211825,71.0454089 9.90836439,71.2268102 C9.75478015,71.4730647 9.42106623,71.6102906 9.17172884,71.8010909 C9.17931325,71.8076702 9.26653393,71.8913215 9.26653393,71.8913215" id="Fill-99" fill="#FFFFFF"></path>
                <path d="M18.5512704,62.590042 C18.6574521,62.6887318 18.7636338,62.7883616 18.8688675,62.8870514 C18.748465,62.9951402 18.6337509,63.113568 18.4981796,63.2009789 C18.4773225,63.2141376 18.2915045,63.0590536 18.3028811,63.0289767 C18.3635564,62.8738927 18.4640498,62.7347871 18.5512704,62.590042" id="Fill-101" fill="#FFFFFF"></path>
            </g>
        </g>
    </g>
</svg>