<?xml version="1.0" encoding="UTF-8"?>
<svg width="136px" height="111px" viewBox="0 0 136 111" version="1.1" xmlns="http://www.w3.org/2000/svg" xmlns:xlink="http://www.w3.org/1999/xlink">
    <!-- Generator: Sketch 41.1 (35376) - http://www.bohemiancoding.com/sketch -->
    <title>“ copy</title>
    <desc>Created with Sketch.</desc>
    <defs></defs>
    <g id="About-Us-4" stroke="none" stroke-width="1" fill="none" fill-rule="evenodd" opacity="0.352845149">
        <g id="About_Us_L" transform="translate(-1026.000000, -3572.000000)" fill="#8D757A">
            <path d="M1126.23,3598.02125 C1119.66219,3606.23101 1116.37834,3614.54774 1116.37834,3622.97167 C1116.37834,3626.54113 1116.80666,3629.61082 1117.66334,3632.18083 C1122.66058,3628.32582 1128.08608,3626.39833 1133.94,3626.39833 C1141.9356,3626.39833 1148.61039,3628.93261 1153.96459,3634.00125 C1159.31878,3639.06989 1161.99584,3645.88746 1161.99584,3654.45417 C1161.99584,3662.44976 1159.28309,3669.12456 1153.8575,3674.47875 C1148.43192,3679.83295 1141.79282,3682.51 1133.94,3682.51 C1122.6605,3682.51 1114.02253,3677.86977 1108.02583,3668.58917 C1103.02859,3660.87913 1100.53,3651.24173 1100.53,3639.67667 C1100.53,3624.97048 1104.27788,3611.79936 1111.77375,3600.16292 C1119.26962,3588.52647 1130.58465,3579.13892 1145.71917,3572 L1149.78834,3579.92417 C1140.65051,3583.77919 1132.79781,3589.81149 1126.23,3598.02125 L1126.23,3598.02125 Z M1051.7,3598.02125 C1045.13219,3606.23101 1041.84833,3614.54774 1041.84833,3622.97167 C1041.84833,3626.54113 1042.27666,3629.61082 1043.13333,3632.18083 C1047.9878,3628.32582 1053.4133,3626.39833 1059.41,3626.39833 C1067.26282,3626.39833 1073.90192,3628.93261 1079.3275,3634.00125 C1084.75308,3639.06989 1087.46583,3645.88746 1087.46583,3654.45417 C1087.46583,3659.73697 1086.18085,3664.51998 1083.61083,3668.80334 C1081.04082,3673.08669 1077.61419,3676.44193 1073.33083,3678.86917 C1069.04748,3681.2964 1064.40725,3682.51 1059.41,3682.51 C1048.1305,3682.51 1039.49253,3677.86977 1033.49583,3668.58917 C1028.49859,3660.87913 1026,3651.24173 1026,3639.67667 C1026,3624.97048 1029.74788,3611.79936 1037.24375,3600.16292 C1044.73962,3588.52647 1056.05465,3579.13892 1071.18917,3572 L1075.25833,3579.92417 C1066.12051,3583.77919 1058.26781,3589.81149 1051.7,3598.02125 L1051.7,3598.02125 Z" id="“-copy" transform="translate(1093.997918, 3627.255001) rotate(-180.000000) translate(-1093.997918, -3627.255001) "></path>
        </g>
    </g>
</svg>