<?xml version="1.0" encoding="UTF-8"?>
<svg width="136px" height="111px" viewBox="0 0 136 111" version="1.1" xmlns="http://www.w3.org/2000/svg" xmlns:xlink="http://www.w3.org/1999/xlink">
    <!-- Generator: Sketch 41.1 (35376) - http://www.bohemiancoding.com/sketch -->
    <title>“ copy 2</title>
    <desc>Created with Sketch.</desc>
    <defs></defs>
    <g id="About-Us-4" stroke="none" stroke-width="1" fill="none" fill-rule="evenodd" opacity="0.352845149">
        <g id="About_Us_L" transform="translate(-276.000000, -3456.000000)" fill="#8D757A">
            <path d="M376.230002,3482.02125 C369.662191,3490.23101 366.378335,3498.54774 366.378335,3506.97167 C366.378335,3510.54113 366.806664,3513.61082 367.663335,3516.18083 C372.660582,3512.32582 378.086084,3510.39833 383.940002,3510.39833 C391.935598,3510.39833 398.610392,3512.93261 403.964586,3518.00125 C409.318779,3523.06989 411.995836,3529.88746 411.995836,3538.45417 C411.995836,3546.44976 409.283085,3553.12456 403.857502,3558.47875 C398.43192,3563.83295 391.792819,3566.51 383.940002,3566.51 C372.660501,3566.51 364.022532,3561.86977 358.025835,3552.58917 C353.028588,3544.87913 350.530001,3535.24173 350.530001,3523.67667 C350.530001,3508.97048 354.277881,3495.79936 361.773752,3484.16292 C369.269623,3472.52647 380.584649,3463.13892 395.719169,3456 L399.788336,3463.92417 C390.650512,3467.77919 382.797813,3473.81149 376.230002,3482.02125 L376.230002,3482.02125 Z M301.7,3482.02125 C295.13219,3490.23101 291.848334,3498.54774 291.848334,3506.97167 C291.848334,3510.54113 292.276663,3513.61082 293.133334,3516.18083 C297.987802,3512.32582 303.413304,3510.39833 309.410001,3510.39833 C317.262818,3510.39833 323.901918,3512.93261 329.327501,3518.00125 C334.753084,3523.06989 337.465835,3529.88746 337.465835,3538.45417 C337.465835,3543.73697 336.180847,3548.51998 333.610834,3552.80334 C331.040822,3557.08669 327.614189,3560.44193 323.330834,3562.86917 C319.047479,3565.2964 314.407248,3566.51 309.410001,3566.51 C298.1305,3566.51 289.49253,3561.86977 283.495833,3552.58917 C278.498586,3544.87913 276,3535.24173 276,3523.67667 C276,3508.97048 279.747879,3495.79936 287.24375,3484.16292 C294.739621,3472.52647 306.054647,3463.13892 321.189168,3456 L325.258334,3463.92417 C316.120511,3467.77919 308.267811,3473.81149 301.7,3482.02125 L301.7,3482.02125 Z" id="“-copy-2"></path>
        </g>
    </g>
</svg>