<?xml version="1.0" encoding="UTF-8" standalone="no"?>
<svg width="208px" height="102px" viewBox="0 0 208 102" version="1.1" xmlns="http://www.w3.org/2000/svg" xmlns:xlink="http://www.w3.org/1999/xlink">
    <!-- Generator: Sketch 41 (35326) - http://www.bohemiancoding.com/sketch -->
    <title>Group</title>
    <desc>Created with Sketch.</desc>
    <defs></defs>
    <g id="About-Us-4" stroke="none" stroke-width="1" fill="none" fill-rule="evenodd">
        <g id="About_Us_L" transform="translate(-619.000000, -356.000000)" fill="#FFFFFF">
            <g id="Group" transform="translate(619.000000, 356.000000)">
                <path d="M21.1862155,12.8554703 L21.5229667,12.8554703 C21.6071545,13.1086813 21.7755301,13.3618923 21.7755301,13.6151033 C22.1122813,14.712351 22.3648447,15.8095986 22.5332203,16.99125 C22.7015959,18.1729013 24.1327885,18.6793233 25.0588543,18.5949196 C25.9849201,18.510516 26.5742347,17.4132683 26.3216713,16.3160206 C25.9849201,15.0499656 25.5639811,13.8683143 25.2272299,12.6022593 C24.8904787,11.3362043 24.3011641,10.2389566 23.2909105,9.39491998 C22.8699715,8.97290165 22.4490325,8.46647965 22.0280935,8.04446131 C21.7755301,7.79125031 21.5229667,7.53803932 21.2704033,7.45363565 C20.0917741,7.45363565 18.8289571,7.36923198 17.6503279,7.53803932 C16.8926377,7.62244298 16.1349475,8.12886498 15.3772573,8.55088331 C14.1986281,9.22611265 12.9358111,9.90134198 12.0097453,10.8297823 C10.6627405,12.0958373 9.14736005,13.3618923 8.30548204,15.1343693 C7.88454304,16.231617 6.95847724,17.1600573 6.45335043,18.1729013 C5.35890903,20.3673966 4.43284322,22.6462956 3.42258962,24.9251946 C2.24396041,27.879323 1.23370681,30.8334513 0.728580007,33.9563869 C0.560204406,35.0536346 0.307641005,36.1508823 0.223453205,37.2481299 C0.139265404,38.6829923 0.139265404,40.1178546 0.223453205,41.5527169 C0.307641005,43.4095976 0.391828806,45.2664783 0.560204406,47.0389553 C0.728580007,48.9802396 1.65464581,50.6683129 2.66489942,52.3563863 C4.51703102,55.3949182 6.62172603,58.1802392 10.1576137,59.2774869 C12.0939331,59.8683126 14.0302525,60.4591382 16.0507597,60.7123492 C17.9028913,60.9655602 19.9233985,60.7123492 21.5229667,59.5306979 C21.6071545,59.4462942 21.7755301,59.4462942 22.0280935,59.4462942 C21.9439057,59.9527162 21.8597179,60.4591382 21.7755301,60.9655602 C21.5229667,62.9912482 21.1862155,65.1013399 21.0178399,67.1270279 C20.9336521,68.0554682 20.6810887,68.8151012 19.9233985,69.4059269 C16.6400743,71.9380369 13.1041867,74.1325322 10.1576137,77.1710642 C8.30548204,79.0279449 6.36916263,80.8848255 5.27472123,83.4169355 C3.84352862,86.7086785 3.17002622,90.0848252 3.67515302,93.6297792 C3.84352862,94.7270269 4.26446762,95.9086782 4.76959443,97.0059259 C5.27472123,98.0187699 6.03241143,98.8628065 6.70591384,99.7068432 C6.87428944,99.9600542 7.21104064,100.044458 7.46360404,100.128862 C8.38966984,100.55088 9.23154785,101.057302 10.1576137,101.394917 C10.9994917,101.648128 11.8413697,101.901339 12.5990599,101.901339 C13.7776891,101.816935 15.0405061,101.563724 16.1349475,101.310513 C16.4716987,101.226109 16.8084499,100.888495 16.8926377,100.55088 C17.4819523,99.5380359 17.9870791,98.4407882 18.4922059,97.3435405 C18.7447693,96.8371185 19.0815205,96.2462929 19.0815205,95.5710635 C19.2498961,94.5582195 19.5866473,93.7141829 20.5127131,93.2077609 C20.8494643,93.0389535 21.1020277,92.7013389 21.3545911,92.3637242 C21.6913423,91.9417059 21.9439057,91.5196875 22.2806569,91.1820729 C22.5332203,90.7600545 22.7857837,90.3380362 23.1225349,90.0004215 C23.4592861,89.4095959 23.7960373,88.8187702 24.2169763,88.2279445 C24.8904787,87.4683115 25.7323567,86.8774859 26.2374835,86.1178529 C26.7426103,85.4426235 26.8267981,84.5985869 27.0793615,83.8389539 C27.8370517,81.8132659 28.6789297,79.7031742 29.4366199,77.5930826 C29.6049955,77.2554679 29.6891833,76.8334496 29.7733711,76.4958349 C30.1101223,75.3985872 30.6994369,74.2169359 30.7836247,73.1196882 C30.9520003,71.1784039 30.8678125,69.1527159 30.8678125,67.2114316 C30.7836247,66.0297802 30.7836247,64.3417069 31.8780662,63.6664776 C32.804132,63.0756519 32.5515686,62.6536336 33.4776344,61.8940006 C34.066949,61.3031749 35.0772026,60.1215236 35.5823294,59.5306979 C37.3502732,57.2517989 36.592583,57.8426246 38.5289024,55.2261109 C39.2024048,54.2976706 39.4549682,53.7068449 40.1284706,52.7784046 C41.8122266,50.3306983 42.06479,47.7985883 43.6643582,45.5196893 C44.7587996,44.0848269 45.853241,42.8187719 44.8429874,42.5655609 C44.590424,42.4811573 44.4220484,42.3967536 44.169485,42.3967536 C44.0011094,42.4811573 43.748546,42.5655609 43.6643582,42.6499646 C43.0750436,43.5784049 42.7382924,44.7600563 42.2331656,45.6884966 C40.381034,48.8114323 40.6335974,49.5710653 38.5289024,52.6940009 C37.0977098,54.8040926 36.0032684,56.2389549 34.3195124,58.4334502 C33.8143856,59.1086796 33.225071,60.1215236 32.2990052,60.7967529 C32.383193,59.6995052 32.5515686,58.9398722 32.6357564,58.0958356 C32.804132,56.9141842 32.8883198,55.6481292 33.0566954,54.3820743 C33.0566954,54.0444596 32.9725076,53.6224413 32.9725076,53.2848266 C32.8883198,52.6095973 32.6357564,52.0187716 32.6357564,51.4279459 C32.5515686,50.6683129 32.5515686,49.9086799 32.6357564,49.1490469 L32.6357564,45.5196893 C32.6357564,44.8444599 32.804132,44.0848269 32.6357564,43.4095976 C32.4673808,42.3967536 31.962254,41.3839096 31.7938784,40.3710656 C31.541315,38.6829923 30.4468735,37.6701483 29.2682443,36.5729006 C29.1840565,36.4884969 28.9314931,36.4040933 28.7631175,36.4884969 C28.3421785,36.8261116 27.8370517,37.1637263 27.5844883,37.6701483 C25.8165445,40.1178546 25.4797933,43.0719829 24.6379153,45.8573039 C24.2169763,47.3765699 24.1327885,48.9802396 23.2067227,50.4151019 C21.6913423,52.7784046 20.1759619,54.9728999 17.7345157,56.4077622 C15.7981963,57.5894136 13.9460647,57.7582209 11.8413697,57.1673952 C11.5888063,57.0829916 11.3362429,56.7453769 11.1678673,56.4921659 C10.9994917,56.1545512 10.9153039,55.9013402 10.7469283,55.5637256 C9.82086245,53.7912486 9.23154785,51.9343679 9.39992345,49.8242763 C9.56829905,48.3050103 9.48411125,46.8701479 9.65248685,45.3508819 C9.82086245,44.0004233 10.0734259,42.7343683 10.4101771,41.4683133 C10.7469283,40.2022583 11.1678673,39.0206069 11.5888063,37.7545519 C12.0939331,36.3196896 12.5990599,34.8848273 13.1041867,33.5343686 C13.2725623,33.1123503 13.4409379,32.7747356 13.6093135,32.3527173 C13.8618769,31.5086806 14.1144403,30.664644 14.5353793,29.905011 C14.8721305,28.9765706 15.6298207,28.132534 15.7140085,27.2884973 C15.9665719,25.1784056 17.0610133,23.574736 18.1554547,21.8866626 C18.4922059,21.3802406 18.9131449,20.9582223 19.2498961,20.4518003 C19.6708351,19.776571 20.1759619,19.1013416 20.3443375,18.3417086 C20.7652765,16.5692316 20.9336521,14.712351 21.1862155,12.8554703 L21.1862155,12.8554703 Z M20.0917741,73.5417066 C19.5866473,77.5086789 19.0815205,81.3068439 18.6605815,85.1894125 C18.4080181,87.2151005 17.8187035,89.0719812 17.3135767,91.0132655 C16.7242621,93.3765682 15.6298207,95.4022562 14.2828159,97.4279442 C13.4409379,98.7784029 11.3362429,98.6939992 10.4943649,97.2591369 C9.90505025,96.2462929 9.39992345,95.1490452 8.81060885,94.1362012 C8.38966984,93.5453755 7.88454304,93.0389535 7.37941624,92.4481279 C7.21104064,92.2793205 6.95847724,92.0261095 6.95847724,91.7728985 C6.95847724,89.6628069 6.45335043,87.4683115 8.05291864,85.6114309 C8.72642104,84.6829905 9.06317225,83.3325319 9.82086245,82.4040915 C11.0836795,80.8848255 12.5990599,79.3655596 14.1144403,78.0151009 C15.8823841,76.4114312 17.8187035,75.0609726 19.6708351,73.6261102 C19.8392107,73.5417066 19.9233985,73.5417066 20.0917741,73.5417066 L20.0917741,73.5417066 Z" id="Gourmet"></path>
                <path d="M156.684575,79.1924396 C155.505946,78.1795956 155.842697,78.9392286 153.82219,78.1795956 C152.980312,77.9263846 151.633307,77.9263846 150.791429,77.5887699 C150.538866,77.2511552 150.202114,77.9263846 149.865363,77.9263846 C149.191861,77.9263846 148.265795,77.2511552 147.339729,77.2511552 C146.91879,76.9979442 146.750415,77.9263846 146.076912,77.5887699 C145.655973,77.2511552 144.898283,75.9851002 144.140593,75.9851002 C143.130339,75.9851002 142.288461,75.6474856 141.025644,75.6474856 C140.015391,75.3098709 139.2577,75.3098709 137.994883,75.1410636 C136.98463,75.1410636 135.721813,74.8034489 134.795747,74.4658342 L131.596611,74.4658342 C130.333794,74.1282196 129.407728,74.1282196 128.144911,74.1282196 C127.134657,74.1282196 126.292779,74.1282196 125.029962,73.7062012 C124.188084,73.7062012 122.841079,73.4529902 121.915014,73.4529902 C120.652197,73.1997792 119.726131,73.1997792 118.631689,72.7777609 L115.17999,72.7777609 L112.149229,72.7777609 L109.03428,72.7777609 L105.498392,72.7777609 C104.572327,72.7777609 103.646261,72.4401462 102.383444,72.4401462 C101.541566,72.4401462 100.278749,72.7777609 99.2684952,72.7777609 L95.9009832,72.7777609 C94.8065418,72.7777609 93.9646638,72.7777609 92.617659,73.1997792 C91.6915932,73.1997792 90.4287762,73.4529902 89.5027104,73.4529902 C88.5766446,73.7062012 87.3980154,73.1997792 86.3877618,73.4529902 C85.1249448,73.4529902 72.8335259,74.8034489 54.3122098,79.4456506 C53.386144,79.7832652 52.3758904,80.5428982 51.5340124,80.7961092 C50.6079466,80.9649166 49.597693,80.9649166 48.6716272,82.0621642 C47.9981248,82.6529899 47.072059,83.2438155 46.7353078,84.1722559 C46.1459932,85.1006962 45.809242,86.4511549 45.809242,87.0419805 C46.1459932,88.3924392 46.7353078,88.6456502 47.9981248,88.6456502 C49.0083784,88.6456502 49.597693,88.6456502 50.7763222,87.9704209 C51.5340124,87.7172099 52.6284538,87.7172099 53.9754586,87.3795952 C54.9857122,87.0419805 55.911778,86.6199622 57.174595,86.4511549 C58.1006608,86.1135402 59.0267266,85.8603292 60.2895436,85.4383109 C61.2156094,85.1006962 62.1416753,84.8474852 63.2361167,84.5098705 C64.0779947,84.1722559 65.3408117,83.8346412 66.2668775,83.5814302 C67.1929433,83.5814302 68.5399481,83.5814302 69.3818261,83.2438155 C70.3920797,82.9062009 71.5707089,82.3997789 72.4967747,82.3997789 C73.4228405,82.0621642 74.7698453,82.0621642 75.6959111,81.7245495 C76.7061647,81.3869349 80.9155547,80.7961092 81.9258083,80.7961092 C93.5437248,77.9263846 109.286843,76.6603296 110.54966,76.6603296 C111.475726,76.6603296 112.822731,76.3227149 113.748797,76.3227149 C114.590675,76.3227149 118.968441,76.6603296 119.978694,76.6603296 L123.430394,76.6603296 C124.35646,76.9979442 125.450901,76.9979442 126.545343,76.9979442 C127.555596,76.9979442 128.397474,76.9979442 129.744479,77.2511552 L132.859428,77.2511552 C133.869681,77.2511552 135.132498,77.5887699 136.058564,77.5887699 C136.98463,77.9263846 138.331635,77.5887699 139.2577,77.5887699 C140.352142,77.5887699 141.278208,78.1795956 142.288461,78.1795956 C143.46709,78.5172102 144.477344,78.5172102 145.655973,78.5172102 C146.750415,78.9392286 147.67648,78.5172102 148.85511,78.9392286 C149.865363,78.9392286 150.791429,79.4456506 152.054246,79.4456506 C153.569626,79.7832652 153.82219,80.2052836 155.169195,79.7832652 C156.432012,79.7832652 157.358078,80.7961092 156.684575,79.1924396 L156.684575,79.1924396 Z" id="&gt;"></path>
                <path d="M176.847777,23.321525 L176.847777,23.574736 C177.605468,23.827947 178.363158,24.1655616 179.205036,24.1655616 C180.804604,24.2499653 182.404172,24.2499653 184.00374,24.2499653 C185.013994,24.2499653 185.013994,24.2499653 185.013994,25.1784056 C184.929806,26.2756533 184.761431,32.0151026 184.677243,33.1123503 C184.508867,34.2095979 184.340492,37.8389556 184.256304,38.9362033 C184.172116,40.0334509 184.172116,41.2151023 184.172116,42.3967536 C184.172116,42.9031756 184.256304,43.4940013 184.256304,44.0004233 C184.256304,44.4224416 184.00374,44.7600563 184.00374,45.1820746 C183.919553,46.8701479 183.919553,48.5582213 183.919553,50.1618909 C183.835365,51.1747349 183.919553,52.1875789 183.919553,53.2004229 C184.00374,55.1417072 184.845618,56.7453769 186.360999,57.6738172 C188.044755,58.6866612 189.812699,59.5306979 191.496455,60.2059272 C192.42252,60.6279456 193.432774,60.6279456 194.274652,59.7839089 C194.948154,59.1930832 195.621657,58.6866612 196.210971,58.0958356 C196.800286,57.5050099 197.389601,56.8297806 197.978915,56.1545512 C198.736606,55.2261109 199.32592,54.2132669 200.167798,53.2848266 C201.346427,52.0187716 202.440869,50.6683129 203.198559,49.0646433 C203.451122,48.5582213 203.619498,48.1362029 203.872061,47.7141846 C204.629752,46.4481296 205.387442,45.2664783 206.060944,44.0004233 C206.650259,42.9875793 206.98701,41.8059279 207.576325,40.7930839 C207.997264,40.0334509 208.081451,39.3582216 207.660512,38.5141849 C207.576325,38.5985886 207.492137,38.6829923 207.492137,38.7673959 C206.902822,40.7086803 205.808381,42.3123499 204.798127,44.0004233 C203.703686,45.6884966 202.525057,47.2921663 201.430615,48.9802396 C201.093864,49.5710653 200.757113,50.2462946 200.251986,50.8371203 C199.578484,51.7655606 198.736606,52.5251936 198.063103,53.4536339 C196.884474,54.9728999 195.537469,56.2389549 194.022089,57.4206062 C193.937901,57.5050099 193.769525,57.5050099 193.432774,57.6738172 C193.516962,56.4921659 193.685337,55.4793219 193.685337,54.4664779 C193.769525,52.9472119 193.769525,51.4279459 193.853713,49.9086799 C193.853713,48.9802396 193.853713,48.0517993 194.022089,47.2077626 C194.190464,46.0261113 194.190464,44.8444599 194.106276,43.6628086 L194.106276,39.8646436 C194.106276,38.8517996 194.190464,35.2224419 194.190464,34.2095979 C194.106276,33.5343686 193.853713,28.132534 193.937901,27.372901 C193.937901,26.2756533 194.190464,25.094002 194.35884,23.9123506 L196.210971,23.9123506 C196.631911,23.9123506 196.968662,24.081158 197.389601,24.081158 C198.399854,24.1655616 199.32592,24.1655616 200.336174,24.2499653 C201.009676,24.334369 201.009676,24.334369 200.841301,23.6591396 C201.514803,23.1527176 201.514803,22.9839103 201.009676,22.561892 C200.588737,22.2242773 199.999423,22.05547 199.494296,21.9710663 C197.894728,21.549048 196.210971,21.6334516 194.611403,21.9710663 C194.190464,22.05547 193.937901,21.9710663 193.853713,21.4646443 C193.853713,21.1270296 193.685337,20.7050113 193.60115,20.3673966 C193.264398,19.6921673 192.843459,16.484828 192.590896,15.725195 C192.254145,14.5435436 191.917394,13.2774886 191.496455,12.0958373 C191.328079,11.5894153 191.159703,11.0829933 190.90714,10.5765713 C190.317825,9.31051631 189.223384,8.80409431 187.876379,8.55088331 C186.613562,8.38207598 186.024248,8.88849798 185.855872,10.0701493 C185.855872,10.407764 185.94006,10.8297823 185.855872,11.167397 C185.771684,13.446296 185.603309,18.3417086 185.434933,20.7050113 C185.434933,21.2114333 185.350745,21.6334516 185.266557,22.1398736 C184.845618,22.1398736 184.424679,22.05547 184.087928,22.1398736 C182.909299,22.1398736 181.73067,22.2242773 180.552041,22.2242773 C179.962726,22.308681 179.457599,22.2242773 178.952472,22.3930846 C178.27897,22.6462956 177.52128,22.9839103 176.847777,23.321525 L176.847777,23.321525 Z" id="Path"></path>
                <path d="M160.529656,49.4866616 C160.529656,49.5710653 160.613843,49.5710653 160.613843,49.5710653 C160.529656,51.1747349 161.11897,52.6940009 161.792473,54.1288633 C162.129224,54.7196889 162.465975,55.2261109 162.886914,55.7325329 C163.728792,56.8297806 164.739046,57.8426246 166.001863,58.4334502 C167.433055,59.0242759 168.864248,59.3618906 170.379628,59.1930832 C170.884755,59.1086796 171.389882,59.1086796 171.895009,59.0242759 C172.147572,59.0242759 172.484323,58.9398722 172.821074,58.8554686 C173.326201,58.6866612 173.831328,58.6022576 174.336455,58.3490466 C174.757394,58.1802392 175.094145,57.8426246 175.515084,57.5894136 C176.020211,57.2517989 176.609525,56.9985879 177.114652,56.6609732 C178.040718,56.0701476 178.630033,55.2261109 179.219347,54.2132669 C179.471911,53.7068449 179.724474,53.2004229 180.145413,52.7784046 C181.071479,52.0187716 181.660794,51.0059276 182.250108,49.9930836 C182.418484,49.6554689 182.755235,49.4022579 182.839423,49.0646433 C183.007798,48.2206066 183.597113,47.7985883 184.10224,47.2077626 C184.270615,47.1233589 184.438991,46.8701479 184.523179,46.7013406 C184.691554,46.2793223 184.85993,45.8573039 185.028306,45.4352856 C185.196681,45.0976709 185.280869,44.8444599 185.365057,44.5068453 C185.365057,44.0848269 185.449245,43.7472123 185.785996,43.4095976 C186.291123,42.7343683 187.048813,42.4811573 187.301376,41.5527169 C187.469752,41.0462949 187.385564,40.2866619 186.964625,40.1178546 C186.796249,40.0334509 186.543686,40.1178546 186.459498,40.2022583 C186.122747,40.7086803 185.785996,41.2995059 185.449245,41.8903316 C184.354803,43.7472123 183.260362,45.6040929 182.16592,47.3765699 C181.492418,48.3894139 180.65054,49.4022579 179.977037,50.4151019 C179.135159,51.8499643 177.872342,52.9472119 176.525338,53.9600559 C175.68346,54.7196889 174.673206,55.2261109 173.74714,55.9013402 C172.98945,56.4921659 172.147572,56.9985879 171.221506,57.0829916 C170.379628,57.2517989 169.453562,57.4206062 168.527497,57.3362026 C167.180492,57.2517989 166.422802,56.4921659 165.665111,55.5637256 C165.665111,55.4793219 165.580924,55.3105146 165.580924,55.2261109 C166.001863,54.4664779 166.08605,53.5380376 166.254426,52.6940009 C166.506989,51.5967533 166.759553,50.4151019 167.096304,49.4022579 C167.180492,48.8958359 167.433055,48.3894139 167.853994,48.2206066 C168.611684,47.7141846 169.453562,47.2921663 170.211253,46.7013406 C171.053131,45.9417076 172.063384,45.2664783 172.98945,44.5068453 C174.083891,43.6628086 175.009957,42.6499646 175.767647,41.4683133 C175.936023,41.2151023 176.272774,41.0462949 176.609525,40.8774876 C176.693713,40.7930839 176.862089,40.7086803 176.862089,40.6242766 C177.19884,40.0334509 177.451403,39.5270289 177.788155,38.9362033 C177.95653,38.5985886 178.209094,38.2609739 178.377469,37.9233593 C178.461657,37.7545519 178.630033,37.5857446 178.630033,37.5013409 C178.798408,37.1637263 178.882596,36.7417079 178.882596,36.4040933 C179.050972,35.8132676 179.135159,35.2224419 179.219347,34.6316163 C179.219347,34.5472126 179.135159,34.3784053 179.135159,34.2940016 C178.882596,33.7875796 178.630033,33.3655613 178.377469,32.8591393 C178.209094,32.5215246 178.040718,32.1839099 177.95653,31.7618916 C177.703967,31.0866623 177.283028,30.664644 176.693713,30.2426256 C176.188586,29.905011 175.599272,29.905011 175.094145,29.8206073 C174.336455,29.5673963 173.74714,29.8206073 173.242013,29.9894146 C172.484323,30.2426256 171.726633,30.411433 171.137318,31.0866623 C170.968943,31.2554696 170.800567,31.3398733 170.632192,31.4242769 C170.042877,31.7618916 169.369375,32.0151026 168.864248,32.5215246 C168.106558,33.1123503 167.433055,33.8719833 166.759553,34.6316163 C166.422802,34.8848273 166.170238,35.3068456 165.833487,35.6444603 C165.580924,35.8976713 165.412548,36.2352859 165.159985,36.5729006 C164.823233,37.1637263 164.402294,37.7545519 164.065543,38.3453776 C163.476229,39.3582216 162.971102,40.3710656 162.550163,41.4683133 C162.129224,42.4811573 161.708285,43.4940013 161.539909,44.6756526 C161.455721,44.9288636 161.287346,45.0976709 161.203158,45.3508819 C161.11897,45.8573039 161.034782,46.2793223 161.034782,46.7013406 C160.866407,47.6297809 160.698031,48.5582213 160.529656,49.4866616 Z M176.020211,34.8004236 C176.272774,35.3068456 176.609525,35.4756529 177.19884,35.3068456 C177.114652,35.8132676 177.114652,36.2352859 176.946277,36.6573043 C176.44115,38.3453776 175.851835,39.9490473 174.673206,41.2151023 C173.662952,42.3123499 172.568511,43.3251939 171.47407,44.2536343 C170.716379,44.9288636 169.790314,45.4352856 168.948436,46.0261113 C168.78006,46.1105149 168.695872,46.1949186 168.611684,46.1949186 C168.948436,45.1820746 169.285187,44.2536343 169.706126,43.2407903 C169.874501,42.6499646 170.042877,42.0591389 170.29544,41.4683133 C170.548004,40.9618913 170.884755,40.5398729 171.137318,40.0334509 C171.305694,39.7802399 171.389882,39.5270289 171.558257,39.1894143 C172.063384,38.4297813 172.568511,37.5857446 173.157826,36.7417079 C173.242013,36.5729006 173.494577,36.4884969 173.74714,36.3196896 C174.252267,35.9820749 174.757394,35.6444603 175.346708,35.3068456 C175.515084,35.1380383 175.767647,35.0536346 176.020211,34.8004236 Z" id="Combined-Shape"></path>
                <path d="M122.575269,58.7710649 C123.248771,58.7710649 123.669711,58.9398722 124.174837,58.8554686 C125.353467,58.6866612 126.616284,58.4334502 127.710725,58.1802392 C128.30004,58.0958356 128.636791,57.8426246 128.889354,57.2517989 C129.141918,56.9141842 129.394481,56.5765696 129.562857,56.3233586 C129.899608,55.9013402 130.320547,55.5637256 130.57311,55.2261109 C131.246613,54.2132669 131.162425,53.1160193 131.246613,52.0187716 C131.3308,51.3435423 131.499176,50.6683129 131.499176,50.0774873 C131.499176,47.9673956 131.414988,45.8573039 131.3308,43.7472123 C131.3308,42.5655609 131.246613,41.2995059 131.246613,40.2022583 C131.3308,39.5270289 131.414988,38.9362033 131.835927,38.4297813 C132.930369,36.8261116 134.277373,35.3068456 135.54019,33.7875796 C135.624378,33.5343686 135.792754,33.4499649 136.213693,33.1967539 C136.297881,34.1251943 136.297881,34.8848273 136.382068,35.6444603 C136.466256,36.4040933 136.634632,37.0793226 136.71882,37.8389556 C136.887195,38.5141849 137.223946,39.2738179 136.971383,39.7802399 C136.634632,40.3710656 136.971383,40.8774876 137.055571,41.5527169 C137.139759,43.5784049 137.223946,45.7729003 137.223946,47.7985883 C137.223946,48.8114323 138.065824,49.4866616 138.907702,49.7398726 C139.665393,49.9086799 140.086332,49.5710653 140.507271,48.8958359 C141.264961,47.7141846 141.601712,46.3637259 141.264961,45.0132673 C141.096585,44.3380379 140.759834,43.6628086 140.591458,42.9875793 C140.338895,41.9747353 140.086332,41.0462949 139.917956,40.0334509 C139.917956,39.8646436 140.002144,39.5270289 140.086332,39.3582216 C140.591458,38.6829923 141.096585,38.2609739 141.517524,37.5857446 C142.864529,35.9820749 144.127346,34.3784053 146.316229,33.6187723 C146.568792,33.5343686 146.821356,33.2811576 147.242295,33.1123503 C147.158107,34.2095979 146.989731,35.2224419 146.905543,36.1508823 C146.821356,37.3325336 146.65298,38.4297813 146.568792,39.4426253 C146.484604,40.9618913 146.484604,42.4811573 146.400417,43.9160196 L146.400417,46.9545516 C146.316229,47.6297809 146.232041,48.2206066 146.232041,48.9802396 C146.063665,50.4151019 146.400417,51.8499643 146.905543,53.2004229 C147.494858,54.4664779 148.336736,55.3949182 149.34699,56.1545512 C150.357243,56.9141842 151.788436,57.0829916 152.967065,57.3362026 C154.229882,57.5050099 154.903384,56.2389549 155.82945,55.4793219 C156.755516,54.7196889 157.597394,53.7912486 158.355084,52.7784046 C159.449526,51.3435423 160.543967,49.8242763 161.638408,48.3894139 C163.406352,45.9417076 165.090108,43.5784049 166.268738,40.7930839 C166.605489,39.7802399 167.110616,39.3582216 165.763611,39.3582216 C165.090108,40.7086803 164.416606,41.2995059 163.574728,42.6499646 C162.564474,44.3380379 161.470033,46.0261113 160.375591,47.5453773 C159.112774,49.4022579 157.681582,50.9215239 156.250389,52.5251936 C155.661075,53.3692303 155.324323,53.5380376 154.482445,54.2132669 C154.735009,53.3692303 154.229882,53.7068449 154.31407,52.9472119 C154.31407,52.3563863 154.229882,51.8499643 154.229882,51.2591386 C154.566633,48.5582213 154.482445,45.9417076 154.229882,43.2407903 L154.229882,41.9747353 C154.145694,41.2151023 154.145694,40.4554693 153.977319,39.6114326 C153.808943,38.5141849 153.55638,37.4169373 153.388004,36.2352859 C153.303816,35.0536346 152.882877,34.0407906 152.209375,33.1123503 C151.872624,32.6059283 151.451685,32.2683136 151.199121,31.6774879 C150.693994,30.664644 149.683741,30.4958366 148.589299,30.4958366 C148.16836,30.4958366 147.579046,30.664644 147.242295,31.0022586 C146.316229,31.7618916 145.474351,32.6059283 144.548285,33.3655613 C143.285468,34.3784053 142.022651,35.3912493 140.759834,36.4040933 C140.507271,36.5729006 140.254707,36.7417079 139.833768,36.9949189 C139.833768,36.4884969 139.917956,36.0664786 139.74958,35.7288639 C139.412829,34.4628089 138.99189,33.3655613 138.402576,32.2683136 C137.729073,30.7490476 136.297881,30.7490476 135.456003,31.5086806 C134.361561,32.5215246 133.435495,33.6187723 132.341054,34.8004236 C132.088491,35.0536346 131.835927,35.3912493 131.499176,35.8132676 C131.414988,34.7160199 131.246613,33.6187723 131.246613,32.6903319 C131.162425,31.4242769 130.741486,30.411433 130.152171,29.2297816 C129.310293,28.0481303 128.047476,27.4573046 126.868847,27.0352863 C125.774406,26.5288643 124.511589,26.4444606 123.332959,26.5288643 C122.91202,26.5288643 122.659457,26.7820753 122.322706,27.0352863 C122.15433,27.11969 122.070142,27.2884973 121.901767,27.2884973 C121.059889,27.2884973 121.144076,28.0481303 121.144076,28.4701486 C121.059889,29.7362036 121.144076,30.9178549 121.144076,32.2683136 C121.144076,34.7160199 121.228264,37.0793226 121.312452,39.5270289 C121.312452,40.2866619 121.228264,41.0462949 121.312452,41.7215243 C121.565015,43.2407903 121.733391,44.5912489 121.901767,46.1105149 L121.901767,49.4022579 C121.901767,50.2462946 121.817579,51.1747349 121.901767,52.1031753 C121.985954,52.8628083 122.15433,53.7068449 122.322706,54.4664779 C122.406893,55.8169366 122.491081,57.2517989 122.575269,58.7710649 L122.575269,58.7710649 Z" id="Path"></path>
                <path d="M109.961411,56.9985879 C111.476791,56.4077622 111.813542,54.8884963 111.308415,53.7912486 C111.055852,53.2848266 111.14004,52.8628083 111.392603,52.5251936 C111.813542,52.0187716 111.729354,51.5123496 111.729354,51.0059276 C111.645167,50.0774873 111.645167,49.1490469 111.645167,48.2206066 C111.645167,47.7985883 111.813542,47.4609736 112.066106,47.1233589 C112.739608,46.3637259 113.497298,45.6884966 113.834049,44.7600563 C114.170801,43.8316159 114.59174,42.9875793 115.096866,42.2279463 C115.686181,41.2995059 116.10712,40.2866619 116.359683,39.1894143 C116.443871,38.7673959 116.528059,38.3453776 116.443871,37.8389556 C116.275496,36.3196896 115.34943,35.1380383 114.254988,34.2940016 C113.497298,33.6187723 112.318669,33.3655613 111.308415,32.9435429 L111.14004,32.9435429 C109.961411,33.1123503 108.951157,33.5343686 108.025091,34.1251943 C107.604152,34.4628089 107.183213,34.8004236 106.762274,35.0536346 C106.257147,35.2224419 105.75202,35.3912493 105.246894,35.4756529 C104.825955,35.4756529 104.320828,35.8132676 103.984077,35.2224419 C103.815701,34.8848273 103.563138,34.6316163 103.47895,34.2940016 C103.226386,33.7875796 102.889635,33.1967539 102.973823,32.7747356 C103.310574,31.7618916 103.899889,30.7490476 104.23664,29.6518 C104.657579,28.4701486 105.162706,27.2884973 105.331081,26.0224423 C105.499457,24.6719836 105.415269,23.2371213 105.331081,21.8866626 C105.246894,20.536204 104.320828,19.6921673 102.973823,19.6921673 C102.637072,19.6921673 102.216133,19.776571 101.963569,20.029782 C101.205879,20.7050113 100.364001,21.3802406 99.7746867,22.2242773 C98.6802453,23.827947 98.0067429,25.6848276 98.0067429,27.626112 C97.9225551,29.0609743 98.0909307,30.5802403 98.2593063,32.0151026 C98.3434941,32.6903319 98.5960575,33.3655613 98.9328087,33.8719833 C99.2695599,34.2940016 100.02725,34.7160199 99.8588745,35.1380383 C99.3537477,36.2352859 98.7644331,38.3453776 98.4276819,39.4426253 C97.501616,41.8059279 96.5755502,42.9875793 95.7336722,45.3508819 C95.6494844,45.6040929 95.1443576,46.3637259 95.2285454,46.4481296 C95.5652966,46.6169369 95.7336722,46.3637259 96.0704234,46.2793223 C96.3229868,46.2793223 96.3229868,46.0261113 96.4913624,45.7729003 C96.7439258,45.4352856 96.9964892,44.7600563 97.3332404,44.3380379 C98.0909307,43.4095976 99.7746867,39.6958363 100.111438,38.4297813 C100.279813,38.0077629 100.953316,36.6573043 101.037504,36.0664786 C101.290067,36.2352859 101.711006,36.9105153 101.879382,36.9949189 C102.468696,37.4169373 102.973823,37.7545519 103.563138,38.0077629 C104.068264,38.2609739 104.573391,38.2609739 105.078518,38.5141849 C105.499457,38.6829923 105.583645,39.0206069 105.415269,39.4426253 C105.331081,39.7802399 105.246894,40.2022583 105.162706,40.5398729 C104.99433,41.4683133 104.825955,42.4811573 104.657579,43.4940013 C104.489203,44.8444599 104.320828,46.2793223 104.23664,47.6297809 C104.23664,49.0646433 104.23664,50.4151019 104.405016,51.7655606 C104.741767,54.6352853 106.004584,56.9141842 108.44603,58.5178539 C108.951157,58.9398722 109.456284,59.3618906 110.045598,59.5306979 C111.224228,59.8683126 112.318669,59.5306979 113.328923,58.8554686 C113.918237,58.5178539 114.423364,58.0958356 114.928491,57.7582209 C116.528059,56.7453769 117.875064,55.4793219 118.885317,53.9600559 C119.390444,53.2004229 119.811383,52.4407899 120.400698,51.8499643 C121.410951,51.0059276 122.000266,49.8242763 122.505393,48.7270286 C123.01052,47.7141846 123.431459,46.6169369 123.852398,45.5196893 C123.936585,45.2664783 123.936585,44.9288636 123.936585,44.5912489 C124.020773,44.2536343 124.020773,43.9160196 124.020773,43.5784049 C124.020773,43.3251939 124.104961,43.1563866 124.104961,42.9875793 C124.104961,42.9875793 124.020773,42.9031756 123.936585,42.9031756 C123.76821,43.3251939 123.599834,43.7472123 123.347271,44.1692306 C122.000266,46.2793223 120.653261,48.4738176 119.306256,50.5839093 C118.464378,51.8499643 117.454125,53.1160193 116.528059,54.2132669 C116.022932,54.8040926 115.265242,55.3105146 114.675927,55.8169366 C113.749862,56.7453769 112.739608,57.5050099 111.560979,58.0114319 C110.38235,58.5178539 110.045598,58.3490466 109.961411,57.1673952 L109.961411,56.9985879 Z M103.563138,22.6462956 C104.573391,23.574736 103.47895,27.7949193 102.468696,29.0609743 C102.216133,27.9637266 102.384508,26.866479 102.637072,25.853635 C102.889635,24.840791 103.226386,23.827947 103.563138,22.6462956 Z" id="Combined-Shape"></path>
                <path d="M63.8408074,35.1380383 C63.9249952,35.1380383 63.9249952,35.2224419 63.9249952,35.3068456 C64.3459342,35.1380383 64.7668732,35.0536346 65.1036244,34.8004236 C65.7771268,34.3784053 66.3664414,33.7875796 66.955756,33.1967539 C67.2083194,33.0279466 67.376695,32.9435429 67.4608828,33.3655613 C67.5450706,34.2940016 67.7134462,35.2224419 67.7134462,36.1508823 C67.7134462,38.1765703 67.6292584,40.2022583 67.6292584,42.2279463 C67.6292584,43.6628086 67.7134462,45.0976709 67.7134462,46.5325333 C67.7134462,46.9545516 67.5450706,47.3765699 67.5450706,47.7141846 C67.5450706,49.2334506 67.6292584,50.7527166 67.6292584,52.1875789 C67.7134462,53.6224413 67.8818218,54.9728999 68.8078876,56.1545512 C69.060451,56.4077622 69.3130144,56.7453769 69.5655778,56.9985879 C70.744207,57.8426246 71.9228362,57.5894136 73.1014654,56.9141842 C74.111719,56.3233586 75.1219726,55.6481292 76.0480384,54.8040926 C76.8899164,54.0444596 77.90017,53.2848266 78.4052968,52.3563863 C79.4997382,50.4995056 80.3416162,48.5582213 81.267682,46.6169369 C81.4360576,46.1949186 81.688621,45.6884966 81.8569966,45.2664783 C81.9411844,45.2664783 82.0253722,45.2664783 82.0253722,45.3508819 C82.10956,45.8573039 82.10956,46.4481296 82.1937478,47.0389553 C82.2779356,48.1362029 82.2779356,49.2334506 82.4463112,50.3306983 C82.4463112,50.8371203 82.530499,51.2591386 82.6988747,51.7655606 C82.7830625,52.4407899 82.9514381,53.2004229 83.2040015,53.8756523 C83.7933161,55.5637256 84.9719453,56.7453769 86.3189501,57.7582209 C87.3292037,58.4334502 87.2450159,59.0242759 88.4236451,59.1086796 C89.0971475,59.1930832 89.4338987,58.6022576 89.9390255,58.4334502 C90.3599645,58.2646429 90.6967157,58.0114319 90.8650913,57.5050099 C90.9492791,57.3362026 91.1176547,57.1673952 91.2018425,57.1673952 C91.7911571,56.9985879 92.2120961,56.5765696 92.4646595,55.9857439 C92.6330351,55.8169366 92.8014107,55.5637256 92.9697863,55.4793219 C93.8116643,54.8040926 94.4851667,54.1288633 94.8219179,53.1160193 C95.0744813,52.6095973 95.2428569,52.0187716 95.5796081,51.5967533 C96.6740495,49.9086799 97.5159275,48.0517993 98.1894299,46.1949186 C98.3578055,45.8573039 98.5261811,45.5196893 98.1894299,45.1820746 C98.1052421,45.0976709 98.1052421,44.7600563 98.1894299,44.6756526 C98.8629323,43.9160196 99.0313079,42.9875793 99.1154957,42.0591389 C99.1996835,41.1306986 100.209937,40.2022583 99.2838713,39.5270289 C99.1996835,39.7802399 99.1154957,39.8646436 99.1154957,40.0334509 C98.6945567,41.5527169 98.4419933,43.0719829 97.6843031,44.5068453 C97.0108007,45.8573039 96.4214861,47.2921663 95.7479837,48.6426249 C95.2428569,49.5710653 94.6535423,50.4151019 94.1484155,51.2591386 C93.0539741,53.0316156 91.7069693,54.5508816 90.1915889,55.9857439 C90.1074011,56.0701476 89.8548377,56.1545512 89.6022743,56.2389549 C89.6864621,55.4793219 89.7706499,54.8884963 89.8548377,54.2132669 C90.1074011,53.3692303 90.5283401,52.6095973 90.1074011,51.6811569 C90.1074011,51.4279459 90.1074011,51.1747349 90.1915889,50.9215239 C90.2757767,49.9086799 90.3599645,48.8114323 90.4441523,47.7985883 C90.5283401,46.7857443 90.4441523,45.7729003 90.4441523,44.6756526 C90.4441523,42.5655609 90.4441523,40.4554693 90.3599645,38.2609739 C90.3599645,37.7545519 90.1915889,37.2481299 90.1074011,36.7417079 C90.1074011,36.1508823 89.8548377,35.5600566 89.6022743,35.0536346 C89.3497109,34.7160199 89.2655231,34.2940016 88.9287719,34.0407906 C88.3394573,33.5343686 87.5817671,33.0279466 86.9082647,32.5215246 C86.1505745,32.0151026 85.4770721,32.2683136 84.6351941,32.2683136 C83.6249405,32.4371209 83.4565649,33.4499649 82.6988747,33.7875796 L82.6988747,33.9563869 C82.6146868,34.5472126 82.6146868,35.1380383 82.530499,35.7288639 C82.530499,36.5729006 82.530499,37.5013409 82.3621234,38.3453776 C82.0253722,39.7802399 81.688621,41.1306986 81.1834942,42.5655609 C80.5099918,44.1692306 79.8364894,45.8573039 79.0787992,47.3765699 C78.0685456,49.1490469 76.9741042,50.8371203 75.8796628,52.4407899 C75.4587238,53.0316156 74.953597,53.4536339 74.3642824,54.0444596 C74.532658,53.0316156 74.532658,52.1875789 74.7852214,51.2591386 C75.1219726,49.4022579 75.0377848,47.5453773 75.1219726,45.6040929 C75.2061604,44.4224416 75.2903482,43.1563866 75.2903482,41.9747353 C75.2061604,41.0462949 75.0377848,40.1178546 74.953597,39.1894143 C74.8694092,38.4297813 74.7010336,37.6701483 74.7010336,36.9105153 C74.7852214,35.1380383 74.7010336,33.3655613 73.6065922,31.8462953 C72.9330898,30.9178549 72.1753996,30.0738183 71.0809582,29.6518 C70.1548924,29.2297816 69.2288266,29.3141853 68.3027608,29.5673963 C67.4608828,29.7362036 66.8715682,30.158222 66.7031926,31.0866623 C66.7031926,31.0866623 66.7031926,31.1710659 66.6190048,31.2554696 C65.8613146,32.2683136 65.0194366,33.3655613 64.2617464,34.3784053 C64.0933708,34.6316163 64.009183,34.8848273 63.8408074,35.1380383 L63.8408074,35.1380383 Z" id="Path"></path>
                <path d="M61.4978604,44.8444599 C61.4136726,44.0848269 61.3294848,43.2407903 61.245297,42.4811573 C61.1611092,42.0591389 61.0769214,41.7215243 61.0769214,41.2995059 C61.1611092,39.6958363 60.824358,38.1765703 59.8141044,36.8261116 C59.4773532,36.4040933 59.0564142,36.0664786 58.6354752,35.6444603 C58.1303484,34.9692309 57.3726582,34.8848273 56.6991558,34.6316163 C56.2782168,34.5472126 55.6889022,34.8004236 55.2679632,34.9692309 C54.931212,35.0536346 54.7628364,35.1380383 54.510273,34.8004236 C54.1735218,34.1251943 53.7525828,33.5343686 53.4158316,32.9435429 C52.9107048,32.1839099 52.405578,31.5930843 51.3953244,31.5086806 C50.3850708,31.3398733 49.3748172,31.2554696 48.5329392,31.9306989 C48.196188,32.1839099 47.9436246,32.5215246 47.5226856,32.6903319 C46.2598686,33.1123503 45.3338027,34.0407906 44.5761125,34.9692309 C43.7342345,36.1508823 42.9765443,37.3325336 42.3030419,38.5985886 C41.6295395,39.7802399 40.9560371,41.0462949 40.6192859,42.3123499 C40.2825347,43.8316159 39.9457835,45.3508819 40.4509103,46.9545516 C40.6192859,47.7141846 40.6192859,48.5582213 40.8718493,49.4022579 C41.2927883,50.9215239 42.2188541,52.1875789 43.4816711,53.2848266 C44.7444881,54.2976706 45.9231173,55.4793219 47.5226856,56.2389549 C48.196188,56.4921659 48.7855026,56.9141842 49.459005,57.2517989 C50.300883,57.5894136 51.142761,57.8426246 51.984639,58.0958356 C52.7423292,58.2646429 53.4158316,58.5178539 54.1735218,58.5178539 C55.352151,58.6866612 56.4465924,58.6022576 57.5410338,58.0114319 C58.5512874,57.4206062 59.140602,56.5765696 59.140602,55.4793219 C59.140602,54.2976706 59.3931654,53.1160193 59.98248,52.0187716 C60.3192312,51.5123496 60.5717946,50.9215239 60.7401702,50.2462946 C60.824358,49.9086799 60.9927336,49.8242763 61.3294848,49.8242763 C62.508114,49.6554689 69.2431381,45.1820746 71.6003965,35.5600566 C71.7687721,34.8848273 71.5162087,35.0536346 71.3478331,34.4628089 C70.7585185,35.7288639 70.1692039,36.9105153 69.6640771,38.1765703 C68.8221991,40.2022583 67.8961333,41.0462949 66.717504,42.9031756 C66.0440016,44.0004233 64.7811846,45.6040929 64.0234944,46.6169369 C63.349992,47.3765699 62.3397384,46.9545516 61.4978604,47.7141846 L61.4978604,44.8444599 Z M52.0688268,40.9618913 C52.9948926,44.6756526 55.1837754,47.2921663 58.5512874,48.8958359 C58.2145362,50.8371203 56.9517192,52.0187716 55.5205266,53.1160193 C55.0153998,53.5380376 54.4260852,54.0444596 53.7525828,53.9600559 C52.5739536,53.7912486 51.3111366,53.5380376 50.5534464,52.5251936 C50.2166952,52.1875789 50.1325074,51.5123496 50.1325074,50.9215239 C50.1325074,50.1618909 50.1325074,49.4022579 49.879944,48.7270286 C49.7115684,48.2206066 49.7115684,47.7141846 49.7115684,47.2077626 C49.6273806,45.6884966 49.9641318,44.3380379 50.5534464,42.9875793 C50.8060098,42.2279463 51.3953244,41.6371206 51.8162634,40.9618913 L52.0688268,40.9618913 Z M58.719663,46.6169369 C58.5512874,46.1949186 58.3829118,45.7729003 58.1303484,45.3508819 C57.7935972,44.5912489 57.3726582,43.8316159 56.9517192,43.0719829 C56.7833436,42.7343683 56.614968,42.3123499 56.3624046,41.9747353 C56.2782168,41.7215243 56.1098412,41.4683133 55.9414656,41.2995059 C55.1837754,40.3710656 54.6786486,39.3582216 54.4260852,38.3453776 C54.3418974,37.8389556 54.6786486,37.3325336 54.8470242,36.8261116 C54.931212,36.7417079 55.1837754,36.6573043 55.352151,36.7417079 C56.614968,37.0793226 58.5512874,38.5141849 58.719663,40.2022583 C58.8038508,41.3839096 59.2247898,42.4811573 59.140602,43.6628086 C59.140602,44.5912489 59.140602,45.6040929 59.0564142,46.6169369 L58.719663,46.6169369 Z" id="Combined-Shape"></path>
                <path d="M44.0248122,0.288376963 L44.0248122,1.46858639 L41.7077168,1.46858639 L41.7077168,8.0104712 L40.2748463,8.0104712 L40.2748463,1.46858639 L37.9470977,1.46858639 L37.9470977,0.288376963 L44.0248122,0.288376963 Z M58.0459018,8.0104712 L56.602378,8.0104712 L56.602378,4.63539267 L52.9909052,4.63539267 L52.9909052,8.0104712 L51.5473814,8.0104712 L51.5473814,0.288376963 L52.9909052,0.288376963 L52.9909052,3.61005236 L56.602378,3.61005236 L56.602378,0.288376963 L58.0459018,0.288376963 L58.0459018,8.0104712 Z M71.0709066,0.288376963 L71.0709066,1.43120419 L67.6565201,1.43120419 L67.6565201,3.57267016 L70.3464814,3.57267016 L70.3464814,4.67811518 L67.6565201,4.67811518 L67.6565201,6.86230366 L71.0709066,6.86230366 L71.0709066,8.0104712 L66.2129963,8.0104712 L66.2129963,0.288376963 L71.0709066,0.288376963 Z M89.0723391,5.29225131 L89.0723391,8.0104712 L87.6394686,8.0104712 L87.6394686,0.288376963 L90.1483236,0.288376963 C90.6632363,0.288376963 91.1088954,0.348899918 91.4853143,0.469947644 C91.8617332,0.59099537 92.1724517,0.760103626 92.4174791,0.977277487 C92.6625065,1.19445135 92.843611,1.45434404 92.960798,1.75696335 C93.077985,2.05958266 93.1365777,2.39067883 93.1365777,2.75026178 C93.1365777,3.12408564 93.074434,3.46675237 92.9501447,3.77827225 C92.8258554,4.08979213 92.6394244,4.35769521 92.3908458,4.58198953 C92.1422673,4.80628384 91.8315488,4.98073236 91.458681,5.10534031 C91.0858132,5.22994827 90.6490318,5.29225131 90.1483236,5.29225131 L89.0723391,5.29225131 Z M89.0723391,4.17078534 L90.1483236,4.17078534 C90.4111066,4.17078534 90.6401506,4.13785373 90.8354623,4.07198953 C91.030774,4.00612533 91.1923476,3.91178072 91.320188,3.78895288 C91.4480283,3.66612504 91.5439072,3.51659774 91.6078274,3.34036649 C91.6717476,3.16413524 91.7037072,2.96743564 91.7037072,2.75026178 C91.7037072,2.5437686 91.6717476,2.35685948 91.6078274,2.1895288 C91.5439072,2.02219812 91.4480283,1.87979116 91.320188,1.76230366 C91.1923476,1.64481617 91.030774,1.55492178 90.8354623,1.4926178 C90.6401506,1.43031382 90.4111066,1.3991623 90.1483236,1.3991623 L89.0723391,1.3991623 L89.0723391,4.17078534 Z M105.71947,0.288376963 L105.71947,1.43120419 L102.305084,1.43120419 L102.305084,3.57267016 L104.995045,3.57267016 L104.995045,4.67811518 L102.305084,4.67811518 L102.305084,6.86230366 L105.71947,6.86230366 L105.71947,8.0104712 L100.86156,8.0104712 L100.86156,0.288376963 L105.71947,0.288376963 Z M115.053102,4.99319372 L115.053102,8.0104712 L113.620232,8.0104712 L113.620232,0.288376963 L115.969287,0.288376963 C116.494853,0.288376963 116.944951,0.342669614 117.319594,0.451256545 C117.694238,0.559843475 118.001405,0.712040906 118.241106,0.907853403 C118.480807,1.1036659 118.656585,1.33774733 118.768445,1.61010471 C118.880305,1.88246209 118.936235,2.18240674 118.936235,2.50994764 C118.936235,2.76984423 118.898061,3.01549623 118.821711,3.24691099 C118.745362,3.47832576 118.635279,3.68837602 118.491459,3.87706806 C118.347638,4.06576011 118.170085,4.23130819 117.958793,4.37371728 C117.747501,4.51612637 117.506917,4.63005193 117.237031,4.71549738 C117.418139,4.81874397 117.574386,4.96649119 117.705777,5.15874346 L119.634027,8.0104712 L118.344976,8.0104712 C118.220687,8.0104712 118.115042,7.98554999 118.02804,7.93570681 C117.941037,7.88586363 117.867353,7.81466015 117.806984,7.72209424 L116.18768,5.2495288 C116.127311,5.15696289 116.060728,5.09109967 115.98793,5.05193717 C115.915132,5.01277467 115.807713,4.99319372 115.665668,4.99319372 L115.053102,4.99319372 Z M115.053102,3.96251309 L115.947981,3.96251309 C116.217866,3.96251309 116.453124,3.92869144 116.653762,3.86104712 C116.854401,3.7934028 117.019526,3.69994824 117.149141,3.58068063 C117.278757,3.46141302 117.375524,3.31989611 117.439444,3.15612565 C117.503364,2.9923552 117.535324,2.81256642 117.535324,2.61675393 C117.535324,2.22512893 117.406598,1.92429424 117.149141,1.71424084 C116.891685,1.50418743 116.498404,1.3991623 115.969287,1.3991623 L115.053102,1.3991623 L115.053102,3.96251309 Z M132.019833,0.288376963 L132.019833,1.43120419 L128.605446,1.43120419 L128.605446,3.71685864 L131.487167,3.71685864 L131.487167,4.86502618 L128.605446,4.86502618 L128.605446,8.0104712 L127.161922,8.0104712 L127.161922,0.288376963 L132.019833,0.288376963 Z M144.613378,0.288376963 L144.613378,1.43120419 L141.198992,1.43120419 L141.198992,3.57267016 L143.888953,3.57267016 L143.888953,4.67811518 L141.198992,4.67811518 L141.198992,6.86230366 L144.613378,6.86230366 L144.613378,8.0104712 L139.755468,8.0104712 L139.755468,0.288376963 L144.613378,0.288376963 Z M157.760896,6.18942408 C157.839021,6.18942408 157.906491,6.21968556 157.963309,6.28020942 L158.527935,6.89434555 C158.215436,7.28241032 157.831033,7.57968483 157.374714,7.78617801 C156.918395,7.99267119 156.370642,8.09591623 155.73144,8.09591623 C155.15971,8.09591623 154.645693,7.99801145 154.189374,7.80219895 C153.733054,7.60638646 153.343325,7.33403316 153.020173,6.98513089 C152.69702,6.63622862 152.449333,6.21968828 152.277104,5.73549738 C152.104875,5.25130648 152.018761,4.72262067 152.018761,4.14942408 C152.018761,3.56910705 152.11464,3.0377511 152.306401,2.55534031 C152.498161,2.07292953 152.768042,1.65727923 153.116052,1.30837696 C153.464062,0.959474695 153.880425,0.688011441 154.365153,0.493979058 C154.849881,0.299946674 155.385205,0.202931937 155.97114,0.202931937 C156.542871,0.202931937 157.042683,0.294606413 157.470594,0.477958115 C157.898504,0.661309817 158.265152,0.904291681 158.570548,1.20691099 L158.091149,1.87445026 C158.06274,1.91717299 158.026342,1.95455481 157.981953,1.98659686 C157.937564,2.0186389 157.876308,2.03465969 157.798183,2.03465969 C157.716507,2.03465969 157.633057,2.00261812 157.54783,1.93853403 C157.462603,1.87444994 157.354296,1.80502655 157.222904,1.73026178 C157.091513,1.65549701 156.9255,1.58607362 156.724862,1.52198953 C156.524223,1.45790544 156.269434,1.42586387 155.960487,1.42586387 C155.598272,1.42586387 155.26536,1.48905696 154.961739,1.61544503 C154.658118,1.74183309 154.397114,1.92251191 154.17872,2.15748691 C153.960326,2.39246191 153.789875,2.67816586 153.667361,3.01460733 C153.544848,3.3510488 153.483592,3.72931727 153.483592,4.14942408 C153.483592,4.58377181 153.544848,4.97005066 153.667361,5.30827225 C153.789875,5.64649384 153.955887,5.93130774 154.165404,6.16272251 C154.37492,6.39413728 154.621719,6.57125593 154.905809,6.69408377 C155.189898,6.81691161 155.49529,6.87832461 155.821994,6.87832461 C156.017305,6.87832461 156.193971,6.86764409 156.351996,6.84628272 C156.510021,6.82492136 156.655615,6.79109971 156.788782,6.74481675 C156.921949,6.6985338 157.048012,6.63890089 157.166974,6.56591623 C157.285937,6.49293157 157.40401,6.40303718 157.521197,6.29623037 C157.556708,6.26418832 157.593994,6.23837706 157.633057,6.21879581 C157.672119,6.19921456 157.714732,6.18942408 157.760896,6.18942408 L157.760896,6.18942408 Z M171.64882,0.288376963 L171.64882,1.46858639 L169.331724,1.46858639 L169.331724,8.0104712 L167.898854,8.0104712 L167.898854,1.46858639 L165.571105,1.46858639 L165.571105,0.288376963 L171.64882,0.288376963 Z" id="THE-PERFECT-Copy-2"></path>
            </g>
        </g>
    </g>
</svg>