<?xml version="1.0" encoding="UTF-8" standalone="no"?>
<svg width="677px" height="116px" viewBox="0 0 677 116" version="1.1" xmlns="http://www.w3.org/2000/svg" xmlns:xlink="http://www.w3.org/1999/xlink">
    <!-- Generator: Sketch 41.2 (35397) - http://www.bohemiancoding.com/sketch -->
    <title>Treating yourself</title>
    <desc>Created with Sketch.</desc>
    <defs></defs>
    <g id="About-Us-4" stroke="none" stroke-width="1" fill="none" fill-rule="evenodd">
        <g id="Treating-yourself" fill="#3E3436">
            <path d="M0.2,23.62 L0.2,24.01 C1.37,24.4 2.54,24.92 3.84,24.92 C6.31,25.05 8.78,25.05 11.25,25.05 C12.81,25.05 12.81,25.05 12.81,26.48 C12.68,28.17 12.42,37.01 12.29,38.7 C12.03,40.39 11.77,45.98 11.64,47.67 C11.51,49.36 11.51,51.18 11.51,53 C11.51,53.78 11.64,54.69 11.64,55.47 C11.64,56.12 11.25,56.64 11.25,57.29 C11.12,59.89 11.12,62.49 11.12,64.96 C10.99,66.52 11.12,68.08 11.12,69.64 C11.25,72.63 12.55,75.1 14.89,76.53 C17.49,78.09 20.22,79.39 22.82,80.43 C24.25,81.08 25.81,81.08 27.11,79.78 C28.15,78.87 29.19,78.09 30.1,77.18 C31.01,76.27 31.92,75.23 32.83,74.19 C34,72.76 34.91,71.2 36.21,69.77 C38.03,67.82 39.72,65.74 40.89,63.27 C41.28,62.49 41.54,61.84 41.93,61.19 C43.1,59.24 44.27,57.42 45.31,55.47 C46.22,53.91 46.74,52.09 47.65,50.53 C48.3,49.36 48.43,48.32 47.78,47.02 C47.65,47.15 47.52,47.28 47.52,47.41 C46.61,50.4 44.92,52.87 43.36,55.47 C41.67,58.07 39.85,60.54 38.16,63.14 C37.64,64.05 37.12,65.09 36.34,66 C35.3,67.43 34,68.6 32.96,70.03 C31.14,72.37 29.06,74.32 26.72,76.14 C26.59,76.27 26.33,76.27 25.81,76.53 C25.94,74.71 26.2,73.15 26.2,71.59 C26.33,69.25 26.33,66.91 26.46,64.57 C26.46,63.14 26.46,61.71 26.72,60.41 C26.98,58.59 26.98,56.77 26.85,54.95 L26.85,49.1 C26.85,47.54 26.98,41.95 26.98,40.39 C26.85,39.35 26.46,31.03 26.59,29.86 C26.59,28.17 26.98,26.35 27.24,24.53 L30.1,24.53 C30.75,24.53 31.27,24.79 31.92,24.79 C33.48,24.92 34.91,24.92 36.47,25.05 C37.51,25.18 37.51,25.18 37.25,24.14 C38.29,23.36 38.29,23.1 37.51,22.45 C36.86,21.93 35.95,21.67 35.17,21.54 C32.7,20.89 30.1,21.02 27.63,21.54 C26.98,21.67 26.59,21.54 26.46,20.76 C26.46,20.24 26.2,19.59 26.07,19.07 C25.55,18.03 24.9,13.09 24.51,11.92 C23.99,10.1 23.47,8.15 22.82,6.33 C22.56,5.55 22.3,4.77 21.91,3.99 C21,2.04 19.31,1.26 17.23,0.87 C15.28,0.61 14.37,1.39 14.11,3.21 C14.11,3.73 14.24,4.38 14.11,4.9 C13.98,8.41 13.72,15.95 13.46,19.59 C13.46,20.37 13.33,21.02 13.2,21.8 C12.55,21.8 11.9,21.67 11.38,21.8 C9.56,21.8 7.74,21.93 5.92,21.93 C5.01,22.06 4.23,21.93 3.45,22.19 C2.41,22.58 1.24,23.1 0.2,23.62 Z" id="Path"></path>
            <path d="M64.55,75.49 C66.89,74.58 67.41,72.24 66.63,70.55 C66.24,69.77 66.37,69.12 66.76,68.6 C67.41,67.82 67.28,67.04 67.28,66.26 C67.15,64.83 67.15,63.4 67.15,61.97 C67.15,61.32 67.41,60.8 67.8,60.28 C68.84,59.11 70.01,58.07 70.53,56.64 C71.05,55.21 71.7,53.91 72.48,52.74 C73.39,51.31 74.04,49.75 74.43,48.06 C74.56,47.41 74.69,46.76 74.56,45.98 C74.3,43.64 72.87,41.82 71.18,40.52 C70.01,39.48 68.19,39.09 66.63,38.44 L66.37,38.44 C64.55,38.7 62.99,39.35 61.56,40.26 C60.91,40.78 60.26,41.3 59.61,41.69 C58.83,41.95 58.05,42.21 57.27,42.34 C56.62,42.34 55.84,42.86 55.32,41.95 C55.06,41.43 54.67,41.04 54.54,40.52 C54.15,39.74 53.63,38.83 53.76,38.18 C54.28,36.62 55.19,35.06 55.71,33.37 C56.36,31.55 57.14,29.73 57.4,27.78 C57.66,25.7 57.53,23.49 57.4,21.41 C57.27,19.33 55.84,18.03 53.76,18.03 C53.24,18.03 52.59,18.16 52.2,18.55 C51.03,19.59 49.73,20.63 48.82,21.93 C47.13,24.4 46.09,27.26 46.09,30.25 C45.96,32.46 46.22,34.8 46.48,37.01 C46.61,38.05 47,39.09 47.52,39.87 C48.04,40.52 49.21,41.17 48.95,41.82 C48.17,43.51 47.26,46.76 46.74,48.45 C45.31,52.09 43.88,53.91 42.58,57.55 C42.45,57.94 41.67,59.11 41.8,59.24 C42.32,59.5 42.58,59.11 43.1,58.98 C43.49,58.98 43.49,58.59 43.75,58.2 C44.14,57.68 44.53,56.64 45.05,55.99 C46.22,54.56 48.82,48.84 49.34,46.89 C49.6,46.24 50.64,44.16 50.77,43.25 C51.16,43.51 51.81,44.55 52.07,44.68 C52.98,45.33 53.76,45.85 54.67,46.24 C55.45,46.63 56.23,46.63 57.01,47.02 C57.66,47.28 57.79,47.8 57.53,48.45 C57.4,48.97 57.27,49.62 57.14,50.14 C56.88,51.57 56.62,53.13 56.36,54.69 C56.1,56.77 55.84,58.98 55.71,61.06 C55.71,63.27 55.71,65.35 55.97,67.43 C56.49,71.85 58.44,75.36 62.21,77.83 C62.99,78.48 63.77,79.13 64.68,79.39 C66.5,79.91 68.19,79.39 69.75,78.35 C70.66,77.83 71.44,77.18 72.22,76.66 C74.69,75.1 76.77,73.15 78.33,70.81 C79.11,69.64 79.76,68.47 80.67,67.56 C82.23,66.26 83.14,64.44 83.92,62.75 C84.7,61.19 85.35,59.5 86,57.81 C86.13,57.42 86.13,56.9 86.13,56.38 C86.26,55.86 86.26,55.34 86.26,54.82 C86.26,54.43 86.39,54.17 86.39,53.91 C86.39,53.91 86.26,53.78 86.13,53.78 C85.87,54.43 85.61,55.08 85.22,55.73 C83.14,58.98 81.06,62.36 78.98,65.61 C77.68,67.56 76.12,69.51 74.69,71.2 C73.91,72.11 72.74,72.89 71.83,73.67 C70.4,75.1 68.84,76.27 67.02,77.05 C65.2,77.83 64.68,77.57 64.55,75.75 L64.55,75.49 Z M54.67,22.58 C56.23,24.01 54.54,30.51 52.98,32.46 C52.59,30.77 52.85,29.08 53.24,27.52 C53.63,25.96 54.15,24.4 54.67,22.58 Z" id="Combined-Shape"></path>
            <path d="M80.67,63.92 C80.67,64.05 80.8,64.05 80.8,64.05 C80.67,66.52 81.58,68.86 82.62,71.07 C83.14,71.98 83.66,72.76 84.31,73.54 C85.61,75.23 87.17,76.79 89.12,77.7 C91.33,78.61 93.54,79.13 95.88,78.87 C96.66,78.74 97.44,78.74 98.22,78.61 C98.61,78.61 99.13,78.48 99.65,78.35 C100.43,78.09 101.21,77.96 101.99,77.57 C102.64,77.31 103.16,76.79 103.81,76.4 C104.59,75.88 105.5,75.49 106.28,74.97 C107.71,74.06 108.62,72.76 109.53,71.2 C109.92,70.42 110.31,69.64 110.96,68.99 C112.39,67.82 113.3,66.26 114.21,64.7 C114.47,64.18 114.99,63.79 115.12,63.27 C115.38,61.97 116.29,61.32 117.07,60.41 C117.33,60.28 117.59,59.89 117.72,59.63 L118.5,57.68 C118.76,57.16 118.89,56.77 119.02,56.25 C119.02,55.6 119.15,55.08 119.67,54.56 C120.45,53.52 121.62,53.13 122.01,51.7 C122.27,50.92 122.14,49.75 121.49,49.49 C121.23,49.36 120.84,49.49 120.71,49.62 C120.19,50.4 119.67,51.31 119.15,52.22 C117.46,55.08 115.77,57.94 114.08,60.67 C113.04,62.23 111.74,63.79 110.7,65.35 C109.4,67.56 107.45,69.25 105.37,70.81 C104.07,71.98 102.51,72.76 101.08,73.8 C99.91,74.71 98.61,75.49 97.18,75.62 C95.88,75.88 94.45,76.14 93.02,76.01 C90.94,75.88 89.77,74.71 88.6,73.28 C88.6,73.15 88.47,72.89 88.47,72.76 C89.12,71.59 89.25,70.16 89.51,68.86 C89.9,67.17 90.29,65.35 90.81,63.79 C90.94,63.01 91.33,62.23 91.98,61.97 C93.15,61.19 94.45,60.54 95.62,59.63 C96.92,58.46 98.48,57.42 99.91,56.25 C101.6,54.95 103.03,53.39 104.2,51.57 C104.46,51.18 104.98,50.92 105.5,50.66 C105.63,50.53 105.89,50.4 105.89,50.27 C106.41,49.36 106.8,48.58 107.32,47.67 C107.58,47.15 107.97,46.63 108.23,46.11 C108.36,45.85 108.62,45.59 108.62,45.46 C108.88,44.94 109.01,44.29 109.01,43.77 C109.27,42.86 109.4,41.95 109.53,41.04 C109.53,40.91 109.4,40.65 109.4,40.52 C109.01,39.74 108.62,39.09 108.23,38.31 C107.97,37.79 107.71,37.27 107.58,36.62 C107.19,35.58 106.54,34.93 105.63,34.28 C104.85,33.76 103.94,33.76 103.16,33.63 C101.99,33.24 101.08,33.63 100.3,33.89 C99.13,34.28 97.96,34.54 97.05,35.58 C96.79,35.84 96.53,35.97 96.27,36.1 C95.36,36.62 94.32,37.01 93.54,37.79 C92.37,38.7 91.33,39.87 90.29,41.04 C89.77,41.43 89.38,42.08 88.86,42.6 C88.47,42.99 88.21,43.51 87.82,44.03 C87.3,44.94 86.65,45.85 86.13,46.76 C85.22,48.32 84.44,49.88 83.79,51.57 C83.14,53.13 82.49,54.69 82.23,56.51 C82.1,56.9 81.84,57.16 81.71,57.55 C81.58,58.33 81.45,58.98 81.45,59.63 L80.67,63.92 Z M104.59,41.3 C104.98,42.08 105.5,42.34 106.41,42.08 C106.28,42.86 106.28,43.51 106.02,44.16 C105.24,46.76 104.33,49.23 102.51,51.18 C100.95,52.87 99.26,54.43 97.57,55.86 C96.4,56.9 94.97,57.68 93.67,58.59 C93.41,58.72 93.28,58.85 93.15,58.85 C93.67,57.29 94.19,55.86 94.84,54.3 C95.1,53.39 95.36,52.48 95.75,51.57 C96.14,50.79 96.66,50.14 97.05,49.36 C97.31,48.97 97.44,48.58 97.7,48.06 C98.48,46.89 99.26,45.59 100.17,44.29 C100.3,44.03 100.69,43.9 101.08,43.64 C101.86,43.12 102.64,42.6 103.55,42.08 C103.81,41.82 104.2,41.69 104.59,41.3 Z" id="Combined-Shape"></path>
            <path d="M140.08,58.85 C140.08,58.98 140.21,58.98 140.21,58.98 L140.21,62.75 C140.21,64.31 139.95,65.87 140.08,67.3 C140.21,69.51 140.73,71.59 141.64,73.67 C142.42,75.49 143.33,76.92 144.89,78.09 C146.58,79.39 146.19,79.26 148.4,79.26 C149.31,79.26 150.22,79.13 151,78.74 C152.43,78.22 153.86,77.31 155.03,76.4 C156.72,75.23 158.02,73.54 159.06,71.72 C160.23,70.03 161.14,68.34 162.31,66.78 C162.83,66 162.83,66.13 163.48,64.96 C164.65,62.75 167.77,56.64 168.68,54.43 C169.07,53.52 169.72,53.52 168.94,53.26 C167.9,53 168.94,53.26 167.77,53.13 C167.64,53.13 167.38,53.52 167.25,53.65 C166.21,55.6 163.35,61.97 162.18,63.79 C161.4,65.22 160.1,66.52 159.19,67.95 C157.76,70.55 156.33,73.15 153.99,75.23 C152.82,76.27 151.52,77.05 150.09,77.31 C149.18,76.4 148.53,75.49 147.62,74.58 C148.53,73.54 149.31,72.37 150.22,71.2 C150.35,71.07 150.35,70.81 150.48,70.68 C151,69.12 151.26,67.3 152.17,66 C153.73,63.79 153.99,61.19 154.77,58.85 C155.16,57.29 155.29,55.6 155.42,54.04 C155.68,51.83 155.81,49.62 156.07,47.41 C156.07,46.63 156.33,45.98 156.33,45.2 C156.33,44.03 156.46,42.73 156.33,41.43 C156.2,40.39 155.68,39.22 155.55,38.18 C155.16,36.36 153.86,35.32 152.56,34.28 C151.52,33.24 150.09,33.11 148.66,32.98 C146.84,32.72 145.15,32.98 143.98,34.54 C143.33,35.58 142.68,36.75 142.16,37.66 C141.25,37.01 140.08,36.36 139.04,35.58 C137.74,34.54 136.18,34.54 134.75,35.06 C133.58,35.45 132.67,36.23 131.5,36.49 C130.07,36.75 129.16,37.79 128.12,38.57 C126.95,39.61 125.91,40.78 124.74,41.95 C124.35,42.47 123.83,42.86 123.44,43.51 C122.79,44.55 122.14,45.72 121.49,47.02 C121.1,47.67 120.71,48.32 120.45,49.1 C119.93,50.4 119.54,51.7 119.02,53 C118.37,55.47 117.33,57.81 116.94,60.28 C116.16,63.92 116.81,67.56 118.89,70.81 C120.71,73.8 123.31,75.49 126.95,75.49 C127.86,75.49 128.64,74.84 129.42,74.84 C131.11,74.84 132.28,73.93 133.06,72.89 C134.23,71.59 134.88,69.9 135.66,68.34 C136.83,66.13 137.74,63.79 138.78,61.45 C139.17,60.67 139.69,59.76 140.08,58.85 Z M140.86,41.82 C140.86,43.77 140.73,45.72 140.6,47.67 C140.47,50.4 139.95,52.87 138.39,55.34 C137.09,57.42 136.18,59.89 135.01,62.1 C133.97,64.18 133.06,66.39 131.76,68.34 C130.72,69.77 129.29,71.07 127.99,72.24 C126.82,73.15 124.48,72.76 123.44,71.46 C122.79,70.68 122.01,69.9 121.62,68.99 C121.1,67.56 120.45,66 120.97,64.31 C121.49,62.49 121.88,60.67 122.4,58.98 C123.31,56.38 124.22,53.91 125.13,51.44 C125.65,50.14 126.17,48.71 126.82,47.41 C126.95,46.89 127.34,46.37 127.6,45.98 C128.51,44.68 129.42,43.25 130.33,42.08 C131.76,40.52 133.32,39.09 135.53,39.09 C136.18,39.09 136.83,39.61 137.35,40 C137.87,40.52 138.39,41.17 139.04,41.56 C139.56,41.82 140.34,41.82 140.86,41.82 Z" id="Combined-Shape"></path>
            <path d="M156.33,23.62 L156.33,24.01 C157.5,24.4 158.67,24.92 159.97,24.92 C162.44,25.05 164.91,25.05 167.38,25.05 C168.94,25.05 168.94,25.05 168.94,26.48 C168.81,28.17 168.55,37.01 168.42,38.7 C168.16,40.39 167.9,45.98 167.77,47.67 C167.64,49.36 167.64,51.18 167.64,53 C167.64,53.78 167.77,54.69 167.77,55.47 C167.77,56.12 167.38,56.64 167.38,57.29 C167.25,59.89 167.25,62.49 167.25,64.96 C167.12,66.52 167.25,68.08 167.25,69.64 C167.38,72.63 168.68,75.1 171.02,76.53 C173.62,78.09 176.35,79.39 178.95,80.43 C180.38,81.08 181.94,81.08 183.24,79.78 C184.28,78.87 185.32,78.09 186.23,77.18 C187.14,76.27 188.05,75.23 188.96,74.19 C190.13,72.76 191.04,71.2 192.34,69.77 C194.16,67.82 195.85,65.74 197.02,63.27 C197.41,62.49 197.67,61.84 198.06,61.19 C199.23,59.24 200.4,57.42 201.44,55.47 C202.35,53.91 202.87,52.09 203.78,50.53 C204.43,49.36 204.56,48.32 203.91,47.02 C203.78,47.15 203.65,47.28 203.65,47.41 C202.74,50.4 201.05,52.87 199.49,55.47 C197.8,58.07 195.98,60.54 194.29,63.14 C193.77,64.05 193.25,65.09 192.47,66 C191.43,67.43 190.13,68.6 189.09,70.03 C187.27,72.37 185.19,74.32 182.85,76.14 C182.72,76.27 182.46,76.27 181.94,76.53 C182.07,74.71 182.33,73.15 182.33,71.59 C182.46,69.25 182.46,66.91 182.59,64.57 C182.59,63.14 182.59,61.71 182.85,60.41 C183.11,58.59 183.11,56.77 182.98,54.95 L182.98,49.1 C182.98,47.54 183.11,41.95 183.11,40.39 C182.98,39.35 182.59,31.03 182.72,29.86 C182.72,28.17 183.11,26.35 183.37,24.53 L186.23,24.53 C186.88,24.53 187.4,24.79 188.05,24.79 C189.61,24.92 191.04,24.92 192.6,25.05 C193.64,25.18 193.64,25.18 193.38,24.14 C194.42,23.36 194.42,23.1 193.64,22.45 C192.99,21.93 192.08,21.67 191.3,21.54 C188.83,20.89 186.23,21.02 183.76,21.54 C183.11,21.67 182.72,21.54 182.59,20.76 C182.59,20.24 182.33,19.59 182.2,19.07 C181.68,18.03 181.03,13.09 180.64,11.92 C180.12,10.1 179.6,8.15 178.95,6.33 C178.69,5.55 178.43,4.77 178.04,3.99 C177.13,2.04 175.44,1.26 173.36,0.87 C171.41,0.61 170.5,1.39 170.24,3.21 C170.24,3.73 170.37,4.38 170.24,4.9 C170.11,8.41 169.85,15.95 169.59,19.59 C169.59,20.37 169.46,21.02 169.33,21.8 C168.68,21.8 168.03,21.67 167.51,21.8 C165.69,21.8 163.87,21.93 162.05,21.93 C161.14,22.06 160.36,21.93 159.58,22.19 C158.54,22.58 157.37,23.1 156.33,23.62 Z" id="Path"></path>
            <path d="M204.95,30.12 L210.41,31.29 C212.49,31.29 214.05,30.12 215.35,29.08 C216,28.56 216.26,27.39 216.13,26.61 C216,25.57 215.87,24.27 214.44,23.88 C212.88,23.62 211.32,22.97 209.89,23.1 C208.07,23.23 206.38,24.01 204.69,24.4 C203.52,24.79 202.61,25.31 202.61,26.61 C202.61,27.91 203.78,29.73 204.95,30.12 Z" id="Path"></path>
            <path d="M229.91,54.82 C229.39,54.3 229.52,54.69 228.87,54.43 C228.48,55.21 228.35,55.86 228.09,56.51 C225.23,61.97 222.5,67.43 218.21,71.85 C216.78,73.28 215.61,74.97 213.4,75.36 C212.62,75.49 211.97,75.88 211.19,76.14 C211.45,75.23 211.58,74.45 212.62,74.32 C213.14,74.32 213.66,73.54 213.92,73.15 C214.18,72.76 214.05,72.24 214.05,71.72 C214.18,68.34 214.57,64.83 215.35,61.58 L215.35,60.15 C215.48,58.85 215.61,57.42 215.61,56.12 C215.74,54.04 215.87,51.96 215.87,49.88 C215.87,48.97 215.87,48.06 215.74,47.15 L215.35,45.59 C215.22,44.55 215.35,43.38 214.83,42.47 C213.66,40.91 212.75,38.96 210.67,38.18 C209.24,37.66 207.81,36.88 206.38,36.88 C204.04,36.88 202.74,38.05 202.22,40.39 C202.09,40.91 202.09,41.43 201.96,41.95 C201.7,43.25 201.44,44.55 201.31,45.85 C201.05,47.54 200.92,49.23 200.79,50.92 C200.53,53.91 200.14,56.77 200.27,59.76 C200.53,62.49 200.01,65.22 200.92,68.08 C201.31,69.51 201.44,70.94 201.83,72.24 C202.74,74.84 204.17,76.92 206.77,78.09 C208.46,78.74 210.02,78.74 211.58,78.48 C212.88,78.35 214.31,77.83 215.61,77.57 C216.39,77.18 217.3,75.75 217.95,75.23 C220.29,73.41 221.98,70.81 223.67,68.21 C224.19,67.3 224.58,66 225.1,65.09 C226.79,62.1 227.96,59.24 229.26,56.51 C229.65,55.6 230.43,55.34 229.91,54.82 Z" id="Path"></path>
            <path d="M241.61,43.38 C241.61,42.47 241.74,41.3 241.61,40.26 C241.61,39.48 241.35,38.83 240.96,38.18 C240.18,36.88 239.27,35.58 237.97,34.67 C236.41,33.5 235.11,32.07 233.29,31.68 C231.6,31.29 230.04,30.64 228.35,31.55 C227.18,32.33 225.88,32.59 226.27,34.41 C226.4,35.58 226.27,36.75 226.27,37.92 C226.14,40 225.88,42.08 225.75,44.16 C225.75,44.81 226.01,45.59 225.88,46.24 C225.88,48.19 225.75,50.14 225.62,52.09 C225.62,53.13 225.49,54.3 225.49,55.34 C225.49,56.25 225.75,57.16 225.75,57.94 C225.62,60.41 225.36,62.75 225.62,65.09 C225.88,66.78 226.14,68.47 226.14,70.03 C226.27,71.33 226.14,72.63 226.01,73.93 C226.01,74.84 226.14,75.49 227.18,75.75 C228.87,76.27 230.56,76.66 232.12,77.44 C233.42,78.09 234.98,78.48 236.41,78.74 C237.97,79.13 239.4,78.22 239.66,77.05 C239.92,75.75 240.05,74.32 240.31,73.02 C240.31,71.98 240.18,70.81 240.57,69.9 C240.96,68.99 240.7,68.08 240.7,67.17 C240.57,66.13 240.57,64.96 240.44,63.79 C240.44,62.75 240.18,61.71 240.18,60.54 C240.05,59.24 239.92,57.94 240.05,56.77 C240.31,54.82 240.57,53 241.09,51.18 C241.48,49.36 242.13,47.54 242.91,45.98 C243.56,44.55 244.6,43.25 245.64,42.08 C246.16,41.43 246.68,40.78 247.46,40.52 C248.5,40.13 249.54,40 250.71,39.87 C251.23,39.61 251.49,39.87 251.36,40.52 C251.23,41.3 251.23,42.21 250.97,42.86 C250.45,44.16 249.67,45.33 249.15,46.63 C248.24,49.23 247.46,51.7 246.68,54.3 C246.29,55.6 245.77,57.03 245.77,58.46 C245.64,59.89 245.12,61.19 245.12,62.62 C245.51,66.13 245.77,69.51 248.76,72.11 C250.32,73.54 251.88,74.84 253.83,75.62 C255.26,76.14 256.56,76.79 258.12,76.01 C258.9,75.62 259.81,75.49 260.59,75.23 C261.24,74.97 261.89,74.84 262.41,74.58 C263.45,74.06 264.36,73.67 265.27,73.02 C267.22,71.85 268.91,70.42 269.82,68.21 C270.34,67.17 271.25,66.26 271.77,65.22 C272.55,63.66 273.2,62.36 274.37,60.41 C275.8,57.94 276.45,55.86 276.97,53.91 C277.1,53.13 277.49,52.09 277.23,51.31 C277.1,50.66 275.28,51.96 274.76,53.39 C274.5,54.17 274.63,54.69 274.37,55.47 C273.59,57.81 271.12,62.1 270.08,64.44 C269.04,67.3 266.57,69.38 263.97,71.33 C263.32,71.85 260.59,72.63 259.81,73.15 L259.81,67.69 C260.33,64.57 260.85,61.58 261.37,58.46 C261.5,58.2 261.63,57.94 261.63,57.81 C262.15,56.64 262.54,55.47 262.93,54.17 C263.19,53.39 263.19,52.48 263.45,51.7 C263.97,50.14 264.1,48.84 263.58,47.28 C262.8,45.07 261.76,43.12 260.2,41.43 C258.51,39.22 256.3,37.79 253.57,37.27 C250.45,36.75 247.85,37.53 245.51,39.74 C244.21,41.04 242.91,42.21 241.61,43.38 Z" id="Path"></path>
            <path d="M308.04,77.83 C308.17,76.92 308.3,76.14 308.56,75.36 C308.95,74.19 309.47,73.02 309.73,71.72 C310.25,70.16 310.38,68.6 310.77,67.04 C311.42,64.57 312.07,62.23 311.68,59.5 C311.55,58.46 311.55,57.29 311.68,56.12 C312.07,54.04 312.46,51.96 312.98,50.01 C313.89,46.76 312.59,44.29 310.38,41.95 C309.47,41.04 308.04,40.52 307.13,39.48 C305.44,37.79 303.75,37.79 301.67,38.31 C300.37,38.7 300.11,39.61 299.98,40.65 C299.72,42.34 299.46,44.16 299.46,45.85 C299.33,47.93 298.16,49.62 298.42,51.83 C298.68,53.13 298.29,54.43 298.16,55.86 C297.9,58.33 297.77,60.93 297.38,63.4 C296.86,65.74 295.82,68.08 294.13,69.9 C293.48,70.68 292.57,71.2 291.92,71.98 C290.75,73.28 289.32,74.19 287.76,74.71 C287.11,74.84 286.2,74.84 285.55,74.58 C284.77,74.19 284.77,73.41 284.77,72.63 C284.9,70.16 283.99,67.56 284.64,65.09 C285.03,63.66 285.42,62.36 285.94,61.06 C286.33,59.76 286.72,58.46 287.11,57.29 C287.37,56.51 287.5,55.6 287.89,54.95 C288.93,52.87 290.1,50.79 291.14,48.84 C291.66,47.8 292.18,46.63 292.83,45.59 C293.87,44.03 294.39,42.21 294.78,40.26 C294.91,39.22 295.43,38.96 296.34,39.61 C296.86,40 297.38,40.39 297.9,39.74 C298.42,39.22 298.68,38.57 298.16,37.92 C297.77,37.4 297.64,37.01 297.25,36.62 C296.08,34.93 295.04,33.24 292.7,32.98 C292.05,32.98 291.27,32.46 290.62,32.98 C290.49,33.11 290.36,32.98 290.1,32.98 C289.84,32.98 289.45,32.85 289.19,32.98 C287.76,34.28 286.33,35.45 284.9,36.88 C283.73,38.05 282.69,39.35 281.78,40.65 C280.61,42.21 279.44,43.64 278.4,45.2 C277.23,46.89 276.58,48.84 275.93,50.66 C275.54,52.09 275.02,53.39 274.63,54.69 C274.37,55.6 273.98,56.38 273.98,57.16 C273.72,58.46 273.72,59.76 273.59,60.93 C273.59,61.71 273.46,62.36 273.59,63.01 C274.11,65.09 274.37,67.3 275.54,69.25 C276.58,70.68 277.62,72.11 278.66,73.67 C279.57,75.1 281.13,75.62 282.56,76.53 C284.77,77.96 287.37,78.22 289.84,78.61 C291.27,78.87 292.18,78.09 292.31,77.05 C292.31,76.27 292.7,76.01 293.22,75.88 C293.48,75.75 293.74,75.75 293.87,75.49 C294.78,74.45 296.47,73.93 296.73,72.24 C296.99,72.63 296.99,72.89 296.99,73.15 L296.99,76.4 C296.86,77.83 296.99,79.26 296.86,80.82 C296.73,82.51 296.6,84.2 296.34,85.89 C296.34,86.41 295.95,87.06 295.56,87.45 C294.26,88.62 292.7,89.66 291.53,90.83 C289.58,92.78 287.76,94.99 285.94,97.07 C285.42,97.72 284.9,98.5 284.51,99.28 C283.6,101.36 283.86,103.83 283.99,106.17 C283.99,106.3 283.99,106.43 284.12,106.56 L286.46,110.07 C287.5,111.63 289.19,112.41 290.88,112.8 C292.05,113.06 292.96,112.93 293.87,112.41 C295.04,111.76 295.69,110.72 296.21,109.55 C296.47,108.9 296.6,108.12 296.99,107.47 C297.77,106.17 299.07,105.39 300.11,104.35 C300.5,103.96 301.02,103.57 301.15,102.92 C301.41,102.01 301.54,100.84 301.67,99.8 C301.8,98.76 301.93,97.59 302.06,96.55 C302.32,94.86 302.97,93.3 302.97,91.74 C302.97,89.4 303.75,87.45 304.27,85.37 C304.27,85.11 304.53,84.85 304.79,84.72 C307.65,82.25 310.77,79.91 313.63,77.44 C314.93,76.4 315.84,74.84 316.88,73.67 C317.27,73.28 328.45,60.15 327.67,59.89 C326.5,59.5 325.98,59.63 325.2,60.41 C322.34,63.66 319.61,66.91 316.62,70.03 C314.67,72.11 312.46,74.06 310.38,76.01 C309.73,76.66 308.82,77.18 308.04,77.83 Z M295.69,92.52 C295.56,93.82 295.43,95.25 295.3,96.55 C295.17,98.63 295.17,100.71 294.91,102.79 C294.78,104.48 294.52,106.04 294,107.6 C293.74,108.77 291.66,109.16 290.49,108.9 C288.15,108.38 287.24,106.43 285.94,104.87 C285.81,104.74 285.68,104.48 285.68,104.35 C285.81,103.31 285.81,102.4 286.07,101.49 C286.07,101.1 286.59,100.84 286.85,100.58 C287.37,100.19 287.89,99.93 288.28,99.41 C289.19,98.5 289.97,97.59 290.88,96.68 C291.27,96.29 291.92,96.03 292.31,95.64 C292.57,95.51 292.7,95.25 292.83,95.12 L295.56,92.39 L295.69,92.52 Z" id="Combined-Shape"></path>
            <path d="M364.85,70.16 C364.85,68.6 364.85,67.17 364.98,65.74 C364.98,65.35 365.11,64.96 365.37,64.83 C366.28,64.31 366.67,63.66 366.67,62.75 C366.8,61.84 366.67,60.93 366.93,60.02 C367.58,57.29 367.45,54.56 367.19,51.7 C367.06,50.4 367.19,49.1 367.06,47.67 C366.93,46.37 366.67,45.07 366.28,43.9 C365.76,42.47 364.98,41.17 364.59,39.74 C363.68,37.14 362.51,34.8 359.78,33.37 C358.22,32.46 356.79,32.33 355.36,32.46 C352.76,32.72 351.2,34.41 350.16,36.62 C350.03,36.75 350.03,37.27 350.16,37.4 C350.81,37.79 351.46,38.44 352.11,38.44 C352.89,38.57 353.67,38.31 354.45,38.18 C354.84,39.74 354.71,41.3 354.45,42.99 C354.32,45.07 354.06,47.15 353.8,49.23 C353.67,50.14 353.54,51.18 353.41,52.09 C353.28,53.65 352.89,55.08 352.89,56.51 C352.89,58.46 353.02,60.54 353.02,62.49 C353.02,64.96 352.76,67.43 352.63,69.9 C352.63,70.68 352.89,71.46 352.89,72.37 C352.76,73.8 353.28,75.36 353.67,76.79 C353.67,76.92 353.67,77.05 353.8,77.18 C355.49,78.74 357.31,79.78 359.65,79.39 C362.51,78.87 364.72,77.05 366.54,74.97 C368.1,73.28 369.53,71.46 370.96,69.64 C371.87,68.34 372.91,67.04 373.82,65.87 C374.6,64.83 375.51,63.92 376.29,62.88 C376.42,62.88 376.42,63.01 376.55,63.01 C376.42,63.92 376.42,64.7 376.29,65.61 C376.16,67.04 376.16,68.34 376.03,69.77 C376.03,70.68 375.9,71.72 375.9,72.63 C375.51,75.49 375.25,78.35 374.86,81.08 C374.73,82.51 374.86,83.94 373.56,84.85 C373.17,85.11 372.91,85.37 372.65,85.63 C371.09,87.32 369.66,89.01 368.23,90.57 C366.54,92.52 364.85,94.47 362.77,96.03 C362.51,96.16 362.38,96.68 362.12,96.81 C360.82,97.33 359.91,98.37 359.26,99.54 C358.35,101.23 357.83,103.05 357.57,105 C357.18,108.77 358.22,112.54 361.99,114.88 C363.03,115.53 364.2,116.05 365.5,115.53 C366.15,115.27 366.8,114.75 367.45,114.23 C368.36,113.32 369.4,112.41 370.31,111.5 C370.44,111.5 370.44,111.5 370.44,111.37 C370.96,109.68 372.39,108.64 373.56,107.6 C374.21,106.95 374.99,105.91 374.99,105.13 C374.86,103.57 375.77,102.4 376.29,101.1 C377.07,99.15 378.11,97.59 379.67,96.16 C382.27,94.08 383.31,90.96 383.96,87.71 C384.22,86.28 384.61,84.72 385,83.29 C385.39,81.73 385.78,80.17 386.3,78.74 C386.56,78.09 386.82,77.31 387.34,76.79 C387.73,76.14 388.38,75.62 388.9,75.1 C390.46,73.67 392.02,72.37 393.58,71.07 C395.79,69.12 397.74,66.91 399.43,64.57 C399.82,63.92 400.34,63.27 400.47,62.36 C400.6,61.58 399.95,61.45 399.69,60.93 C399.43,61.06 399.17,61.32 398.91,61.58 L398.13,62.36 C396.7,63.79 395.27,65.09 393.84,66.39 C391.76,68.21 389.68,70.03 387.47,71.85 C387.34,71.72 387.21,71.59 387.21,71.46 C387.34,69.77 387.6,68.21 387.73,66.52 C387.86,64.7 388.25,62.75 388.12,60.93 C387.99,59.37 388.38,57.68 387.47,56.12 C387.21,55.73 387.08,55.34 387.08,54.82 C386.69,53.13 386.43,51.31 385.91,49.62 C385.65,48.84 385,47.93 384.35,47.67 C381.1,46.24 378.63,48.45 377.85,51.57 C377.59,52.74 377.2,53.91 376.68,54.95 C376.16,55.99 375.64,56.77 374.99,57.68 C373.95,59.37 373.04,61.06 371.74,62.49 C370.18,64.44 368.49,66.13 366.8,67.95 C366.15,68.6 365.5,69.38 364.85,70.16 Z M373.69,90.31 C373.56,91.48 373.56,92.65 373.43,93.69 C373.3,95.38 373.17,96.94 372.91,98.37 C372.65,99.8 372.26,101.23 371.74,102.53 C370.57,105.65 369.14,108.51 367.84,111.5 C367.84,111.63 367.84,111.89 367.71,111.89 C366.54,112.67 365.37,113.45 364.2,113.97 C363.55,114.23 362.9,113.97 362.25,113.32 C361.47,112.41 361.47,111.37 361.08,110.46 C360.04,107.6 360.56,105.13 362.25,102.92 C362.77,102.27 363.03,101.49 363.55,100.71 C363.81,100.19 364.07,99.8 364.33,99.28 C364.72,98.89 364.98,98.37 365.63,98.11 C366.28,97.98 366.67,97.33 367.06,96.81 L371.35,92.52 C372.13,91.74 372.91,91.09 373.69,90.31 Z" id="Combined-Shape"></path>
            <path d="M426.73,61.19 L426.73,56.77 C426.6,55.6 426.47,54.3 426.34,53.13 C426.21,52.48 426.08,51.96 426.08,51.31 C426.21,48.84 425.69,46.5 424.13,44.42 C423.61,43.77 422.96,43.25 422.31,42.6 C421.53,41.56 420.36,41.43 419.32,41.04 C418.67,40.91 417.76,41.3 417.11,41.56 C416.59,41.69 416.33,41.82 415.94,41.3 C415.42,40.26 414.77,39.35 414.25,38.44 C413.47,37.27 412.69,36.36 411.13,36.23 C409.57,35.97 408.01,35.84 406.71,36.88 C406.19,37.27 405.8,37.79 405.15,38.05 C403.2,38.7 401.77,40.13 400.6,41.56 C399.3,43.38 398.13,45.2 397.09,47.15 C396.05,48.97 395.01,50.92 394.49,52.87 C393.97,55.21 393.45,57.55 394.23,60.02 C394.49,61.19 394.49,62.49 394.88,63.79 C395.53,66.13 396.96,68.08 398.91,69.77 C400.86,71.33 402.68,73.15 405.15,74.32 C406.19,74.71 407.1,75.36 408.14,75.88 C409.44,76.4 410.74,76.79 412.04,77.18 C413.21,77.44 414.25,77.83 415.42,77.83 C417.24,78.09 418.93,77.96 420.62,77.05 C422.18,76.14 423.09,74.84 423.09,73.15 C423.09,71.33 423.48,69.51 424.39,67.82 C424.91,67.04 425.3,66.13 425.56,65.09 C425.69,64.57 425.95,64.44 426.47,64.44 C428.29,64.18 438.69,57.29 442.33,42.47 C442.59,41.43 442.2,41.69 441.94,40.78 C441.03,42.73 440.12,44.55 439.34,46.5 C438.04,49.62 436.61,50.92 434.79,53.78 C433.75,55.47 431.8,57.94 430.63,59.5 C429.59,60.67 428.03,60.02 426.73,61.19 Z M412.17,50.79 C413.6,56.51 416.98,60.54 422.18,63.01 C421.66,66 419.71,67.82 417.5,69.51 C416.72,70.16 415.81,70.94 414.77,70.81 C412.95,70.55 411,70.16 409.83,68.6 C409.31,68.08 409.18,67.04 409.18,66.13 C409.18,64.96 409.18,63.79 408.79,62.75 C408.53,61.97 408.53,61.19 408.53,60.41 C408.4,58.07 408.92,55.99 409.83,53.91 C410.22,52.74 411.13,51.83 411.78,50.79 L412.17,50.79 Z M422.44,59.5 C422.18,58.85 421.92,58.2 421.53,57.55 C421.01,56.38 420.36,55.21 419.71,54.04 C419.45,53.52 419.19,52.87 418.8,52.35 C418.67,51.96 418.41,51.57 418.15,51.31 C416.98,49.88 416.2,48.32 415.81,46.76 C415.68,45.98 416.2,45.2 416.46,44.42 C416.59,44.29 416.98,44.16 417.24,44.29 C419.19,44.81 422.18,47.02 422.44,49.62 C422.57,51.44 423.22,53.13 423.09,54.95 C423.09,56.38 423.09,57.94 422.96,59.5 L422.44,59.5 Z" id="Combined-Shape"></path>
            <path d="M432.58,41.82 C432.71,41.82 432.71,41.95 432.71,42.08 C433.36,41.82 434.01,41.69 434.53,41.3 C435.57,40.65 436.48,39.74 437.39,38.83 C437.78,38.57 438.04,38.44 438.17,39.09 C438.3,40.52 438.56,41.95 438.56,43.38 C438.56,46.5 438.43,49.62 438.43,52.74 C438.43,54.95 438.56,57.16 438.56,59.37 C438.56,60.02 438.3,60.67 438.3,61.19 C438.3,63.53 438.43,65.87 438.43,68.08 C438.56,70.29 438.82,72.37 440.25,74.19 C440.64,74.58 441.03,75.1 441.42,75.49 C443.24,76.79 445.06,76.4 446.88,75.36 C448.44,74.45 450,73.41 451.43,72.11 C452.73,70.94 454.29,69.77 455.07,68.34 C456.76,65.48 458.06,62.49 459.49,59.5 C459.75,58.85 460.14,58.07 460.4,57.42 C460.53,57.42 460.66,57.42 460.66,57.55 C460.79,58.33 460.79,59.24 460.92,60.15 C461.05,61.84 461.05,63.53 461.31,65.22 C461.31,66 461.44,66.65 461.7,67.43 C461.83,68.47 462.09,69.64 462.48,70.68 C463.39,73.28 465.21,75.1 467.29,76.66 C468.85,77.7 468.72,78.61 470.54,78.74 C471.58,78.87 472.1,77.96 472.88,77.7 C473.53,77.44 474.05,77.05 474.31,76.27 C474.44,76.01 474.7,75.75 474.83,75.75 C475.74,75.49 476.39,74.84 476.78,73.93 C477.04,73.67 477.3,73.28 477.56,73.15 C478.86,72.11 479.9,71.07 480.42,69.51 C480.81,68.73 481.07,67.82 481.59,67.17 C483.28,64.57 484.58,61.71 485.62,58.85 C485.88,58.33 486.14,57.81 485.62,57.29 C485.49,57.16 485.49,56.64 485.62,56.51 C486.66,55.34 486.92,53.91 487.05,52.48 C487.18,51.05 488.74,49.62 487.31,48.58 C487.18,48.97 487.05,49.1 487.05,49.36 C486.4,51.7 486.01,54.04 484.84,56.25 C483.8,58.33 482.89,60.54 481.85,62.62 C481.07,64.05 480.16,65.35 479.38,66.65 C477.69,69.38 475.61,71.72 473.27,73.93 C473.14,74.06 472.75,74.19 472.36,74.32 C472.49,73.15 472.62,72.24 472.75,71.2 C473.14,69.9 473.79,68.73 473.14,67.3 C473.14,66.91 473.14,66.52 473.27,66.13 C473.4,64.57 473.53,62.88 473.66,61.32 C473.79,59.76 473.66,58.2 473.66,56.51 C473.66,53.26 473.66,50.01 473.53,46.63 C473.53,45.85 473.27,45.07 473.14,44.29 C473.14,43.38 472.75,42.47 472.36,41.69 C471.97,41.17 471.84,40.52 471.32,40.13 C470.41,39.35 469.24,38.57 468.2,37.79 C467.03,37.01 465.99,37.4 464.69,37.4 C463.13,37.66 462.87,39.22 461.7,39.74 L461.7,40 C461.57,40.91 461.57,41.82 461.44,42.73 C461.44,44.03 461.44,45.46 461.18,46.76 C460.66,48.97 460.14,51.05 459.36,53.26 C458.32,55.73 457.28,58.33 456.11,60.67 C454.55,63.4 452.86,66 451.17,68.47 C450.52,69.38 449.74,70.03 448.83,70.94 C449.09,69.38 449.09,68.08 449.48,66.65 C450,63.79 449.87,60.93 450,57.94 C450.13,56.12 450.26,54.17 450.26,52.35 C450.13,50.92 449.87,49.49 449.74,48.06 C449.61,46.89 449.35,45.72 449.35,44.55 C449.48,41.82 449.35,39.09 447.66,36.75 C446.62,35.32 445.45,34.02 443.76,33.37 C442.33,32.72 440.9,32.85 439.47,33.24 C438.17,33.5 437.26,34.15 437,35.58 C437,35.58 437,35.71 436.87,35.84 C435.7,37.4 434.4,39.09 433.23,40.65 C432.97,41.04 432.84,41.43 432.58,41.82 Z" id="Path"></path>
            <path d="M506.03,75.49 C508.37,74.58 508.89,72.24 508.11,70.55 C507.72,69.77 507.85,69.12 508.24,68.6 C508.89,67.82 508.76,67.04 508.76,66.26 C508.63,64.83 508.63,63.4 508.63,61.97 C508.63,61.32 508.89,60.8 509.28,60.28 C510.32,59.11 511.49,58.07 512.01,56.64 C512.53,55.21 513.18,53.91 513.96,52.74 C514.87,51.31 515.52,49.75 515.91,48.06 C516.04,47.41 516.17,46.76 516.04,45.98 C515.78,43.64 514.35,41.82 512.66,40.52 C511.49,39.48 509.67,39.09 508.11,38.44 L507.85,38.44 C506.03,38.7 504.47,39.35 503.04,40.26 C502.39,40.78 501.74,41.3 501.09,41.69 C500.31,41.95 499.53,42.21 498.75,42.34 C498.1,42.34 497.32,42.86 496.8,41.95 C496.54,41.43 496.15,41.04 496.02,40.52 C495.63,39.74 495.11,38.83 495.24,38.18 C495.76,36.62 496.67,35.06 497.19,33.37 C497.84,31.55 498.62,29.73 498.88,27.78 C499.14,25.7 499.01,23.49 498.88,21.41 C498.75,19.33 497.32,18.03 495.24,18.03 C494.72,18.03 494.07,18.16 493.68,18.55 C492.51,19.59 491.21,20.63 490.3,21.93 C488.61,24.4 487.57,27.26 487.57,30.25 C487.44,32.46 487.7,34.8 487.96,37.01 C488.09,38.05 488.48,39.09 489,39.87 C489.52,40.52 490.69,41.17 490.43,41.82 C489.65,43.51 488.74,46.76 488.22,48.45 C486.79,52.09 485.36,53.91 484.06,57.55 C483.93,57.94 483.15,59.11 483.28,59.24 C483.8,59.5 484.06,59.11 484.58,58.98 C484.97,58.98 484.97,58.59 485.23,58.2 C485.62,57.68 486.01,56.64 486.53,55.99 C487.7,54.56 490.3,48.84 490.82,46.89 C491.08,46.24 492.12,44.16 492.25,43.25 C492.64,43.51 493.29,44.55 493.55,44.68 C494.46,45.33 495.24,45.85 496.15,46.24 C496.93,46.63 497.71,46.63 498.49,47.02 C499.14,47.28 499.27,47.8 499.01,48.45 C498.88,48.97 498.75,49.62 498.62,50.14 C498.36,51.57 498.1,53.13 497.84,54.69 C497.58,56.77 497.32,58.98 497.19,61.06 C497.19,63.27 497.19,65.35 497.45,67.43 C497.97,71.85 499.92,75.36 503.69,77.83 C504.47,78.48 505.25,79.13 506.16,79.39 C507.98,79.91 509.67,79.39 511.23,78.35 C512.14,77.83 512.92,77.18 513.7,76.66 C516.17,75.1 518.25,73.15 519.81,70.81 C520.59,69.64 521.24,68.47 522.15,67.56 C523.71,66.26 524.62,64.44 525.4,62.75 C526.18,61.19 526.83,59.5 527.48,57.81 C527.61,57.42 527.61,56.9 527.61,56.38 C527.74,55.86 527.74,55.34 527.74,54.82 C527.74,54.43 527.87,54.17 527.87,53.91 C527.87,53.91 527.74,53.78 527.61,53.78 C527.35,54.43 527.09,55.08 526.7,55.73 C524.62,58.98 522.54,62.36 520.46,65.61 C519.16,67.56 517.6,69.51 516.17,71.2 C515.39,72.11 514.22,72.89 513.31,73.67 C511.88,75.1 510.32,76.27 508.5,77.05 C506.68,77.83 506.16,77.57 506.03,75.75 L506.03,75.49 Z M496.15,22.58 C497.71,24.01 496.02,30.51 494.46,32.46 C494.07,30.77 494.33,29.08 494.72,27.52 C495.11,25.96 495.63,24.4 496.15,22.58 Z" id="Combined-Shape"></path>
            <path d="M572.2,57.03 C571.68,56.51 571.81,56.9 571.16,56.64 C570.77,57.42 570.64,57.94 570.38,58.33 C567.65,62.88 564.92,67.43 560.5,71.07 C559.07,72.24 557.9,73.54 555.69,73.93 L554.52,74.32 L555.3,73.54 C556.73,72.11 560.89,69.51 560.63,64.57 C560.63,63.79 560.37,63.14 560.11,62.36 C559.72,60.8 559.59,59.24 558.16,57.81 C557.38,57.03 556.6,56.25 555.82,55.34 C554.91,54.3 554,53.26 552.96,52.22 C551.14,50.4 549.19,48.71 546.98,47.28 C544.51,45.46 542.04,43.9 540.09,41.69 C538.4,39.87 538.01,39.09 539.05,37.53 C539.44,37.01 540.09,36.62 540.35,35.97 C540.87,34.93 541.13,33.76 541.52,32.59 C541.65,32.2 542.04,31.68 542.3,31.68 C543.73,31.68 542.3,29.08 541.52,28.3 C539.96,27 538.14,26.35 536.45,26.61 C534.89,26.87 533.46,27.39 532.29,28.43 C531.77,28.95 530.99,29.34 530.47,29.86 C529.82,30.51 529.04,31.16 528.65,31.94 C527.87,33.76 527.87,35.71 528.65,37.79 C529.56,40.39 530.6,42.08 532.55,44.16 C532.55,44.16 534.5,46.11 534.63,46.11 C536.06,47.54 537.88,48.84 539.18,50.4 C540.22,51.57 541.65,52.61 542.56,53.78 C543.73,55.34 544.77,57.03 545.55,58.72 C546.72,61.32 546.72,63.79 546.72,66.26 C546.72,67.43 546.2,68.6 545.68,69.64 C544.64,71.85 543.47,73.8 540.87,74.84 C540.61,74.84 540.35,75.1 540.22,75.36 C539.31,76.4 538.14,77.31 536.32,77.18 C535.8,77.05 535.28,76.92 534.89,76.79 C533.33,76.66 532.03,75.88 530.73,74.97 C530.08,74.45 529.17,75.75 529.43,76.27 C529.82,76.92 530.21,77.57 531.12,77.7 C531.38,77.7 531.64,77.96 531.9,78.09 C533.33,78.61 534.63,79.91 536.32,79.39 L536.58,79.39 C537.36,80.04 538.01,79.65 538.79,79.52 C540.09,79.39 546.59,78.22 546.98,78.09 C547.63,77.96 548.28,77.83 548.8,77.57 C549.45,77.18 549.97,76.79 550.62,76.53 C551.66,76.66 552.83,76.66 553.87,76.53 C555.3,76.27 556.6,76.01 557.9,75.75 C558.68,75.49 559.59,74.32 560.24,73.8 C562.71,72.24 564.4,70.16 565.96,68.08 C566.61,67.17 566.87,66.26 567.39,65.48 C569.08,63.01 570.25,60.67 571.55,58.33 C571.94,57.68 572.72,57.42 572.2,57.03 Z" id="Path"></path>
            <path d="M569.47,63.92 C569.47,64.05 569.6,64.05 569.6,64.05 C569.47,66.52 570.38,68.86 571.42,71.07 C571.94,71.98 572.46,72.76 573.11,73.54 C574.41,75.23 575.97,76.79 577.92,77.7 C580.13,78.61 582.34,79.13 584.68,78.87 C585.46,78.74 586.24,78.74 587.02,78.61 C587.41,78.61 587.93,78.48 588.45,78.35 C589.23,78.09 590.01,77.96 590.79,77.57 C591.44,77.31 591.96,76.79 592.61,76.4 C593.39,75.88 594.3,75.49 595.08,74.97 C596.51,74.06 597.42,72.76 598.33,71.2 C598.72,70.42 599.11,69.64 599.76,68.99 C601.19,67.82 602.1,66.26 603.01,64.7 C603.27,64.18 603.79,63.79 603.92,63.27 C604.18,61.97 605.09,61.32 605.87,60.41 C606.13,60.28 606.39,59.89 606.52,59.63 L607.3,57.68 C607.56,57.16 607.69,56.77 607.82,56.25 C607.82,55.6 607.95,55.08 608.47,54.56 C609.25,53.52 610.42,53.13 610.81,51.7 C611.07,50.92 610.94,49.75 610.29,49.49 C610.03,49.36 609.64,49.49 609.51,49.62 C608.99,50.4 608.47,51.31 607.95,52.22 C606.26,55.08 604.57,57.94 602.88,60.67 C601.84,62.23 600.54,63.79 599.5,65.35 C598.2,67.56 596.25,69.25 594.17,70.81 C592.87,71.98 591.31,72.76 589.88,73.8 C588.71,74.71 587.41,75.49 585.98,75.62 C584.68,75.88 583.25,76.14 581.82,76.01 C579.74,75.88 578.57,74.71 577.4,73.28 C577.4,73.15 577.27,72.89 577.27,72.76 C577.92,71.59 578.05,70.16 578.31,68.86 C578.7,67.17 579.09,65.35 579.61,63.79 C579.74,63.01 580.13,62.23 580.78,61.97 C581.95,61.19 583.25,60.54 584.42,59.63 C585.72,58.46 587.28,57.42 588.71,56.25 C590.4,54.95 591.83,53.39 593,51.57 C593.26,51.18 593.78,50.92 594.3,50.66 C594.43,50.53 594.69,50.4 594.69,50.27 C595.21,49.36 595.6,48.58 596.12,47.67 C596.38,47.15 596.77,46.63 597.03,46.11 C597.16,45.85 597.42,45.59 597.42,45.46 C597.68,44.94 597.81,44.29 597.81,43.77 C598.07,42.86 598.2,41.95 598.33,41.04 C598.33,40.91 598.2,40.65 598.2,40.52 C597.81,39.74 597.42,39.09 597.03,38.31 C596.77,37.79 596.51,37.27 596.38,36.62 C595.99,35.58 595.34,34.93 594.43,34.28 C593.65,33.76 592.74,33.76 591.96,33.63 C590.79,33.24 589.88,33.63 589.1,33.89 C587.93,34.28 586.76,34.54 585.85,35.58 C585.59,35.84 585.33,35.97 585.07,36.1 C584.16,36.62 583.12,37.01 582.34,37.79 C581.17,38.7 580.13,39.87 579.09,41.04 C578.57,41.43 578.18,42.08 577.66,42.6 C577.27,42.99 577.01,43.51 576.62,44.03 C576.1,44.94 575.45,45.85 574.93,46.76 C574.02,48.32 573.24,49.88 572.59,51.57 C571.94,53.13 571.29,54.69 571.03,56.51 C570.9,56.9 570.64,57.16 570.51,57.55 C570.38,58.33 570.25,58.98 570.25,59.63 L569.47,63.92 Z M593.39,41.3 C593.78,42.08 594.3,42.34 595.21,42.08 C595.08,42.86 595.08,43.51 594.82,44.16 C594.04,46.76 593.13,49.23 591.31,51.18 C589.75,52.87 588.06,54.43 586.37,55.86 C585.2,56.9 583.77,57.68 582.47,58.59 C582.21,58.72 582.08,58.85 581.95,58.85 C582.47,57.29 582.99,55.86 583.64,54.3 C583.9,53.39 584.16,52.48 584.55,51.57 C584.94,50.79 585.46,50.14 585.85,49.36 C586.11,48.97 586.24,48.58 586.5,48.06 C587.28,46.89 588.06,45.59 588.97,44.29 C589.1,44.03 589.49,43.9 589.88,43.64 C590.66,43.12 591.44,42.6 592.35,42.08 C592.61,41.82 593,41.69 593.39,41.3 Z" id="Combined-Shape"></path>
            <path d="M622.51,74.06 C622.38,74.06 622.38,73.93 622.25,73.93 L622.25,73.41 C622.25,70.55 622.38,67.69 622.38,64.83 C622.38,64.05 622.12,63.27 622.25,62.49 C622.38,60.54 622.51,58.59 622.77,56.64 C623.03,54.3 622.51,51.83 623.03,49.49 C623.42,47.93 623.29,46.37 623.42,44.81 C623.55,43.51 623.81,42.34 623.81,41.17 C623.81,40 624.33,29.21 624.46,28.04 C624.59,25.96 624.85,23.88 625.11,21.67 C625.24,19.98 625.37,18.16 625.37,16.34 C625.5,14.78 625.76,13.35 625.11,11.79 C624.59,10.36 623.81,8.93 622.51,8.15 C621.47,7.63 620.69,6.72 619.39,6.33 C617.57,5.68 615.88,5.29 614.06,5.42 C612.76,5.55 611.98,6.33 611.85,7.5 C611.46,9.71 611.07,11.92 610.81,14.13 C610.55,15.95 610.55,17.77 610.42,19.59 C610.29,21.8 610.03,23.88 609.9,25.96 C609.77,27.91 609.12,39.61 608.99,41.56 C608.86,43.38 608.47,44.94 608.47,46.76 C608.21,49.62 608.08,52.61 607.95,55.6 C607.82,59.24 607.82,63.01 607.69,66.65 C607.69,68.99 607.95,71.46 609.25,73.67 C610.68,75.75 611.98,77.83 614.58,78.61 C615.49,78.87 616.4,79.13 617.18,79.39 C619.78,80.04 621.6,79 623.16,77.31 C624.59,75.75 625.63,73.93 626.93,72.24 C628.62,69.9 629.79,66.91 631.48,64.44 C633.3,61.71 634.99,58.85 636.68,55.99 C637.2,55.21 637.46,54.3 637.85,53.39 C638.11,52.61 638.11,51.7 638.37,50.92 C638.89,49.75 639.8,49.88 638.37,49.49 C638.11,49.49 637.59,49.49 637.46,49.75 C636.94,50.79 636.55,51.83 636.03,52.87 C635.77,53.52 635.77,54.17 635.38,54.82 C634.99,55.73 633.95,57.68 633.56,58.59 C630.7,63.79 627.45,67.69 623.94,72.5 C623.42,73.02 623.03,73.54 622.51,74.06 Z" id="Path"></path>
            <path d="M663.2,44.94 C662.42,44.81 662.42,45.59 662.16,46.11 C661.12,47.67 660.08,49.49 658.91,51.05 C657.09,53.13 655.14,55.08 653.19,56.9 C651.89,58.2 649.16,60.02 647.73,61.32 L647.86,58.46 C647.86,57.94 647.99,57.42 648.12,56.9 C648.25,53.26 648.51,49.62 648.64,45.98 C648.77,45.2 649.03,44.42 649.55,43.77 C650.59,42.6 651.37,41.43 651.76,39.87 C652.02,38.7 652.41,37.4 652.93,36.36 C654.23,33.63 655.27,30.9 655.79,28.04 C656.05,26.87 656.44,25.7 656.44,24.53 C656.44,22.32 656.18,19.98 656.05,17.64 L655.66,15.69 C655.4,14.26 655.27,12.83 655.01,11.4 C654.88,10.49 654.75,9.45 654.49,8.54 C654.36,7.89 653.84,7.37 653.84,6.85 C653.58,5.16 652.54,3.99 651.37,2.95 C650.85,2.56 650.46,1.78 649.81,1.65 C648.38,1.52 646.95,1.52 645.52,2.43 C644.35,3.08 643.7,4.25 642.79,5.29 C641.36,6.98 640.32,8.93 639.8,11.14 C639.28,13.22 639.02,15.43 638.63,17.51 C638.37,18.42 638.11,19.33 638.11,20.24 C637.85,22.84 637.59,25.57 637.46,28.17 C637.2,32.33 637.07,36.62 636.94,40.78 C636.81,43.12 636.81,45.46 636.94,47.67 C636.94,52.35 637.2,56.9 637.33,61.58 C637.33,63.27 637.46,64.96 637.33,66.65 C637.33,66.78 637.2,67.43 637.2,67.56 C637.2,67.95 637.07,68.08 636.81,68.47 C636.03,69.51 636.29,70.55 635.51,71.72 C634.21,73.93 632.78,76.14 631.48,78.48 C630.18,80.82 629.01,83.16 627.84,85.76 C626.93,87.71 626.28,89.79 625.5,91.87 C624.59,94.21 624.2,96.81 624.72,99.54 C625.11,102.53 626.02,105.26 627.45,107.73 C627.71,108.25 628.23,108.77 628.75,109.16 C629.27,109.68 629.92,110.07 630.44,110.59 C632.13,112.28 634.08,112.54 635.77,111.76 C637.07,111.24 637.98,109.94 638.89,108.64 C639.8,107.6 640.32,106.04 641.1,104.74 C641.88,103.57 642.66,102.4 643.44,101.1 C643.96,100.45 644.22,99.54 644.74,99.28 C645.65,99.02 645.91,98.11 646.17,97.33 C646.69,95.9 647.08,94.47 647.47,93.17 C647.6,92.91 647.6,92.65 647.73,92.26 C647.86,90.7 648.12,89.14 648.38,87.58 C648.51,86.41 648.51,85.11 648.51,83.81 C648.38,83.03 648.25,82.12 648.12,81.34 C647.86,80.17 647.6,79.13 647.21,78.09 C646.82,76.92 646.43,76.01 645.91,74.97 C645.52,74.06 645.39,73.02 645.13,72.11 C644.87,71.59 645.13,70.94 645.26,70.55 C645.26,69.25 645.39,70.29 645,68.86 L645,68.73 C644.74,67.82 644.74,66.91 645.91,66.13 C647.08,65.22 647.86,63.92 648.9,62.88 C649.94,61.84 652.15,60.8 653.19,59.89 L656.31,57.16 C657.09,56.25 657.87,55.21 658.65,54.3 L662.16,50.79 C663.2,49.75 663.98,48.45 664.37,46.89 C664.5,46.37 663.72,44.94 663.2,44.94 Z M648.77,31.29 C648.9,29.47 649.42,27.52 649.29,25.7 C649.16,23.36 649.55,21.15 649.81,18.94 C649.94,18.55 649.81,18.16 649.81,17.77 C649.81,16.6 649.68,15.43 649.55,14.13 C649.55,13.61 649.81,13.22 649.81,12.7 C649.94,11.4 650.07,10.23 650.46,8.93 C650.85,10.36 651.37,11.92 651.5,13.48 C652.28,22.06 652.41,30.77 648.51,38.96 C648.51,38.57 648.38,38.05 648.38,37.53 L648.77,31.29 Z M639.15,85.76 C639.02,87.45 639.02,89.01 638.89,90.7 C638.76,92.52 638.63,94.34 638.24,96.03 C637.85,98.37 637.2,100.58 636.68,102.79 C636.55,103.44 636.03,103.83 635.64,104.35 C635.38,104.87 634.99,105.26 634.73,105.65 C634.21,106.43 633.56,106.56 632.78,106.43 C632.13,106.3 631.35,106.43 630.7,106.3 C629.4,106.17 628.36,105.52 627.19,104.48 C625.76,103.18 625.5,101.49 625.63,99.8 C625.63,98.63 626.28,97.59 626.67,96.42 C626.8,96.03 626.93,95.64 627.19,95.25 C628.1,93.17 629.01,91.09 630.05,89.14 C630.83,87.58 631.61,86.28 632.39,84.85 C633.3,83.16 634.08,81.34 634.86,79.78 C635.64,78.22 636.55,76.79 637.33,75.36 C637.85,74.58 638.24,73.8 638.76,73.02 L638.89,73.02 C638.89,74.71 638.89,76.27 639.02,77.96 C639.02,79.52 639.28,81.08 639.28,82.64 C639.28,83.68 639.15,84.72 639.15,85.76 Z" id="Combined-Shape"></path>
            <path d="M668.92,65.74 L667.88,65.74 C665.93,65.74 664.37,66.26 663.85,67.82 C663.33,68.73 663.33,70.29 663.33,71.33 C663.33,73.67 663.33,73.67 664.89,74.19 C665.41,74.19 665.93,74.71 666.45,75.23 C667.36,75.62 668.92,76.66 669.96,77.18 C672.3,78.22 673.73,77.7 674.77,75.62 C675.29,74.71 675.29,73.67 676.33,72.63 C676.85,70.81 676.85,68.73 675.81,67.82 C673.73,66.26 671.78,65.74 668.92,65.74 Z" id="treating-yourself."></path>
        </g>
    </g>
</svg>