<?xml version="1.0" encoding="UTF-8" standalone="no"?>
<svg width="16px" height="18px" viewBox="0 0 16 18" version="1.1" xmlns="http://www.w3.org/2000/svg" xmlns:xlink="http://www.w3.org/1999/xlink">
    <!-- Generator: Sketch 42 (36781) - http://www.bohemiancoding.com/sketch -->
    <title>Icon_Applications</title>
    <desc>Created with Sketch.</desc>
    <defs></defs>
    <g id="Page-1" stroke="none" stroke-width="1" fill="none" fill-rule="evenodd">
        <g id="Artboard-Copy" transform="translate(-70.000000, -412.000000)" fill-rule="nonzero" fill="#FFFFFF">
            <path d="M84.8387647,417.343677 C84.6817713,416.968723 84.4934699,416.671962 84.2735307,416.453187 L80.5991589,412.796782 C80.3792196,412.578213 80.0810724,412.390633 79.704181,412.23429 C79.3274545,412.07811 78.9819948,412 78.6680904,412 L71.1305093,412 C70.8165225,412 70.5495594,412.109305 70.3297439,412.328079 C70.1098871,412.546731 70,412.812379 70,413.124944 L70,428.875015 C70,429.187662 70.1098871,429.45331 70.3297439,429.672003 C70.5496007,429.890572 70.8165225,430 71.1305505,430 L83.943828,430 C84.2577736,430 84.5245716,429.890572 84.7443459,429.672003 C84.9641202,429.453146 85.0740898,429.187662 85.0740898,428.875015 L85.0740898,418.374954 C85.0742136,418.062431 84.9957169,417.718631 84.8387647,417.343677 Z M79.0446519,413.593646 C79.2722222,413.671756 79.4331343,413.757788 79.5274293,413.851414 L83.2136808,417.519517 C83.3076871,417.613348 83.3941036,417.773427 83.472559,418 L79.0446519,418 L79.0446519,413.593646 Z M83.5668953,428.500062 L71.5073595,428.500062 L71.5073595,413.500021 L77.5370449,413.500021 L77.5370449,418.375077 C77.5370449,418.6876 77.6468495,418.953167 77.8667063,419.171941 C78.0866456,419.390592 78.3534436,419.500062 78.6676367,419.500062 L83.5668953,419.500062 L83.5668953,428.500062 L83.5668953,428.500062 Z" id="Icon_Applications"></path>
        </g>
    </g>
</svg>