<svg width="24" height="22" viewBox="0 0 24 22" xmlns="http://www.w3.org/2000/svg"><title>Icon/Main nav/Paper/Active</title><desc>Created with Sketch.</desc><path d="M18.839 7.344c-.157-.375-.345-.672-.565-.89l-3.674-3.656c-.22-.219-.518-.406-.895-.562-.377-.156-.722-.234-1.036-.234h-7.538c-.314 0-.581.109-.801.328-.22.219-.33.484-.33.797v15.75c0 .313.11.578.33.797.22.219.487.328.801.328h12.813c.314 0 .581-.109.801-.328.22-.219.33-.484.33-.797v-10.5c0-.313-.078-.656-.235-1.031zm-5.794-3.75c.228.078.388.164.483.258l3.686 3.668c.094.094.18.254.259.48h-4.428v-4.406zm4.522 14.906h-12.06v-15h6.03v4.875c0 .313.11.578.33.797.22.219.487.328.801.328h4.899v9z" fill-rule="nonzero" fill="#fff"/></svg>