<svg xmlns="http://www.w3.org/2000/svg" width="18" height="16"><path fill="#FFF" d="M17.85 2.87c-.1-.12-.25-.2-.4-.2H4.27L3.7.45c-.06-.23-.26-.4-.5-.4H.52C.22.05 0 .3 0 .6c0 .3.23.52.52.52H2.8l.58 2.22 2.02 7.84c.06.23.27.4.5.4h9.5c.25 0 .45-.17.5-.4l2.04-7.84c.04-.15 0-.32-.1-.45zM8.13 10.5H6.3l-.4-1.56h2.23v1.57zm0-2.6h-2.5l-.4-1.58h2.9V7.9zm0-2.62H4.95l-.4-1.57h3.58v1.6zm4.02 5.23H9.17V9h2.98v1.57zm0-2.6H9.17V6.37h2.98V7.9zm0-2.6H9.17V3.7h2.98v1.6zM15 10.5h-1.8V8.95h2.24l-.4 1.57zm.7-2.6h-2.52V6.32h2.9l-.4 1.58zm.66-2.62h-3.18V3.7h3.6l-.42 1.58zm-9.62 7.6c.74 0 1.35.6 1.35 1.35 0 .75-.67 1.36-1.4 1.36-.76 0-1.36-.67-1.36-1.4 0-.77.6-1.37 1.34-1.37zm6.76 0c.74 0 1.35.6 1.35 1.35 0 .75-.6 1.36-1.35 1.36-.75 0-1.35-.67-1.35-1.4 0-.77.6-1.37 1.35-1.37z"/></svg>