<svg width="24" height="22" viewBox="0 0 24 22" xmlns="http://www.w3.org/2000/svg"><title>Icon/Main nav/Cart/Active</title><desc>Created with Sketch.</desc><path d="M19.892 6.779c-.098-.123-.25-.195-.41-.195h-13.194l-.576-2.147c-.059-.221-.266-.376-.502-.376h-2.691c-.286 0-.519.225-.519.502s.232.502.519.502h2.29l.576 2.147 2.032 7.567c.059.221.266.376.502.376h9.531c.236 0 .443-.155.502-.376l2.032-7.567c.041-.15.007-.311-.091-.434zm-9.74 7.372h-1.832l-.407-1.517h2.239v1.517zm0-2.522h-2.509l-.408-1.518h2.917v1.518zm0-2.523h-3.187l-.407-1.517h3.594v1.517zm4.028 5.045h-2.99v-1.517h2.99v1.517zm0-2.522h-2.99v-1.518h2.99v1.518zm0-2.523h-2.99v-1.517h2.99v1.517zm2.869 5.045h-1.832v-1.517h2.239l-.407 1.517zm.677-2.522h-2.509v-1.518h2.917l-.408 1.518zm.678-2.523h-3.187v-1.517h3.594l-.408 1.517zm-9.65 7.333c.746 0 1.354.588 1.354 1.311s-.607 1.311-1.354 1.311c-.746 0-1.354-.588-1.354-1.311s.607-1.311 1.354-1.311zm6.779 0c.746 0 1.354.588 1.354 1.311s-.607 1.311-1.354 1.311c-.746 0-1.353-.588-1.353-1.311s.607-1.311 1.353-1.311z" fill-rule="nonzero" fill="#fff"/></svg>