<svg width="24" height="22" viewBox="0 0 24 22" xmlns="http://www.w3.org/2000/svg"><title>Icon/Main nav/Notebook/Active</title><desc>Created with Sketch.</desc><path d="M17.285 5.721v11.679h-8.869c-.444 0-.806-.359-.806-.8 0-.441.362-.8.806-.8h6.447c.444 0 .806-.359.806-.8v-11.2c0-.441-.362-.8-.806-.8h-6.447c-1.335 0-2.416 1.074-2.416 2.4v11.2c0 1.326 1.083 2.4 2.419 2.4h9.672c.444 0 .806-.359.806-.8v-12.479c0-.176-.145-.321-.321-.321h-.967c-.183 0-.324.142-.324.321z" fill-rule="nonzero" fill="#fff"/></svg>