<?xml version="1.0" encoding="UTF-8" standalone="no"?>
<svg width="18px" height="17px" viewBox="0 0 18 17" version="1.1" xmlns="http://www.w3.org/2000/svg" xmlns:xlink="http://www.w3.org/1999/xlink">
    <!-- Generator: Sketch 42 (36781) - http://www.bohemiancoding.com/sketch -->
    <title>Icon_Categories</title>
    <desc>Created with Sketch.</desc>
    <defs></defs>
    <g id="Page-1" stroke="none" stroke-width="1" fill="none" fill-rule="evenodd">
        <g id="Artboard-Copy" transform="translate(-197.000000, -76.000000)" fill-rule="nonzero" fill="#FFFFFF">
            <g id="Icon_Categories" transform="translate(197.000000, 76.000000)">
                <g id="Capa_1">
                    <polygon id="Shape" points="15.9000007 11.4000005 15.9000007 7.80000037 9.30000044 7.80000037 9.30000044 4.80000023 11.4000005 4.80000023 11.4000005 0 6.60000031 0 6.60000031 4.80000023 8.70000041 4.80000023 8.70000041 7.80000037 2.1000001 7.80000037 2.1000001 11.4000005 0 11.4000005 0 16.2000008 4.80000023 16.2000008 4.80000023 11.4000005 2.70000013 11.4000005 2.70000013 8.4000004 8.70000041 8.4000004 8.70000041 11.4000005 6.60000031 11.4000005 6.60000031 16.2000008 11.4000005 16.2000008 11.4000005 11.4000005 9.30000044 11.4000005 9.30000044 8.4000004 15.3000007 8.4000004 15.3000007 11.4000005 13.2000006 11.4000005 13.2000006 16.2000008 18.0000008 16.2000008 18.0000008 11.4000005"></polygon>
                </g>
            </g>
        </g>
    </g>
</svg>