<svg width="24" height="22" viewBox="0 0 24 22" xmlns="http://www.w3.org/2000/svg"><title>Icon/Main nav/Globe/Active</title><desc>Created with Sketch.</desc><path d="M20.282 7.497c-.949-2.213-2.562-3.822-4.793-4.773-1.115-.476-2.273-.718-3.494-.718-1.22 0-2.38.241-3.494.718-2.212.949-3.842 2.557-4.793 4.773-.476 1.11-.709 2.273-.709 3.494 0 1.22.232 2.393.709 3.504.951 2.216 2.58 3.834 4.793 4.783 1.114.478 2.273.718 3.494.718 1.22 0 2.379-.243 3.494-.718 2.231-.952 3.844-2.571 4.793-4.783.478-1.114.718-2.283.718-3.504 0-1.22-.241-2.38-.718-3.494zm-11.278-3.818c-.777.984-1.348 2.234-1.712 3.75h-2.352c.866-1.683 2.323-3.031 4.064-3.75zm-4.911 7.312c0-.856.138-1.683.404-2.48h2.578c-.128.836-.187 1.663-.187 2.48 0 .807.059 1.624.187 2.46h-2.598c-.256-.797-.384-1.624-.384-2.46zm.846 3.543h2.352c.364 1.545.935 2.815 1.712 3.789-1.771-.738-3.228-2.086-4.064-3.789zm6.505 4.281c-.64-.187-1.24-.659-1.781-1.427-.541-.768-.955-1.722-1.24-2.854h3.021v4.281zm0-5.364h-3.267c-.128-.876-.197-1.693-.197-2.46 0-.827.069-1.653.217-2.48h3.248v4.94zm0-6.023h-3.021c.305-1.122.721-2.065 1.26-2.825.544-.766 1.122-1.24 1.762-1.417v4.242zm7.617 0h-2.352c-.364-1.516-.935-2.766-1.712-3.75 1.742.718 3.198 2.067 4.065 3.75zm-6.505-4.242c.64.177 1.218.651 1.762 1.417.539.759.955 1.703 1.26 2.825h-3.021v-4.242zm0 5.324h3.248c.148.827.217 1.653.217 2.48 0 .768-.069 1.585-.197 2.46h-3.267v-4.94zm0 10.304v-4.281h3.021c-.295 1.132-.714 2.083-1.25 2.854-.537.773-1.122 1.25-1.771 1.427zm2.441-.492c.777-.974 1.348-2.244 1.712-3.789h2.352c-.836 1.703-2.293 3.051-4.065 3.789zm4.527-4.872h-2.598c.128-.836.187-1.653.187-2.46 0-.817-.059-1.643-.187-2.48h2.578c.266.797.404 1.624.404 2.48 0 .837-.128 1.663-.384 2.46z" fill-rule="nonzero" fill="#fff"/></svg>