<svg xmlns="http://www.w3.org/2000/svg" width="18" height="18"><path fill="#FFF" d="M17.28 5.5c-.95-2.22-2.56-3.83-4.8-4.78C11.4.25 10.22 0 9 0 7.8 0 6.62.24 5.5.72 3.3 1.67 1.66 3.28.7 5.5.23 6.6 0 7.77 0 9c0 1.2.23 2.38.7 3.5.96 2.2 2.6 3.83 4.8 4.78 1.1.47 2.27.7 3.5.7 1.22.02 2.38-.23 3.5-.7 2.22-.96 3.83-2.57 4.78-4.8.48-1.1.72-2.27.72-3.5 0-1.2-.24-2.37-.72-3.48zM6 1.68c-.77.98-1.34 2.23-1.7 3.75H1.93C2.8 3.73 4.26 2.4 6 1.68zm-4.9 7.3c0-.85.13-1.67.4-2.47h2.58c-.13.9-.2 1.7-.2 2.5s.07 1.6.2 2.5h-2.6c-.26-.8-.4-1.62-.4-2.46zm.84 3.55H4.3c.36 1.55.93 2.82 1.7 3.8-1.77-.75-3.22-2.1-4.06-3.8zm6.5 4.28c-.64-.12-1.24-.6-1.78-1.4-.54-.73-.95-1.7-1.24-2.82h3.02v4.28zm0-5.3H5.18c-.13-.87-.2-1.7-.2-2.46 0-.82.07-1.65.22-2.5h3.24v4.96zm0-6.02H5.42c.3-1.12.72-2.06 1.26-2.82.55-.75 1.12-1.23 1.76-1.4V5.5zm7.62 0H13.7c-.35-1.5-.92-2.76-1.7-3.75 1.74.7 3.2 2.07 4.07 3.75zM9.56 1.2c.64.17 1.22.64 1.77 1.4.54.77.96 1.72 1.26 2.84H9.5V1.2zm0 5.32h3.25c.2.83.28 1.66.28 2.48 0 .77-.07 1.6-.2 2.46h-3.3V6.5zm0 10.3v-4.27h3.02c-.3 1.13-.7 2.08-1.25 2.86-.53.8-1.12 1.3-1.77 1.48zm2.44-.5c.78-.96 1.35-2.23 1.72-3.78h2.35c-.83 1.7-2.3 3.06-4.06 3.8zm4.53-4.86h-2.6c.13-.83.2-1.65.2-2.46 0-.8-.07-1.64-.2-2.48h2.6c.26.8.4 1.63.4 2.48 0 .84-.13 1.67-.4 2.46z"/></svg>