<svg width="18" height="18" viewBox="0 0 18 18" xmlns="http://www.w3.org/2000/svg">
  <path d="M17.282 5.497c-.95-2.213-2.562-3.822-4.793-4.774-1.12-.475-2.28-.718-3.5-.718-1.22 0-2.38.24-3.5.718C3.28 1.673 1.65 3.28.7 5.497.23 6.607 0 7.77 0 8.99c0 1.22.232 2.393.71 3.504.95 2.216 2.58 3.834 4.79 4.783 1.115.478 2.275.718 3.495.718 1.22 0 2.38-.243 3.494-.718 2.23-.952 3.84-2.57 4.79-4.783.48-1.114.72-2.284.72-3.504 0-1.22-.24-2.38-.72-3.494zm-11.28-3.82c-.776.985-1.347 2.235-1.71 3.75H1.938c.865-1.682 2.32-3.03 4.063-3.75zM1.092 8.99c0-.856.14-1.683.405-2.48h2.578c-.128.837-.187 1.663-.187 2.48 0 .807.06 1.624.187 2.46h-2.6c-.255-.797-.383-1.623-.383-2.46zm.848 3.543h2.35c.365 1.545.936 2.815 1.713 3.79-1.77-.74-3.228-2.087-4.064-3.79zm6.504 4.28c-.64-.186-1.24-.658-1.78-1.426-.543-.768-.956-1.722-1.24-2.854h3.02v4.28zm0-5.362H5.177c-.128-.87-.197-1.69-.197-2.46 0-.82.07-1.65.216-2.48h3.248v4.94zm0-6.02h-3.02c.304-1.12.72-2.06 1.258-2.82.544-.76 1.122-1.24 1.762-1.41v4.24zm7.617 0h-2.35c-.36-1.51-.93-2.76-1.71-3.75 1.74.72 3.2 2.07 4.07 3.75zm-6.5-4.24c.64.18 1.22.65 1.77 1.42.54.76.96 1.71 1.26 2.83H9.56V1.19zm0 5.33h3.25c.15.83.22 1.66.22 2.48 0 .77-.07 1.59-.19 2.46H9.56V6.51zm0 10.31v-4.28h3.02c-.29 1.13-.71 2.08-1.25 2.856-.53.774-1.12 1.25-1.77 1.427zm2.44-.5c.78-.97 1.35-2.24 1.72-3.79h2.35c-.83 1.71-2.29 3.058-4.06 3.79zm4.53-4.87h-2.6c.13-.832.19-1.65.19-2.46 0-.813-.06-1.64-.18-2.48h2.58c.268.8.406 1.628.406 2.48 0 .84-.13 1.667-.385 2.46z" fill="#FFF"/>
</svg>
