<svg width="24" height="22" viewBox="0 0 24 22" xmlns="http://www.w3.org/2000/svg"><title>Icon/Main nav/User/Active</title><desc>Created with Sketch.</desc><path d="M11.651 11.081c-2.143 0-3.879-2.033-3.879-4.541 0-3.478 1.737-4.541 3.879-4.541 2.143 0 3.88 1.063 3.88 4.541 0 2.508-1.737 4.541-3.88 4.541zm8.566 7.502c.135.304.107.652-.074.931s-.488.445-.821.445h-15.344c-.332 0-.639-.166-.82-.445-.181-.279-.209-.627-.074-.931l1.957-4.409c.089-.202.247-.369.442-.471l3.037-1.581c.067-.035.148-.028.209.018.859.65 1.869.993 2.921.993 1.052 0 2.062-.343 2.921-.993.06-.045.141-.052.209-.018l3.037 1.581c.196.102.353.269.443.471l1.957 4.409z" fill="#fff"/></svg>