<svg width="24" height="22" viewBox="0 0 24 22" xmlns="http://www.w3.org/2000/svg"><title>Icon/Main nav/Gift/Active</title><desc>Created with Sketch.</desc><path d="M15.356 10.516c.132-.126.252-.263.349-.414.437-.688.603-1.793-.068-2.593-.381-.454-.95-.704-1.603-.704-.331 0-.657.066-.944.189-.224.097-.43.239-.617.411v-2.376h-.89v2.399c-.193-.182-.408-.333-.642-.433-.287-.123-.613-.189-.944-.189-.653 0-1.222.25-1.603.704-.671.801-.506 1.905-.068 2.593.096.151.216.288.348.414h-5.547v.89h7.754c-.712.696-1.84 1.705-2.917 2.27l.517.985c1.163-.61 2.336-1.643 3.101-2.384v4.618h.89v-4.618c.765.742 1.938 1.774 3.101 2.384l.517-.985c-1.075-.564-2.204-1.574-2.916-2.27h7.754v4.302c0 .655-.531 1.187-1.187 1.187h-15.428c-.656 0-1.187-.531-1.187-1.187v-9.494c0-.656.531-1.187 1.187-1.187h15.428c.656 0 1.187.531 1.187 1.187v4.302h-5.572zm-1.322-2.758c.212 0 .607.048.872.364.385.459.201 1.144-.006 1.468-.32.504-.974.729-1.479.729-.323 0-.588-.087-.728-.241-.172-.189-.224-.559-.136-.967.123-.57.48-1.057.909-1.241.166-.072.367-.111.567-.111zm-3.47.111c.429.185.786.672.909 1.242.088.408.036.778-.136.967-.137.151-.409.241-.728.241-.505 0-1.158-.225-1.479-.729-.206-.324-.39-1.009-.006-1.468.265-.316.66-.364.872-.364.199 0 .4.04.566.111z" fill="#fff"/></svg>