<svg xmlns="http://www.w3.org/2000/svg" width="18" height="12"><g fill="#FFF" fill-rule="evenodd"><path d="M12.36 5.52h5.57v-4.3c0-.66-.53-1.2-1.2-1.2H1.33C.66.02.13.57.13 1.22v9.5c0 .65.53 1.18 1.2 1.18h15.42c.66 0 1.2-.54 1.2-1.2V6.4H10.2c.7.7 1.84 1.7 2.9 2.28l-.52.98c-1.16-.6-2.33-1.64-3.1-2.38v4.6h-.9V7.3c-.75.74-1.93 1.77-3.1 2.38l-.5-.98c1.07-.57 2.2-1.58 2.9-2.27H.14v-.88h5.54c-.13-.13-.25-.27-.34-.42-.44-.7-.6-1.8.06-2.6.37-.45.94-.7 1.6-.7.33 0 .65.07.94.2.23.1.45.24.64.43V.03h.9V2.4c.18-.17.4-.3.6-.4.3-.13.62-.2.95-.2.66 0 1.23.25 1.6.7.68.8.5 1.9.07 2.6-.1.15-.2.3-.34.42"/><path d="M11.03 2.76c-.2 0-.4.04-.56.1-.43.2-.8.68-.9 1.25-.1.47-.05.8.12 1 .1.18.4.27.7.27.5 0 1.13-.23 1.5-.73.2-.32.4-1 0-1.47-.3-.3-.7-.36-.9-.36m-3.48.1c-.16-.06-.36-.1-.56-.1-.23 0-.6.05-.9.36-.37.46-.2 1.15 0 1.47.34.5 1 .7 1.5.7.3 0 .6-.1.73-.23.17-.2.22-.58.13-1-.12-.55-.48-1.04-.9-1.22"/></g></svg>