<svg width="24" height="22" viewBox="0 0 24 22" xmlns="http://www.w3.org/2000/svg"><title>Icon/Main nav/User group/Active</title><desc>Created with Sketch.</desc><path d="M7.49 12.968c-1.088 0-1.97-1.032-1.97-2.306 0-1.766.882-2.306 1.97-2.306s1.97.54 1.97 2.306c0 1.274-.882 2.306-1.97 2.306zm-.036 4.331c.07.158.127.335.322.335h-4.183c-.169 0-.325-.084-.417-.226-.092-.142-.106-.318-.038-.473l.994-2.239c.046-.103.125-.187.225-.239l1.543-.803.106.009c.436.33.949.504 1.484.504.414 0 .815-.106 1.178-.307l-1.248 2.811c-.091.206-.054.428.034.628zm7.34-5.879c-1.5 0-2.715-1.423-2.715-3.178 0-2.434 1.216-3.178 2.715-3.178 1.5 0 2.715.744 2.715 3.178 0 1.755-1.216 3.178-2.715 3.178zm5.996 5.251c.094.213.075.456-.052.651s-.341.312-.574.312h-10.739c-.233 0-.447-.116-.574-.312-.127-.195-.146-.439-.052-.651l1.37-3.086c.063-.141.173-.258.31-.33l2.126-1.107c.047-.024.104-.02.146.012.601.455 1.308.695 2.044.695s1.443-.24 2.044-.695c.042-.032.099-.037.146-.012l2.126 1.107c.137.071.247.188.31.33l1.37 3.086z" fill="#fff"/></svg>