<svg xmlns="http://www.w3.org/2000/svg" width="18" height="13"><path fill="#FFF" fill-rule="evenodd" d="M4.5 7.97c1.08 0 1.96-1.03 1.96-2.3 0-1.77-.88-2.3-1.97-2.3-1.1 0-2 .53-2 2.3 0 1.27.9 2.3 1.97 2.3m-.03 4.33c-.08-.2-.12-.42-.03-.63l1.26-2.8c-.36.2-.77.3-1.18.3-.55 0-1.07-.18-1.5-.5-.03-.03-.08-.03-.1-.02l-1.55.8c-.1.06-.18.14-.23.25l-1 2.24c-.06.15-.05.33.05.47.1.17.24.25.4.25h4.2c-.2 0-.26-.17-.33-.33m7.36-5.88c1.5 0 2.7-1.42 2.7-3.18C14.5.8 13.3.06 11.8.06c-1.5 0-2.72.75-2.72 3.18 0 1.76 1.2 3.18 2.7 3.18m6.02 5.25L16.4 8.6c-.06-.16-.17-.27-.3-.34l-2.14-1.1c-.04-.04-.1-.03-.14 0-.6.46-1.3.7-2.05.7-.74 0-1.45-.24-2.05-.7-.04-.03-.1-.04-.15 0l-2.12 1.1c-.14.07-.25.18-.3.33L5.8 11.64c-.1.2-.08.46.05.65.13.2.34.3.57.3h10.74c.24 0 .45-.1.58-.3.12-.2.14-.43.05-.64"/></svg>