<svg xmlns="http://www.w3.org/2000/svg" width="20" height="16"><path fill="#FFF" stroke="#FFF" stroke-width=".75" d="M19 8.94l-.02-.07c0-.02 0-.04-.03-.06L14.6 1.18c-.06-.1-.18-.17-.3-.17H5.7c-.13 0-.24.06-.3.16L1.04 8.8 1 8.88c0 .02 0 .05-.02.07v5.56c0 .2.15.36.35.36h17.3c.2 0 .34-.15.34-.34V8.95zM5.9 1.7h8.2l3.95 6.9H13.5c-.15 0-.3.1-.33.26l-.68 2.18h-5l-.7-2.18c-.04-.15-.17-.25-.33-.25H1.93L5.9 1.7zm12.4 12.45H1.7V9.3h4.54l.67 2.18c.08.15.2.25.36.25h5.5c.16 0 .3-.1.34-.25l.67-2.17h4.54v4.87z"/></svg>