<?xml version="1.0" encoding="UTF-8" standalone="no"?>
<svg width="20px" height="16px" viewBox="0 0 20 16" version="1.1" xmlns="http://www.w3.org/2000/svg" xmlns:xlink="http://www.w3.org/1999/xlink">
    <!-- Generator: Sketch 42 (36781) - http://www.bohemiancoding.com/sketch -->
    <title>Icon_Orders</title>
    <desc>Created with Sketch.</desc>
    <defs></defs>
    <g id="Page-1" stroke="none" stroke-width="1" fill="none" fill-rule="evenodd">
        <g id="Artboard-Copy" transform="translate(-66.000000, -131.000000)" stroke="#FFFFFF" stroke-width="0.75" fill="#FFFFFF" fill-rule="nonzero">
            <g id="Icon_Orders" transform="translate(67.000000, 132.000000)">
                <path d="M17.9903669,7.93939299 C17.9890722,7.91658609 17.9827978,7.89487471 17.9768222,7.87226699 C17.970747,7.84936049 17.965369,7.82715114 17.9549117,7.8063361 C17.9519239,7.8002609 17.952123,7.79348854 17.9486373,7.78751294 L13.6004855,0.174388182 C13.5389368,0.0666280377 13.4242051,0 13.300012,0 L4.69413947,0 C4.5699464,0 4.45521471,0.0666280377 4.39366594,0.174388182 L0.0456138136,7.78751294 C0.0422276353,7.79348854 0.0424268222,7.8002609 0.0393394244,7.8063361 C0.028882109,7.82715114 0.0236036546,7.84936049 0.0174288589,7.87226699 C0.0114532501,7.89487471 0.00517886093,7.91648649 0.0038841457,7.93939299 C0.00358536526,7.94616535 0,7.95214096 0,7.95921209 L0,13.4959124 C0,13.6871319 0.154967454,13.8419997 0.346087341,13.8419997 L17.6483629,13.8419997 C17.8394828,13.8419997 17.9944503,13.6872315 17.9944503,13.4959124 L17.9944503,7.95921209 C17.9943507,7.95214096 17.9907653,7.94616535 17.9903669,7.93939299 Z M4.89511911,0.692274275 L13.099132,0.692274275 L17.0520968,7.61322435 L12.5004756,7.61322435 C12.3486951,7.61322435 12.2147419,7.71192148 12.1699248,7.85683 L11.4947806,10.035537 L6.49947047,10.035537 L5.82422668,7.85683 C5.7795092,7.71192148 5.64545638,7.61322435 5.49377551,7.61322435 L0.942154315,7.61322435 L4.89511911,0.692274275 Z M17.3022756,13.1497255 L0.692075088,13.1497255 L0.692075088,8.30510025 L5.2388162,8.30510025 L5.91405999,10.4838072 C5.95877747,10.6287157 6.09283029,10.7274129 6.24451116,10.7274129 L11.7498395,10.7274129 C11.90162,10.7274129 12.0355732,10.6287157 12.0803903,10.4838072 L12.7555345,8.30510025 L17.3022756,8.30510025 L17.3022756,13.1497255 L17.3022756,13.1497255 Z" id="Shape"></path>
            </g>
        </g>
    </g>
</svg>