<svg width="24" height="22" viewBox="0 0 24 22" xmlns="http://www.w3.org/2000/svg"><title>Icon/Main nav/Inbox/Active</title><desc>Created with Sketch.</desc><path d="M21.369 11.959v5.537c0 .398-.323.721-.721.721h-17.302c-.398 0-.721-.323-.721-.721v-5.537l.009-.086.011-.058.013-.05.041-.116.021-.048 4.348-7.613c.128-.225.367-.363.626-.363h8.606c.259 0 .498.139.626.363l4.346 7.61.023.05.042.12.013.049.011.063.009.079zm-1.442.721h-3.895l-.593 1.915c-.093.302-.373.508-.689.508h-5.505c-.316 0-.596-.206-.689-.508l-.593-1.915h-3.895v4.095h15.86v-4.095zm-11.814-7.613l-3.525 6.171h3.906c.316 0 .596.206.689.508l.593 1.915h4.443l.593-1.915c.093-.302.373-.508.689-.508h3.906l-3.525-6.171h-7.769z" fill="#fff"/></svg>