<?xml version="1.0" encoding="UTF-8" standalone="no"?>
<svg width="18px" height="17px" viewBox="0 0 18 17" version="1.1" xmlns="http://www.w3.org/2000/svg" xmlns:xlink="http://www.w3.org/1999/xlink">
    <!-- Generator: Sketch 42 (36781) - http://www.bohemiancoding.com/sketch -->
    <title>Icon_Integrations</title>
    <desc>Created with Sketch.</desc>
    <defs></defs>
    <g id="Page-1" stroke="none" stroke-width="1" fill="none" fill-rule="evenodd">
        <g id="Artboard-Copy" transform="translate(-196.000000, -355.000000)" fill-rule="nonzero" fill="#FFFFFF">
            <path d="M213.382006,368.289186 C214.212257,367.444241 214.212257,366.072141 213.382006,365.230935 C212.551755,364.38599 211.203515,364.38599 210.376938,365.230935 L209.249119,366.378713 C208.936856,366.696502 208.426215,366.696502 208.113952,366.378713 L206.100777,364.326171 C205.975872,364.199055 205.806883,364.12802 205.63422,364.12802 C205.457883,364.12802 205.288894,364.199055 205.167663,364.326171 C204.616611,364.886975 203.885549,365.197286 203.103056,365.197286 C202.320563,365.197286 201.589501,364.886975 201.038449,364.326171 L199.216305,362.471779 L203.341845,358.273226 L205.163989,360.127618 C205.670957,360.643558 205.972198,361.327739 206.012609,362.053045 C206.034651,362.41196 206.324871,362.688623 206.673871,362.688623 C207.077975,362.666191 207.357175,362.348402 207.335133,361.978271 C207.276354,360.920221 206.835513,359.925729 206.100777,359.17799 L204.278633,357.323598 L204.480685,357.11797 C204.737843,356.856261 204.737843,356.43005 204.480685,356.164603 C204.223528,355.902894 203.804728,355.902894 203.543897,356.164603 L202.247089,357.484362 L199.998798,355.196281 C199.741641,354.934573 199.322842,354.934573 199.06201,355.196281 C198.804853,355.45799 198.804853,355.884201 199.06201,356.149648 L201.310301,358.437729 L199.377947,360.404281 L197.129656,358.116201 C196.872498,357.854492 196.453699,357.854492 196.192868,358.116201 C195.935711,358.37791 195.935711,358.804121 196.192868,359.069568 L198.444833,361.357648 L197.148024,362.677407 C196.890867,362.939115 196.890867,363.365327 197.148024,363.630774 C197.276603,363.761628 197.445592,363.828925 197.614581,363.828925 C197.783571,363.828925 197.95256,363.761628 198.081138,363.630774 L198.283191,363.425146 L200.105335,365.279538 C200.906197,366.094573 201.971563,366.543216 203.103056,366.543216 C204.010454,366.543216 204.877442,366.255337 205.597483,365.716965 L207.180838,367.328342 C207.595964,367.750814 208.139668,367.960181 208.683372,367.960181 C209.227077,367.960181 209.770781,367.750814 210.185907,367.328342 L211.313726,366.180563 C211.625988,365.862774 212.13663,365.862774 212.448892,366.180563 C212.761155,366.498352 212.761155,367.01803 212.448892,367.335819 L211.321073,368.483598 C210.920642,368.891115 210.700222,369.433226 210.700222,370.012723 C210.700222,370.592221 210.920642,371.134331 211.321073,371.541849 C211.449652,371.672703 211.618641,371.74 211.78763,371.74 C211.956619,371.74 212.125609,371.672703 212.254187,371.541849 C212.511345,371.28014 212.511345,370.853929 212.254187,370.588482 C212.103566,370.435196 212.019072,370.229568 212.019072,370.012723 C212.019072,369.795879 212.103566,369.590251 212.254187,369.436965 L213.382006,368.289186 Z" id="Icon_Integrations"></path>
        </g>
    </g>
</svg>