<svg width="24" height="22" viewBox="0 0 24 22" xmlns="http://www.w3.org/2000/svg"><title>Icon/Main nav/Wire/Active</title><desc>Created with Sketch.</desc><path d="M20.382 16.289c.83-.845.83-2.217 0-3.058-.83-.845-2.178-.845-3.005 0l-1.128 1.148c-.312.318-.823.318-1.135 0l-2.013-2.053c-.125-.127-.294-.198-.467-.198-.176 0-.345.071-.467.198-.551.561-1.282.871-2.065.871-.782 0-1.514-.31-2.065-.871l-1.822-1.854 4.126-4.199 1.822 1.854c.507.516.808 1.2.849 1.925.022.359.312.636.661.636.404-.022.683-.34.661-.71-.059-1.058-.5-2.053-1.234-2.8l-1.822-1.854.202-.206c.257-.262.257-.688 0-.953-.257-.262-.676-.262-.937 0l-1.297 1.32-2.248-2.288c-.257-.262-.676-.262-.937 0-.257.262-.257.688 0 .953l2.248 2.288-1.932 1.967-2.248-2.288c-.257-.262-.676-.262-.937 0-.257.262-.257.688 0 .953l2.252 2.288-1.297 1.32c-.257.262-.257.688 0 .953.129.131.298.198.467.198.169 0 .338-.067.467-.198l.202-.206 1.822 1.854c.801.815 1.866 1.264 2.998 1.264.907 0 1.774-.288 2.494-.826l1.583 1.611c.415.422.959.632 1.503.632.544 0 1.087-.209 1.503-.632l1.128-1.148c.312-.318.823-.318 1.135 0 .312.318.312.837 0 1.155l-1.128 1.148c-.4.408-.621.95-.621 1.529s.22 1.122.621 1.529c.129.131.298.198.467.198.169 0 .338-.067.467-.198.257-.262.257-.688 0-.953-.151-.153-.235-.359-.235-.576 0-.217.084-.422.235-.576l1.128-1.148z" fill-rule="nonzero" fill="#fff"/></svg>