<svg xmlns="http://www.w3.org/2000/svg" width="18" height="17"><path fill="#FFF" d="M17.38 13.3c.83-.86.83-2.23 0-3.07-.83-.84-2.18-.84-3 0l-1.13 1.15c-.3.32-.82.32-1.14 0l-2-2.05c-.1-.13-.3-.2-.4-.2-.1 0-.3.07-.4.2-.5.56-1.3.87-2 .87-.76 0-1.5-.3-2.04-.87L3.3 7.47l4.12-4.2 1.8 1.86c.5.5.8 1.2.85 1.92.1.36.38.64.7.64.4-.1.7-.4.7-.8-.06-1.1-.5-2.1-1.24-2.8L8.3 2.3l.2-.2c.26-.26.26-.7 0-.96s-.68-.26-.94 0L6.26 2.5 4 .2c-.26-.27-.68-.27-.94 0-.26.26-.26.68 0 .95l2.25 2.3L3.4 5.4 1.13 3.12c-.26-.27-.68-.27-.94 0-.3.26-.3.68 0 .95l2.2 2.3-1.3 1.3c-.3.27-.3.7 0 .96.1.13.3.2.4.2.1 0 .3-.07.4-.2l.2-.2L4 10.28c.8.8 1.9 1.26 3 1.26.9 0 1.8-.28 2.5-.82l1.6 1.6c.4.43.96.64 1.5.64.55 0 1.1-.2 1.5-.63l1.13-1.15c.32-.32.83-.32 1.14 0 .3.32.3.84 0 1.16l-1.13 1.14c-.4.4-.6.95-.6 1.53 0 .6.2 1.2.6 1.6.13.2.3.2.47.2.2 0 .4 0 .5-.2.3-.2.3-.7 0-.9-.1-.1-.2-.3-.2-.6 0-.2.1-.4.3-.5l1.16-1.1z"/></svg>