<svg width="24" height="22" viewBox="0 0 24 22" xmlns="http://www.w3.org/2000/svg"><title>Icon/Main nav/Tag/Active</title><desc>Created with Sketch.</desc><path d="M20.47 10.62l-8.101-8.098c-.323-.325-.774-.523-1.268-.523h-6.302c-.988 0-1.798.81-1.798 1.798v6.302c0 .494.198.946.53 1.279l8.101 8.098c.323.326.774.523 1.268.523s.946-.198 1.268-.53l6.302-6.302c.333-.323.531-.775.531-1.269 0-.494-.208-.953-.53-1.279zm-12.971-2.322c-.993 0-1.8-.803-1.8-1.8 0-.993.807-1.8 1.8-1.8.997 0 1.8.807 1.8 1.8 0 .997-.803 1.8-1.8 1.8z" fill-rule="nonzero" fill="#fff"/></svg>