<svg width="24" height="22" viewBox="0 0 24 22" xmlns="http://www.w3.org/2000/svg"><title>Icon/Main nav/Scissors/Active</title><desc>Created with Sketch.</desc><path d="M15.364 5.972c-.526-.523-1.239-.814-1.98-.81-.742.004-1.451.303-1.972.831l-2.986 3.027-.957-.961c.774-.981.711-2.409-.191-3.317-.974-.981-2.56-.991-3.541-.018-.981.974-.982 2.56-.008 3.54l2.732 2.746-2.683 2.72c-.974.981-.973 2.567.008 3.541.981.974 2.567.964 3.541-.018.901-.908.965-2.335.191-3.316l.923-.936 3.105 3.122c1.091 1.096 2.863 1.102 3.961.012l-5.103-5.128 4.96-5.036zm-9.2 1.207c-.37.367-.969.365-1.337-.004-.367-.37-.365-.969.005-1.337.37-.367.969-.365 1.336.005.367.37.365.969-.005 1.336zm.054 8.974c-.367.37-.967.373-1.337.005-.37-.367-.372-.967-.005-1.337.367-.369.967-.372 1.337-.005.369.367.372.967.005 1.336zm2.202-4.172c-.525 0-.95-.425-.95-.95 0-.525.425-.95.95-.95.525 0 .95.425.95.95 0 .525-.426.95-.95.95zm3.576-1.983h1.844v1.291h-1.844v-1.291zm3.499 0h1.844v1.291h-1.844v-1.291zm3.499 0h1.844v1.291h-1.844v-1.291z" fill="#fff"/></svg>