<svg xmlns="http://www.w3.org/2000/svg" width="18" height="14"><g fill="#FFF" fill-rule="evenodd"><path d="M12.36 1.97c-.52-.52-1.24-.8-1.98-.8s-1.45.3-1.97.82L5.47 5l-.96-.96c.76-.98.7-2.4-.2-3.32-1-.96-2.57-.98-3.55 0s-1 2.56 0 3.54L3.45 7 .78 9.74c-.98.98-.98 2.57 0 3.54 1 .98 2.57.97 3.55-.02.9-.9.96-2.33.2-3.3l.9-.95 3.12 3.15c1.1 1.1 2.86 1.1 3.96.02L7.4 7l4.96-5.03zm-9.2 1.2c-.37.38-.97.37-1.33 0-.37-.37-.37-.96 0-1.33.37-.37.97-.37 1.34 0 .37.37.36.97 0 1.34zm.06 8.98c-.37.37-.97.38-1.34 0-.37-.36-.37-.96 0-1.33.36-.37.96-.37 1.33 0 .4.36.4.96.05 1.33zm2.2-4.17c-.52 0-.95-.42-.95-.95 0-.52.43-.95.95-.95s.95.43.95.95c0 .53-.43.95-.95.95z"/><path d="M9 6h1.84v1.3H9M12.5 6h1.84v1.3H12.5M16 6h1.84v1.3H16"/></g></svg>