<?xml version="1.0" encoding="UTF-8" standalone="no"?>
<svg width="18px" height="12px" viewBox="0 0 18 12" version="1.1" xmlns="http://www.w3.org/2000/svg" xmlns:xlink="http://www.w3.org/1999/xlink">
    <!-- Generator: Sketch 42 (36781) - http://www.bohemiancoding.com/sketch -->
    <title>Icon_SKUs</title>
    <desc>Created with Sketch.</desc>
    <defs></defs>
    <g id="Page-1" stroke="none" stroke-width="1" fill="none" fill-rule="evenodd">
        <g id="Artboard-Copy" transform="translate(-69.000000, -357.000000)" fill="#FFFFFF">
            <g id="Icon_SKUs" transform="translate(69.000000, 357.000000)">
                <polygon id="Fill-1" points="0.137699998 0.0221399996 2.14955996 0.0221399996 2.14955996 11.6645398 0.137699998 11.6645398"></polygon>
                <polygon id="Fill-2" points="13.2686998 0.0221399996 15.2830798 0.0221399996 15.2830798 11.6645398 13.2686998 11.6645398"></polygon>
                <polygon id="Fill-3" points="3.40973994 0.0221399996 4.41467993 0.0221399996 4.41467993 11.6645398 3.40973994 11.6645398"></polygon>
                <polygon id="Fill-4" points="9.68147984 0.0221399996 10.6878598 0.0221399996 10.6878598 11.6645398 9.68147984 11.6645398"></polygon>
                <polygon id="Fill-5" points="11.4451198 0.0221399996 12.4480798 0.0221399996 12.4480798 11.6645398 11.4451198 11.6645398"></polygon>
                <polygon id="Fill-6" points="15.7222797 0.0221399996 16.7304597 0.0221399996 16.7304597 11.6645398 15.7222797 11.6645398"></polygon>
                <polygon id="Fill-7" points="17.4846597 0.0221399996 17.9881197 0.0221399996 17.9881197 11.6645398 17.4846597 11.6645398"></polygon>
                <polygon id="Fill-8" points="5.71625991 0.0221399996 8.73701986 0.0221399996 8.73701986 11.6645398 5.71625991 11.6645398"></polygon>
            </g>
        </g>
    </g>
</svg>