<svg width="24" height="22" viewBox="0 0 24 22" xmlns="http://www.w3.org/2000/svg"><title>Icon/Main nav/Filter/Active</title><desc>Created with Sketch.</desc><path d="M9.615 19.18v-6.377l-6.487-9.64c-.263-.304-.15-1.138.618-1.163h16.434c.446 0 1.013.527.618 1.163l-6.487 9.64v3.959c0 .234-.11.454-.296.596l-3.205 2.418c-.183.205-1.101.34-1.196-.596zm-4.463-15.688l5.832 8.667c.084.124.128.267.128.417v5.107l1.712-1.291v-3.816c0-.15.044-.293.128-.417l5.824-8.667h-13.624z" fill-rule="nonzero" fill="#fff"/></svg>