<?xml version="1.0" standalone="no"?>
<svg version="1.0" xmlns="http://www.w3.org/2000/svg"
 width="260.000000pt" height="260.000000pt" viewBox="0 0 260.000000 260.000000"
 preserveAspectRatio="xMidYMid meet">
<g transform="translate(0.000000,260.000000) scale(0.100000,-0.100000)"
fill="#000000" stroke="none">
<path d="M2235 2569 c-17 -54 -80 -167 -125 -223 -59 -74 -111 -122 -257 -238
l-112 -89 -63 15 c-90 21 -196 30 -319 28 l-107 -1 -85 113 c-111 146 -246
280 -333 332 -98 57 -104 59 -105 26 0 -15 -2 -79 -4 -142 -3 -142 -11 -231
-31 -380 -18 -130 -15 -126 -126 -191 l-68 -40 0 -235 0 -235 -51 -132 c-106
-272 -176 -521 -195 -689 -3 -29 -8 -64 -10 -78 -3 -14 -7 -92 -10 -175 -3
-82 -6 -157 -8 -167 -4 -17 10 -21 109 -33 28 -4 61 -8 75 -11 105 -19 110
-18 205 42 80 49 96 64 133 124 96 155 275 305 440 369 44 17 122 42 173 55
221 60 591 164 595 169 3 3 -3 22 -14 44 -11 21 -25 56 -31 79 l-11 41 76 79
c210 219 332 453 380 728 40 225 19 455 -62 706 -41 127 -49 142 -59 109z
m-1355 -158 c83 -67 169 -162 281 -311 74 -100 77 -102 107 -95 47 11 259 5
342 -10 47 -8 86 -15 88 -15 2 0 -34 -37 -80 -82 -46 -46 -90 -92 -98 -103
-101 -136 -142 -266 -144 -464 l-1 -64 -110 -39 c-184 -64 -430 -194 -476
-251 -9 -12 -28 -34 -41 -49 -72 -84 -252 -415 -333 -613 -20 -49 -41 -94 -45
-99 -5 -5 -26 -11 -46 -13 l-37 -4 7 98 c7 95 10 120 22 201 3 20 7 51 9 67 3
17 7 41 10 55 3 14 7 34 9 45 24 122 98 349 179 545 125 306 199 563 223 779
3 30 7 63 10 74 6 35 22 274 23 371 l1 48 28 -17 c15 -10 47 -34 72 -54z
m1374 -2 c1 -8 8 -32 14 -55 14 -47 30 -129 40 -194 13 -92 5 -322 -16 -425
-29 -144 -30 -150 -56 -218 -33 -88 -71 -160 -128 -246 -62 -90 -67 -97 -151
-185 l-68 -71 6 44 c8 57 31 126 58 171 11 19 29 49 39 67 l19 32 -43 -4 c-24
-3 -81 -7 -128 -10 -47 -4 -91 -8 -97 -10 -10 -3 -12 25 -9 121 1 69 -1 127
-5 130 -4 2 -32 -8 -61 -24 -92 -50 -234 -122 -241 -122 -7 0 0 67 14 127 12
58 51 143 90 200 30 44 148 166 195 203 275 215 424 354 479 447 28 48 43 55
49 22z m-1600 -626 c-13 -53 -73 -258 -88 -298 -14 -38 -15 -34 -15 112 l-1
151 48 30 c59 38 64 39 56 5z m1027 -423 l-1 -112 88 6 c49 4 102 9 117 12 20
3 26 1 22 -8 -79 -179 -84 -244 -32 -424 6 -19 -5 -24 -172 -68 -400 -107
-521 -144 -616 -192 -143 -73 -287 -203 -376 -338 -42 -65 -63 -87 -114 -118
l-62 -38 -28 33 c-15 17 -39 48 -53 68 l-25 37 41 98 c95 223 252 504 345 615
25 31 159 119 179 119 3 0 6 -9 6 -20 0 -26 40 -67 73 -75 15 -4 39 0 60 10
54 26 71 82 42 139 -9 16 -14 30 -13 31 10 6 106 42 178 66 l85 27 3 60 3 61
69 35 c38 20 93 49 122 65 29 16 54 28 56 26 2 -2 3 -54 3 -115z"/>
</g>
</svg>
