<svg xmlns="http://www.w3.org/2000/svg" width="346.67" height="346.67" version="1" viewBox="0 0 260 260"><path d="M223.5 3.1c-1.7 5.4-8 16.7-12.5 22.3-5.9 7.4-11.1 12.2-25.7 23.8l-11.2 8.9-6.3-1.5c-9-2.1-19.6-3-31.9-2.8l-10.7.1-8.5-11.3C105.6 28 92.1 14.6 83.4 9.4 73.6 3.7 73 3.5 72.9 6.8c0 1.5-.2 7.9-.4 14.2-.3 14.2-1.1 23.1-3.1 38-1.8 13-1.5 12.6-12.6 19.1l-6.8 4v47l-5.1 13.2c-10.6 27.2-17.6 52.1-19.5 68.9-.3 2.9-.8 6.4-1 7.8-.3 1.4-.7 9.2-1 17.5-.3 8.2-.6 15.7-.8 16.7-.4 1.7 1 2.1 10.9 3.3 2.8.4 6.1.8 7.5 1.1 10.5 1.9 11 1.8 20.5-4.2 8-4.9 9.6-6.4 13.3-12.4 9.6-15.5 27.5-30.5 44-36.9 4.4-1.7 12.2-4.2 17.3-5.5 22.1-6 59.1-16.4 59.5-16.9.3-.3-.3-2.2-1.4-4.4-1.1-2.1-2.5-5.6-3.1-7.9l-1.1-4.1 7.6-7.9c21-21.9 33.2-45.3 38-72.8 4-22.5 1.9-45.5-6.2-70.6-4.1-12.7-4.9-14.2-5.9-10.9zM88 18.9c8.3 6.7 16.9 16.2 28.1 31.1 7.4 10 7.7 10.2 10.7 9.5 4.7-1.1 25.9-.5 34.2 1 4.7.8 8.6 1.5 8.8 1.5.2 0-3.4 3.7-8 8.2-4.6 4.6-9 9.2-9.8 10.3-10.1 13.6-14.2 26.6-14.4 46.4l-.1 6.4-11 3.9c-18.4 6.4-43 19.4-47.6 25.1-.9 1.2-2.8 3.4-4.1 4.9-7.2 8.4-25.2 41.5-33.3 61.3-2 4.9-4.1 9.4-4.5 9.9-.5.5-2.6 1.1-4.6 1.3l-3.7.4.7-9.8c.7-9.5 1-12 2.2-20.1.3-2 .7-5.1.9-6.7.3-1.7.7-4.1 1-5.5.3-1.4.7-3.4.9-4.5 2.4-12.2 9.8-34.9 17.9-54.5 12.5-30.6 19.9-56.3 22.3-77.9.3-3 .7-6.3 1-7.4.6-3.5 2.2-27.4 2.3-37.1l.1-4.8 2.8 1.7c1.5 1 4.7 3.4 7.2 5.4zm137.4.2c.1.8.8 3.2 1.4 5.5 1.4 4.7 3 12.9 4 19.4 1.3 9.2.5 32.2-1.6 42.5-2.9 14.4-3 15-5.6 21.8-3.3 8.8-7.1 16-12.8 24.6-6.2 9-6.7 9.7-15.1 18.5l-6.8 7.1.6-4.4c.8-5.7 3.1-12.6 5.8-17.1 1.1-1.9 2.9-4.9 3.9-6.7l1.9-3.2-4.3.4c-2.4.3-8.1.7-12.8 1-4.7.4-9.1.8-9.7 1-1 .3-1.2-2.5-.9-12.1.1-6.9-.1-12.7-.5-13-.4-.2-3.2.8-6.1 2.4-9.2 5-23.4 12.2-24.1 12.2-.7 0 0-6.7 1.4-12.7 1.2-5.8 5.1-14.3 9-20 3-4.4 14.8-16.6 19.5-20.3 27.5-21.5 42.4-35.4 47.9-44.7 2.8-4.8 4.3-5.5 4.9-2.2zm-160 62.6c-1.3 5.3-7.3 25.8-8.8 29.8-1.4 3.8-1.5 3.4-1.5-11.2L55 85.2l4.8-3c5.9-3.8 6.4-3.9 5.6-.5zM168.1 124l-.1 11.2 8.8-.6c4.9-.4 10.2-.9 11.7-1.2 2-.3 2.6-.1 2.2.8-7.9 17.9-8.4 24.4-3.2 42.4.6 1.9-.5 2.4-17.2 6.8-40 10.7-52.1 14.4-61.6 19.2-14.3 7.3-28.7 20.3-37.6 33.8-4.2 6.5-6.3 8.7-11.4 11.8l-6.2 3.8-2.8-3.3c-1.5-1.7-3.9-4.8-5.3-6.8l-2.5-3.7 4.1-9.8c9.5-22.3 25.2-50.4 34.5-61.5C84 163.8 97.4 155 99.4 155c.3 0 .6.9.6 2 0 2.6 4 6.7 7.3 7.5 1.5.4 3.9 0 6-1 5.4-2.6 7.1-8.2 4.2-13.9-.9-1.6-1.4-3-1.3-3.1 1-.6 10.6-4.2 17.8-6.6l8.5-2.7.3-6 .3-6.1 6.9-3.5c3.8-2 9.3-4.9 12.2-6.5 2.9-1.6 5.4-2.8 5.6-2.6.2.2.3 5.4.3 11.5z"/></svg>