<?xml version="1.0" encoding="utf-8"?>
<!-- Generator: Adobe Illustrator 18.1.1, SVG Export Plug-In . SVG Version: 6.00 Build 0)  -->
<!DOCTYPE svg PUBLIC "-//W3C//DTD SVG 1.1//EN" "http://www.w3.org/Graphics/SVG/1.1/DTD/svg11.dtd">
<svg version="1.1" id="Layer_1" xmlns="http://www.w3.org/2000/svg" xmlns:xlink="http://www.w3.org/1999/xlink" x="0px" y="0px"
	 viewBox="0 0 56 38" enable-background="new 0 0 56 38" xml:space="preserve">
<g>
	<g>
		<path fill="#4FC3C9" d="M56,33.6c0,2.062-1.671,3.733-3.733,3.733H3.733C1.671,37.333,0,35.662,0,33.6V3.733
			C0,1.671,1.671,0,3.733,0h48.533C54.329,0,56,1.671,56,3.733V33.6z"/>
	</g>
	<path fill="none" stroke="#FFFFFF" stroke-width="1.7244" stroke-miterlimit="10" d="M28,18.667"/>
	<path fill="#FFFFFF" d="M56,17.267H38.471c0.416-0.397,0.793-0.828,1.096-1.303c1.376-2.163,1.897-5.639-0.214-8.157
		c-1.198-1.429-2.989-2.216-5.042-2.216c-1.04,0-2.066,0.206-2.968,0.594c-0.705,0.303-1.354,0.751-1.942,1.292V0H26.6v7.548
		c-0.608-0.574-1.285-1.046-2.021-1.363c-0.902-0.388-1.928-0.594-2.968-0.594c-2.054,0-3.844,0.787-5.042,2.216
		c-2.111,2.519-1.591,5.994-0.214,8.157c0.303,0.475,0.679,0.906,1.096,1.303H0v2.799h24.394c-2.24,2.19-5.789,5.365-9.176,7.142
		l1.627,3.1c3.658-1.92,7.348-5.167,9.755-7.501v14.526H29.4V22.807c2.407,2.333,6.098,5.581,9.755,7.501l1.627-3.1
		c-3.381-1.774-6.932-4.95-9.174-7.142H56V17.267z M29.669,12.846c0.387-1.792,1.51-3.324,2.859-3.905
		c0.522-0.226,1.155-0.35,1.782-0.35c0.667,0,1.91,0.149,2.744,1.144c1.21,1.443,0.631,3.599-0.018,4.618
		c-1.008,1.584-3.063,2.292-4.651,2.292c-1.017,0-1.851-0.275-2.289-0.757C29.556,15.294,29.392,14.128,29.669,12.846z
		 M18.868,9.734c0.834-0.994,2.077-1.144,2.744-1.144c0.626,0,1.259,0.124,1.782,0.35c1.35,0.581,2.472,2.114,2.859,3.906
		c0.277,1.282,0.113,2.447-0.427,3.041c-0.432,0.475-1.287,0.757-2.289,0.757c-1.588,0-3.643-0.708-4.651-2.292
		C18.236,13.333,17.658,11.178,18.868,9.734z"/>
</g>
</svg>
