<?xml version="1.0" encoding="utf-8"?>
<!-- Generator: Adobe Illustrator 18.1.1, SVG Export Plug-In . SVG Version: 6.00 Build 0)  -->
<!DOCTYPE svg PUBLIC "-//W3C//DTD SVG 1.1//EN" "http://www.w3.org/Graphics/SVG/1.1/DTD/svg11.dtd">
<svg version="1.1" id="Layer_1" xmlns="http://www.w3.org/2000/svg" xmlns:xlink="http://www.w3.org/1999/xlink" x="0px" y="0px"
	 viewBox="0 0 56 38" enable-background="new 0 0 56 38" xml:space="preserve">
<g>
	<g>
		<path fill="#4FC3C9" d="M56,33.6c0,2.062-1.671,3.733-3.733,3.733H3.733C1.671,37.333,0,35.662,0,33.6V3.733
			C0,1.671,1.671,0,3.733,0h48.533C54.329,0,56,1.671,56,3.733V33.6z"/>
	</g>
	<g>
		<path fill="#FFFFFF" d="M13.105,13.175l2.162-0.416c0,0.215,0.004,0.404,0.012,0.568s0.028,0.343,0.062,0.536
			s0.078,0.352,0.135,0.475s0.137,0.227,0.24,0.311s0.226,0.126,0.366,0.126c0.422,0,0.633-0.27,0.633-0.809
			c0-0.738-0.416-1.473-1.248-2.203L14.804,11.2c-0.211-0.176-0.379-0.322-0.504-0.439s-0.272-0.275-0.442-0.475
			s-0.303-0.392-0.398-0.577S13.282,9.3,13.213,9.038s-0.103-0.539-0.103-0.832c0-0.855,0.271-1.532,0.814-2.03
			s1.264-0.747,2.162-0.747c0.746,0,1.381,0.266,1.904,0.797s0.785,1.172,0.785,1.922l-0.006,0.076c0,0.051,0,0.109,0,0.176
			l-2.203,0.305c0-0.043,0.003-0.11,0.009-0.202s0.009-0.167,0.009-0.226c0-0.141-0.01-0.275-0.029-0.404s-0.052-0.258-0.097-0.387
			s-0.114-0.231-0.208-0.308s-0.207-0.114-0.34-0.114c-0.234,0-0.41,0.092-0.527,0.275s-0.176,0.4-0.176,0.65
			c0,0.219,0.034,0.424,0.103,0.615s0.172,0.37,0.311,0.536s0.267,0.304,0.384,0.413c0.117,0.109,0.273,0.243,0.469,0.401
			s0.334,0.274,0.416,0.349c0.301,0.266,0.555,0.515,0.762,0.747s0.402,0.495,0.586,0.788s0.321,0.609,0.413,0.949
			s0.138,0.707,0.138,1.102c0,0.738-0.264,1.343-0.791,1.813s-1.168,0.706-1.922,0.706c-0.488,0-0.922-0.09-1.301-0.27
			s-0.685-0.424-0.917-0.732s-0.411-0.65-0.536-1.025S13.124,13.604,13.105,13.175z"/>
		<path fill="#FFFFFF" d="M20.64,16.192V7.239h-1.547V5.645h5.197v1.594h-1.518v8.953H20.64z"/>
		<path fill="#FFFFFF" d="M24.759,12.723V9.178c0-2.492,1.027-3.738,3.082-3.738c2.059,0,3.088,1.246,3.088,3.738v3.492
			c0,0.422-0.031,0.812-0.094,1.169s-0.169,0.696-0.319,1.017s-0.342,0.593-0.574,0.817s-0.526,0.401-0.882,0.53
			s-0.762,0.193-1.219,0.193c-0.453,0-0.857-0.063-1.213-0.19s-0.648-0.299-0.879-0.516s-0.421-0.482-0.571-0.797
			s-0.258-0.649-0.322-1.005S24.759,13.145,24.759,12.723z M28.796,13.204V8.645c0-1.039-0.318-1.559-0.955-1.559
			c-0.191,0-0.354,0.048-0.486,0.144s-0.23,0.227-0.293,0.393s-0.106,0.33-0.132,0.492s-0.038,0.339-0.038,0.53v4.559
			c0,1.035,0.316,1.553,0.949,1.553C28.478,14.757,28.796,14.239,28.796,13.204z"/>
		<path fill="#FFFFFF" d="M32.048,16.192V5.645h2.32c0.527,0,0.991,0.05,1.392,0.149s0.751,0.256,1.052,0.469s0.529,0.5,0.686,0.861
			s0.234,0.794,0.234,1.298c0,0.219-0.008,0.414-0.023,0.586S37.657,9.377,37.6,9.597s-0.134,0.416-0.231,0.586
			s-0.238,0.337-0.422,0.501s-0.4,0.301-0.65,0.41c0.633,2.008,1.184,3.707,1.652,5.098H35.74l-1.207-4.857h-0.352v4.857H32.048z
			 M34.181,10.034h0.609c0.164,0,0.305-0.055,0.422-0.164s0.202-0.248,0.255-0.416s0.09-0.322,0.111-0.463s0.032-0.273,0.032-0.398
			s-0.009-0.254-0.026-0.387s-0.049-0.28-0.094-0.442s-0.119-0.295-0.223-0.398S35.039,7.21,34.89,7.21h-0.709V10.034z"/>
		<path fill="#FFFFFF" d="M38.623,16.192V5.645h4.4V7.11h-2.268v2.871h1.605v1.5h-1.605v3.246h2.268v1.465H38.623z"/>
	</g>
	<g>
		<path fill="#FFFFFF" d="M11.4,27.171v-3.492c0-2.492,1.02-3.738,3.059-3.738c0.43,0,0.812,0.058,1.146,0.173
			s0.614,0.274,0.841,0.478s0.413,0.453,0.56,0.75s0.252,0.619,0.316,0.967s0.097,0.73,0.097,1.148v0.908H15.32v-0.973
			c0-0.191-0.004-0.356-0.012-0.495s-0.028-0.297-0.062-0.475s-0.078-0.322-0.135-0.434s-0.141-0.206-0.252-0.284
			s-0.245-0.117-0.401-0.117c-0.617,0-0.926,0.52-0.926,1.559v4.553c0,1.035,0.309,1.553,0.926,1.553
			c0.184,0,0.338-0.053,0.463-0.158s0.215-0.255,0.27-0.448s0.092-0.383,0.111-0.568s0.029-0.397,0.029-0.636v-1.084h2.086v0.891
			c-0.008,0.402-0.041,0.773-0.1,1.113s-0.158,0.67-0.299,0.99s-0.319,0.591-0.536,0.812s-0.497,0.398-0.841,0.533
			s-0.738,0.202-1.184,0.202c-0.457,0-0.862-0.065-1.216-0.196s-0.645-0.307-0.873-0.527s-0.417-0.492-0.565-0.814
			s-0.253-0.661-0.313-1.017S11.4,27.596,11.4,27.171z"/>
		<path fill="#FFFFFF" d="M18.414,30.692V20.145h2.32c0.527,0,0.991,0.05,1.392,0.149s0.751,0.256,1.052,0.469
			s0.529,0.5,0.686,0.861s0.234,0.794,0.234,1.298c0,0.219-0.008,0.414-0.023,0.586s-0.052,0.368-0.108,0.589
			s-0.134,0.416-0.231,0.586s-0.238,0.337-0.422,0.501s-0.4,0.301-0.65,0.41c0.633,2.008,1.184,3.707,1.652,5.098h-2.209
			l-1.207-4.857h-0.352v4.857H18.414z M20.547,24.534h0.609c0.164,0,0.305-0.055,0.422-0.164s0.202-0.248,0.255-0.416
			s0.09-0.322,0.111-0.463s0.032-0.273,0.032-0.398s-0.009-0.254-0.026-0.387s-0.049-0.28-0.094-0.442s-0.119-0.295-0.223-0.398
			s-0.229-0.155-0.378-0.155h-0.709V24.534z"/>
		<path fill="#FFFFFF" d="M24.988,30.692V20.145h4.4v1.465h-2.268v2.871h1.605v1.5h-1.605v3.246h2.268v1.465H24.988z"/>
		<path fill="#FFFFFF" d="M30.15,30.692V20.145h2.203c0.703,0,1.282,0.063,1.737,0.19s0.812,0.336,1.072,0.627
			s0.439,0.64,0.539,1.046s0.149,0.924,0.149,1.553v3.457c0,0.375-0.012,0.702-0.035,0.981s-0.067,0.553-0.132,0.82
			s-0.152,0.494-0.264,0.68s-0.255,0.358-0.431,0.519s-0.388,0.287-0.636,0.381s-0.539,0.166-0.873,0.217s-0.718,0.076-1.151,0.076
			H30.15z M32.365,29.198c0.203,0,0.363-0.003,0.48-0.009s0.234-0.021,0.352-0.044s0.203-0.056,0.258-0.097s0.105-0.101,0.152-0.179
			s0.077-0.171,0.091-0.278s0.021-0.241,0.021-0.401v-5.678c0-0.348-0.104-0.578-0.311-0.691s-0.555-0.172-1.043-0.176V29.198z"/>
		<path fill="#FFFFFF" d="M36.971,30.692V20.145h2.133v10.547H36.971z"/>
		<path fill="#FFFFFF" d="M41.359,30.692v-8.953h-1.547v-1.594h5.197v1.594h-1.518v8.953H41.359z"/>
	</g>
</g>
</svg>
