<?xml version="1.0" encoding="UTF-8" standalone="no"?>
<svg width="20px" height="20px" viewBox="0 0 20 20" version="1.1" xmlns="http://www.w3.org/2000/svg" xmlns:xlink="http://www.w3.org/1999/xlink">
    <!-- Generator: Sketch 3.6.1 (26313) - http://www.bohemiancoding.com/sketch -->
    <title>instagram12</title>
    <desc>Created with Sketch.</desc>
    <defs></defs>
    <g id="CAT" stroke="none" stroke-width="1" fill-rule="evenodd">
        <g id="PDP-Wire-iPhone-5" transform="translate(-79.000000, -1846.000000)">
            <g id="Mobile-Footer" transform="translate(0.000000, 1756.000000)">
                <g id="instagram12" transform="translate(79.000000, 90.000000)">
                    <path d="M2.55122449,0 L17.3253061,0 C18.7283673,0 19.8763265,1.03877551 19.8763265,2.55102041 L19.8763265,17.3255102 C19.8763265,18.8377551 18.7283673,19.8765306 17.3253061,19.8765306 L2.55122449,19.8765306 C1.1477551,19.8765306 0,18.8377551 0,17.3255102 L0,2.55102041 C0,1.03877551 1.1477551,0 2.55122449,0 L2.55122449,0 L2.55122449,0 Z M14.4791837,2.20836735 C13.9869388,2.20836735 13.5846939,2.61081633 13.5846939,3.10326531 L13.5846939,5.24510204 C13.5846939,5.73734694 13.9869388,6.14 14.4791837,6.14 L16.7257143,6.14 C17.2179592,6.14 17.6206122,5.73734694 17.6206122,5.24510204 L17.6206122,3.10326531 C17.6206122,2.61081633 17.2179592,2.20836735 16.7257143,2.20836735 L14.4791837,2.20836735 L14.4791837,2.20836735 L14.4791837,2.20836735 Z M17.63,8.40571429 L15.8806122,8.40571429 C16.0461224,8.94612245 16.1357143,9.51857143 16.1357143,10.1108163 C16.1357143,13.4169388 13.3691837,16.0969388 9.95714286,16.0969388 C6.54530612,16.0969388 3.77918367,13.4169388 3.77918367,10.1108163 C3.77918367,9.51816327 3.86857143,8.94591837 4.03428571,8.40571429 L2.20877551,8.40571429 L2.20877551,16.8018367 C2.20877551,17.2363265 2.56428571,17.5920408 2.99897959,17.5920408 L16.8402041,17.5920408 C17.274898,17.5920408 17.6304082,17.2365306 17.6304082,16.8018367 L17.6304082,8.40571429 L17.63,8.40571429 L17.63,8.40571429 Z M9.95693878,6.02714286 C7.75244898,6.02714286 5.96510204,7.75877551 5.96510204,9.89510204 C5.96510204,12.0314286 7.75244898,13.7630612 9.95693878,13.7630612 C12.1616327,13.7630612 13.9491837,12.0314286 13.9491837,9.89510204 C13.9491837,7.75877551 12.1618367,6.02714286 9.95693878,6.02714286 L9.95693878,6.02714286 Z" id="Shape"></path>
                </g>
            </g>
        </g>
    </g>
</svg>