<?xml version="1.0" encoding="UTF-8" standalone="no"?>
<svg width="420px" height="113px" viewBox="0 0 420 113" version="1.1" xmlns="http://www.w3.org/2000/svg" xmlns:xlink="http://www.w3.org/1999/xlink">
    <!-- Generator: Sketch 41.2 (35397) - http://www.bohemiancoding.com/sketch -->
    <title>Gift Giving</title>
    <desc>Created with Sketch.</desc>
    <defs></defs>
    <g id="About-Us-4" stroke="none" stroke-width="1" fill="none" fill-rule="evenodd">
        <g id="Gift-Giving" fill="#3E3436">
            <path d="M35.29,77.83 C35.42,76.92 35.55,76.14 35.81,75.36 C36.2,74.19 36.72,73.02 36.98,71.72 C37.5,70.16 37.63,68.6 38.02,67.04 C38.67,64.57 39.32,62.23 38.93,59.5 C38.8,58.46 38.8,57.29 38.93,56.12 C39.32,54.04 39.71,51.96 40.23,50.01 C41.14,46.76 39.84,44.29 37.63,41.95 C36.72,41.04 35.29,40.52 34.38,39.48 C32.69,37.79 31,37.79 28.92,38.31 C27.62,38.7 27.36,39.61 27.23,40.65 C26.97,42.34 26.71,44.16 26.71,45.85 C26.58,47.93 25.41,49.62 25.67,51.83 C25.93,53.13 25.54,54.43 25.41,55.86 C25.15,58.33 25.02,60.93 24.63,63.4 C24.11,65.74 23.07,68.08 21.38,69.9 C20.73,70.68 19.82,71.2 19.17,71.98 C18,73.28 16.57,74.19 15.01,74.71 C14.36,74.84 13.45,74.84 12.8,74.58 C12.02,74.19 12.02,73.41 12.02,72.63 C12.15,70.16 11.24,67.56 11.89,65.09 C12.28,63.66 12.67,62.36 13.19,61.06 C13.58,59.76 13.97,58.46 14.36,57.29 C14.62,56.51 14.75,55.6 15.14,54.95 C16.18,52.87 17.35,50.79 18.39,48.84 C18.91,47.8 19.43,46.63 20.08,45.59 C21.12,44.03 21.64,42.21 22.03,40.26 C22.16,39.22 22.68,38.96 23.59,39.61 C24.11,40 24.63,40.39 25.15,39.74 C25.67,39.22 25.93,38.57 25.41,37.92 C25.02,37.4 24.89,37.01 24.5,36.62 C23.33,34.93 22.29,33.24 19.95,32.98 C19.3,32.98 18.52,32.46 17.87,32.98 C17.74,33.11 17.61,32.98 17.35,32.98 C17.09,32.98 16.7,32.85 16.44,32.98 C15.01,34.28 13.58,35.45 12.15,36.88 C10.98,38.05 9.94,39.35 9.03,40.65 C7.86,42.21 6.69,43.64 5.65,45.2 C4.48,46.89 3.83,48.84 3.18,50.66 C2.79,52.09 2.27,53.39 1.88,54.69 C1.62,55.6 1.23,56.38 1.23,57.16 C0.97,58.46 0.97,59.76 0.84,60.93 C0.84,61.71 0.71,62.36 0.84,63.01 C1.36,65.09 1.62,67.3 2.79,69.25 C3.83,70.68 4.87,72.11 5.91,73.67 C6.82,75.1 8.38,75.62 9.81,76.53 C12.02,77.96 14.62,78.22 17.09,78.61 C18.52,78.87 19.43,78.09 19.56,77.05 C19.56,76.27 19.95,76.01 20.47,75.88 C20.73,75.75 20.99,75.75 21.12,75.49 C22.03,74.45 23.72,73.93 23.98,72.24 C24.24,72.63 24.24,72.89 24.24,73.15 L24.24,76.4 C24.11,77.83 24.24,79.26 24.11,80.82 C23.98,82.51 23.85,84.2 23.59,85.89 C23.59,86.41 23.2,87.06 22.81,87.45 C21.51,88.62 19.95,89.66 18.78,90.83 C16.83,92.78 15.01,94.99 13.19,97.07 C12.67,97.72 12.15,98.5 11.76,99.28 C10.85,101.36 11.11,103.83 11.24,106.17 C11.24,106.3 11.24,106.43 11.37,106.56 L13.71,110.07 C14.75,111.63 16.44,112.41 18.13,112.8 C19.3,113.06 20.21,112.93 21.12,112.41 C22.29,111.76 22.94,110.72 23.46,109.55 C23.72,108.9 23.85,108.12 24.24,107.47 C25.02,106.17 26.32,105.39 27.36,104.35 C27.75,103.96 28.27,103.57 28.4,102.92 C28.66,102.01 28.79,100.84 28.92,99.8 C29.05,98.76 29.18,97.59 29.31,96.55 C29.57,94.86 30.22,93.3 30.22,91.74 C30.22,89.4 31,87.45 31.52,85.37 C31.52,85.11 31.78,84.85 32.04,84.72 C34.9,82.25 38.02,79.91 40.88,77.44 C42.18,76.4 43.09,74.84 44.13,73.67 C44.52,73.28 55.7,60.15 54.92,59.89 C53.75,59.5 53.23,59.63 52.45,60.41 C49.59,63.66 46.86,66.91 43.87,70.03 C41.92,72.11 39.71,74.06 37.63,76.01 C36.98,76.66 36.07,77.18 35.29,77.83 Z M22.94,92.52 C22.81,93.82 22.68,95.25 22.55,96.55 C22.42,98.63 22.42,100.71 22.16,102.79 C22.03,104.48 21.77,106.04 21.25,107.6 C20.99,108.77 18.91,109.16 17.74,108.9 C15.4,108.38 14.49,106.43 13.19,104.87 C13.06,104.74 12.93,104.48 12.93,104.35 C13.06,103.31 13.06,102.4 13.32,101.49 C13.32,101.1 13.84,100.84 14.1,100.58 C14.62,100.19 15.14,99.93 15.53,99.41 C16.44,98.5 17.22,97.59 18.13,96.68 C18.52,96.29 19.17,96.03 19.56,95.64 C19.82,95.51 19.95,95.25 20.08,95.12 L22.81,92.39 L22.94,92.52 Z" id="Combined-Shape"></path>
            <path d="M56.09,30.12 L61.55,31.29 C63.63,31.29 65.19,30.12 66.49,29.08 C67.14,28.56 67.4,27.39 67.27,26.61 C67.14,25.57 67.01,24.27 65.58,23.88 C64.02,23.62 62.46,22.97 61.03,23.1 C59.21,23.23 57.52,24.01 55.83,24.4 C54.66,24.79 53.75,25.31 53.75,26.61 C53.75,27.91 54.92,29.73 56.09,30.12 Z" id="Path"></path>
            <path d="M81.05,54.82 C80.53,54.3 80.66,54.69 80.01,54.43 C79.62,55.21 79.49,55.86 79.23,56.51 C76.37,61.97 73.64,67.43 69.35,71.85 C67.92,73.28 66.75,74.97 64.54,75.36 C63.76,75.49 63.11,75.88 62.33,76.14 C62.59,75.23 62.72,74.45 63.76,74.32 C64.28,74.32 64.8,73.54 65.06,73.15 C65.32,72.76 65.19,72.24 65.19,71.72 C65.32,68.34 65.71,64.83 66.49,61.58 L66.49,60.15 C66.62,58.85 66.75,57.42 66.75,56.12 C66.88,54.04 67.01,51.96 67.01,49.88 C67.01,48.97 67.01,48.06 66.88,47.15 L66.49,45.59 C66.36,44.55 66.49,43.38 65.97,42.47 C64.8,40.91 63.89,38.96 61.81,38.18 C60.38,37.66 58.95,36.88 57.52,36.88 C55.18,36.88 53.88,38.05 53.36,40.39 C53.23,40.91 53.23,41.43 53.1,41.95 C52.84,43.25 52.58,44.55 52.45,45.85 C52.19,47.54 52.06,49.23 51.93,50.92 C51.67,53.91 51.28,56.77 51.41,59.76 C51.67,62.49 51.15,65.22 52.06,68.08 C52.45,69.51 52.58,70.94 52.97,72.24 C53.88,74.84 55.31,76.92 57.91,78.09 C59.6,78.74 61.16,78.74 62.72,78.48 C64.02,78.35 65.45,77.83 66.75,77.57 C67.53,77.18 68.44,75.75 69.09,75.23 C71.43,73.41 73.12,70.81 74.81,68.21 C75.33,67.3 75.72,66 76.24,65.09 C77.93,62.1 79.1,59.24 80.4,56.51 C80.79,55.6 81.57,55.34 81.05,54.82 Z" id="Path"></path>
            <path d="M105.88,44.94 C105.1,44.81 105.1,45.59 104.84,46.11 C103.8,47.67 102.76,49.49 101.59,51.05 C99.77,53.13 97.82,55.08 95.87,56.9 C94.57,58.2 91.84,60.02 90.41,61.32 L90.54,58.46 C90.54,57.94 90.67,57.42 90.8,56.9 C90.93,53.26 91.19,49.62 91.32,45.98 C91.45,45.2 91.71,44.42 92.23,43.77 C93.27,42.6 94.05,41.43 94.44,39.87 C94.7,38.7 95.09,37.4 95.61,36.36 C96.91,33.63 97.95,30.9 98.47,28.04 C98.73,26.87 99.12,25.7 99.12,24.53 C99.12,22.32 98.86,19.98 98.73,17.64 L98.34,15.69 C98.08,14.26 97.95,12.83 97.69,11.4 C97.56,10.49 97.43,9.45 97.17,8.54 C97.04,7.89 96.52,7.37 96.52,6.85 C96.26,5.16 95.22,3.99 94.05,2.95 C93.53,2.56 93.14,1.78 92.49,1.65 C91.06,1.52 89.63,1.52 88.2,2.43 C87.03,3.08 86.38,4.25 85.47,5.29 C84.04,6.98 83,8.93 82.48,11.14 C81.96,13.22 81.7,15.43 81.31,17.51 C81.05,18.42 80.79,19.33 80.79,20.24 C80.53,22.84 80.27,25.57 80.14,28.17 C79.88,32.33 79.75,36.62 79.62,40.78 C79.49,43.12 79.49,45.46 79.62,47.67 C79.62,52.35 79.88,56.9 80.01,61.58 C80.01,63.27 80.14,64.96 80.01,66.65 C80.01,66.78 79.88,67.43 79.88,67.56 C79.88,67.95 79.75,68.08 79.49,68.47 C78.71,69.51 78.97,70.55 78.19,71.72 C76.89,73.93 75.46,76.14 74.16,78.48 C72.86,80.82 71.69,83.16 70.52,85.76 C69.61,87.71 68.96,89.79 68.18,91.87 C67.27,94.21 66.88,96.81 67.4,99.54 C67.79,102.53 68.7,105.26 70.13,107.73 C70.39,108.25 70.91,108.77 71.43,109.16 C71.95,109.68 72.6,110.07 73.12,110.59 C74.81,112.28 76.76,112.54 78.45,111.76 C79.75,111.24 80.66,109.94 81.57,108.64 C82.48,107.6 83,106.04 83.78,104.74 C84.56,103.57 85.34,102.4 86.12,101.1 C86.64,100.45 86.9,99.54 87.42,99.28 C88.33,99.02 88.59,98.11 88.85,97.33 C89.37,95.9 89.76,94.47 90.15,93.17 C90.28,92.91 90.28,92.65 90.41,92.26 C90.54,90.7 90.8,89.14 91.06,87.58 C91.19,86.41 91.19,85.11 91.19,83.81 C91.06,83.03 90.93,82.12 90.8,81.34 C90.54,80.17 90.28,79.13 89.89,78.09 C89.5,76.92 89.11,76.01 88.59,74.97 C88.2,74.06 88.07,73.02 87.81,72.11 C87.55,71.59 87.81,70.94 87.94,70.55 C87.94,69.25 88.07,70.29 87.68,68.86 C87.42,67.82 87.42,66.91 88.59,66.13 C89.76,65.22 90.54,63.92 91.58,62.88 C92.62,61.84 94.83,60.8 95.87,59.89 L98.99,57.16 C99.77,56.25 100.55,55.21 101.33,54.3 L104.84,50.79 C105.88,49.75 106.66,48.45 107.05,46.89 C107.18,46.37 106.4,44.94 105.88,44.94 Z M91.45,31.29 C91.58,29.47 92.1,27.52 91.97,25.7 C91.84,23.36 92.23,21.15 92.49,18.94 C92.62,18.55 92.49,18.16 92.49,17.77 C92.49,16.6 92.36,15.43 92.23,14.13 C92.23,13.61 92.49,13.22 92.49,12.7 C92.62,11.4 92.75,10.23 93.14,8.93 C93.53,10.36 94.05,11.92 94.18,13.48 C94.96,22.06 95.09,30.77 91.19,38.96 C91.19,38.57 91.06,38.05 91.06,37.53 L91.45,31.29 Z M81.83,85.76 C81.7,87.45 81.7,89.01 81.57,90.7 C81.44,92.52 81.31,94.34 80.92,96.03 C80.53,98.37 79.88,100.58 79.36,102.79 C79.23,103.44 78.71,103.83 78.32,104.35 C78.06,104.87 77.67,105.26 77.41,105.65 C76.89,106.43 76.24,106.56 75.46,106.43 C74.81,106.3 74.03,106.43 73.38,106.3 C72.08,106.17 71.04,105.52 69.87,104.48 C68.44,103.18 68.18,101.49 68.31,99.8 C68.31,98.63 68.96,97.59 69.35,96.42 C69.48,96.03 69.61,95.64 69.87,95.25 C70.78,93.17 71.69,91.09 72.73,89.14 C73.51,87.58 74.29,86.28 75.07,84.85 C75.98,83.16 76.76,81.34 77.54,79.78 C78.32,78.22 79.23,76.79 80.01,75.36 C80.53,74.58 80.92,73.8 81.44,73.02 L81.57,73.02 C81.57,74.71 81.57,76.27 81.7,77.96 C81.7,79.52 81.96,81.08 81.96,82.64 C81.96,83.68 81.83,84.72 81.83,85.76 Z" id="Combined-Shape"></path>
            <path d="M93.4,23.62 L93.4,24.01 C94.57,24.4 95.74,24.92 97.04,24.92 C99.51,25.05 101.98,25.05 104.45,25.05 C106.01,25.05 106.01,25.05 106.01,26.48 C105.88,28.17 105.62,37.01 105.49,38.7 C105.23,40.39 104.97,45.98 104.84,47.67 C104.71,49.36 104.71,51.18 104.71,53 C104.71,53.78 104.84,54.69 104.84,55.47 C104.84,56.12 104.45,56.64 104.45,57.29 C104.32,59.89 104.32,62.49 104.32,64.96 C104.19,66.52 104.32,68.08 104.32,69.64 C104.45,72.63 105.75,75.1 108.09,76.53 C110.69,78.09 113.42,79.39 116.02,80.43 C117.45,81.08 119.01,81.08 120.31,79.78 C121.35,78.87 122.39,78.09 123.3,77.18 C124.21,76.27 125.12,75.23 126.03,74.19 C127.2,72.76 128.11,71.2 129.41,69.77 C131.23,67.82 132.92,65.74 134.09,63.27 C134.48,62.49 134.74,61.84 135.13,61.19 C136.3,59.24 137.47,57.42 138.51,55.47 C139.42,53.91 139.94,52.09 140.85,50.53 C141.5,49.36 141.63,48.32 140.98,47.02 C140.85,47.15 140.72,47.28 140.72,47.41 C139.81,50.4 138.12,52.87 136.56,55.47 C134.87,58.07 133.05,60.54 131.36,63.14 C130.84,64.05 130.32,65.09 129.54,66 C128.5,67.43 127.2,68.6 126.16,70.03 C124.34,72.37 122.26,74.32 119.92,76.14 C119.79,76.27 119.53,76.27 119.01,76.53 C119.14,74.71 119.4,73.15 119.4,71.59 C119.53,69.25 119.53,66.91 119.66,64.57 C119.66,63.14 119.66,61.71 119.92,60.41 C120.18,58.59 120.18,56.77 120.05,54.95 L120.05,49.1 C120.05,47.54 120.18,41.95 120.18,40.39 C120.05,39.35 119.66,31.03 119.79,29.86 C119.79,28.17 120.18,26.35 120.44,24.53 L123.3,24.53 C123.95,24.53 124.47,24.79 125.12,24.79 C126.68,24.92 128.11,24.92 129.67,25.05 C130.71,25.18 130.71,25.18 130.45,24.14 C131.49,23.36 131.49,23.1 130.71,22.45 C130.06,21.93 129.15,21.67 128.37,21.54 C125.9,20.89 123.3,21.02 120.83,21.54 C120.18,21.67 119.79,21.54 119.66,20.76 C119.66,20.24 119.4,19.59 119.27,19.07 C118.75,18.03 118.1,13.09 117.71,11.92 C117.19,10.1 116.67,8.15 116.02,6.33 C115.76,5.55 115.5,4.77 115.11,3.99 C114.2,2.04 112.51,1.26 110.43,0.87 C108.48,0.61 107.57,1.39 107.31,3.21 C107.31,3.73 107.44,4.38 107.31,4.9 C107.18,8.41 106.92,15.95 106.66,19.59 C106.66,20.37 106.53,21.02 106.4,21.8 C105.75,21.8 105.1,21.67 104.58,21.8 C102.76,21.8 100.94,21.93 99.12,21.93 C98.21,22.06 97.43,21.93 96.65,22.19 C95.61,22.58 94.44,23.1 93.4,23.62 Z" id="Path"></path>
            <path d="M194.15,77.83 C194.28,76.92 194.41,76.14 194.67,75.36 C195.06,74.19 195.58,73.02 195.84,71.72 C196.36,70.16 196.49,68.6 196.88,67.04 C197.53,64.57 198.18,62.23 197.79,59.5 C197.66,58.46 197.66,57.29 197.79,56.12 C198.18,54.04 198.57,51.96 199.09,50.01 C200,46.76 198.7,44.29 196.49,41.95 C195.58,41.04 194.15,40.52 193.24,39.48 C191.55,37.79 189.86,37.79 187.78,38.31 C186.48,38.7 186.22,39.61 186.09,40.65 C185.83,42.34 185.57,44.16 185.57,45.85 C185.44,47.93 184.27,49.62 184.53,51.83 C184.79,53.13 184.4,54.43 184.27,55.86 C184.01,58.33 183.88,60.93 183.49,63.4 C182.97,65.74 181.93,68.08 180.24,69.9 C179.59,70.68 178.68,71.2 178.03,71.98 C176.86,73.28 175.43,74.19 173.87,74.71 C173.22,74.84 172.31,74.84 171.66,74.58 C170.88,74.19 170.88,73.41 170.88,72.63 C171.01,70.16 170.1,67.56 170.75,65.09 C171.14,63.66 171.53,62.36 172.05,61.06 C172.44,59.76 172.83,58.46 173.22,57.29 C173.48,56.51 173.61,55.6 174,54.95 C175.04,52.87 176.21,50.79 177.25,48.84 C177.77,47.8 178.29,46.63 178.94,45.59 C179.98,44.03 180.5,42.21 180.89,40.26 C181.02,39.22 181.54,38.96 182.45,39.61 C182.97,40 183.49,40.39 184.01,39.74 C184.53,39.22 184.79,38.57 184.27,37.92 C183.88,37.4 183.75,37.01 183.36,36.62 C182.19,34.93 181.15,33.24 178.81,32.98 C178.16,32.98 177.38,32.46 176.73,32.98 C176.6,33.11 176.47,32.98 176.21,32.98 C175.95,32.98 175.56,32.85 175.3,32.98 C173.87,34.28 172.44,35.45 171.01,36.88 C169.84,38.05 168.8,39.35 167.89,40.65 C166.72,42.21 165.55,43.64 164.51,45.2 C163.34,46.89 162.69,48.84 162.04,50.66 C161.65,52.09 161.13,53.39 160.74,54.69 C160.48,55.6 160.09,56.38 160.09,57.16 C159.83,58.46 159.83,59.76 159.7,60.93 C159.7,61.71 159.57,62.36 159.7,63.01 C160.22,65.09 160.48,67.3 161.65,69.25 C162.69,70.68 163.73,72.11 164.77,73.67 C165.68,75.1 167.24,75.62 168.67,76.53 C170.88,77.96 173.48,78.22 175.95,78.61 C177.38,78.87 178.29,78.09 178.42,77.05 C178.42,76.27 178.81,76.01 179.33,75.88 C179.59,75.75 179.85,75.75 179.98,75.49 C180.89,74.45 182.58,73.93 182.84,72.24 C183.1,72.63 183.1,72.89 183.1,73.15 L183.1,76.4 C182.97,77.83 183.1,79.26 182.97,80.82 C182.84,82.51 182.71,84.2 182.45,85.89 C182.45,86.41 182.06,87.06 181.67,87.45 C180.37,88.62 178.81,89.66 177.64,90.83 C175.69,92.78 173.87,94.99 172.05,97.07 C171.53,97.72 171.01,98.5 170.62,99.28 C169.71,101.36 169.97,103.83 170.1,106.17 C170.1,106.3 170.1,106.43 170.23,106.56 L172.57,110.07 C173.61,111.63 175.3,112.41 176.99,112.8 C178.16,113.06 179.07,112.93 179.98,112.41 C181.15,111.76 181.8,110.72 182.32,109.55 C182.58,108.9 182.71,108.12 183.1,107.47 C183.88,106.17 185.18,105.39 186.22,104.35 C186.61,103.96 187.13,103.57 187.26,102.92 C187.52,102.01 187.65,100.84 187.78,99.8 C187.91,98.76 188.04,97.59 188.17,96.55 C188.43,94.86 189.08,93.3 189.08,91.74 C189.08,89.4 189.86,87.45 190.38,85.37 C190.38,85.11 190.64,84.85 190.9,84.72 C193.76,82.25 196.88,79.91 199.74,77.44 C201.04,76.4 201.95,74.84 202.99,73.67 C203.38,73.28 214.56,60.15 213.78,59.89 C212.61,59.5 212.09,59.63 211.31,60.41 C208.45,63.66 205.72,66.91 202.73,70.03 C200.78,72.11 198.57,74.06 196.49,76.01 C195.84,76.66 194.93,77.18 194.15,77.83 Z M181.8,92.52 C181.67,93.82 181.54,95.25 181.41,96.55 C181.28,98.63 181.28,100.71 181.02,102.79 C180.89,104.48 180.63,106.04 180.11,107.6 C179.85,108.77 177.77,109.16 176.6,108.9 C174.26,108.38 173.35,106.43 172.05,104.87 C171.92,104.74 171.79,104.48 171.79,104.35 C171.92,103.31 171.92,102.4 172.18,101.49 C172.18,101.1 172.7,100.84 172.96,100.58 C173.48,100.19 174,99.93 174.39,99.41 C175.3,98.5 176.08,97.59 176.99,96.68 C177.38,96.29 178.03,96.03 178.42,95.64 C178.68,95.51 178.81,95.25 178.94,95.12 L181.67,92.39 L181.8,92.52 Z" id="Combined-Shape"></path>
            <path d="M214.95,30.12 L220.41,31.29 C222.49,31.29 224.05,30.12 225.35,29.08 C226,28.56 226.26,27.39 226.13,26.61 C226,25.57 225.87,24.27 224.44,23.88 C222.88,23.62 221.32,22.97 219.89,23.1 C218.07,23.23 216.38,24.01 214.69,24.4 C213.52,24.79 212.61,25.31 212.61,26.61 C212.61,27.91 213.78,29.73 214.95,30.12 Z" id="Path"></path>
            <path d="M239.91,54.82 C239.39,54.3 239.52,54.69 238.87,54.43 C238.48,55.21 238.35,55.86 238.09,56.51 C235.23,61.97 232.5,67.43 228.21,71.85 C226.78,73.28 225.61,74.97 223.4,75.36 C222.62,75.49 221.97,75.88 221.19,76.14 C221.45,75.23 221.58,74.45 222.62,74.32 C223.14,74.32 223.66,73.54 223.92,73.15 C224.18,72.76 224.05,72.24 224.05,71.72 C224.18,68.34 224.57,64.83 225.35,61.58 L225.35,60.15 C225.48,58.85 225.61,57.42 225.61,56.12 C225.74,54.04 225.87,51.96 225.87,49.88 C225.87,48.97 225.87,48.06 225.74,47.15 L225.35,45.59 C225.22,44.55 225.35,43.38 224.83,42.47 C223.66,40.91 222.75,38.96 220.67,38.18 C219.24,37.66 217.81,36.88 216.38,36.88 C214.04,36.88 212.74,38.05 212.22,40.39 C212.09,40.91 212.09,41.43 211.96,41.95 C211.7,43.25 211.44,44.55 211.31,45.85 C211.05,47.54 210.92,49.23 210.79,50.92 C210.53,53.91 210.14,56.77 210.27,59.76 C210.53,62.49 210.01,65.22 210.92,68.08 C211.31,69.51 211.44,70.94 211.83,72.24 C212.74,74.84 214.17,76.92 216.77,78.09 C218.46,78.74 220.02,78.74 221.58,78.48 C222.88,78.35 224.31,77.83 225.61,77.57 C226.39,77.18 227.3,75.75 227.95,75.23 C230.29,73.41 231.98,70.81 233.67,68.21 C234.19,67.3 234.58,66 235.1,65.09 C236.79,62.1 237.96,59.24 239.26,56.51 C239.65,55.6 240.43,55.34 239.91,54.82 Z" id="Path"></path>
            <path d="M258.63,66.65 C258.5,66.39 258.24,66.13 258.24,66 C257.59,64.31 257.07,62.75 256.55,61.06 C255.9,59.24 255.25,57.29 254.6,55.47 C254.08,53.91 253.69,52.35 253.04,50.92 C252.26,48.97 251.35,47.15 250.57,45.2 C249.79,43.25 249.01,41.17 247.71,39.35 C246.41,37.66 245.11,35.97 242.77,35.32 C242.12,35.06 241.34,34.8 240.56,34.67 C239,34.28 237.44,34.28 236.01,34.8 C234.97,35.19 233.93,35.71 232.89,36.36 C231.33,37.27 231.33,37.79 232.11,39.22 C232.63,40.26 233.15,41.17 233.54,42.21 C234.06,43.25 234.32,44.29 234.84,45.33 C235.62,47.28 236.53,49.1 237.31,51.05 C238.09,53.39 238.61,55.73 239.26,57.94 C240.04,60.41 240.95,62.75 241.73,65.09 C242.51,67.3 243.42,69.38 244.2,71.59 C244.46,72.11 244.72,72.63 244.85,73.15 C245.24,74.45 246.02,75.36 247.06,75.88 C248.1,76.4 249.14,76.79 250.31,77.05 C252,77.44 253.95,77.7 255.77,77.96 C256.94,78.09 258.11,77.83 259.15,77.05 C259.93,76.53 260.58,75.88 260.32,74.84 C260.19,74.19 259.93,73.67 259.93,73.15 C260.06,72.5 260.06,71.72 260.45,71.07 C260.84,70.29 260.84,67.82 261.23,67.04 C262.27,64.96 263.18,63.01 264.22,61.06 L268.51,53.26 C269.42,51.57 270.2,49.88 271.11,48.19 L275.4,40.39 C275.92,39.48 276.31,38.57 276.57,37.66 C276.96,36.49 277.35,35.19 277.61,34.02 L278,33.63 C278.52,32.85 279.04,32.2 279.43,31.42 C279.95,30.51 280.21,29.34 280.73,28.43 C281.38,27.13 282.42,28.04 281.12,26.87 C280.73,26.61 280.73,26.48 280.34,26.87 L277.61,31.16 C276.44,33.11 275.27,35.06 274.1,37.14 C273.06,38.83 272.28,40.65 271.24,42.34 C270.46,43.9 269.42,45.46 268.77,47.02 C267.08,50.66 265,54.17 263.05,57.68 C262.14,59.24 261.49,60.67 260.71,62.23 C260.06,63.66 259.41,65.09 258.63,66.65 Z" id="Path"></path>
            <path d="M281.9,30.12 L287.36,31.29 C289.44,31.29 291,30.12 292.3,29.08 C292.95,28.56 293.21,27.39 293.08,26.61 C292.95,25.57 292.82,24.27 291.39,23.88 C289.83,23.62 288.27,22.97 286.84,23.1 C285.02,23.23 283.33,24.01 281.64,24.4 C280.47,24.79 279.56,25.31 279.56,26.61 C279.56,27.91 280.73,29.73 281.9,30.12 Z" id="Path"></path>
            <path d="M306.86,54.82 C306.34,54.3 306.47,54.69 305.82,54.43 C305.43,55.21 305.3,55.86 305.04,56.51 C302.18,61.97 299.45,67.43 295.16,71.85 C293.73,73.28 292.56,74.97 290.35,75.36 C289.57,75.49 288.92,75.88 288.14,76.14 C288.4,75.23 288.53,74.45 289.57,74.32 C290.09,74.32 290.61,73.54 290.87,73.15 C291.13,72.76 291,72.24 291,71.72 C291.13,68.34 291.52,64.83 292.3,61.58 L292.3,60.15 C292.43,58.85 292.56,57.42 292.56,56.12 C292.69,54.04 292.82,51.96 292.82,49.88 C292.82,48.97 292.82,48.06 292.69,47.15 L292.3,45.59 C292.17,44.55 292.3,43.38 291.78,42.47 C290.61,40.91 289.7,38.96 287.62,38.18 C286.19,37.66 284.76,36.88 283.33,36.88 C280.99,36.88 279.69,38.05 279.17,40.39 C279.04,40.91 279.04,41.43 278.91,41.95 C278.65,43.25 278.39,44.55 278.26,45.85 C278,47.54 277.87,49.23 277.74,50.92 C277.48,53.91 277.09,56.77 277.22,59.76 C277.48,62.49 276.96,65.22 277.87,68.08 C278.26,69.51 278.39,70.94 278.78,72.24 C279.69,74.84 281.12,76.92 283.72,78.09 C285.41,78.74 286.97,78.74 288.53,78.48 C289.83,78.35 291.26,77.83 292.56,77.57 C293.34,77.18 294.25,75.75 294.9,75.23 C297.24,73.41 298.93,70.81 300.62,68.21 C301.14,67.3 301.53,66 302.05,65.09 C303.74,62.1 304.91,59.24 306.21,56.51 C306.6,55.6 307.38,55.34 306.86,54.82 Z" id="Path"></path>
            <path d="M318.56,43.38 C318.56,42.47 318.69,41.3 318.56,40.26 C318.56,39.48 318.3,38.83 317.91,38.18 C317.13,36.88 316.22,35.58 314.92,34.67 C313.36,33.5 312.06,32.07 310.24,31.68 C308.55,31.29 306.99,30.64 305.3,31.55 C304.13,32.33 302.83,32.59 303.22,34.41 C303.35,35.58 303.22,36.75 303.22,37.92 C303.09,40 302.83,42.08 302.7,44.16 C302.7,44.81 302.96,45.59 302.83,46.24 C302.83,48.19 302.7,50.14 302.57,52.09 C302.57,53.13 302.44,54.3 302.44,55.34 C302.44,56.25 302.7,57.16 302.7,57.94 C302.57,60.41 302.31,62.75 302.57,65.09 C302.83,66.78 303.09,68.47 303.09,70.03 C303.22,71.33 303.09,72.63 302.96,73.93 C302.96,74.84 303.09,75.49 304.13,75.75 C305.82,76.27 307.51,76.66 309.07,77.44 C310.37,78.09 311.93,78.48 313.36,78.74 C314.92,79.13 316.35,78.22 316.61,77.05 C316.87,75.75 317,74.32 317.26,73.02 C317.26,71.98 317.13,70.81 317.52,69.9 C317.91,68.99 317.65,68.08 317.65,67.17 C317.52,66.13 317.52,64.96 317.39,63.79 C317.39,62.75 317.13,61.71 317.13,60.54 C317,59.24 316.87,57.94 317,56.77 C317.26,54.82 317.52,53 318.04,51.18 C318.43,49.36 319.08,47.54 319.86,45.98 C320.51,44.55 321.55,43.25 322.59,42.08 C323.11,41.43 323.63,40.78 324.41,40.52 C325.45,40.13 326.49,40 327.66,39.87 C328.18,39.61 328.44,39.87 328.31,40.52 C328.18,41.3 328.18,42.21 327.92,42.86 C327.4,44.16 326.62,45.33 326.1,46.63 C325.19,49.23 324.41,51.7 323.63,54.3 C323.24,55.6 322.72,57.03 322.72,58.46 C322.59,59.89 322.07,61.19 322.07,62.62 C322.46,66.13 322.72,69.51 325.71,72.11 C327.27,73.54 328.83,74.84 330.78,75.62 C332.21,76.14 333.51,76.79 335.07,76.01 C335.85,75.62 336.76,75.49 337.54,75.23 C338.19,74.97 338.84,74.84 339.36,74.58 C340.4,74.06 341.31,73.67 342.22,73.02 C344.17,71.85 345.86,70.42 346.77,68.21 C347.29,67.17 348.2,66.26 348.72,65.22 C349.5,63.66 350.15,62.36 351.32,60.41 C352.75,57.94 353.4,55.86 353.92,53.91 C354.05,53.13 354.44,52.09 354.18,51.31 C354.05,50.66 352.23,51.96 351.71,53.39 C351.45,54.17 351.58,54.69 351.32,55.47 C350.54,57.81 348.07,62.1 347.03,64.44 C345.99,67.3 343.52,69.38 340.92,71.33 C340.27,71.85 337.54,72.63 336.76,73.15 L336.76,67.69 C337.28,64.57 337.8,61.58 338.32,58.46 C338.45,58.2 338.58,57.94 338.58,57.81 C339.1,56.64 339.49,55.47 339.88,54.17 C340.14,53.39 340.14,52.48 340.4,51.7 C340.92,50.14 341.05,48.84 340.53,47.28 C339.75,45.07 338.71,43.12 337.15,41.43 C335.46,39.22 333.25,37.79 330.52,37.27 C327.4,36.75 324.8,37.53 322.46,39.74 C321.16,41.04 319.86,42.21 318.56,43.38 Z" id="Path"></path>
            <path d="M384.99,77.83 C385.12,76.92 385.25,76.14 385.51,75.36 C385.9,74.19 386.42,73.02 386.68,71.72 C387.2,70.16 387.33,68.6 387.72,67.04 C388.37,64.57 389.02,62.23 388.63,59.5 C388.5,58.46 388.5,57.29 388.63,56.12 C389.02,54.04 389.41,51.96 389.93,50.01 C390.84,46.76 389.54,44.29 387.33,41.95 C386.42,41.04 384.99,40.52 384.08,39.48 C382.39,37.79 380.7,37.79 378.62,38.31 C377.32,38.7 377.06,39.61 376.93,40.65 C376.67,42.34 376.41,44.16 376.41,45.85 C376.28,47.93 375.11,49.62 375.37,51.83 C375.63,53.13 375.24,54.43 375.11,55.86 C374.85,58.33 374.72,60.93 374.33,63.4 C373.81,65.74 372.77,68.08 371.08,69.9 C370.43,70.68 369.52,71.2 368.87,71.98 C367.7,73.28 366.27,74.19 364.71,74.71 C364.06,74.84 363.15,74.84 362.5,74.58 C361.72,74.19 361.72,73.41 361.72,72.63 C361.85,70.16 360.94,67.56 361.59,65.09 C361.98,63.66 362.37,62.36 362.89,61.06 C363.28,59.76 363.67,58.46 364.06,57.29 C364.32,56.51 364.45,55.6 364.84,54.95 C365.88,52.87 367.05,50.79 368.09,48.84 C368.61,47.8 369.13,46.63 369.78,45.59 C370.82,44.03 371.34,42.21 371.73,40.26 C371.86,39.22 372.38,38.96 373.29,39.61 C373.81,40 374.33,40.39 374.85,39.74 C375.37,39.22 375.63,38.57 375.11,37.92 C374.72,37.4 374.59,37.01 374.2,36.62 C373.03,34.93 371.99,33.24 369.65,32.98 C369,32.98 368.22,32.46 367.57,32.98 C367.44,33.11 367.31,32.98 367.05,32.98 C366.79,32.98 366.4,32.85 366.14,32.98 C364.71,34.28 363.28,35.45 361.85,36.88 C360.68,38.05 359.64,39.35 358.73,40.65 C357.56,42.21 356.39,43.64 355.35,45.2 C354.18,46.89 353.53,48.84 352.88,50.66 C352.49,52.09 351.97,53.39 351.58,54.69 C351.32,55.6 350.93,56.38 350.93,57.16 C350.67,58.46 350.67,59.76 350.54,60.93 C350.54,61.71 350.41,62.36 350.54,63.01 C351.06,65.09 351.32,67.3 352.49,69.25 C353.53,70.68 354.57,72.11 355.61,73.67 C356.52,75.1 358.08,75.62 359.51,76.53 C361.72,77.96 364.32,78.22 366.79,78.61 C368.22,78.87 369.13,78.09 369.26,77.05 C369.26,76.27 369.65,76.01 370.17,75.88 C370.43,75.75 370.69,75.75 370.82,75.49 C371.73,74.45 373.42,73.93 373.68,72.24 C373.94,72.63 373.94,72.89 373.94,73.15 L373.94,76.4 C373.81,77.83 373.94,79.26 373.81,80.82 C373.68,82.51 373.55,84.2 373.29,85.89 C373.29,86.41 372.9,87.06 372.51,87.45 C371.21,88.62 369.65,89.66 368.48,90.83 C366.53,92.78 364.71,94.99 362.89,97.07 C362.37,97.72 361.85,98.5 361.46,99.28 C360.55,101.36 360.81,103.83 360.94,106.17 C360.94,106.3 360.94,106.43 361.07,106.56 L363.41,110.07 C364.45,111.63 366.14,112.41 367.83,112.8 C369,113.06 369.91,112.93 370.82,112.41 C371.99,111.76 372.64,110.72 373.16,109.55 C373.42,108.9 373.55,108.12 373.94,107.47 C374.72,106.17 376.02,105.39 377.06,104.35 C377.45,103.96 377.97,103.57 378.1,102.92 C378.36,102.01 378.49,100.84 378.62,99.8 C378.75,98.76 378.88,97.59 379.01,96.55 C379.27,94.86 379.92,93.3 379.92,91.74 C379.92,89.4 380.7,87.45 381.22,85.37 C381.22,85.11 381.48,84.85 381.74,84.72 C384.6,82.25 387.72,79.91 390.58,77.44 C391.88,76.4 392.79,74.84 393.83,73.67 C394.22,73.28 405.4,60.15 404.62,59.89 C403.45,59.5 402.93,59.63 402.15,60.41 C399.29,63.66 396.56,66.91 393.57,70.03 C391.62,72.11 389.41,74.06 387.33,76.01 C386.68,76.66 385.77,77.18 384.99,77.83 Z M372.64,92.52 C372.51,93.82 372.38,95.25 372.25,96.55 C372.12,98.63 372.12,100.71 371.86,102.79 C371.73,104.48 371.47,106.04 370.95,107.6 C370.69,108.77 368.61,109.16 367.44,108.9 C365.1,108.38 364.19,106.43 362.89,104.87 C362.76,104.74 362.63,104.48 362.63,104.35 C362.76,103.31 362.76,102.4 363.02,101.49 C363.02,101.1 363.54,100.84 363.8,100.58 C364.32,100.19 364.84,99.93 365.23,99.41 C366.14,98.5 366.92,97.59 367.83,96.68 C368.22,96.29 368.87,96.03 369.26,95.64 C369.52,95.51 369.65,95.25 369.78,95.12 L372.51,92.39 L372.64,92.52 Z" id="Combined-Shape"></path>
            <path d="M411.51,65.74 L410.47,65.74 C408.52,65.74 406.96,66.26 406.44,67.82 C405.92,68.73 405.92,70.29 405.92,71.33 C405.92,73.67 405.92,73.67 407.48,74.19 C408,74.19 408.52,74.71 409.04,75.23 C409.95,75.62 411.51,76.66 412.55,77.18 C414.89,78.22 416.32,77.7 417.36,75.62 C417.88,74.71 417.88,73.67 418.92,72.63 C419.44,70.81 419.44,68.73 418.4,67.82 C416.32,66.26 414.37,65.74 411.51,65.74 Z" id="gift-giving."></path>
        </g>
    </g>
</svg>