<?xml version="1.0" encoding="UTF-8" standalone="no"?>
<svg width="486px" height="110px" viewBox="0 0 486 110" version="1.1" xmlns="http://www.w3.org/2000/svg" xmlns:xlink="http://www.w3.org/1999/xlink">
    <!-- Generator: Sketch 41.2 (35397) - http://www.bohemiancoding.com/sketch -->
    <title>New parents</title>
    <desc>Created with Sketch.</desc>
    <defs></defs>
    <g id="About-Us-4" stroke="none" stroke-width="1" fill="none" fill-rule="evenodd">
        <g id="New-parents" fill="#3E3436">
            <path d="M16.46,43.38 C16.46,42.47 16.59,41.3 16.46,40.26 C16.46,39.48 16.2,38.83 15.81,38.18 C15.03,36.88 14.12,35.58 12.82,34.67 C11.26,33.5 9.96,32.07 8.14,31.68 C6.45,31.29 4.89,30.64 3.2,31.55 C2.03,32.33 0.73,32.59 1.12,34.41 C1.25,35.58 1.12,36.75 1.12,37.92 C0.99,40 0.73,42.08 0.6,44.16 C0.6,44.81 0.86,45.59 0.73,46.24 C0.73,48.19 0.6,50.14 0.47,52.09 C0.47,53.13 0.34,54.3 0.34,55.34 C0.34,56.25 0.6,57.16 0.6,57.94 C0.47,60.41 0.21,62.75 0.47,65.09 C0.73,66.78 0.99,68.47 0.99,70.03 C1.12,71.33 0.99,72.63 0.86,73.93 C0.86,74.84 0.99,75.49 2.03,75.75 C3.72,76.27 5.41,76.66 6.97,77.44 C8.27,78.09 9.83,78.48 11.26,78.74 C12.82,79.13 14.25,78.22 14.51,77.05 C14.77,75.75 14.9,74.32 15.16,73.02 C15.16,71.98 15.03,70.81 15.42,69.9 C15.81,68.99 15.55,68.08 15.55,67.17 C15.42,66.13 15.42,64.96 15.29,63.79 C15.29,62.75 15.03,61.71 15.03,60.54 C14.9,59.24 14.77,57.94 14.9,56.77 C15.16,54.82 15.42,53 15.94,51.18 C16.33,49.36 16.98,47.54 17.76,45.98 C18.41,44.55 19.45,43.25 20.49,42.08 C21.01,41.43 21.53,40.78 22.31,40.52 C23.35,40.13 24.39,40 25.56,39.87 C26.08,39.61 26.34,39.87 26.21,40.52 C26.08,41.3 26.08,42.21 25.82,42.86 C25.3,44.16 24.52,45.33 24,46.63 C23.09,49.23 22.31,51.7 21.53,54.3 C21.14,55.6 20.62,57.03 20.62,58.46 C20.49,59.89 19.97,61.19 19.97,62.62 C20.36,66.13 20.62,69.51 23.61,72.11 C25.17,73.54 26.73,74.84 28.68,75.62 C30.11,76.14 31.41,76.79 32.97,76.01 C33.75,75.62 34.66,75.49 35.44,75.23 C36.09,74.97 36.74,74.84 37.26,74.58 C38.3,74.06 39.21,73.67 40.12,73.02 C42.07,71.85 43.76,70.42 44.67,68.21 C45.19,67.17 46.1,66.26 46.62,65.22 C47.4,63.66 48.05,62.36 49.22,60.41 C50.65,57.94 51.3,55.86 51.82,53.91 C51.95,53.13 52.34,52.09 52.08,51.31 C51.95,50.66 50.13,51.96 49.61,53.39 C49.35,54.17 49.48,54.69 49.22,55.47 C48.44,57.81 45.97,62.1 44.93,64.44 C43.89,67.3 41.42,69.38 38.82,71.33 C38.17,71.85 35.44,72.63 34.66,73.15 L34.66,67.69 C35.18,64.57 35.7,61.58 36.22,58.46 C36.35,58.2 36.48,57.94 36.48,57.81 C37,56.64 37.39,55.47 37.78,54.17 C38.04,53.39 38.04,52.48 38.3,51.7 C38.82,50.14 38.95,48.84 38.43,47.28 C37.65,45.07 36.61,43.12 35.05,41.43 C33.36,39.22 31.15,37.79 28.42,37.27 C25.3,36.75 22.7,37.53 20.36,39.74 C19.06,41.04 17.76,42.21 16.46,43.38 Z" id="Path"></path>
            <path d="M47.14,63.92 C47.14,64.05 47.27,64.05 47.27,64.05 C47.14,66.52 48.05,68.86 49.09,71.07 C49.61,71.98 50.13,72.76 50.78,73.54 C52.08,75.23 53.64,76.79 55.59,77.7 C57.8,78.61 60.01,79.13 62.35,78.87 C63.13,78.74 63.91,78.74 64.69,78.61 C65.08,78.61 65.6,78.48 66.12,78.35 C66.9,78.09 67.68,77.96 68.46,77.57 C69.11,77.31 69.63,76.79 70.28,76.4 C71.06,75.88 71.97,75.49 72.75,74.97 C74.18,74.06 75.09,72.76 76,71.2 C76.39,70.42 76.78,69.64 77.43,68.99 C78.86,67.82 79.77,66.26 80.68,64.7 C80.94,64.18 81.46,63.79 81.59,63.27 C81.85,61.97 82.76,61.32 83.54,60.41 C83.8,60.28 84.06,59.89 84.19,59.63 L84.97,57.68 C85.23,57.16 85.36,56.77 85.49,56.25 C85.49,55.6 85.62,55.08 86.14,54.56 C86.92,53.52 88.09,53.13 88.48,51.7 C88.74,50.92 88.61,49.75 87.96,49.49 C87.7,49.36 87.31,49.49 87.18,49.62 C86.66,50.4 86.14,51.31 85.62,52.22 C83.93,55.08 82.24,57.94 80.55,60.67 C79.51,62.23 78.21,63.79 77.17,65.35 C75.87,67.56 73.92,69.25 71.84,70.81 C70.54,71.98 68.98,72.76 67.55,73.8 C66.38,74.71 65.08,75.49 63.65,75.62 C62.35,75.88 60.92,76.14 59.49,76.01 C57.41,75.88 56.24,74.71 55.07,73.28 C55.07,73.15 54.94,72.89 54.94,72.76 C55.59,71.59 55.72,70.16 55.98,68.86 C56.37,67.17 56.76,65.35 57.28,63.79 C57.41,63.01 57.8,62.23 58.45,61.97 C59.62,61.19 60.92,60.54 62.09,59.63 C63.39,58.46 64.95,57.42 66.38,56.25 C68.07,54.95 69.5,53.39 70.67,51.57 C70.93,51.18 71.45,50.92 71.97,50.66 C72.1,50.53 72.36,50.4 72.36,50.27 C72.88,49.36 73.27,48.58 73.79,47.67 C74.05,47.15 74.44,46.63 74.7,46.11 C74.83,45.85 75.09,45.59 75.09,45.46 C75.35,44.94 75.48,44.29 75.48,43.77 C75.74,42.86 75.87,41.95 76,41.04 C76,40.91 75.87,40.65 75.87,40.52 C75.48,39.74 75.09,39.09 74.7,38.31 C74.44,37.79 74.18,37.27 74.05,36.62 C73.66,35.58 73.01,34.93 72.1,34.28 C71.32,33.76 70.41,33.76 69.63,33.63 C68.46,33.24 67.55,33.63 66.77,33.89 C65.6,34.28 64.43,34.54 63.52,35.58 C63.26,35.84 63,35.97 62.74,36.1 C61.83,36.62 60.79,37.01 60.01,37.79 C58.84,38.7 57.8,39.87 56.76,41.04 C56.24,41.43 55.85,42.08 55.33,42.6 C54.94,42.99 54.68,43.51 54.29,44.03 C53.77,44.94 53.12,45.85 52.6,46.76 C51.69,48.32 50.91,49.88 50.26,51.57 C49.61,53.13 48.96,54.69 48.7,56.51 C48.57,56.9 48.31,57.16 48.18,57.55 C48.05,58.33 47.92,58.98 47.92,59.63 L47.14,63.92 Z M71.06,41.3 C71.45,42.08 71.97,42.34 72.88,42.08 C72.75,42.86 72.75,43.51 72.49,44.16 C71.71,46.76 70.8,49.23 68.98,51.18 C67.42,52.87 65.73,54.43 64.04,55.86 C62.87,56.9 61.44,57.68 60.14,58.59 C59.88,58.72 59.75,58.85 59.62,58.85 C60.14,57.29 60.66,55.86 61.31,54.3 C61.57,53.39 61.83,52.48 62.22,51.57 C62.61,50.79 63.13,50.14 63.52,49.36 C63.78,48.97 63.91,48.58 64.17,48.06 C64.95,46.89 65.73,45.59 66.64,44.29 C66.77,44.03 67.16,43.9 67.55,43.64 C68.33,43.12 69.11,42.6 70.02,42.08 C70.28,41.82 70.67,41.69 71.06,41.3 Z" id="Combined-Shape"></path>
            <path d="M148.54,40 C148.28,40.65 148.15,41.17 148.02,41.43 C145.68,45.07 142.56,47.8 139.05,50.14 C138.4,50.53 137.49,50.92 136.71,51.18 C135.8,51.44 135.15,50.92 135.15,50.01 C135.15,49.1 135.28,48.32 135.28,47.54 C135.28,45.59 135.15,43.64 135.02,41.69 C134.89,41.17 134.63,40.52 134.37,40.39 C133.07,39.87 131.77,38.96 130.21,39.74 C129.95,39.74 129.56,39.74 129.3,39.61 C128.26,39.09 127.48,39.35 127.22,40.39 C126.96,41.3 126.96,42.34 126.96,43.25 C127.22,46.11 128.26,48.58 130.6,50.4 C130.73,50.53 130.99,50.79 130.99,50.92 C130.99,51.7 131.12,52.48 130.99,53.13 C130.21,55.86 129.17,58.46 128.91,61.32 C128.65,63.14 127.74,64.83 127.74,66.65 C127.61,68.86 126.44,70.68 125.4,72.5 C124.88,73.15 124.49,73.8 123.84,74.45 C123.71,74.71 123.06,74.71 122.93,74.58 C122.15,74.06 122.15,72.63 122.8,71.85 C123.06,71.59 123.19,71.33 123.32,71.07 C123.58,69.64 123.84,68.34 124.23,66.91 C124.49,66 124.75,64.96 124.88,63.92 C125.01,63.4 125.14,62.88 125.01,62.36 C124.88,61.45 124.49,60.67 124.23,59.76 C123.97,58.59 124.1,57.42 123.71,56.38 C122.93,54.56 122.02,52.87 121.24,51.18 C120.72,49.36 119.81,47.8 118.51,46.37 C117.08,44.94 115.78,42.99 113.57,42.6 C111.62,42.34 109.28,42.86 108.37,44.81 C108.11,45.33 107.85,45.85 107.46,46.11 C106.94,46.5 106.94,47.02 107.07,47.67 C107.33,49.36 107.98,51.18 107.33,53 C106.42,55.86 105.51,58.72 104.47,61.45 C104.47,61.58 104.34,61.84 104.21,61.84 C104.08,61.71 103.95,61.58 103.95,61.45 C103.17,59.24 102.39,57.03 101.74,54.69 C100.96,51.96 100.18,49.1 99.4,46.37 C98.88,44.29 98.62,42.34 97.97,40.26 C97.71,39.22 97.19,38.18 96.54,37.4 C95.76,36.36 94.72,35.58 93.42,35.19 C90.95,34.41 88.74,33.63 86.14,33.89 C84.71,34.02 82.89,35.32 82.89,36.49 C82.89,37.53 83.28,38.44 83.41,39.35 C83.93,41.17 84.58,42.99 84.97,44.94 C85.36,46.5 85.49,48.32 85.88,50.01 C86.27,52.09 86.92,54.17 87.57,56.25 C88.09,58.2 88.48,60.15 89,62.1 C89.39,63.4 89.39,64.7 90.3,65.87 C90.82,66.39 91.34,66.91 91.73,67.56 C92.64,68.99 93.42,70.42 94.2,71.85 C94.72,72.76 95.37,73.67 95.76,74.58 C96.28,76.14 97.06,77.18 98.75,77.57 C99.14,77.57 99.66,77.83 100.18,77.83 C101.61,77.83 103.04,78.09 104.21,77.18 C104.86,76.66 105.38,75.88 105.77,75.1 C106.03,74.84 106.42,74.32 106.42,73.93 C106.29,72.11 106.16,70.29 106.03,68.34 C106.03,68.08 105.9,67.69 105.9,67.3 C106.29,66.26 106.55,65.35 106.94,64.31 C107.72,62.49 108.37,60.67 109.15,58.85 L109.41,58.85 C109.54,59.5 109.54,60.02 109.67,60.54 C110.32,62.36 111.1,64.05 111.75,65.87 C112.79,68.6 114.61,70.81 116.43,73.02 C117.86,74.71 119.81,76.14 122.15,76.79 C124.23,77.44 126.96,76.4 127.87,74.45 C128.52,73.02 129.3,71.72 130.08,70.29 C130.86,68.73 131.9,67.17 132.29,65.48 C132.94,62.88 133.07,60.15 133.33,57.42 C133.59,55.6 133.72,53.91 134.63,52.22 C136.32,53 138.01,53 139.44,51.96 C142.17,50.14 145.03,48.32 147.11,45.72 C148.15,44.29 148.67,42.6 148.93,40.91 C148.93,40.78 148.8,40.52 148.54,40 Z M131.12,48.19 C130.08,46.5 129.95,44.42 129.43,42.47 C130.47,42.86 131.51,46.5 131.12,48.19 Z" id="Combined-Shape"></path>
            <path d="M164.01,108.77 C164.4,108.77 164.53,108.77 164.53,108.9 C166.09,108.9 167.78,108.77 169.21,109.16 C172.46,110.07 175.06,109.03 177.4,107.08 C177.66,106.82 177.92,106.43 177.92,106.04 C178.57,103.7 180.52,93.43 180.91,91.09 C181.04,90.7 180.91,90.18 180.91,89.79 C181.04,88.49 181.3,87.32 181.43,86.15 C181.69,83.55 181.82,80.95 181.95,78.35 C182.08,76.27 182.08,74.19 182.08,72.11 C182.08,71.33 182.21,70.42 182.21,69.51 C182.34,68.34 182.34,67.3 182.34,66.13 C182.34,64.7 182.34,63.27 182.21,61.97 C182.08,59.76 181.82,57.42 181.69,55.21 C181.56,54.95 181.69,54.69 181.82,54.43 C183.12,52.74 184.29,50.92 185.72,49.36 C188.32,46.37 191.57,43.9 194.69,41.56 C195.47,41.04 196.64,40.91 197.55,40.65 C197.68,40.65 197.94,40.91 198.07,41.04 C198.72,41.95 199.63,42.86 200.02,44.03 C200.54,45.33 200.8,46.89 200.67,48.32 C200.28,50.79 200.02,53.39 199.11,55.86 C198.59,57.16 197.94,58.2 196.77,58.85 C195.73,59.37 194.69,60.02 193.78,60.67 C192.61,61.32 191.7,62.36 190.53,62.88 C187.28,64.44 185.07,66.91 184.29,70.42 C183.9,71.85 184.55,73.8 185.98,74.58 C187.93,75.75 190.14,76.4 192.35,76.79 C193,76.92 193.91,77.18 194.43,77.57 C195.73,78.74 197.16,78.87 198.85,78.61 C199.37,78.48 200.02,78.35 200.54,78.35 C202.23,78.22 203.53,77.57 204.44,76.14 C205.09,75.23 206,74.32 206.78,73.54 C207.3,73.02 208.08,72.5 208.6,71.98 C210.03,70.16 211.46,68.34 211.98,66 C212.11,64.83 212.5,63.79 212.63,62.62 C212.89,60.54 213.02,56.64 213.15,54.56 C213.15,54.3 213.41,53.78 213.67,53.65 C216.01,52.35 217.18,51.05 219.52,49.75 C220.17,49.36 221.99,48.19 222.51,47.67 C223.42,46.63 224.07,46.37 224.85,45.33 C226.02,43.9 226.15,43.9 226.93,42.34 C226.93,42.34 226.93,42.21 226.67,42.08 C222.64,46.37 217.7,49.36 212.63,52.35 C212.37,51.44 211.98,50.79 211.85,50.01 C211.59,48.71 210.81,47.8 210.03,46.89 C208.47,45.2 206.91,43.64 205.35,42.08 C204.18,41.04 203.14,39.87 201.84,39.09 C199.5,37.53 196.9,37.79 194.3,38.57 C192.22,39.22 190.27,40.52 188.71,42.08 C186.37,44.29 184.03,46.76 181.69,49.1 C181.43,49.36 181.17,49.75 180.78,50.14 C180.78,48.71 180.65,47.54 180.52,46.37 C180.39,44.29 180.26,42.08 180,39.87 C179.87,39.09 179.87,38.18 179.48,37.4 C178.83,35.58 177.4,34.15 175.97,32.85 C175.45,32.59 175.06,32.2 174.54,31.94 C173.37,31.42 172.33,30.9 170.9,31.42 C170.12,31.68 169.73,32.07 169.73,32.85 C169.6,35.19 169.6,37.53 169.34,39.87 C169.21,41.95 168.82,44.03 168.43,46.11 L168.43,46.37 C168.43,48.06 168.3,49.62 168.3,51.31 C168.3,52.22 168.17,53.13 168.17,54.04 C168.04,54.43 168.17,54.95 168.17,55.34 C168.04,57.29 167.78,59.11 167.65,60.93 C167.52,62.1 167.65,63.4 167.65,64.57 L167.65,68.08 C167.52,68.99 167.65,69.77 167.65,70.55 L167.26,75.23 C167.26,75.88 167.26,76.66 167.13,77.31 C167,78.74 166.87,80.04 166.74,81.47 C166.61,83.42 166.61,85.5 166.48,87.45 L166.09,92.91 C165.83,95.51 164.27,106.04 164.01,108.77 Z M194.43,64.18 C194.3,64.7 194.04,65.09 193.78,65.61 C193.26,66.39 192.74,67.17 192.09,68.08 C191.31,69.25 190.14,70.03 188.58,69.9 C187.93,69.9 187.41,70.03 186.89,70.03 C189.23,67.82 191.18,65.22 194.43,64.18 Z" id="Combined-Shape"></path>
            <path d="M241.36,58.85 C241.36,58.98 241.49,58.98 241.49,58.98 L241.49,62.75 C241.49,64.31 241.23,65.87 241.36,67.3 C241.49,69.51 242.01,71.59 242.92,73.67 C243.7,75.49 244.61,76.92 246.17,78.09 C247.86,79.39 247.47,79.26 249.68,79.26 C250.59,79.26 251.5,79.13 252.28,78.74 C253.71,78.22 255.14,77.31 256.31,76.4 C258,75.23 259.3,73.54 260.34,71.72 C261.51,70.03 262.42,68.34 263.59,66.78 C264.11,66 264.11,66.13 264.76,64.96 C265.93,62.75 269.05,56.64 269.96,54.43 C270.35,53.52 271,53.52 270.22,53.26 C269.18,53 270.22,53.26 269.05,53.13 C268.92,53.13 268.66,53.52 268.53,53.65 C267.49,55.6 264.63,61.97 263.46,63.79 C262.68,65.22 261.38,66.52 260.47,67.95 C259.04,70.55 257.61,73.15 255.27,75.23 C254.1,76.27 252.8,77.05 251.37,77.31 C250.46,76.4 249.81,75.49 248.9,74.58 C249.81,73.54 250.59,72.37 251.5,71.2 C251.63,71.07 251.63,70.81 251.76,70.68 C252.28,69.12 252.54,67.3 253.45,66 C255.01,63.79 255.27,61.19 256.05,58.85 C256.44,57.29 256.57,55.6 256.7,54.04 C256.96,51.83 257.09,49.62 257.35,47.41 C257.35,46.63 257.61,45.98 257.61,45.2 C257.61,44.03 257.74,42.73 257.61,41.43 C257.48,40.39 256.96,39.22 256.83,38.18 C256.44,36.36 255.14,35.32 253.84,34.28 C252.8,33.24 251.37,33.11 249.94,32.98 C248.12,32.72 246.43,32.98 245.26,34.54 C244.61,35.58 243.96,36.75 243.44,37.66 C242.53,37.01 241.36,36.36 240.32,35.58 C239.02,34.54 237.46,34.54 236.03,35.06 C234.86,35.45 233.95,36.23 232.78,36.49 C231.35,36.75 230.44,37.79 229.4,38.57 C228.23,39.61 227.19,40.78 226.02,41.95 C225.63,42.47 225.11,42.86 224.72,43.51 C224.07,44.55 223.42,45.72 222.77,47.02 C222.38,47.67 221.99,48.32 221.73,49.1 C221.21,50.4 220.82,51.7 220.3,53 C219.65,55.47 218.61,57.81 218.22,60.28 C217.44,63.92 218.09,67.56 220.17,70.81 C221.99,73.8 224.59,75.49 228.23,75.49 C229.14,75.49 229.92,74.84 230.7,74.84 C232.39,74.84 233.56,73.93 234.34,72.89 C235.51,71.59 236.16,69.9 236.94,68.34 C238.11,66.13 239.02,63.79 240.06,61.45 C240.45,60.67 240.97,59.76 241.36,58.85 Z M242.14,41.82 C242.14,43.77 242.01,45.72 241.88,47.67 C241.75,50.4 241.23,52.87 239.67,55.34 C238.37,57.42 237.46,59.89 236.29,62.1 C235.25,64.18 234.34,66.39 233.04,68.34 C232,69.77 230.57,71.07 229.27,72.24 C228.1,73.15 225.76,72.76 224.72,71.46 C224.07,70.68 223.29,69.9 222.9,68.99 C222.38,67.56 221.73,66 222.25,64.31 C222.77,62.49 223.16,60.67 223.68,58.98 C224.59,56.38 225.5,53.91 226.41,51.44 C226.93,50.14 227.45,48.71 228.1,47.41 C228.23,46.89 228.62,46.37 228.88,45.98 C229.79,44.68 230.7,43.25 231.61,42.08 C233.04,40.52 234.6,39.09 236.81,39.09 C237.46,39.09 238.11,39.61 238.63,40 C239.15,40.52 239.67,41.17 240.32,41.56 C240.84,41.82 241.62,41.82 242.14,41.82 Z" id="Combined-Shape"></path>
            <path d="M288.94,75.49 C291.28,74.58 291.8,72.24 291.02,70.55 C290.63,69.77 290.76,69.12 291.15,68.6 C291.8,67.82 291.67,67.04 291.67,66.26 C291.54,64.83 291.54,63.4 291.54,61.97 C291.54,61.32 291.8,60.8 292.19,60.28 C293.23,59.11 294.4,58.07 294.92,56.64 C295.44,55.21 296.09,53.91 296.87,52.74 C297.78,51.31 298.43,49.75 298.82,48.06 C298.95,47.41 299.08,46.76 298.95,45.98 C298.69,43.64 297.26,41.82 295.57,40.52 C294.4,39.48 292.58,39.09 291.02,38.44 L290.76,38.44 C288.94,38.7 287.38,39.35 285.95,40.26 C285.3,40.78 284.65,41.3 284,41.69 C283.22,41.95 282.44,42.21 281.66,42.34 C281.01,42.34 280.23,42.86 279.71,41.95 C279.45,41.43 279.06,41.04 278.93,40.52 C278.54,39.74 278.02,38.83 278.15,38.18 C278.67,36.62 279.58,35.06 280.1,33.37 C280.75,31.55 281.53,29.73 281.79,27.78 C282.05,25.7 281.92,23.49 281.79,21.41 C281.66,19.33 280.23,18.03 278.15,18.03 C277.63,18.03 276.98,18.16 276.59,18.55 C275.42,19.59 274.12,20.63 273.21,21.93 C271.52,24.4 270.48,27.26 270.48,30.25 C270.35,32.46 270.61,34.8 270.87,37.01 C271,38.05 271.39,39.09 271.91,39.87 C272.43,40.52 273.6,41.17 273.34,41.82 C272.56,43.51 271.65,46.76 271.13,48.45 C269.7,52.09 268.27,53.91 266.97,57.55 C266.84,57.94 266.06,59.11 266.19,59.24 C266.71,59.5 266.97,59.11 267.49,58.98 C267.88,58.98 267.88,58.59 268.14,58.2 C268.53,57.68 268.92,56.64 269.44,55.99 C270.61,54.56 273.21,48.84 273.73,46.89 C273.99,46.24 275.03,44.16 275.16,43.25 C275.55,43.51 276.2,44.55 276.46,44.68 C277.37,45.33 278.15,45.85 279.06,46.24 C279.84,46.63 280.62,46.63 281.4,47.02 C282.05,47.28 282.18,47.8 281.92,48.45 C281.79,48.97 281.66,49.62 281.53,50.14 C281.27,51.57 281.01,53.13 280.75,54.69 C280.49,56.77 280.23,58.98 280.1,61.06 C280.1,63.27 280.1,65.35 280.36,67.43 C280.88,71.85 282.83,75.36 286.6,77.83 C287.38,78.48 288.16,79.13 289.07,79.39 C290.89,79.91 292.58,79.39 294.14,78.35 C295.05,77.83 295.83,77.18 296.61,76.66 C299.08,75.1 301.16,73.15 302.72,70.81 C303.5,69.64 304.15,68.47 305.06,67.56 C306.62,66.26 307.53,64.44 308.31,62.75 C309.09,61.19 309.74,59.5 310.39,57.81 C310.52,57.42 310.52,56.9 310.52,56.38 C310.65,55.86 310.65,55.34 310.65,54.82 C310.65,54.43 310.78,54.17 310.78,53.91 C310.78,53.91 310.65,53.78 310.52,53.78 C310.26,54.43 310,55.08 309.61,55.73 C307.53,58.98 305.45,62.36 303.37,65.61 C302.07,67.56 300.51,69.51 299.08,71.2 C298.3,72.11 297.13,72.89 296.22,73.67 C294.79,75.1 293.23,76.27 291.41,77.05 C289.59,77.83 289.07,77.57 288.94,75.75 L288.94,75.49 Z M279.06,22.58 C280.62,24.01 278.93,30.51 277.37,32.46 C276.98,30.77 277.24,29.08 277.63,27.52 C278.02,25.96 278.54,24.4 279.06,22.58 Z" id="Combined-Shape"></path>
            <path d="M305.06,63.92 C305.06,64.05 305.19,64.05 305.19,64.05 C305.06,66.52 305.97,68.86 307.01,71.07 C307.53,71.98 308.05,72.76 308.7,73.54 C310,75.23 311.56,76.79 313.51,77.7 C315.72,78.61 317.93,79.13 320.27,78.87 C321.05,78.74 321.83,78.74 322.61,78.61 C323,78.61 323.52,78.48 324.04,78.35 C324.82,78.09 325.6,77.96 326.38,77.57 C327.03,77.31 327.55,76.79 328.2,76.4 C328.98,75.88 329.89,75.49 330.67,74.97 C332.1,74.06 333.01,72.76 333.92,71.2 C334.31,70.42 334.7,69.64 335.35,68.99 C336.78,67.82 337.69,66.26 338.6,64.7 C338.86,64.18 339.38,63.79 339.51,63.27 C339.77,61.97 340.68,61.32 341.46,60.41 C341.72,60.28 341.98,59.89 342.11,59.63 L342.89,57.68 C343.15,57.16 343.28,56.77 343.41,56.25 C343.41,55.6 343.54,55.08 344.06,54.56 C344.84,53.52 346.01,53.13 346.4,51.7 C346.66,50.92 346.53,49.75 345.88,49.49 C345.62,49.36 345.23,49.49 345.1,49.62 C344.58,50.4 344.06,51.31 343.54,52.22 C341.85,55.08 340.16,57.94 338.47,60.67 C337.43,62.23 336.13,63.79 335.09,65.35 C333.79,67.56 331.84,69.25 329.76,70.81 C328.46,71.98 326.9,72.76 325.47,73.8 C324.3,74.71 323,75.49 321.57,75.62 C320.27,75.88 318.84,76.14 317.41,76.01 C315.33,75.88 314.16,74.71 312.99,73.28 C312.99,73.15 312.86,72.89 312.86,72.76 C313.51,71.59 313.64,70.16 313.9,68.86 C314.29,67.17 314.68,65.35 315.2,63.79 C315.33,63.01 315.72,62.23 316.37,61.97 C317.54,61.19 318.84,60.54 320.01,59.63 C321.31,58.46 322.87,57.42 324.3,56.25 C325.99,54.95 327.42,53.39 328.59,51.57 C328.85,51.18 329.37,50.92 329.89,50.66 C330.02,50.53 330.28,50.4 330.28,50.27 C330.8,49.36 331.19,48.58 331.71,47.67 C331.97,47.15 332.36,46.63 332.62,46.11 C332.75,45.85 333.01,45.59 333.01,45.46 C333.27,44.94 333.4,44.29 333.4,43.77 C333.66,42.86 333.79,41.95 333.92,41.04 C333.92,40.91 333.79,40.65 333.79,40.52 C333.4,39.74 333.01,39.09 332.62,38.31 C332.36,37.79 332.1,37.27 331.97,36.62 C331.58,35.58 330.93,34.93 330.02,34.28 C329.24,33.76 328.33,33.76 327.55,33.63 C326.38,33.24 325.47,33.63 324.69,33.89 C323.52,34.28 322.35,34.54 321.44,35.58 C321.18,35.84 320.92,35.97 320.66,36.1 C319.75,36.62 318.71,37.01 317.93,37.79 C316.76,38.7 315.72,39.87 314.68,41.04 C314.16,41.43 313.77,42.08 313.25,42.6 C312.86,42.99 312.6,43.51 312.21,44.03 C311.69,44.94 311.04,45.85 310.52,46.76 C309.61,48.32 308.83,49.88 308.18,51.57 C307.53,53.13 306.88,54.69 306.62,56.51 C306.49,56.9 306.23,57.16 306.1,57.55 C305.97,58.33 305.84,58.98 305.84,59.63 L305.06,63.92 Z M328.98,41.3 C329.37,42.08 329.89,42.34 330.8,42.08 C330.67,42.86 330.67,43.51 330.41,44.16 C329.63,46.76 328.72,49.23 326.9,51.18 C325.34,52.87 323.65,54.43 321.96,55.86 C320.79,56.9 319.36,57.68 318.06,58.59 C317.8,58.72 317.67,58.85 317.54,58.85 C318.06,57.29 318.58,55.86 319.23,54.3 C319.49,53.39 319.75,52.48 320.14,51.57 C320.53,50.79 321.05,50.14 321.44,49.36 C321.7,48.97 321.83,48.58 322.09,48.06 C322.87,46.89 323.65,45.59 324.56,44.29 C324.69,44.03 325.08,43.9 325.47,43.64 C326.25,43.12 327.03,42.6 327.94,42.08 C328.2,41.82 328.59,41.69 328.98,41.3 Z" id="Combined-Shape"></path>
            <path d="M359.66,43.38 C359.66,42.47 359.79,41.3 359.66,40.26 C359.66,39.48 359.4,38.83 359.01,38.18 C358.23,36.88 357.32,35.58 356.02,34.67 C354.46,33.5 353.16,32.07 351.34,31.68 C349.65,31.29 348.09,30.64 346.4,31.55 C345.23,32.33 343.93,32.59 344.32,34.41 C344.45,35.58 344.32,36.75 344.32,37.92 C344.19,40 343.93,42.08 343.8,44.16 C343.8,44.81 344.06,45.59 343.93,46.24 C343.93,48.19 343.8,50.14 343.67,52.09 C343.67,53.13 343.54,54.3 343.54,55.34 C343.54,56.25 343.8,57.16 343.8,57.94 C343.67,60.41 343.41,62.75 343.67,65.09 C343.93,66.78 344.19,68.47 344.19,70.03 C344.32,71.33 344.19,72.63 344.06,73.93 C344.06,74.84 344.19,75.49 345.23,75.75 C346.92,76.27 348.61,76.66 350.17,77.44 C351.47,78.09 353.03,78.48 354.46,78.74 C356.02,79.13 357.45,78.22 357.71,77.05 C357.97,75.75 358.1,74.32 358.36,73.02 C358.36,71.98 358.23,70.81 358.62,69.9 C359.01,68.99 358.75,68.08 358.75,67.17 C358.62,66.13 358.62,64.96 358.49,63.79 C358.49,62.75 358.23,61.71 358.23,60.54 C358.1,59.24 357.97,57.94 358.1,56.77 C358.36,54.82 358.62,53 359.14,51.18 C359.53,49.36 360.18,47.54 360.96,45.98 C361.61,44.55 362.65,43.25 363.69,42.08 C364.21,41.43 364.73,40.78 365.51,40.52 C366.55,40.13 367.59,40 368.76,39.87 C369.28,39.61 369.54,39.87 369.41,40.52 C369.28,41.3 369.28,42.21 369.02,42.86 C368.5,44.16 367.72,45.33 367.2,46.63 C366.29,49.23 365.51,51.7 364.73,54.3 C364.34,55.6 363.82,57.03 363.82,58.46 C363.69,59.89 363.17,61.19 363.17,62.62 C363.56,66.13 363.82,69.51 366.81,72.11 C368.37,73.54 369.93,74.84 371.88,75.62 C373.31,76.14 374.61,76.79 376.17,76.01 C376.95,75.62 377.86,75.49 378.64,75.23 C379.29,74.97 379.94,74.84 380.46,74.58 C381.5,74.06 382.41,73.67 383.32,73.02 C385.27,71.85 386.96,70.42 387.87,68.21 C388.39,67.17 389.3,66.26 389.82,65.22 C390.6,63.66 391.25,62.36 392.42,60.41 C393.85,57.94 394.5,55.86 395.02,53.91 C395.15,53.13 395.54,52.09 395.28,51.31 C395.15,50.66 393.33,51.96 392.81,53.39 C392.55,54.17 392.68,54.69 392.42,55.47 C391.64,57.81 389.17,62.1 388.13,64.44 C387.09,67.3 384.62,69.38 382.02,71.33 C381.37,71.85 378.64,72.63 377.86,73.15 L377.86,67.69 C378.38,64.57 378.9,61.58 379.42,58.46 C379.55,58.2 379.68,57.94 379.68,57.81 C380.2,56.64 380.59,55.47 380.98,54.17 C381.24,53.39 381.24,52.48 381.5,51.7 C382.02,50.14 382.15,48.84 381.63,47.28 C380.85,45.07 379.81,43.12 378.25,41.43 C376.56,39.22 374.35,37.79 371.62,37.27 C368.5,36.75 365.9,37.53 363.56,39.74 C362.26,41.04 360.96,42.21 359.66,43.38 Z" id="Path"></path>
            <path d="M382.41,23.62 L382.41,24.01 C383.58,24.4 384.75,24.92 386.05,24.92 C388.52,25.05 390.99,25.05 393.46,25.05 C395.02,25.05 395.02,25.05 395.02,26.48 C394.89,28.17 394.63,37.01 394.5,38.7 C394.24,40.39 393.98,45.98 393.85,47.67 C393.72,49.36 393.72,51.18 393.72,53 C393.72,53.78 393.85,54.69 393.85,55.47 C393.85,56.12 393.46,56.64 393.46,57.29 C393.33,59.89 393.33,62.49 393.33,64.96 C393.2,66.52 393.33,68.08 393.33,69.64 C393.46,72.63 394.76,75.1 397.1,76.53 C399.7,78.09 402.43,79.39 405.03,80.43 C406.46,81.08 408.02,81.08 409.32,79.78 C410.36,78.87 411.4,78.09 412.31,77.18 C413.22,76.27 414.13,75.23 415.04,74.19 C416.21,72.76 417.12,71.2 418.42,69.77 C420.24,67.82 421.93,65.74 423.1,63.27 C423.49,62.49 423.75,61.84 424.14,61.19 C425.31,59.24 426.48,57.42 427.52,55.47 C428.43,53.91 428.95,52.09 429.86,50.53 C430.51,49.36 430.64,48.32 429.99,47.02 C429.86,47.15 429.73,47.28 429.73,47.41 C428.82,50.4 427.13,52.87 425.57,55.47 C423.88,58.07 422.06,60.54 420.37,63.14 C419.85,64.05 419.33,65.09 418.55,66 C417.51,67.43 416.21,68.6 415.17,70.03 C413.35,72.37 411.27,74.32 408.93,76.14 C408.8,76.27 408.54,76.27 408.02,76.53 C408.15,74.71 408.41,73.15 408.41,71.59 C408.54,69.25 408.54,66.91 408.67,64.57 C408.67,63.14 408.67,61.71 408.93,60.41 C409.19,58.59 409.19,56.77 409.06,54.95 L409.06,49.1 C409.06,47.54 409.19,41.95 409.19,40.39 C409.06,39.35 408.67,31.03 408.8,29.86 C408.8,28.17 409.19,26.35 409.45,24.53 L412.31,24.53 C412.96,24.53 413.48,24.79 414.13,24.79 C415.69,24.92 417.12,24.92 418.68,25.05 C419.72,25.18 419.72,25.18 419.46,24.14 C420.5,23.36 420.5,23.1 419.72,22.45 C419.07,21.93 418.16,21.67 417.38,21.54 C414.91,20.89 412.31,21.02 409.84,21.54 C409.19,21.67 408.8,21.54 408.67,20.76 C408.67,20.24 408.41,19.59 408.28,19.07 C407.76,18.03 407.11,13.09 406.72,11.92 C406.2,10.1 405.68,8.15 405.03,6.33 C404.77,5.55 404.51,4.77 404.12,3.99 C403.21,2.04 401.52,1.26 399.44,0.87 C397.49,0.61 396.58,1.39 396.32,3.21 C396.32,3.73 396.45,4.38 396.32,4.9 C396.19,8.41 395.93,15.95 395.67,19.59 C395.67,20.37 395.54,21.02 395.41,21.8 C394.76,21.8 394.11,21.67 393.59,21.8 C391.77,21.8 389.95,21.93 388.13,21.93 C387.22,22.06 386.44,21.93 385.66,22.19 C384.62,22.58 383.45,23.1 382.41,23.62 Z" id="Path"></path>
            <path d="M470.81,57.03 C470.29,56.51 470.42,56.9 469.77,56.64 C469.38,57.42 469.25,57.94 468.99,58.33 C466.26,62.88 463.53,67.43 459.11,71.07 C457.68,72.24 456.51,73.54 454.3,73.93 L453.13,74.32 L453.91,73.54 C455.34,72.11 459.5,69.51 459.24,64.57 C459.24,63.79 458.98,63.14 458.72,62.36 C458.33,60.8 458.2,59.24 456.77,57.81 C455.99,57.03 455.21,56.25 454.43,55.34 C453.52,54.3 452.61,53.26 451.57,52.22 C449.75,50.4 447.8,48.71 445.59,47.28 C443.12,45.46 440.65,43.9 438.7,41.69 C437.01,39.87 436.62,39.09 437.66,37.53 C438.05,37.01 438.7,36.62 438.96,35.97 C439.48,34.93 439.74,33.76 440.13,32.59 C440.26,32.2 440.65,31.68 440.91,31.68 C442.34,31.68 440.91,29.08 440.13,28.3 C438.57,27 436.75,26.35 435.06,26.61 C433.5,26.87 432.07,27.39 430.9,28.43 C430.38,28.95 429.6,29.34 429.08,29.86 C428.43,30.51 427.65,31.16 427.26,31.94 C426.48,33.76 426.48,35.71 427.26,37.79 C428.17,40.39 429.21,42.08 431.16,44.16 C431.16,44.16 433.11,46.11 433.24,46.11 C434.67,47.54 436.49,48.84 437.79,50.4 C438.83,51.57 440.26,52.61 441.17,53.78 C442.34,55.34 443.38,57.03 444.16,58.72 C445.33,61.32 445.33,63.79 445.33,66.26 C445.33,67.43 444.81,68.6 444.29,69.64 C443.25,71.85 442.08,73.8 439.48,74.84 C439.22,74.84 438.96,75.1 438.83,75.36 C437.92,76.4 436.75,77.31 434.93,77.18 C434.41,77.05 433.89,76.92 433.5,76.79 C431.94,76.66 430.64,75.88 429.34,74.97 C428.69,74.45 427.78,75.75 428.04,76.27 C428.43,76.92 428.82,77.57 429.73,77.7 C429.99,77.7 430.25,77.96 430.51,78.09 C431.94,78.61 433.24,79.91 434.93,79.39 L435.19,79.39 C435.97,80.04 436.62,79.65 437.4,79.52 C438.7,79.39 445.2,78.22 445.59,78.09 C446.24,77.96 446.89,77.83 447.41,77.57 C448.06,77.18 448.58,76.79 449.23,76.53 C450.27,76.66 451.44,76.66 452.48,76.53 C453.91,76.27 455.21,76.01 456.51,75.75 C457.29,75.49 458.2,74.32 458.85,73.8 C461.32,72.24 463.01,70.16 464.57,68.08 C465.22,67.17 465.48,66.26 466,65.48 C467.69,63.01 468.86,60.67 470.16,58.33 C470.55,57.68 471.33,57.42 470.81,57.03 Z" id="Path"></path>
            <path d="M477.83,65.74 L476.79,65.74 C474.84,65.74 473.28,66.26 472.76,67.82 C472.24,68.73 472.24,70.29 472.24,71.33 C472.24,73.67 472.24,73.67 473.8,74.19 C474.32,74.19 474.84,74.71 475.36,75.23 C476.27,75.62 477.83,76.66 478.87,77.18 C481.21,78.22 482.64,77.7 483.68,75.62 C484.2,74.71 484.2,73.67 485.24,72.63 C485.76,70.81 485.76,68.73 484.72,67.82 C482.64,66.26 480.69,65.74 477.83,65.74 Z" id="new-parents."></path>
        </g>
    </g>
</svg>