<?xml version="1.0" encoding="UTF-8" standalone="no"?>
<svg width="793px" height="115px" viewBox="0 0 793 115" version="1.1" xmlns="http://www.w3.org/2000/svg" xmlns:xlink="http://www.w3.org/1999/xlink">
    <!-- Generator: Sketch 41.2 (35397) - http://www.bohemiancoding.com/sketch -->
    <title>Young Professionals</title>
    <desc>Created with Sketch.</desc>
    <defs></defs>
    <g id="About-Us-4" stroke="none" stroke-width="1" fill="none" fill-rule="evenodd">
        <g id="Young-Professionals" fill="#3E3436">
            <path d="M15.305,69.16 C15.305,67.6 15.305,66.17 15.435,64.74 C15.435,64.35 15.565,63.96 15.825,63.83 C16.735,63.31 17.125,62.66 17.125,61.75 C17.255,60.84 17.125,59.93 17.385,59.02 C18.035,56.29 17.905,53.56 17.645,50.7 C17.515,49.4 17.645,48.1 17.515,46.67 C17.385,45.37 17.125,44.07 16.735,42.9 C16.215,41.47 15.435,40.17 15.045,38.74 C14.135,36.14 12.965,33.8 10.235,32.37 C8.675,31.46 7.245,31.33 5.815,31.46 C3.215,31.72 1.655,33.41 0.615,35.62 C0.485,35.75 0.485,36.27 0.615,36.4 C1.265,36.79 1.915,37.44 2.565,37.44 C3.345,37.57 4.125,37.31 4.905,37.18 C5.295,38.74 5.165,40.3 4.905,41.99 C4.775,44.07 4.515,46.15 4.255,48.23 C4.125,49.14 3.995,50.18 3.865,51.09 C3.735,52.65 3.345,54.08 3.345,55.51 C3.345,57.46 3.475,59.54 3.475,61.49 C3.475,63.96 3.215,66.43 3.085,68.9 C3.085,69.68 3.345,70.46 3.345,71.37 C3.215,72.8 3.735,74.36 4.125,75.79 C4.125,75.92 4.125,76.05 4.255,76.18 C5.945,77.74 7.765,78.78 10.105,78.39 C12.965,77.87 15.175,76.05 16.995,73.97 C18.555,72.28 19.985,70.46 21.415,68.64 C22.325,67.34 23.365,66.04 24.275,64.87 C25.055,63.83 25.965,62.92 26.745,61.88 C26.875,61.88 26.875,62.01 27.005,62.01 C26.875,62.92 26.875,63.7 26.745,64.61 C26.615,66.04 26.615,67.34 26.485,68.77 C26.485,69.68 26.355,70.72 26.355,71.63 C25.965,74.49 25.705,77.35 25.315,80.08 C25.185,81.51 25.315,82.94 24.015,83.85 C23.625,84.11 23.365,84.37 23.105,84.63 C21.545,86.32 20.115,88.01 18.685,89.57 C16.995,91.52 15.305,93.47 13.225,95.03 C12.965,95.16 12.835,95.68 12.575,95.81 C11.275,96.33 10.365,97.37 9.715,98.54 C8.805,100.23 8.285,102.05 8.025,104 C7.635,107.77 8.675,111.54 12.445,113.88 C13.485,114.53 14.655,115.05 15.955,114.53 C16.605,114.27 17.255,113.75 17.905,113.23 C18.815,112.32 19.855,111.41 20.765,110.5 C20.895,110.5 20.895,110.5 20.895,110.37 C21.415,108.68 22.845,107.64 24.015,106.6 C24.665,105.95 25.445,104.91 25.445,104.13 C25.315,102.57 26.225,101.4 26.745,100.1 C27.525,98.15 28.565,96.59 30.125,95.16 C32.725,93.08 33.765,89.96 34.415,86.71 C34.675,85.28 35.065,83.72 35.455,82.29 C35.845,80.73 36.235,79.17 36.755,77.74 C37.015,77.09 37.275,76.31 37.795,75.79 C38.185,75.14 38.835,74.62 39.355,74.1 C40.915,72.67 42.475,71.37 44.035,70.07 C46.245,68.12 48.195,65.91 49.885,63.57 C50.275,62.92 50.795,62.27 50.925,61.36 C51.055,60.58 50.405,60.45 50.145,59.93 C49.885,60.06 49.625,60.32 49.365,60.58 L48.585,61.36 C47.155,62.79 45.725,64.09 44.295,65.39 C42.215,67.21 40.135,69.03 37.925,70.85 C37.795,70.72 37.665,70.59 37.665,70.46 C37.795,68.77 38.055,67.21 38.185,65.52 C38.315,63.7 38.705,61.75 38.575,59.93 C38.445,58.37 38.835,56.68 37.925,55.12 C37.665,54.73 37.535,54.34 37.535,53.82 C37.145,52.13 36.885,50.31 36.365,48.62 C36.105,47.84 35.455,46.93 34.805,46.67 C31.555,45.24 29.085,47.45 28.305,50.57 C28.045,51.74 27.655,52.91 27.135,53.95 C26.615,54.99 26.095,55.77 25.445,56.68 C24.405,58.37 23.495,60.06 22.195,61.49 C20.635,63.44 18.945,65.13 17.255,66.95 C16.605,67.6 15.955,68.38 15.305,69.16 Z M24.145,89.31 C24.015,90.48 24.015,91.65 23.885,92.69 C23.755,94.38 23.625,95.94 23.365,97.37 C23.105,98.8 22.715,100.23 22.195,101.53 C21.025,104.65 19.595,107.51 18.295,110.5 C18.295,110.63 18.295,110.89 18.165,110.89 C16.995,111.67 15.825,112.45 14.655,112.97 C14.005,113.23 13.355,112.97 12.705,112.32 C11.925,111.41 11.925,110.37 11.535,109.46 C10.495,106.6 11.015,104.13 12.705,101.92 C13.225,101.27 13.485,100.49 14.005,99.71 C14.265,99.19 14.525,98.8 14.785,98.28 C15.175,97.89 15.435,97.37 16.085,97.11 C16.735,96.98 17.125,96.33 17.515,95.81 L21.805,91.52 C22.585,90.74 23.365,90.09 24.145,89.31 Z" id="Combined-Shape"></path>
            <path d="M77.185,60.19 L77.185,55.77 C77.055,54.6 76.925,53.3 76.795,52.13 C76.665,51.48 76.535,50.96 76.535,50.31 C76.665,47.84 76.145,45.5 74.585,43.42 C74.065,42.77 73.415,42.25 72.765,41.6 C71.985,40.56 70.815,40.43 69.775,40.04 C69.125,39.91 68.215,40.3 67.565,40.56 C67.045,40.69 66.785,40.82 66.395,40.3 C65.875,39.26 65.225,38.35 64.705,37.44 C63.925,36.27 63.145,35.36 61.585,35.23 C60.025,34.97 58.465,34.84 57.165,35.88 C56.645,36.27 56.255,36.79 55.605,37.05 C53.655,37.7 52.225,39.13 51.055,40.56 C49.755,42.38 48.585,44.2 47.545,46.15 C46.505,47.97 45.465,49.92 44.945,51.87 C44.425,54.21 43.905,56.55 44.685,59.02 C44.945,60.19 44.945,61.49 45.335,62.79 C45.985,65.13 47.415,67.08 49.365,68.77 C51.315,70.33 53.135,72.15 55.605,73.32 C56.645,73.71 57.555,74.36 58.595,74.88 C59.895,75.4 61.195,75.79 62.495,76.18 C63.665,76.44 64.705,76.83 65.875,76.83 C67.695,77.09 69.385,76.96 71.075,76.05 C72.635,75.14 73.545,73.84 73.545,72.15 C73.545,70.33 73.935,68.51 74.845,66.82 C75.365,66.04 75.755,65.13 76.015,64.09 C76.145,63.57 76.405,63.44 76.925,63.44 C78.745,63.18 89.145,56.29 92.785,41.47 C93.045,40.43 92.655,40.69 92.395,39.78 C91.485,41.73 90.575,43.55 89.795,45.5 C88.495,48.62 87.065,49.92 85.245,52.78 C84.205,54.47 82.255,56.94 81.085,58.5 C80.045,59.67 78.485,59.02 77.185,60.19 Z M62.625,49.79 C64.055,55.51 67.435,59.54 72.635,62.01 C72.115,65 70.165,66.82 67.955,68.51 C67.175,69.16 66.265,69.94 65.225,69.81 C63.405,69.55 61.455,69.16 60.285,67.6 C59.765,67.08 59.635,66.04 59.635,65.13 C59.635,63.96 59.635,62.79 59.245,61.75 C58.985,60.97 58.985,60.19 58.985,59.41 C58.855,57.07 59.375,54.99 60.285,52.91 C60.675,51.74 61.585,50.83 62.235,49.79 L62.625,49.79 Z M72.895,58.5 C72.635,57.85 72.375,57.2 71.985,56.55 C71.465,55.38 70.815,54.21 70.165,53.04 C69.905,52.52 69.645,51.87 69.255,51.35 C69.125,50.96 68.865,50.57 68.605,50.31 C67.435,48.88 66.655,47.32 66.265,45.76 C66.135,44.98 66.655,44.2 66.915,43.42 C67.045,43.29 67.435,43.16 67.695,43.29 C69.645,43.81 72.635,46.02 72.895,48.62 C73.025,50.44 73.675,52.13 73.545,53.95 C73.545,55.38 73.545,56.94 73.415,58.5 L72.895,58.5 Z" id="Combined-Shape"></path>
            <path d="M83.035,40.82 C83.165,40.82 83.165,40.95 83.165,41.08 C83.815,40.82 84.465,40.69 84.985,40.3 C86.025,39.65 86.935,38.74 87.845,37.83 C88.235,37.57 88.495,37.44 88.625,38.09 C88.755,39.52 89.015,40.95 89.015,42.38 C89.015,45.5 88.885,48.62 88.885,51.74 C88.885,53.95 89.015,56.16 89.015,58.37 C89.015,59.02 88.755,59.67 88.755,60.19 C88.755,62.53 88.885,64.87 88.885,67.08 C89.015,69.29 89.275,71.37 90.705,73.19 C91.095,73.58 91.485,74.1 91.875,74.49 C93.695,75.79 95.515,75.4 97.335,74.36 C98.895,73.45 100.455,72.41 101.885,71.11 C103.185,69.94 104.745,68.77 105.525,67.34 C107.215,64.48 108.515,61.49 109.945,58.5 C110.205,57.85 110.595,57.07 110.855,56.42 C110.985,56.42 111.115,56.42 111.115,56.55 C111.245,57.33 111.245,58.24 111.375,59.15 C111.505,60.84 111.505,62.53 111.765,64.22 C111.765,65 111.895,65.65 112.155,66.43 C112.285,67.47 112.545,68.64 112.935,69.68 C113.845,72.28 115.665,74.1 117.745,75.66 C119.305,76.7 119.175,77.61 120.995,77.74 C122.035,77.87 122.555,76.96 123.335,76.7 C123.985,76.44 124.505,76.05 124.765,75.27 C124.895,75.01 125.155,74.75 125.285,74.75 C126.195,74.49 126.845,73.84 127.235,72.93 C127.495,72.67 127.755,72.28 128.015,72.15 C129.315,71.11 130.355,70.07 130.875,68.51 C131.265,67.73 131.525,66.82 132.045,66.17 C133.735,63.57 135.035,60.71 136.075,57.85 C136.335,57.33 136.595,56.81 136.075,56.29 C135.945,56.16 135.945,55.64 136.075,55.51 C137.115,54.34 137.375,52.91 137.505,51.48 C137.635,50.05 139.195,48.62 137.765,47.58 C137.635,47.97 137.505,48.1 137.505,48.36 C136.855,50.7 136.465,53.04 135.295,55.25 C134.255,57.33 133.345,59.54 132.305,61.62 C131.525,63.05 130.615,64.35 129.835,65.65 C128.145,68.38 126.065,70.72 123.725,72.93 C123.595,73.06 123.205,73.19 122.815,73.32 C122.945,72.15 123.075,71.24 123.205,70.2 C123.595,68.9 124.245,67.73 123.595,66.3 C123.595,65.91 123.595,65.52 123.725,65.13 C123.855,63.57 123.985,61.88 124.115,60.32 C124.245,58.76 124.115,57.2 124.115,55.51 C124.115,52.26 124.115,49.01 123.985,45.63 C123.985,44.85 123.725,44.07 123.595,43.29 C123.595,42.38 123.205,41.47 122.815,40.69 C122.425,40.17 122.295,39.52 121.775,39.13 C120.865,38.35 119.695,37.57 118.655,36.79 C117.485,36.01 116.445,36.4 115.145,36.4 C113.585,36.66 113.325,38.22 112.155,38.74 L112.155,39 C112.025,39.91 112.025,40.82 111.895,41.73 C111.895,43.03 111.895,44.46 111.635,45.76 C111.115,47.97 110.595,50.05 109.815,52.26 C108.775,54.73 107.735,57.33 106.565,59.67 C105.005,62.4 103.315,65 101.625,67.47 C100.975,68.38 100.195,69.03 99.285,69.94 C99.545,68.38 99.545,67.08 99.935,65.65 C100.455,62.79 100.325,59.93 100.455,56.94 C100.585,55.12 100.715,53.17 100.715,51.35 C100.585,49.92 100.325,48.49 100.195,47.06 C100.065,45.89 99.805,44.72 99.805,43.55 C99.935,40.82 99.805,38.09 98.115,35.75 C97.075,34.32 95.905,33.02 94.215,32.37 C92.785,31.72 91.355,31.85 89.925,32.24 C88.625,32.5 87.715,33.15 87.455,34.58 C87.455,34.58 87.455,34.71 87.325,34.84 C86.155,36.4 84.855,38.09 83.685,39.65 C83.425,40.04 83.295,40.43 83.035,40.82 Z" id="Path"></path>
            <path d="M150.635,42.38 C150.635,41.47 150.765,40.3 150.635,39.26 C150.635,38.48 150.375,37.83 149.985,37.18 C149.205,35.88 148.295,34.58 146.995,33.67 C145.435,32.5 144.135,31.07 142.315,30.68 C140.625,30.29 139.065,29.64 137.375,30.55 C136.205,31.33 134.905,31.59 135.295,33.41 C135.425,34.58 135.295,35.75 135.295,36.92 C135.165,39 134.905,41.08 134.775,43.16 C134.775,43.81 135.035,44.59 134.905,45.24 C134.905,47.19 134.775,49.14 134.645,51.09 C134.645,52.13 134.515,53.3 134.515,54.34 C134.515,55.25 134.775,56.16 134.775,56.94 C134.645,59.41 134.385,61.75 134.645,64.09 C134.905,65.78 135.165,67.47 135.165,69.03 C135.295,70.33 135.165,71.63 135.035,72.93 C135.035,73.84 135.165,74.49 136.205,74.75 C137.895,75.27 139.585,75.66 141.145,76.44 C142.445,77.09 144.005,77.48 145.435,77.74 C146.995,78.13 148.425,77.22 148.685,76.05 C148.945,74.75 149.075,73.32 149.335,72.02 C149.335,70.98 149.205,69.81 149.595,68.9 C149.985,67.99 149.725,67.08 149.725,66.17 C149.595,65.13 149.595,63.96 149.465,62.79 C149.465,61.75 149.205,60.71 149.205,59.54 C149.075,58.24 148.945,56.94 149.075,55.77 C149.335,53.82 149.595,52 150.115,50.18 C150.505,48.36 151.155,46.54 151.935,44.98 C152.585,43.55 153.625,42.25 154.665,41.08 C155.185,40.43 155.705,39.78 156.485,39.52 C157.525,39.13 158.565,39 159.735,38.87 C160.255,38.61 160.515,38.87 160.385,39.52 C160.255,40.3 160.255,41.21 159.995,41.86 C159.475,43.16 158.695,44.33 158.175,45.63 C157.265,48.23 156.485,50.7 155.705,53.3 C155.315,54.6 154.795,56.03 154.795,57.46 C154.665,58.89 154.145,60.19 154.145,61.62 C154.535,65.13 154.795,68.51 157.785,71.11 C159.345,72.54 160.905,73.84 162.855,74.62 C164.285,75.14 165.585,75.79 167.145,75.01 C167.925,74.62 168.835,74.49 169.615,74.23 C170.265,73.97 170.915,73.84 171.435,73.58 C172.475,73.06 173.385,72.67 174.295,72.02 C176.245,70.85 177.935,69.42 178.845,67.21 C179.365,66.17 180.275,65.26 180.795,64.22 C181.575,62.66 182.225,61.36 183.395,59.41 C184.825,56.94 185.475,54.86 185.995,52.91 C186.125,52.13 186.515,51.09 186.255,50.31 C186.125,49.66 184.305,50.96 183.785,52.39 C183.525,53.17 183.655,53.69 183.395,54.47 C182.615,56.81 180.145,61.1 179.105,63.44 C178.065,66.3 175.595,68.38 172.995,70.33 C172.345,70.85 169.615,71.63 168.835,72.15 L168.835,66.69 C169.355,63.57 169.875,60.58 170.395,57.46 C170.525,57.2 170.655,56.94 170.655,56.81 C171.175,55.64 171.565,54.47 171.955,53.17 C172.215,52.39 172.215,51.48 172.475,50.7 C172.995,49.14 173.125,47.84 172.605,46.28 C171.825,44.07 170.785,42.12 169.225,40.43 C167.535,38.22 165.325,36.79 162.595,36.27 C159.475,35.75 156.875,36.53 154.535,38.74 C153.235,40.04 151.935,41.21 150.635,42.38 Z" id="Path"></path>
            <path d="M217.065,76.83 C217.195,75.92 217.325,75.14 217.585,74.36 C217.975,73.19 218.495,72.02 218.755,70.72 C219.275,69.16 219.405,67.6 219.795,66.04 C220.445,63.57 221.095,61.23 220.705,58.5 C220.575,57.46 220.575,56.29 220.705,55.12 C221.095,53.04 221.485,50.96 222.005,49.01 C222.915,45.76 221.615,43.29 219.405,40.95 C218.495,40.04 217.065,39.52 216.155,38.48 C214.465,36.79 212.775,36.79 210.695,37.31 C209.395,37.7 209.135,38.61 209.005,39.65 C208.745,41.34 208.485,43.16 208.485,44.85 C208.355,46.93 207.185,48.62 207.445,50.83 C207.705,52.13 207.315,53.43 207.185,54.86 C206.925,57.33 206.795,59.93 206.405,62.4 C205.885,64.74 204.845,67.08 203.155,68.9 C202.505,69.68 201.595,70.2 200.945,70.98 C199.775,72.28 198.345,73.19 196.785,73.71 C196.135,73.84 195.225,73.84 194.575,73.58 C193.795,73.19 193.795,72.41 193.795,71.63 C193.925,69.16 193.015,66.56 193.665,64.09 C194.055,62.66 194.445,61.36 194.965,60.06 C195.355,58.76 195.745,57.46 196.135,56.29 C196.395,55.51 196.525,54.6 196.915,53.95 C197.955,51.87 199.125,49.79 200.165,47.84 C200.685,46.8 201.205,45.63 201.855,44.59 C202.895,43.03 203.415,41.21 203.805,39.26 C203.935,38.22 204.455,37.96 205.365,38.61 C205.885,39 206.405,39.39 206.925,38.74 C207.445,38.22 207.705,37.57 207.185,36.92 C206.795,36.4 206.665,36.01 206.275,35.62 C205.105,33.93 204.065,32.24 201.725,31.98 C201.075,31.98 200.295,31.46 199.645,31.98 C199.515,32.11 199.385,31.98 199.125,31.98 C198.865,31.98 198.475,31.85 198.215,31.98 C196.785,33.28 195.355,34.45 193.925,35.88 C192.755,37.05 191.715,38.35 190.805,39.65 C189.635,41.21 188.465,42.64 187.425,44.2 C186.255,45.89 185.605,47.84 184.955,49.66 C184.565,51.09 184.045,52.39 183.655,53.69 C183.395,54.6 183.005,55.38 183.005,56.16 C182.745,57.46 182.745,58.76 182.615,59.93 C182.615,60.71 182.485,61.36 182.615,62.01 C183.135,64.09 183.395,66.3 184.565,68.25 C185.605,69.68 186.645,71.11 187.685,72.67 C188.595,74.1 190.155,74.62 191.585,75.53 C193.795,76.96 196.395,77.22 198.865,77.61 C200.295,77.87 201.205,77.09 201.335,76.05 C201.335,75.27 201.725,75.01 202.245,74.88 C202.505,74.75 202.765,74.75 202.895,74.49 C203.805,73.45 205.495,72.93 205.755,71.24 C206.015,71.63 206.015,71.89 206.015,72.15 L206.015,75.4 C205.885,76.83 206.015,78.26 205.885,79.82 C205.755,81.51 205.625,83.2 205.365,84.89 C205.365,85.41 204.975,86.06 204.585,86.45 C203.285,87.62 201.725,88.66 200.555,89.83 C198.605,91.78 196.785,93.99 194.965,96.07 C194.445,96.72 193.925,97.5 193.535,98.28 C192.625,100.36 192.885,102.83 193.015,105.17 C193.015,105.3 193.015,105.43 193.145,105.56 L195.485,109.07 C196.525,110.63 198.215,111.41 199.905,111.8 C201.075,112.06 201.985,111.93 202.895,111.41 C204.065,110.76 204.715,109.72 205.235,108.55 C205.495,107.9 205.625,107.12 206.015,106.47 C206.795,105.17 208.095,104.39 209.135,103.35 C209.525,102.96 210.045,102.57 210.175,101.92 C210.435,101.01 210.565,99.84 210.695,98.8 C210.825,97.76 210.955,96.59 211.085,95.55 C211.345,93.86 211.995,92.3 211.995,90.74 C211.995,88.4 212.775,86.45 213.295,84.37 C213.295,84.11 213.555,83.85 213.815,83.72 C216.675,81.25 219.795,78.91 222.655,76.44 C223.955,75.4 224.865,73.84 225.905,72.67 C226.295,72.28 237.475,59.15 236.695,58.89 C235.525,58.5 235.005,58.63 234.225,59.41 C231.365,62.66 228.635,65.91 225.645,69.03 C223.695,71.11 221.485,73.06 219.405,75.01 C218.755,75.66 217.845,76.18 217.065,76.83 Z M204.715,91.52 C204.585,92.82 204.455,94.25 204.325,95.55 C204.195,97.63 204.195,99.71 203.935,101.79 C203.805,103.48 203.545,105.04 203.025,106.6 C202.765,107.77 200.685,108.16 199.515,107.9 C197.175,107.38 196.265,105.43 194.965,103.87 C194.835,103.74 194.705,103.48 194.705,103.35 C194.835,102.31 194.835,101.4 195.095,100.49 C195.095,100.1 195.615,99.84 195.875,99.58 C196.395,99.19 196.915,98.93 197.305,98.41 C198.215,97.5 198.995,96.59 199.905,95.68 C200.295,95.29 200.945,95.03 201.335,94.64 C201.595,94.51 201.725,94.25 201.855,94.12 L204.585,91.39 L204.715,91.52 Z" id="Combined-Shape"></path>
            <path d="M256.325,107.77 C256.715,107.77 256.845,107.77 256.845,107.9 C258.405,107.9 260.095,107.77 261.525,108.16 C264.775,109.07 267.375,108.03 269.715,106.08 C269.975,105.82 270.235,105.43 270.235,105.04 C270.885,102.7 272.835,92.43 273.225,90.09 C273.355,89.7 273.225,89.18 273.225,88.79 C273.355,87.49 273.615,86.32 273.745,85.15 C274.005,82.55 274.135,79.95 274.265,77.35 C274.395,75.27 274.395,73.19 274.395,71.11 C274.395,70.33 274.525,69.42 274.525,68.51 C274.655,67.34 274.655,66.3 274.655,65.13 C274.655,63.7 274.655,62.27 274.525,60.97 C274.395,58.76 274.135,56.42 274.005,54.21 C273.875,53.95 274.005,53.69 274.135,53.43 C275.435,51.74 276.605,49.92 278.035,48.36 C280.635,45.37 283.885,42.9 287.005,40.56 C287.785,40.04 288.955,39.91 289.865,39.65 C289.995,39.65 290.255,39.91 290.385,40.04 C291.035,40.95 291.945,41.86 292.335,43.03 C292.855,44.33 293.115,45.89 292.985,47.32 C292.595,49.79 292.335,52.39 291.425,54.86 C290.905,56.16 290.255,57.2 289.085,57.85 C288.045,58.37 287.005,59.02 286.095,59.67 C284.925,60.32 284.015,61.36 282.845,61.88 C279.595,63.44 277.385,65.91 276.605,69.42 C276.215,70.85 276.865,72.8 278.295,73.58 C280.245,74.75 282.455,75.4 284.665,75.79 C285.315,75.92 286.225,76.18 286.745,76.57 C288.045,77.74 289.475,77.87 291.165,77.61 C291.685,77.48 292.335,77.35 292.855,77.35 C294.545,77.22 295.845,76.57 296.755,75.14 C297.405,74.23 298.315,73.32 299.095,72.54 C299.615,72.02 300.395,71.5 300.915,70.98 C302.345,69.16 303.775,67.34 304.295,65 C304.425,63.83 304.815,62.79 304.945,61.62 C305.205,59.54 305.335,55.64 305.465,53.56 C305.465,53.3 305.725,52.78 305.985,52.65 C308.325,51.35 309.495,50.05 311.835,48.75 C312.485,48.36 314.305,47.19 314.825,46.67 C315.735,45.63 316.385,45.37 317.165,44.33 C318.335,42.9 318.465,42.9 319.245,41.34 C319.245,41.34 319.245,41.21 318.985,41.08 C314.955,45.37 310.015,48.36 304.945,51.35 C304.685,50.44 304.295,49.79 304.165,49.01 C303.905,47.71 303.125,46.8 302.345,45.89 C300.785,44.2 299.225,42.64 297.665,41.08 C296.495,40.04 295.455,38.87 294.155,38.09 C291.815,36.53 289.215,36.79 286.615,37.57 C284.535,38.22 282.585,39.52 281.025,41.08 C278.685,43.29 276.345,45.76 274.005,48.1 C273.745,48.36 273.485,48.75 273.095,49.14 C273.095,47.71 272.965,46.54 272.835,45.37 C272.705,43.29 272.575,41.08 272.315,38.87 C272.185,38.09 272.185,37.18 271.795,36.4 C271.145,34.58 269.715,33.15 268.285,31.85 C267.765,31.59 267.375,31.2 266.855,30.94 C265.685,30.42 264.645,29.9 263.215,30.42 C262.435,30.68 262.045,31.07 262.045,31.85 C261.915,34.19 261.915,36.53 261.655,38.87 C261.525,40.95 261.135,43.03 260.745,45.11 L260.745,45.37 C260.745,47.06 260.615,48.62 260.615,50.31 C260.615,51.22 260.485,52.13 260.485,53.04 C260.355,53.43 260.485,53.95 260.485,54.34 C260.355,56.29 260.095,58.11 259.965,59.93 C259.835,61.1 259.965,62.4 259.965,63.57 L259.965,67.08 C259.835,67.99 259.965,68.77 259.965,69.55 L259.575,74.23 C259.575,74.88 259.575,75.66 259.445,76.31 C259.315,77.74 259.185,79.04 259.055,80.47 C258.925,82.42 258.925,84.5 258.795,86.45 L258.405,91.91 C258.145,94.51 256.585,105.04 256.325,107.77 Z M286.745,63.18 C286.615,63.7 286.355,64.09 286.095,64.61 C285.575,65.39 285.055,66.17 284.405,67.08 C283.625,68.25 282.455,69.03 280.895,68.9 C280.245,68.9 279.725,69.03 279.205,69.03 C281.545,66.82 283.495,64.22 286.745,63.18 Z" id="Combined-Shape"></path>
            <path d="M332.245,74.49 C334.585,73.58 335.105,71.24 334.325,69.55 C333.935,68.77 334.065,68.12 334.455,67.6 C335.105,66.82 334.975,66.04 334.975,65.26 C334.845,63.83 334.845,62.4 334.845,60.97 C334.845,60.32 335.105,59.8 335.495,59.28 C336.535,58.11 337.705,57.07 338.225,55.64 C338.745,54.21 339.395,52.91 340.175,51.74 C341.085,50.31 341.735,48.75 342.125,47.06 C342.255,46.41 342.385,45.76 342.255,44.98 C341.995,42.64 340.565,40.82 338.875,39.52 C337.705,38.48 335.885,38.09 334.325,37.44 L334.065,37.44 C332.245,37.7 330.685,38.35 329.255,39.26 C328.605,39.78 327.955,40.3 327.305,40.69 C326.525,40.95 325.745,41.21 324.965,41.34 C324.315,41.34 323.535,41.86 323.015,40.95 C322.755,40.43 322.365,40.04 322.235,39.52 C321.845,38.74 321.325,37.83 321.455,37.18 C321.975,35.62 322.885,34.06 323.405,32.37 C324.055,30.55 324.835,28.73 325.095,26.78 C325.355,24.7 325.225,22.49 325.095,20.41 C324.965,18.33 323.535,17.03 321.455,17.03 C320.935,17.03 320.285,17.16 319.895,17.55 C318.725,18.59 317.425,19.63 316.515,20.93 C314.825,23.4 313.785,26.26 313.785,29.25 C313.655,31.46 313.915,33.8 314.175,36.01 C314.305,37.05 314.695,38.09 315.215,38.87 C315.735,39.52 316.905,40.17 316.645,40.82 C315.865,42.51 314.955,45.76 314.435,47.45 C313.005,51.09 311.575,52.91 310.275,56.55 C310.145,56.94 309.365,58.11 309.495,58.24 C310.015,58.5 310.275,58.11 310.795,57.98 C311.185,57.98 311.185,57.59 311.445,57.2 C311.835,56.68 312.225,55.64 312.745,54.99 C313.915,53.56 316.515,47.84 317.035,45.89 C317.295,45.24 318.335,43.16 318.465,42.25 C318.855,42.51 319.505,43.55 319.765,43.68 C320.675,44.33 321.455,44.85 322.365,45.24 C323.145,45.63 323.925,45.63 324.705,46.02 C325.355,46.28 325.485,46.8 325.225,47.45 C325.095,47.97 324.965,48.62 324.835,49.14 C324.575,50.57 324.315,52.13 324.055,53.69 C323.795,55.77 323.535,57.98 323.405,60.06 C323.405,62.27 323.405,64.35 323.665,66.43 C324.185,70.85 326.135,74.36 329.905,76.83 C330.685,77.48 331.465,78.13 332.375,78.39 C334.195,78.91 335.885,78.39 337.445,77.35 C338.355,76.83 339.135,76.18 339.915,75.66 C342.385,74.1 344.465,72.15 346.025,69.81 C346.805,68.64 347.455,67.47 348.365,66.56 C349.925,65.26 350.835,63.44 351.615,61.75 C352.395,60.19 353.045,58.5 353.695,56.81 C353.825,56.42 353.825,55.9 353.825,55.38 C353.955,54.86 353.955,54.34 353.955,53.82 C353.955,53.43 354.085,53.17 354.085,52.91 C354.085,52.91 353.955,52.78 353.825,52.78 C353.565,53.43 353.305,54.08 352.915,54.73 C350.835,57.98 348.755,61.36 346.675,64.61 C345.375,66.56 343.815,68.51 342.385,70.2 C341.605,71.11 340.435,71.89 339.525,72.67 C338.095,74.1 336.535,75.27 334.715,76.05 C332.895,76.83 332.375,76.57 332.245,74.75 L332.245,74.49 Z M322.365,21.58 C323.925,23.01 322.235,29.51 320.675,31.46 C320.285,29.77 320.545,28.08 320.935,26.52 C321.325,24.96 321.845,23.4 322.365,21.58 Z" id="Combined-Shape"></path>
            <path d="M383.465,60.19 L383.465,55.77 C383.335,54.6 383.205,53.3 383.075,52.13 C382.945,51.48 382.815,50.96 382.815,50.31 C382.945,47.84 382.425,45.5 380.865,43.42 C380.345,42.77 379.695,42.25 379.045,41.6 C378.265,40.56 377.095,40.43 376.055,40.04 C375.405,39.91 374.495,40.3 373.845,40.56 C373.325,40.69 373.065,40.82 372.675,40.3 C372.155,39.26 371.505,38.35 370.985,37.44 C370.205,36.27 369.425,35.36 367.865,35.23 C366.305,34.97 364.745,34.84 363.445,35.88 C362.925,36.27 362.535,36.79 361.885,37.05 C359.935,37.7 358.505,39.13 357.335,40.56 C356.035,42.38 354.865,44.2 353.825,46.15 C352.785,47.97 351.745,49.92 351.225,51.87 C350.705,54.21 350.185,56.55 350.965,59.02 C351.225,60.19 351.225,61.49 351.615,62.79 C352.265,65.13 353.695,67.08 355.645,68.77 C357.595,70.33 359.415,72.15 361.885,73.32 C362.925,73.71 363.835,74.36 364.875,74.88 C366.175,75.4 367.475,75.79 368.775,76.18 C369.945,76.44 370.985,76.83 372.155,76.83 C373.975,77.09 375.665,76.96 377.355,76.05 C378.915,75.14 379.825,73.84 379.825,72.15 C379.825,70.33 380.215,68.51 381.125,66.82 C381.645,66.04 382.035,65.13 382.295,64.09 C382.425,63.57 382.685,63.44 383.205,63.44 C385.025,63.18 395.425,56.29 399.065,41.47 C399.325,40.43 398.935,40.69 398.675,39.78 C397.765,41.73 396.855,43.55 396.075,45.5 C394.775,48.62 393.345,49.92 391.525,52.78 C390.485,54.47 388.535,56.94 387.365,58.5 C386.325,59.67 384.765,59.02 383.465,60.19 Z M368.905,49.79 C370.335,55.51 373.715,59.54 378.915,62.01 C378.395,65 376.445,66.82 374.235,68.51 C373.455,69.16 372.545,69.94 371.505,69.81 C369.685,69.55 367.735,69.16 366.565,67.6 C366.045,67.08 365.915,66.04 365.915,65.13 C365.915,63.96 365.915,62.79 365.525,61.75 C365.265,60.97 365.265,60.19 365.265,59.41 C365.135,57.07 365.655,54.99 366.565,52.91 C366.955,51.74 367.865,50.83 368.515,49.79 L368.905,49.79 Z M379.175,58.5 C378.915,57.85 378.655,57.2 378.265,56.55 C377.745,55.38 377.095,54.21 376.445,53.04 C376.185,52.52 375.925,51.87 375.535,51.35 C375.405,50.96 375.145,50.57 374.885,50.31 C373.715,48.88 372.935,47.32 372.545,45.76 C372.415,44.98 372.935,44.2 373.195,43.42 C373.325,43.29 373.715,43.16 373.975,43.29 C375.925,43.81 378.915,46.02 379.175,48.62 C379.305,50.44 379.955,52.13 379.825,53.95 C379.825,55.38 379.825,56.94 379.695,58.5 L379.175,58.5 Z" id="Combined-Shape"></path>
            <path d="M422.205,43.94 C421.425,43.81 421.425,44.59 421.165,45.11 C420.125,46.67 419.085,48.49 417.915,50.05 C416.095,52.13 414.145,54.08 412.195,55.9 C410.895,57.2 408.165,59.02 406.735,60.32 L406.865,57.46 C406.865,56.94 406.995,56.42 407.125,55.9 C407.255,52.26 407.515,48.62 407.645,44.98 C407.775,44.2 408.035,43.42 408.555,42.77 C409.595,41.6 410.375,40.43 410.765,38.87 C411.025,37.7 411.415,36.4 411.935,35.36 C413.235,32.63 414.275,29.9 414.795,27.04 C415.055,25.87 415.445,24.7 415.445,23.53 C415.445,21.32 415.185,18.98 415.055,16.64 L414.665,14.69 C414.405,13.26 414.275,11.83 414.015,10.4 C413.885,9.49 413.755,8.45 413.495,7.54 C413.365,6.89 412.845,6.37 412.845,5.85 C412.585,4.16 411.545,2.99 410.375,1.95 C409.855,1.56 409.465,0.78 408.815,0.65 C407.385,0.52 405.955,0.52 404.525,1.43 C403.355,2.08 402.705,3.25 401.795,4.29 C400.365,5.98 399.325,7.93 398.805,10.14 C398.285,12.22 398.025,14.43 397.635,16.51 C397.375,17.42 397.115,18.33 397.115,19.24 C396.855,21.84 396.595,24.57 396.465,27.17 C396.205,31.33 396.075,35.62 395.945,39.78 C395.815,42.12 395.815,44.46 395.945,46.67 C395.945,51.35 396.205,55.9 396.335,60.58 C396.335,62.27 396.465,63.96 396.335,65.65 C396.335,65.78 396.205,66.43 396.205,66.56 C396.205,66.95 396.075,67.08 395.815,67.47 C395.035,68.51 395.295,69.55 394.515,70.72 C393.215,72.93 391.785,75.14 390.485,77.48 C389.185,79.82 388.015,82.16 386.845,84.76 C385.935,86.71 385.285,88.79 384.505,90.87 C383.595,93.21 383.205,95.81 383.725,98.54 C384.115,101.53 385.025,104.26 386.455,106.73 C386.715,107.25 387.235,107.77 387.755,108.16 C388.275,108.68 388.925,109.07 389.445,109.59 C391.135,111.28 393.085,111.54 394.775,110.76 C396.075,110.24 396.985,108.94 397.895,107.64 C398.805,106.6 399.325,105.04 400.105,103.74 C400.885,102.57 401.665,101.4 402.445,100.1 C402.965,99.45 403.225,98.54 403.745,98.28 C404.655,98.02 404.915,97.11 405.175,96.33 C405.695,94.9 406.085,93.47 406.475,92.17 C406.605,91.91 406.605,91.65 406.735,91.26 C406.865,89.7 407.125,88.14 407.385,86.58 C407.515,85.41 407.515,84.11 407.515,82.81 C407.385,82.03 407.255,81.12 407.125,80.34 C406.865,79.17 406.605,78.13 406.215,77.09 C405.825,75.92 405.435,75.01 404.915,73.97 C404.525,73.06 404.395,72.02 404.135,71.11 C403.875,70.59 404.135,69.94 404.265,69.55 C404.265,68.25 404.395,69.29 404.005,67.86 L404.005,67.73 C403.745,66.82 403.745,65.91 404.915,65.13 C406.085,64.22 406.865,62.92 407.905,61.88 C408.945,60.84 411.155,59.8 412.195,58.89 L415.315,56.16 C416.095,55.25 416.875,54.21 417.655,53.3 L421.165,49.79 C422.205,48.75 422.985,47.45 423.375,45.89 C423.505,45.37 422.725,43.94 422.205,43.94 Z M407.775,30.29 C407.905,28.47 408.425,26.52 408.295,24.7 C408.165,22.36 408.555,20.15 408.815,17.94 C408.945,17.55 408.815,17.16 408.815,16.77 C408.815,15.6 408.685,14.43 408.555,13.13 C408.555,12.61 408.815,12.22 408.815,11.7 C408.945,10.4 409.075,9.23 409.465,7.93 C409.855,9.36 410.375,10.92 410.505,12.48 C411.285,21.06 411.415,29.77 407.515,37.96 C407.515,37.57 407.385,37.05 407.385,36.53 L407.775,30.29 Z M398.155,84.76 C398.025,86.45 398.025,88.01 397.895,89.7 C397.765,91.52 397.635,93.34 397.245,95.03 C396.855,97.37 396.205,99.58 395.685,101.79 C395.555,102.44 395.035,102.83 394.645,103.35 C394.385,103.87 393.995,104.26 393.735,104.65 C393.215,105.43 392.565,105.56 391.785,105.43 C391.135,105.3 390.355,105.43 389.705,105.3 C388.405,105.17 387.365,104.52 386.195,103.48 C384.765,102.18 384.505,100.49 384.635,98.8 C384.635,97.63 385.285,96.59 385.675,95.42 C385.805,95.03 385.935,94.64 386.195,94.25 C387.105,92.17 388.015,90.09 389.055,88.14 C389.835,86.58 390.615,85.28 391.395,83.85 C392.305,82.16 393.085,80.34 393.865,78.78 C394.645,77.22 395.555,75.79 396.335,74.36 C396.855,73.58 397.245,72.8 397.765,72.02 L397.895,72.02 C397.895,73.71 397.895,75.27 398.025,76.96 C398.025,78.52 398.285,80.08 398.285,81.64 C398.285,82.68 398.155,83.72 398.155,84.76 Z" id="Combined-Shape"></path>
            <path d="M415.185,62.92 C415.185,63.05 415.315,63.05 415.315,63.05 C415.185,65.52 416.095,67.86 417.135,70.07 C417.655,70.98 418.175,71.76 418.825,72.54 C420.125,74.23 421.685,75.79 423.635,76.7 C425.845,77.61 428.055,78.13 430.395,77.87 C431.175,77.74 431.955,77.74 432.735,77.61 C433.125,77.61 433.645,77.48 434.165,77.35 C434.945,77.09 435.725,76.96 436.505,76.57 C437.155,76.31 437.675,75.79 438.325,75.4 C439.105,74.88 440.015,74.49 440.795,73.97 C442.225,73.06 443.135,71.76 444.045,70.2 C444.435,69.42 444.825,68.64 445.475,67.99 C446.905,66.82 447.815,65.26 448.725,63.7 C448.985,63.18 449.505,62.79 449.635,62.27 C449.895,60.97 450.805,60.32 451.585,59.41 C451.845,59.28 452.105,58.89 452.235,58.63 L453.015,56.68 C453.275,56.16 453.405,55.77 453.535,55.25 C453.535,54.6 453.665,54.08 454.185,53.56 C454.965,52.52 456.135,52.13 456.525,50.7 C456.785,49.92 456.655,48.75 456.005,48.49 C455.745,48.36 455.355,48.49 455.225,48.62 C454.705,49.4 454.185,50.31 453.665,51.22 C451.975,54.08 450.285,56.94 448.595,59.67 C447.555,61.23 446.255,62.79 445.215,64.35 C443.915,66.56 441.965,68.25 439.885,69.81 C438.585,70.98 437.025,71.76 435.595,72.8 C434.425,73.71 433.125,74.49 431.695,74.62 C430.395,74.88 428.965,75.14 427.535,75.01 C425.455,74.88 424.285,73.71 423.115,72.28 C423.115,72.15 422.985,71.89 422.985,71.76 C423.635,70.59 423.765,69.16 424.025,67.86 C424.415,66.17 424.805,64.35 425.325,62.79 C425.455,62.01 425.845,61.23 426.495,60.97 C427.665,60.19 428.965,59.54 430.135,58.63 C431.435,57.46 432.995,56.42 434.425,55.25 C436.115,53.95 437.545,52.39 438.715,50.57 C438.975,50.18 439.495,49.92 440.015,49.66 C440.145,49.53 440.405,49.4 440.405,49.27 C440.925,48.36 441.315,47.58 441.835,46.67 C442.095,46.15 442.485,45.63 442.745,45.11 C442.875,44.85 443.135,44.59 443.135,44.46 C443.395,43.94 443.525,43.29 443.525,42.77 C443.785,41.86 443.915,40.95 444.045,40.04 C444.045,39.91 443.915,39.65 443.915,39.52 C443.525,38.74 443.135,38.09 442.745,37.31 C442.485,36.79 442.225,36.27 442.095,35.62 C441.705,34.58 441.055,33.93 440.145,33.28 C439.365,32.76 438.455,32.76 437.675,32.63 C436.505,32.24 435.595,32.63 434.815,32.89 C433.645,33.28 432.475,33.54 431.565,34.58 C431.305,34.84 431.045,34.97 430.785,35.1 C429.875,35.62 428.835,36.01 428.055,36.79 C426.885,37.7 425.845,38.87 424.805,40.04 C424.285,40.43 423.895,41.08 423.375,41.6 C422.985,41.99 422.725,42.51 422.335,43.03 C421.815,43.94 421.165,44.85 420.645,45.76 C419.735,47.32 418.955,48.88 418.305,50.57 C417.655,52.13 417.005,53.69 416.745,55.51 C416.615,55.9 416.355,56.16 416.225,56.55 C416.095,57.33 415.965,57.98 415.965,58.63 L415.185,62.92 Z M439.105,40.3 C439.495,41.08 440.015,41.34 440.925,41.08 C440.795,41.86 440.795,42.51 440.535,43.16 C439.755,45.76 438.845,48.23 437.025,50.18 C435.465,51.87 433.775,53.43 432.085,54.86 C430.915,55.9 429.485,56.68 428.185,57.59 C427.925,57.72 427.795,57.85 427.665,57.85 C428.185,56.29 428.705,54.86 429.355,53.3 C429.615,52.39 429.875,51.48 430.265,50.57 C430.655,49.79 431.175,49.14 431.565,48.36 C431.825,47.97 431.955,47.58 432.215,47.06 C432.995,45.89 433.775,44.59 434.685,43.29 C434.815,43.03 435.205,42.9 435.595,42.64 C436.375,42.12 437.155,41.6 438.065,41.08 C438.325,40.82 438.715,40.69 439.105,40.3 Z" id="Combined-Shape"></path>
            <path d="M497.085,56.03 C496.565,55.51 496.695,55.9 496.045,55.64 C495.655,56.42 495.525,56.94 495.265,57.33 C492.535,61.88 489.805,66.43 485.385,70.07 C483.955,71.24 482.785,72.54 480.575,72.93 L479.405,73.32 L480.185,72.54 C481.615,71.11 485.775,68.51 485.515,63.57 C485.515,62.79 485.255,62.14 484.995,61.36 C484.605,59.8 484.475,58.24 483.045,56.81 C482.265,56.03 481.485,55.25 480.705,54.34 C479.795,53.3 478.885,52.26 477.845,51.22 C476.025,49.4 474.075,47.71 471.865,46.28 C469.395,44.46 466.925,42.9 464.975,40.69 C463.285,38.87 462.895,38.09 463.935,36.53 C464.325,36.01 464.975,35.62 465.235,34.97 C465.755,33.93 466.015,32.76 466.405,31.59 C466.535,31.2 466.925,30.68 467.185,30.68 C468.615,30.68 467.185,28.08 466.405,27.3 C464.845,26 463.025,25.35 461.335,25.61 C459.775,25.87 458.345,26.39 457.175,27.43 C456.655,27.95 455.875,28.34 455.355,28.86 C454.705,29.51 453.925,30.16 453.535,30.94 C452.755,32.76 452.755,34.71 453.535,36.79 C454.445,39.39 455.485,41.08 457.435,43.16 C457.435,43.16 459.385,45.11 459.515,45.11 C460.945,46.54 462.765,47.84 464.065,49.4 C465.105,50.57 466.535,51.61 467.445,52.78 C468.615,54.34 469.655,56.03 470.435,57.72 C471.605,60.32 471.605,62.79 471.605,65.26 C471.605,66.43 471.085,67.6 470.565,68.64 C469.525,70.85 468.355,72.8 465.755,73.84 C465.495,73.84 465.235,74.1 465.105,74.36 C464.195,75.4 463.025,76.31 461.205,76.18 C460.685,76.05 460.165,75.92 459.775,75.79 C458.215,75.66 456.915,74.88 455.615,73.97 C454.965,73.45 454.055,74.75 454.315,75.27 C454.705,75.92 455.095,76.57 456.005,76.7 C456.265,76.7 456.525,76.96 456.785,77.09 C458.215,77.61 459.515,78.91 461.205,78.39 L461.465,78.39 C462.245,79.04 462.895,78.65 463.675,78.52 C464.975,78.39 471.475,77.22 471.865,77.09 C472.515,76.96 473.165,76.83 473.685,76.57 C474.335,76.18 474.855,75.79 475.505,75.53 C476.545,75.66 477.715,75.66 478.755,75.53 C480.185,75.27 481.485,75.01 482.785,74.75 C483.565,74.49 484.475,73.32 485.125,72.8 C487.595,71.24 489.285,69.16 490.845,67.08 C491.495,66.17 491.755,65.26 492.275,64.48 C493.965,62.01 495.135,59.67 496.435,57.33 C496.825,56.68 497.605,56.42 497.085,56.03 Z" id="Path"></path>
            <path d="M542.195,56.03 C541.675,55.51 541.805,55.9 541.155,55.64 C540.765,56.42 540.635,56.94 540.375,57.33 C537.645,61.88 534.915,66.43 530.495,70.07 C529.065,71.24 527.895,72.54 525.685,72.93 L524.515,73.32 L525.295,72.54 C526.725,71.11 530.885,68.51 530.625,63.57 C530.625,62.79 530.365,62.14 530.105,61.36 C529.715,59.8 529.585,58.24 528.155,56.81 C527.375,56.03 526.595,55.25 525.815,54.34 C524.905,53.3 523.995,52.26 522.955,51.22 C521.135,49.4 519.185,47.71 516.975,46.28 C514.505,44.46 512.035,42.9 510.085,40.69 C508.395,38.87 508.005,38.09 509.045,36.53 C509.435,36.01 510.085,35.62 510.345,34.97 C510.865,33.93 511.125,32.76 511.515,31.59 C511.645,31.2 512.035,30.68 512.295,30.68 C513.725,30.68 512.295,28.08 511.515,27.3 C509.955,26 508.135,25.35 506.445,25.61 C504.885,25.87 503.455,26.39 502.285,27.43 C501.765,27.95 500.985,28.34 500.465,28.86 C499.815,29.51 499.035,30.16 498.645,30.94 C497.865,32.76 497.865,34.71 498.645,36.79 C499.555,39.39 500.595,41.08 502.545,43.16 C502.545,43.16 504.495,45.11 504.625,45.11 C506.055,46.54 507.875,47.84 509.175,49.4 C510.215,50.57 511.645,51.61 512.555,52.78 C513.725,54.34 514.765,56.03 515.545,57.72 C516.715,60.32 516.715,62.79 516.715,65.26 C516.715,66.43 516.195,67.6 515.675,68.64 C514.635,70.85 513.465,72.8 510.865,73.84 C510.605,73.84 510.345,74.1 510.215,74.36 C509.305,75.4 508.135,76.31 506.315,76.18 C505.795,76.05 505.275,75.92 504.885,75.79 C503.325,75.66 502.025,74.88 500.725,73.97 C500.075,73.45 499.165,74.75 499.425,75.27 C499.815,75.92 500.205,76.57 501.115,76.7 C501.375,76.7 501.635,76.96 501.895,77.09 C503.325,77.61 504.625,78.91 506.315,78.39 L506.575,78.39 C507.355,79.04 508.005,78.65 508.785,78.52 C510.085,78.39 516.585,77.22 516.975,77.09 C517.625,76.96 518.275,76.83 518.795,76.57 C519.445,76.18 519.965,75.79 520.615,75.53 C521.655,75.66 522.825,75.66 523.865,75.53 C525.295,75.27 526.595,75.01 527.895,74.75 C528.675,74.49 529.585,73.32 530.235,72.8 C532.705,71.24 534.395,69.16 535.955,67.08 C536.605,66.17 536.865,65.26 537.385,64.48 C539.075,62.01 540.245,59.67 541.545,57.33 C541.935,56.68 542.715,56.42 542.195,56.03 Z" id="Path"></path>
            <path d="M543.495,29.12 L548.955,30.29 C551.035,30.29 552.595,29.12 553.895,28.08 C554.545,27.56 554.805,26.39 554.675,25.61 C554.545,24.57 554.415,23.27 552.985,22.88 C551.425,22.62 549.865,21.97 548.435,22.1 C546.615,22.23 544.925,23.01 543.235,23.4 C542.065,23.79 541.155,24.31 541.155,25.61 C541.155,26.91 542.325,28.73 543.495,29.12 Z" id="Path"></path>
            <path d="M568.455,53.82 C567.935,53.3 568.065,53.69 567.415,53.43 C567.025,54.21 566.895,54.86 566.635,55.51 C563.775,60.97 561.045,66.43 556.755,70.85 C555.325,72.28 554.155,73.97 551.945,74.36 C551.165,74.49 550.515,74.88 549.735,75.14 C549.995,74.23 550.125,73.45 551.165,73.32 C551.685,73.32 552.205,72.54 552.465,72.15 C552.725,71.76 552.595,71.24 552.595,70.72 C552.725,67.34 553.115,63.83 553.895,60.58 L553.895,59.15 C554.025,57.85 554.155,56.42 554.155,55.12 C554.285,53.04 554.415,50.96 554.415,48.88 C554.415,47.97 554.415,47.06 554.285,46.15 L553.895,44.59 C553.765,43.55 553.895,42.38 553.375,41.47 C552.205,39.91 551.295,37.96 549.215,37.18 C547.785,36.66 546.355,35.88 544.925,35.88 C542.585,35.88 541.285,37.05 540.765,39.39 C540.635,39.91 540.635,40.43 540.505,40.95 C540.245,42.25 539.985,43.55 539.855,44.85 C539.595,46.54 539.465,48.23 539.335,49.92 C539.075,52.91 538.685,55.77 538.815,58.76 C539.075,61.49 538.555,64.22 539.465,67.08 C539.855,68.51 539.985,69.94 540.375,71.24 C541.285,73.84 542.715,75.92 545.315,77.09 C547.005,77.74 548.565,77.74 550.125,77.48 C551.425,77.35 552.855,76.83 554.155,76.57 C554.935,76.18 555.845,74.75 556.495,74.23 C558.835,72.41 560.525,69.81 562.215,67.21 C562.735,66.3 563.125,65 563.645,64.09 C565.335,61.1 566.505,58.24 567.805,55.51 C568.195,54.6 568.975,54.34 568.455,53.82 Z" id="Path"></path>
            <path d="M598.095,60.19 L598.095,55.77 C597.965,54.6 597.835,53.3 597.705,52.13 C597.575,51.48 597.445,50.96 597.445,50.31 C597.575,47.84 597.055,45.5 595.495,43.42 C594.975,42.77 594.325,42.25 593.675,41.6 C592.895,40.56 591.725,40.43 590.685,40.04 C590.035,39.91 589.125,40.3 588.475,40.56 C587.955,40.69 587.695,40.82 587.305,40.3 C586.785,39.26 586.135,38.35 585.615,37.44 C584.835,36.27 584.055,35.36 582.495,35.23 C580.935,34.97 579.375,34.84 578.075,35.88 C577.555,36.27 577.165,36.79 576.515,37.05 C574.565,37.7 573.135,39.13 571.965,40.56 C570.665,42.38 569.495,44.2 568.455,46.15 C567.415,47.97 566.375,49.92 565.855,51.87 C565.335,54.21 564.815,56.55 565.595,59.02 C565.855,60.19 565.855,61.49 566.245,62.79 C566.895,65.13 568.325,67.08 570.275,68.77 C572.225,70.33 574.045,72.15 576.515,73.32 C577.555,73.71 578.465,74.36 579.505,74.88 C580.805,75.4 582.105,75.79 583.405,76.18 C584.575,76.44 585.615,76.83 586.785,76.83 C588.605,77.09 590.295,76.96 591.985,76.05 C593.545,75.14 594.455,73.84 594.455,72.15 C594.455,70.33 594.845,68.51 595.755,66.82 C596.275,66.04 596.665,65.13 596.925,64.09 C597.055,63.57 597.315,63.44 597.835,63.44 C599.655,63.18 610.055,56.29 613.695,41.47 C613.955,40.43 613.565,40.69 613.305,39.78 C612.395,41.73 611.485,43.55 610.705,45.5 C609.405,48.62 607.975,49.92 606.155,52.78 C605.115,54.47 603.165,56.94 601.995,58.5 C600.955,59.67 599.395,59.02 598.095,60.19 Z M583.535,49.79 C584.965,55.51 588.345,59.54 593.545,62.01 C593.025,65 591.075,66.82 588.865,68.51 C588.085,69.16 587.175,69.94 586.135,69.81 C584.315,69.55 582.365,69.16 581.195,67.6 C580.675,67.08 580.545,66.04 580.545,65.13 C580.545,63.96 580.545,62.79 580.155,61.75 C579.895,60.97 579.895,60.19 579.895,59.41 C579.765,57.07 580.285,54.99 581.195,52.91 C581.585,51.74 582.495,50.83 583.145,49.79 L583.535,49.79 Z M593.805,58.5 C593.545,57.85 593.285,57.2 592.895,56.55 C592.375,55.38 591.725,54.21 591.075,53.04 C590.815,52.52 590.555,51.87 590.165,51.35 C590.035,50.96 589.775,50.57 589.515,50.31 C588.345,48.88 587.565,47.32 587.175,45.76 C587.045,44.98 587.565,44.2 587.825,43.42 C587.955,43.29 588.345,43.16 588.605,43.29 C590.555,43.81 593.545,46.02 593.805,48.62 C593.935,50.44 594.585,52.13 594.455,53.95 C594.455,55.38 594.455,56.94 594.325,58.5 L593.805,58.5 Z" id="Combined-Shape"></path>
            <path d="M625.395,42.38 C625.395,41.47 625.525,40.3 625.395,39.26 C625.395,38.48 625.135,37.83 624.745,37.18 C623.965,35.88 623.055,34.58 621.755,33.67 C620.195,32.5 618.895,31.07 617.075,30.68 C615.385,30.29 613.825,29.64 612.135,30.55 C610.965,31.33 609.665,31.59 610.055,33.41 C610.185,34.58 610.055,35.75 610.055,36.92 C609.925,39 609.665,41.08 609.535,43.16 C609.535,43.81 609.795,44.59 609.665,45.24 C609.665,47.19 609.535,49.14 609.405,51.09 C609.405,52.13 609.275,53.3 609.275,54.34 C609.275,55.25 609.535,56.16 609.535,56.94 C609.405,59.41 609.145,61.75 609.405,64.09 C609.665,65.78 609.925,67.47 609.925,69.03 C610.055,70.33 609.925,71.63 609.795,72.93 C609.795,73.84 609.925,74.49 610.965,74.75 C612.655,75.27 614.345,75.66 615.905,76.44 C617.205,77.09 618.765,77.48 620.195,77.74 C621.755,78.13 623.185,77.22 623.445,76.05 C623.705,74.75 623.835,73.32 624.095,72.02 C624.095,70.98 623.965,69.81 624.355,68.9 C624.745,67.99 624.485,67.08 624.485,66.17 C624.355,65.13 624.355,63.96 624.225,62.79 C624.225,61.75 623.965,60.71 623.965,59.54 C623.835,58.24 623.705,56.94 623.835,55.77 C624.095,53.82 624.355,52 624.875,50.18 C625.265,48.36 625.915,46.54 626.695,44.98 C627.345,43.55 628.385,42.25 629.425,41.08 C629.945,40.43 630.465,39.78 631.245,39.52 C632.285,39.13 633.325,39 634.495,38.87 C635.015,38.61 635.275,38.87 635.145,39.52 C635.015,40.3 635.015,41.21 634.755,41.86 C634.235,43.16 633.455,44.33 632.935,45.63 C632.025,48.23 631.245,50.7 630.465,53.3 C630.075,54.6 629.555,56.03 629.555,57.46 C629.425,58.89 628.905,60.19 628.905,61.62 C629.295,65.13 629.555,68.51 632.545,71.11 C634.105,72.54 635.665,73.84 637.615,74.62 C639.045,75.14 640.345,75.79 641.905,75.01 C642.685,74.62 643.595,74.49 644.375,74.23 C645.025,73.97 645.675,73.84 646.195,73.58 C647.235,73.06 648.145,72.67 649.055,72.02 C651.005,70.85 652.695,69.42 653.605,67.21 C654.125,66.17 655.035,65.26 655.555,64.22 C656.335,62.66 656.985,61.36 658.155,59.41 C659.585,56.94 660.235,54.86 660.755,52.91 C660.885,52.13 661.275,51.09 661.015,50.31 C660.885,49.66 659.065,50.96 658.545,52.39 C658.285,53.17 658.415,53.69 658.155,54.47 C657.375,56.81 654.905,61.1 653.865,63.44 C652.825,66.3 650.355,68.38 647.755,70.33 C647.105,70.85 644.375,71.63 643.595,72.15 L643.595,66.69 C644.115,63.57 644.635,60.58 645.155,57.46 C645.285,57.2 645.415,56.94 645.415,56.81 C645.935,55.64 646.325,54.47 646.715,53.17 C646.975,52.39 646.975,51.48 647.235,50.7 C647.755,49.14 647.885,47.84 647.365,46.28 C646.585,44.07 645.545,42.12 643.985,40.43 C642.295,38.22 640.085,36.79 637.355,36.27 C634.235,35.75 631.635,36.53 629.295,38.74 C627.995,40.04 626.695,41.21 625.395,42.38 Z" id="Path"></path>
            <path d="M678.825,57.85 C678.825,57.98 678.955,57.98 678.955,57.98 L678.955,61.75 C678.955,63.31 678.695,64.87 678.825,66.3 C678.955,68.51 679.475,70.59 680.385,72.67 C681.165,74.49 682.075,75.92 683.635,77.09 C685.325,78.39 684.935,78.26 687.145,78.26 C688.055,78.26 688.965,78.13 689.745,77.74 C691.175,77.22 692.605,76.31 693.775,75.4 C695.465,74.23 696.765,72.54 697.805,70.72 C698.975,69.03 699.885,67.34 701.055,65.78 C701.575,65 701.575,65.13 702.225,63.96 C703.395,61.75 706.515,55.64 707.425,53.43 C707.815,52.52 708.465,52.52 707.685,52.26 C706.645,52 707.685,52.26 706.515,52.13 C706.385,52.13 706.125,52.52 705.995,52.65 C704.955,54.6 702.095,60.97 700.925,62.79 C700.145,64.22 698.845,65.52 697.935,66.95 C696.505,69.55 695.075,72.15 692.735,74.23 C691.565,75.27 690.265,76.05 688.835,76.31 C687.925,75.4 687.275,74.49 686.365,73.58 C687.275,72.54 688.055,71.37 688.965,70.2 C689.095,70.07 689.095,69.81 689.225,69.68 C689.745,68.12 690.005,66.3 690.915,65 C692.475,62.79 692.735,60.19 693.515,57.85 C693.905,56.29 694.035,54.6 694.165,53.04 C694.425,50.83 694.555,48.62 694.815,46.41 C694.815,45.63 695.075,44.98 695.075,44.2 C695.075,43.03 695.205,41.73 695.075,40.43 C694.945,39.39 694.425,38.22 694.295,37.18 C693.905,35.36 692.605,34.32 691.305,33.28 C690.265,32.24 688.835,32.11 687.405,31.98 C685.585,31.72 683.895,31.98 682.725,33.54 C682.075,34.58 681.425,35.75 680.905,36.66 C679.995,36.01 678.825,35.36 677.785,34.58 C676.485,33.54 674.925,33.54 673.495,34.06 C672.325,34.45 671.415,35.23 670.245,35.49 C668.815,35.75 667.905,36.79 666.865,37.57 C665.695,38.61 664.655,39.78 663.485,40.95 C663.095,41.47 662.575,41.86 662.185,42.51 C661.535,43.55 660.885,44.72 660.235,46.02 C659.845,46.67 659.455,47.32 659.195,48.1 C658.675,49.4 658.285,50.7 657.765,52 C657.115,54.47 656.075,56.81 655.685,59.28 C654.905,62.92 655.555,66.56 657.635,69.81 C659.455,72.8 662.055,74.49 665.695,74.49 C666.605,74.49 667.385,73.84 668.165,73.84 C669.855,73.84 671.025,72.93 671.805,71.89 C672.975,70.59 673.625,68.9 674.405,67.34 C675.575,65.13 676.485,62.79 677.525,60.45 C677.915,59.67 678.435,58.76 678.825,57.85 Z M679.605,40.82 C679.605,42.77 679.475,44.72 679.345,46.67 C679.215,49.4 678.695,51.87 677.135,54.34 C675.835,56.42 674.925,58.89 673.755,61.1 C672.715,63.18 671.805,65.39 670.505,67.34 C669.465,68.77 668.035,70.07 666.735,71.24 C665.565,72.15 663.225,71.76 662.185,70.46 C661.535,69.68 660.755,68.9 660.365,67.99 C659.845,66.56 659.195,65 659.715,63.31 C660.235,61.49 660.625,59.67 661.145,57.98 C662.055,55.38 662.965,52.91 663.875,50.44 C664.395,49.14 664.915,47.71 665.565,46.41 C665.695,45.89 666.085,45.37 666.345,44.98 C667.255,43.68 668.165,42.25 669.075,41.08 C670.505,39.52 672.065,38.09 674.275,38.09 C674.925,38.09 675.575,38.61 676.095,39 C676.615,39.52 677.135,40.17 677.785,40.56 C678.305,40.82 679.085,40.82 679.605,40.82 Z" id="Combined-Shape"></path>
            <path d="M720.685,73.06 C720.555,73.06 720.555,72.93 720.425,72.93 L720.425,72.41 C720.425,69.55 720.555,66.69 720.555,63.83 C720.555,63.05 720.295,62.27 720.425,61.49 C720.555,59.54 720.685,57.59 720.945,55.64 C721.205,53.3 720.685,50.83 721.205,48.49 C721.595,46.93 721.465,45.37 721.595,43.81 C721.725,42.51 721.985,41.34 721.985,40.17 C721.985,39 722.505,28.21 722.635,27.04 C722.765,24.96 723.025,22.88 723.285,20.67 C723.415,18.98 723.545,17.16 723.545,15.34 C723.675,13.78 723.935,12.35 723.285,10.79 C722.765,9.36 721.985,7.93 720.685,7.15 C719.645,6.63 718.865,5.72 717.565,5.33 C715.745,4.68 714.055,4.29 712.235,4.42 C710.935,4.55 710.155,5.33 710.025,6.5 C709.635,8.71 709.245,10.92 708.985,13.13 C708.725,14.95 708.725,16.77 708.595,18.59 C708.465,20.8 708.205,22.88 708.075,24.96 C707.945,26.91 707.295,38.61 707.165,40.56 C707.035,42.38 706.645,43.94 706.645,45.76 C706.385,48.62 706.255,51.61 706.125,54.6 C705.995,58.24 705.995,62.01 705.865,65.65 C705.865,67.99 706.125,70.46 707.425,72.67 C708.855,74.75 710.155,76.83 712.755,77.61 C713.665,77.87 714.575,78.13 715.355,78.39 C717.955,79.04 719.775,78 721.335,76.31 C722.765,74.75 723.805,72.93 725.105,71.24 C726.795,68.9 727.965,65.91 729.655,63.44 C731.475,60.71 733.165,57.85 734.855,54.99 C735.375,54.21 735.635,53.3 736.025,52.39 C736.285,51.61 736.285,50.7 736.545,49.92 C737.065,48.75 737.975,48.88 736.545,48.49 C736.285,48.49 735.765,48.49 735.635,48.75 C735.115,49.79 734.725,50.83 734.205,51.87 C733.945,52.52 733.945,53.17 733.555,53.82 C733.165,54.73 732.125,56.68 731.735,57.59 C728.875,62.79 725.625,66.69 722.115,71.5 C721.595,72.02 721.205,72.54 720.685,73.06 Z" id="Path"></path>
            <path d="M777.885,56.03 C777.365,55.51 777.495,55.9 776.845,55.64 C776.455,56.42 776.325,56.94 776.065,57.33 C773.335,61.88 770.605,66.43 766.185,70.07 C764.755,71.24 763.585,72.54 761.375,72.93 L760.205,73.32 L760.985,72.54 C762.415,71.11 766.575,68.51 766.315,63.57 C766.315,62.79 766.055,62.14 765.795,61.36 C765.405,59.8 765.275,58.24 763.845,56.81 C763.065,56.03 762.285,55.25 761.505,54.34 C760.595,53.3 759.685,52.26 758.645,51.22 C756.825,49.4 754.875,47.71 752.665,46.28 C750.195,44.46 747.725,42.9 745.775,40.69 C744.085,38.87 743.695,38.09 744.735,36.53 C745.125,36.01 745.775,35.62 746.035,34.97 C746.555,33.93 746.815,32.76 747.205,31.59 C747.335,31.2 747.725,30.68 747.985,30.68 C749.415,30.68 747.985,28.08 747.205,27.3 C745.645,26 743.825,25.35 742.135,25.61 C740.575,25.87 739.145,26.39 737.975,27.43 C737.455,27.95 736.675,28.34 736.155,28.86 C735.505,29.51 734.725,30.16 734.335,30.94 C733.555,32.76 733.555,34.71 734.335,36.79 C735.245,39.39 736.285,41.08 738.235,43.16 C738.235,43.16 740.185,45.11 740.315,45.11 C741.745,46.54 743.565,47.84 744.865,49.4 C745.905,50.57 747.335,51.61 748.245,52.78 C749.415,54.34 750.455,56.03 751.235,57.72 C752.405,60.32 752.405,62.79 752.405,65.26 C752.405,66.43 751.885,67.6 751.365,68.64 C750.325,70.85 749.155,72.8 746.555,73.84 C746.295,73.84 746.035,74.1 745.905,74.36 C744.995,75.4 743.825,76.31 742.005,76.18 C741.485,76.05 740.965,75.92 740.575,75.79 C739.015,75.66 737.715,74.88 736.415,73.97 C735.765,73.45 734.855,74.75 735.115,75.27 C735.505,75.92 735.895,76.57 736.805,76.7 C737.065,76.7 737.325,76.96 737.585,77.09 C739.015,77.61 740.315,78.91 742.005,78.39 L742.265,78.39 C743.045,79.04 743.695,78.65 744.475,78.52 C745.775,78.39 752.275,77.22 752.665,77.09 C753.315,76.96 753.965,76.83 754.485,76.57 C755.135,76.18 755.655,75.79 756.305,75.53 C757.345,75.66 758.515,75.66 759.555,75.53 C760.985,75.27 762.285,75.01 763.585,74.75 C764.365,74.49 765.275,73.32 765.925,72.8 C768.395,71.24 770.085,69.16 771.645,67.08 C772.295,66.17 772.555,65.26 773.075,64.48 C774.765,62.01 775.935,59.67 777.235,57.33 C777.625,56.68 778.405,56.42 777.885,56.03 Z" id="Path"></path>
            <path d="M784.905,64.74 L783.865,64.74 C781.915,64.74 780.355,65.26 779.835,66.82 C779.315,67.73 779.315,69.29 779.315,70.33 C779.315,72.67 779.315,72.67 780.875,73.19 C781.395,73.19 781.915,73.71 782.435,74.23 C783.345,74.62 784.905,75.66 785.945,76.18 C788.285,77.22 789.715,76.7 790.755,74.62 C791.275,73.71 791.275,72.67 792.315,71.63 C792.835,69.81 792.835,67.73 791.795,66.82 C789.715,65.26 787.765,64.74 784.905,64.74 Z" id="young-professionals."></path>
        </g>
    </g>
</svg>