<?xml version="1.0" encoding="UTF-8" standalone="no"?>
<svg width="38px" height="32px" viewBox="0 0 38 32" version="1.1" xmlns="http://www.w3.org/2000/svg" xmlns:xlink="http://www.w3.org/1999/xlink">
    <!-- Generator: Sketch 41.2 (35397) - http://www.bohemiancoding.com/sketch -->
    <title>Group 4 Copy 5</title>
    <desc>Created with Sketch.</desc>
    <defs></defs>
    <g id="TAblet-&amp;-Mobile" stroke="none" stroke-width="1" fill="none" fill-rule="evenodd">
        <g id="S_Header" transform="translate(-494.000000, -80.000000)" fill="#212121">
            <g id="Group-4-Copy-5" transform="translate(494.000000, 80.000000)">
                <polygon id="Line" points="0 16 38 16 38 14 0 14"></polygon>
                <polygon id="Line-Copy" points="0 24 38 24 38 22 0 22"></polygon>
                <polygon id="Line" points="0 32 38 32 38 30 0 30"></polygon>
                <path d="M37.3789301,0 L37.3789301,5.73745715 C37.3789301,6.6597953 37.1264122,7.36510213 36.6213688,7.85339879 C36.1163254,8.34169546 35.456837,8.58584013 34.6428836,8.58584013 C33.8583502,8.58584013 33.2217436,8.34072663 32.7330447,7.85049228 C32.2443458,7.36025793 32,6.65591993 32,5.73745715 L32,0 L32.9659519,0 L32.9659519,5.73745715 C32.9659519,6.37689326 33.1195874,6.86227612 33.4268629,7.19362029 C33.7341385,7.52496445 34.1394747,7.69063405 34.6428836,7.69063405 C35.1724436,7.69063405 35.5998445,7.52496445 35.9250989,7.19362029 C36.2503534,6.86227612 36.4129782,6.37689326 36.4129782,5.73745715 L36.4129782,0 L37.3789301,0 Z" id="Path"></path>
                <polygon id="Path" points="27.3985433 8.46376657 26.4325914 8.46376657 22.9953717 1.91829874 22.9659519 1.9299248 22.9659519 8.46376657 22 8.46376657 22 0 22.9659519 0 26.4031715 6.53384178 26.4325914 6.52221573 26.4325914 0 27.3985433 0"></polygon>
                <polygon id="Path" points="16.236459 4.53997369 12.9659519 4.53997369 12.9659519 7.56856049 16.7365966 7.56856049 16.7365966 8.46376657 12 8.46376657 12 0 16.6826602 0 16.6826602 0.901019106 12.9659519 0.901019106 12.9659519 3.63895458 16.236459 3.63895458"></polygon>
                <polygon id="MENU" points="1.23563389 0 3.5107693 6.87681034 3.54018915 6.87681034 5.81532456 0 7.05095845 0 7.05095845 8.46376657 6.08500656 8.46376657 6.08500656 5.11546331 6.18307274 1.67415163 6.15855619 1.6683386 3.84419431 8.46376657 3.20186082 8.46376657 0.89730556 1.68577768 0.872789015 1.69159071 0.965951887 5.11546331 0.965951887 8.46376657 -2.84217094e-14 8.46376657 -2.84217094e-14 0"></polygon>
            </g>
        </g>
    </g>
</svg>