<?xml version="1.0" encoding="utf-8"?>
<!-- Generator: Adobe Illustrator 18.1.1, SVG Export Plug-In . SVG Version: 6.00 Build 0)  -->
<!DOCTYPE svg PUBLIC "-//W3C//DTD SVG 1.1//EN" "http://www.w3.org/Graphics/SVG/1.1/DTD/svg11.dtd">
<svg version="1.1" id="Layer_1" xmlns="http://www.w3.org/2000/svg" xmlns:xlink="http://www.w3.org/1999/xlink" x="0px" y="0px"
	 viewBox="0 0 56 38" enable-background="new 0 0 56 38" xml:space="preserve">
<g>
	<g>
		<path fill="#2AACE3" d="M56,33.6c0,2.062-1.671,3.733-3.733,3.733H3.733C1.671,37.333,0,35.662,0,33.6V3.733
			C0,1.671,1.671,0,3.733,0h48.533C54.329,0,56,1.671,56,3.733V33.6z"/>
	</g>
	<g>
		<g id="Layer_1_copy_3_">
			<path fill="#FFFFFF" d="M22.292,23.65l2.122-2.278v4.634L22.292,23.65z M15.542,21.944v1.052h3.032v1.18h-3.032v1.15h3.394
				l1.578-1.698l-1.511-1.682h-3.462v-0.002H15.542z M53.104,22.812c0.472,0.488,0.689,1.088,0.689,1.893
				c0,1.739-1.166,2.778-3.123,2.778h-2.69c-0.395,0-0.733-0.24-0.877-0.58c-0.522,0.37-1.22,0.58-2.076,0.58h-2.69
				c-0.153,0-0.289-0.042-0.415-0.103c-0.126,0.061-0.265,0.103-0.415,0.103h-4.61c-0.153,0-0.292-0.044-0.421-0.108
				c-0.127,0.066-0.267,0.108-0.422,0.108h-1.386c-0.526,0-0.955-0.426-0.955-0.953v-0.841c0.002-0.082,0.002-0.206-0.002-0.309
				c-0.065-0.004-0.154-0.009-0.281-0.009h-0.52v1.159c0,0.526-0.426,0.953-0.955,0.953h-1.388c-0.528,0-0.955-0.426-0.955-0.953
				v-1.47c-0.491,0.292-1.166,0.484-2.1,0.484h-0.768v0.986c0,0.526-0.426,0.953-0.955,0.953h-2.685
				c-0.272,0-0.533-0.115-0.714-0.32l-1-1.125l-1.054,1.14c-0.181,0.196-0.434,0.307-0.7,0.307h-5.472
				c-0.527,0-0.954-0.426-0.954-0.955v-5.78c0-0.528,0.426-0.955,0.954-0.955h5.555c0.272,0,0.53,0.112,0.71,0.318l1.004,1.115
				l1.046-1.128c0.182-0.196,0.435-0.304,0.701-0.304h4.413c0.966,0,1.646,0.214,2.131,0.53c0.157-0.311,0.472-0.53,0.843-0.53
				h3.191c0.732,0,1.443,0.027,2.112,0.384c0.069,0.041,0.117,0.095,0.183,0.141c0.158-0.309,0.472-0.526,0.843-0.526h4.609
				c0.358,0,0.656,0.202,0.822,0.499c0.457-0.31,1.056-0.499,1.818-0.499h2.768c0.417,0,0.757,0.267,0.89,0.638
				c0.474-0.383,1.124-0.638,1.987-0.638h2.768c0.528,0,0.955,0.426,0.955,0.955v1.231c0,0.336-0.174,0.631-0.436,0.801
				C53.084,22.791,53.094,22.802,53.104,22.812z M29.918,22.655c0-1.6-1.233-1.907-2.328-1.907h-4.413l-1.758,1.895l-1.702-1.895
				h-5.555v5.781h5.472l1.768-1.913l1.702,1.913h2.685v-1.94h1.723C28.72,24.592,29.918,24.258,29.918,22.655z M35.151,23.845
				c0.362-0.145,0.979-0.616,0.979-1.54c0-0.658-0.275-1.02-0.71-1.283c-0.456-0.242-0.964-0.271-1.662-0.271h-3.191v5.78h1.388
				v-2.11h1.475c0.506,0,0.813,0.048,1.011,0.254c0.258,0.269,0.225,0.785,0.225,1.132v0.724h1.386v-1.146
				c-0.006-0.509-0.032-0.772-0.229-1.054C35.707,24.16,35.457,23.957,35.151,23.845z M41.506,20.751h-4.609v5.78h4.609v-1.199
				l-3.235-0.006v-1.148h3.155v-1.18h-3.155v-1.052h3.235V20.751z M47.191,24.704c0-0.593-0.143-0.947-0.415-1.226
				c-0.311-0.316-0.827-0.445-1.576-0.465l-0.742-0.022c-0.236,0-0.391-0.015-0.538-0.066c-0.173-0.067-0.302-0.212-0.302-0.431
				c0-0.183,0.057-0.322,0.209-0.417c0.138-0.095,0.3-0.106,0.554-0.106h2.534v-1.23h-2.768c-1.45,0-1.975,0.88-1.975,1.721
				c0,1.828,1.619,1.746,2.909,1.788c0.242,0,0.384,0.04,0.492,0.128c0.097,0.081,0.168,0.213,0.168,0.381
				c0,0.157-0.067,0.29-0.162,0.378c-0.116,0.111-0.303,0.143-0.563,0.143h-2.678v1.242h2.69
				C46.416,26.53,47.191,25.95,47.191,24.704z M52.837,24.704c0-0.593-0.145-0.947-0.415-1.226
				c-0.311-0.316-0.828-0.445-1.578-0.465l-0.742-0.022c-0.236,0-0.39-0.015-0.538-0.066c-0.171-0.067-0.3-0.212-0.3-0.431
				c0-0.183,0.056-0.322,0.208-0.417c0.137-0.095,0.3-0.106,0.555-0.106h2.533v-1.23h-2.768c-1.45,0-1.975,0.88-1.975,1.721
				c0,1.828,1.618,1.746,2.909,1.788c0.243,0,0.386,0.04,0.492,0.128c0.097,0.081,0.168,0.213,0.168,0.381
				c0,0.157-0.067,0.29-0.162,0.378c-0.115,0.111-0.302,0.143-0.562,0.143h-2.679v1.242h2.69
				C52.061,26.53,52.837,25.95,52.837,24.704z M27.591,21.944H25.79v1.472h1.783c0.531,0,0.862-0.263,0.862-0.761
				C28.434,22.146,28.09,21.944,27.591,21.944z M28.403,13.17c0.178-0.094,0.284-0.297,0.284-0.549c0-0.248-0.111-0.426-0.29-0.51
				c-0.164-0.093-0.416-0.104-0.655-0.104h-1.702v1.283h1.679C27.986,13.289,28.21,13.284,28.403,13.17z M34.316,22.05
				c-0.168-0.1-0.416-0.104-0.659-0.104h-1.702v1.298h1.679c0.269,0,0.499-0.009,0.685-0.117c0.179-0.11,0.285-0.307,0.285-0.556
				C34.601,22.322,34.495,22.143,34.316,22.05z M39.419,11.784l-0.949,2.304h1.907L39.419,11.784z M5.689,14.088h1.884l-0.946-2.304
				L5.689,14.088z M13.421,17.536c-0.377,0-0.719-0.223-0.872-0.568l-0.181-0.41v0.023c0,0.527-0.426,0.954-0.954,0.954h-2.81
				c-0.388,0-0.737-0.234-0.883-0.591l-0.288-0.698h-1.6l-0.292,0.702c-0.148,0.355-0.495,0.588-0.879,0.588H3.161
				c-0.321,0-0.62-0.162-0.797-0.429c-0.176-0.269-0.207-0.605-0.08-0.901l2.473-5.78c0.151-0.35,0.495-0.578,0.878-0.578h2.05
				c0.382,0,0.727,0.227,0.878,0.577l0.518,1.208v-0.83c0-0.527,0.426-0.954,0.954-0.954h2.255c0.37,0,0.71,0.216,0.867,0.555
				l0.904,1.962l0.821-1.934c0.15-0.353,0.495-0.583,0.877-0.583h2.302c0.194,0,0.363,0.072,0.515,0.171
				c0.151-0.099,0.32-0.171,0.515-0.171h4.614c0.179,0,0.337,0.062,0.478,0.148c0.144-0.085,0.3-0.148,0.479-0.148h3.177
				c0.822,0,1.503,0.029,2.152,0.404c0.067,0.039,0.112,0.09,0.171,0.134c0.157-0.314,0.473-0.537,0.85-0.537h1.411
				c0.476,0,0.854,0.355,0.925,0.811c0.618-0.536,1.458-0.811,2.593-0.811h1.334c0.214,0,0.414,0.07,0.572,0.19
				c0.159-0.121,0.36-0.19,0.57-0.19h2.07c0.381,0,0.726,0.228,0.876,0.578l0.507,1.187v-0.811c0-0.527,0.426-0.954,0.954-0.954
				h2.105c0.333,0,0.642,0.176,0.816,0.461l0.656,1.089v-0.597c0-0.527,0.426-0.954,0.955-0.954h1.414
				c0.526,0,0.954,0.428,0.954,0.954v5.78c0,0.527-0.426,0.954-0.954,0.954h-1.956c-0.336,0-0.645-0.176-0.818-0.461l-0.848-1.405
				v0.912c0,0.527-0.426,0.954-0.954,0.954h-2.811c-0.387,0-0.733-0.233-0.881-0.587l-0.292-0.702h-1.592l-0.281,0.692
				c-0.145,0.361-0.494,0.598-0.88,0.598h-1.619c-0.614,0-1.717-0.111-2.5-0.769c-0.089,0.435-0.456,0.769-0.919,0.769h-1.411
				c-0.157,0-0.299-0.047-0.432-0.115c-0.13,0.067-0.271,0.115-0.428,0.115h-1.394c-0.523,0-0.951-0.423-0.955-0.947l-0.005-0.729
				l0.002-0.127c0-0.078,0.002-0.194-0.004-0.292c-0.064-0.004-0.149-0.008-0.268-0.008h-0.528v1.148
				c0,0.527-0.426,0.954-0.954,0.954H24.66c-0.179,0-0.336-0.062-0.479-0.148c-0.141,0.085-0.299,0.148-0.478,0.148h-4.614
				c-0.195,0-0.364-0.073-0.515-0.171c-0.152,0.098-0.321,0.171-0.515,0.171h-1.416c-0.528,0-0.954-0.426-0.954-0.953V16.56
				l-0.183,0.409c-0.153,0.346-0.493,0.569-0.872,0.569L13.421,17.536L13.421,17.536z M33.095,13.735
				c0,1.05,0.252,1.716,0.741,2.207c0.48,0.49,1.328,0.639,1.999,0.639h1.618l0.519-1.289h2.871l0.538,1.289h2.811v-4.338
				l2.62,4.338h1.957v-5.78h-1.414v4.026l-2.427-4.026h-2.105v5.466l-2.337-5.466h-2.07l-1.951,4.545h-0.619
				c-0.361,0-0.748-0.069-0.963-0.298c-0.258-0.292-0.381-0.738-0.381-1.356c0-0.606,0.16-1.066,0.396-1.31
				c0.274-0.268,0.559-0.342,1.062-0.342h1.308v-1.238h-1.334c-0.954,0-1.653,0.212-2.098,0.673
				C33.247,12.094,33.095,12.878,33.095,13.735z M35.966,12.993c-0.324,0-0.358,0.033-0.397,0.072
				c-0.013,0.018-0.11,0.226-0.11,0.627c0,0.396,0.064,0.587,0.11,0.673c0.05,0.013,0.139,0.028,0.271,0.028l0.6-1.399
				L35.966,12.993L35.966,12.993z M31.01,16.581h1.411v-5.78H31.01V16.581z M24.659,16.581h1.383v-2.102h1.481
				c0.498,0,0.806,0.044,1.007,0.247c0.251,0.279,0.218,0.779,0.218,1.125l0.006,0.729h1.394v-1.134c0-0.516-0.033-0.772-0.229-1.06
				c-0.123-0.168-0.381-0.37-0.684-0.487c0.358-0.142,0.972-0.619,0.972-1.54c0-0.645-0.262-1.022-0.699-1.28
				c-0.446-0.258-0.966-0.277-1.672-0.277h-3.177v5.779H24.659z M19.088,16.581h4.614v-1.195h-3.233v-1.154h3.156v-1.185h-3.156
				v-1.041h3.233v-1.204h-4.614V16.581z M13.421,16.581h1.214l2.003-4.526l0.005,4.526h1.416v-5.78h-2.302l-1.66,3.921l-1.808-3.921
				h-2.255v5.473l-2.351-5.473h-2.05l-2.474,5.78H4.66l0.536-1.289h2.875l0.531,1.289h2.812V12.05L13.421,16.581z"/>
		</g>
	</g>
</g>
</svg>
