<?xml version="1.0" encoding="utf-8"?>
<!-- Generator: Adobe Illustrator 18.1.1, SVG Export Plug-In . SVG Version: 6.00 Build 0)  -->
<!DOCTYPE svg PUBLIC "-//W3C//DTD SVG 1.1//EN" "http://www.w3.org/Graphics/SVG/1.1/DTD/svg11.dtd">
<svg version="1.1" id="Layer_1" xmlns="http://www.w3.org/2000/svg" xmlns:xlink="http://www.w3.org/1999/xlink" x="0px" y="0px"
	 viewBox="0 0 56 38" enable-background="new 0 0 56 38" xml:space="preserve">
<g>
	<path fill="#ECF0F0" d="M56,33.666c0,2.062-1.671,3.733-3.733,3.733H3.733C1.671,37.399,0,35.727,0,33.666V3.799
		c0-2.062,1.671-3.733,3.733-3.733h48.533C54.329,0.066,56,1.737,56,3.799V33.666z"/>
	<path fill="#E57E25" d="M52.379,37.399c2.062,0,3.621-1.477,3.621-3.539V22.838c0,0-14.334,10.14-40.791,14.561H52.379z"/>
	<g>
		<path fill="#231F20" d="M5.977,11.306H3.738v7.818h2.227c1.184,0,2.039-0.279,2.789-0.903c0.892-0.738,1.419-1.85,1.419-3.001
			C10.174,12.913,8.45,11.306,5.977,11.306z M7.758,17.179c-0.479,0.433-1.102,0.621-2.087,0.621H5.262v-5.17h0.409
			c0.985,0,1.583,0.176,2.087,0.632c0.527,0.47,0.845,1.197,0.845,1.946C8.603,15.96,8.286,16.71,7.758,17.179z"/>
		<rect x="10.875" y="11.306" fill="#231F20" width="1.525" height="7.818"/>
		<path fill="#231F20" d="M16.129,14.306c-0.915-0.339-1.184-0.562-1.184-0.984c0-0.492,0.479-0.867,1.136-0.867
			c0.457,0,0.832,0.188,1.23,0.633l0.798-1.045c-0.656-0.574-1.44-0.867-2.297-0.867c-1.383,0-2.438,0.961-2.438,2.24
			c0,1.077,0.491,1.628,1.923,2.144c0.597,0.211,0.901,0.351,1.054,0.445c0.305,0.199,0.457,0.481,0.457,0.809
			c0,0.633-0.504,1.103-1.184,1.103c-0.727,0-1.313-0.364-1.664-1.043l-0.985,0.949c0.703,1.031,1.546,1.488,2.707,1.488
			c1.585,0,2.696-1.054,2.696-2.567C18.378,15.503,17.864,14.941,16.129,14.306z"/>
		<path fill="#231F20" d="M18.859,15.221c0,2.298,1.804,4.08,4.127,4.08c0.656,0,1.219-0.129,1.912-0.456V17.05
			c-0.61,0.61-1.15,0.856-1.841,0.856c-1.536,0-2.626-1.113-2.626-2.697c0-1.501,1.125-2.685,2.555-2.685
			c0.727,0,1.278,0.26,1.912,0.88V11.61c-0.669-0.339-1.22-0.48-1.876-0.48C20.711,11.13,18.859,12.948,18.859,15.221z"/>
		<polygon fill="#231F20" points="36.988,16.558 34.904,11.306 33.238,11.306 36.555,19.325 37.376,19.325 40.753,11.306 
			39.1,11.306 		"/>
		<polygon fill="#231F20" points="41.443,19.124 45.768,19.124 45.768,17.801 42.967,17.801 42.967,15.69 45.665,15.69 
			45.665,14.366 42.967,14.366 42.967,12.631 45.768,12.631 45.768,11.306 41.443,11.306 		"/>
		<path fill="#231F20" d="M51.806,13.614c0-1.464-1.008-2.308-2.767-2.308h-2.261v7.818h1.523v-3.141H48.5l2.111,3.141h1.875
			l-2.461-3.294C51.173,15.597,51.806,14.811,51.806,13.614z M48.746,14.906h-0.445v-2.368h0.47c0.95,0,1.466,0.398,1.466,1.159
			C50.236,14.482,49.72,14.906,48.746,14.906z"/>
		<circle fill="#E57E25" cx="29.554" cy="15.242" r="4.159"/>
	</g>
</g>
</svg>
