<?xml version="1.0" encoding="UTF-8" standalone="no"?>
<svg width="25px" height="20px" viewBox="0 0 25 20" version="1.1" xmlns="http://www.w3.org/2000/svg" xmlns:xlink="http://www.w3.org/1999/xlink">
    <!-- Generator: Sketch 3.6.1 (26313) - http://www.bohemiancoding.com/sketch -->
    <title>twitter1</title>
    <desc>Created with Sketch.</desc>
    <defs></defs>
    <g id="CAT" stroke="none" stroke-width="1" fill-rule="evenodd">
        <g id="PDP-Wire-iPhone-5" transform="translate(-170.000000, -1846.000000)" >
            <g id="Mobile-Footer" transform="translate(0.000000, 1756.000000)">
                <g id="twitter1" transform="translate(170.000000, 90.000000)">
                    <path d="M24.5783133,2.37983936 C23.6736948,2.78068273 22.7030522,3.05253012 21.6832129,3.17389558 C22.7245382,2.55032129 23.5216466,1.56124498 23.8994378,0.386305221 C22.9226506,0.9637751 21.8444578,1.38309237 20.6956225,1.61040161 C19.7756627,0.628995984 18.4671084,0.0177108434 17.0157028,0.0177108434 C14.2312048,0.0177108434 11.973494,2.27542169 11.973494,5.05839357 C11.973494,5.45309237 12.0180321,5.83859438 12.1040562,6.20722892 C7.91425703,5.99678715 4.19903614,3.98943775 1.71248996,0.939196787 C1.27783133,1.68257028 1.03056225,2.54875502 1.03056225,3.47337349 C1.03056225,5.22273092 1.92136546,6.76626506 3.27293173,7.66931727 C2.44662651,7.64168675 1.66947791,7.41437751 0.989116466,7.03654618 L0.989116466,7.09951807 C0.989116466,9.5415261 2.72771084,11.5795984 5.03301205,12.0434538 C4.61064257,12.1571084 4.16526104,12.2200803 3.70449799,12.2200803 C3.37891566,12.2200803 3.06405622,12.1878313 2.75534137,12.1263855 C3.39730924,14.1306827 5.25879518,15.5881928 7.46429719,15.6281526 C5.73951807,16.9797189 3.56473896,17.7829719 1.20261044,17.7829719 C0.79562249,17.7829719 0.394738956,17.7583936 4.01606426e-05,17.7138554 C2.23164659,19.1468273 4.88100402,19.9823293 7.7284739,19.9823293 C17.003494,19.9823293 22.0733735,12.2999598 22.0733735,5.63742972 L22.0564659,4.9846988 C23.0470683,4.27815261 23.9040562,3.39044177 24.5783133,2.37983936 L24.5783133,2.37983936 Z" id="Shape"></path>
                </g>
            </g>
        </g>
    </g>
</svg>