<?xml version="1.0" encoding="UTF-8"?>
<svg width="260px" height="260px" viewBox="0 0 260 260" version="1.1" xmlns="http://www.w3.org/2000/svg" xmlns:xlink="http://www.w3.org/1999/xlink">
    <!-- Generator: Sketch 43.2 (39069) - http://www.bohemiancoding.com/sketch -->
    <title>Logo_Color</title>
    <desc>Created with Sketch.</desc>
    <defs></defs>
    <g id="V4" stroke="none" stroke-width="1" fill="none" fill-rule="evenodd">
        <g id="Logo_Color">
            <g id="Fox_Head">
                <g id="Asset-1" transform="translate(18.000000, 0.000000)" fill-rule="nonzero">
                    <g id="Layer_2">
                        <g id="Layer_1-2">
                            <path d="M215.421962,83.3127713 C209.181253,114.576424 191.921384,141.685614 167.754957,162.852343 C168.704237,168.680906 170.619671,174.307337 173.421207,179.496491 C167.084755,181.196842 160.752655,182.919103 154.424907,184.663277 C140.99041,188.357594 126.106711,191.867853 112.802773,196.022317 C101.548607,199.532575 91.7305881,202.3066 81.4686692,208.446266 C65.6183242,217.784039 52.6585794,231.375947 44.0374713,247.703318 L43.3846775,248.124023 L43.0321688,248.360669 L41.5699107,249.267815 L40.5515523,249.898873 L37.5095331,251.765752 L27.1562231,258.010594 L27.0387202,258.010594 L0,254.973629 C0.156670518,137.925562 52.2235059,129.209076 51.4401533,0.19720555 C68.2430663,7.70416348 82.9048156,24.2168415 102.723636,51.654707 C102.723636,51.654707 125.597532,47.4739494 155.312706,55.3490243 C175.379589,39.2701985 197.940143,24.6638408 207.079257,0 C218.437869,29.9226554 220.526809,57.9784317 215.421962,83.3127713 Z" id="Shape" fill="#DC8027"></path>
                            <path d="M27.5478993,129.1039 L27.5478993,79.1451607 C31.9085621,76.2528126 45.9566852,68.2725614 45.9566852,68.2725614 C42.2488162,91.8451981 29.5846161,124.449849 27.5478993,129.1039 Z" id="Shape" fill="#DC8027"></path>
                            <path d="M207.392598,0 C189.218818,48.8675353 118.965146,58.2282254 118.965146,118.178713 L118.965146,120.650355 L119.17404,120.834414 L151.147882,104.045648 L150.873708,129.919016 L177.55992,127.434226 C168.825539,140.660145 166.331866,151.95345 168.016074,162.839196 C211.909931,124.502437 232.720998,66.7737992 207.392598,0 Z" id="Shape" fill="#F4DEB6"></path>
                            <path d="M177.55992,127.434226 L150.821485,129.905869 L151.095658,104.032501 L119.147929,120.834414 L119.147929,132.78507 L119.147929,132.78507 C95.3078982,139.779294 74.614334,149.139984 57.9811474,161.44561 L57.9811474,161.44561 C39.1676294,182.848986 23.1611249,218.451161 14.3614641,240.590771 L27.5478993,258.155212 L44.38998,247.716465 C58.6208853,222.18492 83.3748271,201.478337 115.191998,195.759376 L173.734548,179.496491 C165.378787,163.023255 164.360429,147.47031 177.55992,127.434226 Z" id="Shape" fill="#E6A848"></path>
                            <polygon id="Shape" fill="#222222" points="0.535290935 242.418209 0.300285159 255.118246 27.5478993 258.155212 27.5478993 258.155212 14.3353524 240.643359"></polygon>
                            <path d="M89.8897095,143.591934 L89.4719214,143.486758 C85.4333036,145.239696 81.5165407,147.119723 77.7216326,149.126837 C77.5910738,149.429219 77.473571,149.7316 77.3691239,150.047129 C75.6999012,155.286652 78.5637309,160.896927 83.766396,162.579458 C88.9690611,164.261989 94.5413386,161.379934 96.2138453,156.141474 C97.886352,150.903013 95.0260395,145.290919 89.8244301,143.605081 L89.8897095,143.591934 Z" id="Shape" fill="#222222"></path>
                            <path d="M59.5609084,111.276518 L72.4340026,77.7647218 L51.4401533,0.19720555 C77.1993976,11.1486871 102.736692,51.654707 102.736692,51.654707 L82.5000834,56.4139343 L88.3882837,79.4343955 L59.5609084,111.276518 Z" id="Shape" fill="#221F1F" opacity="0.2" style="mix-blend-mode: multiply;"></path>
                            <path d="M27.5478993,129.1039 L27.5478993,79.1451607 C31.9085621,76.2528126 45.9566852,68.2725614 45.9566852,68.2725614 C42.2488162,91.8451981 29.5846161,124.449849 27.5478993,129.1039 Z" id="Shape" fill="#221F1F" opacity="0.2" style="mix-blend-mode: multiply;"></path>
                        </g>
                    </g>
                </g>
                <rect id="Rectangle-9" x="0" y="0" width="260" height="260"></rect>
            </g>
        </g>
    </g>
</svg>