<?xml version="1.0" encoding="UTF-8" standalone="no"?>
<svg width="12px" height="12px" viewBox="0 0 12 12" version="1.1" xmlns="http://www.w3.org/2000/svg" xmlns:xlink="http://www.w3.org/1999/xlink">
    <!-- Generator: Sketch 41.2 (35397) - http://www.bohemiancoding.com/sketch -->
    <title>Path Copy 8</title>
    <desc>Created with Sketch.</desc>
    <defs></defs>
    <g id="CAT-Constant-Filters" stroke="none" stroke-width="1" fill="none" fill-rule="evenodd">
        <g id="L_Cat_Filter" transform="translate(-550.000000, -1664.000000)" fill="#FFFFFF">
            <g id="Add-To-Card" transform="translate(536.000000, 1650.000000)">
                <path d="M24.9973702,22.7038873 C24.9973702,22.4670791 24.913874,22.2442007 24.7468816,22.0770419 L22.7012249,20.0293467 L24.7468816,17.9816516 C24.913874,17.8144928 24.9973702,17.5916144 24.9973702,17.3548061 C24.9973702,17.1179978 24.913874,16.8951194 24.7468816,16.7279606 L23.3274464,15.3071109 C23.160454,15.1399521 22.9377975,15.0563728 22.7012249,15.0563728 C22.4646524,15.0563728 22.2419958,15.1399521 22.0750035,15.3071109 L20.0293467,17.3548061 L17.98369,15.3071109 C17.8166976,15.1399521 17.5940411,15.0563728 17.3574685,15.0563728 C17.120896,15.0563728 16.8982395,15.1399521 16.7312471,15.3071109 L15.3118118,16.7279606 C15.1448194,16.8951194 15.0613232,17.1179978 15.0613232,17.3548061 C15.0613232,17.5916144 15.1448194,17.8144928 15.3118118,17.9816516 L17.3574685,20.0293467 L15.3118118,22.0770419 C15.1448194,22.2442007 15.0613232,22.4670791 15.0613232,22.7038873 C15.0613232,22.9406956 15.1448194,23.163574 15.3118118,23.3307328 L16.7312471,24.7515825 C16.8982395,24.9187413 17.120896,25.0023207 17.3574685,25.0023207 C17.5940411,25.0023207 17.8166976,24.9187413 17.98369,24.7515825 L20.0293467,22.7038873 L22.0750035,24.7515825 C22.2419958,24.9187413 22.4646524,25.0023207 22.7012249,25.0023207 C22.9377975,25.0023207 23.160454,24.9187413 23.3274464,24.7515825 L24.7468816,23.3307328 C24.913874,23.163574 24.9973702,22.9406956 24.9973702,22.7038873 L24.9973702,22.7038873 Z" id="Path-Copy-8" transform="translate(20.029347, 20.029347) rotate(-45.000000) translate(-20.029347, -20.029347) "></path>
            </g>
        </g>
    </g>
</svg>