<?xml version="1.0" encoding="utf-8"?>
<!-- Generator: Adobe Illustrator 18.1.1, SVG Export Plug-In . SVG Version: 6.00 Build 0)  -->
<!DOCTYPE svg PUBLIC "-//W3C//DTD SVG 1.1//EN" "http://www.w3.org/Graphics/SVG/1.1/DTD/svg11.dtd">
<svg version="1.1" id="Layer_1" xmlns="http://www.w3.org/2000/svg" xmlns:xlink="http://www.w3.org/1999/xlink" x="0px" y="0px"
	 viewBox="0 0 160 107" enable-background="new 0 0 160 107" xml:space="preserve">
<g>
	<path fill="#61C6EA" d="M160,96c0,5.891-4.776,10.667-10.667,10.667H10.667C4.776,106.667,0,101.891,0,96V10.667
		C0,4.776,4.776,0,10.667,0h138.667C155.224,0,160,4.776,160,10.667V96z"/>
	<path fill="none" stroke="#F15859" stroke-width="2.2631" stroke-miterlimit="10" d="M154.929,61.761
		c0,0.775-0.726,1.404-1.622,1.404H120.06c-0.896,0-1.622-0.628-1.622-1.404V47.024c0-0.775,0.726-1.404,1.622-1.404h33.248
		c0.896,0,1.622,0.628,1.622,1.404V61.761z"/>
	
		<text transform="matrix(1 0 0 1 122.412 57.5524)" fill="#3D4345" font-family="'Courier-Bold'" font-size="9.8246" letter-spacing="1">1234</text>
	<text transform="matrix(1 0 0 1 7.5615 79.8667)" font-family="'Courier-Bold'" font-size="11.0563" letter-spacing="1">1234</text>
	<text transform="matrix(1 0 0 1 50.4833 79.8667)" font-family="'Courier-Bold'" font-size="11.0563" letter-spacing="1">123456</text>
	<text transform="matrix(1 0 0 1 112.8261 79.8667)" font-family="'Courier-Bold'" font-size="11.0563" letter-spacing="1">12345</text>
	<g>
		<g id="Layer_1_copy_4_">
			<path fill="#FFFFFF" d="M103.021,19.009l3.349-3.595v7.314L103.021,19.009z M92.366,16.317v1.661h4.785v1.863h-4.785v1.815h5.358
				l2.49-2.681L97.83,16.32h-5.465v-0.003H92.366z M151.655,17.687c0.745,0.77,1.088,1.717,1.088,2.988
				c0,2.745-1.841,4.386-4.93,4.386h-4.246c-0.624,0-1.158-0.379-1.384-0.916c-0.824,0.585-1.926,0.916-3.277,0.916h-4.246
				c-0.241,0-0.456-0.066-0.654-0.163c-0.199,0.097-0.418,0.163-0.654,0.163h-7.277c-0.241,0-0.461-0.07-0.665-0.17
				c-0.201,0.104-0.422,0.17-0.666,0.17h-2.188c-0.83,0-1.508-0.673-1.508-1.504v-1.328c0.003-0.129,0.003-0.325-0.003-0.488
				c-0.102-0.007-0.243-0.014-0.444-0.014h-0.821v1.829c0,0.83-0.673,1.504-1.508,1.504h-2.191c-0.833,0-1.508-0.673-1.508-1.504
				v-2.32c-0.775,0.461-1.841,0.763-3.315,0.763h-1.212v1.557c0,0.83-0.673,1.504-1.508,1.504h-4.238
				c-0.43,0-0.841-0.182-1.127-0.505l-1.579-1.776l-1.664,1.8c-0.286,0.309-0.685,0.484-1.105,0.484h-8.637
				c-0.831,0-1.506-0.673-1.506-1.508v-9.123c0-0.833,0.673-1.508,1.506-1.508h8.768c0.43,0,0.836,0.177,1.12,0.501l1.584,1.759
				l1.651-1.78c0.287-0.309,0.687-0.479,1.107-0.479h6.966c1.525,0,2.597,0.338,3.364,0.836c0.248-0.491,0.745-0.836,1.331-0.836
				h5.037c1.156,0,2.278,0.042,3.333,0.607c0.109,0.065,0.185,0.15,0.289,0.223c0.25-0.488,0.745-0.83,1.331-0.83h7.275
				c0.564,0,1.035,0.32,1.297,0.787c0.721-0.49,1.668-0.787,2.869-0.787h4.369c0.658,0,1.195,0.422,1.404,1.006
				c0.748-0.605,1.775-1.006,3.136-1.006h4.369c0.833,0,1.508,0.673,1.508,1.508v1.943c0,0.53-0.275,0.996-0.688,1.265
				C151.623,17.654,151.64,17.671,151.655,17.687z M115.057,17.438c0-2.526-1.946-3.01-3.675-3.01h-6.966l-2.774,2.992l-2.686-2.992
				h-8.768v9.125h8.637l2.791-3.019l2.686,3.019h4.238v-3.061h2.72C113.167,20.497,115.057,19.97,115.057,17.438z M123.317,19.317
				c0.571-0.229,1.545-0.972,1.545-2.431c0-1.039-0.433-1.61-1.12-2.025c-0.719-0.382-1.521-0.428-2.623-0.428h-5.037v9.123h2.191
				v-3.33h2.329c0.799,0,1.283,0.076,1.596,0.401c0.408,0.425,0.355,1.239,0.355,1.787v1.142h2.188v-1.809
				c-0.01-0.804-0.051-1.219-0.362-1.664C124.196,19.815,123.8,19.494,123.317,19.317z M133.348,14.433h-7.275v9.123h7.275v-1.892
				l-5.106-0.01v-1.812h4.981v-1.863h-4.981v-1.661h5.106V14.433z M142.321,20.673c0-0.937-0.226-1.494-0.654-1.934
				c-0.491-0.498-1.305-0.702-2.487-0.734l-1.171-0.034c-0.372,0-0.617-0.024-0.85-0.104c-0.274-0.105-0.476-0.335-0.476-0.68
				c0-0.289,0.09-0.508,0.33-0.658c0.218-0.15,0.474-0.167,0.874-0.167h4v-1.941h-4.369c-2.288,0-3.118,1.389-3.118,2.716
				c0,2.885,2.555,2.755,4.591,2.822c0.382,0,0.607,0.063,0.777,0.202c0.153,0.127,0.265,0.337,0.265,0.602
				c0,0.248-0.105,0.457-0.255,0.597c-0.184,0.175-0.478,0.226-0.889,0.226h-4.228v1.96h4.246
				C141.099,23.556,142.321,22.64,142.321,20.673z M151.234,20.673c0-0.937-0.229-1.494-0.654-1.934
				c-0.491-0.498-1.307-0.702-2.49-0.734l-1.171-0.034c-0.372,0-0.615-0.024-0.85-0.104c-0.27-0.105-0.474-0.335-0.474-0.68
				c0-0.289,0.088-0.508,0.328-0.658c0.216-0.15,0.474-0.167,0.875-0.167h3.998v-1.941h-4.369c-2.288,0-3.118,1.389-3.118,2.716
				c0,2.885,2.553,2.755,4.591,2.822c0.384,0,0.609,0.063,0.777,0.202c0.153,0.127,0.265,0.337,0.265,0.602
				c0,0.248-0.105,0.457-0.255,0.597c-0.182,0.175-0.476,0.226-0.887,0.226h-4.229v1.96h4.246
				C150.008,23.556,151.234,22.64,151.234,20.673z M111.384,16.317h-2.842v2.324h2.815c0.838,0,1.36-0.415,1.36-1.202
				C112.715,16.636,112.173,16.317,111.384,16.317z M48.606,18.169c0.28-0.148,0.449-0.469,0.449-0.867
				c0-0.391-0.175-0.673-0.457-0.806c-0.258-0.146-0.656-0.165-1.034-0.165h-2.686v2.025h2.65
				C47.948,18.356,48.301,18.35,48.606,18.169z M122,16.485c-0.265-0.158-0.656-0.165-1.04-0.165h-2.686v2.048h2.65
				c0.425,0,0.787-0.014,1.081-0.185c0.282-0.173,0.45-0.484,0.45-0.877C122.45,16.913,122.282,16.631,122,16.485z M65.993,15.982
				l-1.498,3.636h3.01L65.993,15.982z M12.754,19.618h2.973l-1.492-3.636L12.754,19.618z M24.957,25.061
				c-0.595,0-1.135-0.352-1.377-0.896l-0.286-0.648v0.036c0,0.831-0.673,1.506-1.506,1.506h-4.435c-0.612,0-1.163-0.369-1.394-0.933
				l-0.454-1.101H12.98l-0.461,1.108c-0.233,0.561-0.782,0.928-1.387,0.928h-2.37c-0.507,0-0.979-0.255-1.258-0.677
				c-0.277-0.425-0.326-0.955-0.126-1.423l3.903-9.123c0.238-0.552,0.782-0.913,1.385-0.913h3.237c0.603,0,1.147,0.359,1.385,0.911
				l0.818,1.907v-1.311c0-0.831,0.673-1.506,1.506-1.506h3.559c0.585,0,1.12,0.342,1.368,0.875l1.426,3.097l1.295-3.053
				c0.236-0.558,0.782-0.92,1.384-0.92h3.634c0.306,0,0.573,0.114,0.813,0.27c0.238-0.156,0.505-0.27,0.813-0.27h7.282
				c0.282,0,0.532,0.099,0.755,0.233c0.228-0.134,0.474-0.233,0.756-0.233h5.015c1.297,0,2.373,0.046,3.396,0.637
				c0.105,0.061,0.177,0.143,0.27,0.211c0.248-0.496,0.746-0.848,1.341-0.848h2.227c0.751,0,1.348,0.561,1.46,1.28
				c0.976-0.847,2.302-1.28,4.093-1.28h2.106c0.338,0,0.653,0.11,0.903,0.299c0.252-0.19,0.568-0.299,0.899-0.299h3.267
				c0.602,0,1.146,0.36,1.382,0.913l0.801,1.873v-1.28c0-0.831,0.673-1.506,1.506-1.506h3.323c0.525,0,1.013,0.277,1.288,0.728
				l1.035,1.719v-0.942c0-0.831,0.673-1.506,1.508-1.506h2.232c0.83,0,1.506,0.675,1.506,1.506v9.123
				c0,0.831-0.673,1.506-1.506,1.506h-3.087c-0.53,0-1.018-0.277-1.292-0.728l-1.338-2.218v1.44c0,0.831-0.673,1.506-1.506,1.506
				h-4.437c-0.61,0-1.158-0.367-1.39-0.926l-0.461-1.108h-2.512l-0.444,1.093c-0.229,0.569-0.78,0.943-1.389,0.943h-2.555
				c-0.969,0-2.71-0.175-3.945-1.214c-0.141,0.687-0.719,1.214-1.45,1.214h-2.227c-0.248,0-0.473-0.075-0.682-0.182
				c-0.206,0.105-0.428,0.182-0.675,0.182h-2.2c-0.826,0-1.501-0.668-1.508-1.494l-0.008-1.151l0.003-0.201
				c0-0.122,0.003-0.306-0.007-0.461c-0.1-0.007-0.235-0.012-0.423-0.012h-0.833v1.812c0,0.831-0.673,1.506-1.506,1.506h-2.183
				c-0.282,0-0.53-0.099-0.756-0.233c-0.223,0.134-0.473,0.233-0.755,0.233h-7.282c-0.308,0-0.575-0.116-0.813-0.27
				c-0.24,0.155-0.507,0.27-0.813,0.27h-2.235c-0.833,0-1.506-0.673-1.506-1.504v-0.037l-0.289,0.646
				c-0.241,0.546-0.779,0.898-1.377,0.898L24.957,25.061L24.957,25.061z M56.012,19.062c0,1.657,0.398,2.708,1.169,3.483
				c0.758,0.773,2.096,1.008,3.155,1.008h2.553l0.819-2.035h4.532l0.85,2.035h4.437v-6.847l4.136,6.847h3.089V14.43h-2.232v6.354
				l-3.831-6.354h-3.323v8.628l-3.689-8.628h-3.267l-3.08,7.173h-0.977c-0.569,0-1.181-0.109-1.52-0.471
				c-0.408-0.461-0.602-1.164-0.602-2.14c0-0.957,0.253-1.683,0.626-2.067c0.432-0.423,0.882-0.541,1.676-0.541h2.065V14.43h-2.106
				c-1.506,0-2.609,0.335-3.311,1.062C56.251,16.471,56.012,17.709,56.012,19.062z M60.544,17.891c-0.512,0-0.564,0.053-0.627,0.114
				c-0.02,0.029-0.173,0.357-0.173,0.989c0,0.626,0.1,0.926,0.173,1.062c0.078,0.02,0.219,0.044,0.428,0.044l0.947-2.208
				L60.544,17.891L60.544,17.891z M52.721,23.553h2.227V14.43h-2.227V23.553z M42.697,23.553h2.183v-3.318h2.337
				c0.785,0,1.271,0.07,1.589,0.389c0.396,0.44,0.343,1.229,0.343,1.776l0.01,1.151h2.2v-1.79c0-0.814-0.053-1.219-0.362-1.673
				c-0.194-0.265-0.602-0.585-1.079-0.768c0.564-0.224,1.535-0.977,1.535-2.431c0-1.018-0.413-1.613-1.103-2.021
				c-0.704-0.408-1.525-0.437-2.64-0.437h-5.015v9.121H42.697z M33.904,23.553h7.282v-1.887h-5.103v-1.822h4.982v-1.87h-4.982V16.33
				h5.103v-1.9h-7.282V23.553z M24.957,23.553h1.916l3.162-7.144l0.008,7.144h2.235V14.43h-3.634l-2.619,6.189l-2.854-6.189h-3.559
				v8.639l-3.711-8.639h-3.237l-3.905,9.123h2.37l0.847-2.035h4.539l0.838,2.035h4.438v-7.151L24.957,23.553z"/>
		</g>
	</g>
</g>
</svg>
