<?xml version="1.0" encoding="UTF-8"?>
<svg width="59px" height="15px" viewBox="0 0 59 15" version="1.1" xmlns="http://www.w3.org/2000/svg" xmlns:xlink="http://www.w3.org/1999/xlink">
    <!-- Generator: Sketch 42 (36781) - http://www.bohemiancoding.com/sketch -->
    <title>logo</title>
    <desc>Created with Sketch.</desc>
    <defs></defs>
    <g id="Symbols" stroke="none" stroke-width="1" fill="none" fill-rule="evenodd">
        <g id="Elements/Menu-—-Mobile" transform="translate(-129.000000, -13.000000)" fill="#222222">
            <path d="M133.8555,20.322 C134.647504,20.322 135.217498,20.1330019 135.5655,19.755 C135.913502,19.3769981 136.0875,18.8490034 136.0875,18.171 C136.0875,17.8709985 136.0425,17.5980012 135.9525,17.352 C135.8625,17.1059988 135.726001,16.8945009 135.543,16.7175 C135.359999,16.5404991 135.129001,16.4040005 134.85,16.308 C134.570999,16.2119995 134.239502,16.164 133.8555,16.164 L132.2715,16.164 L132.2715,20.322 L133.8555,20.322 Z M133.8555,13.887 C134.779505,13.887 135.572997,13.9964989 136.236,14.2155 C136.899003,14.4345011 137.444998,14.7359981 137.874,15.12 C138.303002,15.5040019 138.619499,15.9569974 138.8235,16.479 C139.027501,17.0010026 139.1295,17.564997 139.1295,18.171 C139.1295,18.8250033 139.024501,19.4249973 138.8145,19.971 C138.604499,20.5170027 138.283502,20.9849981 137.8515,21.375 C137.419498,21.7650019 136.872003,22.0694989 136.209,22.2885 C135.545997,22.5075011 134.761505,22.617 133.8555,22.617 L132.2715,22.617 L132.2715,27 L129.2295,27 L129.2295,13.887 L133.8555,13.887 Z M150.6495,24.597 C151.057502,24.597 151.421998,24.5295007 151.743,24.3945 C152.064002,24.2594993 152.335499,24.0660013 152.5575,23.814 C152.779501,23.5619987 152.948999,23.2545018 153.066,22.8915 C153.183001,22.5284982 153.2415,22.1160023 153.2415,21.654 L153.2415,13.887 L156.2835,13.887 L156.2835,21.654 C156.2835,22.458004 156.153001,23.1959966 155.892,23.868 C155.630999,24.5400034 155.257502,25.1189976 154.7715,25.605 C154.285498,26.0910024 153.694503,26.4689986 152.9985,26.739 C152.302497,27.0090013 151.519504,27.144 150.6495,27.144 C149.773496,27.144 148.987503,27.0090013 148.2915,26.739 C147.595497,26.4689986 147.004502,26.0910024 146.5185,25.605 C146.032498,25.1189976 145.660501,24.5400034 145.4025,23.868 C145.144499,23.1959966 145.0155,22.458004 145.0155,21.654 L145.0155,13.887 L148.0575,13.887 L148.0575,21.645 C148.0575,22.1070023 148.115999,22.5194982 148.233,22.8825 C148.350001,23.2455018 148.519499,23.5544987 148.7415,23.8095 C148.963501,24.0645013 149.234998,24.2594993 149.556,24.3945 C149.877002,24.5295007 150.241498,24.597 150.6495,24.597 Z M167.4255,20.052 C167.839502,20.052 168.191999,19.9995005 168.483,19.8945 C168.774001,19.7894995 169.012499,19.6440009 169.1985,19.458 C169.384501,19.2719991 169.5195,19.0545012 169.6035,18.8055 C169.6875,18.5564988 169.7295,18.2880014 169.7295,18 C169.7295,17.4239971 169.542002,16.9740016 169.167,16.65 C168.791998,16.3259984 168.211504,16.164 167.4255,16.164 L166.2015,16.164 L166.2015,20.052 L167.4255,20.052 Z M173.8875,27 L171.1335,27 C170.623497,27 170.257501,26.8080019 170.0355,26.424 L167.8575,22.617 C167.755499,22.4549992 167.641501,22.3365004 167.5155,22.2615 C167.389499,22.1864996 167.209501,22.149 166.9755,22.149 L166.2015,22.149 L166.2015,27 L163.1595,27 L163.1595,13.887 L167.4255,13.887 C168.373505,13.887 169.181997,13.984499 169.851,14.1795 C170.520003,14.374501 171.065998,14.6459983 171.489,14.994 C171.912002,15.3420017 172.219499,15.7529976 172.4115,16.227 C172.603501,16.7010024 172.6995,17.2169972 172.6995,17.775 C172.6995,18.2010021 172.642501,18.6029981 172.5285,18.981 C172.414499,19.3590019 172.246501,19.7084984 172.0245,20.0295 C171.802499,20.3505016 171.528002,20.6369987 171.201,20.889 C170.873998,21.1410013 170.497502,21.3479992 170.0715,21.51 C170.269501,21.6120005 170.455499,21.7394992 170.6295,21.8925 C170.803501,22.0455008 170.959499,22.2269989 171.0975,22.437 L173.8875,27 Z M182.5545,16.227 L182.5545,19.287 L186.6765,19.287 L186.6765,21.537 L182.5545,21.537 L182.5545,24.66 L187.9365,24.66 L187.9365,27 L179.4945,27 L179.4945,13.887 L187.9365,13.887 L187.9365,16.227 L182.5545,16.227 Z" id="logo"></path>
        </g>
    </g>
</svg>