<?xml version="1.0" encoding="utf-8"?>
<!-- Generator: Adobe Illustrator 18.1.1, SVG Export Plug-In . SVG Version: 6.00 Build 0)  -->
<!DOCTYPE svg PUBLIC "-//W3C//DTD SVG 1.1//EN" "http://www.w3.org/Graphics/SVG/1.1/DTD/svg11.dtd">
<svg version="1.1" id="Layer_1" xmlns="http://www.w3.org/2000/svg" xmlns:xlink="http://www.w3.org/1999/xlink" x="0px" y="0px"
	 viewBox="0 0 56 38" enable-background="new 0 0 56 38" xml:space="preserve">
<g>
	<g>
		<path fill="#0379BE" d="M56,33.6c0,2.062-1.671,3.733-3.733,3.733H3.733C1.671,37.333,0,35.662,0,33.6V3.733
			C0,1.671,1.671,0,3.733,0h48.533C54.329,0,56,1.671,56,3.733V33.6z"/>
	</g>
	<g>
		<path fill="#FFFFFF" d="M19.226,12.594c-0.205,0.178-0.437,0.364-0.62,0.562c-1.343,1.437-2.162,3.364-2.166,5.487
			c0.004,2.124,0.838,4.052,2.182,5.488c0.183,0.197,0.397,0.382,0.601,0.559c0.706,0.618,1.438,1.118,2.42,1.46
			c-0.026-0.01-0.028-0.021-0.028-0.031V11.165c0-0.01,0.002-0.022,0.028-0.031C20.66,11.477,19.931,11.977,19.226,12.594z"/>
		<path fill="#FFFFFF" d="M27.291,11.133c0.011,0.004-0.028,0.01-0.028,0.014V26.14c0,0.004,0.039,0.01,0.028,0.014
			c2.947-1.16,5.162-4.082,5.167-7.511C32.453,15.215,30.239,12.292,27.291,11.133z"/>
		<path fill="#FFFFFF" d="M30.966,4.912h-6.523c-7.67,0-13.984,5.605-13.984,13.875c0,7.566,6.314,13.88,13.984,13.634h6.523
			c7.58,0.246,14.498-6.07,14.498-13.634C45.464,10.515,38.545,4.912,30.966,4.912z M32.547,28.437
			c-0.157,0.129-0.317,0.255-0.479,0.377c-2.117,1.584-4.746,2.522-7.594,2.523c-2.847-0.001-5.475-0.939-7.593-2.523
			c-0.163-0.122-0.323-0.247-0.479-0.377c-2.82-2.328-4.618-5.851-4.619-9.794c0-1.753,0.356-3.423,0.998-4.941
			c0.08-0.19,0.165-0.377,0.254-0.562c0.178-0.37,0.374-0.73,0.586-1.079c0.106-0.175,0.216-0.346,0.33-0.515
			c0.342-0.506,0.72-0.987,1.129-1.438c0.137-0.15,0.277-0.297,0.42-0.441c0.287-0.287,0.588-0.561,0.901-0.819
			c0.157-0.129,0.316-0.255,0.479-0.377c0.489-0.366,1.004-0.697,1.544-0.99c0.18-0.098,0.362-0.191,0.547-0.28
			c1.664-0.802,3.53-1.252,5.502-1.253c1.972,0.001,3.838,0.45,5.503,1.253c0.185,0.089,0.367,0.183,0.547,0.28
			c0.54,0.293,1.055,0.624,1.544,0.99c0.163,0.122,0.323,0.247,0.479,0.377c0.313,0.259,0.614,0.532,0.901,0.819
			c0.144,0.144,0.284,0.291,0.42,0.441c0.41,0.451,0.787,0.931,1.129,1.438c0.114,0.169,0.224,0.341,0.33,0.515
			c0.212,0.349,0.408,0.709,0.586,1.079c0.089,0.185,0.174,0.372,0.254,0.562c0.642,1.519,0.998,3.188,0.998,4.941
			C37.165,22.587,35.368,26.109,32.547,28.437z"/>
	</g>
</g>
</svg>
