<?xml version="1.0" encoding="utf-8"?>
<!-- Generator: Adobe Illustrator 18.1.1, SVG Export Plug-In . SVG Version: 6.00 Build 0)  -->
<!DOCTYPE svg PUBLIC "-//W3C//DTD SVG 1.1//EN" "http://www.w3.org/Graphics/SVG/1.1/DTD/svg11.dtd">
<svg version="1.1" id="Layer_1" xmlns="http://www.w3.org/2000/svg" xmlns:xlink="http://www.w3.org/1999/xlink" x="0px" y="0px"
	 viewBox="0 0 56 38" enable-background="new 0 0 56 38" xml:space="preserve">
<g>
	<g>
		<path fill="#ECF0F1" d="M56,33.597c0,2.062-1.671,3.733-3.733,3.733H3.733C1.671,37.33,0,35.659,0,33.597V3.73
			c0-2.062,1.671-3.733,3.733-3.733h48.533C54.329-0.003,56,1.668,56,3.73V33.597z"/>
	</g>
	<g>
		<path fill="#5CBC67" d="M36.595,17.917h-0.021v-2.066h0.021h0.041h0.041h0.041h0.041h0.043h0.041h0.041h0.041h0.041h0.041h0.042
			h0.043h0.041h0.039h0.041h0.043h0.041h0.041h0.037h0.041h0.041h0.041h0.041h0.043h0.041h0.041h0.041h0.041h0.041h0.043h0.041
			h0.041h0.041h0.041h0.041h0.043h0.041h0.041h0.041h0.041h0.041h0.043h0.041h0.041h0.041h0.041h0.043h0.042h0.041h0.041h0.041
			h0.043h0.041h0.041h0.016h0.025c0.014,0,0.026,0.001,0.041,0.002c0.014,0.001,0.026,0.002,0.041,0.003
			c0.014,0.001,0.026,0.002,0.041,0.004c0.016,0.001,0.028,0.003,0.041,0.004c0.014,0.001,0.022,0.003,0.03,0.004l0.011,0.002
			c0.014,0.002,0.028,0.005,0.04,0.009c0.015,0.002,0.027,0.006,0.041,0.01c0.015,0.003,0.027,0.007,0.043,0.011
			c0.015,0.004,0.027,0.009,0.041,0.014c0.013,0.005,0.027,0.01,0.041,0.015c0.015,0.005,0.027,0.012,0.041,0.018
			c0.015,0.006,0.027,0.012,0.041,0.02c0.015,0.006,0.027,0.014,0.041,0.021c0.015,0.008,0.027,0.016,0.041,0.024
			c0.015,0.008,0.027,0.017,0.041,0.027c0.015,0.009,0.029,0.02,0.041,0.03c0.017,0.01,0.029,0.021,0.043,0.033
			c0.015,0.012,0.027,0.024,0.041,0.037c0.015,0.013,0.027,0.026,0.041,0.041c0.015,0.015,0.027,0.03,0.041,0.046
			c0.015,0.018,0.027,0.035,0.041,0.053c0.015,0.02,0.027,0.041,0.041,0.062c0.015,0.024,0.029,0.049,0.041,0.074
			c0.017,0.031,0.027,0.062,0.041,0.095c0.019,0.044,0.031,0.091,0.041,0.139c0.019,0.075,0.025,0.155,0.025,0.239
			c0,0.083-0.01,0.164-0.025,0.239c-0.01,0.048-0.022,0.095-0.041,0.14c-0.012,0.032-0.024,0.064-0.041,0.094
			c-0.012,0.025-0.026,0.05-0.041,0.074c-0.014,0.021-0.026,0.042-0.041,0.062c-0.014,0.018-0.026,0.036-0.041,0.053
			c-0.014,0.016-0.026,0.032-0.041,0.046c-0.014,0.014-0.026,0.028-0.041,0.041c-0.014,0.013-0.026,0.024-0.041,0.037
			c-0.014,0.012-0.026,0.022-0.043,0.033c-0.012,0.01-0.026,0.021-0.041,0.03c-0.014,0.009-0.026,0.018-0.041,0.026
			c-0.014,0.008-0.026,0.017-0.041,0.024c-0.014,0.007-0.026,0.015-0.041,0.021c-0.014,0.006-0.026,0.014-0.041,0.02
			c-0.014,0.006-0.026,0.011-0.041,0.017c-0.014,0.005-0.026,0.011-0.041,0.016c-0.014,0.004-0.026,0.009-0.041,0.013
			c-0.014,0.004-0.028,0.008-0.043,0.012c-0.014,0.004-0.026,0.007-0.041,0.01c-0.012,0.003-0.026,0.005-0.04,0.008l-0.011,0.002
			c-0.008,0.001-0.02,0.002-0.03,0.004c-0.013,0.002-0.025,0.004-0.041,0.004c-0.015,0.002-0.027,0.004-0.041,0.004
			c-0.015,0.002-0.027,0.002-0.041,0.004c-0.015,0-0.027,0.002-0.041,0.002c-0.015,0-0.029,0-0.041,0h-0.007h-0.034h-0.041h-0.043
			h-0.041h-0.041h-0.041h-0.05h-0.043h-0.041h-0.041h-0.041h-0.041h-0.043h-0.041h-0.04H38.15h-0.041h-0.041h-0.043h-0.041h-0.041
			h-0.041h-0.041H37.82h-0.043h-0.035h-0.041h-0.041H37.62h-0.041h-0.043h-0.041h-0.042h-0.041h-0.039h-0.041h-0.041H37.25h-0.043
			h-0.041h-0.041h-0.041h-0.041h-0.041h-0.039h-0.041h-0.041h-0.041H36.8h-0.041h-0.041h-0.041h-0.041h-0.041L36.595,17.917
			L36.595,17.917z"/>
		<path fill="#5CBC67" d="M36.575,21.421h0.021h0.043h0.041h0.041h0.041h0.041h0.041h0.043h0.041h0.041h0.041h0.041h0.041h0.043
			h0.041h0.041h0.041h0.041h0.041h0.035h0.041h0.041h0.041h0.041h0.041h0.041h0.041h0.043h0.041h0.041h0.041h0.041h0.041h0.041
			h0.041h0.041h0.042h0.043h0.041h0.041h0.041h0.041h0.041h0.041h0.041h0.041h0.041h0.043h0.041h0.041h0.041h0.04h0.041h0.041h0.041
			h0.041h0.041h0.043h0.041h0.041h0.019h0.022c0.013,0,0.025-0.003,0.041-0.003c0.013-0.002,0.027-0.002,0.041-0.004
			c0.015,0,0.027-0.002,0.041-0.002c0.015-0.002,0.025-0.002,0.041-0.004c0.015-0.002,0.027-0.004,0.041-0.006
			c0.015-0.002,0.029-0.004,0.041-0.006c0.009-0.002,0.017-0.004,0.023-0.006l0.018-0.004c0.015-0.002,0.025-0.006,0.041-0.01
			c0.015-0.004,0.027-0.008,0.041-0.012c0.015-0.004,0.027-0.011,0.041-0.015c0.015-0.006,0.027-0.01,0.041-0.017
			c0.015-0.006,0.027-0.012,0.041-0.018c0.015-0.008,0.027-0.014,0.043-0.021c0.015-0.008,0.025-0.014,0.041-0.021
			c0.013-0.008,0.027-0.016,0.041-0.023c0.015-0.008,0.027-0.018,0.041-0.026c0.015-0.008,0.027-0.019,0.041-0.028
			c0.015-0.011,0.027-0.021,0.041-0.031c0.015-0.012,0.027-0.023,0.041-0.035c0.014-0.014,0.027-0.027,0.043-0.041
			c0.015-0.016,0.027-0.029,0.041-0.043c0.015-0.018,0.027-0.033,0.041-0.051c0.014-0.019,0.027-0.037,0.041-0.058
			c0.017-0.021,0.027-0.043,0.041-0.063c0.017-0.025,0.027-0.051,0.041-0.076c0.016-0.033,0.029-0.064,0.041-0.1
			c0.019-0.045,0.029-0.09,0.041-0.14c0.021-0.082,0.029-0.17,0.029-0.261c0-0.091-0.01-0.179-0.029-0.26
			c-0.012-0.049-0.022-0.094-0.041-0.141c-0.012-0.031-0.025-0.064-0.041-0.096c-0.014-0.025-0.024-0.053-0.041-0.078
			c-0.014-0.021-0.024-0.043-0.041-0.064c-0.014-0.02-0.027-0.039-0.041-0.057c-0.014-0.016-0.024-0.033-0.041-0.049
			c-0.014-0.016-0.026-0.031-0.041-0.045c-0.014-0.014-0.026-0.027-0.043-0.039c-0.014-0.014-0.026-0.023-0.041-0.037
			c-0.014-0.01-0.026-0.021-0.041-0.031c-0.014-0.01-0.026-0.02-0.041-0.029c-0.014-0.008-0.026-0.02-0.041-0.026
			c-0.014-0.009-0.026-0.017-0.041-0.022c-0.016-0.009-0.026-0.017-0.041-0.021c-0.016-0.006-0.026-0.014-0.043-0.02
			c-0.014-0.006-0.026-0.013-0.041-0.019c-0.014-0.006-0.026-0.013-0.041-0.017c-0.014-0.006-0.026-0.01-0.041-0.016
			c-0.014-0.002-0.026-0.008-0.041-0.012c-0.014-0.004-0.026-0.006-0.041-0.01l-0.018-0.004c-0.008-0.002-0.016-0.004-0.023-0.004
			c-0.012-0.002-0.026-0.004-0.041-0.006c-0.014-0.002-0.026-0.004-0.041-0.007c-0.016,0-0.026-0.002-0.041-0.002
			c-0.014-0.002-0.026-0.004-0.041-0.004c-0.014-0.002-0.028-0.002-0.041-0.004c-0.016,0-0.028,0-0.041-0.002h-0.008h-0.033h-0.041
			H38.93h-0.043h-0.041h-0.041h-0.041h-0.041h-0.041h-0.041h-0.041H38.56h-0.039h-0.043h-0.041h-0.041h-0.041h-0.04h-0.041h-0.041
			h-0.041h-0.041h-0.041H38.07h-0.041h-0.041h-0.041h-0.041h-0.043h-0.041h-0.041h-0.039h-0.041h-0.041H37.62h-0.041h-0.041h-0.041
			h-0.041h-0.043h-0.04h-0.041h-0.041H37.25h-0.043h-0.041h-0.041h-0.041h-0.041h-0.041h-0.039h-0.041h-0.041h-0.041H36.8h-0.043
			h-0.041h-0.041h-0.041h-0.039h-0.021L36.575,21.421z"/>
		<path fill="#F15859" d="M33.151,5.932h-0.043h-0.041h-0.041h-0.041h-0.041h-0.041h-0.041h-0.041h-0.039h-0.041h-0.043h-0.041
			h-0.041h-0.04h-0.041h-0.041h-0.041h-0.041h-0.041h-0.039h-0.041h-0.041h-0.041H32.17h-0.041h-0.041h-0.041h-0.041h-0.042h-0.041
			h-0.041h-0.041H31.8h-0.041h-0.041h-0.043h-0.041h-0.041h-0.041h-0.039h-0.041h-0.041h-0.039H31.35h-0.041h-0.041h-0.041h-0.041
			h-0.041h-0.039h-0.041h-0.041h-0.041h-0.041h-0.041h-0.043h-0.041h-0.041h-0.041h-0.041h-0.041h-0.041h-0.041h-0.042H30.49h-0.043
			h-0.041h-0.041h-0.041h-0.041h-0.041h-0.041h-0.041H30.12h-0.041h-0.043h-0.041h-0.041h-0.041h-0.041h-0.035h-0.041h-0.041h-0.041
			h-0.041h-0.041h-0.04h-0.041h-0.041h-0.042h-0.041h-0.041h-0.041h-0.041h-0.041h-0.041h-0.041h-0.041h-0.041H29.06h-0.041h-0.041
			h-0.041h-0.04h-0.041h-0.042h-0.041h-0.042h-0.041H28.65h-0.041h-0.038H28.53h-0.041h-0.041h-0.042h-0.041h-0.041h-0.042h-0.041
			h-0.04h-0.04h-0.041H28.08h-0.041h-0.041h-0.041h-0.041h-0.041h-0.041h-0.041h-0.041h-0.041h-0.041H27.63h-0.042h-0.041h-0.041
			h-0.041h-0.042h-0.041h-0.039h-0.04h-0.041h-0.041H27.18h-0.041h-0.041h-0.041h-0.041h-0.022h-0.018c-0.014,0-0.027,0-0.041,0
			c-0.014,0-0.027,0-0.041,0c-0.014,0.001-0.027,0.001-0.041,0.002l-0.042,0.001c-0.013,0-0.027,0.001-0.041,0.002
			c-0.014,0-0.027,0.002-0.041,0.002c-0.013,0.001-0.027,0.002-0.041,0.003c-0.014,0.001-0.027,0.002-0.041,0.003l-0.042,0.004
			c-0.013,0.001-0.027,0.002-0.041,0.003c-0.014,0.001-0.028,0.003-0.041,0.005l-0.041,0.004l-0.041,0.005
			c-0.014,0.002-0.027,0.004-0.041,0.006c-0.014,0.002-0.027,0.004-0.041,0.005c-0.014,0.002-0.027,0.004-0.041,0.007l-0.041,0.007
			l-0.041,0.007c-0.014,0.003-0.027,0.005-0.042,0.008c-0.013,0.003-0.027,0.005-0.041,0.008c-0.014,0.002-0.027,0.005-0.041,0.008
			l-0.041,0.009c-0.014,0.003-0.027,0.006-0.041,0.009s-0.027,0.007-0.041,0.01s-0.027,0.006-0.041,0.01
			c-0.014,0.003-0.027,0.007-0.041,0.01l-0.041,0.012c-0.014,0.004-0.027,0.007-0.041,0.011c-0.014,0.004-0.027,0.008-0.041,0.012
			c-0.014,0.004-0.027,0.008-0.041,0.013c-0.013,0.003-0.027,0.008-0.041,0.012l-0.042,0.014c-0.014,0.004-0.027,0.009-0.041,0.014
			c-0.014,0.005-0.027,0.009-0.042,0.015c-0.013,0.005-0.027,0.009-0.041,0.015c-0.014,0.004-0.027,0.01-0.041,0.015
			c-0.013,0.005-0.028,0.011-0.041,0.016c-0.015,0.005-0.028,0.011-0.042,0.016l-0.041,0.017c-0.014,0.006-0.027,0.011-0.041,0.017
			c-0.013,0.006-0.027,0.012-0.041,0.018c-0.013,0.006-0.027,0.012-0.041,0.018c-0.014,0.006-0.027,0.013-0.041,0.019
			c-0.014,0.006-0.028,0.012-0.042,0.02c-0.014,0.006-0.027,0.013-0.041,0.02l-0.041,0.021l-0.041,0.02
			c-0.014,0.007-0.028,0.014-0.041,0.021c-0.014,0.007-0.027,0.014-0.042,0.021c-0.013,0.008-0.027,0.016-0.041,0.023
			c-0.014,0.007-0.027,0.015-0.041,0.021c-0.013,0.008-0.027,0.016-0.041,0.024c-0.014,0.008-0.028,0.016-0.042,0.024
			c-0.014,0.008-0.027,0.017-0.041,0.025c-0.014,0.008-0.027,0.017-0.041,0.026c-0.013,0.008-0.027,0.018-0.041,0.026
			c-0.014,0.009-0.028,0.018-0.041,0.027c-0.014,0.009-0.027,0.019-0.041,0.028c-0.014,0.009-0.027,0.019-0.042,0.028
			c-0.013,0.009-0.027,0.021-0.041,0.029c-0.013,0.01-0.027,0.021-0.041,0.03c-0.014,0.01-0.027,0.021-0.041,0.031
			c-0.014,0.01-0.027,0.021-0.041,0.031c-0.015,0.013-0.028,0.023-0.042,0.035c-0.014,0.01-0.027,0.021-0.041,0.033
			c-0.014,0.012-0.027,0.021-0.041,0.034c-0.013,0.011-0.027,0.023-0.041,0.035c-0.014,0.012-0.027,0.023-0.041,0.036
			c-0.014,0.013-0.028,0.024-0.041,0.037C24.128,7.04,24.115,7.053,24.1,7.066c-0.013,0.013-0.027,0.025-0.041,0.038
			c-0.014,0.014-0.027,0.027-0.041,0.041c-0.014,0.013-0.027,0.026-0.041,0.041c-0.014,0.013-0.027,0.028-0.041,0.042
			c-0.014,0.014-0.027,0.029-0.041,0.043c-0.014,0.015-0.028,0.029-0.041,0.044c-0.014,0.015-0.027,0.03-0.041,0.045
			c-0.014,0.016-0.027,0.031-0.041,0.047c-0.014,0.016-0.027,0.032-0.042,0.048c-0.014,0.016-0.027,0.033-0.041,0.05
			c-0.014,0.017-0.028,0.034-0.042,0.051c-0.013,0.018-0.027,0.035-0.041,0.054c-0.014,0.018-0.027,0.037-0.041,0.055
			c-0.014,0.019-0.028,0.037-0.041,0.056c-0.014,0.02-0.027,0.04-0.041,0.059c-0.014,0.021-0.028,0.041-0.041,0.062
			c-0.014,0.021-0.027,0.042-0.041,0.063c-0.014,0.022-0.028,0.044-0.041,0.066c-0.014,0.022-0.027,0.046-0.041,0.069
			c-0.014,0.024-0.027,0.048-0.041,0.072c-0.014,0.025-0.027,0.05-0.041,0.075c-0.014,0.026-0.028,0.052-0.042,0.079
			c-0.014,0.027-0.027,0.055-0.041,0.083c-0.014,0.029-0.028,0.058-0.042,0.088c-0.014,0.031-0.027,0.062-0.041,0.094
			c-0.014,0.033-0.028,0.066-0.041,0.101c-0.014,0.036-0.028,0.072-0.041,0.109c-0.015,0.04-0.028,0.08-0.041,0.119
			c-0.015,0.044-0.028,0.088-0.041,0.132c-0.014,0.05-0.028,0.1-0.041,0.151c-0.015,0.059-0.029,0.118-0.041,0.178
			c-0.058,0.278-0.088,0.567-0.088,0.862v5.556c0.029-0.024,0.058-0.049,0.088-0.073c0.013-0.011,0.027-0.022,0.041-0.033
			c0.014-0.01,0.027-0.021,0.041-0.032c0.014-0.011,0.027-0.021,0.041-0.031c0.014-0.011,0.027-0.021,0.041-0.031
			c0.013-0.01,0.027-0.02,0.041-0.029c0.013-0.009,0.027-0.019,0.041-0.029l0.041-0.028c0.014-0.009,0.027-0.019,0.042-0.027
			l0.041-0.027c0.014-0.009,0.027-0.018,0.042-0.026c0.013-0.009,0.027-0.017,0.041-0.025c0.014-0.009,0.027-0.017,0.041-0.025
			c0.014-0.008,0.027-0.016,0.041-0.024s0.027-0.017,0.041-0.024c0.014-0.008,0.027-0.016,0.041-0.023l0.041-0.022l0.041-0.022
			c0.014-0.007,0.027-0.015,0.041-0.022c0.014-0.007,0.027-0.014,0.041-0.021l0.041-0.021l0.042-0.021l0.041-0.021
			c0.014-0.006,0.027-0.013,0.042-0.019l0.041-0.019l0.041-0.019l0.041-0.018l0.041-0.018l0.041-0.017l0.041-0.017l0.041-0.017
			l0.041-0.016l0.042-0.016c0.013-0.005,0.027-0.011,0.041-0.016l0.041-0.016c0.013-0.005,0.027-0.01,0.041-0.015
			c0.014-0.005,0.027-0.01,0.041-0.015l0.041-0.014l0.042-0.015c0.013-0.004,0.027-0.009,0.041-0.014l0.041-0.014
			c0.013-0.004,0.027-0.009,0.041-0.013l0.041-0.013l0.042-0.013l0.041-0.012l0.041-0.012l0.041-0.012l0.041-0.012l0.041-0.012
			l0.042-0.011l0.041-0.011l0.05-0.012l0.041-0.009l0.042-0.01l0.041-0.01l0.041-0.01l0.041-0.01l0.041-0.009l0.042-0.009
			l0.041-0.009l0.041-0.009l0.041-0.009l0.041-0.008l0.041-0.008l0.042-0.008l0.041-0.008l0.041-0.008l0.041-0.007l0.042-0.007
			l0.041-0.007l0.042-0.007l0.041-0.007l0.041-0.007l0.041-0.005l0.041-0.007l0.041-0.006l0.041-0.005L26,14.467l0.041-0.005
			l0.041-0.005l0.041-0.006l0.041-0.005l0.041-0.005l0.042-0.005l0.041-0.004l0.041-0.005l0.041-0.004l0.041-0.005l0.041-0.003
			l0.041-0.004l0.041-0.004l0.041-0.004l0.041-0.003l0.042-0.003l0.041-0.003l0.041-0.002l0.041-0.003l0.041-0.003l0.042-0.002
			l0.041-0.003l0.041-0.002l0.041-0.002l0.041-0.002l0.041-0.002l0.041-0.002l0.041-0.002l0.041-0.001l0.042-0.002l0.041-0.001
			l0.041-0.001l0.041-0.001l0.041-0.001h0.041l0.042-0.001l0.041-0.001l0.041-0.001h0.041l0.042-0.001h0.041h0.041h0.041h0.041
			h0.041h0.041h0.041h0.041h0.041h0.041h0.041l0.041,0.001h0.041l0.041,0.001l0.042,0.001h0.041l0.042,0.001h0.041l0.041,0.001
			l0.042,0.001l0.041,0.001l0.041,0.001l0.041,0.001l0.041,0.001l0.041,0.002l0.041,0.002h0.021l0.02,0.001l0.043,0.002l0.041,0.001
			l0.041,0.002l0.041,0.003l0.041,0.002l0.041,0.002l0.041,0.003l0.041,0.003l0.041,0.003l0.041,0.003l0.041,0.003l0.041,0.004
			l0.041,0.004l0.041,0.003l0.041,0.004l0.042,0.003l0.041,0.004l0.042,0.004l0.041,0.004l0.041,0.004l0.041,0.005l0.042,0.004
			l0.041,0.005l0.041,0.004l0.041,0.005l0.041,0.005l0.041,0.005l0.042,0.005l0.041,0.005l0.041,0.005l0.041,0.005l0.041,0.006
			l0.043,0.005l0.041,0.006l0.041,0.006l0.041,0.006l0.041,0.007l0.041,0.005l0.041,0.006l0.041,0.006l0.041,0.007l0.041,0.006
			l0.043,0.006l0.041,0.006l0.04,0.007l0.041,0.007l0.04,0.007l0.043,0.007l0.041,0.007l0.041,0.008l0.041,0.007l0.041,0.007
			l0.041,0.008l0.041,0.007l0.041,0.007l0.041,0.008l0.041,0.007l0.041,0.008l0.041,0.009l0.041,0.008l0.041,0.008l0.041,0.008
			l0.043,0.008l0.041,0.008l0.041,0.009l0.041,0.008l0.041,0.008l0.041,0.009l0.043,0.008l0.041,0.009l0.041,0.009l0.041,0.009
			l0.041,0.009l0.041,0.009l0.041,0.009l0.041,0.009l0.041,0.01l0.043,0.01l0.041,0.009l0.041,0.01l0.041,0.01v1.796l-0.041-0.021
			l-0.041-0.02l-0.041-0.021l-0.043-0.02l-0.041-0.02l-0.041-0.021l-0.041-0.019l-0.041-0.02l-0.041-0.019l-0.041-0.019
			l-0.041-0.019l-0.041-0.019l-0.043-0.018l-0.041-0.018l-0.041-0.018l-0.041-0.018l-0.041-0.018l-0.041-0.017l-0.043-0.017
			l-0.041-0.017l-0.041-0.017l-0.041-0.017l-0.041-0.016l-0.041-0.016l-0.041-0.016l-0.041-0.015l-0.041-0.015l-0.041-0.015
			l-0.041-0.014l-0.041-0.015l-0.041-0.014l-0.041-0.013l-0.041-0.014l-0.043-0.013l-0.04-0.013l-0.041-0.013l-0.04-0.013
			l-0.041-0.013l-0.043-0.012l-0.041-0.012l-0.041-0.012l-0.041-0.012l-0.041-0.011l-0.041-0.011l-0.041-0.011l-0.041-0.01
			l-0.041-0.01l-0.041-0.01l-0.043-0.01l-0.041-0.01l-0.041-0.009l-0.041-0.009l-0.041-0.009L29.86,15.86l-0.041-0.008l-0.041-0.008
			l-0.041-0.008l-0.041-0.007l-0.041-0.008l-0.042-0.007l-0.041-0.007l-0.041-0.008l-0.041-0.006l-0.042-0.006l-0.041-0.006
			l-0.042-0.006l-0.041-0.006l-0.041-0.005l-0.041-0.006l-0.041-0.004l-0.041-0.005l-0.041-0.004L29.08,15.74l-0.061,0.01
			l-0.041-0.004l-0.041-0.003l-0.04-0.004l-0.041-0.003l-0.025-0.002l-0.016-0.001l-0.041-0.003l-0.042-0.002l-0.041-0.002
			l-0.041-0.002l-0.041-0.002l-0.041-0.001l-0.041-0.001l-0.041-0.001h-0.041l-0.042-0.001c-0.014,0-0.027,0-0.041,0h-0.041
			L28.28,15.72h-0.041l-0.042,0.001c-0.013,0-0.027,0-0.041,0.001c-0.014,0.001-0.027,0.001-0.041,0.002l-0.041,0.002l-0.041,0.002
			l-0.041,0.003l-0.041,0.003c-0.013,0.001-0.027,0.002-0.041,0.003c-0.014,0.001-0.027,0.002-0.041,0.004l-0.041,0.004
			l-0.041,0.005l-0.041,0.004l-0.041,0.006l-0.041,0.006l-0.041,0.006c-0.014,0.002-0.027,0.004-0.042,0.007
			c-0.013,0.002-0.027,0.004-0.041,0.006c-0.014,0.003-0.027,0.005-0.041,0.008c-0.014,0.003-0.028,0.004-0.041,0.008
			c-0.015,0.002-0.027,0.005-0.042,0.008c-0.014,0.003-0.027,0.005-0.041,0.008c-0.014,0.004-0.027,0.007-0.041,0.01l-0.041,0.01
			c-0.014,0.003-0.027,0.007-0.041,0.01c-0.014,0.003-0.028,0.007-0.041,0.01c-0.014,0.004-0.027,0.008-0.042,0.012l-0.041,0.012
			c-0.013,0.003-0.027,0.008-0.041,0.012c-0.014,0.005-0.027,0.008-0.041,0.013c-0.014,0.004-0.027,0.009-0.041,0.013
			c-0.014,0.005-0.027,0.009-0.041,0.014c-0.014,0.005-0.027,0.01-0.041,0.016c-0.014,0.004-0.027,0.009-0.041,0.015
			s-0.027,0.011-0.041,0.016c-0.014,0.005-0.027,0.011-0.042,0.016c-0.014,0.006-0.027,0.012-0.041,0.018
			c-0.014,0.006-0.027,0.012-0.041,0.018c-0.013,0.006-0.027,0.013-0.041,0.019c-0.014,0.006-0.027,0.013-0.041,0.02
			c-0.014,0.007-0.027,0.013-0.042,0.02c-0.014,0.007-0.027,0.014-0.041,0.021c-0.014,0.007-0.028,0.014-0.041,0.021
			c-0.014,0.007-0.028,0.015-0.041,0.023c-0.014,0.008-0.027,0.016-0.041,0.023c-0.014,0.008-0.027,0.017-0.041,0.025
			c-0.014,0.008-0.027,0.017-0.041,0.026s-0.028,0.018-0.041,0.026c-0.014,0.009-0.027,0.019-0.041,0.028
			c-0.014,0.01-0.027,0.019-0.041,0.029c-0.014,0.01-0.028,0.02-0.042,0.03c-0.014,0.01-0.027,0.021-0.041,0.032
			c-0.014,0.011-0.028,0.021-0.041,0.033c-0.014,0.012-0.028,0.022-0.041,0.034c-0.014,0.012-0.027,0.023-0.041,0.036
			c-0.014,0.012-0.027,0.025-0.041,0.037c-0.014,0.013-0.027,0.026-0.041,0.04c-0.014,0.013-0.028,0.027-0.041,0.04
			c-0.014,0.015-0.027,0.029-0.041,0.044c-0.014,0.015-0.027,0.03-0.041,0.045s-0.027,0.031-0.041,0.048
			c-0.014,0.016-0.027,0.033-0.041,0.05c-0.014,0.018-0.027,0.035-0.041,0.053c-0.014,0.019-0.028,0.038-0.042,0.056
			c-0.014,0.021-0.027,0.04-0.041,0.061c-0.014,0.021-0.028,0.042-0.042,0.063c-0.014,0.021-0.027,0.045-0.041,0.069
			c-0.014,0.024-0.028,0.049-0.041,0.074c-0.014,0.027-0.028,0.053-0.041,0.081c-0.015,0.028-0.028,0.058-0.042,0.088
			c-0.014,0.032-0.028,0.063-0.041,0.096c-0.015,0.036-0.028,0.073-0.041,0.11c-0.014,0.041-0.028,0.083-0.041,0.125
			c-0.014,0.049-0.029,0.099-0.041,0.15c-0.016,0.064-0.029,0.128-0.041,0.194c-0.018,0.098-0.032,0.197-0.042,0.3
			c-0.011,0.119-0.017,0.242-0.017,0.368c0,0.125,0.006,0.25,0.017,0.366c0.01,0.104,0.023,0.203,0.042,0.3
			c0.012,0.064,0.025,0.131,0.041,0.193c0.012,0.053,0.026,0.102,0.041,0.15c0.013,0.043,0.027,0.084,0.041,0.125
			c0.013,0.037,0.026,0.074,0.041,0.109c0.013,0.033,0.027,0.063,0.041,0.098c0.013,0.027,0.027,0.059,0.042,0.088
			c0.012,0.025,0.026,0.053,0.041,0.08c0.013,0.023,0.027,0.049,0.041,0.072c0.013,0.022,0.027,0.047,0.041,0.07
			c0.014,0.02,0.027,0.043,0.042,0.062c0.013,0.021,0.027,0.039,0.041,0.06c0.014,0.019,0.027,0.037,0.042,0.058
			c0.013,0.018,0.027,0.035,0.041,0.053s0.027,0.033,0.041,0.051c0.014,0.016,0.027,0.031,0.041,0.047
			c0.014,0.018,0.027,0.031,0.041,0.045c0.014,0.016,0.027,0.029,0.041,0.045c0.013,0.014,0.027,0.025,0.041,0.041
			c0.014,0.014,0.027,0.025,0.041,0.039c0.014,0.012,0.027,0.025,0.041,0.037c0.014,0.012,0.027,0.023,0.041,0.035
			c0.013,0.014,0.027,0.021,0.041,0.035c0.013,0.01,0.027,0.021,0.041,0.031c0.013,0.012,0.027,0.021,0.041,0.031
			c0.014,0.01,0.027,0.021,0.042,0.03c0.013,0.011,0.027,0.021,0.041,0.028c0.014,0.009,0.027,0.019,0.041,0.027
			c0.013,0.01,0.027,0.019,0.041,0.025c0.014,0.006,0.027,0.018,0.041,0.025c0.014,0.006,0.027,0.018,0.041,0.024
			c0.014,0.006,0.027,0.017,0.041,0.022c0.013,0.009,0.027,0.017,0.041,0.023c0.013,0.006,0.027,0.014,0.041,0.02
			c0.014,0.009,0.027,0.017,0.041,0.021c0.014,0.008,0.028,0.014,0.042,0.02c0.014,0.009,0.027,0.015,0.041,0.021
			c0.013,0.006,0.027,0.014,0.041,0.02c0.014,0.006,0.027,0.012,0.041,0.018c0.014,0.008,0.027,0.014,0.041,0.02
			c0.014,0.004,0.027,0.011,0.042,0.017c0.013,0.004,0.027,0.011,0.041,0.017c0.014,0.004,0.027,0.01,0.041,0.016
			c0.014,0.004,0.027,0.01,0.041,0.014c0.014,0.004,0.027,0.01,0.041,0.016c0.014,0.004,0.027,0.008,0.041,0.013
			c0.014,0.006,0.027,0.01,0.041,0.014c0.013,0.005,0.027,0.009,0.041,0.013c0.014,0.004,0.028,0.008,0.041,0.012
			c0.014,0.004,0.027,0.008,0.042,0.012c0.013,0.002,0.027,0.006,0.041,0.01c0.014,0.002,0.027,0.008,0.041,0.01l0.041,0.01
			c0.014,0.005,0.027,0.007,0.041,0.011c0.014,0.004,0.027,0.006,0.041,0.008c0.014,0.005,0.027,0.007,0.042,0.009
			c0.013,0.004,0.027,0.006,0.041,0.008c0.014,0.004,0.027,0.006,0.041,0.008c0.014,0.002,0.027,0.006,0.041,0.008
			c0.014,0.002,0.027,0.004,0.042,0.006c0.013,0.002,0.027,0.004,0.041,0.006l0.041,0.006l0.041,0.008l0.041,0.004l0.041,0.004
			l0.041,0.005c0.014,0.002,0.027,0.004,0.041,0.004c0.014,0.002,0.028,0.002,0.041,0.004l0.041,0.002l0.041,0.004l0.041,0.002
			l0.041,0.003c0.014,0,0.027,0,0.041,0.002c0.014,0,0.027,0,0.041,0l0.042,0.002h0.041h0.042h0.041c0.014,0,0.027,0,0.041,0h0.042
			h0.041l0.041-0.002h0.041l0.041-0.002l0.041-0.003l0.041-0.002l0.041-0.002l0.042-0.002l0.041-0.002l0.016-0.002l0.025-0.002
			l0.041-0.002l0.04-0.005l0.041-0.004l0.041-0.004l0.041-0.004l0.041-0.006l0.041-0.004l0.041-0.004l0.041-0.006l0.041-0.006
			l0.041-0.006l0.041-0.006l0.043-0.008l0.041-0.008l0.041-0.006l0.041-0.006l0.041-0.006l0.041-0.008l0.043-0.008l0.041-0.006
			l0.041-0.009l0.041-0.008l0.041-0.011l0.041-0.008l0.041-0.01l0.041-0.008l0.041-0.01l0.041-0.01l0.041-0.008l0.043-0.011
			l0.041-0.01l0.041-0.011l0.041-0.012l0.041-0.012l0.041-0.01l0.041-0.012l0.041-0.012l0.041-0.013l0.041-0.013l0.043-0.012
			l0.041-0.012l0.041-0.014l0.041-0.014l0.041-0.013l0.041-0.015l0.041-0.014l0.041-0.014l0.041-0.014l0.041-0.016l0.041-0.015
			l0.041-0.015l0.041-0.016l0.041-0.016l0.041-0.016l0.041-0.017l0.041-0.016l0.041-0.017l0.041-0.018l0.041-0.016l0.043-0.019
			l0.041-0.019l0.041-0.016l0.041-0.02l0.041-0.018l0.041-0.019l0.043-0.019l0.041-0.02l0.041-0.02l0.041-0.02l0.041-0.02
			l0.041-0.02l0.041-0.02l0.041-0.021l0.041-0.02l0.043-0.02l0.041-0.021l0.041-0.021l0.041-0.021v1.795l-0.041,0.011l-0.041,0.01
			l-0.041,0.01l-0.043,0.01l-0.041,0.01l-0.041,0.01l-0.041,0.01l-0.041,0.009l-0.041,0.01l-0.041,0.009l-0.055,0.033l-0.041,0.01
			l-0.041,0.008l-0.041,0.008l-0.041,0.011l-0.041,0.008l-0.043,0.009l-0.041,0.008l-0.041,0.01l-0.041,0.008l-0.041,0.008
			l-0.041,0.006l-0.041,0.008l-0.041,0.008l-0.041,0.009l-0.041,0.008l-0.041,0.009l-0.041,0.006l-0.041,0.008l-0.041,0.008
			l-0.041,0.006l-0.041,0.008l-0.041,0.008l-0.043,0.008l-0.041,0.006l-0.041,0.009l-0.041,0.006l-0.041,0.003l-0.041,0.008
			l-0.041,0.006l-0.041,0.006l-0.041,0.008l-0.041,0.007l-0.043,0.006l-0.041,0.006l-0.041,0.007l-0.041,0.016l-0.041,0.006
			l-0.041,0.006l-0.041,0.006l-0.042,0.006l-0.041,0.004l-0.041,0.006l-0.042,0.006l-0.041,0.004l-0.041,0.006l-0.041,0.004
			l-0.041,0.005l-0.041,0.006l-0.042,0.004l-0.041,0.004l-0.04,0.005l-0.041,0.004l-0.043,0.004l-0.041,0.004l-0.041,0.004
			l-0.041,0.004l-0.04,0.002l-0.041,0.002l-0.041,0.004l-0.041,0.004l-0.041-0.002l-0.041,0.004l-0.041,0.002l-0.041,0.004
			l-0.041,0.002l-0.041,0.004l-0.041,0.002l-0.043,0.002l-0.041,0.002l-0.041,0.002h-0.021h-0.02l-0.041,0.002h-0.041l-0.041,0.002
			l-0.041,0.002l-0.042,0.003h-0.041l-0.042,0.002h-0.041l-0.041,0.002h-0.042l-0.041,0.002h-0.042h-0.041h-0.041h-0.041
			L28.02,22.97h-0.041h-0.041h-0.041h-0.041h-0.041h-0.041h-0.022h-0.041h-0.041H27.63h-0.042l-0.041-0.002h-0.041h-0.041
			l-0.042-0.002h-0.041l-0.041-0.002H27.3l-0.041-0.002l-0.041-0.003l-0.042-0.002h-0.041l-0.041-0.002l-0.041-0.002l-0.041-0.002
			l-0.038,0.006l-0.041-0.002l-0.041-0.002l-0.041-0.002l-0.042-0.004l-0.041-0.002l-0.041-0.004l-0.041-0.002l-0.041-0.004
			l-0.042-0.002l-0.041-0.004l-0.041-0.004l-0.041-0.002l-0.041-0.004L26.4,22.915l-0.041-0.006l-0.041-0.004l-0.041-0.004
			l-0.041-0.004l-0.042-0.007l-0.041-0.004l-0.041-0.006l-0.041-0.004l-0.041-0.007l-0.041-0.006l-0.041-0.006l-0.041-0.002
			l-0.041-0.008l-0.041-0.006l-0.041-0.006l-0.041-0.008l-0.041-0.006l-0.042-0.008l-0.041-0.007l-0.042-0.008l-0.041-0.006
			l-0.041-0.007l-0.041-0.008l-0.042-0.008l-0.041-0.008l-0.041-0.008l-0.041-0.008l-0.041-0.01l-0.041-0.01l-0.042-0.004
			l-0.041-0.01l-0.041-0.009l-0.041-0.01l-0.041-0.012l-0.042-0.01l-0.041-0.012l-0.041-0.01l-0.041-0.013l-0.042-0.01l-0.041-0.013
			l-0.041-0.012l-0.041-0.012l-0.041-0.012l-0.041-0.014l-0.042-0.01l-0.041-0.012c-0.013-0.006-0.027-0.01-0.041-0.014
			c-0.014-0.006-0.027-0.01-0.041-0.015l-0.029-0.021l-0.042-0.014c-0.014-0.006-0.027-0.01-0.041-0.016
			c-0.014-0.004-0.027-0.01-0.041-0.016l-0.041-0.014c-0.014-0.007-0.027-0.013-0.041-0.017l-0.041-0.017l-0.042-0.018l-0.041-0.016
			l-0.041-0.019l-0.041-0.019l-0.041-0.018l-0.041-0.018l-0.041-0.02l-0.041-0.019l-0.041-0.021
			c-0.014-0.006-0.027-0.013-0.042-0.02l-0.041-0.02l-0.042-0.021l-0.041-0.02c-0.014-0.008-0.027-0.016-0.041-0.021
			c-0.014-0.008-0.027-0.016-0.041-0.021l-0.041-0.022l-0.041-0.021l-0.041-0.018c-0.014-0.008-0.027-0.016-0.041-0.023
			c-0.014-0.008-0.027-0.018-0.041-0.022l-0.041-0.024c-0.014-0.009-0.027-0.019-0.041-0.025c-0.014-0.01-0.028-0.018-0.042-0.025
			L23.167,21.9c-0.014-0.008-0.027-0.02-0.042-0.026l-0.041-0.026c-0.014-0.011-0.028-0.021-0.041-0.029
			c-0.014-0.01-0.028-0.021-0.041-0.029c-0.014-0.01-0.027-0.02-0.041-0.029c-0.014-0.009-0.027-0.021-0.041-0.031
			c-0.014-0.01-0.027-0.021-0.041-0.031c-0.014-0.012-0.028-0.021-0.041-0.032c-0.03-0.024-0.06-0.05-0.088-0.074v9.799h0.088h0.041
			h0.041h0.041h0.041h0.041h0.041h0.041h0.042h0.041h0.042h0.041h0.041h0.041h0.041h0.041h0.041h0.041h0.041h0.041h0.041h0.042
			h0.041h0.042h0.041h0.041h0.041h0.041h0.041h0.041h0.041h0.041h0.042h0.041h0.041h0.041h0.041h0.041h0.042h0.041h0.041h0.041
			h0.041h0.042h0.041h0.041h0.041h0.041h0.041h0.042h0.041h0.041h0.041h0.042h0.041h0.041h0.041h0.041h0.042h0.041h0.041h0.041
			h0.041h0.041h0.042h0.041h0.041h0.041h0.042h0.041h0.042h0.041h0.041h0.041h0.041h0.041h0.041h0.041h0.041h0.041h0.041h0.041
			h0.041h0.042h0.041h0.041h0.041h0.041h0.041h0.041h0.041h0.041h0.041h0.042H26.7h0.041h0.041h0.041h0.042h0.041h0.041h0.041h0.041
			h0.041h0.041h0.041h0.041h0.042h0.041h0.041h0.041h0.041h0.041h0.042h0.041h0.041h0.041h0.042h0.041h0.041h0.041h0.041h0.041
			h0.041h0.041h0.041h0.041h0.041h0.041h0.041h0.041h0.041h0.042H28.3h0.042h0.041h0.041h0.042h0.041h0.041h0.041h0.041h0.041h0.041
			h0.041h0.043h0.041h0.041h0.041h0.041H29h0.004c0.012,0,0.024,0,0.037,0h0.041c0.014,0,0.027,0,0.041-0.002
			c0.014,0,0.027,0,0.041,0c0.014,0,0.027-0.002,0.041-0.002l0.041-0.002l0.041-0.002c0.014-0.002,0.027-0.002,0.041-0.002
			c0.014-0.002,0.027-0.002,0.041-0.004l0.042-0.004c0.013-0.002,0.027-0.002,0.041-0.004c0.015-0.002,0.027-0.004,0.042-0.006
			c0.014-0.002,0.027-0.002,0.041-0.004c0.014-0.002,0.027-0.004,0.041-0.006l0.041-0.006c0.014-0.002,0.027-0.004,0.042-0.006
			c0.015-0.002,0.026-0.004,0.041-0.006c0.015-0.002,0.026-0.004,0.041-0.008l0.041-0.007l0.041-0.008
			c0.015-0.004,0.028-0.007,0.041-0.009c0.015-0.002,0.026-0.006,0.042-0.01l0.041-0.01l0.041-0.01
			c0.015-0.002,0.027-0.006,0.041-0.01c0.015-0.004,0.027-0.006,0.041-0.01c0.015-0.004,0.027-0.008,0.043-0.012
			c0.013-0.005,0.025-0.007,0.041-0.011l0.041-0.013l0.041-0.012c0.015-0.004,0.027-0.008,0.041-0.014
			c0.014-0.004,0.025-0.008,0.041-0.012c0.014-0.006,0.027-0.01,0.041-0.014l0.041-0.017l0.041-0.015
			c0.014-0.004,0.027-0.01,0.041-0.014c0.014-0.006,0.027-0.012,0.043-0.018c0.014-0.004,0.025-0.01,0.041-0.016
			c0.012-0.004,0.025-0.01,0.041-0.017l0.041-0.019l0.041-0.016l0.041-0.02c0.014-0.006,0.027-0.012,0.041-0.02
			c0.014-0.006,0.027-0.012,0.041-0.019c0.014-0.008,0.027-0.015,0.041-0.021c0.014-0.006,0.027-0.014,0.041-0.021
			c0.014-0.006,0.027-0.014,0.041-0.021c0.014-0.006,0.027-0.015,0.041-0.021l0.041-0.021l0.041-0.021l0.041-0.021
			c0.016-0.009,0.027-0.018,0.041-0.022c0.016-0.009,0.027-0.019,0.041-0.024c0.016-0.009,0.029-0.017,0.041-0.023
			c0.016-0.01,0.027-0.018,0.041-0.025c0.016-0.008,0.027-0.018,0.041-0.025c0.016-0.01,0.027-0.02,0.043-0.026
			c0.014-0.009,0.027-0.019,0.041-0.026c0.014-0.007,0.025-0.019,0.041-0.029c0.014-0.008,0.027-0.019,0.041-0.027
			c0.016-0.01,0.027-0.02,0.041-0.029c0.016-0.01,0.027-0.02,0.041-0.029c0.016-0.01,0.027-0.021,0.043-0.031
			c0.014-0.01,0.025-0.02,0.041-0.03c0.014-0.011,0.025-0.021,0.041-0.032c0.014-0.011,0.025-0.021,0.041-0.033
			c0.014-0.013,0.027-0.021,0.041-0.035c0.016-0.012,0.027-0.021,0.041-0.033c0.016-0.014,0.027-0.025,0.041-0.037
			c0.016-0.014,0.027-0.023,0.041-0.037c0.016-0.012,0.027-0.023,0.041-0.037c0.016-0.014,0.027-0.025,0.043-0.039
			c0.014-0.014,0.025-0.025,0.041-0.041c0.014-0.014,0.027-0.025,0.041-0.041c0.014-0.014,0.027-0.027,0.041-0.041
			c0.016-0.016,0.027-0.029,0.041-0.043c0.016-0.016,0.027-0.029,0.041-0.045c0.014-0.014,0.027-0.029,0.041-0.045
			c0.014-0.016,0.027-0.031,0.041-0.047c0.014-0.018,0.027-0.033,0.041-0.049c0.014-0.018,0.027-0.035,0.041-0.053
			c0.014-0.017,0.027-0.033,0.041-0.051c0.014-0.019,0.027-0.035,0.041-0.054s0.027-0.037,0.041-0.056
			c0.014-0.02,0.027-0.039,0.041-0.057c0.014-0.021,0.027-0.041,0.043-0.061c0.014-0.021,0.025-0.041,0.041-0.062
			c0.012-0.021,0.025-0.041,0.041-0.062c0.014-0.021,0.027-0.043,0.041-0.066c0.014-0.023,0.027-0.045,0.039-0.068
			c0.016-0.024,0.029-0.049,0.041-0.073c0.016-0.024,0.029-0.05,0.043-0.076c0.014-0.024,0.027-0.054,0.041-0.08
			c0.014-0.026,0.027-0.056,0.041-0.084c0.014-0.028,0.027-0.06,0.041-0.088c0.014-0.033,0.027-0.063,0.041-0.097
			c0.016-0.034,0.027-0.067,0.041-0.104c0.016-0.037,0.027-0.074,0.041-0.111c0.016-0.041,0.029-0.082,0.041-0.123
			c0.016-0.045,0.029-0.09,0.041-0.137c0.016-0.053,0.029-0.105,0.041-0.158c0.018-0.062,0.029-0.127,0.043-0.19
			c0.016-0.084,0.029-0.168,0.041-0.254c0.022-0.18,0.035-0.359,0.035-0.544V5.932h-0.076H33.151z"/>
		<path fill="#0379BE" d="M21.408,5.932h-0.041h-0.041h-0.041h-0.041h-0.041h-0.042h-0.041H21.08h-0.041h-0.041h-0.041h-0.041h-0.04
			h-0.04h-0.042h-0.041h-0.041h-0.041h-0.041H20.59h-0.041h-0.041h-0.041h-0.041h-0.041h-0.042h-0.041H20.26H20.22h-0.041h-0.041
			h-0.041h-0.041h-0.038h-0.041h-0.041h-0.041h-0.041h-0.042h-0.041h-0.041H19.69h-0.041h-0.041h-0.042h-0.041h-0.041h-0.041h-0.041
			H19.36h-0.041h-0.041h-0.041H19.2h-0.041h-0.042h-0.041h-0.041h-0.041h-0.042h-0.041H18.87h-0.041h-0.041h-0.042h-0.041h-0.042
			h-0.041h-0.041h-0.041H18.5h-0.041h-0.042h-0.041h-0.035H18.3h-0.041h-0.041h-0.041h-0.042h-0.041h-0.041h-0.041h-0.042h-0.039
			h-0.041H17.85h-0.041h-0.041h-0.042h-0.041h-0.041h-0.041h-0.041h-0.04h-0.041h-0.041H17.4h-0.041h-0.042h-0.041h-0.041h-0.041
			h-0.041h-0.04h-0.04h-0.041h-0.041h-0.041h-0.042h-0.041h-0.041h-0.041h-0.041h-0.041h-0.04h-0.041h-0.041h-0.041H16.5h-0.041
			h-0.042h-0.041h-0.041h-0.042h-0.038h-0.041h-0.041h-0.041h-0.041h-0.041H16.01h-0.042h-0.041h-0.041h-0.041h-0.039h-0.041h-0.042
			h-0.041h-0.041h-0.041H15.56h-0.042h-0.041h-0.04h-0.04h-0.041h-0.041h-0.042h-0.022h-0.019c-0.014,0-0.027,0-0.041,0
			c-0.014,0-0.027,0-0.041,0s-0.027,0.001-0.041,0.002l-0.041,0.001c-0.014,0-0.027,0.001-0.041,0.002
			c-0.014,0-0.027,0.002-0.041,0.002C14.973,5.94,14.96,5.94,14.946,5.942c-0.014,0.001-0.027,0.002-0.042,0.003l-0.041,0.003
			c-0.014,0.001-0.028,0.002-0.042,0.004c-0.013,0.001-0.027,0.003-0.041,0.004L14.74,5.961l-0.041,0.005
			c-0.014,0.001-0.027,0.002-0.041,0.006c-0.013,0.002-0.028,0.004-0.041,0.005c-0.014,0.002-0.027,0.004-0.041,0.007L14.535,5.99
			c-0.014,0.002-0.028,0.005-0.042,0.008c-0.014,0.003-0.027,0.005-0.041,0.008c-0.013,0.003-0.027,0.004-0.041,0.008
			c-0.014,0.003-0.028,0.006-0.042,0.009l-0.041,0.008c-0.014,0.003-0.027,0.007-0.042,0.01c-0.013,0.003-0.027,0.007-0.041,0.01
			c-0.014,0.003-0.027,0.006-0.041,0.01c-0.014,0.004-0.028,0.007-0.041,0.01l-0.042,0.011c-0.014,0.004-0.027,0.007-0.041,0.011
			c-0.014,0.005-0.027,0.009-0.041,0.013c-0.013,0.004-0.027,0.007-0.041,0.013c-0.014,0.004-0.027,0.009-0.041,0.013l-0.041,0.014
			l-0.042,0.013c-0.014,0.006-0.027,0.01-0.041,0.016c-0.013,0.004-0.027,0.009-0.041,0.014c-0.014,0.005-0.027,0.01-0.041,0.015
			L13.721,6.22l-0.042,0.016l-0.041,0.017c-0.014,0.006-0.027,0.011-0.041,0.017c-0.013,0.006-0.027,0.012-0.041,0.019
			c-0.014,0.006-0.028,0.012-0.042,0.018c-0.014,0.006-0.027,0.013-0.041,0.018c-0.014,0.008-0.027,0.014-0.041,0.021
			c-0.013,0.006-0.027,0.013-0.041,0.02L13.35,6.387c-0.014,0.006-0.028,0.013-0.041,0.02c-0.014,0.008-0.027,0.015-0.042,0.022
			c-0.013,0.007-0.027,0.015-0.041,0.022c-0.014,0.007-0.028,0.015-0.041,0.023c-0.014,0.008-0.027,0.014-0.041,0.022
			c-0.014,0.008-0.027,0.017-0.041,0.024c-0.014,0.008-0.028,0.016-0.042,0.024c-0.014,0.008-0.027,0.017-0.041,0.025
			c-0.014,0.008-0.027,0.017-0.041,0.025c-0.013,0.009-0.027,0.018-0.041,0.026c-0.014,0.009-0.027,0.018-0.041,0.027
			s-0.028,0.019-0.041,0.028c-0.014,0.009-0.027,0.019-0.042,0.029c-0.013,0.009-0.027,0.019-0.041,0.029l-0.041,0.03
			c-0.014,0.01-0.027,0.02-0.041,0.031c-0.014,0.011-0.028,0.021-0.042,0.03c-0.014,0.012-0.027,0.022-0.041,0.034
			c-0.014,0.011-0.027,0.021-0.041,0.033c-0.013,0.011-0.027,0.023-0.041,0.034c-0.014,0.012-0.027,0.022-0.041,0.036
			c-0.014,0.011-0.027,0.023-0.042,0.035c-0.013,0.012-0.027,0.024-0.041,0.035c-0.014,0.014-0.027,0.026-0.042,0.039
			c-0.013,0.013-0.027,0.025-0.041,0.038c-0.014,0.014-0.027,0.026-0.041,0.041c-0.014,0.013-0.027,0.026-0.041,0.041
			c-0.014,0.014-0.027,0.027-0.041,0.042c-0.014,0.014-0.028,0.029-0.041,0.043c-0.014,0.015-0.028,0.029-0.042,0.044
			s-0.027,0.03-0.041,0.044c-0.014,0.017-0.027,0.032-0.042,0.048c-0.014,0.015-0.027,0.032-0.041,0.048
			c-0.014,0.016-0.027,0.032-0.041,0.049c-0.014,0.018-0.028,0.035-0.041,0.052c-0.014,0.017-0.028,0.035-0.041,0.052
			c-0.014,0.019-0.027,0.037-0.042,0.056c-0.013,0.019-0.027,0.037-0.041,0.056c-0.014,0.02-0.027,0.04-0.041,0.058
			C11.732,7.8,11.718,7.82,11.705,7.841c-0.015,0.02-0.028,0.042-0.042,0.062c-0.014,0.022-0.027,0.045-0.041,0.066
			c-0.014,0.023-0.027,0.046-0.041,0.069c-0.014,0.024-0.028,0.048-0.041,0.071c-0.014,0.026-0.028,0.051-0.041,0.076
			c-0.014,0.026-0.028,0.052-0.041,0.079c-0.014,0.027-0.028,0.054-0.042,0.083s-0.027,0.057-0.041,0.088
			c-0.014,0.031-0.027,0.062-0.041,0.092c-0.014,0.035-0.028,0.068-0.041,0.102c-0.015,0.036-0.027,0.072-0.041,0.108
			c-0.014,0.04-0.028,0.08-0.042,0.12c-0.014,0.044-0.027,0.088-0.041,0.133c-0.014,0.05-0.029,0.1-0.041,0.151
			c-0.015,0.059-0.029,0.118-0.041,0.177C11.03,9.596,11,9.884,11,10.18v10.48c0.03,0.016,0.059,0.028,0.088,0.043l0.041,0.02
			l0.041,0.02l0.041,0.021l0.042,0.019l0.041,0.02l0.041,0.02l0.041,0.018l0.041,0.021l0.042,0.016l0.041,0.02l0.041,0.018
			l0.041,0.019l0.041,0.019l0.041,0.017l0.042,0.017l0.041,0.018l0.041,0.019l0.041,0.017l0.042,0.017l0.041,0.017l0.041,0.016
			l0.041,0.017l0.041,0.015l0.042,0.017l0.041,0.015l0.042,0.014l0.041,0.017l0.041,0.015l0.041,0.014l0.041,0.016l0.041,0.014
			l0.042,0.012l0.041,0.016l0.042,0.014l0.041,0.014l0.041,0.012l0.041,0.012l0.041,0.012l0.042,0.014l0.041,0.011l0.041,0.013
			l0.041,0.012l0.042,0.011l0.041,0.01l0.041,0.011l0.041,0.01l0.041,0.013l0.041,0.01l0.042,0.011l0.041,0.01l0.041,0.01
			l0.041,0.009l0.041,0.009l0.042,0.008l0.041,0.008l0.041,0.01l0.041,0.008l0.041,0.01l0.041,0.006l0.042,0.008l0.041,0.006
			l0.041,0.008l0.041,0.007l0.042,0.007l0.041,0.006l0.041,0.004l0.041,0.006l0.041,0.007l0.042,0.005l0.041,0.004l0.041,0.005
			l0.041,0.005l0.041,0.004l0.041,0.004l0.042,0.002l0.041,0.004l0.041,0.002l0.041,0.004h0.042l0.041,0.002l0.042,0.003
			l0.041,0.002l0.041,0.001l0.042,0.001h0.041l0.041,0.001h0.041h0.025h0.016c0.014,0,0.027,0,0.041,0l0.041-0.001
			c0.013,0,0.028,0,0.041-0.001c0.014,0,0.028-0.001,0.042-0.002c0.014-0.001,0.027-0.001,0.041-0.002
			c0.014-0.002,0.027-0.002,0.042-0.004c0.013,0,0.027,0,0.041-0.002c0.014-0.002,0.027-0.002,0.041-0.004l0.041-0.004
			c0.014-0.002,0.027-0.004,0.041-0.006c0.014,0,0.027-0.002,0.041-0.006l0.041-0.006c0.014-0.002,0.027-0.005,0.041-0.007
			c0.014-0.003,0.027-0.007,0.041-0.009c0.014-0.002,0.028-0.006,0.042-0.008c0.014-0.002,0.027-0.006,0.041-0.008
			c0.014-0.004,0.027-0.007,0.041-0.01c0.013-0.004,0.027-0.007,0.041-0.011c0.014-0.005,0.027-0.007,0.041-0.011
			s0.028-0.008,0.041-0.012c0.014-0.005,0.027-0.009,0.042-0.014c0.013-0.004,0.027-0.01,0.041-0.014
			c0.014-0.006,0.027-0.01,0.041-0.014c0.014-0.006,0.027-0.011,0.041-0.016c0.014-0.005,0.027-0.01,0.041-0.016
			c0.014-0.006,0.028-0.012,0.042-0.019c0.014-0.006,0.027-0.012,0.041-0.019c0.014-0.006,0.027-0.014,0.041-0.02
			c0.013-0.006,0.027-0.013,0.041-0.02c0.014-0.008,0.028-0.014,0.041-0.021c0.014-0.008,0.028-0.015,0.041-0.023
			c0.014-0.006,0.027-0.014,0.042-0.021c0.013-0.008,0.027-0.016,0.041-0.023c0.014-0.008,0.027-0.019,0.041-0.025
			c0.014-0.01,0.027-0.02,0.041-0.027c0.014-0.01,0.027-0.02,0.041-0.029c0.014-0.01,0.027-0.021,0.041-0.03
			c0.014-0.011,0.027-0.021,0.041-0.032c0.014-0.011,0.027-0.021,0.041-0.033c0.015-0.014,0.028-0.025,0.042-0.037
			c0.014-0.014,0.027-0.025,0.041-0.039c0.014-0.015,0.027-0.027,0.041-0.043c0.014-0.015,0.028-0.029,0.042-0.043
			c0.014-0.017,0.027-0.031,0.041-0.047c0.014-0.019,0.028-0.033,0.042-0.053c0.014-0.02,0.027-0.036,0.041-0.057
			c0.014-0.018,0.028-0.037,0.041-0.059c0.014-0.021,0.028-0.043,0.041-0.064c0.014-0.022,0.028-0.047,0.041-0.07
			c0.014-0.025,0.028-0.055,0.041-0.08c0.014-0.027,0.028-0.061,0.041-0.09c0.015-0.052,0.028-0.085,0.041-0.122
			c0.015-0.041,0.029-0.082,0.041-0.125c0.016-0.055,0.03-0.107,0.041-0.164c0.019-0.09,0.033-0.184,0.042-0.276
			c0.006-0.074,0.009-0.15,0.009-0.229v-4.925h0.031h0.041h0.041h0.024h0.042h0.041h0.041h0.041h0.041h0.042h0.041h0.041h0.041
			h0.041h0.041h0.041h0.041h0.041h0.041h0.042h0.041h0.041h0.041h0.041h0.041h0.042h0.041H18.1h0.041h0.042h0.041h0.041h0.041h0.041
			h0.042h0.041h0.042h0.041h0.041h0.041h0.041h0.041h0.042h0.041H18.8h0.041h0.041h0.041h0.041h0.042h0.041h0.041h0.041h0.042h0.041
			h0.041h0.041h0.041h0.041h0.042h0.041h0.041h0.041h0.041h0.042h0.041h0.041h0.041h0.041h0.041h0.042h0.041h0.041h0.041h0.041
			h0.041h0.041h0.041h0.041h0.041h0.041h0.042h0.041h0.042h0.041h0.041h0.041h0.041h0.041h0.02v4.926
			c0,0.144-0.006,0.284-0.02,0.423c-0.01,0.099-0.024,0.197-0.041,0.292c-0.012,0.063-0.025,0.129-0.041,0.191
			c-0.012,0.053-0.026,0.104-0.041,0.152c-0.013,0.043-0.026,0.085-0.041,0.127c-0.013,0.037-0.026,0.072-0.041,0.109
			c-0.013,0.033-0.027,0.065-0.042,0.099c-0.013,0.03-0.027,0.062-0.041,0.09c-0.013,0.026-0.027,0.056-0.042,0.082
			c-0.013,0.024-0.027,0.052-0.041,0.075s-0.027,0.047-0.041,0.068c-0.014,0.022-0.027,0.045-0.041,0.066
			c-0.013,0.02-0.027,0.041-0.041,0.061c-0.014,0.021-0.027,0.041-0.041,0.061c-0.014,0.02-0.027,0.037-0.041,0.057
			c-0.014,0.018-0.027,0.033-0.041,0.051c-0.013,0.017-0.027,0.033-0.041,0.049c-0.013,0.017-0.027,0.033-0.041,0.049
			c-0.013,0.016-0.027,0.031-0.041,0.045c-0.014,0.016-0.027,0.029-0.042,0.043c-0.013,0.014-0.027,0.027-0.041,0.041
			c-0.013,0.014-0.026,0.027-0.041,0.041c-0.013,0.014-0.027,0.025-0.041,0.038c-0.014,0.013-0.027,0.024-0.041,0.038
			c-0.014,0.012-0.027,0.023-0.041,0.035c-0.014,0.011-0.027,0.021-0.042,0.033c-0.013,0.012-0.026,0.021-0.041,0.032
			c-0.013,0.013-0.027,0.021-0.041,0.031c-0.013,0.013-0.027,0.021-0.041,0.03c-0.014,0.011-0.027,0.021-0.041,0.029
			c-0.014,0.01-0.027,0.021-0.042,0.028c-0.013,0.011-0.027,0.019-0.041,0.026c-0.014,0.01-0.027,0.02-0.041,0.027
			c-0.013,0.01-0.027,0.019-0.041,0.025c-0.014,0.008-0.027,0.018-0.041,0.023c-0.014,0.01-0.027,0.019-0.041,0.024
			c-0.014,0.009-0.027,0.017-0.042,0.024c-0.013,0.008-0.027,0.016-0.041,0.023c-0.013,0.006-0.027,0.014-0.041,0.02
			c-0.014,0.008-0.027,0.016-0.041,0.021c-0.014,0.008-0.027,0.014-0.042,0.021c-0.013,0.007-0.027,0.014-0.041,0.021
			c-0.013,0.006-0.027,0.012-0.041,0.018c-0.013,0.008-0.027,0.015-0.041,0.021L18.8,22.41l-0.042,0.019
			c-0.013,0.007-0.027,0.013-0.041,0.021c-0.014,0.004-0.028,0.011-0.042,0.017l-0.041,0.019l-0.041,0.019
			c-0.014,0.005-0.027,0.01-0.041,0.017c-0.014,0.006-0.027,0.012-0.041,0.016c-0.013,0.006-0.028,0.011-0.041,0.016l-0.042,0.016
			c-0.014,0.004-0.027,0.01-0.041,0.014c-0.014,0.007-0.027,0.011-0.042,0.016l-0.041,0.013l-0.041,0.014
			c-0.014,0.004-0.028,0.009-0.041,0.013l-0.041,0.012l-0.042,0.012c-0.013,0.004-0.027,0.01-0.041,0.014l-0.041,0.014
			c-0.013,0.004-0.027,0.006-0.041,0.01c-0.014,0.004-0.028,0.008-0.042,0.012l-0.041,0.011c-0.014,0.004-0.027,0.009-0.041,0.011
			c-0.013,0.004-0.027,0.008-0.041,0.012l-0.041,0.011c-0.014,0.003-0.027,0.007-0.041,0.01s-0.027,0.007-0.042,0.011l-0.041,0.008
			c-0.014,0.004-0.027,0.006-0.041,0.01l-0.041,0.005l-0.041,0.008c-0.014,0.004-0.027,0.006-0.041,0.01l-0.041,0.008l-0.041,0.009
			l-0.041,0.008c-0.015,0.002-0.027,0.005-0.041,0.007c-0.014,0.002-0.028,0.004-0.042,0.008l-0.041,0.006
			c-0.013,0.004-0.027,0.006-0.041,0.008l-0.041,0.006l-0.041,0.007l-0.042-0.021c-0.013,0.002-0.026,0.004-0.041,0.006
			l-0.041,0.007l-0.041,0.002l-0.041,0.006l-0.042,0.005l-0.041,0.005l-0.041,0.006l-0.041,0.004l-0.041,0.004l-0.041,0.006
			l-0.041,0.004l-0.041,0.004l-0.041,0.004l-0.041,0.002l-0.042,0.004l-0.041,0.004l-0.042,0.002l-0.041,0.002l-0.041,0.002
			l-0.042,0.004l-0.041,0.002l-0.036,0.006l-0.041,0.002l-0.041,0.002l-0.041,0.002h-0.041l-0.041,0.002l-0.042,0.002l-0.041,0.002
			l-0.041,0.002h-0.041l-0.041,0.002h-0.041l-0.042,0.002h-0.041l-0.041,0.002h-0.041h-0.041h-0.042h-0.041h-0.038h-0.041h-0.025
			h-0.016h-0.041h-0.042h-0.041h-0.041H15.15h-0.041h-0.041l-0.041-0.002h-0.041h-0.041h-0.042l-0.041-0.002H14.82l-0.041-0.002
			h-0.041l-0.041-0.002h-0.041l-0.041-0.002l-0.041-0.002l-0.041-0.002l-0.042-0.002l-0.036-0.005l-0.041-0.002l-0.042-0.002
			l-0.041-0.002l-0.042-0.002l-0.041-0.004l-0.041-0.002l-0.041-0.002l-0.042-0.004l-0.041-0.002l-0.041-0.003l-0.041-0.002
			l-0.041-0.004l-0.041-0.002l-0.042-0.004l-0.041-0.002l-0.041-0.004l-0.041-0.004l-0.036-0.006l-0.042-0.004l-0.041-0.004
			l-0.041-0.004l-0.041-0.004l-0.042-0.004l-0.041-0.006l-0.041-0.004l-0.041-0.004l-0.041-0.004l-0.041-0.004l-0.042-0.006
			l-0.041-0.004l-0.041-0.005l-0.041-0.004l-0.041-0.006l-0.042-0.005l-0.041-0.006l-0.041-0.004l-0.041-0.006l-0.041-0.006
			l-0.041-0.006l-0.042-0.004l-0.041-0.006l-0.041-0.008l-0.041-0.004l-0.042-0.006l-0.041-0.007l-0.041-0.006l-0.041-0.006
			l-0.041-0.007l-0.042-0.006l-0.041-0.006l-0.042-0.006l-0.041-0.008l-0.041-0.006L12.24,22.71l-0.041-0.006l-0.041-0.007
			l-0.042-0.008l-0.041-0.007l-0.042-0.008l-0.041-0.009l-0.041-0.006l-0.041-0.007l-0.041-0.008l-0.042-0.008l-0.041-0.008
			l-0.041-0.008l-0.041-0.01l-0.042-0.008l-0.041-0.01l-0.041-0.009l-0.041-0.008l-0.041-0.007l-0.041-0.01l-0.042-0.01
			l-0.041-0.008l-0.041-0.01l-0.041-0.01l-0.041-0.011l-0.042-0.011l-0.041-0.01l-0.041-0.01l-0.041-0.01
			C11.03,22.455,11,22.447,11,22.447v8.945h0.088h0.041h0.041h0.056h0.042h0.041h0.041h0.041h0.041h0.042h0.041h0.041h0.041h0.041
			h0.041h0.042h0.041h0.041h0.041h0.042h0.041h0.041h0.041h0.041h0.042h0.041h0.042h0.041h0.041h0.041h0.041h0.041h0.042h0.041
			h0.042h0.041h0.041h0.041h0.041h0.042h0.041h0.041h0.041h0.042h0.041h0.041h0.041h0.041h0.041h0.042h0.041h0.041h0.041h0.041
			h0.042h0.041h0.041h0.041h0.041h0.041h0.042h0.041h0.041h0.041h0.027h0.041h0.041h0.041h0.041h0.042h0.041h0.041h0.041h0.041
			h0.041h0.042h0.041h0.041h0.041h0.042h0.041h0.042h0.041h0.041h0.042h0.041h0.041h0.041h0.041h0.041h0.041h0.041h0.042h0.041
			h0.042h0.041h0.041h0.041h0.041h0.041h0.041h0.041h0.041h0.042h0.041h0.041h0.041h0.041h0.041h0.042h0.041h0.041h0.041h0.041
			h0.042h0.041h0.041h0.041h0.041h0.041h0.042h0.041h0.041h0.041h0.041h0.041h0.041h0.041h0.042h0.041h0.041h0.042h0.041h0.042
			h0.041h0.041h0.041h0.041h0.041h0.041h0.041h0.041h0.041h0.042h0.041h0.041h0.041h0.023h0.042h0.041h0.041h0.003
			c0.013,0,0.025,0,0.038,0h0.041c0.014,0,0.028,0,0.042-0.002c0.014,0,0.027,0,0.041,0c0.013,0,0.027-0.002,0.041-0.002
			l0.041-0.002l0.041-0.002c0.014-0.002,0.027-0.002,0.041-0.002c0.014-0.002,0.027-0.002,0.041-0.004l0.041-0.004
			c0.014-0.001,0.027-0.002,0.041-0.004c0.014-0.002,0.027-0.004,0.041-0.006c0.014-0.002,0.027-0.002,0.042-0.004
			c0.014-0.002,0.027-0.004,0.041-0.006l0.041-0.004c0.013-0.002,0.027-0.004,0.041-0.008c0.014-0.002,0.027-0.004,0.041-0.006
			c0.014-0.003,0.027-0.005,0.041-0.008l0.042-0.007c0.013-0.002,0.027-0.007,0.041-0.009c0.014-0.004,0.027-0.006,0.041-0.008
			c0.014-0.002,0.027-0.006,0.041-0.01l0.042-0.009l0.041-0.011c0.014-0.002,0.027-0.006,0.041-0.01
			c0.013-0.002,0.027-0.006,0.041-0.01c0.014-0.004,0.027-0.008,0.041-0.012c0.014-0.005,0.027-0.007,0.042-0.011l0.041-0.013
			l0.042-0.012c0.013-0.004,0.027-0.008,0.041-0.014c0.014-0.004,0.027-0.008,0.041-0.012c0.014-0.006,0.027-0.01,0.041-0.014
			l0.041-0.017l0.041-0.015c0.014-0.004,0.028-0.01,0.042-0.015c0.014-0.005,0.027-0.011,0.041-0.017
			c0.014-0.004,0.027-0.008,0.042-0.014c0.014-0.006,0.027-0.013,0.041-0.019c0.013-0.005,0.027-0.013,0.041-0.019l0.041-0.018
			l0.041-0.018c0.014-0.006,0.027-0.012,0.042-0.02c0.013-0.006,0.027-0.013,0.041-0.019c0.014-0.009,0.027-0.015,0.041-0.021
			c0.014-0.007,0.027-0.014,0.041-0.021c0.015-0.007,0.028-0.013,0.042-0.021s0.027-0.016,0.041-0.021l0.041-0.021
			c0.013-0.008,0.027-0.016,0.041-0.023c0.014-0.008,0.027-0.016,0.041-0.02c0.014-0.01,0.028-0.018,0.041-0.023
			c0.014-0.008,0.027-0.016,0.042-0.024c0.013-0.008,0.027-0.017,0.041-0.024c0.014-0.008,0.028-0.018,0.041-0.025
			c0.014-0.01,0.027-0.018,0.041-0.023c0.014-0.011,0.027-0.02,0.041-0.027c0.014-0.008,0.028-0.018,0.042-0.026
			c0.013-0.009,0.027-0.019,0.041-0.028c0.014-0.01,0.027-0.019,0.041-0.027c0.013-0.01,0.027-0.02,0.041-0.029
			c0.014-0.012,0.028-0.021,0.041-0.029c0.014-0.011,0.027-0.021,0.041-0.031c0.014-0.012,0.027-0.021,0.042-0.031
			c0.013-0.01,0.027-0.021,0.041-0.032c0.014-0.011,0.027-0.022,0.041-0.034c0.014-0.011,0.027-0.021,0.041-0.033
			c0.014-0.013,0.027-0.022,0.041-0.035c0.014-0.012,0.027-0.023,0.041-0.037c0.014-0.012,0.027-0.022,0.041-0.036
			c0.014-0.013,0.027-0.024,0.041-0.039c0.014-0.013,0.027-0.024,0.041-0.038c0.014-0.016,0.027-0.025,0.041-0.04
			c0.014-0.015,0.027-0.028,0.041-0.041c0.014-0.017,0.028-0.026,0.042-0.042c0.014-0.016,0.027-0.029,0.041-0.043
			c0.014-0.016,0.027-0.029,0.042-0.044c0.014-0.017,0.027-0.031,0.041-0.047c0.014-0.017,0.027-0.031,0.041-0.048
			c0.014-0.016,0.028-0.032,0.041-0.049c0.014-0.018,0.027-0.033,0.041-0.051c0.014-0.018,0.027-0.033,0.041-0.052
			c0.014-0.019,0.027-0.036,0.041-0.054c0.014-0.018,0.027-0.037,0.041-0.055c0.014-0.021,0.027-0.039,0.041-0.059
			c0.014-0.021,0.028-0.04,0.041-0.061c0.014-0.021,0.028-0.041,0.041-0.062c0.014-0.021,0.028-0.043,0.042-0.063
			c0.014-0.021,0.027-0.045,0.041-0.065c0.014-0.021,0.028-0.045,0.041-0.067c0.014-0.025,0.028-0.05,0.041-0.074
			c0.014-0.024,0.027-0.049,0.041-0.076c0.014-0.025,0.028-0.053,0.041-0.08c0.014-0.027,0.027-0.055,0.041-0.084
			c0.014-0.028,0.028-0.059,0.041-0.088c0.014-0.032,0.028-0.064,0.041-0.096c0.015-0.035,0.028-0.068,0.042-0.104
			c0.014-0.037,0.027-0.074,0.041-0.11c0.014-0.041,0.028-0.082,0.041-0.123c0.014-0.045,0.028-0.092,0.041-0.138
			c0.015-0.054,0.029-0.104,0.041-0.157c0.015-0.062,0.029-0.128,0.041-0.191c0.016-0.084,0.03-0.17,0.042-0.255
			c0.022-0.18,0.035-0.36,0.035-0.544V5.932H21.47H21.408z"/>
		<path fill="#5CBC67" d="M44.911,5.932H44.87h-0.041h-0.041h-0.041h-0.041h-0.041h-0.041h-0.042h-0.041h-0.041h-0.043h-0.039
			h-0.041h-0.041h-0.041h-0.041h-0.041h-0.041h-0.043H44.09h-0.041H44.01h-0.043h-0.041h-0.041h-0.041h-0.041h-0.04h-0.041h-0.041
			h-0.041H43.6h-0.041h-0.041h-0.041h-0.041h-0.041h-0.043h-0.041H43.27h-0.039h-0.041H43.15h-0.041h-0.041h-0.041h-0.041h-0.041
			h-0.043h-0.04h-0.043h-0.041h-0.041h-0.041h-0.041h-0.041h-0.041h-0.041H42.49h-0.037h-0.041h-0.041H42.33h-0.041h-0.041h-0.041
			h-0.041h-0.041h-0.041h-0.041h-0.041H41.96h-0.042h-0.041h-0.041h-0.041h-0.041h-0.041h-0.039h-0.043h-0.041H41.55h-0.041h-0.041
			h-0.043h-0.041h-0.041h-0.041h-0.037h-0.043h-0.041h-0.041H41.1h-0.04h-0.041h-0.041h-0.041h-0.041h-0.041h-0.041h-0.041h-0.041
			h-0.041h-0.043h-0.041h-0.041h-0.041h-0.039h-0.041h-0.041h-0.041h-0.041h-0.041h-0.041h-0.041h-0.043h-0.04h-0.041h-0.041h-0.041
			h-0.041h-0.043H39.87h-0.041h-0.041h-0.041h-0.039h-0.043h-0.039h-0.041h-0.043h-0.041h-0.041H39.42h-0.041H39.34h-0.041h-0.041
			h-0.041h-0.041h-0.041h-0.042h-0.041h-0.041h-0.041H38.93h-0.043h-0.041h-0.041h-0.041h-0.03h-0.011c-0.014,0-0.026,0-0.041,0
			c-0.016,0-0.026,0-0.041,0c-0.014,0-0.026,0.001-0.041,0.002L38.56,5.935c-0.014,0-0.026,0-0.041,0.001
			c-0.016,0-0.028,0.002-0.043,0.002c-0.012,0.001-0.026,0.002-0.041,0.003l-0.041,0.002l-0.041,0.004
			c-0.014,0.001-0.026,0.002-0.041,0.004c-0.014,0.001-0.028,0.003-0.043,0.004l-0.041,0.004c-0.012,0.001-0.026,0.003-0.041,0.005
			c-0.014,0.002-0.026,0.003-0.041,0.005c-0.014,0.002-0.026,0.004-0.041,0.006c-0.014,0.001-0.026,0.004-0.043,0.006l-0.041,0.007
			c-0.014,0.002-0.026,0.004-0.041,0.006C37.967,5.997,37.955,6,37.941,6.002C37.926,6.004,37.914,6.007,37.9,6.01l-0.041,0.008
			l-0.041,0.009c-0.015,0.003-0.027,0.007-0.041,0.009c-0.015,0.003-0.027,0.006-0.041,0.01c-0.015,0.004-0.029,0.007-0.041,0.01
			l-0.041,0.011c-0.015,0.003-0.029,0.007-0.043,0.011c-0.015,0.004-0.027,0.007-0.041,0.012c-0.013,0.004-0.027,0.008-0.041,0.012
			c-0.015,0.004-0.027,0.008-0.041,0.012c-0.015,0.004-0.027,0.008-0.041,0.013L37.405,6.14c-0.013,0.005-0.027,0.009-0.041,0.014
			c-0.015,0.005-0.027,0.009-0.041,0.015c-0.015,0.004-0.027,0.01-0.041,0.014c-0.015,0.005-0.026,0.01-0.041,0.015l-0.041,0.016
			L37.158,6.23c-0.013,0.005-0.026,0.011-0.041,0.017c-0.015,0.005-0.026,0.011-0.041,0.017c-0.015,0.006-0.026,0.012-0.041,0.018
			c-0.015,0.006-0.026,0.012-0.041,0.018c-0.015,0.006-0.026,0.013-0.041,0.019c-0.015,0.006-0.026,0.013-0.041,0.02l-0.041,0.02
			c-0.015,0.007-0.026,0.014-0.041,0.021c-0.015,0.007-0.026,0.014-0.041,0.021c-0.015,0.007-0.026,0.014-0.043,0.021
			c-0.013,0.007-0.026,0.015-0.041,0.022c-0.015,0.007-0.026,0.015-0.041,0.022c-0.015,0.007-0.026,0.016-0.041,0.023
			c-0.015,0.008-0.026,0.016-0.041,0.024c-0.015,0.008-0.026,0.016-0.041,0.024c-0.015,0.008-0.026,0.017-0.041,0.025L36.46,6.587
			c-0.014,0.009-0.028,0.018-0.043,0.027L36.375,6.64l-0.041,0.028c-0.014,0.009-0.027,0.019-0.041,0.029l-0.041,0.029
			c-0.014,0.01-0.027,0.02-0.041,0.03c-0.014,0.01-0.027,0.02-0.041,0.03L36.13,6.817l-0.041,0.032
			c-0.014,0.011-0.027,0.022-0.041,0.033c-0.014,0.011-0.028,0.021-0.041,0.034c-0.013,0.013-0.027,0.023-0.041,0.035
			c-0.014,0.012-0.027,0.024-0.043,0.036c-0.014,0.012-0.025,0.024-0.041,0.036c-0.014,0.013-0.027,0.025-0.039,0.038
			c-0.016,0.013-0.029,0.025-0.043,0.038c-0.014,0.013-0.027,0.026-0.041,0.04c-0.014,0.013-0.027,0.027-0.041,0.041
			c-0.016,0.014-0.027,0.028-0.041,0.042c-0.016,0.015-0.027,0.029-0.041,0.043c-0.014,0.015-0.027,0.029-0.041,0.044
			c-0.016,0.015-0.029,0.031-0.041,0.046c-0.016,0.015-0.029,0.03-0.043,0.046c-0.014,0.016-0.027,0.032-0.041,0.049
			c-0.014,0.017-0.027,0.033-0.041,0.049c-0.014,0.017-0.027,0.034-0.041,0.051c-0.014,0.018-0.027,0.036-0.041,0.054
			c-0.014,0.018-0.027,0.036-0.041,0.054c-0.014,0.02-0.027,0.038-0.041,0.057c-0.014,0.019-0.026,0.039-0.041,0.059
			c-0.014,0.02-0.026,0.041-0.041,0.061c-0.016,0.021-0.028,0.042-0.041,0.063c-0.016,0.022-0.028,0.044-0.041,0.066
			c-0.016,0.023-0.028,0.046-0.043,0.068c-0.014,0.024-0.026,0.048-0.041,0.072c-0.014,0.024-0.027,0.049-0.042,0.075
			c-0.014,0.026-0.026,0.052-0.041,0.079C34.92,8.283,34.91,8.31,34.895,8.338c-0.016,0.029-0.028,0.058-0.041,0.088
			c-0.016,0.031-0.026,0.063-0.041,0.094c-0.016,0.033-0.028,0.067-0.041,0.101c-0.016,0.036-0.028,0.073-0.041,0.109
			c-0.016,0.04-0.028,0.08-0.041,0.12c-0.016,0.043-0.028,0.088-0.043,0.132c-0.014,0.049-0.026,0.1-0.041,0.15
			c-0.016,0.059-0.028,0.119-0.041,0.179c-0.059,0.279-0.088,0.569-0.088,0.865v4.407h0.088h0.041h0.041h0.043h0.041h0.041h0.041
			h0.041h0.041h0.041h0.041h0.041h0.041h0.043h0.041h0.041h0.041h0.041h0.041h0.041h0.041h0.041h0.041h0.041h0.043h0.041h0.041
			h0.041h0.041h0.041h0.041h0.043h0.039h0.041h0.043h0.041h0.041h0.041h0.041h0.041h0.041h0.041h0.041h0.041h0.041h0.041h0.043
			h0.041h0.041h0.041h0.041h0.041h0.041h0.041h0.043h0.041h0.041h0.041h0.041h0.041h0.041h0.041h0.041h0.041h0.043h0.041h0.041
			h0.041h0.051h0.041h0.041h0.041h0.043h0.041h0.041h0.041h0.041h0.041h0.041h0.041h0.043h0.041h0.041h0.041h0.041h0.041h0.041
			h0.041h0.043h0.041h0.041h0.041h0.041h0.041h0.044h0.041h0.041h0.041h0.041h0.041h0.041h0.043h0.041h0.041h0.041h0.041h0.041
			h0.041h0.041h0.041h0.041h0.041h0.041h0.041h0.041h0.041h0.041h0.041h0.041h0.041h0.041h0.041h0.041h0.041h0.041h0.043h0.041
			h0.041h0.041h0.041h0.041h0.043h0.041h0.041h0.041h0.041h0.041h0.041h0.041h0.041h0.041h0.041h0.043h0.041h0.041h0.02h0.022h0.041
			l0.04,0.001l0.041,0.001l0.042,0.001l0.04,0.002l0.041,0.002l0.041,0.002l0.043,0.002l0.041,0.002l0.025,0.002l0.016,0.001
			l0.041,0.002l0.041,0.003l0.041,0.003l0.041,0.003l0.041,0.005l0.041,0.004l0.041,0.005l0.043,0.005l0.041,0.005l0.041,0.005
			c0.013,0.002,0.026,0.004,0.041,0.007l0.041,0.007c0.015,0.002,0.026,0.005,0.041,0.008c0.015,0.002,0.026,0.006,0.041,0.008
			l0.041,0.008c0.015,0.003,0.028,0.007,0.043,0.009c0.015,0.003,0.026,0.007,0.041,0.01l0.041,0.011
			c0.015,0.003,0.026,0.007,0.041,0.01c0.015,0.004,0.026,0.008,0.041,0.012c0.015,0.004,0.028,0.008,0.041,0.013
			c0.015,0.004,0.026,0.008,0.041,0.012c0.015,0.005,0.026,0.009,0.041,0.014c0.015,0.004,0.026,0.009,0.043,0.014
			c0.013,0.004,0.026,0.01,0.041,0.015c0.015,0.005,0.026,0.01,0.041,0.015c0.014,0.006,0.026,0.011,0.041,0.017
			c0.015,0.006,0.028,0.011,0.041,0.018c0.014,0.006,0.026,0.011,0.043,0.017c0.014,0.007,0.026,0.013,0.041,0.019
			c0.014,0.006,0.026,0.014,0.041,0.02c0.012,0.006,0.026,0.013,0.041,0.021c0.014,0.007,0.026,0.014,0.041,0.021
			c0.014,0.007,0.026,0.015,0.041,0.022c0.014,0.008,0.026,0.016,0.041,0.024c0.014,0.008,0.028,0.017,0.041,0.025
			c0.014,0.009,0.026,0.017,0.041,0.026c0.014,0.009,0.028,0.018,0.041,0.027c0.014,0.009,0.026,0.019,0.043,0.029
			c0.012,0.01,0.026,0.02,0.041,0.03c0.014,0.011,0.026,0.021,0.041,0.033c0.014,0.01,0.026,0.022,0.04,0.034
			c0.015,0.011,0.027,0.023,0.041,0.036c0.015,0.012,0.027,0.025,0.041,0.038c0.015,0.013,0.027,0.026,0.041,0.04
			c0.015,0.015,0.027,0.029,0.041,0.043c0.015,0.016,0.029,0.03,0.043,0.046c0.015,0.016,0.027,0.033,0.041,0.049
			c0.015,0.018,0.027,0.035,0.041,0.053c0.015,0.02,0.029,0.038,0.041,0.058c0.015,0.021,0.027,0.042,0.041,0.063
			c0.015,0.023,0.029,0.046,0.041,0.07c0.015,0.026,0.029,0.053,0.041,0.08c0.017,0.03,0.029,0.061,0.041,0.093
			c0.017,0.037,0.029,0.074,0.043,0.112c0.015,0.047,0.029,0.096,0.041,0.146c0.019,0.08,0.033,0.163,0.041,0.248
			c0.006,0.066,0.011,0.135,0.011,0.206c0,0.066-0.005,0.132-0.011,0.198c-0.008,0.083-0.021,0.164-0.041,0.243
			c-0.012,0.049-0.024,0.098-0.041,0.146c-0.014,0.038-0.026,0.075-0.043,0.112c-0.012,0.031-0.024,0.063-0.041,0.094
			c-0.012,0.028-0.026,0.055-0.041,0.082c-0.012,0.024-0.026,0.048-0.041,0.072c-0.014,0.022-0.026,0.043-0.041,0.065
			c-0.012,0.021-0.026,0.041-0.041,0.06c-0.014,0.019-0.026,0.037-0.041,0.055c-0.014,0.017-0.026,0.034-0.041,0.051
			c-0.014,0.016-0.026,0.032-0.043,0.047c-0.012,0.015-0.026,0.03-0.041,0.045c-0.014,0.014-0.026,0.028-0.041,0.042
			c-0.014,0.013-0.026,0.026-0.041,0.04c-0.014,0.013-0.026,0.025-0.041,0.037c-0.014,0.012-0.026,0.024-0.04,0.037
			c-0.015,0.01-0.027,0.021-0.041,0.032c-0.015,0.011-0.027,0.021-0.041,0.032c-0.015,0.01-0.027,0.02-0.043,0.029
			c-0.013,0.011-0.027,0.02-0.041,0.029c-0.015,0.008-0.027,0.018-0.041,0.026c-0.013,0.009-0.027,0.017-0.041,0.026
			c-0.015,0.008-0.027,0.016-0.041,0.023c-0.015,0.008-0.027,0.016-0.041,0.023c-0.015,0.008-0.027,0.015-0.041,0.021
			c-0.015,0.007-0.027,0.015-0.041,0.021c-0.015,0.008-0.027,0.015-0.041,0.021c-0.015,0.008-0.027,0.014-0.041,0.021
			c-0.015,0.006-0.026,0.012-0.043,0.018c-0.013,0.006-0.026,0.012-0.041,0.018c-0.015,0.006-0.026,0.012-0.041,0.018
			c-0.015,0.005-0.026,0.012-0.041,0.016c-0.015,0.006-0.026,0.01-0.041,0.016c-0.015,0.005-0.028,0.009-0.043,0.014
			c-0.015,0.004-0.026,0.01-0.041,0.014c-0.015,0.004-0.026,0.008-0.041,0.014c-0.013,0.004-0.026,0.008-0.041,0.012
			c-0.015,0.004-0.026,0.008-0.041,0.012c-0.015,0.004-0.026,0.008-0.041,0.012c-0.015,0.002-0.026,0.006-0.041,0.01
			c-0.015,0.003-0.026,0.006-0.041,0.009l-0.043,0.009c-0.013,0.004-0.026,0.006-0.041,0.01l-0.041,0.008
			c-0.015,0.002-0.026,0.004-0.041,0.007l-0.041,0.007l-0.038,0.006v0.049l0.039,0.004l0.041,0.002l0.041,0.004l0.041,0.004
			l0.041,0.004l0.043,0.006l0.041,0.005c0.016,0.002,0.027,0.004,0.041,0.006l0.041,0.007c0.016,0.002,0.027,0.004,0.041,0.008
			l0.041,0.006l0.041,0.009c0.016,0.003,0.027,0.005,0.041,0.008c0.016,0.003,0.027,0.005,0.043,0.009
			c0.013,0.004,0.025,0.006,0.041,0.01c0.014,0.002,0.027,0.006,0.041,0.01c0.014,0.002,0.027,0.006,0.041,0.01
			c0.015,0.004,0.027,0.008,0.041,0.011c0.014,0.005,0.027,0.007,0.043,0.013l0.041,0.012c0.012,0.004,0.025,0.008,0.041,0.013
			c0.012,0.004,0.025,0.009,0.041,0.013c0.014,0.006,0.027,0.01,0.041,0.014c0.014,0.005,0.027,0.011,0.041,0.015
			c0.014,0.005,0.027,0.011,0.041,0.015c0.014,0.006,0.027,0.01,0.041,0.017c0.014,0.006,0.027,0.011,0.041,0.017
			c0.014,0.006,0.027,0.012,0.041,0.018s0.027,0.012,0.043,0.018c0.012,0.006,0.025,0.012,0.041,0.02
			c0.014,0.006,0.025,0.013,0.041,0.02c0.014,0.007,0.027,0.014,0.041,0.021c0.014,0.006,0.025,0.014,0.041,0.021
			c0.014,0.007,0.027,0.015,0.039,0.022c0.016,0.008,0.027,0.015,0.043,0.022c0.014,0.009,0.027,0.017,0.041,0.024
			c0.014,0.007,0.027,0.017,0.041,0.025c0.016,0.008,0.027,0.018,0.041,0.025c0.016,0.009,0.029,0.02,0.043,0.027
			c0.014,0.01,0.027,0.02,0.041,0.029c0.014,0.009,0.027,0.02,0.041,0.03c0.014,0.01,0.027,0.021,0.041,0.03
			c0.014,0.013,0.027,0.021,0.041,0.035c0.014,0.01,0.027,0.021,0.041,0.035c0.014,0.012,0.027,0.023,0.041,0.035
			c0.014,0.014,0.027,0.027,0.041,0.039c0.016,0.016,0.029,0.027,0.043,0.041c0.014,0.016,0.027,0.029,0.041,0.045
			c0.016,0.016,0.027,0.031,0.041,0.047c0.014,0.016,0.027,0.033,0.041,0.049c0.016,0.019,0.027,0.037,0.041,0.056
			c0.016,0.019,0.028,0.036,0.041,0.057c0.016,0.021,0.028,0.044,0.041,0.063c0.016,0.021,0.028,0.046,0.041,0.068
			c0.016,0.025,0.028,0.053,0.043,0.078c0.014,0.031,0.026,0.061,0.041,0.092c0.016,0.033,0.028,0.068,0.041,0.105
			c0.016,0.043,0.028,0.088,0.041,0.135c0.018,0.066,0.03,0.137,0.041,0.207c0.012,0.086,0.018,0.176,0.018,0.265
			c0,0.095-0.006,0.187-0.018,0.272c-0.011,0.074-0.023,0.146-0.041,0.215c-0.013,0.047-0.025,0.094-0.041,0.141
			c-0.013,0.037-0.025,0.074-0.041,0.109c-0.015,0.031-0.025,0.062-0.041,0.094c-0.014,0.027-0.027,0.054-0.043,0.08
			c-0.013,0.025-0.025,0.049-0.041,0.072c-0.013,0.021-0.025,0.045-0.041,0.066c-0.013,0.02-0.025,0.039-0.041,0.059
			c-0.014,0.02-0.025,0.037-0.041,0.057c-0.014,0.019-0.025,0.035-0.041,0.054c-0.014,0.016-0.027,0.03-0.041,0.047
			c-0.014,0.017-0.027,0.03-0.041,0.045c-0.014,0.017-0.027,0.028-0.043,0.043c-0.014,0.015-0.025,0.026-0.041,0.041
			c-0.014,0.013-0.025,0.024-0.041,0.037c-0.014,0.012-0.027,0.024-0.041,0.037c-0.014,0.012-0.027,0.022-0.041,0.032
			c-0.014,0.013-0.027,0.021-0.041,0.033c-0.014,0.012-0.027,0.021-0.041,0.031c-0.014,0.012-0.027,0.021-0.041,0.031
			c-0.014,0.01-0.027,0.02-0.043,0.027c-0.012,0.01-0.025,0.02-0.041,0.026c-0.014,0.009-0.025,0.019-0.041,0.024
			c-0.014,0.009-0.027,0.019-0.041,0.025c-0.014,0.008-0.027,0.016-0.043,0.023c-0.012,0.008-0.025,0.016-0.039,0.021
			c-0.016,0.008-0.027,0.016-0.041,0.022c-0.014,0.006-0.027,0.015-0.041,0.021c-0.016,0.008-0.027,0.016-0.041,0.021
			c-0.016,0.006-0.027,0.014-0.041,0.02c-0.016,0.006-0.027,0.012-0.043,0.019c-0.014,0.006-0.027,0.012-0.041,0.019
			c-0.014,0.006-0.027,0.012-0.041,0.018c-0.014,0.006-0.027,0.012-0.041,0.018s-0.027,0.01-0.041,0.016
			c-0.014,0.004-0.027,0.011-0.041,0.015c-0.014,0.006-0.027,0.01-0.041,0.015c-0.014,0.004-0.027,0.01-0.041,0.014l-0.041,0.006
			c-0.016,0.004-0.027,0.008-0.041,0.012c-0.016,0.004-0.027,0.01-0.043,0.012c-0.014,0.004-0.026,0.008-0.041,0.013
			c-0.014,0.004-0.025,0.006-0.041,0.01c-0.014,0.004-0.027,0.006-0.041,0.011c-0.016,0.004-0.027,0.006-0.041,0.01l-0.043,0.008
			c-0.014,0.002-0.025,0.008-0.041,0.01c-0.014,0.002-0.025,0.004-0.041,0.008l-0.041,0.006L41.734,22.7
			c-0.014,0.002-0.025,0.004-0.041,0.006c-0.014,0.002-0.025,0.004-0.041,0.006c-0.014,0.002-0.027,0.005-0.041,0.007l-0.043,0.004
			c-0.014,0.002-0.025,0.004-0.041,0.004c-0.014,0.002-0.025,0.004-0.041,0.004l-0.041-0.001l-0.041,0.004l-0.041,0.002
			l-0.041,0.002l-0.057,0.006c-0.014,0.002-0.026,0.002-0.043,0.002c-0.014,0-0.026,0-0.041,0.002h-0.041H41.1h-0.02h-0.02h-0.041
			h-0.041h-0.041h-0.041h-0.041h-0.041h-0.041h-0.041h-0.041h-0.043h-0.041h-0.041h-0.041h-0.039h-0.041h-0.041h-0.041h-0.041
			h-0.041h-0.041h-0.041h-0.043h-0.04h-0.041h-0.041h-0.041h-0.041h-0.043H39.87h-0.041h-0.041h-0.041h-0.039h-0.043h-0.039h-0.041
			h-0.043h-0.041h-0.041H39.42h-0.041H39.34h-0.041h-0.041h-0.041h-0.041h-0.041h-0.042h-0.041h-0.041h-0.041H38.93h-0.043h-0.041
			h-0.041h-0.041h-0.041h-0.041h-0.041h-0.041H38.56h-0.041h-0.041h-0.041h-0.043h-0.041h-0.041h-0.041h-0.041H38.19h-0.038h-0.041
			H38.07h-0.041h-0.041h-0.041h-0.041h-0.041h-0.043h-0.041h-0.039h-0.041h-0.041H37.62h-0.041h-0.041h-0.043h-0.042h-0.041h-0.039
			H37.33h-0.041h-0.041h-0.041h-0.041h-0.041h-0.041h-0.041h-0.041h-0.041h-0.041h-0.039h-0.041H36.8h-0.043h-0.041h-0.041h-0.041
			h-0.039h-0.043h-0.041h-0.041h-0.042h-0.041h-0.043h-0.041h-0.041h-0.039h-0.041h-0.041h-0.041h-0.041H36.02h-0.041h-0.041h-0.041
			h-0.041h-0.041h-0.041h-0.041h-0.041h-0.041h-0.041H35.57h-0.043h-0.041h-0.04h-0.039h-0.041h-0.041h-0.041h-0.041h-0.041h-0.041
			h-0.041h-0.043h-0.039h-0.041h-0.041h-0.043h-0.041h-0.041h-0.041H34.75h-0.042h-0.041h-0.039h-0.043h-0.087V31.4h0.088h0.043
			h0.041h0.041h0.041h0.041h0.041h0.041h0.041h0.043H35h0.041h0.041h0.041h0.041h0.041h0.041h0.043h0.041h0.041h0.041h0.041h0.041
			h0.041h0.041h0.041h0.041h0.041h0.041h0.043h0.041h0.041h0.041h0.041h0.043h0.041h0.04h0.041h0.041h0.041h0.041h0.041h0.041h0.041
			h0.041h0.041h0.043h0.041h0.041h0.041h0.041h0.041h0.041h0.041h0.043h0.041h0.041h0.041h0.041h0.041h0.041h0.041h0.041h0.041
			h0.043h0.041h0.041h0.041h0.029h0.041h0.041h0.041h0.043h0.041h0.041h0.041h0.041h0.041h0.041h0.041h0.043h0.041h0.041h0.041
			h0.041h0.041h0.041h0.041h0.043h0.041h0.041h0.041h0.041h0.041h0.044h0.041h0.041h0.041h0.041h0.041h0.041h0.043h0.041h0.041
			h0.041h0.041h0.041h0.041h0.041h0.041h0.041h0.041h0.041h0.041h0.041h0.041h0.041h0.041h0.041h0.041h0.041h0.041h0.041h0.041
			h0.041h0.043h0.041h0.041h0.041h0.041h0.041h0.043h0.041h0.041h0.041h0.041h0.041h0.041h0.041h0.041h0.041h0.041h0.043h0.041
			h0.041h0.042h0.041h0.041h0.04h0.042h0.032h0.008h0.041c0.015,0,0.027,0,0.041,0l0.041-0.002h0.041c0.015,0,0.029,0,0.043-0.002
			c0.013,0,0.027,0,0.041-0.002l0.041-0.002c0.015,0,0.027-0.002,0.041-0.002c0.015-0.002,0.027-0.002,0.041-0.004
			c0.015-0.002,0.029-0.002,0.041-0.006c0.015,0,0.026-0.002,0.041-0.002c0.015-0.002,0.026-0.004,0.041-0.006
			c0.015,0,0.026-0.002,0.043-0.004c0.013-0.002,0.026-0.004,0.041-0.004l0.041-0.008l0.041-0.006l0.041-0.006
			c0.015-0.002,0.026-0.004,0.041-0.007c0.015-0.002,0.026-0.004,0.041-0.008l0.041-0.008l0.043-0.009
			c0.015-0.004,0.026-0.006,0.041-0.01c0.015-0.002,0.026-0.006,0.041-0.01l0.041-0.01l0.041-0.01l0.041-0.012
			c0.015-0.002,0.026-0.006,0.041-0.011c0.015-0.004,0.026-0.008,0.041-0.012c0.015-0.005,0.026-0.007,0.043-0.013l0.041-0.012
			c0.015-0.004,0.026-0.008,0.041-0.012l0.041-0.014c0.015-0.006,0.026-0.01,0.041-0.014c0.014-0.005,0.026-0.011,0.043-0.015
			c0.015-0.006,0.026-0.011,0.041-0.017l0.041-0.014c0.012-0.006,0.026-0.012,0.041-0.018c0.014-0.004,0.026-0.01,0.041-0.016
			c0.014-0.006,0.026-0.012,0.041-0.019c0.014-0.004,0.026-0.011,0.041-0.017c0.014-0.006,0.026-0.012,0.041-0.019
			c0.014-0.007,0.026-0.013,0.041-0.019l0.041-0.02l0.043-0.021c0.012-0.006,0.026-0.012,0.041-0.018
			c0.014-0.008,0.026-0.016,0.041-0.021c0.014-0.008,0.026-0.014,0.041-0.021c0.014-0.007,0.026-0.016,0.04-0.021
			c0.015-0.009,0.027-0.015,0.041-0.021c0.015-0.009,0.027-0.017,0.041-0.021c0.015-0.008,0.027-0.016,0.041-0.023
			c0.015-0.007,0.029-0.016,0.043-0.023l0.041-0.022c0.015-0.008,0.027-0.019,0.041-0.024c0.015-0.008,0.027-0.018,0.041-0.025
			c0.015-0.008,0.027-0.018,0.041-0.025c0.015-0.01,0.027-0.018,0.041-0.027c0.015-0.008,0.027-0.018,0.041-0.026
			c0.015-0.008,0.027-0.019,0.041-0.028c0.015-0.009,0.027-0.019,0.043-0.027c0.013-0.01,0.027-0.021,0.041-0.029
			c0.015-0.01,0.027-0.021,0.041-0.029c0.015-0.012,0.027-0.021,0.041-0.033c0.015-0.01,0.027-0.021,0.041-0.031
			c0.015-0.012,0.029-0.021,0.043-0.032c0.015-0.013,0.026-0.022,0.041-0.033c0.013-0.012,0.026-0.022,0.041-0.034
			c0.015-0.013,0.027-0.023,0.041-0.035c0.015-0.013,0.027-0.023,0.041-0.037c0.015-0.012,0.025-0.023,0.041-0.037
			c0.015-0.014,0.027-0.025,0.041-0.039c0.015-0.014,0.027-0.025,0.041-0.039c0.015-0.014,0.027-0.027,0.041-0.039
			c0.015-0.016,0.027-0.029,0.041-0.043c0.015-0.014,0.027-0.027,0.041-0.041c0.015-0.016,0.027-0.029,0.043-0.043
			c0.013-0.018,0.025-0.031,0.041-0.045c0.015-0.018,0.027-0.031,0.041-0.049c0.015-0.016,0.027-0.031,0.041-0.047
			c0.015-0.017,0.027-0.033,0.041-0.049c0.015-0.019,0.027-0.035,0.041-0.052c0.014-0.019,0.027-0.034,0.041-0.053
			s0.027-0.037,0.041-0.056c0.014-0.02,0.027-0.037,0.043-0.057c0.014-0.02,0.025-0.039,0.041-0.059
			c0.014-0.02,0.025-0.039,0.041-0.061c0.014-0.021,0.025-0.041,0.041-0.062c0.014-0.021,0.027-0.043,0.041-0.064
			c0.014-0.023,0.027-0.045,0.041-0.068c0.014-0.022,0.025-0.047,0.041-0.069c0.014-0.024,0.025-0.05,0.041-0.074
			c0.014-0.024,0.027-0.051,0.041-0.077c0.014-0.027,0.027-0.056,0.041-0.082c0.014-0.029,0.027-0.058,0.041-0.086
			c0.016-0.031,0.027-0.062,0.041-0.093c0.014-0.032,0.027-0.065,0.043-0.101c0.014-0.035,0.025-0.069,0.04-0.104
			c0.015-0.039,0.028-0.077,0.04-0.116c0.016-0.041,0.029-0.086,0.041-0.13c0.016-0.047,0.029-0.096,0.041-0.146
			c0.016-0.057,0.029-0.112,0.041-0.17c0.018-0.069,0.029-0.143,0.043-0.213c0.018-0.106,0.031-0.215,0.041-0.323
			C44.994,27.406,45,27.281,45,27.155V5.927h-0.018H44.91L44.911,5.932L44.911,5.932z"/>
	</g>
</g>
</svg>
