<?xml version="1.0" encoding="UTF-8"?>
<svg width="11px" height="10px" viewBox="0 0 11 10" version="1.1" xmlns="http://www.w3.org/2000/svg" xmlns:xlink="http://www.w3.org/1999/xlink">
    <!-- Generator: Sketch 41.2 (35397) - http://www.bohemiancoding.com/sketch -->
    <title>Icons/Arrow left</title>
    <desc>Created with Sketch.</desc>
    <defs></defs>
    <g id="IC-PDP" stroke="none" stroke-width="1" fill="none" fill-rule="evenodd">
        <g id="IC_PDP_1440" transform="translate(-271.000000, -457.000000)" fill="#000000">
            <g id="Group-3-Copy-5" transform="translate(261.000000, 450.000000)">
                <g id="Icons/Arrow-left-Copy-27" transform="translate(15.000000, 12.000000) rotate(-270.000000) translate(-15.000000, -12.000000) translate(10.000000, 6.500000)">
                    <path d="M9.83251172,4.78074136 C9.83251172,4.32606946 9.53192543,3.92488837 9.05098735,3.92488837 L4.34848175,3.92488837 L6.30563252,1.96578736 C6.46594521,1.80531492 6.55946094,1.58466532 6.55946094,1.35732937 C6.55946094,1.12999341 6.46594521,0.909343812 6.30563252,0.748871375 L5.80465536,0.254081359 C5.64434267,0.0936089218 5.43059241,3.55271368e-15 5.20348277,3.55271368e-15 C4.97637312,3.55271368e-15 4.75594317,0.0936089218 4.59563048,0.254081359 L0.247148732,4.60020987 C0.0935157365,4.76068231 -2.13162821e-14,4.98133191 -2.13162821e-14,5.20866786 C-2.13162821e-14,5.43600382 0.0935157365,5.65665342 0.247148732,5.81043951 L4.59563048,10.1699407 C4.75594317,10.3237268 4.97637312,10.4173357 5.20348277,10.4173357 C5.43059241,10.4173357 5.65102236,10.3237268 5.80465536,10.1699407 L6.30563252,9.661778 C6.46594521,9.50799192 6.55946094,9.28734232 6.55946094,9.06000636 C6.55946094,8.83267041 6.46594521,8.61202081 6.30563252,8.45823472 L4.34848175,6.49244736 L9.05098735,6.49244736 C9.53192543,6.49244736 9.83251172,6.09126627 9.83251172,5.63659436 L9.83251172,4.78074136 Z" id="Icons/Arrow-left"></path>
                </g>
            </g>
        </g>
    </g>
</svg>