<svg width="522" height="152" xmlns="http://www.w3.org/2000/svg"><g fill="#3E3436" fill-rule="evenodd"><path d="M56.515 6.44c.26 1.82.52 3.51.65 5.07.52 4.94 1.17 10.14 1.56 15.08.26 5.33.26 10.53.52 15.86 0 5.2.26 10.27.78 15.47.26 3.12.91 6.37 1.3 9.62.26 4.29.78 8.58 1.17 12.87.39 4.16.65 8.32.91 12.48.26 1.43 1.95 2.6 3.38 2.6 1.04 0 1.43-.52 1.3-1.69 0-1.17.26-2.47.52-3.51.13-.65.78-1.3.65-1.69-.52-1.56.65-1.69 1.43-2.6 1.17-1.43 2.73-2.99 3.12-4.81 1.17-3.9 1.69-8.06 2.21-12.09.78-4.03 1.43-7.93 1.82-11.83.26-3.77-.39-7.54.78-11.31 2.08-6.5 3.38-13.13 5.2-19.76.26-1.04 1.17-1.95 1.95-3.51.65 1.17 1.04 1.56 1.17 2.21.39 1.82.65 3.64.78 5.46.52 3.51.65 7.02 1.17 10.4.52 3.9 1.3 7.8 1.69 11.83.65 5.72.78 11.44 1.17 17.03.26 3.9 3.64 6.5 7.41 5.46.39-1.43.65-3.12.91-4.68.26-1.17.52-2.21.78-3.51.13-.65.26-1.56.39-2.21.13-1.04.26-1.95.39-2.99.13-1.04.26-1.95.65-2.99.39-.91.65-2.08 1.43-2.73 3.64-3.38 3.25-7.93 4.03-11.96.26-1.95.39-3.9 1.17-5.59 1.82-4.68 3.77-9.36 5.59-14.04.91-2.21 1.43-4.55 2.47-7.28.52 5.85.91 11.31 1.3 16.77.65 6.5 1.69 12.74 1.82 19.24.39 6.11.39 12.35 0 18.46-.52 5.98.52 11.57 1.95 17.29 1.43 4.94 4.03 9.49 7.02 13.65 3.51 4.81 8.19 7.93 13.91 9.23 2.99.65 6.11.78 8.97 2.34.52.26 1.17 0 1.82 0-.39-.65-.65-1.3-1.17-1.56-2.08-.91-4.16-1.3-6.11-2.21-2.34-.91-4.68-1.56-6.63-3.51-1.3-1.3-.91-2.6-1.56-3.64-1.43-2.34-1.56-5.07-1.69-7.54-.39-6.11-.39-12.35-.39-18.46-.13-1.04-.13-2.34 0-3.38 1.3-5.46 1.56-11.05 1.43-16.64-.13-4.03.39-8.06.26-11.96 0-4.16-.39-8.32-.65-12.35-.26-2.6-.78-5.2-.52-7.8.26-3.12-.26-6.11-1.56-8.97-2.08-4.16-6.24-5.46-10.53-5.98-1.82-.39-3.77.13-5.59 0-3.25 0-4.16.65-4.81 3.9 0 .13-.13.39-.26.65-1.56 3.64-3.12 7.54-4.81 11.18-1.04 2.08-1.95 4.03-3.25 6.24-1.3-2.34-2.6-4.29-3.77-6.37-1.43-3.12-3.25-5.72-6.37-6.89-2.99-.91-5.98-1.04-8.97.13-2.21.78-3.25 2.21-3.9 4.16-1.56 4.55-2.86 9.23-4.29 13.78-.13.26-.39.52-.65 1.04v-9.36c0-.52-.13-1.3-.39-1.82-.52-1.82-1.56-3.38-2.08-5.2-.78-2.6-1.17-5.2-1.95-7.67-.39-1.43-1.17-2.47-1.82-3.77-.78-1.17-1.69-2.34-2.6-3.64-1.69-1.95-3.12-4.29-5.2-5.72-2.47-1.82-8.71.13-10.27 2.86-1.82 3.38-3.64 6.76-5.46 10.4-.91 1.69-1.3 3.51-2.08 5.2.13.13.39.39.65.52.65-.52 1.69-1.04 2.21-1.56.52-1.17.91-2.47 1.56-3.64 1.3-2.86 2.34-6.24 5.98-8.06z"/><path d="M159.085 77.16c0-1.56 0-2.99.13-4.42 0-.39.13-.78.39-.91.91-.52 1.3-1.17 1.3-2.08.13-.91 0-1.82.26-2.73.65-2.73.52-5.46.26-8.32-.13-1.3 0-2.6-.13-4.03-.13-1.3-.39-2.6-.78-3.77-.52-1.43-1.3-2.73-1.69-4.16-.91-2.6-2.08-4.94-4.81-6.37-1.56-.91-2.99-1.04-4.42-.91-2.6.26-4.16 1.95-5.2 4.16-.13.13-.13.65 0 .78.65.39 1.3 1.04 1.95 1.04.78.13 1.56-.13 2.34-.26.39 1.56.26 3.12 0 4.81-.13 2.08-.39 4.16-.65 6.24-.13.91-.26 1.95-.39 2.86-.13 1.56-.52 2.99-.52 4.42 0 1.95.13 4.03.13 5.98 0 2.47-.26 4.94-.39 7.41 0 .78.26 1.56.26 2.47-.13 1.43.39 2.99.78 4.42 0 .13 0 .26.13.39 1.69 1.56 3.51 2.6 5.85 2.21 2.86-.52 5.07-2.34 6.89-4.42 1.56-1.69 2.99-3.51 4.42-5.33.91-1.3 1.95-2.6 2.86-3.77.78-1.04 1.69-1.95 2.47-2.99.13 0 .13.13.26.13-.13.91-.13 1.69-.26 2.6-.13 1.43-.13 2.73-.26 4.16 0 .91-.13 1.95-.13 2.86-.39 2.86-.65 5.72-1.04 8.45-.13 1.43 0 2.86-1.3 3.77-.39.26-.65.52-.91.78-1.56 1.69-2.99 3.38-4.42 4.94-1.69 1.95-3.38 3.9-5.46 5.46-.26.13-.39.65-.65.78-1.3.52-2.21 1.56-2.86 2.73-.91 1.69-1.43 3.51-1.69 5.46-.39 3.77.65 7.54 4.42 9.88 1.04.65 2.21 1.17 3.51.65.65-.26 1.3-.78 1.95-1.3.91-.91 1.95-1.82 2.86-2.73.13 0 .13 0 .13-.13.52-1.69 1.95-2.73 3.12-3.77.65-.65 1.43-1.69 1.43-2.47-.13-1.56.78-2.73 1.3-4.03.78-1.95 1.82-3.51 3.38-4.94 2.6-2.08 3.64-5.2 4.29-8.45.26-1.43.65-2.99 1.04-4.42.39-1.56.78-3.12 1.3-4.55.26-.65.52-1.43 1.04-1.95.39-.65 1.04-1.17 1.56-1.69 1.56-1.43 3.12-2.73 4.68-4.03 2.21-1.95 4.16-4.16 5.85-6.5.39-.65.91-1.3 1.04-2.21.13-.78-.52-.91-.78-1.43-.26.13-.52.39-.78.65l-.78.78c-1.43 1.43-2.86 2.73-4.29 4.03-2.08 1.82-4.16 3.64-6.37 5.46-.13-.13-.26-.26-.26-.39.13-1.69.39-3.25.52-4.94.13-1.82.52-3.77.39-5.59-.13-1.56.26-3.25-.65-4.81-.26-.39-.39-.78-.39-1.3-.39-1.69-.65-3.51-1.17-5.2-.26-.78-.91-1.69-1.56-1.95-3.25-1.43-5.72.78-6.5 3.9-.26 1.17-.65 2.34-1.17 3.38-.52 1.04-1.04 1.82-1.69 2.73-1.04 1.69-1.95 3.38-3.25 4.81-1.56 1.95-3.25 3.64-4.94 5.46-.65.65-1.3 1.43-1.95 2.21zm8.84 20.15c-.13 1.17-.13 2.34-.26 3.38-.13 1.69-.26 3.25-.52 4.68-.26 1.43-.65 2.86-1.17 4.16-1.17 3.12-2.6 5.98-3.9 8.97 0 .13 0 .39-.13.39-1.17.78-2.34 1.56-3.51 2.08-.65.26-1.3 0-1.95-.65-.78-.91-.78-1.95-1.17-2.86-1.04-2.86-.52-5.33 1.17-7.54.52-.65.78-1.43 1.3-2.21.26-.52.52-.91.78-1.43.39-.39.65-.91 1.3-1.17.65-.13 1.04-.78 1.43-1.3l4.29-4.29c.78-.78 1.56-1.43 2.34-2.21z"/><path d="M219.665 14.5h.52c.13.39.39.78.39 1.17.52 1.69.91 3.38 1.17 5.2.26 1.82 2.47 2.6 3.9 2.47 1.43-.13 2.34-1.82 1.95-3.51-.52-1.95-1.17-3.77-1.69-5.72-.52-1.95-1.43-3.64-2.99-4.94-.65-.65-1.3-1.43-1.95-2.08-.39-.39-.78-.78-1.17-.91-1.82 0-3.77-.13-5.59.13-1.17.13-2.34.91-3.51 1.56-1.82 1.04-3.77 2.08-5.2 3.51-2.08 1.95-4.42 3.9-5.72 6.63-.65 1.69-2.08 3.12-2.86 4.68-1.69 3.38-3.12 6.89-4.68 10.4-1.82 4.55-3.38 9.1-4.16 13.91-.26 1.69-.65 3.38-.78 5.07-.13 2.21-.13 4.42 0 6.63.13 2.86.26 5.72.52 8.45.26 2.99 1.69 5.59 3.25 8.19 2.86 4.68 6.11 8.97 11.57 10.66 2.99.91 5.98 1.82 9.1 2.21 2.86.39 5.98 0 8.45-1.82.13-.13.39-.13.78-.13l-.39 2.34c-.39 3.12-.91 6.37-1.17 9.49-.13 1.43-.52 2.6-1.69 3.51-5.07 3.9-10.53 7.28-15.08 11.96-2.86 2.86-5.85 5.72-7.54 9.62-2.21 5.07-3.25 10.27-2.47 15.73.26 1.69.91 3.51 1.69 5.2.78 1.56 1.95 2.86 2.99 4.16.26.39.78.52 1.17.65 1.43.65 2.73 1.43 4.16 1.95 1.3.39 2.6.78 3.77.78 1.82-.13 3.77-.52 5.46-.91.52-.13 1.04-.65 1.17-1.17.91-1.56 1.69-3.25 2.47-4.94.39-.78.91-1.69.91-2.73.26-1.56.78-2.86 2.21-3.64.52-.26.91-.78 1.3-1.3.52-.65.91-1.3 1.43-1.82.39-.65.78-1.3 1.3-1.82.52-.91 1.04-1.82 1.69-2.73 1.04-1.17 2.34-2.08 3.12-3.25.78-1.04.91-2.34 1.3-3.51 1.17-3.12 2.47-6.37 3.64-9.62.26-.52.39-1.17.52-1.69.52-1.69 1.43-3.51 1.56-5.2.26-2.99.13-6.11.13-9.1-.13-1.82-.13-4.42 1.56-5.46 1.43-.91 1.04-1.56 2.47-2.73.91-.91 2.47-2.73 3.25-3.64 2.73-3.51 1.56-2.6 4.55-6.63 1.04-1.43 1.43-2.34 2.47-3.77 2.6-3.77 2.99-7.67 5.46-11.18 1.69-2.21 3.38-4.16 1.82-4.55-.39-.13-.65-.26-1.04-.26-.26.13-.65.26-.78.39-.91 1.43-1.43 3.25-2.21 4.68-2.86 4.81-2.47 5.98-5.72 10.79-2.21 3.25-3.9 5.46-6.5 8.84-.78 1.04-1.69 2.6-3.12 3.64.13-1.69.39-2.86.52-4.16.26-1.82.39-3.77.65-5.72 0-.52-.13-1.17-.13-1.69-.13-1.04-.52-1.95-.52-2.86-.13-1.17-.13-2.34 0-3.51v-5.59c0-1.04.26-2.21 0-3.25-.26-1.56-1.04-3.12-1.3-4.68-.39-2.6-2.08-4.16-3.9-5.85-.13-.13-.52-.26-.78-.13-.65.52-1.43 1.04-1.82 1.82-2.73 3.77-3.25 8.32-4.55 12.61-.65 2.34-.78 4.81-2.21 7.02-2.34 3.64-4.68 7.02-8.45 9.23-2.99 1.82-5.85 2.08-9.1 1.17-.39-.13-.78-.65-1.04-1.04-.26-.52-.39-.91-.65-1.43-1.43-2.73-2.34-5.59-2.08-8.84.26-2.34.13-4.55.39-6.89.26-2.08.65-4.03 1.17-5.98.52-1.95 1.17-3.77 1.82-5.72.78-2.21 1.56-4.42 2.34-6.5.26-.65.52-1.17.78-1.82.39-1.3.78-2.6 1.43-3.77.52-1.43 1.69-2.73 1.82-4.03.39-3.25 2.08-5.72 3.77-8.32.52-.78 1.17-1.43 1.69-2.21.65-1.04 1.43-2.08 1.69-3.25.65-2.73.91-5.59 1.3-8.45zm-1.69 93.47c-.78 6.11-1.56 11.96-2.21 17.94-.39 3.12-1.3 5.98-2.08 8.97-.91 3.64-2.6 6.76-4.68 9.88-1.3 2.08-4.55 1.95-5.85-.26-.91-1.56-1.69-3.25-2.6-4.81-.65-.91-1.43-1.69-2.21-2.6-.26-.26-.65-.65-.65-1.04 0-3.25-.78-6.63 1.69-9.49 1.04-1.43 1.56-3.51 2.73-4.94 1.95-2.34 4.29-4.68 6.63-6.76 2.73-2.47 5.72-4.55 8.58-6.76.26-.13.39-.13.65-.13z"/><path d="M284.145 68.19v-4.42c-.13-1.17-.26-2.47-.39-3.64-.13-.65-.26-1.17-.26-1.82.13-2.47-.39-4.81-1.95-6.89-.52-.65-1.17-1.17-1.82-1.82-.78-1.04-1.95-1.17-2.99-1.56-.65-.13-1.56.26-2.21.52-.52.13-.78.26-1.17-.26-.52-1.04-1.17-1.95-1.69-2.86-.78-1.17-1.56-2.08-3.12-2.21-1.56-.26-3.12-.39-4.42.65-.52.39-.91.91-1.56 1.17-1.95.65-3.38 2.08-4.55 3.51-1.3 1.82-2.47 3.64-3.51 5.59-1.04 1.82-2.08 3.77-2.6 5.72-.52 2.34-1.04 4.68-.26 7.15.26 1.17.26 2.47.65 3.77.65 2.34 2.08 4.29 4.03 5.98 1.95 1.56 3.77 3.38 6.24 4.55 1.04.39 1.95 1.04 2.99 1.56 1.3.52 2.6.91 3.9 1.3 1.17.26 2.21.65 3.38.65 1.82.26 3.51.13 5.2-.78 1.56-.91 2.47-2.21 2.47-3.9 0-1.82.39-3.64 1.3-5.33.52-.78.91-1.69 1.17-2.73.13-.52.39-.65.91-.65 1.82-.26 12.22-7.15 15.86-21.97.26-1.04-.13-.78-.39-1.69-.91 1.95-1.82 3.77-2.6 5.72-1.3 3.12-2.73 4.42-4.55 7.28-1.04 1.69-2.99 4.16-4.16 5.72-1.04 1.17-2.6.52-3.9 1.69zm-14.56-10.4c1.43 5.72 4.81 9.75 10.01 12.22-.52 2.99-2.47 4.81-4.68 6.5-.78.65-1.69 1.43-2.73 1.3-1.82-.26-3.77-.65-4.94-2.21-.52-.52-.65-1.56-.65-2.47 0-1.17 0-2.34-.39-3.38-.26-.78-.26-1.56-.26-2.34-.13-2.34.39-4.42 1.3-6.5.39-1.17 1.3-2.08 1.95-3.12h.39zm10.27 8.71c-.26-.65-.52-1.3-.91-1.95-.52-1.17-1.17-2.34-1.82-3.51-.26-.52-.52-1.17-.91-1.69-.13-.39-.39-.78-.65-1.04-1.17-1.43-1.95-2.99-2.34-4.55-.13-.78.39-1.56.65-2.34.13-.13.52-.26.78-.13 1.95.52 4.94 2.73 5.2 5.33.13 1.82.78 3.51.65 5.33 0 1.43 0 2.99-.13 4.55h-.52z"/><path d="M289.995 48.82c.13 0 .13.13.13.26.65-.26 1.3-.39 1.82-.78 1.04-.65 1.95-1.56 2.86-2.47.39-.26.65-.39.78.26.13 1.43.39 2.86.39 4.29 0 3.12-.13 6.24-.13 9.36 0 2.21.13 4.42.13 6.63 0 .65-.26 1.3-.26 1.82 0 2.34.13 4.68.13 6.89.13 2.21.39 4.29 1.82 6.11.39.39.78.91 1.17 1.3 1.82 1.3 3.64.91 5.46-.13 1.56-.91 3.12-1.95 4.55-3.25 1.3-1.17 2.86-2.34 3.64-3.77 1.69-2.86 2.99-5.85 4.42-8.84.26-.65.65-1.43.91-2.08.13 0 .26 0 .26.13.13.78.13 1.69.26 2.6.13 1.69.13 3.38.39 5.07 0 .78.13 1.43.39 2.21.13 1.04.39 2.21.78 3.25.91 2.6 2.73 4.42 4.81 5.98 1.56 1.04 1.43 1.95 3.25 2.08 1.04.13 1.56-.78 2.34-1.04.65-.26 1.17-.65 1.43-1.43.13-.26.39-.52.52-.52.91-.26 1.56-.91 1.95-1.82.26-.26.52-.65.78-.78 1.3-1.04 2.34-2.08 2.86-3.64.39-.78.65-1.69 1.17-2.34 1.69-2.6 2.99-5.46 4.03-8.32.26-.52.52-1.04 0-1.56-.13-.13-.13-.65 0-.78 1.04-1.17 1.3-2.6 1.43-4.03.13-1.43 1.69-2.86.26-3.9-.13.39-.26.52-.26.78-.65 2.34-1.04 4.68-2.21 6.89-1.04 2.08-1.95 4.29-2.99 6.37-.78 1.43-1.69 2.73-2.47 4.03-1.69 2.73-3.77 5.07-6.11 7.28-.13.13-.52.26-.91.39.13-1.17.26-2.08.39-3.12.39-1.3 1.04-2.47.39-3.9 0-.39 0-.78.13-1.17.13-1.56.26-3.25.39-4.81.13-1.56 0-3.12 0-4.81 0-3.25 0-6.5-.13-9.88 0-.78-.26-1.56-.39-2.34 0-.91-.39-1.82-.78-2.6-.39-.52-.52-1.17-1.04-1.56-.91-.78-2.08-1.56-3.12-2.34-1.17-.78-2.21-.39-3.51-.39-1.56.26-1.82 1.82-2.99 2.34V47c-.13.91-.13 1.82-.26 2.73 0 1.3 0 2.73-.26 4.03-.52 2.21-1.04 4.29-1.82 6.5-1.04 2.47-2.08 5.07-3.25 7.41-1.56 2.73-3.25 5.33-4.94 7.8-.65.91-1.43 1.56-2.34 2.47.26-1.56.26-2.86.65-4.29.52-2.86.39-5.72.52-8.71.13-1.82.26-3.77.26-5.59-.13-1.43-.39-2.86-.52-4.29-.13-1.17-.39-2.34-.39-3.51.13-2.73 0-5.46-1.69-7.8-1.04-1.43-2.21-2.73-3.9-3.38-1.43-.65-2.86-.52-4.29-.13-1.3.26-2.21.91-2.47 2.34 0 0 0 .13-.13.26-1.17 1.56-2.47 3.25-3.64 4.81-.26.39-.39.78-.65 1.17z"/><path d="M363.445 82.49c2.34-.91 2.86-3.25 2.08-4.94-.39-.78-.26-1.43.13-1.95.65-.78.52-1.56.52-2.34-.13-1.43-.13-2.86-.13-4.29 0-.65.26-1.17.65-1.69 1.04-1.17 2.21-2.21 2.73-3.64.52-1.43 1.17-2.73 1.95-3.9.91-1.43 1.56-2.99 1.95-4.68.13-.65.26-1.3.13-2.08-.26-2.34-1.69-4.16-3.38-5.46-1.17-1.04-2.99-1.43-4.55-2.08h-.26c-1.82.26-3.38.91-4.81 1.82-.65.52-1.3 1.04-1.95 1.43-.78.26-1.56.52-2.34.65-.65 0-1.43.52-1.95-.39-.26-.52-.65-.91-.78-1.43-.39-.78-.91-1.69-.78-2.34.52-1.56 1.43-3.12 1.95-4.81.65-1.82 1.43-3.64 1.69-5.59.26-2.08.13-4.29 0-6.37s-1.56-3.38-3.64-3.38c-.52 0-1.17.13-1.56.52-1.17 1.04-2.47 2.08-3.38 3.38-1.69 2.47-2.73 5.33-2.73 8.32-.13 2.21.13 4.55.39 6.76.13 1.04.52 2.08 1.04 2.86.52.65 1.69 1.3 1.43 1.95-.78 1.69-1.69 4.94-2.21 6.63-1.43 3.64-2.86 5.46-4.16 9.1-.13.39-.91 1.56-.78 1.69.52.26.78-.13 1.3-.26.39 0 .39-.39.65-.78.39-.52.78-1.56 1.3-2.21 1.17-1.43 3.77-7.15 4.29-9.1.26-.65 1.3-2.73 1.43-3.64.39.26 1.04 1.3 1.3 1.43.91.65 1.69 1.17 2.6 1.56.78.39 1.56.39 2.34.78.65.26.78.78.52 1.43-.13.52-.26 1.17-.39 1.69-.26 1.43-.52 2.99-.78 4.55-.26 2.08-.52 4.29-.65 6.37 0 2.21 0 4.29.26 6.37.52 4.42 2.47 7.93 6.24 10.4.78.65 1.56 1.3 2.47 1.56 1.82.52 3.51 0 5.07-1.04.91-.52 1.69-1.17 2.47-1.69 2.47-1.56 4.55-3.51 6.11-5.85.78-1.17 1.43-2.34 2.34-3.25 1.56-1.3 2.47-3.12 3.25-4.81.78-1.56 1.43-3.25 2.08-4.94.13-.39.13-.91.13-1.43.13-.52.13-1.04.13-1.56 0-.39.13-.65.13-.91 0 0-.13-.13-.26-.13-.26.65-.52 1.3-.91 1.95-2.08 3.25-4.16 6.63-6.24 9.88-1.3 1.95-2.86 3.9-4.29 5.59-.78.91-1.95 1.69-2.86 2.47-1.43 1.43-2.99 2.6-4.81 3.38-1.82.78-2.34.52-2.47-1.3v-.26zm-9.88-52.91c1.56 1.43-.13 7.93-1.69 9.88-.39-1.69-.13-3.38.26-4.94.39-1.56.91-3.12 1.43-4.94z"/><path d="M385.155 85.22c1.04 0 1.69.26 2.47.13 1.82-.26 3.77-.65 5.46-1.04.91-.13 1.43-.52 1.82-1.43.39-.52.78-1.04 1.04-1.43.52-.65 1.17-1.17 1.56-1.69 1.04-1.56.91-3.25 1.04-4.94.13-1.04.39-2.08.39-2.99 0-3.25-.13-6.5-.26-9.75 0-1.82-.13-3.77-.13-5.46.13-1.04.26-1.95.91-2.73 1.69-2.47 3.77-4.81 5.72-7.15.13-.39.39-.52 1.04-.91.13 1.43.13 2.6.26 3.77s.39 2.21.52 3.38c.26 1.04.78 2.21.39 2.99-.52.91 0 1.69.13 2.73.13 3.12.26 6.5.26 9.62 0 1.56 1.3 2.6 2.6 2.99 1.17.26 1.82-.26 2.47-1.3 1.17-1.82 1.69-3.9 1.17-5.98-.26-1.04-.78-2.08-1.04-3.12-.39-1.56-.78-2.99-1.04-4.55 0-.26.13-.78.26-1.04.78-1.04 1.56-1.69 2.21-2.73 2.08-2.47 4.03-4.94 7.41-6.11.39-.13.78-.52 1.43-.78-.13 1.69-.39 3.25-.52 4.68-.13 1.82-.39 3.51-.52 5.07-.13 2.34-.13 4.68-.26 6.89v4.68c-.13 1.04-.26 1.95-.26 3.12-.26 2.21.26 4.42 1.04 6.5.91 1.95 2.21 3.38 3.77 4.55s3.77 1.43 5.59 1.82c1.95.26 2.99-1.69 4.42-2.86 1.43-1.17 2.73-2.6 3.9-4.16 1.69-2.21 3.38-4.55 5.07-6.76 2.73-3.77 5.33-7.41 7.15-11.7.52-1.56 1.3-2.21-.78-2.21-1.04 2.08-2.08 2.99-3.38 5.07-1.56 2.6-3.25 5.2-4.94 7.54-1.95 2.86-4.16 5.2-6.37 7.67-.91 1.3-1.43 1.56-2.73 2.6.39-1.3-.39-.78-.26-1.95 0-.91-.13-1.69-.13-2.6.52-4.16.39-8.19 0-12.35v-1.95c-.13-1.17-.13-2.34-.39-3.64-.26-1.69-.65-3.38-.91-5.2-.13-1.82-.78-3.38-1.82-4.81-.52-.78-1.17-1.3-1.56-2.21-.78-1.56-2.34-1.82-4.03-1.82-.65 0-1.56.26-2.08.78-1.43 1.17-2.73 2.47-4.16 3.64l-5.85 4.68c-.39.26-.78.52-1.43.91 0-.78.13-1.43-.13-1.95-.52-1.95-1.17-3.64-2.08-5.33-1.04-2.34-3.25-2.34-4.55-1.17-1.69 1.56-3.12 3.25-4.81 5.07-.39.39-.78.91-1.3 1.56-.13-1.69-.39-3.38-.39-4.81-.13-1.95-.78-3.51-1.69-5.33-1.3-1.82-3.25-2.73-5.07-3.38-1.69-.78-3.64-.91-5.46-.78-.65 0-1.04.39-1.56.78-.26.13-.39.39-.65.39-1.3 0-1.17 1.17-1.17 1.82-.13 1.95 0 3.77 0 5.85 0 3.77.13 7.41.26 11.18 0 1.17-.13 2.34 0 3.38.39 2.34.65 4.42.91 6.76v5.07c0 1.3-.13 2.73 0 4.16.13 1.17.39 2.47.65 3.64.13 2.08.26 4.29.39 6.63z"/><path d="M445.995 70.92c0 .13.13.13.13.13-.13 2.47.78 4.81 1.82 7.02.52.91 1.04 1.69 1.69 2.47 1.3 1.69 2.86 3.25 4.81 4.16 2.21.91 4.42 1.43 6.76 1.17.78-.13 1.56-.13 2.34-.26.39 0 .91-.13 1.43-.26.78-.26 1.56-.39 2.34-.78.65-.26 1.17-.78 1.82-1.17.78-.52 1.69-.91 2.47-1.43 1.43-.91 2.34-2.21 3.25-3.77.39-.78.78-1.56 1.43-2.21 1.43-1.17 2.34-2.73 3.25-4.29.26-.52.78-.91.91-1.43.26-1.3 1.17-1.95 1.95-2.86.26-.13.52-.52.65-.78l.78-1.95c.26-.52.39-.91.52-1.43 0-.65.13-1.17.65-1.69.78-1.04 1.95-1.43 2.34-2.86.26-.78.13-1.95-.52-2.21-.26-.13-.65 0-.78.13-.52.78-1.04 1.69-1.56 2.6-1.69 2.86-3.38 5.72-5.07 8.45-1.04 1.56-2.34 3.12-3.38 4.68-1.3 2.21-3.25 3.9-5.33 5.46-1.3 1.17-2.86 1.95-4.29 2.99-1.17.91-2.47 1.69-3.9 1.82-1.3.26-2.73.52-4.16.39-2.08-.13-3.25-1.3-4.42-2.73 0-.13-.13-.39-.13-.52.65-1.17.78-2.6 1.04-3.9.39-1.69.78-3.51 1.3-5.07.13-.78.52-1.56 1.17-1.82 1.17-.78 2.47-1.43 3.64-2.34 1.3-1.17 2.86-2.21 4.29-3.38 1.69-1.3 3.12-2.86 4.29-4.68.26-.39.78-.65 1.3-.91.13-.13.39-.26.39-.39.52-.91.91-1.69 1.43-2.6.26-.52.65-1.04.91-1.56.13-.26.39-.52.39-.65.26-.52.39-1.17.39-1.69.26-.91.39-1.82.52-2.73 0-.13-.13-.39-.13-.52-.39-.78-.78-1.43-1.17-2.21-.26-.52-.52-1.04-.65-1.69-.39-1.04-1.04-1.69-1.95-2.34-.78-.52-1.69-.52-2.47-.65-1.17-.39-2.08 0-2.86.26-1.17.39-2.34.65-3.25 1.69-.26.26-.52.39-.78.52-.91.52-1.95.91-2.73 1.69-1.17.91-2.21 2.08-3.25 3.25-.52.39-.91 1.04-1.43 1.56-.39.39-.65.91-1.04 1.43-.52.91-1.17 1.82-1.69 2.73-.91 1.56-1.69 3.12-2.34 4.81-.65 1.56-1.3 3.12-1.56 4.94-.13.39-.39.65-.52 1.04-.13.78-.26 1.43-.26 2.08l-.78 4.29zm23.92-22.62c.39.78.91 1.04 1.82.78-.13.78-.13 1.43-.39 2.08-.78 2.6-1.69 5.07-3.51 7.02-1.56 1.69-3.25 3.25-4.94 4.68-1.17 1.04-2.6 1.82-3.9 2.73-.26.13-.39.26-.52.26.52-1.56 1.04-2.99 1.69-4.55.26-.91.52-1.82.91-2.73.39-.78.91-1.43 1.3-2.21.26-.39.39-.78.65-1.3.78-1.17 1.56-2.47 2.47-3.77.13-.26.52-.39.91-.65.78-.52 1.56-1.04 2.47-1.56.26-.26.65-.39 1.04-.78z"/><path d="M473.425 30.62v.39c1.17.39 2.34.91 3.64.91 2.47.13 4.94.13 7.41.13 1.56 0 1.56 0 1.56 1.43-.13 1.69-.39 10.53-.52 12.22-.26 1.69-.52 7.28-.65 8.97-.13 1.69-.13 3.51-.13 5.33 0 .78.13 1.69.13 2.47 0 .65-.39 1.17-.39 1.82-.13 2.6-.13 5.2-.13 7.67-.13 1.56 0 3.12 0 4.68.13 2.99 1.43 5.46 3.77 6.89 2.6 1.56 5.33 2.86 7.93 3.9 1.43.65 2.99.65 4.29-.65 1.04-.91 2.08-1.69 2.99-2.6.91-.91 1.82-1.95 2.73-2.99 1.17-1.43 2.08-2.99 3.38-4.42 1.82-1.95 3.51-4.03 4.68-6.5.39-.78.65-1.43 1.04-2.08 1.17-1.95 2.34-3.77 3.38-5.72.91-1.56 1.43-3.38 2.34-4.94.65-1.17.78-2.21.13-3.51-.13.13-.26.26-.26.39-.91 2.99-2.6 5.46-4.16 8.06-1.69 2.6-3.51 5.07-5.2 7.67-.52.91-1.04 1.95-1.82 2.86-1.04 1.43-2.34 2.6-3.38 4.03-1.82 2.34-3.9 4.29-6.24 6.11-.13.13-.39.13-.91.39.13-1.82.39-3.38.39-4.94.13-2.34.13-4.68.26-7.02 0-1.43 0-2.86.26-4.16.26-1.82.26-3.64.13-5.46V56.1c0-1.56.13-7.15.13-8.71-.13-1.04-.52-9.36-.39-10.53 0-1.69.39-3.51.65-5.33h2.86c.65 0 1.17.26 1.82.26 1.56.13 2.99.13 4.55.26 1.04.13 1.04.13.78-.91 1.04-.78 1.04-1.04.26-1.69-.65-.52-1.56-.78-2.34-.91-2.47-.65-5.07-.52-7.54 0-.65.13-1.04 0-1.17-.78 0-.52-.26-1.17-.39-1.69-.52-1.04-1.17-5.98-1.56-7.15-.52-1.82-1.04-3.77-1.69-5.59-.26-.78-.52-1.56-.91-2.34-.91-1.95-2.6-2.73-4.68-3.12-1.95-.26-2.86.52-3.12 2.34 0 .52.13 1.17 0 1.69-.13 3.51-.39 11.05-.65 14.69 0 .78-.13 1.43-.26 2.21-.65 0-1.3-.13-1.82 0-1.82 0-3.64.13-5.46.13-.91.13-1.69 0-2.47.26-1.04.39-2.21.91-3.25 1.43zM31.815 83.01c1.69-.52 3.77-.52 5.2-1.17 1.3 0 1.69-.39 1.69-1.56.52-1.04.52-2.08 1.04-3.25 2.21-2.6 2.73-6.24 3.25-9.49 0-1.04.52-1.56 1.43-1.56 1.69-.65 3.38-1.17 5.07-1.56 2.08-1.17 2.47-3.38 1.43-4.81-1.04-1.56-2.73-2.86-3.64-4.29-.65 0-1.17.52-1.17 1.04-.39 0-1.69.39-2.21 0 0 0-.39-.52-.39-1.04v-4.29c0-.39 0-.39.39-.39.52 0 .52-.78 1.3-.78 2.08 0 4.29 0 6.37-.52 2.21 0 3.12-2.99 2.21-4.68-1.3-1.69-2.21-2.73-3.38-3.77-.52-1.04-.52-1.04-1.69 0h-.52c-2.08.52-3.77 1.04-5.72 1.04 0-.52-.52-.52-.52-1.04 0-2.73-.52-5.33-1.69-8.45-1.95-4.29-3.25-5.98-7.54-5.98-.91 0-.91.65-.91 1.69 0 1.43.52 2.73.52 3.64v9.62c0 1.17-.52 1.17-1.04 1.56-2.86 0-5.33.65-8.06.65-.91.52-.91 0-.91-.65-.78-2.6-1.3-5.33-1.69-7.41-1.69-3.77-4.81-5.98-9.1-4.68-.39 0-.91.52-.39 1.56v2.21c0 2.99 0 6.76-.52 10.01v.91c-2.86.78-5.46 1.3-8.06 0-.65 0-1.3-.52-1.69 0-.52 0 0 1.3 0 1.69 0 .52 0 1.17.39 1.56 1.3 2.73 3.38 4.29 5.59 5.46.91.39 2.08 1.04 2.99 1.56.78 0 .78.52.78.52 0 1.04.52 1.69.52 2.6 0 1.17 0 1.56-1.82 2.08-2.08.78-4.68 1.3-7.41.78-1.04-.78-1.56 0-1.04 1.43 0 1.56 1.04 3.25 2.6 4.29 1.69 1.04 3.38 2.6 5.85 3.25 1.82 0 1.82.52 1.82 1.95 0 2.21-.52 4.29-.52 6.5 0 .65 0 1.04.91 1.04 1.56 0 3.25.52 4.81.52.39-.52.91-.52.91-.91 1.3-1.17 1.69-2.08 2.21-3.38 1.17-2.08 1.56-4.29 2.08-6.37 0-1.04.78-1.04 1.69-1.04 1.17 0 2.08-.52 3.77-.52 1.43 0 3.25-.52 4.81-.52v14.95zm0-30.94c0 1.56-.52 2.6-.52 3.77v.91c0 1.82-.65 1.82-1.56 2.21-2.21 0-4.94 0-7.02.65h-.39v-4.94c.39-1.04.39-1.04 1.43-1.04 2.21-.52 4.68-.91 8.06-1.56z"/></g></svg>